M48
; DRILL file KiCad 10.0.3 date 2026-07-16T14:50:03
; FORMAT={-:-/ absolute / metric / decimal}
; #@! TF.CreationDate,2026-07-16T14:50:03-04:00
; #@! TF.GenerationSoftware,Kicad,Pcbnew,10.0.3
; #@! TF.FileFunction,Plated,1,8,PTH
FMAT,2
METRIC
; #@! TA.AperFunction,Plated,PTH,ViaDrill
T1C0.200
; #@! TA.AperFunction,Plated,PTH,ViaDrill
T2C0.250
; #@! TA.AperFunction,Plated,PTH,ViaDrill
T3C0.300
%
G90
G05
T1
X134.0Y-94.0
X134.214Y-98.908
X134.463Y-94.488
X134.468Y-91.44
X134.788Y-96.4
X135.145Y-91.474
X135.382Y-94.615
X135.738Y-93.574
X135.993Y-88.493
X136.042Y-97.536
X136.246Y-92.558
X136.358Y-99.51
X136.478Y-97.75
X136.646Y-91.675
X136.703Y-90.932
X136.906Y-94.361
X137.251Y-95.888
X137.304Y-90.925
X137.856Y-88.721
X137.86Y-89.717
X138.625Y-93.511
X139.0Y-95.5
X139.922Y-91.678
X140.118Y-94.52
X140.748Y-94.488
X140.868Y-99.585
X140.97Y-92.456
X141.072Y-89.713
X141.173Y-89.154
X141.448Y-99.585
X141.524Y-97.717
X141.978Y-99.585
X142.433Y-93.729
X142.478Y-99.585
X142.787Y-91.936
X142.881Y-95.32
X142.956Y-94.244
X143.053Y-88.494
X143.129Y-96.393
X143.205Y-90.17
X143.358Y-95.971
X143.362Y-97.1
X143.408Y-89.56
X143.42Y-94.526
X143.488Y-99.585
X143.535Y-97.799
X143.662Y-88.544
X143.778Y-92.395
X143.808Y-96.743
X143.848Y-95.64
X143.92Y-94.917
X144.003Y-99.603
X144.218Y-97.79
X144.272Y-89.662
X144.478Y-99.625
X144.75Y-97.829
X144.978Y-99.585
X145.038Y-88.9
X145.315Y-93.4
X145.458Y-97.61
X145.478Y-99.625
X145.491Y-97.028
X145.542Y-93.82
X145.978Y-99.585
X146.206Y-97.56
X146.5Y-93.5
X146.5Y-96.5
X146.668Y-97.45
X147.0Y-95.0
X147.015Y-99.585
X147.152Y-97.406
X147.422Y-91.999
X147.5Y-94.5
X147.5Y-96.0
X147.523Y-99.625
X147.858Y-97.37
X148.082Y-93.214
X148.148Y-92.0
X148.36Y-97.433
X148.442Y-99.139
X148.5Y-95.5
X148.539Y-90.576
X148.809Y-92.093
X149.0Y-94.5
X149.225Y-90.297
X149.25Y-89.611
X149.363Y-92.105
X149.368Y-96.109
X149.479Y-98.933
X149.5Y-93.5
X150.022Y-99.077
X150.042Y-92.11
X150.368Y-93.28
X150.466Y-98.894
X150.785Y-94.217
X150.818Y-90.17
X151.252Y-88.433
X151.302Y-90.017
X151.372Y-90.817
X151.587Y-99.06
X151.638Y-89.662
X151.782Y-90.144
X151.979Y-91.562
X152.198Y-96.57
X152.205Y-89.486
X152.318Y-99.25
X152.426Y-93.218
X152.438Y-95.31
X152.491Y-96.15
X152.858Y-92.97
X153.0Y-88.5
X153.06Y-98.806
X153.218Y-94.55
X153.314Y-98.4
X153.503Y-90.097
X153.772Y-98.755
X153.878Y-97.085
X154.62Y-89.977
X154.889Y-96.164
X155.158Y-94.574
X155.245Y-98.45
X155.413Y-92.1
X155.698Y-96.09
X155.75Y-98.25
X155.956Y-92.761
X156.413Y-96.368
X156.698Y-98.06
X156.75Y-92.25
X156.757Y-97.576
X157.0Y-94.5
X157.255Y-97.361
X157.697Y-97.077
X158.422Y-97.381
X159.098Y-89.884
X159.395Y-98.075
X159.621Y-96.098
X160.319Y-99.402
X160.389Y-98.539
X162.219Y-98.498
X162.324Y-99.23
X162.373Y-89.834
X162.814Y-93.984
X163.0Y-88.5
X163.145Y-99.405
X163.5Y-95.5
X163.75Y-92.25
X164.5Y-97.25
X165.862Y-94.59
X166.472Y-94.742
X167.25Y-92.5
X167.25Y-96.0
T2
X136.7Y-96.684
T3
X152.952Y-91.528
X154.534Y-98.501
X155.267Y-89.902
X159.146Y-96.607
X159.258Y-88.646
X163.807Y-90.213
X164.991Y-91.509
X165.354Y-93.853
X165.5Y-96.0
X167.0Y-97.155
M30
