%TF.GenerationSoftware,KiCad,Pcbnew,10.0.3*%
%TF.CreationDate,2026-07-16T14:50:02-04:00*%
%TF.ProjectId,ESP32-S3 Small Camera,45535033-322d-4533-9320-536d616c6c20,rev?*%
%TF.SameCoordinates,Original*%
%TF.FileFunction,Soldermask,Bot*%
%TF.FilePolarity,Negative*%
%FSLAX46Y46*%
G04 Gerber Fmt 4.6, Leading zero omitted, Abs format (unit mm)*
G04 Created by KiCad (PCBNEW 10.0.3) date 2026-07-16 14:50:02*
%MOMM*%
%LPD*%
G01*
G04 APERTURE LIST*
G04 Aperture macros list*
%AMRoundRect*
0 Rectangle with rounded corners*
0 $1 Rounding radius*
0 $2 $3 $4 $5 $6 $7 $8 $9 X,Y pos of 4 corners*
0 Add a 4 corners polygon primitive as box body*
4,1,4,$2,$3,$4,$5,$6,$7,$8,$9,$2,$3,0*
0 Add four circle primitives for the rounded corners*
1,1,$1+$1,$2,$3*
1,1,$1+$1,$4,$5*
1,1,$1+$1,$6,$7*
1,1,$1+$1,$8,$9*
0 Add four rect primitives between the rounded corners*
20,1,$1+$1,$2,$3,$4,$5,0*
20,1,$1+$1,$4,$5,$6,$7,0*
20,1,$1+$1,$6,$7,$8,$9,0*
20,1,$1+$1,$8,$9,$2,$3,0*%
%AMFreePoly0*
4,1,6,0.180000,0.075000,0.000000,-0.105000,-0.180000,-0.105000,-0.180000,0.105000,0.180000,0.105000,0.180000,0.075000,0.180000,0.075000,$1*%
%AMFreePoly1*
4,1,6,0.180000,-0.075000,0.180000,-0.105000,-0.180000,-0.105000,-0.180000,0.105000,0.000000,0.105000,0.180000,-0.075000,0.180000,-0.075000,$1*%
%AMFreePoly2*
4,1,6,0.180000,-0.105000,0.000000,-0.105000,-0.180000,0.075000,-0.180000,0.105000,0.180000,0.105000,0.180000,-0.105000,0.180000,-0.105000,$1*%
%AMFreePoly3*
4,1,6,0.180000,-0.105000,-0.180000,-0.105000,-0.180000,-0.075000,0.000000,0.105000,0.180000,0.105000,0.180000,-0.105000,0.180000,-0.105000,$1*%
%AMFreePoly4*
4,1,21,-0.300000,0.050000,-0.296194,0.069134,-0.285355,0.085355,-0.269134,0.096194,-0.250000,0.100000,0.250000,0.100000,0.269134,0.096194,0.285355,0.085355,0.296194,0.069134,0.300000,0.050000,0.300000,-0.050000,0.296194,-0.069134,0.285355,-0.085355,0.269134,-0.096194,0.250000,-0.100000,-0.250000,-0.100000,-0.269134,-0.096194,-0.285355,-0.085355,-0.296194,-0.069134,-0.300000,-0.050000,
-0.300000,0.050000,-0.300000,0.050000,$1*%
G04 Aperture macros list end*
%ADD10C,0.165000*%
%ADD11RoundRect,0.100000X0.100000X-0.130000X0.100000X0.130000X-0.100000X0.130000X-0.100000X-0.130000X0*%
%ADD12FreePoly0,90.000000*%
%ADD13FreePoly1,90.000000*%
%ADD14FreePoly2,90.000000*%
%ADD15FreePoly3,90.000000*%
%ADD16RoundRect,0.120000X0.000000X-0.169706X0.169706X0.000000X0.000000X0.169706X-0.169706X0.000000X0*%
%ADD17RoundRect,0.100000X-0.130000X-0.100000X0.130000X-0.100000X0.130000X0.100000X-0.130000X0.100000X0*%
%ADD18RoundRect,0.100000X0.130000X0.100000X-0.130000X0.100000X-0.130000X-0.100000X0.130000X-0.100000X0*%
%ADD19RoundRect,0.100000X-0.100000X0.130000X-0.100000X-0.130000X0.100000X-0.130000X0.100000X0.130000X0*%
%ADD20RoundRect,0.250000X-0.262500X-0.450000X0.262500X-0.450000X0.262500X0.450000X-0.262500X0.450000X0*%
%ADD21RoundRect,0.159000X0.189000X-0.159000X0.189000X0.159000X-0.189000X0.159000X-0.189000X-0.159000X0*%
%ADD22RoundRect,0.087500X0.425000X0.087500X-0.425000X0.087500X-0.425000X-0.087500X0.425000X-0.087500X0*%
%ADD23RoundRect,0.218750X-0.218750X-0.256250X0.218750X-0.256250X0.218750X0.256250X-0.218750X0.256250X0*%
%ADD24RoundRect,0.159000X-0.189000X0.159000X-0.189000X-0.159000X0.189000X-0.159000X0.189000X0.159000X0*%
%ADD25RoundRect,0.075000X-0.075000X-0.600000X0.075000X-0.600000X0.075000X0.600000X-0.075000X0.600000X0*%
%ADD26RoundRect,0.300000X-0.700000X-0.950000X0.700000X-0.950000X0.700000X0.950000X-0.700000X0.950000X0*%
%ADD27RoundRect,0.150000X-0.625000X0.150000X-0.625000X-0.150000X0.625000X-0.150000X0.625000X0.150000X0*%
%ADD28RoundRect,0.250000X-0.650000X0.350000X-0.650000X-0.350000X0.650000X-0.350000X0.650000X0.350000X0*%
%ADD29RoundRect,0.159000X0.159000X0.189000X-0.159000X0.189000X-0.159000X-0.189000X0.159000X-0.189000X0*%
%ADD30RoundRect,0.087500X0.087500X-0.425000X0.087500X0.425000X-0.087500X0.425000X-0.087500X-0.425000X0*%
%ADD31RoundRect,0.159000X-0.159000X-0.189000X0.159000X-0.189000X0.159000X0.189000X-0.159000X0.189000X0*%
%ADD32FreePoly4,0.000000*%
%ADD33RoundRect,0.050000X-0.050000X0.212500X-0.050000X-0.212500X0.050000X-0.212500X0.050000X0.212500X0*%
%ADD34R,2.450000X1.950000*%
%ADD35RoundRect,0.218750X0.256250X-0.218750X0.256250X0.218750X-0.256250X0.218750X-0.256250X-0.218750X0*%
%ADD36RoundRect,0.147500X0.147500X0.172500X-0.147500X0.172500X-0.147500X-0.172500X0.147500X-0.172500X0*%
G04 APERTURE END LIST*
%TO.C,U3*%
D10*
X152740262Y-89280198D02*
G75*
G02*
X152575262Y-89280198I-82500J0D01*
G01*
X152575262Y-89280198D02*
G75*
G02*
X152740262Y-89280198I82500J0D01*
G01*
X152740262Y-89680198D02*
G75*
G02*
X152575262Y-89680198I-82500J0D01*
G01*
X152575262Y-89680198D02*
G75*
G02*
X152740262Y-89680198I82500J0D01*
G01*
X152740262Y-90080198D02*
G75*
G02*
X152575262Y-90080198I-82500J0D01*
G01*
X152575262Y-90080198D02*
G75*
G02*
X152740262Y-90080198I82500J0D01*
G01*
X152740262Y-90480198D02*
G75*
G02*
X152575262Y-90480198I-82500J0D01*
G01*
X152575262Y-90480198D02*
G75*
G02*
X152740262Y-90480198I82500J0D01*
G01*
X153140262Y-89280198D02*
G75*
G02*
X152975262Y-89280198I-82500J0D01*
G01*
X152975262Y-89280198D02*
G75*
G02*
X153140262Y-89280198I82500J0D01*
G01*
X153140262Y-89680198D02*
G75*
G02*
X152975262Y-89680198I-82500J0D01*
G01*
X152975262Y-89680198D02*
G75*
G02*
X153140262Y-89680198I82500J0D01*
G01*
X153140262Y-90080198D02*
G75*
G02*
X152975262Y-90080198I-82500J0D01*
G01*
X152975262Y-90080198D02*
G75*
G02*
X153140262Y-90080198I82500J0D01*
G01*
X153140262Y-90480198D02*
G75*
G02*
X152975262Y-90480198I-82500J0D01*
G01*
X152975262Y-90480198D02*
G75*
G02*
X153140262Y-90480198I82500J0D01*
G01*
%TD*%
D11*
%TO.C,C19*%
X143277762Y-93260198D03*
X143277762Y-92620198D03*
%TD*%
D12*
%TO.C,U1*%
X151192762Y-93730198D03*
D13*
X151842762Y-93730198D03*
D14*
X151192762Y-92870198D03*
D15*
X151842762Y-92870198D03*
D16*
X151517762Y-93300198D03*
%TD*%
D17*
%TO.C,R26*%
X135406178Y-89646237D03*
X136046178Y-89646237D03*
%TD*%
D18*
%TO.C,R7*%
X153449642Y-97641656D03*
X152809642Y-97641656D03*
%TD*%
D11*
%TO.C,R23*%
X137257712Y-93106681D03*
X137257712Y-92466681D03*
%TD*%
D18*
%TO.C,C7*%
X160197894Y-88503344D03*
X159557894Y-88503344D03*
%TD*%
D19*
%TO.C,C22*%
X151075244Y-98340521D03*
X151075244Y-98980521D03*
%TD*%
D18*
%TO.C,R3*%
X158320000Y-99000000D03*
X157680000Y-99000000D03*
%TD*%
%TO.C,R4*%
X158320000Y-98250000D03*
X157680000Y-98250000D03*
%TD*%
D11*
%TO.C,C25*%
X146235324Y-89545823D03*
X146235324Y-88905823D03*
%TD*%
D20*
%TO.C,R1*%
X156087500Y-89000000D03*
X157912500Y-89000000D03*
%TD*%
D17*
%TO.C,C6*%
X153216115Y-92084561D03*
X153856115Y-92084561D03*
%TD*%
D11*
%TO.C,C36*%
X136246281Y-93195366D03*
X136246281Y-92555366D03*
%TD*%
D19*
%TO.C,C18*%
X139192000Y-92390000D03*
X139192000Y-93030000D03*
%TD*%
D21*
%TO.C,C1*%
X158856601Y-95940574D03*
X158856601Y-94940574D03*
%TD*%
D11*
%TO.C,R19*%
X152317762Y-99250198D03*
X152317762Y-98610198D03*
%TD*%
D22*
%TO.C,U12*%
X138708700Y-88707200D03*
X138708700Y-89357200D03*
X138708700Y-90007200D03*
X137033700Y-90007200D03*
X137033700Y-89357200D03*
X137033700Y-88707200D03*
%TD*%
D23*
%TO.C,L1*%
X156184500Y-95285592D03*
X157759500Y-95285592D03*
%TD*%
D11*
%TO.C,C33*%
X134558690Y-89545357D03*
X134558690Y-88905357D03*
%TD*%
D24*
%TO.C,C39*%
X144690818Y-91752705D03*
X144690818Y-92752705D03*
%TD*%
D25*
%TO.C,J1*%
X147977762Y-98775198D03*
X147477762Y-98775198D03*
X146977762Y-98775198D03*
X146477762Y-98775198D03*
X145977762Y-98775198D03*
X145477762Y-98775198D03*
X144977762Y-98775198D03*
X144477762Y-98775198D03*
X143977762Y-98775198D03*
X143477762Y-98775198D03*
X142977762Y-98775198D03*
X142477762Y-98775198D03*
X141977762Y-98775198D03*
X141477762Y-98775198D03*
X140977762Y-98775198D03*
X140477762Y-98775198D03*
X139977762Y-98775198D03*
X139477762Y-98775198D03*
X138977762Y-98775198D03*
X138477762Y-98775198D03*
X137977762Y-98775198D03*
X137477762Y-98775198D03*
X136977762Y-98775198D03*
X136477762Y-98775198D03*
D26*
X134787762Y-96400198D03*
X149667762Y-96400198D03*
%TD*%
D18*
%TO.C,R27*%
X144287200Y-88950800D03*
X143647200Y-88950800D03*
%TD*%
D27*
%TO.C,J3*%
X160814000Y-90484389D03*
X160814000Y-91484389D03*
X160814000Y-92484389D03*
X160814000Y-93484389D03*
X160814000Y-94484389D03*
X160814000Y-95484389D03*
X160814000Y-96484389D03*
X160814000Y-97484389D03*
D28*
X164689000Y-89184389D03*
X164689000Y-98784389D03*
%TD*%
D11*
%TO.C,C13*%
X154795126Y-89342989D03*
X154795126Y-88702989D03*
%TD*%
%TO.C,R25*%
X167030400Y-93995200D03*
X167030400Y-93355200D03*
%TD*%
D29*
%TO.C,R18*%
X154377762Y-99330198D03*
X153377762Y-99330198D03*
%TD*%
D18*
%TO.C,C2*%
X155119791Y-95529535D03*
X154479791Y-95529535D03*
%TD*%
%TO.C,R6*%
X158881351Y-94123024D03*
X158241351Y-94123024D03*
%TD*%
%TO.C,R17*%
X134973998Y-93289598D03*
X134333998Y-93289598D03*
%TD*%
D22*
%TO.C,U13*%
X142010700Y-88707200D03*
X142010700Y-89357200D03*
X142010700Y-90007200D03*
X140335700Y-90007200D03*
X140335700Y-89357200D03*
X140335700Y-88707200D03*
%TD*%
D11*
%TO.C,C26*%
X145540550Y-89545823D03*
X145540550Y-88905823D03*
%TD*%
%TO.C,C5*%
X139954000Y-93030000D03*
X139954000Y-92390000D03*
%TD*%
D30*
%TO.C,U11*%
X135625600Y-92277500D03*
X134975600Y-92277500D03*
X134325600Y-92277500D03*
X134325600Y-90602500D03*
X134975600Y-90602500D03*
X135625600Y-90602500D03*
%TD*%
D11*
%TO.C,C32*%
X166319200Y-93741200D03*
X166319200Y-93101200D03*
%TD*%
%TO.C,C21*%
X148057762Y-93215198D03*
X148057762Y-92575198D03*
%TD*%
D18*
%TO.C,R10*%
X152357762Y-92020198D03*
X151717762Y-92020198D03*
%TD*%
D31*
%TO.C,C14*%
X145580511Y-91796087D03*
X146580511Y-91796087D03*
%TD*%
D29*
%TO.C,C30*%
X152137762Y-94610198D03*
X151137762Y-94610198D03*
%TD*%
D32*
%TO.C,U5*%
X154922485Y-92994257D03*
X154922485Y-92594257D03*
X154922485Y-92194257D03*
X154922485Y-91794257D03*
X154922485Y-91394257D03*
X154922485Y-90994257D03*
X158722485Y-90994257D03*
X158722485Y-91394257D03*
X158722485Y-91794257D03*
X158722485Y-92194257D03*
X158722485Y-92594257D03*
X158722485Y-92994257D03*
D33*
X155697485Y-90806757D03*
X155697485Y-93181757D03*
D34*
X156822485Y-91994257D03*
D33*
X157947485Y-90806757D03*
X157947485Y-93181757D03*
%TD*%
D11*
%TO.C,R22*%
X138002508Y-93107559D03*
X138002508Y-92467559D03*
%TD*%
%TO.C,C20*%
X147357762Y-93235198D03*
X147357762Y-92595198D03*
%TD*%
D35*
%TO.C,L6*%
X151477762Y-97270198D03*
X151477762Y-95695198D03*
%TD*%
D36*
%TO.C,L5*%
X146557762Y-92740198D03*
X145587762Y-92740198D03*
%TD*%
M02*
