%TF.GenerationSoftware,KiCad,Pcbnew,10.0.3*%
%TF.CreationDate,2026-07-16T14:50:02-04:00*%
%TF.ProjectId,ESP32-S3 Small Camera,45535033-322d-4533-9320-536d616c6c20,rev?*%
%TF.SameCoordinates,Original*%
%TF.FileFunction,Legend,Bot*%
%TF.FilePolarity,Positive*%
%FSLAX46Y46*%
G04 Gerber Fmt 4.6, Leading zero omitted, Abs format (unit mm)*
G04 Created by KiCad (PCBNEW 10.0.3) date 2026-07-16 14:50:02*
%MOMM*%
%LPD*%
G01*
G04 APERTURE LIST*
%ADD10C,0.120000*%
%ADD11C,0.140357*%
%ADD12C,0.127000*%
%ADD13C,0.200000*%
G04 APERTURE END LIST*
%TO.C,U1*%
D10*
X150777762Y-93800198D02*
X150777762Y-92800198D01*
X152257762Y-93800198D02*
X152257762Y-92800198D01*
D11*
X152241595Y-94061983D02*
G75*
G02*
X152101239Y-94061983I-70178J0D01*
G01*
X152101239Y-94061983D02*
G75*
G02*
X152241595Y-94061983I70178J0D01*
G01*
%TO.C,R1*%
D10*
X156772936Y-88265000D02*
X157227064Y-88265000D01*
X156772936Y-89735000D02*
X157227064Y-89735000D01*
%TO.C,U12*%
X137136200Y-88247200D02*
X137136200Y-88272200D01*
X137136200Y-90442200D02*
X137136200Y-90467200D01*
X137136200Y-90467200D02*
X138606200Y-90467200D01*
X138606200Y-88247200D02*
X137136200Y-88247200D01*
X138606200Y-88272200D02*
X138606200Y-88247200D01*
X138606200Y-90467200D02*
X138606200Y-90442200D01*
X139051200Y-88267200D02*
X139191200Y-88077200D01*
X138911200Y-88077200D01*
X139051200Y-88267200D01*
G36*
X139051200Y-88267200D02*
G01*
X138911200Y-88077200D01*
X139191200Y-88077200D01*
X139051200Y-88267200D01*
G37*
%TO.C,L1*%
X156809221Y-94775592D02*
X157134779Y-94775592D01*
X156809221Y-95795592D02*
X157134779Y-95795592D01*
%TO.C,J1*%
X133927762Y-94332198D02*
X133927762Y-94887198D01*
X133927762Y-94332198D02*
X150527762Y-94332198D01*
X133927762Y-98387198D02*
X133927762Y-97887198D01*
X133927762Y-98387198D02*
X136127762Y-98387198D01*
X134327762Y-94332198D02*
X134327762Y-93832198D01*
X150127762Y-93832198D02*
X134327762Y-93832198D01*
X150127762Y-94332198D02*
X150127762Y-93832198D01*
X150527762Y-94332198D02*
X150527762Y-94887198D01*
X150527762Y-98387198D02*
X148327762Y-98387198D01*
X150527762Y-98387198D02*
X150527762Y-97887198D01*
X148297762Y-98887198D02*
X148627762Y-98647198D01*
X148627762Y-99127198D01*
X148297762Y-98887198D01*
G36*
X148627762Y-99127198D02*
G01*
X148297762Y-98887198D01*
X148627762Y-98647198D01*
X148627762Y-99127198D01*
G37*
%TO.C,J3*%
X161029000Y-88874389D02*
X161029000Y-89924389D01*
X161029000Y-89924389D02*
X160039000Y-89924389D01*
X161029000Y-99094389D02*
X161029000Y-98044389D01*
X163529000Y-88874389D02*
X161029000Y-88874389D01*
X163529000Y-99094389D02*
X161029000Y-99094389D01*
X165499000Y-90044389D02*
X165499000Y-97924389D01*
%TO.C,U13*%
X140438200Y-88247200D02*
X140438200Y-88272200D01*
X140438200Y-90442200D02*
X140438200Y-90467200D01*
X140438200Y-90467200D02*
X141908200Y-90467200D01*
X141908200Y-88247200D02*
X140438200Y-88247200D01*
X141908200Y-88272200D02*
X141908200Y-88247200D01*
X141908200Y-90467200D02*
X141908200Y-90442200D01*
X142353200Y-88267200D02*
X142493200Y-88077200D01*
X142213200Y-88077200D01*
X142353200Y-88267200D01*
G36*
X142353200Y-88267200D02*
G01*
X142213200Y-88077200D01*
X142493200Y-88077200D01*
X142353200Y-88267200D01*
G37*
%TO.C,U3*%
D12*
X152212762Y-88841698D02*
X152457762Y-88841698D01*
X152212762Y-89480198D02*
X152212762Y-88841698D01*
X152212762Y-90918698D02*
X152212762Y-90280198D01*
X152457762Y-90918698D02*
X152212762Y-90918698D01*
X153057762Y-88841698D02*
X153502762Y-88841698D01*
X153257762Y-90918698D02*
X153502762Y-90918698D01*
X153502762Y-88841698D02*
X153502762Y-89480198D01*
X153502762Y-90918698D02*
X153502762Y-90280198D01*
D13*
X151857762Y-90480198D02*
G75*
G02*
X151657762Y-90480198I-100000J0D01*
G01*
X151657762Y-90480198D02*
G75*
G02*
X151857762Y-90480198I100000J0D01*
G01*
%TO.C,U11*%
D10*
X133865600Y-90705000D02*
X133865600Y-92175000D01*
X133865600Y-92175000D02*
X133890600Y-92175000D01*
X133890600Y-90705000D02*
X133865600Y-90705000D01*
X136060600Y-92175000D02*
X136085600Y-92175000D01*
X136085600Y-90705000D02*
X136060600Y-90705000D01*
X136085600Y-92175000D02*
X136085600Y-90705000D01*
X135785600Y-93080000D02*
X135975600Y-93220000D01*
X135975600Y-92940000D01*
X135785600Y-93080000D01*
G36*
X135975600Y-93220000D02*
G01*
X135785600Y-93080000D01*
X135975600Y-92940000D01*
X135975600Y-93220000D01*
G37*
%TO.C,U5*%
X155262485Y-90594257D02*
X154722485Y-90594257D01*
X155262485Y-93391650D02*
X154892485Y-93391650D01*
X157462485Y-90594257D02*
X156182485Y-90594257D01*
X157462485Y-93394257D02*
X156182485Y-93394257D01*
X158382485Y-90594257D02*
X158922485Y-90594257D01*
X158382485Y-93394257D02*
X158922485Y-93394257D01*
X154562485Y-93394257D02*
X154322485Y-93724257D01*
X154802485Y-93724257D01*
X154562485Y-93394257D01*
G36*
X154802485Y-93724257D02*
G01*
X154322485Y-93724257D01*
X154562485Y-93394257D01*
X154802485Y-93724257D01*
G37*
%TO.C,L6*%
X150967762Y-96645477D02*
X150967762Y-96319919D01*
X151987762Y-96645477D02*
X151987762Y-96319919D01*
%TD*%
M02*
