%TF.GenerationSoftware,KiCad,Pcbnew,10.0.3*%
%TF.CreationDate,2026-07-16T14:50:02-04:00*%
%TF.ProjectId,ESP32-S3 Small Camera,45535033-322d-4533-9320-536d616c6c20,rev?*%
%TF.SameCoordinates,Original*%
%TF.FileFunction,Paste,Top*%
%TF.FilePolarity,Positive*%
%FSLAX46Y46*%
G04 Gerber Fmt 4.6, Leading zero omitted, Abs format (unit mm)*
G04 Created by KiCad (PCBNEW 10.0.3) date 2026-07-16 14:50:02*
%MOMM*%
%LPD*%
G01*
G04 APERTURE LIST*
G04 Aperture macros list*
%AMRoundRect*
0 Rectangle with rounded corners*
0 $1 Rounding radius*
0 $2 $3 $4 $5 $6 $7 $8 $9 X,Y pos of 4 corners*
0 Add a 4 corners polygon primitive as box body*
4,1,4,$2,$3,$4,$5,$6,$7,$8,$9,$2,$3,0*
0 Add four circle primitives for the rounded corners*
1,1,$1+$1,$2,$3*
1,1,$1+$1,$4,$5*
1,1,$1+$1,$6,$7*
1,1,$1+$1,$8,$9*
0 Add four rect primitives between the rounded corners*
20,1,$1+$1,$2,$3,$4,$5,0*
20,1,$1+$1,$4,$5,$6,$7,0*
20,1,$1+$1,$6,$7,$8,$9,0*
20,1,$1+$1,$8,$9,$2,$3,0*%
%AMFreePoly0*
4,1,6,0.180000,0.075000,0.000000,-0.105000,-0.220000,-0.105000,-0.220000,0.105000,0.180000,0.105000,0.180000,0.075000,0.180000,0.075000,$1*%
%AMFreePoly1*
4,1,6,0.180000,-0.075000,0.180000,-0.105000,-0.220000,-0.105000,-0.220000,0.105000,0.000000,0.105000,0.180000,-0.075000,0.180000,-0.075000,$1*%
%AMFreePoly2*
4,1,6,0.220000,-0.105000,0.000000,-0.105000,-0.180000,0.075000,-0.180000,0.105000,0.220000,0.105000,0.220000,-0.105000,0.220000,-0.105000,$1*%
%AMFreePoly3*
4,1,6,0.220000,-0.105000,-0.180000,-0.105000,-0.180000,-0.075000,0.000000,0.105000,0.220000,0.105000,0.220000,-0.105000,0.220000,-0.105000,$1*%
G04 Aperture macros list end*
%ADD10C,0.010000*%
%ADD11RoundRect,0.079500X0.079500X0.100500X-0.079500X0.100500X-0.079500X-0.100500X0.079500X-0.100500X0*%
%ADD12RoundRect,0.200000X-0.250000X-0.200000X0.250000X-0.200000X0.250000X0.200000X-0.250000X0.200000X0*%
%ADD13RoundRect,0.140000X-0.170000X0.140000X-0.170000X-0.140000X0.170000X-0.140000X0.170000X0.140000X0*%
%ADD14RoundRect,0.250000X0.275000X0.250000X-0.275000X0.250000X-0.275000X-0.250000X0.275000X-0.250000X0*%
%ADD15RoundRect,0.250000X0.850000X0.275000X-0.850000X0.275000X-0.850000X-0.275000X0.850000X-0.275000X0*%
%ADD16RoundRect,0.079500X-0.079500X-0.100500X0.079500X-0.100500X0.079500X0.100500X-0.079500X0.100500X0*%
%ADD17RoundRect,0.079500X-0.100500X0.079500X-0.100500X-0.079500X0.100500X-0.079500X0.100500X0.079500X0*%
%ADD18RoundRect,0.140000X0.140000X0.170000X-0.140000X0.170000X-0.140000X-0.170000X0.140000X-0.170000X0*%
%ADD19RoundRect,0.150000X0.150000X-0.512500X0.150000X0.512500X-0.150000X0.512500X-0.150000X-0.512500X0*%
%ADD20RoundRect,0.027500X-0.377500X-0.082500X0.377500X-0.082500X0.377500X0.082500X-0.377500X0.082500X0*%
%ADD21RoundRect,0.027500X-0.082500X-0.377500X0.082500X-0.377500X0.082500X0.377500X-0.082500X0.377500X0*%
%ADD22RoundRect,0.079500X0.100500X-0.079500X0.100500X0.079500X-0.100500X0.079500X-0.100500X-0.079500X0*%
%ADD23FreePoly0,180.000000*%
%ADD24FreePoly1,180.000000*%
%ADD25FreePoly2,180.000000*%
%ADD26FreePoly3,180.000000*%
%ADD27RoundRect,0.112500X0.000000X0.159099X-0.159099X0.000000X0.000000X-0.159099X0.159099X0.000000X0*%
%ADD28RoundRect,0.150000X0.512500X0.150000X-0.512500X0.150000X-0.512500X-0.150000X0.512500X-0.150000X0*%
%ADD29RoundRect,0.220000X-0.220000X-0.380000X0.220000X-0.380000X0.220000X0.380000X-0.220000X0.380000X0*%
%ADD30RoundRect,0.218750X0.218750X0.256250X-0.218750X0.256250X-0.218750X-0.256250X0.218750X-0.256250X0*%
%ADD31RoundRect,0.250000X0.615000X-0.435000X0.615000X0.435000X-0.615000X0.435000X-0.615000X-0.435000X0*%
%ADD32RoundRect,0.125000X0.125000X-0.250000X0.125000X0.250000X-0.125000X0.250000X-0.125000X-0.250000X0*%
%ADD33RoundRect,0.140000X-0.140000X-0.170000X0.140000X-0.170000X0.140000X0.170000X-0.140000X0.170000X0*%
%ADD34C,0.250000*%
%ADD35RoundRect,0.150000X-0.150000X0.512500X-0.150000X-0.512500X0.150000X-0.512500X0.150000X0.512500X0*%
%ADD36RoundRect,0.140000X0.170000X-0.140000X0.170000X0.140000X-0.170000X0.140000X-0.170000X-0.140000X0*%
%ADD37RoundRect,0.218750X0.256250X-0.218750X0.256250X0.218750X-0.256250X0.218750X-0.256250X-0.218750X0*%
%ADD38RoundRect,0.135000X0.135000X0.185000X-0.135000X0.185000X-0.135000X-0.185000X0.135000X-0.185000X0*%
G04 APERTURE END LIST*
D10*
%TO.C,U8*%
X146542762Y-93210198D02*
X147812762Y-93210198D01*
X147812762Y-94480198D01*
X146542762Y-94480198D01*
X146542762Y-93210198D01*
G36*
X147812762Y-94480198D02*
G01*
X146542762Y-94480198D01*
X146542762Y-93210198D01*
X147812762Y-93210198D01*
X147812762Y-94480198D01*
G37*
X146542762Y-94970198D02*
X147812762Y-94970198D01*
X147812762Y-96240198D01*
X146542762Y-96240198D01*
X146542762Y-94970198D01*
G36*
X147812762Y-96240198D02*
G01*
X146542762Y-96240198D01*
X146542762Y-94970198D01*
X147812762Y-94970198D01*
X147812762Y-96240198D01*
G37*
X148302762Y-93210198D02*
X149572762Y-93210198D01*
X149572762Y-94480198D01*
X148302762Y-94480198D01*
X148302762Y-93210198D01*
G36*
X149572762Y-94480198D02*
G01*
X148302762Y-94480198D01*
X148302762Y-93210198D01*
X149572762Y-93210198D01*
X149572762Y-94480198D01*
G37*
X148302762Y-94970198D02*
X149572762Y-94970198D01*
X149572762Y-96240198D01*
X148302762Y-96240198D01*
X148302762Y-94970198D01*
G36*
X149572762Y-96240198D02*
G01*
X148302762Y-96240198D01*
X148302762Y-94970198D01*
X149572762Y-94970198D01*
X149572762Y-96240198D01*
G37*
%TD*%
D11*
%TO.C,R16*%
X152447762Y-88680198D03*
X151757762Y-88680198D03*
%TD*%
%TO.C,C28*%
X142182762Y-97150198D03*
X141492762Y-97150198D03*
%TD*%
D12*
%TO.C,X1*%
X146943131Y-89862463D03*
X148343131Y-89862463D03*
X148343131Y-88762463D03*
X146943131Y-88762463D03*
%TD*%
D13*
%TO.C,C4*%
X145692626Y-88501816D03*
X145692626Y-89461816D03*
%TD*%
D11*
%TO.C,R24*%
X166511800Y-95250000D03*
X165821800Y-95250000D03*
%TD*%
D14*
%TO.C,J2*%
X140179428Y-90841688D03*
D15*
X138654428Y-92316688D03*
X138654428Y-89366688D03*
%TD*%
D16*
%TO.C,R13*%
X155282762Y-97700198D03*
X155972762Y-97700198D03*
%TD*%
%TO.C,C37*%
X134993310Y-92564471D03*
X135683310Y-92564471D03*
%TD*%
D17*
%TO.C,C9*%
X152881838Y-90262613D03*
X152881838Y-90952613D03*
%TD*%
D18*
%TO.C,C3*%
X150566907Y-88530348D03*
X149606907Y-88530348D03*
%TD*%
D16*
%TO.C,C34*%
X140655000Y-88500000D03*
X141345000Y-88500000D03*
%TD*%
D19*
%TO.C,Q1*%
X164592000Y-92577500D03*
X165542000Y-92577500D03*
X166492000Y-92577500D03*
X166492000Y-90302500D03*
X165542000Y-90302500D03*
X164592000Y-90302500D03*
%TD*%
D11*
%TO.C,R20*%
X135219000Y-93726000D03*
X134529000Y-93726000D03*
%TD*%
D17*
%TO.C,C15*%
X161557762Y-98510198D03*
X161557762Y-99200198D03*
%TD*%
D16*
%TO.C,C23*%
X134971882Y-99294673D03*
X135661882Y-99294673D03*
%TD*%
D20*
%TO.C,U8*%
X144612762Y-92125198D03*
X144612762Y-92525198D03*
X144612762Y-92925198D03*
X144612762Y-93325198D03*
X144612762Y-93725198D03*
X144612762Y-94125198D03*
X144612762Y-94525198D03*
X144612762Y-94925198D03*
X144612762Y-95325198D03*
X144612762Y-95725198D03*
X144612762Y-96125198D03*
X144612762Y-96525198D03*
X144612762Y-96925198D03*
X144612762Y-97325198D03*
D21*
X145457762Y-98170198D03*
X145857762Y-98170198D03*
X146257762Y-98170198D03*
X146657762Y-98170198D03*
X147057762Y-98170198D03*
X147457762Y-98170198D03*
X147857762Y-98170198D03*
X148257762Y-98170198D03*
X148657762Y-98170198D03*
X149057762Y-98170198D03*
X149457762Y-98170198D03*
X149857762Y-98170198D03*
X150257762Y-98170198D03*
X150657762Y-98170198D03*
D20*
X151502762Y-97325198D03*
X151502762Y-96925198D03*
X151502762Y-96525198D03*
X151502762Y-96125198D03*
X151502762Y-95725198D03*
X151502762Y-95325198D03*
X151502762Y-94925198D03*
X151502762Y-94525198D03*
X151502762Y-94125198D03*
X151502762Y-93725198D03*
X151502762Y-93325198D03*
X151502762Y-92925198D03*
X151502762Y-92525198D03*
X151502762Y-92125198D03*
D21*
X150657762Y-91280198D03*
X150257762Y-91280198D03*
X149857762Y-91280198D03*
X149457762Y-91280198D03*
X149057762Y-91280198D03*
X148657762Y-91280198D03*
X148257762Y-91280198D03*
X147857762Y-91280198D03*
X147457762Y-91280198D03*
X147057762Y-91280198D03*
X146657762Y-91280198D03*
X146257762Y-91280198D03*
X145857762Y-91280198D03*
X145457762Y-91280198D03*
%TD*%
D22*
%TO.C,L3*%
X142627762Y-90865198D03*
X142627762Y-90175198D03*
%TD*%
D23*
%TO.C,U9*%
X135659600Y-98521400D03*
D24*
X135659600Y-97871400D03*
D25*
X134799600Y-98521400D03*
D26*
X134799600Y-97871400D03*
D27*
X135229600Y-98196400D03*
%TD*%
D28*
%TO.C,U2*%
X165637500Y-98610622D03*
X165637500Y-97660622D03*
X165637500Y-96710622D03*
X163362500Y-96710622D03*
X163362500Y-97660622D03*
X163362500Y-98610622D03*
%TD*%
D29*
%TO.C,L2*%
X137997762Y-95560198D03*
X140117762Y-95560198D03*
%TD*%
D23*
%TO.C,U10*%
X138715084Y-98425198D03*
D24*
X138715084Y-97775198D03*
D25*
X137855084Y-98425198D03*
D26*
X137855084Y-97775198D03*
D27*
X138285084Y-98100198D03*
%TD*%
D30*
%TO.C,L7*%
X142272762Y-98240198D03*
X140697762Y-98240198D03*
%TD*%
D16*
%TO.C,R15*%
X154950600Y-99466400D03*
X155640600Y-99466400D03*
%TD*%
D22*
%TO.C,C16*%
X152517762Y-97980198D03*
X152517762Y-97290198D03*
%TD*%
D16*
%TO.C,C24*%
X136865684Y-99496655D03*
X137555684Y-99496655D03*
%TD*%
D31*
%TO.C,U7*%
X155267762Y-94830198D03*
X157417762Y-94830198D03*
X155267762Y-93130198D03*
X157417762Y-93130198D03*
D32*
X154437762Y-96680198D03*
X155707762Y-96680198D03*
X156977762Y-96680198D03*
X158247762Y-96680198D03*
X158247762Y-91280198D03*
X156977762Y-91280198D03*
X155707762Y-91280198D03*
X154437762Y-91280198D03*
%TD*%
D33*
%TO.C,C11*%
X137623526Y-96800978D03*
X138623526Y-96800978D03*
%TD*%
D34*
%TO.C,U4*%
X135097762Y-96080198D03*
X135097762Y-95680198D03*
X135497762Y-96080198D03*
X135497762Y-95680198D03*
X135897762Y-96080198D03*
X135897762Y-95680198D03*
%TD*%
D35*
%TO.C,U6*%
X161747762Y-89794500D03*
X160797762Y-89794500D03*
X159847762Y-89794500D03*
X159847762Y-92069500D03*
X160797762Y-92069500D03*
X161747762Y-92069500D03*
%TD*%
D36*
%TO.C,C31*%
X139597762Y-98610198D03*
X139597762Y-97610198D03*
%TD*%
D18*
%TO.C,C12*%
X140557762Y-96810198D03*
X139557762Y-96810198D03*
%TD*%
D17*
%TO.C,C17*%
X150337762Y-89575198D03*
X150337762Y-90265198D03*
%TD*%
D37*
%TO.C,D1*%
X161668144Y-96452841D03*
X161668144Y-94877841D03*
%TD*%
D17*
%TO.C,L4*%
X144257762Y-90175198D03*
X144257762Y-90865198D03*
%TD*%
%TO.C,R14*%
X160847762Y-98520198D03*
X160847762Y-99210198D03*
%TD*%
D36*
%TO.C,R8*%
X163000000Y-91050198D03*
X163000000Y-90050198D03*
%TD*%
D17*
%TO.C,C8*%
X162858907Y-91812447D03*
X162858907Y-92502447D03*
%TD*%
D38*
%TO.C,R21*%
X160527415Y-95361339D03*
X159507415Y-95361339D03*
%TD*%
D11*
%TO.C,R12*%
X143772762Y-90850198D03*
X143082762Y-90850198D03*
%TD*%
D22*
%TO.C,C29*%
X137017762Y-98405198D03*
X137017762Y-97715198D03*
%TD*%
D11*
%TO.C,R2*%
X141912762Y-95890198D03*
X141222762Y-95890198D03*
%TD*%
D13*
%TO.C,C10*%
X153749184Y-88618760D03*
X153749184Y-89618760D03*
%TD*%
D36*
%TO.C,R9*%
X158417762Y-90010198D03*
X158417762Y-89010198D03*
%TD*%
D22*
%TO.C,C27*%
X153237762Y-97785198D03*
X153237762Y-97095198D03*
%TD*%
D11*
%TO.C,R5*%
X141912762Y-95070198D03*
X141222762Y-95070198D03*
%TD*%
D16*
%TO.C,R11*%
X137667762Y-94110198D03*
X138357762Y-94110198D03*
%TD*%
M02*
