%TF.GenerationSoftware,KiCad,Pcbnew,10.0.3*%
%TF.CreationDate,2026-07-16T14:50:02-04:00*%
%TF.ProjectId,ESP32-S3 Small Camera,45535033-322d-4533-9320-536d616c6c20,rev?*%
%TF.SameCoordinates,Original*%
%TF.FileFunction,Legend,Top*%
%TF.FilePolarity,Positive*%
%FSLAX46Y46*%
G04 Gerber Fmt 4.6, Leading zero omitted, Abs format (unit mm)*
G04 Created by KiCad (PCBNEW 10.0.3) date 2026-07-16 14:50:02*
%MOMM*%
%LPD*%
G01*
G04 APERTURE LIST*
%ADD10C,0.100000*%
%ADD11C,0.120000*%
%ADD12C,0.127000*%
%ADD13C,0.200000*%
%ADD14C,0.140357*%
%ADD15C,0.150000*%
G04 APERTURE END LIST*
D10*
X154402122Y-98936521D02*
X154459265Y-98955569D01*
X154459265Y-98955569D02*
X154478312Y-98974617D01*
X154478312Y-98974617D02*
X154497360Y-99012712D01*
X154497360Y-99012712D02*
X154497360Y-99069855D01*
X154497360Y-99069855D02*
X154478312Y-99107950D01*
X154478312Y-99107950D02*
X154459265Y-99126998D01*
X154459265Y-99126998D02*
X154421170Y-99146045D01*
X154421170Y-99146045D02*
X154268789Y-99146045D01*
X154268789Y-99146045D02*
X154268789Y-98746045D01*
X154268789Y-98746045D02*
X154402122Y-98746045D01*
X154402122Y-98746045D02*
X154440217Y-98765093D01*
X154440217Y-98765093D02*
X154459265Y-98784140D01*
X154459265Y-98784140D02*
X154478312Y-98822236D01*
X154478312Y-98822236D02*
X154478312Y-98860331D01*
X154478312Y-98860331D02*
X154459265Y-98898426D01*
X154459265Y-98898426D02*
X154440217Y-98917474D01*
X154440217Y-98917474D02*
X154402122Y-98936521D01*
X154402122Y-98936521D02*
X154268789Y-98936521D01*
X154744979Y-98746045D02*
X154821170Y-98746045D01*
X154821170Y-98746045D02*
X154859265Y-98765093D01*
X154859265Y-98765093D02*
X154897360Y-98803188D01*
X154897360Y-98803188D02*
X154916408Y-98879378D01*
X154916408Y-98879378D02*
X154916408Y-99012712D01*
X154916408Y-99012712D02*
X154897360Y-99088902D01*
X154897360Y-99088902D02*
X154859265Y-99126998D01*
X154859265Y-99126998D02*
X154821170Y-99146045D01*
X154821170Y-99146045D02*
X154744979Y-99146045D01*
X154744979Y-99146045D02*
X154706884Y-99126998D01*
X154706884Y-99126998D02*
X154668789Y-99088902D01*
X154668789Y-99088902D02*
X154649741Y-99012712D01*
X154649741Y-99012712D02*
X154649741Y-98879378D01*
X154649741Y-98879378D02*
X154668789Y-98803188D01*
X154668789Y-98803188D02*
X154706884Y-98765093D01*
X154706884Y-98765093D02*
X154744979Y-98746045D01*
X155164027Y-98746045D02*
X155240218Y-98746045D01*
X155240218Y-98746045D02*
X155278313Y-98765093D01*
X155278313Y-98765093D02*
X155316408Y-98803188D01*
X155316408Y-98803188D02*
X155335456Y-98879378D01*
X155335456Y-98879378D02*
X155335456Y-99012712D01*
X155335456Y-99012712D02*
X155316408Y-99088902D01*
X155316408Y-99088902D02*
X155278313Y-99126998D01*
X155278313Y-99126998D02*
X155240218Y-99146045D01*
X155240218Y-99146045D02*
X155164027Y-99146045D01*
X155164027Y-99146045D02*
X155125932Y-99126998D01*
X155125932Y-99126998D02*
X155087837Y-99088902D01*
X155087837Y-99088902D02*
X155068789Y-99012712D01*
X155068789Y-99012712D02*
X155068789Y-98879378D01*
X155068789Y-98879378D02*
X155087837Y-98803188D01*
X155087837Y-98803188D02*
X155125932Y-98765093D01*
X155125932Y-98765093D02*
X155164027Y-98746045D01*
X155449742Y-98746045D02*
X155678313Y-98746045D01*
X155564027Y-99146045D02*
X155564027Y-98746045D01*
X157398312Y-97555093D02*
X157360217Y-97536045D01*
X157360217Y-97536045D02*
X157303074Y-97536045D01*
X157303074Y-97536045D02*
X157245931Y-97555093D01*
X157245931Y-97555093D02*
X157207836Y-97593188D01*
X157207836Y-97593188D02*
X157188789Y-97631283D01*
X157188789Y-97631283D02*
X157169741Y-97707474D01*
X157169741Y-97707474D02*
X157169741Y-97764617D01*
X157169741Y-97764617D02*
X157188789Y-97840807D01*
X157188789Y-97840807D02*
X157207836Y-97878902D01*
X157207836Y-97878902D02*
X157245931Y-97916998D01*
X157245931Y-97916998D02*
X157303074Y-97936045D01*
X157303074Y-97936045D02*
X157341170Y-97936045D01*
X157341170Y-97936045D02*
X157398312Y-97916998D01*
X157398312Y-97916998D02*
X157417360Y-97897950D01*
X157417360Y-97897950D02*
X157417360Y-97764617D01*
X157417360Y-97764617D02*
X157341170Y-97764617D01*
X157588789Y-97936045D02*
X157588789Y-97536045D01*
X157588789Y-97536045D02*
X157817360Y-97936045D01*
X157817360Y-97936045D02*
X157817360Y-97536045D01*
X158007837Y-97936045D02*
X158007837Y-97536045D01*
X158007837Y-97536045D02*
X158103075Y-97536045D01*
X158103075Y-97536045D02*
X158160218Y-97555093D01*
X158160218Y-97555093D02*
X158198313Y-97593188D01*
X158198313Y-97593188D02*
X158217360Y-97631283D01*
X158217360Y-97631283D02*
X158236408Y-97707474D01*
X158236408Y-97707474D02*
X158236408Y-97764617D01*
X158236408Y-97764617D02*
X158217360Y-97840807D01*
X158217360Y-97840807D02*
X158198313Y-97878902D01*
X158198313Y-97878902D02*
X158160218Y-97916998D01*
X158160218Y-97916998D02*
X158103075Y-97936045D01*
X158103075Y-97936045D02*
X158007837Y-97936045D01*
X158937360Y-97936045D02*
X158804027Y-97745569D01*
X158708789Y-97936045D02*
X158708789Y-97536045D01*
X158708789Y-97536045D02*
X158861170Y-97536045D01*
X158861170Y-97536045D02*
X158899265Y-97555093D01*
X158899265Y-97555093D02*
X158918312Y-97574140D01*
X158918312Y-97574140D02*
X158937360Y-97612236D01*
X158937360Y-97612236D02*
X158937360Y-97669378D01*
X158937360Y-97669378D02*
X158918312Y-97707474D01*
X158918312Y-97707474D02*
X158899265Y-97726521D01*
X158899265Y-97726521D02*
X158861170Y-97745569D01*
X158861170Y-97745569D02*
X158708789Y-97745569D01*
X159089741Y-97916998D02*
X159146884Y-97936045D01*
X159146884Y-97936045D02*
X159242122Y-97936045D01*
X159242122Y-97936045D02*
X159280217Y-97916998D01*
X159280217Y-97916998D02*
X159299265Y-97897950D01*
X159299265Y-97897950D02*
X159318312Y-97859855D01*
X159318312Y-97859855D02*
X159318312Y-97821759D01*
X159318312Y-97821759D02*
X159299265Y-97783664D01*
X159299265Y-97783664D02*
X159280217Y-97764617D01*
X159280217Y-97764617D02*
X159242122Y-97745569D01*
X159242122Y-97745569D02*
X159165931Y-97726521D01*
X159165931Y-97726521D02*
X159127836Y-97707474D01*
X159127836Y-97707474D02*
X159108789Y-97688426D01*
X159108789Y-97688426D02*
X159089741Y-97650331D01*
X159089741Y-97650331D02*
X159089741Y-97612236D01*
X159089741Y-97612236D02*
X159108789Y-97574140D01*
X159108789Y-97574140D02*
X159127836Y-97555093D01*
X159127836Y-97555093D02*
X159165931Y-97536045D01*
X159165931Y-97536045D02*
X159261170Y-97536045D01*
X159261170Y-97536045D02*
X159318312Y-97555093D01*
X159432598Y-97536045D02*
X159661169Y-97536045D01*
X159546883Y-97936045D02*
X159546883Y-97536045D01*
%TO.C,X1*%
D11*
X146233131Y-88102463D02*
X146233131Y-90522463D01*
X146233131Y-90522463D02*
X149053131Y-90522463D01*
%TO.C,C4*%
X145332626Y-88873980D02*
X145332626Y-89089652D01*
X146052626Y-88873980D02*
X146052626Y-89089652D01*
%TO.C,J2*%
X137294428Y-92191688D02*
X137294428Y-89491688D01*
X140014428Y-89441688D02*
X140014428Y-90081688D01*
X140014428Y-91601688D02*
X140644428Y-91601688D01*
X140014428Y-92241688D02*
X140014428Y-91601688D01*
%TO.C,J4*%
X155917762Y-98200198D02*
X159767762Y-98200198D01*
X155917762Y-99600198D02*
X155917762Y-98200198D01*
X159767762Y-98200198D02*
X159767762Y-99600198D01*
X159767762Y-99600198D02*
X155917762Y-99600198D01*
%TO.C,C3*%
X150194743Y-88170348D02*
X149979071Y-88170348D01*
X150194743Y-88890348D02*
X149979071Y-88890348D01*
%TO.C,Q1*%
X163982000Y-90530000D02*
X164032000Y-90530000D01*
X163982000Y-92350000D02*
X163982000Y-90530000D01*
X164032000Y-92350000D02*
X163982000Y-92350000D01*
X167052000Y-90530000D02*
X167102000Y-90530000D01*
X167102000Y-90530000D02*
X167102000Y-92350000D01*
X167102000Y-92350000D02*
X167052000Y-92350000D01*
X164032000Y-92890000D02*
X163702000Y-93130000D01*
X163702000Y-92650000D01*
X164032000Y-92890000D01*
G36*
X164032000Y-92890000D02*
G01*
X163702000Y-93130000D01*
X163702000Y-92650000D01*
X164032000Y-92890000D01*
G37*
%TO.C,U8*%
D12*
X144557762Y-91225198D02*
X144557762Y-91695198D01*
X144557762Y-91225198D02*
X145027762Y-91225198D01*
X144557762Y-98225198D02*
X144557762Y-97755198D01*
X144557762Y-98225198D02*
X145027762Y-98225198D01*
X151557762Y-91225198D02*
X151087762Y-91225198D01*
X151557762Y-91225198D02*
X151557762Y-91695198D01*
X151557762Y-98225198D02*
X151087762Y-98225198D01*
X151557762Y-98225198D02*
X151557762Y-97755198D01*
D13*
X144287762Y-91655198D02*
G75*
G02*
X144087762Y-91655198I-100000J0D01*
G01*
X144087762Y-91655198D02*
G75*
G02*
X144287762Y-91655198I100000J0D01*
G01*
%TO.C,U9*%
D11*
X135729600Y-97456400D02*
X134729600Y-97456400D01*
X135729600Y-98936400D02*
X134729600Y-98936400D01*
D14*
X136061563Y-98850055D02*
G75*
G02*
X135921207Y-98850055I-70178J0D01*
G01*
X135921207Y-98850055D02*
G75*
G02*
X136061563Y-98850055I70178J0D01*
G01*
%TO.C,U2*%
D11*
X163590000Y-96100622D02*
X165410000Y-96100622D01*
X163590000Y-96150622D02*
X163590000Y-96100622D01*
X163590000Y-99220622D02*
X163590000Y-99170622D01*
X165410000Y-96100622D02*
X165410000Y-96150622D01*
X165410000Y-99170622D02*
X165410000Y-99220622D01*
X165410000Y-99220622D02*
X163590000Y-99220622D01*
X165950000Y-99170622D02*
X166190000Y-99500622D01*
X165710000Y-99500622D01*
X165950000Y-99170622D01*
G36*
X166190000Y-99500622D02*
G01*
X165710000Y-99500622D01*
X165950000Y-99170622D01*
X166190000Y-99500622D01*
G37*
%TO.C,L2*%
D15*
X138657762Y-95000198D02*
X139457762Y-95000198D01*
X138657762Y-96120198D02*
X139457762Y-96120198D01*
%TO.C,U10*%
D11*
X138785084Y-97360198D02*
X137785084Y-97360198D01*
X138785084Y-98840198D02*
X137785084Y-98840198D01*
D14*
X139117047Y-98753853D02*
G75*
G02*
X138976691Y-98753853I-70178J0D01*
G01*
X138976691Y-98753853D02*
G75*
G02*
X139117047Y-98753853I70178J0D01*
G01*
%TO.C,L7*%
D11*
X141648041Y-97730198D02*
X141322483Y-97730198D01*
X141648041Y-98750198D02*
X141322483Y-98750198D01*
%TO.C,U7*%
X153732762Y-90870198D02*
X153927762Y-90870198D01*
X153732762Y-97090198D02*
X153732762Y-90870198D01*
X153927762Y-97090198D02*
X153732762Y-97090198D01*
X158757762Y-90870198D02*
X158952762Y-90870198D01*
X158952762Y-90870198D02*
X158952762Y-97090198D01*
X158952762Y-97090198D02*
X158757762Y-97090198D01*
X154432762Y-97320198D02*
X154672762Y-97650198D01*
X154192762Y-97650198D01*
X154432762Y-97320198D01*
G36*
X154672762Y-97650198D02*
G01*
X154192762Y-97650198D01*
X154432762Y-97320198D01*
X154672762Y-97650198D01*
G37*
%TO.C,U4*%
D12*
X134652762Y-95235198D02*
X134652762Y-95557698D01*
X134652762Y-95235198D02*
X135075262Y-95235198D01*
X134652762Y-96525198D02*
X134652762Y-96202698D01*
X134652762Y-96525198D02*
X135075262Y-96525198D01*
X136342762Y-95235198D02*
X135920262Y-95235198D01*
X136342762Y-95235198D02*
X136342762Y-95557698D01*
X136342762Y-96525198D02*
X135920262Y-96525198D01*
X136342762Y-96525198D02*
X136342762Y-96202698D01*
D13*
X135197762Y-96864198D02*
G75*
G02*
X134997762Y-96864198I-100000J0D01*
G01*
X134997762Y-96864198D02*
G75*
G02*
X135197762Y-96864198I100000J0D01*
G01*
%TO.C,U6*%
D11*
X159237762Y-90022000D02*
X159287762Y-90022000D01*
X159237762Y-91842000D02*
X159237762Y-90022000D01*
X159287762Y-91842000D02*
X159237762Y-91842000D01*
X162307762Y-90022000D02*
X162357762Y-90022000D01*
X162357762Y-90022000D02*
X162357762Y-91842000D01*
X162357762Y-91842000D02*
X162307762Y-91842000D01*
X162307762Y-89482000D02*
X162637762Y-89242000D01*
X162637762Y-89722000D01*
X162307762Y-89482000D01*
G36*
X162637762Y-89722000D02*
G01*
X162307762Y-89482000D01*
X162637762Y-89242000D01*
X162637762Y-89722000D01*
G37*
%TO.C,D1*%
X160933144Y-94865341D02*
X160933144Y-97150341D01*
X160933144Y-97150341D02*
X162403144Y-97150341D01*
X162403144Y-97150341D02*
X162403144Y-94865341D01*
%TO.C,R21*%
X160171056Y-94981339D02*
X159863774Y-94981339D01*
X160171056Y-95741339D02*
X159863774Y-95741339D01*
%TD*%
M02*
