%TF.GenerationSoftware,KiCad,Pcbnew,10.0.3*%
%TF.CreationDate,2026-07-16T14:50:01-04:00*%
%TF.ProjectId,ESP32-S3 Small Camera,45535033-322d-4533-9320-536d616c6c20,rev?*%
%TF.SameCoordinates,Original*%
%TF.FileFunction,Copper,L1,Top*%
%TF.FilePolarity,Positive*%
%FSLAX46Y46*%
G04 Gerber Fmt 4.6, Leading zero omitted, Abs format (unit mm)*
G04 Created by KiCad (PCBNEW 10.0.3) date 2026-07-16 14:50:01*
%MOMM*%
%LPD*%
G01*
G04 APERTURE LIST*
G04 Aperture macros list*
%AMRoundRect*
0 Rectangle with rounded corners*
0 $1 Rounding radius*
0 $2 $3 $4 $5 $6 $7 $8 $9 X,Y pos of 4 corners*
0 Add a 4 corners polygon primitive as box body*
4,1,4,$2,$3,$4,$5,$6,$7,$8,$9,$2,$3,0*
0 Add four circle primitives for the rounded corners*
1,1,$1+$1,$2,$3*
1,1,$1+$1,$4,$5*
1,1,$1+$1,$6,$7*
1,1,$1+$1,$8,$9*
0 Add four rect primitives between the rounded corners*
20,1,$1+$1,$2,$3,$4,$5,0*
20,1,$1+$1,$4,$5,$6,$7,0*
20,1,$1+$1,$6,$7,$8,$9,0*
20,1,$1+$1,$8,$9,$2,$3,0*%
%AMFreePoly0*
4,1,6,0.230000,0.054289,0.020711,-0.155000,-0.230000,-0.155000,-0.230000,0.155000,0.230000,0.155000,0.230000,0.054289,0.230000,0.054289,$1*%
%AMFreePoly1*
4,1,6,0.230000,-0.054289,0.230000,-0.155000,-0.230000,-0.155000,-0.230000,0.155000,0.020711,0.155000,0.230000,-0.054289,0.230000,-0.054289,$1*%
%AMFreePoly2*
4,1,6,0.230000,-0.155000,-0.230000,-0.155000,-0.230000,-0.054289,-0.020711,0.155000,0.230000,0.155000,0.230000,-0.155000,0.230000,-0.155000,$1*%
%AMFreePoly3*
4,1,6,0.230000,-0.155000,-0.020711,-0.155000,-0.230000,0.054289,-0.230000,0.155000,0.230000,0.155000,0.230000,-0.155000,0.230000,-0.155000,$1*%
G04 Aperture macros list end*
%TA.AperFunction,SMDPad,CuDef*%
%ADD10RoundRect,0.100000X0.130000X0.100000X-0.130000X0.100000X-0.130000X-0.100000X0.130000X-0.100000X0*%
%TD*%
%TA.AperFunction,SMDPad,CuDef*%
%ADD11RoundRect,0.200000X-0.250000X-0.200000X0.250000X-0.200000X0.250000X0.200000X-0.250000X0.200000X0*%
%TD*%
%TA.AperFunction,SMDPad,CuDef*%
%ADD12RoundRect,0.140000X-0.170000X0.140000X-0.170000X-0.140000X0.170000X-0.140000X0.170000X0.140000X0*%
%TD*%
%TA.AperFunction,SMDPad,CuDef*%
%ADD13RoundRect,0.250000X0.275000X0.250000X-0.275000X0.250000X-0.275000X-0.250000X0.275000X-0.250000X0*%
%TD*%
%TA.AperFunction,SMDPad,CuDef*%
%ADD14RoundRect,0.250000X0.850000X0.275000X-0.850000X0.275000X-0.850000X-0.275000X0.850000X-0.275000X0*%
%TD*%
%TA.AperFunction,SMDPad,CuDef*%
%ADD15RoundRect,0.100000X-0.130000X-0.100000X0.130000X-0.100000X0.130000X0.100000X-0.130000X0.100000X0*%
%TD*%
%TA.AperFunction,SMDPad,CuDef*%
%ADD16R,1.000000X1.000000*%
%TD*%
%TA.AperFunction,SMDPad,CuDef*%
%ADD17RoundRect,0.100000X-0.100000X0.130000X-0.100000X-0.130000X0.100000X-0.130000X0.100000X0.130000X0*%
%TD*%
%TA.AperFunction,SMDPad,CuDef*%
%ADD18RoundRect,0.140000X0.140000X0.170000X-0.140000X0.170000X-0.140000X-0.170000X0.140000X-0.170000X0*%
%TD*%
%TA.AperFunction,SMDPad,CuDef*%
%ADD19RoundRect,0.150000X0.150000X-0.512500X0.150000X0.512500X-0.150000X0.512500X-0.150000X-0.512500X0*%
%TD*%
%TA.AperFunction,SMDPad,CuDef*%
%ADD20RoundRect,0.027500X-0.377500X-0.082500X0.377500X-0.082500X0.377500X0.082500X-0.377500X0.082500X0*%
%TD*%
%TA.AperFunction,SMDPad,CuDef*%
%ADD21RoundRect,0.027500X-0.082500X-0.377500X0.082500X-0.377500X0.082500X0.377500X-0.082500X0.377500X0*%
%TD*%
%TA.AperFunction,SMDPad,CuDef*%
%ADD22R,4.000000X4.000000*%
%TD*%
%TA.AperFunction,SMDPad,CuDef*%
%ADD23RoundRect,0.100000X0.100000X-0.130000X0.100000X0.130000X-0.100000X0.130000X-0.100000X-0.130000X0*%
%TD*%
%TA.AperFunction,SMDPad,CuDef*%
%ADD24FreePoly0,180.000000*%
%TD*%
%TA.AperFunction,SMDPad,CuDef*%
%ADD25FreePoly1,180.000000*%
%TD*%
%TA.AperFunction,SMDPad,CuDef*%
%ADD26FreePoly2,180.000000*%
%TD*%
%TA.AperFunction,SMDPad,CuDef*%
%ADD27FreePoly3,180.000000*%
%TD*%
%TA.AperFunction,SMDPad,CuDef*%
%ADD28RoundRect,0.145000X0.000000X0.205061X-0.205061X0.000000X0.000000X-0.205061X0.205061X0.000000X0*%
%TD*%
%TA.AperFunction,SMDPad,CuDef*%
%ADD29RoundRect,0.150000X0.512500X0.150000X-0.512500X0.150000X-0.512500X-0.150000X0.512500X-0.150000X0*%
%TD*%
%TA.AperFunction,SMDPad,CuDef*%
%ADD30RoundRect,0.220000X-0.220000X-0.380000X0.220000X-0.380000X0.220000X0.380000X-0.220000X0.380000X0*%
%TD*%
%TA.AperFunction,SMDPad,CuDef*%
%ADD31RoundRect,0.218750X0.218750X0.256250X-0.218750X0.256250X-0.218750X-0.256250X0.218750X-0.256250X0*%
%TD*%
%TA.AperFunction,SMDPad,CuDef*%
%ADD32RoundRect,0.125000X0.125000X-0.250000X0.125000X0.250000X-0.125000X0.250000X-0.125000X-0.250000X0*%
%TD*%
%TA.AperFunction,HeatsinkPad*%
%ADD33R,4.300000X3.400000*%
%TD*%
%TA.AperFunction,SMDPad,CuDef*%
%ADD34RoundRect,0.140000X-0.140000X-0.170000X0.140000X-0.170000X0.140000X0.170000X-0.140000X0.170000X0*%
%TD*%
%TA.AperFunction,SMDPad,CuDef*%
%ADD35C,0.250000*%
%TD*%
%TA.AperFunction,SMDPad,CuDef*%
%ADD36RoundRect,0.150000X-0.150000X0.512500X-0.150000X-0.512500X0.150000X-0.512500X0.150000X0.512500X0*%
%TD*%
%TA.AperFunction,SMDPad,CuDef*%
%ADD37RoundRect,0.140000X0.170000X-0.140000X0.170000X0.140000X-0.170000X0.140000X-0.170000X-0.140000X0*%
%TD*%
%TA.AperFunction,SMDPad,CuDef*%
%ADD38RoundRect,0.218750X0.256250X-0.218750X0.256250X0.218750X-0.256250X0.218750X-0.256250X-0.218750X0*%
%TD*%
%TA.AperFunction,SMDPad,CuDef*%
%ADD39RoundRect,0.135000X0.135000X0.185000X-0.135000X0.185000X-0.135000X-0.185000X0.135000X-0.185000X0*%
%TD*%
%TA.AperFunction,ViaPad*%
%ADD40C,0.350000*%
%TD*%
%TA.AperFunction,ViaPad*%
%ADD41C,0.450000*%
%TD*%
%TA.AperFunction,ViaPad*%
%ADD42C,0.400000*%
%TD*%
%TA.AperFunction,ViaPad*%
%ADD43C,0.600000*%
%TD*%
%TA.AperFunction,ViaPad*%
%ADD44C,0.550000*%
%TD*%
%TA.AperFunction,ViaPad*%
%ADD45C,0.500000*%
%TD*%
%TA.AperFunction,Conductor*%
%ADD46C,0.150000*%
%TD*%
%TA.AperFunction,Conductor*%
%ADD47C,0.100000*%
%TD*%
%TA.AperFunction,Conductor*%
%ADD48C,0.200000*%
%TD*%
%TA.AperFunction,Conductor*%
%ADD49C,0.300000*%
%TD*%
%TA.AperFunction,Conductor*%
%ADD50C,0.151000*%
%TD*%
%TA.AperFunction,Conductor*%
%ADD51C,0.250000*%
%TD*%
%TA.AperFunction,Conductor*%
%ADD52C,0.400000*%
%TD*%
%TA.AperFunction,Conductor*%
%ADD53C,0.350000*%
%TD*%
G04 APERTURE END LIST*
D10*
%TO.P,R16,1*%
%TO.N,Net-(U3-TS{slash}MR)*%
X152422762Y-88680198D03*
%TO.P,R16,2*%
%TO.N,GND*%
X151782762Y-88680198D03*
%TD*%
%TO.P,C28,1*%
%TO.N,DOVDD*%
X142157762Y-97150198D03*
%TO.P,C28,2*%
%TO.N,GND*%
X141517762Y-97150198D03*
%TD*%
D11*
%TO.P,X1,1,OSC_1*%
%TO.N,XTAL_P*%
X146943131Y-89862463D03*
%TO.P,X1,2,GND_2*%
%TO.N,GND*%
X148343131Y-89862463D03*
%TO.P,X1,3,OSC_3*%
%TO.N,XTAL_N*%
X148343131Y-88762463D03*
%TO.P,X1,4,GND_4*%
%TO.N,GND*%
X146943131Y-88762463D03*
%TD*%
D12*
%TO.P,C4,1*%
%TO.N,GND*%
X145692626Y-88501816D03*
%TO.P,C4,2*%
%TO.N,XTAL_P*%
X145692626Y-89461816D03*
%TD*%
D10*
%TO.P,R24,1*%
%TO.N,VBUS*%
X166486800Y-95250000D03*
%TO.P,R24,2*%
%TO.N,VBUS_SENSE*%
X165846800Y-95250000D03*
%TD*%
D13*
%TO.P,J2,1,In_1*%
%TO.N,Net-(J2-In)*%
X140179428Y-90841688D03*
D14*
%TO.P,J2,2,Ext_2*%
%TO.N,GND*%
X138654428Y-92316688D03*
X138654428Y-89366688D03*
%TD*%
D15*
%TO.P,R13,1*%
%TO.N,CS*%
X155307762Y-97700198D03*
%TO.P,R13,2*%
%TO.N,VCC_3V3*%
X155947762Y-97700198D03*
%TD*%
D16*
%TO.P,J4,1,Pin_1_1*%
%TO.N,BOOT*%
X156617762Y-98900198D03*
%TO.P,J4,2,Pin_2_2*%
%TO.N,GND*%
X157847762Y-98900198D03*
%TO.P,J4,3,Pin_3_3*%
%TO.N,RESET*%
X159077762Y-98900198D03*
%TD*%
D15*
%TO.P,C37,1*%
%TO.N,GND*%
X135018310Y-92564471D03*
%TO.P,C37,2*%
%TO.N,DOVDD*%
X135658310Y-92564471D03*
%TD*%
D17*
%TO.P,C9,1*%
%TO.N,GND*%
X152881838Y-90287613D03*
%TO.P,C9,2*%
%TO.N,VBUS*%
X152881838Y-90927613D03*
%TD*%
D18*
%TO.P,C3,1*%
%TO.N,GND*%
X150566907Y-88530348D03*
%TO.P,C3,2*%
%TO.N,XTAL_N*%
X149606907Y-88530348D03*
%TD*%
D15*
%TO.P,C34,1*%
%TO.N,VCC_3V3*%
X140680000Y-88500000D03*
%TO.P,C34,2*%
%TO.N,GND*%
X141320000Y-88500000D03*
%TD*%
D19*
%TO.P,Q1,1,S1_1*%
%TO.N,B-*%
X164592000Y-92577500D03*
%TO.P,Q1,2,D12_2*%
%TO.N,Net-(Q1-D12-Pad2)*%
X165542000Y-92577500D03*
%TO.P,Q1,3,S2_3*%
%TO.N,GND*%
X166492000Y-92577500D03*
%TO.P,Q1,4,G2_4*%
%TO.N,Net-(Q1-G2)*%
X166492000Y-90302500D03*
%TO.P,Q1,5,D12_5*%
%TO.N,Net-(Q1-D12-Pad2)*%
X165542000Y-90302500D03*
%TO.P,Q1,6,G1_6*%
%TO.N,Net-(Q1-G1)*%
X164592000Y-90302500D03*
%TD*%
D10*
%TO.P,R20,1*%
%TO.N,GND*%
X135194000Y-93726000D03*
%TO.P,R20,2*%
%TO.N,CAM_EN*%
X134554000Y-93726000D03*
%TD*%
D17*
%TO.P,C15,1*%
%TO.N,RESET*%
X161557762Y-98535198D03*
%TO.P,C15,2*%
%TO.N,GND*%
X161557762Y-99175198D03*
%TD*%
D15*
%TO.P,C23,1*%
%TO.N,VCC_3V3*%
X134996882Y-99294673D03*
%TO.P,C23,2*%
%TO.N,GND*%
X135636882Y-99294673D03*
%TD*%
D20*
%TO.P,U8,1,LNA_IN_1*%
%TO.N,Net-(U8-LNA_IN)*%
X144612762Y-92125198D03*
%TO.P,U8,2,VDD3P3_2*%
%TO.N,VDD3P3*%
X144612762Y-92525198D03*
%TO.P,U8,3,VDD3P3_3*%
X144612762Y-92925198D03*
%TO.P,U8,4,CHIP_PU_4*%
%TO.N,RESET*%
X144612762Y-93325198D03*
%TO.P,U8,5,GPIO0_5*%
%TO.N,BOOT*%
X144612762Y-93725198D03*
%TO.P,U8,6,GPIO1_6*%
%TO.N,Y4*%
X144612762Y-94125198D03*
%TO.P,U8,7,GPIO2_7*%
%TO.N,Y3*%
X144612762Y-94525198D03*
%TO.P,U8,8,GPIO3_8*%
%TO.N,Y5*%
X144612762Y-94925198D03*
%TO.P,U8,9,GPIO4_9*%
%TO.N,Y2*%
X144612762Y-95325198D03*
%TO.P,U8,10,GPIO5_10*%
%TO.N,Y6*%
X144612762Y-95725198D03*
%TO.P,U8,11,GPIO6_11*%
%TO.N,PCLK*%
X144612762Y-96125198D03*
%TO.P,U8,12,GPIO7_12*%
%TO.N,Y7*%
X144612762Y-96525198D03*
%TO.P,U8,13,GPIO8_13*%
%TO.N,SDA*%
X144612762Y-96925198D03*
%TO.P,U8,14,GPIO9_14*%
%TO.N,SCL*%
X144612762Y-97325198D03*
D21*
%TO.P,U8,15,GPIO10_15*%
%TO.N,Y8*%
X145457762Y-98170198D03*
%TO.P,U8,16,GPIO11_16*%
%TO.N,MCLK_3V3*%
X145857762Y-98170198D03*
%TO.P,U8,17,GPIO12_17*%
%TO.N,Y9*%
X146257762Y-98170198D03*
%TO.P,U8,18,GPIO13_18*%
%TO.N,HREF*%
X146657762Y-98170198D03*
%TO.P,U8,19,GPIO14_19*%
%TO.N,PWDN_3V3*%
X147057762Y-98170198D03*
%TO.P,U8,20,VDD3P3_RTC_20*%
%TO.N,VCC_3V3*%
X147457762Y-98170198D03*
%TO.P,U8,21,XTAL_32K_P_21*%
%TO.N,Net-(U8-XTAL_32K_P)*%
X147857762Y-98170198D03*
%TO.P,U8,22,XTAL_32K_N_22*%
%TO.N,GPout*%
X148257762Y-98170198D03*
%TO.P,U8,23,GPIO17_23*%
%TO.N,VSYNC*%
X148657762Y-98170198D03*
%TO.P,U8,24,GPIO18_24*%
%TO.N,RST_CM_3V3*%
X149057762Y-98170198D03*
%TO.P,U8,25,GPIO19_25*%
%TO.N,D-*%
X149457762Y-98170198D03*
%TO.P,U8,26,GPIO20_26*%
%TO.N,D+*%
X149857762Y-98170198D03*
%TO.P,U8,27,GPIO21_27*%
%TO.N,INT_BQ25180*%
X150257762Y-98170198D03*
%TO.P,U8,28,SPICS1_28*%
%TO.N,unconnected-(U8-SPICS1-Pad28)*%
X150657762Y-98170198D03*
D20*
%TO.P,U8,29,VDD_SPI_29*%
%TO.N,Net-(U7-VCC)*%
X151502762Y-97325198D03*
%TO.P,U8,30,SPIHD_30*%
%TO.N,RSTHD*%
X151502762Y-96925198D03*
%TO.P,U8,31,SPIWP_31*%
%TO.N,WP*%
X151502762Y-96525198D03*
%TO.P,U8,32,SPICS0_32*%
%TO.N,CS*%
X151502762Y-96125198D03*
%TO.P,U8,33,SPICLK_33*%
%TO.N,CLK*%
X151502762Y-95725198D03*
%TO.P,U8,34,SPIQ_34*%
%TO.N,DO*%
X151502762Y-95325198D03*
%TO.P,U8,35,SPID_35*%
%TO.N,DI*%
X151502762Y-94925198D03*
%TO.P,U8,36,SPICLK_N_36*%
%TO.N,unconnected-(U8-SPICLK_N-Pad36)*%
X151502762Y-94525198D03*
%TO.P,U8,37,SPICLK_P_37*%
%TO.N,unconnected-(U8-SPICLK_P-Pad37)*%
X151502762Y-94125198D03*
%TO.P,U8,38,GPIO33_38*%
%TO.N,unconnected-(U8-GPIO33-Pad38)*%
X151502762Y-93725198D03*
%TO.P,U8,39,GPIO34_39*%
%TO.N,unconnected-(U8-GPIO34-Pad39)*%
X151502762Y-93325198D03*
%TO.P,U8,40,GPIO35_40*%
%TO.N,unconnected-(U8-GPIO35-Pad40)*%
X151502762Y-92925198D03*
%TO.P,U8,41,GPIO36_41*%
%TO.N,unconnected-(U8-GPIO36-Pad41)*%
X151502762Y-92525198D03*
%TO.P,U8,42,GPIO37_42*%
%TO.N,unconnected-(U8-GPIO37-Pad42)*%
X151502762Y-92125198D03*
D21*
%TO.P,U8,43,GPIO38_43*%
%TO.N,BTTN*%
X150657762Y-91280198D03*
%TO.P,U8,44,MTCK_44*%
%TO.N,CAM_EN*%
X150257762Y-91280198D03*
%TO.P,U8,45,MTDO_45*%
%TO.N,SCCB_SDA*%
X149857762Y-91280198D03*
%TO.P,U8,46,VDD3P3_CPU_46*%
%TO.N,VCC_3V3*%
X149457762Y-91280198D03*
%TO.P,U8,47,MTDI_47*%
%TO.N,SCCB_SCL*%
X149057762Y-91280198D03*
%TO.P,U8,48,MTMS_48*%
%TO.N,VBUS_SENSE*%
X148657762Y-91280198D03*
%TO.P,U8,49,U0TXD_49*%
%TO.N,unconnected-(U8-U0TXD-Pad49)*%
X148257762Y-91280198D03*
%TO.P,U8,50,U0RXD_50*%
%TO.N,unconnected-(U8-U0RXD-Pad50)*%
X147857762Y-91280198D03*
%TO.P,U8,51,GPIO45_51*%
%TO.N,unconnected-(U8-GPIO45-Pad51)*%
X147457762Y-91280198D03*
%TO.P,U8,52,GPIO46_52*%
%TO.N,unconnected-(U8-GPIO46-Pad52)*%
X147057762Y-91280198D03*
%TO.P,U8,53,XTAL_N_53*%
%TO.N,XTAL_N*%
X146657762Y-91280198D03*
%TO.P,U8,54,XTAL_P_54*%
%TO.N,XTAL_P*%
X146257762Y-91280198D03*
%TO.P,U8,55,VDDA1_55*%
%TO.N,VCC_3V3*%
X145857762Y-91280198D03*
%TO.P,U8,56,VDDA2_56*%
X145457762Y-91280198D03*
D22*
%TO.P,U8,57,GND_57*%
%TO.N,GND*%
X148057762Y-94725198D03*
%TD*%
D23*
%TO.P,L3,1,1_1*%
%TO.N,Net-(J2-In)*%
X142627762Y-90840198D03*
%TO.P,L3,2,2_2*%
%TO.N,GND*%
X142627762Y-90200198D03*
%TD*%
D24*
%TO.P,U9,1,VOUT_1*%
%TO.N,DVDD*%
X135659600Y-98521400D03*
D25*
%TO.P,U9,2,GND_2*%
%TO.N,GND*%
X135659600Y-97871400D03*
D26*
%TO.P,U9,3,EN_3*%
%TO.N,CAM_EN*%
X134799600Y-97871400D03*
D27*
%TO.P,U9,4,VIN_4*%
%TO.N,VCC_3V3*%
X134799600Y-98521400D03*
D28*
%TO.P,U9,5,EP_5*%
%TO.N,GND*%
X135229600Y-98196400D03*
%TD*%
D29*
%TO.P,U2,1,I/O1_1*%
%TO.N,D-X*%
X165637500Y-98610622D03*
%TO.P,U2,2,GND_2*%
%TO.N,GND*%
X165637500Y-97660622D03*
%TO.P,U2,3,I/O2_3*%
%TO.N,D+X*%
X165637500Y-96710622D03*
%TO.P,U2,4,I/O2_4*%
%TO.N,Net-(R4-Pad1)*%
X163362500Y-96710622D03*
%TO.P,U2,5,VBUS_5*%
%TO.N,VBUS*%
X163362500Y-97660622D03*
%TO.P,U2,6,I/O1_6*%
%TO.N,Net-(R3-Pad1)*%
X163362500Y-98610622D03*
%TD*%
D30*
%TO.P,L2,1*%
%TO.N,Net-(U4-SW)*%
X137997762Y-95560198D03*
%TO.P,L2,2*%
%TO.N,VCC_3V3*%
X140117762Y-95560198D03*
%TD*%
D24*
%TO.P,U10,1,VOUT_1*%
%TO.N,Net-(U10-VOUT)*%
X138715084Y-98425198D03*
D25*
%TO.P,U10,2,GND_2*%
%TO.N,GND*%
X138715084Y-97775198D03*
D26*
%TO.P,U10,3,EN_3*%
%TO.N,CAM_EN*%
X137855084Y-97775198D03*
D27*
%TO.P,U10,4,VIN_4*%
%TO.N,VCC_3V3*%
X137855084Y-98425198D03*
D28*
%TO.P,U10,5,EP_5*%
%TO.N,GND*%
X138285084Y-98100198D03*
%TD*%
D31*
%TO.P,L7,1*%
%TO.N,DOVDD*%
X142272762Y-98240198D03*
%TO.P,L7,2*%
%TO.N,Net-(U10-VOUT)*%
X140697762Y-98240198D03*
%TD*%
D15*
%TO.P,R15,1*%
%TO.N,VCC_3V3*%
X154975600Y-99466400D03*
%TO.P,R15,2*%
%TO.N,BOOT*%
X155615600Y-99466400D03*
%TD*%
D23*
%TO.P,C16,1*%
%TO.N,GND*%
X152517762Y-97955198D03*
%TO.P,C16,2*%
%TO.N,Net-(U7-VCC)*%
X152517762Y-97315198D03*
%TD*%
D15*
%TO.P,C24,1*%
%TO.N,DVDD*%
X136890684Y-99496655D03*
%TO.P,C24,2*%
%TO.N,GND*%
X137530684Y-99496655D03*
%TD*%
D32*
%TO.P,U7,1,~{CS}_1*%
%TO.N,CS*%
X154437762Y-96680198D03*
%TO.P,U7,2,DO/IO_{1}_2*%
%TO.N,DO*%
X155707762Y-96680198D03*
%TO.P,U7,3,~{WP}/IO_{2}_3*%
%TO.N,WP*%
X156977762Y-96680198D03*
%TO.P,U7,4,GND_4*%
%TO.N,GND*%
X158247762Y-96680198D03*
%TO.P,U7,5,DI/IO_{0}_5*%
%TO.N,DI*%
X158247762Y-91280198D03*
%TO.P,U7,6,CLK_6*%
%TO.N,CLK*%
X156977762Y-91280198D03*
%TO.P,U7,7,~{HOLD}/~{RESET}/IO_{3}_7*%
%TO.N,RSTHD*%
X155707762Y-91280198D03*
%TO.P,U7,8,VCC_8*%
%TO.N,Net-(U7-VCC)*%
X154437762Y-91280198D03*
D33*
%TO.P,U7,9,EP_9*%
%TO.N,GND*%
X156342762Y-93980198D03*
%TD*%
D34*
%TO.P,C11,1*%
%TO.N,LOAD_SYS*%
X137623526Y-96800978D03*
%TO.P,C11,2*%
%TO.N,GND*%
X138623526Y-96800978D03*
%TD*%
D35*
%TO.P,U4,A1,GND_A1*%
%TO.N,GND*%
X135097762Y-96080198D03*
%TO.P,U4,A2,VOS_A2*%
%TO.N,VCC_3V3*%
X135097762Y-95680198D03*
%TO.P,U4,B1,VIN_B1*%
%TO.N,LOAD_SYS*%
X135497762Y-96080198D03*
%TO.P,U4,B2,SW_B2*%
%TO.N,Net-(U4-SW)*%
X135497762Y-95680198D03*
%TO.P,U4,C1,EN_C1*%
%TO.N,LOAD_SYS*%
X135897762Y-96080198D03*
%TO.P,U4,C2,VSET_C2*%
%TO.N,Net-(U4-VSET)*%
X135897762Y-95680198D03*
%TD*%
D36*
%TO.P,U6,1,OD_1*%
%TO.N,Net-(Q1-G1)*%
X161747762Y-89794500D03*
%TO.P,U6,2,CS_2*%
%TO.N,Net-(U6-CS)*%
X160797762Y-89794500D03*
%TO.P,U6,3,OC_3*%
%TO.N,Net-(Q1-G2)*%
X159847762Y-89794500D03*
%TO.P,U6,4,TD_4*%
%TO.N,unconnected-(U6-TD-Pad4)*%
X159847762Y-92069500D03*
%TO.P,U6,5,VCC_5*%
%TO.N,Net-(U6-VCC)*%
X160797762Y-92069500D03*
%TO.P,U6,6,GND_6*%
%TO.N,B-*%
X161747762Y-92069500D03*
%TD*%
D37*
%TO.P,C31,1*%
%TO.N,Net-(U10-VOUT)*%
X139597762Y-98610198D03*
%TO.P,C31,2*%
%TO.N,GND*%
X139597762Y-97610198D03*
%TD*%
D18*
%TO.P,C12,1*%
%TO.N,VCC_3V3*%
X140557762Y-96810198D03*
%TO.P,C12,2*%
%TO.N,GND*%
X139557762Y-96810198D03*
%TD*%
D17*
%TO.P,C17,1*%
%TO.N,GND*%
X150337762Y-89600198D03*
%TO.P,C17,2*%
%TO.N,VCC_3V3*%
X150337762Y-90240198D03*
%TD*%
D38*
%TO.P,D1,1,K_1*%
%TO.N,GND*%
X161668144Y-96452841D03*
%TO.P,D1,2,A_2*%
%TO.N,Net-(D1-A)*%
X161668144Y-94877841D03*
%TD*%
D17*
%TO.P,L4,1,1_1*%
%TO.N,GND*%
X144257762Y-90200198D03*
%TO.P,L4,2,2_2*%
%TO.N,Net-(U8-LNA_IN)*%
X144257762Y-90840198D03*
%TD*%
%TO.P,R14,1*%
%TO.N,RESET*%
X160847762Y-98545198D03*
%TO.P,R14,2*%
%TO.N,VCC_3V3*%
X160847762Y-99185198D03*
%TD*%
D37*
%TO.P,R8,1*%
%TO.N,Net-(U6-VCC)*%
X163000000Y-91050198D03*
%TO.P,R8,2*%
%TO.N,B+*%
X163000000Y-90050198D03*
%TD*%
D17*
%TO.P,C8,1*%
%TO.N,Net-(U6-VCC)*%
X162858907Y-91837447D03*
%TO.P,C8,2*%
%TO.N,B-*%
X162858907Y-92477447D03*
%TD*%
D39*
%TO.P,R21,1*%
%TO.N,Net-(D1-A)*%
X160527415Y-95361339D03*
%TO.P,R21,2*%
%TO.N,VCC_3V3*%
X159507415Y-95361339D03*
%TD*%
D10*
%TO.P,R12,1*%
%TO.N,Net-(U8-LNA_IN)*%
X143747762Y-90850198D03*
%TO.P,R12,2*%
%TO.N,Net-(J2-In)*%
X143107762Y-90850198D03*
%TD*%
D23*
%TO.P,C29,1*%
%TO.N,VCC_3V3*%
X137017762Y-98380198D03*
%TO.P,C29,2*%
%TO.N,GND*%
X137017762Y-97740198D03*
%TD*%
D10*
%TO.P,R2,1*%
%TO.N,SCL*%
X141887762Y-95890198D03*
%TO.P,R2,2*%
%TO.N,VCC_3V3*%
X141247762Y-95890198D03*
%TD*%
D12*
%TO.P,C10,1*%
%TO.N,GND*%
X153749184Y-88618760D03*
%TO.P,C10,2*%
%TO.N,LOAD_SYS*%
X153749184Y-89618760D03*
%TD*%
D37*
%TO.P,R9,1*%
%TO.N,Net-(U6-CS)*%
X158417762Y-90010198D03*
%TO.P,R9,2*%
%TO.N,GND*%
X158417762Y-89010198D03*
%TD*%
D23*
%TO.P,C27,1*%
%TO.N,GND*%
X153237762Y-97760198D03*
%TO.P,C27,2*%
%TO.N,Net-(U7-VCC)*%
X153237762Y-97120198D03*
%TD*%
D10*
%TO.P,R5,1*%
%TO.N,SDA*%
X141887762Y-95070198D03*
%TO.P,R5,2*%
%TO.N,VCC_3V3*%
X141247762Y-95070198D03*
%TD*%
D15*
%TO.P,R11,1*%
%TO.N,Net-(U4-VSET)*%
X137692762Y-94110198D03*
%TO.P,R11,2*%
%TO.N,GND*%
X138332762Y-94110198D03*
%TD*%
D40*
%TO.N,Net-(U3-TS{slash}MR)*%
X152205039Y-89485786D03*
%TO.N,GND*%
X163145095Y-99404825D03*
D41*
X167250000Y-96000000D03*
D40*
X147421600Y-91998800D03*
X147000000Y-95000000D03*
X155413234Y-92100492D03*
D41*
X139922498Y-91677577D03*
D40*
X148500000Y-95500000D03*
X149368005Y-96108585D03*
X136906000Y-94361000D03*
X149500000Y-93500000D03*
D41*
X149250400Y-89611200D03*
D42*
X141523711Y-97717018D03*
D40*
X155244800Y-98450400D03*
D41*
X157000000Y-94500000D03*
D40*
X153877737Y-97084883D03*
D41*
X167250000Y-92500000D03*
D40*
X136042400Y-97536000D03*
X147500000Y-94500000D03*
D41*
X143052800Y-88493600D03*
D40*
X136357913Y-99510032D03*
D41*
X163500000Y-95500000D03*
D40*
X134000000Y-94000000D03*
X148082016Y-93214070D03*
D42*
X162373288Y-89834266D03*
D41*
X137304428Y-90924840D03*
D40*
X150785221Y-94217271D03*
D43*
X165354000Y-93853000D03*
D41*
X155158368Y-94574431D03*
D40*
X134787762Y-96400198D03*
X146500000Y-93500000D03*
D41*
X135993364Y-88493365D03*
D40*
X137859543Y-89716688D03*
X144217762Y-97790198D03*
X149000000Y-94500000D03*
D41*
X142787095Y-91936295D03*
D40*
X153217762Y-94550198D03*
X163000000Y-88500000D03*
D41*
X140970000Y-92456000D03*
D40*
X147523200Y-99625000D03*
X137250646Y-95888198D03*
X159097552Y-89884235D03*
X157696657Y-97077363D03*
X140747762Y-94488000D03*
D41*
X154620391Y-89977198D03*
X153000000Y-88500000D03*
D40*
X163750000Y-92250000D03*
X145491200Y-97028000D03*
X137856199Y-88720717D03*
X156750000Y-92250000D03*
D41*
X155956000Y-92760800D03*
X162814000Y-93984389D03*
D40*
X140868400Y-99585198D03*
D41*
X144272000Y-89662000D03*
D40*
X147500000Y-96000000D03*
X142433283Y-93729119D03*
X146500000Y-96500000D03*
%TO.N,DOVDD*%
X143535430Y-97799205D03*
X136245600Y-92557600D03*
X139000000Y-95500000D03*
%TO.N,VBUS*%
X166471600Y-94742000D03*
D44*
X159145839Y-96607436D03*
X152951761Y-91527684D03*
D40*
%TO.N,VBUS_SENSE*%
X148539200Y-90576400D03*
X165862000Y-94589600D03*
%TO.N,CS*%
X154889200Y-96164400D03*
X152490795Y-96150198D03*
D41*
%TO.N,VCC_3V3*%
X151252222Y-88432644D03*
X140117762Y-94520198D03*
X160318843Y-99402055D03*
D40*
X148147762Y-92000198D03*
X152317762Y-99250198D03*
X150817762Y-90170000D03*
D45*
X154533600Y-98501200D03*
D40*
X151978975Y-91561645D03*
D42*
X135145083Y-91473715D03*
X135382000Y-94615000D03*
D40*
X134213600Y-98907600D03*
X156757276Y-97576098D03*
X136477762Y-97750198D03*
D41*
X145037762Y-88900000D03*
D40*
X150368000Y-93280198D03*
X159620781Y-96097608D03*
X149362762Y-92105198D03*
D42*
X141173200Y-89154000D03*
D40*
%TO.N,BOOT*%
X156697762Y-98060198D03*
X145542000Y-93820198D03*
%TO.N,RESET*%
X160389363Y-98539107D03*
X145314965Y-93400198D03*
D43*
%TO.N,B-*%
X164991283Y-91508717D03*
D40*
%TO.N,CAM_EN*%
X151301551Y-90016720D03*
D42*
X134463218Y-94488000D03*
D41*
X149225000Y-90297000D03*
D40*
%TO.N,VDD3P3*%
X143777762Y-92395198D03*
%TO.N,Y4*%
X142955651Y-94243616D03*
%TO.N,Y3*%
X143420462Y-94525708D03*
%TO.N,Y5*%
X143919644Y-94917376D03*
%TO.N,Y2*%
X142881026Y-95320198D03*
%TO.N,Y6*%
X143847762Y-95640198D03*
%TO.N,PCLK*%
X143357762Y-95970997D03*
%TO.N,Y7*%
X143129000Y-96393000D03*
%TO.N,SDA*%
X152425603Y-93217801D03*
X143807750Y-96743000D03*
X151638000Y-89662000D03*
%TO.N,SCL*%
X152857762Y-92970198D03*
X151781681Y-90144087D03*
X143361727Y-97100198D03*
%TO.N,Y8*%
X141447762Y-99585198D03*
X145457762Y-97610198D03*
%TO.N,MCLK_3V3*%
X144749750Y-97828852D03*
X134467600Y-91440000D03*
%TO.N,Y9*%
X142477762Y-99585198D03*
X146205612Y-97559947D03*
%TO.N,HREF*%
X146667762Y-97450198D03*
X144003284Y-99602693D03*
%TO.N,PWDN_3V3*%
X143205200Y-90170000D03*
X147152005Y-97406255D03*
%TO.N,Net-(U8-XTAL_32K_P)*%
X153060400Y-98806000D03*
X147857762Y-97370198D03*
%TO.N,GPout*%
X153771600Y-98755200D03*
X148442187Y-99139107D03*
%TO.N,VSYNC*%
X148360342Y-97433387D03*
X144977762Y-99585198D03*
%TO.N,RST_CM_3V3*%
X143408400Y-89560400D03*
X151587200Y-99060000D03*
%TO.N,D-*%
X149479000Y-98933000D03*
X155750000Y-98250000D03*
%TO.N,D+*%
X157255063Y-97361305D03*
X150021594Y-99077085D03*
%TO.N,INT_BQ25180*%
X151372483Y-90817086D03*
X150465783Y-98893801D03*
%TO.N,WP*%
X156413200Y-96367600D03*
X152197762Y-96570198D03*
%TO.N,DO*%
X152437762Y-95310198D03*
X155697762Y-96090198D03*
%TO.N,BTTN*%
X153314400Y-98399600D03*
D41*
X162219459Y-98497576D03*
D40*
%TO.N,SCCB_SDA*%
X150041760Y-92110358D03*
X147015200Y-99585198D03*
X136646302Y-91674840D03*
%TO.N,SCCB_SCL*%
X138625233Y-93510807D03*
X148808846Y-92093428D03*
X145977762Y-99585198D03*
%TO.N,DVDD*%
X143487762Y-99585198D03*
D45*
%TO.N,D-X*%
X167000000Y-97155000D03*
%TO.N,D+X*%
X165500000Y-96000000D03*
D41*
%TO.N,Net-(R4-Pad1)*%
X158421657Y-97380781D03*
X164500000Y-97250000D03*
%TO.N,Net-(R3-Pad1)*%
X162323540Y-99229999D03*
X159395123Y-98075199D03*
D42*
%TO.N,LOAD_SYS*%
X153503244Y-90097451D03*
D44*
X136700418Y-96684198D03*
D43*
%TO.N,B+*%
X163807050Y-90213304D03*
X155266651Y-89902198D03*
X159258000Y-88646000D03*
D40*
%TO.N,PWDN_CAM*%
X144477762Y-99625000D03*
X136702800Y-90932000D03*
%TO.N,RST_CM_CAM*%
X141071600Y-89712800D03*
X143662400Y-88544400D03*
X145477762Y-99625000D03*
%TO.N,MCLK_CAM*%
X135737600Y-93573600D03*
X141977762Y-99585198D03*
%TD*%
%TO.N,Net-(U3-TS{slash}MR)*%
D46*
X152422762Y-89268063D02*
X152205039Y-89485786D01*
D47*
X152205039Y-89485786D02*
X152167762Y-89448509D01*
D46*
X152422762Y-88680198D02*
X152422762Y-89268063D01*
%TO.N,GND*%
D47*
X136042400Y-97524233D02*
X136042400Y-97536000D01*
X146943131Y-88735567D02*
X146943131Y-88762463D01*
X152527762Y-98035198D02*
X152802762Y-97760198D01*
X146927762Y-88720198D02*
X146943131Y-88735567D01*
X152802762Y-97760198D02*
X153237762Y-97760198D01*
%TO.N,DOVDD*%
D48*
X142337762Y-97240198D02*
X142157762Y-97240198D01*
X143535430Y-97849089D02*
X143514321Y-97870198D01*
X142967762Y-97870198D02*
X142337762Y-97240198D01*
X143535430Y-97799205D02*
X143535430Y-97849089D01*
X142157762Y-98202698D02*
X142275262Y-98320198D01*
X136245600Y-92557600D02*
X135665181Y-92557600D01*
X142157762Y-97240198D02*
X142157762Y-98202698D01*
X143514321Y-97870198D02*
X142967762Y-97870198D01*
D47*
X135665181Y-92557600D02*
X135658310Y-92564471D01*
%TO.N,XTAL_P*%
D48*
X146257762Y-91280198D02*
X146257762Y-90456045D01*
X146214059Y-90412341D02*
X146763937Y-89862463D01*
X146763937Y-89862463D02*
X146943131Y-89862463D01*
X145692626Y-89890909D02*
X145692626Y-89461816D01*
X146214059Y-90412341D02*
X145692626Y-89890909D01*
X146257762Y-90456045D02*
X146214059Y-90412341D01*
%TO.N,XTAL_N*%
X146657762Y-90897700D02*
X146657762Y-91280198D01*
X148575246Y-88530348D02*
X148343131Y-88762463D01*
X149606907Y-88530348D02*
X148575246Y-88530348D01*
X148343131Y-88762463D02*
X147675600Y-89429994D01*
X147151622Y-90675198D02*
X146880264Y-90675198D01*
X147675600Y-89429994D02*
X147675600Y-90151220D01*
X146880264Y-90675198D02*
X146657762Y-90897700D01*
X147675600Y-90151220D02*
X147151622Y-90675198D01*
%TO.N,VBUS*%
D49*
X152881838Y-91457761D02*
X152951761Y-91527684D01*
X159172778Y-96607436D02*
X160225964Y-97660622D01*
X152881838Y-90927613D02*
X152881838Y-91457761D01*
X159145839Y-96607436D02*
X159172778Y-96607436D01*
X160225964Y-97660622D02*
X163362500Y-97660622D01*
D46*
X166471600Y-94742000D02*
X166471600Y-95234800D01*
X166471600Y-95234800D02*
X166486800Y-95250000D01*
%TO.N,VBUS_SENSE*%
X165862000Y-95234800D02*
X165846800Y-95250000D01*
X165862000Y-94589600D02*
X165862000Y-95234800D01*
X148657762Y-91280198D02*
X148657762Y-90694962D01*
X148657762Y-90694962D02*
X148539200Y-90576400D01*
%TO.N,Net-(J2-In)*%
D50*
X143107762Y-90850198D02*
X140187938Y-90850198D01*
D51*
X140187938Y-90850198D02*
X140179428Y-90841688D01*
%TO.N,CS*%
D46*
X155307762Y-97550198D02*
X154437762Y-96680198D01*
D47*
X152490795Y-96150198D02*
X152465795Y-96125198D01*
D46*
X154889200Y-96228760D02*
X154437762Y-96680198D01*
D47*
X154437762Y-96480198D02*
X154437762Y-96680198D01*
X152465795Y-96125198D02*
X151502762Y-96125198D01*
D46*
X155307762Y-97700198D02*
X155307762Y-97550198D01*
X154889200Y-96164400D02*
X154889200Y-96228760D01*
%TO.N,VCC_3V3*%
D47*
X150387762Y-93299960D02*
X150387762Y-93815942D01*
D48*
X135097762Y-94899238D02*
X135382000Y-94615000D01*
D47*
X160318843Y-99427945D02*
X160297762Y-99449026D01*
D46*
X150407960Y-90170000D02*
X150337762Y-90240198D01*
D47*
X150368000Y-93280198D02*
X150387762Y-93299960D01*
D46*
X154975600Y-98943200D02*
X154533600Y-98501200D01*
D48*
X134213600Y-98907600D02*
X134503200Y-98907600D01*
X135097762Y-95680198D02*
X135097762Y-94899238D01*
X134890273Y-99294673D02*
X134996882Y-99294673D01*
X159507415Y-95982157D02*
X159507415Y-95361339D01*
D46*
X149457762Y-90875198D02*
X149457762Y-91280198D01*
D48*
X137017762Y-98380198D02*
X137810084Y-98380198D01*
D47*
X150197762Y-96876198D02*
X150197762Y-96880198D01*
D48*
X136927762Y-98380198D02*
X137017762Y-98380198D01*
D46*
X141173200Y-88993200D02*
X140680000Y-88500000D01*
D48*
X160535700Y-99185198D02*
X160318843Y-99402055D01*
X144881600Y-90704036D02*
X144881600Y-89056162D01*
D47*
X150208762Y-93994942D02*
X150208762Y-94428488D01*
D48*
X140557762Y-96890198D02*
X140557762Y-96000198D01*
D47*
X150127762Y-96950198D02*
X147637762Y-96950198D01*
D48*
X144881600Y-89056162D02*
X145037762Y-88900000D01*
D47*
X150197762Y-96880198D02*
X150127762Y-96950198D01*
D46*
X154975600Y-99466400D02*
X154975600Y-98943200D01*
D47*
X160318843Y-99402055D02*
X160318843Y-99427945D01*
D48*
X134213600Y-98907600D02*
X134413400Y-98907600D01*
X140117762Y-95560198D02*
X140917762Y-95560198D01*
D49*
X140117762Y-94520198D02*
X140117762Y-95340198D01*
D47*
X137810084Y-98380198D02*
X137855084Y-98425198D01*
D46*
X150337762Y-90240198D02*
X150092762Y-90240198D01*
D48*
X136477762Y-97840198D02*
X136477762Y-97930198D01*
D47*
X150208762Y-94300198D02*
X150208762Y-96876198D01*
D48*
X140557762Y-96000198D02*
X140117762Y-95560198D01*
D47*
X147507762Y-98120198D02*
X147457762Y-98170198D01*
X147507762Y-97080198D02*
X147507762Y-98120198D01*
D48*
X134503200Y-98907600D02*
X134890273Y-99294673D01*
D47*
X150387762Y-93815942D02*
X150208762Y-93994942D01*
D48*
X145857762Y-91280198D02*
X145457762Y-91280198D01*
X159620781Y-96097608D02*
X159620781Y-96095523D01*
D47*
X147637762Y-96950198D02*
X147507762Y-97080198D01*
D48*
X140917762Y-95560198D02*
X141247762Y-95890198D01*
D46*
X150092762Y-90240198D02*
X149457762Y-90875198D01*
D48*
X134413400Y-98907600D02*
X134799600Y-98521400D01*
D46*
X156071862Y-97576098D02*
X156757276Y-97576098D01*
D48*
X160847762Y-99185198D02*
X160535700Y-99185198D01*
D46*
X141173200Y-89154000D02*
X141173200Y-88993200D01*
D47*
X150208762Y-96876198D02*
X150197762Y-96876198D01*
D48*
X136477762Y-97930198D02*
X136927762Y-98380198D01*
D46*
X150817762Y-90170000D02*
X150407960Y-90170000D01*
X155947762Y-97700198D02*
X156071862Y-97576098D01*
D48*
X141247762Y-95890198D02*
X141247762Y-95070198D01*
X159620781Y-96095523D02*
X159507415Y-95982157D01*
X145457762Y-91280198D02*
X144881600Y-90704036D01*
D47*
X136477762Y-97750198D02*
X136477762Y-97840198D01*
%TO.N,BOOT*%
D48*
X145112762Y-93820198D02*
X145017762Y-93725198D01*
D46*
X156697762Y-98820198D02*
X156617762Y-98900198D01*
X155615600Y-99466400D02*
X155971200Y-99110800D01*
X155971200Y-99110800D02*
X156407160Y-99110800D01*
D48*
X145017762Y-93725198D02*
X144612762Y-93725198D01*
D46*
X156697762Y-98060198D02*
X156697762Y-98820198D01*
D48*
X145542000Y-93820198D02*
X145112762Y-93820198D01*
D46*
X156407160Y-99110800D02*
X156617762Y-98900198D01*
%TO.N,RESET*%
X160857762Y-98535198D02*
X160847762Y-98545198D01*
X160847762Y-98545198D02*
X160395454Y-98545198D01*
D47*
X145314965Y-93400198D02*
X145187762Y-93400198D01*
D46*
X160395454Y-98545198D02*
X160389363Y-98539107D01*
D48*
X145314965Y-93400198D02*
X144687762Y-93400198D01*
D46*
X159438853Y-98539107D02*
X159077762Y-98900198D01*
X160389363Y-98539107D02*
X159438853Y-98539107D01*
D48*
X144687762Y-93400198D02*
X144612762Y-93325198D01*
D46*
X161557762Y-98535198D02*
X160857762Y-98535198D01*
%TO.N,B-*%
D52*
X164592000Y-91908000D02*
X164991283Y-91508717D01*
X161727762Y-91645198D02*
X161747762Y-91665198D01*
X164592000Y-92577500D02*
X164592000Y-91908000D01*
X162858907Y-92574353D02*
X162555761Y-92877499D01*
X162555761Y-92877499D02*
X161747762Y-92069500D01*
X164292001Y-92877499D02*
X162555761Y-92877499D01*
X164592000Y-92577500D02*
X164292001Y-92877499D01*
X161747762Y-91665198D02*
X161747762Y-92069500D01*
X162858907Y-92477447D02*
X162858907Y-92574353D01*
%TO.N,Net-(Q1-D12-Pad2)*%
D48*
X165542000Y-90302500D02*
X165542000Y-92577500D01*
%TO.N,Net-(Q1-G2)*%
X160047763Y-88932000D02*
X165783999Y-88932000D01*
X166492000Y-89640001D02*
X166492000Y-90302500D01*
X165783999Y-88932000D02*
X166492000Y-89640001D01*
X159847762Y-89132001D02*
X160047763Y-88932000D01*
X159847762Y-89794500D02*
X159847762Y-89132001D01*
%TO.N,Net-(Q1-G1)*%
X162134262Y-89408000D02*
X164359999Y-89408000D01*
X164359999Y-89408000D02*
X164592000Y-89640001D01*
X164592000Y-89640001D02*
X164592000Y-90302500D01*
X161747762Y-89794500D02*
X162134262Y-89408000D01*
%TO.N,CAM_EN*%
D47*
X151301551Y-90016720D02*
X151250000Y-90068271D01*
X150257762Y-90968412D02*
X150257762Y-91280198D01*
D46*
X134463218Y-94488000D02*
X134463218Y-93816782D01*
X134412762Y-97484562D02*
X134412762Y-94538456D01*
X137135198Y-97135198D02*
X135535802Y-97135198D01*
D47*
X151250000Y-90267580D02*
X150792382Y-90725198D01*
X151250000Y-90068271D02*
X151250000Y-90267580D01*
D46*
X137855084Y-97775198D02*
X137775198Y-97775198D01*
X134799600Y-97871400D02*
X134412762Y-97484562D01*
X134463218Y-93816782D02*
X134554000Y-93726000D01*
D47*
X150792382Y-90725198D02*
X150500976Y-90725198D01*
D46*
X135535802Y-97135198D02*
X134799600Y-97871400D01*
X134412762Y-94538456D02*
X134463218Y-94488000D01*
D47*
X150500976Y-90725198D02*
X150257762Y-90968412D01*
D46*
X134554000Y-94397218D02*
X134463218Y-94488000D01*
X137775198Y-97775198D02*
X137135198Y-97135198D01*
%TO.N,Net-(U8-LNA_IN)*%
D50*
X143912034Y-90850198D02*
X144472762Y-90850198D01*
D47*
X143908958Y-90853274D02*
X143912034Y-90850198D01*
D50*
X144472762Y-90850198D02*
X144612762Y-90990198D01*
D47*
X144617762Y-92120198D02*
X144612762Y-92125198D01*
D50*
X144612762Y-90990198D02*
X144612762Y-92125198D01*
%TO.N,VDD3P3*%
D48*
X143777762Y-92520198D02*
X143957762Y-92700198D01*
X143777762Y-92395198D02*
X143777762Y-92520198D01*
X143957762Y-92700198D02*
X144612762Y-92700198D01*
D47*
X144612762Y-92525198D02*
X144612762Y-92700198D01*
D48*
X144612762Y-92700198D02*
X144612762Y-92925198D01*
%TO.N,Y4*%
D46*
X143074069Y-94125198D02*
X142955651Y-94243616D01*
X144612762Y-94125198D02*
X143074069Y-94125198D01*
D47*
X142955651Y-94243616D02*
X143019763Y-94307728D01*
%TO.N,Y3*%
D46*
X144612762Y-94525198D02*
X143420972Y-94525198D01*
X143420972Y-94525198D02*
X143420462Y-94525708D01*
%TO.N,Y5*%
X144612762Y-94925198D02*
X143927466Y-94925198D01*
X143927466Y-94925198D02*
X143919644Y-94917376D01*
%TO.N,Y2*%
D47*
X144612762Y-95325198D02*
X144554940Y-95267376D01*
X144554940Y-95267376D02*
X142933848Y-95267376D01*
X142933848Y-95267376D02*
X142881026Y-95320198D01*
%TO.N,Y6*%
D46*
X143932762Y-95725198D02*
X143847762Y-95640198D01*
X144612762Y-95725198D02*
X143932762Y-95725198D01*
%TO.N,PCLK*%
X144612762Y-96125198D02*
X144502762Y-96015198D01*
X144502762Y-96015198D02*
X143401963Y-96015198D01*
D47*
X143357762Y-95970997D02*
X143376963Y-95990198D01*
D46*
X143401963Y-96015198D02*
X143357762Y-95970997D01*
%TO.N,Y7*%
D47*
X143592787Y-96297000D02*
X143922000Y-96297000D01*
X144150198Y-96525198D02*
X144612762Y-96525198D01*
X143129000Y-96393000D02*
X143496787Y-96393000D01*
X143496787Y-96393000D02*
X143592787Y-96297000D01*
X143922000Y-96297000D02*
X144150198Y-96525198D01*
%TO.N,SDA*%
X143807750Y-96743000D02*
X142984025Y-96743000D01*
D46*
X143807750Y-96743000D02*
X143989948Y-96925198D01*
D47*
X142754000Y-95936436D02*
X141887762Y-95070198D01*
X142754000Y-96512975D02*
X142754000Y-95936436D01*
D46*
X143989948Y-96925198D02*
X144612762Y-96925198D01*
D47*
X142984025Y-96743000D02*
X142754000Y-96512975D01*
%TO.N,SCL*%
X151841651Y-90144087D02*
X152526762Y-90829198D01*
X143361727Y-97100198D02*
X143657762Y-97100198D01*
X141892762Y-96055198D02*
X141887762Y-96060198D01*
X151781681Y-90144087D02*
X151841651Y-90144087D01*
X143897762Y-97340198D02*
X144597762Y-97340198D01*
X143657762Y-97100198D02*
X143897762Y-97340198D01*
X144597762Y-97340198D02*
X144612762Y-97325198D01*
X142937762Y-97100198D02*
X141892762Y-96055198D01*
X152526762Y-90829198D02*
X152526762Y-92639198D01*
X152526762Y-92639198D02*
X152857762Y-92970198D01*
X143361727Y-97100198D02*
X142937762Y-97100198D01*
X141887762Y-96060198D02*
X141887762Y-95890198D01*
%TO.N,Y8*%
X145457762Y-97610198D02*
X145457762Y-98170198D01*
%TO.N,MCLK_3V3*%
X145614548Y-98725198D02*
X145857762Y-98481984D01*
X144749750Y-97828852D02*
X144749750Y-98173972D01*
X145857762Y-98481984D02*
X145857762Y-98170198D01*
X144749750Y-98173972D02*
X145300976Y-98725198D01*
X145300976Y-98725198D02*
X145614548Y-98725198D01*
%TO.N,Y9*%
X146205612Y-97559947D02*
X146205612Y-97578048D01*
X146257762Y-97630198D02*
X146257762Y-98170198D01*
X146205612Y-97578048D02*
X146257762Y-97630198D01*
%TO.N,HREF*%
X146667762Y-97450198D02*
X146667762Y-97630198D01*
X146667762Y-97630198D02*
X146657762Y-97640198D01*
X146657762Y-97640198D02*
X146657762Y-98170198D01*
%TO.N,PWDN_3V3*%
X147152005Y-97406255D02*
X147067762Y-97490498D01*
X147057762Y-97630198D02*
X147057762Y-98170198D01*
X147067762Y-97490498D02*
X147067762Y-97620198D01*
X147067762Y-97620198D02*
X147057762Y-97630198D01*
%TO.N,Net-(U8-XTAL_32K_P)*%
X147857762Y-98170198D02*
X147857762Y-97370198D01*
%TO.N,GPout*%
X148257762Y-98954682D02*
X148442187Y-99139107D01*
X148257762Y-98170198D02*
X148257762Y-98954682D01*
%TO.N,VSYNC*%
X148657762Y-97740198D02*
X148657762Y-98170198D01*
X148360342Y-97433387D02*
X148360342Y-97442778D01*
X148360342Y-97442778D02*
X148657762Y-97740198D01*
%TO.N,RST_CM_3V3*%
D46*
X151587200Y-99060000D02*
X151195115Y-99452085D01*
X149057762Y-99042093D02*
X149057762Y-98170198D01*
X149467754Y-99452085D02*
X149057762Y-99042093D01*
X151195115Y-99452085D02*
X149467754Y-99452085D01*
%TO.N,D-*%
X149479000Y-98191436D02*
X149457762Y-98170198D01*
D47*
X149457762Y-98911762D02*
X149479000Y-98933000D01*
D46*
X149479000Y-98933000D02*
X149479000Y-98191436D01*
%TO.N,D+*%
X150021594Y-99077085D02*
X149857762Y-98913253D01*
X149857762Y-98913253D02*
X149857762Y-98170198D01*
%TO.N,INT_BQ25180*%
X150465783Y-98893801D02*
X150257762Y-98685780D01*
X150257762Y-98685780D02*
X150257762Y-98170198D01*
%TO.N,Net-(U7-VCC)*%
D47*
X154437762Y-91733198D02*
X154437762Y-91280198D01*
X154041762Y-92129198D02*
X154437762Y-91733198D01*
X154037762Y-95704198D02*
X154041762Y-95700198D01*
X153237762Y-97120198D02*
X153237762Y-96830198D01*
X154041762Y-95700198D02*
X154041762Y-92129198D01*
X152962762Y-97395198D02*
X153237762Y-97120198D01*
X151502762Y-97325198D02*
X152457762Y-97325198D01*
X152457762Y-97325198D02*
X152527762Y-97395198D01*
X153237762Y-96830198D02*
X154037762Y-96030198D01*
X152527762Y-97395198D02*
X152962762Y-97395198D01*
X154037762Y-96030198D02*
X154037762Y-95704198D01*
%TO.N,RSTHD*%
X153355851Y-96032113D02*
X153398277Y-95989684D01*
X154194976Y-90754198D02*
X155181762Y-90754198D01*
X153787762Y-91161412D02*
X154194976Y-90754198D01*
X151502762Y-96925198D02*
X152462766Y-96925198D01*
X152462766Y-96925198D02*
X153355851Y-96032113D01*
X155181762Y-90754198D02*
X155707762Y-91280198D01*
X153787762Y-95600198D02*
X153787762Y-91161412D01*
X153398277Y-95989684D02*
X153787762Y-95600198D01*
%TO.N,WP*%
D46*
X156665164Y-96367600D02*
X156977762Y-96680198D01*
D47*
X152197762Y-96570198D02*
X151547762Y-96570198D01*
X151547762Y-96570198D02*
X151502762Y-96525198D01*
D46*
X156413200Y-96367600D02*
X156665164Y-96367600D01*
%TO.N,CLK*%
D47*
X152537737Y-95725198D02*
X153586762Y-94676173D01*
X151502762Y-95725198D02*
X152537737Y-95725198D01*
X154111720Y-90553198D02*
X156250762Y-90553198D01*
X153586762Y-91078155D02*
X154111720Y-90553198D01*
X153586762Y-94676173D02*
X153586762Y-91078155D01*
X156250762Y-90553198D02*
X156977762Y-91280198D01*
%TO.N,DO*%
D46*
X155697762Y-96670198D02*
X155707762Y-96680198D01*
D47*
X152422762Y-95325198D02*
X151502762Y-95325198D01*
D46*
X155697762Y-96090198D02*
X155697762Y-96670198D01*
D47*
X152437762Y-95310198D02*
X152422762Y-95325198D01*
%TO.N,DI*%
X154028463Y-90352198D02*
X153385762Y-90994898D01*
X157319762Y-90352198D02*
X154028463Y-90352198D01*
X151502762Y-94925198D02*
X152347787Y-94925198D01*
X152347787Y-94925198D02*
X153385762Y-93887223D01*
X153385762Y-93887223D02*
X153385762Y-90994898D01*
X158247762Y-91280198D02*
X157319762Y-90352198D01*
%TO.N,BTTN*%
X150467762Y-97010198D02*
X150467762Y-94381232D01*
X150467762Y-94381232D02*
X150431762Y-94345232D01*
X150431762Y-94075164D02*
X150497762Y-94009164D01*
X153314400Y-98399600D02*
X152908360Y-98399600D01*
X150431762Y-94345232D02*
X150431762Y-94075164D01*
X150867762Y-91490198D02*
X150657762Y-91280198D01*
X150497762Y-93990198D02*
X150867762Y-93620198D01*
X151873762Y-98416198D02*
X150467762Y-97010198D01*
X150497762Y-94009164D02*
X150497762Y-93990198D01*
X150867762Y-93620198D02*
X150867762Y-91490198D01*
X152908360Y-98399600D02*
X152891762Y-98416198D01*
X152891762Y-98416198D02*
X151873762Y-98416198D01*
%TO.N,SCCB_SDA*%
X149857762Y-91926360D02*
X150041760Y-92110358D01*
X149857762Y-91280198D02*
X149857762Y-91926360D01*
%TO.N,SCCB_SCL*%
D48*
X148808846Y-92093428D02*
X148797592Y-92093428D01*
D47*
X149057762Y-91844512D02*
X148808846Y-92093428D01*
X149057762Y-91280198D02*
X149057762Y-91844512D01*
%TO.N,DVDD*%
D48*
X143467762Y-98920198D02*
X140455230Y-98920198D01*
X140284230Y-99091198D02*
X137500000Y-99091198D01*
X143627762Y-99080198D02*
X143627762Y-99445198D01*
X143627762Y-99080198D02*
X143467762Y-98920198D01*
X140455230Y-98920198D02*
X140284230Y-99091198D01*
X143627762Y-99445198D02*
X143487762Y-99585198D01*
X136890684Y-99496655D02*
X136890684Y-99200514D01*
X137500000Y-99091198D02*
X137000000Y-99091198D01*
X135941286Y-98521400D02*
X135659600Y-98521400D01*
X136890684Y-99200514D02*
X137000000Y-99091198D01*
X136511084Y-99091198D02*
X135941286Y-98521400D01*
X137000000Y-99091198D02*
X136511084Y-99091198D01*
%TO.N,D-X*%
D46*
X167000000Y-97155000D02*
X167000000Y-97910621D01*
X166299999Y-98610622D02*
X165637500Y-98610622D01*
X167000000Y-97910621D02*
X166299999Y-98610622D01*
%TO.N,D+X*%
X165500000Y-96573122D02*
X165637500Y-96710622D01*
X165500000Y-96000000D02*
X165500000Y-96573122D01*
%TO.N,Net-(R4-Pad1)*%
X164500000Y-97250000D02*
X163960622Y-96710622D01*
X163960622Y-96710622D02*
X163362500Y-96710622D01*
%TO.N,Net-(R3-Pad1)*%
X162942917Y-98610622D02*
X162323540Y-99229999D01*
X163362500Y-98610622D02*
X162942917Y-98610622D01*
%TO.N,Net-(U4-SW)*%
D49*
X135497762Y-95200198D02*
X135737762Y-94960198D01*
X137397762Y-94960198D02*
X137997762Y-95560198D01*
X135737762Y-94960198D02*
X137397762Y-94960198D01*
X135497762Y-95680198D02*
X135497762Y-95200198D01*
%TO.N,Net-(U10-VOUT)*%
D48*
X138715084Y-98425198D02*
X138760084Y-98470198D01*
X139827762Y-98480198D02*
X140540262Y-98480198D01*
X138760084Y-98470198D02*
X139457762Y-98470198D01*
X139457762Y-98470198D02*
X139597762Y-98610198D01*
%TO.N,LOAD_SYS*%
D49*
X135497762Y-96080198D02*
X135897762Y-96080198D01*
X136676418Y-96660198D02*
X136477762Y-96660198D01*
X135717762Y-96660198D02*
X135497762Y-96440198D01*
X135897762Y-96080198D02*
X136477762Y-96660198D01*
X136700418Y-96684198D02*
X136676418Y-96660198D01*
X136700418Y-96684198D02*
X136721762Y-96684198D01*
X153749184Y-89851511D02*
X153503244Y-90097451D01*
X136477762Y-96660198D02*
X135717762Y-96660198D01*
X136847762Y-96810198D02*
X137667762Y-96810198D01*
X136721762Y-96684198D02*
X136847762Y-96810198D01*
X153749184Y-89618760D02*
X153749184Y-89851511D01*
X135497762Y-96440198D02*
X135497762Y-96080198D01*
%TO.N,Net-(U4-VSET)*%
D47*
X137692762Y-94525198D02*
X137692762Y-94110198D01*
X138357762Y-94790198D02*
X137957762Y-94790198D01*
X136645728Y-96259198D02*
X137565994Y-96259198D01*
X135897762Y-95680198D02*
X136066728Y-95680198D01*
X138587762Y-96100966D02*
X138587762Y-95020198D01*
X137957762Y-94790198D02*
X137692762Y-94525198D01*
X138587762Y-95020198D02*
X138357762Y-94790198D01*
X136066728Y-95680198D02*
X136645728Y-96259198D01*
X137617994Y-96311198D02*
X138377530Y-96311198D01*
X138377530Y-96311198D02*
X138587762Y-96100966D01*
X137565994Y-96259198D02*
X137617994Y-96311198D01*
%TO.N,Net-(U6-CS)*%
D48*
X159064564Y-90657000D02*
X160597761Y-90657000D01*
X160597761Y-90657000D02*
X160797762Y-90456999D01*
X160797762Y-90456999D02*
X160797762Y-89794500D01*
X158417762Y-90010198D02*
X159064564Y-90657000D01*
%TO.N,Net-(U6-VCC)*%
X163000000Y-91696354D02*
X162858907Y-91837447D01*
X160797762Y-91407001D02*
X161154565Y-91050198D01*
X163000000Y-91050198D02*
X163000000Y-91696354D01*
X160797762Y-92069500D02*
X160797762Y-91407001D01*
X161154565Y-91050198D02*
X163000000Y-91050198D01*
%TO.N,Net-(D1-A)*%
X161010913Y-94877841D02*
X160527415Y-95361339D01*
X161668144Y-94877841D02*
X161010913Y-94877841D01*
%TO.N,B+*%
D53*
X163643944Y-90050198D02*
X163807050Y-90213304D01*
X163000000Y-90050198D02*
X163643944Y-90050198D01*
D48*
X162817762Y-90050198D02*
X162817762Y-89980198D01*
%TD*%
%TA.AperFunction,Conductor*%
%TO.N,GND*%
G36*
X137304212Y-95235050D02*
G01*
X137432910Y-95363748D01*
X137447262Y-95398396D01*
X137447262Y-95978918D01*
X137447261Y-95978918D01*
X137448569Y-95988852D01*
X137453599Y-96027057D01*
X137453599Y-96027058D01*
X137453600Y-96027060D01*
X137454501Y-96028993D01*
X137454560Y-96030356D01*
X137454648Y-96030657D01*
X137454574Y-96030678D01*
X137456135Y-96066460D01*
X137430796Y-96094108D01*
X137410091Y-96098698D01*
X136732505Y-96098698D01*
X136697857Y-96084346D01*
X136157646Y-95544134D01*
X136155403Y-95543205D01*
X136130402Y-95532849D01*
X136098654Y-95519698D01*
X136098653Y-95519698D01*
X136090605Y-95519698D01*
X136055957Y-95505346D01*
X136031162Y-95480551D01*
X135999867Y-95467588D01*
X135944607Y-95444698D01*
X135944606Y-95444698D01*
X135850918Y-95444698D01*
X135850916Y-95444698D01*
X135850913Y-95444699D01*
X135826013Y-95455013D01*
X135816267Y-95455013D01*
X135807262Y-95458743D01*
X135798257Y-95455013D01*
X135788510Y-95455013D01*
X135781617Y-95448120D01*
X135772614Y-95444391D01*
X135768884Y-95435386D01*
X135761992Y-95428494D01*
X135758262Y-95409743D01*
X135758262Y-95328396D01*
X135772614Y-95293748D01*
X135831312Y-95235050D01*
X135865960Y-95220698D01*
X137269564Y-95220698D01*
X137304212Y-95235050D01*
G37*
%TD.AperFunction*%
%TA.AperFunction,Conductor*%
G36*
X140351667Y-88205969D02*
G01*
X140365686Y-88208758D01*
X140368474Y-88212931D01*
X140373111Y-88214852D01*
X140378581Y-88228057D01*
X140386521Y-88239941D01*
X140385542Y-88244862D01*
X140387463Y-88249500D01*
X140379205Y-88276722D01*
X140351713Y-88317867D01*
X140339500Y-88379267D01*
X140339500Y-88379268D01*
X140339500Y-88379270D01*
X140339500Y-88620730D01*
X140351713Y-88682133D01*
X140398237Y-88751762D01*
X140422755Y-88768144D01*
X140467867Y-88798287D01*
X140529267Y-88810500D01*
X140707866Y-88810499D01*
X140742514Y-88824851D01*
X140882146Y-88964483D01*
X140896498Y-88999131D01*
X140889935Y-89023627D01*
X140883862Y-89034146D01*
X140883858Y-89034156D01*
X140862700Y-89113119D01*
X140862700Y-89194880D01*
X140883859Y-89273846D01*
X140883860Y-89273850D01*
X140924738Y-89344651D01*
X140946754Y-89366667D01*
X140961106Y-89401315D01*
X140946754Y-89435963D01*
X140936607Y-89443750D01*
X140887086Y-89472342D01*
X140831141Y-89528288D01*
X140831140Y-89528288D01*
X140791579Y-89596808D01*
X140791579Y-89596810D01*
X140771100Y-89673236D01*
X140771100Y-89752363D01*
X140791579Y-89828789D01*
X140791579Y-89828791D01*
X140831140Y-89897311D01*
X140887089Y-89953260D01*
X140929247Y-89977600D01*
X140942911Y-89985489D01*
X140955611Y-89992821D01*
X140991078Y-90002324D01*
X141032036Y-90013300D01*
X141032038Y-90013300D01*
X141111164Y-90013300D01*
X141137830Y-90006154D01*
X141187589Y-89992821D01*
X141256111Y-89953260D01*
X141312060Y-89897311D01*
X141348669Y-89833902D01*
X141351620Y-89828791D01*
X141351620Y-89828790D01*
X141351621Y-89828789D01*
X141368889Y-89764346D01*
X141372100Y-89752363D01*
X141372100Y-89673236D01*
X141359574Y-89626493D01*
X141351621Y-89596811D01*
X141351620Y-89596809D01*
X141351620Y-89596808D01*
X141321486Y-89544615D01*
X141312060Y-89528289D01*
X141296399Y-89512628D01*
X141282047Y-89477980D01*
X141296399Y-89443332D01*
X141306538Y-89435551D01*
X141363851Y-89402462D01*
X141421662Y-89344651D01*
X141462540Y-89273848D01*
X141473977Y-89231165D01*
X141483700Y-89194880D01*
X141483700Y-89113119D01*
X141463200Y-89036615D01*
X141462540Y-89034152D01*
X141462539Y-89034151D01*
X141462539Y-89034149D01*
X141432315Y-88981801D01*
X141421662Y-88963349D01*
X141363851Y-88905538D01*
X141331633Y-88886937D01*
X141321489Y-88879152D01*
X141034851Y-88592514D01*
X141020499Y-88557866D01*
X141020499Y-88379269D01*
X141018596Y-88369699D01*
X141008287Y-88317867D01*
X140980794Y-88276722D01*
X140973479Y-88239941D01*
X140994314Y-88208758D01*
X141021537Y-88200500D01*
X143474183Y-88200500D01*
X143508831Y-88214852D01*
X143523183Y-88249500D01*
X143508831Y-88284148D01*
X143498684Y-88291933D01*
X143494543Y-88294325D01*
X143477888Y-88303940D01*
X143477888Y-88303941D01*
X143421941Y-88359888D01*
X143421940Y-88359888D01*
X143382379Y-88428408D01*
X143382379Y-88428410D01*
X143361900Y-88504836D01*
X143361900Y-88583963D01*
X143382379Y-88660389D01*
X143382379Y-88660391D01*
X143417661Y-88721500D01*
X143421940Y-88728911D01*
X143477889Y-88784860D01*
X143546411Y-88824421D01*
X143581878Y-88833924D01*
X143622836Y-88844900D01*
X143622838Y-88844900D01*
X143701964Y-88844900D01*
X143728630Y-88837754D01*
X143778389Y-88824421D01*
X143846911Y-88784860D01*
X143902860Y-88728911D01*
X143942421Y-88660389D01*
X143958571Y-88600113D01*
X143962900Y-88583963D01*
X143962900Y-88504836D01*
X143954243Y-88472534D01*
X143942421Y-88428411D01*
X143942420Y-88428409D01*
X143942420Y-88428408D01*
X143915574Y-88381911D01*
X143902860Y-88359889D01*
X143846911Y-88303940D01*
X143826116Y-88291934D01*
X143803287Y-88262182D01*
X143808182Y-88225000D01*
X143837935Y-88202170D01*
X143850617Y-88200500D01*
X147911899Y-88200500D01*
X147946547Y-88214852D01*
X147960899Y-88249500D01*
X147946547Y-88284148D01*
X147931691Y-88294325D01*
X147914615Y-88301864D01*
X147832532Y-88383947D01*
X147785643Y-88490141D01*
X147782631Y-88516105D01*
X147782631Y-89004973D01*
X147768279Y-89039621D01*
X147606842Y-89201060D01*
X147556361Y-89251541D01*
X147537952Y-89269950D01*
X147497147Y-89310754D01*
X147463253Y-89392582D01*
X147462181Y-89392138D01*
X147444364Y-89418805D01*
X147407582Y-89426121D01*
X147382493Y-89412711D01*
X147371646Y-89401864D01*
X147371647Y-89401864D01*
X147265452Y-89354975D01*
X147256796Y-89353971D01*
X147239488Y-89351963D01*
X147239486Y-89351963D01*
X146646780Y-89351963D01*
X146646770Y-89351964D01*
X146620809Y-89354975D01*
X146514615Y-89401864D01*
X146432532Y-89483947D01*
X146385643Y-89590141D01*
X146382631Y-89616105D01*
X146382631Y-89925780D01*
X146368279Y-89960428D01*
X146248706Y-90080001D01*
X146214058Y-90094353D01*
X146179410Y-90080001D01*
X145988692Y-89889283D01*
X145974340Y-89854635D01*
X145988692Y-89819987D01*
X145996106Y-89813901D01*
X146043227Y-89782417D01*
X146098592Y-89699556D01*
X146113126Y-89626490D01*
X146113126Y-89297142D01*
X146098592Y-89224076D01*
X146090948Y-89212636D01*
X146043227Y-89141214D01*
X145960365Y-89085849D01*
X145887303Y-89071316D01*
X145887300Y-89071316D01*
X145497952Y-89071316D01*
X145497948Y-89071316D01*
X145424886Y-89085849D01*
X145424885Y-89085850D01*
X145423921Y-89086494D01*
X145422785Y-89086719D01*
X145420429Y-89087696D01*
X145420234Y-89087226D01*
X145387138Y-89093806D01*
X145355958Y-89072967D01*
X145348646Y-89036184D01*
X145349722Y-89032640D01*
X145349567Y-89032599D01*
X145373262Y-88944170D01*
X145373262Y-88855829D01*
X145361830Y-88813166D01*
X145350398Y-88770502D01*
X145306229Y-88693998D01*
X145243764Y-88631533D01*
X145243762Y-88631532D01*
X145243760Y-88631530D01*
X145202091Y-88607473D01*
X145167260Y-88587364D01*
X145167257Y-88587363D01*
X145081933Y-88564500D01*
X145081931Y-88564500D01*
X144993593Y-88564500D01*
X144993591Y-88564500D01*
X144908266Y-88587363D01*
X144908264Y-88587364D01*
X144831763Y-88631530D01*
X144831757Y-88631535D01*
X144769297Y-88693995D01*
X144769292Y-88694001D01*
X144725126Y-88770502D01*
X144725125Y-88770504D01*
X144702262Y-88855829D01*
X144702262Y-88929312D01*
X144698532Y-88948063D01*
X144671101Y-89014287D01*
X144671100Y-89014293D01*
X144671100Y-90481198D01*
X144656748Y-90515846D01*
X144622100Y-90530198D01*
X144482127Y-90530198D01*
X144454904Y-90521940D01*
X144446891Y-90516586D01*
X144439895Y-90511911D01*
X144378495Y-90499698D01*
X144378491Y-90499698D01*
X144137031Y-90499698D01*
X144075628Y-90511911D01*
X144060620Y-90521940D01*
X144033397Y-90530198D01*
X143365189Y-90530198D01*
X143330541Y-90515846D01*
X143316189Y-90481198D01*
X143330541Y-90446550D01*
X143340689Y-90438763D01*
X143353140Y-90431574D01*
X143389711Y-90410460D01*
X143445660Y-90354511D01*
X143485221Y-90285989D01*
X143503627Y-90217299D01*
X143505700Y-90209563D01*
X143505700Y-90130436D01*
X143492185Y-90080001D01*
X143485221Y-90054011D01*
X143485220Y-90054009D01*
X143485220Y-90054008D01*
X143449893Y-89992821D01*
X143445660Y-89985489D01*
X143404719Y-89944548D01*
X143390367Y-89909900D01*
X143404719Y-89875252D01*
X143439367Y-89860900D01*
X143447964Y-89860900D01*
X143474630Y-89853754D01*
X143524389Y-89840421D01*
X143528964Y-89837780D01*
X143538618Y-89832206D01*
X143592911Y-89800860D01*
X143648860Y-89744911D01*
X143688421Y-89676389D01*
X143708900Y-89599962D01*
X143708900Y-89520838D01*
X143708900Y-89520836D01*
X143695905Y-89472342D01*
X143688421Y-89444411D01*
X143688420Y-89444409D01*
X143688420Y-89444408D01*
X143648859Y-89375888D01*
X143592911Y-89319940D01*
X143524390Y-89280379D01*
X143447964Y-89259900D01*
X143447962Y-89259900D01*
X143368838Y-89259900D01*
X143368836Y-89259900D01*
X143292410Y-89280379D01*
X143292408Y-89280379D01*
X143223888Y-89319940D01*
X143223888Y-89319941D01*
X143167941Y-89375888D01*
X143167940Y-89375888D01*
X143128379Y-89444408D01*
X143128379Y-89444410D01*
X143107900Y-89520836D01*
X143107900Y-89599963D01*
X143128379Y-89676389D01*
X143128379Y-89676391D01*
X143167940Y-89744911D01*
X143208881Y-89785852D01*
X143223233Y-89820500D01*
X143208881Y-89855148D01*
X143174233Y-89869500D01*
X143165636Y-89869500D01*
X143089210Y-89889979D01*
X143089208Y-89889979D01*
X143020688Y-89929540D01*
X143020688Y-89929541D01*
X142964741Y-89985488D01*
X142964740Y-89985488D01*
X142925179Y-90054008D01*
X142925179Y-90054010D01*
X142904700Y-90130436D01*
X142904700Y-90209563D01*
X142925179Y-90285989D01*
X142925179Y-90285991D01*
X142957438Y-90341864D01*
X142964740Y-90354511D01*
X143020689Y-90410460D01*
X143044328Y-90424108D01*
X143069711Y-90438763D01*
X143092541Y-90468516D01*
X143087646Y-90505698D01*
X143057893Y-90528528D01*
X143045211Y-90530198D01*
X142852127Y-90530198D01*
X142824904Y-90521940D01*
X142816891Y-90516586D01*
X142809895Y-90511911D01*
X142748495Y-90499698D01*
X142748491Y-90499698D01*
X142507031Y-90499698D01*
X142445628Y-90511911D01*
X142430620Y-90521940D01*
X142419975Y-90529053D01*
X142418261Y-90530198D01*
X142397762Y-90530198D01*
X142397549Y-90544036D01*
X142376180Y-90558315D01*
X142376003Y-90558432D01*
X142375997Y-90558438D01*
X142329473Y-90628067D01*
X142327627Y-90632525D01*
X142325526Y-90631654D01*
X142309287Y-90655946D01*
X142282074Y-90664198D01*
X140863927Y-90664198D01*
X140829279Y-90649846D01*
X140814927Y-90615198D01*
X140814927Y-90557471D01*
X140804719Y-90487402D01*
X140804719Y-90487401D01*
X140751878Y-90379315D01*
X140751877Y-90379314D01*
X140751877Y-90379313D01*
X140666803Y-90294239D01*
X140558714Y-90241397D01*
X140523678Y-90236292D01*
X140488644Y-90231188D01*
X139870211Y-90231188D01*
X139800142Y-90241396D01*
X139800141Y-90241396D01*
X139714949Y-90283045D01*
X139677518Y-90285369D01*
X139649407Y-90260545D01*
X139644428Y-90239024D01*
X139644428Y-89891688D01*
X137554428Y-89891688D01*
X137554428Y-91791688D01*
X139644428Y-91791688D01*
X139644428Y-91444351D01*
X139658780Y-91409703D01*
X139693428Y-91395351D01*
X139714947Y-91400329D01*
X139800142Y-91441979D01*
X139870213Y-91452188D01*
X140488642Y-91452187D01*
X140488644Y-91452187D01*
X140535356Y-91445381D01*
X140558714Y-91441979D01*
X140666803Y-91389137D01*
X140751877Y-91304063D01*
X140804719Y-91195974D01*
X140814928Y-91125903D01*
X140814928Y-91085198D01*
X140829280Y-91050550D01*
X140863928Y-91036198D01*
X142292505Y-91036198D01*
X142297050Y-91038080D01*
X142301872Y-91037102D01*
X142313726Y-91044988D01*
X142327153Y-91050550D01*
X142333134Y-91057807D01*
X142376000Y-91121960D01*
X142376677Y-91122412D01*
X142379785Y-91127023D01*
X142382649Y-91141128D01*
X142388152Y-91154429D01*
X142388146Y-91155162D01*
X142387761Y-91180198D01*
X142387762Y-91180198D01*
X142499691Y-91180198D01*
X142504615Y-91180681D01*
X142504637Y-91180462D01*
X142507017Y-91180695D01*
X142507029Y-91180698D01*
X142748494Y-91180697D01*
X142748495Y-91180696D01*
X142750888Y-91180461D01*
X142750909Y-91180681D01*
X142755828Y-91180198D01*
X144129691Y-91180198D01*
X144134615Y-91180681D01*
X144134637Y-91180462D01*
X144137017Y-91180695D01*
X144137029Y-91180698D01*
X144248762Y-91180697D01*
X144283410Y-91195048D01*
X144297762Y-91229697D01*
X144297762Y-91855698D01*
X144283410Y-91890346D01*
X144248762Y-91904698D01*
X144221668Y-91904698D01*
X144200457Y-91908917D01*
X144181416Y-91912704D01*
X144135768Y-91943204D01*
X144105268Y-91988852D01*
X144105268Y-91988853D01*
X144097262Y-92029104D01*
X144097262Y-92029107D01*
X144097262Y-92171431D01*
X144082910Y-92206079D01*
X144048262Y-92220431D01*
X144013614Y-92206079D01*
X143962273Y-92154738D01*
X143893752Y-92115177D01*
X143817326Y-92094698D01*
X143817324Y-92094698D01*
X143738200Y-92094698D01*
X143738198Y-92094698D01*
X143661772Y-92115177D01*
X143661770Y-92115177D01*
X143593250Y-92154738D01*
X143593250Y-92154739D01*
X143537303Y-92210686D01*
X143537302Y-92210686D01*
X143497741Y-92279206D01*
X143497741Y-92279208D01*
X143477262Y-92355634D01*
X143477262Y-92434761D01*
X143497741Y-92511187D01*
X143497741Y-92511189D01*
X143521678Y-92552648D01*
X143537302Y-92579709D01*
X143572314Y-92614721D01*
X143593250Y-92635657D01*
X143595800Y-92637614D01*
X143595782Y-92637637D01*
X143603204Y-92643333D01*
X143779309Y-92819437D01*
X143838523Y-92878651D01*
X143915891Y-92910698D01*
X144048262Y-92910698D01*
X144082910Y-92925050D01*
X144097262Y-92959698D01*
X144097262Y-93021292D01*
X144105267Y-93061540D01*
X144105268Y-93061543D01*
X144129611Y-93097976D01*
X144136926Y-93134759D01*
X144129611Y-93152420D01*
X144105268Y-93188852D01*
X144105268Y-93188853D01*
X144097262Y-93229104D01*
X144097262Y-93421292D01*
X144101341Y-93441800D01*
X144105268Y-93461543D01*
X144129611Y-93497976D01*
X144136926Y-93534759D01*
X144129611Y-93552420D01*
X144105268Y-93588852D01*
X144103266Y-93598915D01*
X144097262Y-93629104D01*
X144097262Y-93821292D01*
X144103692Y-93853620D01*
X144105268Y-93861543D01*
X144105269Y-93861545D01*
X144106560Y-93863477D01*
X144107012Y-93865754D01*
X144107115Y-93866001D01*
X144107065Y-93866021D01*
X144113875Y-93900259D01*
X144093038Y-93931441D01*
X144065817Y-93939698D01*
X143037171Y-93939698D01*
X143033178Y-93941351D01*
X143031043Y-93942236D01*
X142999614Y-93944295D01*
X142995214Y-93943116D01*
X142995213Y-93943116D01*
X142916089Y-93943116D01*
X142916087Y-93943116D01*
X142839661Y-93963595D01*
X142839659Y-93963595D01*
X142771139Y-94003156D01*
X142771139Y-94003157D01*
X142715192Y-94059104D01*
X142715191Y-94059104D01*
X142675630Y-94127624D01*
X142675630Y-94127626D01*
X142655151Y-94204052D01*
X142655151Y-94283179D01*
X142675630Y-94359605D01*
X142675630Y-94359607D01*
X142709780Y-94418755D01*
X142715191Y-94428127D01*
X142771140Y-94484076D01*
X142839662Y-94523637D01*
X142859229Y-94528880D01*
X142916087Y-94544116D01*
X142916089Y-94544116D01*
X142995215Y-94544116D01*
X143020408Y-94537364D01*
X143059051Y-94527010D01*
X143096231Y-94531904D01*
X143119062Y-94561657D01*
X143119263Y-94562663D01*
X143140441Y-94641697D01*
X143140441Y-94641699D01*
X143175510Y-94702438D01*
X143180002Y-94710219D01*
X143235951Y-94766168D01*
X143262616Y-94781563D01*
X143304469Y-94805727D01*
X143304473Y-94805729D01*
X143338023Y-94814719D01*
X143380898Y-94826208D01*
X143380900Y-94826208D01*
X143460026Y-94826208D01*
X143489029Y-94818436D01*
X143536451Y-94805729D01*
X143536454Y-94805727D01*
X143536455Y-94805727D01*
X143549860Y-94797987D01*
X143554679Y-94795204D01*
X143591861Y-94790308D01*
X143621614Y-94813138D01*
X143626511Y-94850320D01*
X143626510Y-94850321D01*
X143619144Y-94877810D01*
X143619144Y-94956939D01*
X143639623Y-95033365D01*
X143639623Y-95033366D01*
X143639629Y-95033376D01*
X143639629Y-95033381D01*
X143640853Y-95036335D01*
X143640061Y-95036662D01*
X143644524Y-95070558D01*
X143621694Y-95100311D01*
X143597194Y-95106876D01*
X143112971Y-95106876D01*
X143078323Y-95092524D01*
X143065537Y-95079738D01*
X142997016Y-95040177D01*
X142920590Y-95019698D01*
X142920588Y-95019698D01*
X142841464Y-95019698D01*
X142841462Y-95019698D01*
X142765036Y-95040177D01*
X142765034Y-95040177D01*
X142696514Y-95079738D01*
X142696514Y-95079739D01*
X142640567Y-95135686D01*
X142640566Y-95135686D01*
X142601005Y-95204206D01*
X142601005Y-95204208D01*
X142580526Y-95280634D01*
X142580526Y-95359761D01*
X142597697Y-95423843D01*
X142592802Y-95461026D01*
X142563050Y-95483856D01*
X142525867Y-95478961D01*
X142515719Y-95471174D01*
X142242613Y-95198068D01*
X142228261Y-95163420D01*
X142228261Y-94949467D01*
X142228255Y-94949438D01*
X142216049Y-94888065D01*
X142190829Y-94850321D01*
X142169524Y-94818435D01*
X142099895Y-94771911D01*
X142038495Y-94759698D01*
X142038491Y-94759698D01*
X141737031Y-94759698D01*
X141675628Y-94771911D01*
X141605998Y-94818436D01*
X141602587Y-94821848D01*
X141600674Y-94819935D01*
X141577246Y-94835537D01*
X141540475Y-94828163D01*
X141533548Y-94821236D01*
X141532937Y-94821848D01*
X141529525Y-94818436D01*
X141459895Y-94771911D01*
X141398495Y-94759698D01*
X141398491Y-94759698D01*
X141097031Y-94759698D01*
X141035628Y-94771911D01*
X140965999Y-94818435D01*
X140919475Y-94888064D01*
X140919475Y-94888065D01*
X140907262Y-94949465D01*
X140907262Y-94949466D01*
X140907262Y-94949468D01*
X140907262Y-95190928D01*
X140919475Y-95252331D01*
X140933603Y-95273475D01*
X140940919Y-95310258D01*
X140920084Y-95341440D01*
X140892861Y-95349698D01*
X140717262Y-95349698D01*
X140682614Y-95335346D01*
X140668262Y-95300698D01*
X140668262Y-95141477D01*
X140667432Y-95135169D01*
X140661925Y-95093339D01*
X140612668Y-94987707D01*
X140612667Y-94987706D01*
X140612666Y-94987704D01*
X140530255Y-94905293D01*
X140530253Y-94905292D01*
X140493307Y-94888064D01*
X140424621Y-94856035D01*
X140420862Y-94855540D01*
X140407192Y-94847646D01*
X140392614Y-94841608D01*
X140391318Y-94838480D01*
X140388387Y-94836788D01*
X140378262Y-94806960D01*
X140378262Y-94753129D01*
X140384826Y-94728629D01*
X140386227Y-94726201D01*
X140386229Y-94726200D01*
X140430398Y-94649696D01*
X140450649Y-94574119D01*
X140453262Y-94564368D01*
X140453262Y-94476027D01*
X140441830Y-94433364D01*
X140430398Y-94390700D01*
X140386229Y-94314196D01*
X140323764Y-94251731D01*
X140323762Y-94251730D01*
X140323760Y-94251728D01*
X140271034Y-94221288D01*
X140247260Y-94207562D01*
X140247257Y-94207561D01*
X140161933Y-94184698D01*
X140161931Y-94184698D01*
X140073593Y-94184698D01*
X140073591Y-94184698D01*
X139988266Y-94207561D01*
X139988264Y-94207562D01*
X139911763Y-94251728D01*
X139911757Y-94251733D01*
X139849297Y-94314193D01*
X139849292Y-94314199D01*
X139805126Y-94390700D01*
X139805125Y-94390702D01*
X139782262Y-94476027D01*
X139782262Y-94564368D01*
X139784875Y-94574119D01*
X139805126Y-94649696D01*
X139849295Y-94726200D01*
X139849296Y-94726201D01*
X139850698Y-94728629D01*
X139857262Y-94753129D01*
X139857262Y-94806960D01*
X139842910Y-94841608D01*
X139814661Y-94855540D01*
X139810903Y-94856035D01*
X139810901Y-94856035D01*
X139810900Y-94856036D01*
X139705270Y-94905292D01*
X139705268Y-94905293D01*
X139622857Y-94987704D01*
X139622856Y-94987706D01*
X139573600Y-95093336D01*
X139573599Y-95093337D01*
X139572681Y-95100311D01*
X139568093Y-95135166D01*
X139567262Y-95141477D01*
X139567262Y-95978918D01*
X139567261Y-95978918D01*
X139570421Y-96002917D01*
X139573599Y-96027057D01*
X139588049Y-96058046D01*
X139622856Y-96132689D01*
X139622857Y-96132691D01*
X139705268Y-96215102D01*
X139705270Y-96215103D01*
X139705271Y-96215104D01*
X139810903Y-96264361D01*
X139859038Y-96270698D01*
X140298262Y-96270698D01*
X140332910Y-96285050D01*
X140347262Y-96319698D01*
X140347262Y-96360208D01*
X140332910Y-96394856D01*
X140323681Y-96401023D01*
X140324034Y-96401551D01*
X140237160Y-96459596D01*
X140181795Y-96542458D01*
X140167262Y-96615520D01*
X140167262Y-97004875D01*
X140181795Y-97077937D01*
X140237160Y-97160799D01*
X140299518Y-97202464D01*
X140320022Y-97216164D01*
X140393088Y-97230698D01*
X140722436Y-97230698D01*
X140795502Y-97216164D01*
X140878363Y-97160799D01*
X140933728Y-97077938D01*
X140948262Y-97004872D01*
X140948262Y-96615524D01*
X140933728Y-96542458D01*
X140928723Y-96534968D01*
X140878363Y-96459596D01*
X140791490Y-96401551D01*
X140792727Y-96399698D01*
X140771988Y-96378949D01*
X140768262Y-96360208D01*
X140768262Y-95958329D01*
X140768261Y-95958325D01*
X140736215Y-95880959D01*
X140736213Y-95880957D01*
X140736213Y-95880956D01*
X140709603Y-95854346D01*
X140695251Y-95819698D01*
X140709603Y-95785050D01*
X140744251Y-95770698D01*
X140810274Y-95770698D01*
X140844922Y-95785050D01*
X140892910Y-95833038D01*
X140907262Y-95867686D01*
X140907262Y-96010927D01*
X140919475Y-96072331D01*
X140965999Y-96141960D01*
X141004594Y-96167748D01*
X141035629Y-96188485D01*
X141097029Y-96200698D01*
X141398494Y-96200697D01*
X141459895Y-96188485D01*
X141529524Y-96141960D01*
X141529525Y-96141959D01*
X141532937Y-96138548D01*
X141534860Y-96140471D01*
X141558194Y-96124874D01*
X141594978Y-96132184D01*
X141601964Y-96139170D01*
X141602587Y-96138548D01*
X141605998Y-96141959D01*
X141621834Y-96152540D01*
X141675629Y-96188485D01*
X141737029Y-96200698D01*
X141790983Y-96200697D01*
X141825630Y-96215047D01*
X141825632Y-96215049D01*
X142371267Y-96760684D01*
X142385619Y-96795332D01*
X142371267Y-96829980D01*
X142336619Y-96844332D01*
X142327061Y-96843391D01*
X142308495Y-96839698D01*
X142308493Y-96839698D01*
X142007031Y-96839698D01*
X141945628Y-96851911D01*
X141875999Y-96898435D01*
X141829475Y-96968064D01*
X141829196Y-96969466D01*
X141817262Y-97029465D01*
X141817262Y-97029466D01*
X141817262Y-97029468D01*
X141817262Y-97270928D01*
X141829475Y-97332331D01*
X141875999Y-97401960D01*
X141925485Y-97435025D01*
X141946320Y-97466207D01*
X141947262Y-97475767D01*
X141947262Y-97639222D01*
X141932910Y-97673870D01*
X141918971Y-97683631D01*
X141862248Y-97710082D01*
X141780147Y-97792182D01*
X141780146Y-97792184D01*
X141731075Y-97897415D01*
X141730895Y-97898782D01*
X141724763Y-97945368D01*
X141724762Y-97945372D01*
X141724762Y-98535022D01*
X141724763Y-98535027D01*
X141731074Y-98582977D01*
X141757660Y-98639990D01*
X141759296Y-98677457D01*
X141733959Y-98705107D01*
X141713251Y-98709698D01*
X141257273Y-98709698D01*
X141222625Y-98695346D01*
X141208273Y-98660698D01*
X141212864Y-98639990D01*
X141218887Y-98627074D01*
X141239449Y-98582979D01*
X141245762Y-98535027D01*
X141245761Y-97945370D01*
X141239449Y-97897417D01*
X141190378Y-97792185D01*
X141190377Y-97792184D01*
X141190376Y-97792182D01*
X141108277Y-97710083D01*
X141108275Y-97710082D01*
X141003044Y-97661011D01*
X140987160Y-97658920D01*
X140955091Y-97654698D01*
X140955087Y-97654698D01*
X140440437Y-97654698D01*
X140440432Y-97654699D01*
X140392482Y-97661010D01*
X140287248Y-97710082D01*
X140287246Y-97710083D01*
X140205147Y-97792182D01*
X140205146Y-97792184D01*
X140156075Y-97897415D01*
X140155895Y-97898782D01*
X140149762Y-97945369D01*
X140149762Y-98107491D01*
X140149763Y-98220698D01*
X140135411Y-98255346D01*
X140100763Y-98269698D01*
X139933445Y-98269698D01*
X139906223Y-98261440D01*
X139865502Y-98234232D01*
X139865501Y-98234231D01*
X139865500Y-98234231D01*
X139792439Y-98219698D01*
X139792436Y-98219698D01*
X139403088Y-98219698D01*
X139403084Y-98219698D01*
X139330022Y-98234231D01*
X139304267Y-98251440D01*
X139277045Y-98259698D01*
X139097786Y-98259698D01*
X139063138Y-98245346D01*
X139053382Y-98227480D01*
X139052901Y-98227722D01*
X139050145Y-98222217D01*
X139046178Y-98217639D01*
X139007528Y-98173033D01*
X139007525Y-98173032D01*
X138945088Y-98154698D01*
X138945084Y-98154698D01*
X138694373Y-98154698D01*
X138689607Y-98155210D01*
X138669823Y-98157337D01*
X138669822Y-98157338D01*
X138612703Y-98188526D01*
X138612701Y-98188527D01*
X138403410Y-98397818D01*
X138387920Y-98417039D01*
X138387917Y-98417046D01*
X138369584Y-98479482D01*
X138369584Y-98580199D01*
X138380021Y-98628176D01*
X138380022Y-98628178D01*
X138422640Y-98677363D01*
X138457384Y-98687564D01*
X138485079Y-98695697D01*
X138485082Y-98695697D01*
X138485084Y-98695698D01*
X138485085Y-98695698D01*
X138945081Y-98695698D01*
X138945084Y-98695698D01*
X138991051Y-98685698D01*
X138999078Y-98683952D01*
X138999122Y-98684156D01*
X139013757Y-98680698D01*
X139128262Y-98680698D01*
X139162910Y-98695050D01*
X139177262Y-98729698D01*
X139177262Y-98774875D01*
X139186664Y-98822138D01*
X139179348Y-98858920D01*
X139148166Y-98879756D01*
X139138606Y-98880698D01*
X136618572Y-98880698D01*
X136583924Y-98866346D01*
X136060527Y-98342948D01*
X136051172Y-98339073D01*
X136001635Y-98318553D01*
X135983356Y-98305372D01*
X135982129Y-98303956D01*
X135952044Y-98269235D01*
X135952041Y-98269234D01*
X135889604Y-98250900D01*
X135889600Y-98250900D01*
X135638889Y-98250900D01*
X135634123Y-98251412D01*
X135614339Y-98253539D01*
X135614338Y-98253540D01*
X135557219Y-98284728D01*
X135557217Y-98284729D01*
X135347926Y-98494020D01*
X135332436Y-98513241D01*
X135332433Y-98513248D01*
X135314100Y-98575684D01*
X135314100Y-98676401D01*
X135324537Y-98724378D01*
X135324538Y-98724380D01*
X135367156Y-98773565D01*
X135390438Y-98780401D01*
X135429595Y-98791899D01*
X135429598Y-98791899D01*
X135429600Y-98791900D01*
X135429601Y-98791900D01*
X135892227Y-98791900D01*
X135892227Y-98793155D01*
X135924376Y-98802582D01*
X135928293Y-98806099D01*
X136332631Y-99210437D01*
X136391845Y-99269651D01*
X136469213Y-99301698D01*
X136505241Y-99301698D01*
X136539889Y-99316050D01*
X136554241Y-99350698D01*
X136553300Y-99360256D01*
X136550184Y-99375923D01*
X136550184Y-99617385D01*
X136562397Y-99678788D01*
X136592124Y-99723277D01*
X136599440Y-99760059D01*
X136578605Y-99791242D01*
X136551382Y-99799500D01*
X133749500Y-99799500D01*
X133714852Y-99785148D01*
X133700500Y-99750500D01*
X133700500Y-98868036D01*
X133913100Y-98868036D01*
X133913100Y-98947163D01*
X133933579Y-99023589D01*
X133933579Y-99023591D01*
X133957884Y-99065687D01*
X133973140Y-99092111D01*
X134029089Y-99148060D01*
X134077464Y-99175989D01*
X134094510Y-99185831D01*
X134097611Y-99187621D01*
X134122541Y-99194301D01*
X134174036Y-99208100D01*
X134174038Y-99208100D01*
X134253164Y-99208100D01*
X134279830Y-99200954D01*
X134329589Y-99187621D01*
X134395890Y-99149341D01*
X134433071Y-99144446D01*
X134455037Y-99157129D01*
X134642030Y-99344122D01*
X134656382Y-99378769D01*
X134656382Y-99415402D01*
X134656383Y-99415405D01*
X134661934Y-99443313D01*
X134668595Y-99476806D01*
X134715119Y-99546435D01*
X134743651Y-99565499D01*
X134784749Y-99592960D01*
X134846149Y-99605173D01*
X135147614Y-99605172D01*
X135209015Y-99592960D01*
X135278644Y-99546435D01*
X135325169Y-99476806D01*
X135337382Y-99415406D01*
X135337381Y-99173941D01*
X135325169Y-99112540D01*
X135302299Y-99078313D01*
X135278644Y-99042910D01*
X135209015Y-98996386D01*
X135205360Y-98995659D01*
X135147615Y-98984173D01*
X135147612Y-98984173D01*
X134897761Y-98984173D01*
X134863113Y-98969821D01*
X134790640Y-98897348D01*
X134776288Y-98862700D01*
X134790640Y-98828052D01*
X134812440Y-98806252D01*
X134847088Y-98791900D01*
X135029597Y-98791900D01*
X135029600Y-98791900D01*
X135077580Y-98781462D01*
X135126765Y-98738844D01*
X135140902Y-98690698D01*
X135145100Y-98676402D01*
X135145100Y-98575690D01*
X135142460Y-98551139D01*
X135142460Y-98551138D01*
X135111271Y-98494018D01*
X134901982Y-98284729D01*
X134901981Y-98284728D01*
X134901979Y-98284726D01*
X134882758Y-98269236D01*
X134882751Y-98269233D01*
X134820315Y-98250900D01*
X134820311Y-98250900D01*
X134569600Y-98250900D01*
X134569598Y-98250900D01*
X134521621Y-98261337D01*
X134521619Y-98261338D01*
X134472436Y-98303955D01*
X134472434Y-98303958D01*
X134454100Y-98366395D01*
X134454100Y-98548911D01*
X134439748Y-98583559D01*
X134398106Y-98625201D01*
X134363458Y-98639553D01*
X134338960Y-98632989D01*
X134329589Y-98627579D01*
X134329586Y-98627578D01*
X134253164Y-98607100D01*
X134253162Y-98607100D01*
X134174038Y-98607100D01*
X134174036Y-98607100D01*
X134097610Y-98627579D01*
X134097608Y-98627579D01*
X134029088Y-98667140D01*
X134029088Y-98667141D01*
X133973141Y-98723088D01*
X133973140Y-98723088D01*
X133933579Y-98791608D01*
X133933579Y-98791610D01*
X133913100Y-98868036D01*
X133700500Y-98868036D01*
X133700500Y-97002389D01*
X133701389Y-96964882D01*
X133700500Y-96962583D01*
X133700500Y-96960118D01*
X133700500Y-96958464D01*
X133700000Y-96952673D01*
X133700000Y-94447119D01*
X134152718Y-94447119D01*
X134152718Y-94528880D01*
X134173877Y-94607846D01*
X134173878Y-94607850D01*
X134214756Y-94678651D01*
X134216712Y-94681200D01*
X134215208Y-94682353D01*
X134227262Y-94711453D01*
X134227262Y-97521461D01*
X134236642Y-97544105D01*
X134255503Y-97589639D01*
X134255504Y-97589640D01*
X134255504Y-97589641D01*
X134439748Y-97773884D01*
X134454100Y-97808532D01*
X134454100Y-98026401D01*
X134464537Y-98074378D01*
X134464538Y-98074380D01*
X134507156Y-98123565D01*
X134541900Y-98133766D01*
X134569595Y-98141899D01*
X134569598Y-98141899D01*
X134569600Y-98141900D01*
X134569601Y-98141900D01*
X134820309Y-98141900D01*
X134820311Y-98141900D01*
X134844862Y-98139260D01*
X134901982Y-98108071D01*
X135111271Y-97898782D01*
X135125227Y-97881464D01*
X135126763Y-97879558D01*
X135126763Y-97879556D01*
X135126765Y-97879555D01*
X135140204Y-97833785D01*
X135145099Y-97817115D01*
X135145100Y-97817110D01*
X135145100Y-97808532D01*
X135159452Y-97773884D01*
X135222702Y-97710634D01*
X136177262Y-97710634D01*
X136177262Y-97789761D01*
X136197741Y-97866187D01*
X136197741Y-97866189D01*
X136237302Y-97934709D01*
X136255136Y-97952543D01*
X136265758Y-97968439D01*
X136269792Y-97978178D01*
X136299309Y-98049437D01*
X136299310Y-98049438D01*
X136299310Y-98049439D01*
X136692910Y-98443038D01*
X136707262Y-98477685D01*
X136707262Y-98530927D01*
X136719475Y-98592331D01*
X136765999Y-98661960D01*
X136808165Y-98690134D01*
X136835629Y-98708485D01*
X136897029Y-98720698D01*
X137138494Y-98720697D01*
X137199895Y-98708485D01*
X137269524Y-98661960D01*
X137302589Y-98612474D01*
X137333771Y-98591640D01*
X137343331Y-98590698D01*
X137472382Y-98590698D01*
X137507030Y-98605050D01*
X137516785Y-98622915D01*
X137517267Y-98622674D01*
X137520022Y-98628178D01*
X137562640Y-98677363D01*
X137597384Y-98687564D01*
X137625079Y-98695697D01*
X137625082Y-98695697D01*
X137625084Y-98695698D01*
X137625085Y-98695698D01*
X138085081Y-98695698D01*
X138085084Y-98695698D01*
X138133064Y-98685260D01*
X138182249Y-98642642D01*
X138199767Y-98582980D01*
X138200583Y-98580202D01*
X138200584Y-98580197D01*
X138200584Y-98479488D01*
X138197944Y-98454937D01*
X138197944Y-98454936D01*
X138166755Y-98397816D01*
X137957466Y-98188527D01*
X137957465Y-98188526D01*
X137957463Y-98188524D01*
X137938242Y-98173034D01*
X137938235Y-98173031D01*
X137875799Y-98154698D01*
X137875795Y-98154698D01*
X137625084Y-98154698D01*
X137625082Y-98154698D01*
X137571090Y-98166444D01*
X137571045Y-98166239D01*
X137556411Y-98169698D01*
X137343331Y-98169698D01*
X137308683Y-98155346D01*
X137302589Y-98147921D01*
X137269524Y-98098435D01*
X137199895Y-98051911D01*
X137187457Y-98049437D01*
X137138495Y-98039698D01*
X137138492Y-98039698D01*
X136905250Y-98039698D01*
X136870602Y-98025346D01*
X136767361Y-97922105D01*
X136753009Y-97887457D01*
X136756742Y-97868698D01*
X136757779Y-97866193D01*
X136757783Y-97866187D01*
X136777612Y-97792185D01*
X136778262Y-97789761D01*
X136778262Y-97710634D01*
X136765177Y-97661805D01*
X136757783Y-97634209D01*
X136757782Y-97634207D01*
X136757782Y-97634206D01*
X136721993Y-97572219D01*
X136718222Y-97565687D01*
X136662273Y-97509738D01*
X136660919Y-97508956D01*
X136593752Y-97470177D01*
X136517326Y-97449698D01*
X136517324Y-97449698D01*
X136438200Y-97449698D01*
X136438198Y-97449698D01*
X136361772Y-97470177D01*
X136361770Y-97470177D01*
X136293250Y-97509738D01*
X136293250Y-97509739D01*
X136237303Y-97565686D01*
X136237302Y-97565686D01*
X136197741Y-97634206D01*
X136197741Y-97634208D01*
X136177262Y-97710634D01*
X135222702Y-97710634D01*
X135598286Y-97335050D01*
X135632934Y-97320698D01*
X137038066Y-97320698D01*
X137072714Y-97335050D01*
X137495232Y-97757568D01*
X137509584Y-97792216D01*
X137509584Y-97930199D01*
X137520021Y-97978176D01*
X137520022Y-97978178D01*
X137562640Y-98027363D01*
X137597384Y-98037564D01*
X137625079Y-98045697D01*
X137625082Y-98045697D01*
X137625084Y-98045698D01*
X137625085Y-98045698D01*
X137875793Y-98045698D01*
X137875795Y-98045698D01*
X137900346Y-98043058D01*
X137957466Y-98011869D01*
X138166755Y-97802580D01*
X138182249Y-97783353D01*
X138195950Y-97736691D01*
X138200583Y-97720913D01*
X138200584Y-97720908D01*
X138200584Y-97620201D01*
X138200584Y-97620198D01*
X138190146Y-97572218D01*
X138147528Y-97523033D01*
X138147525Y-97523032D01*
X138085088Y-97504698D01*
X138085084Y-97504698D01*
X137787330Y-97504698D01*
X137752682Y-97490346D01*
X137567462Y-97305126D01*
X137553110Y-97270478D01*
X137567462Y-97235830D01*
X137602110Y-97221478D01*
X137788200Y-97221478D01*
X137861266Y-97206944D01*
X137944127Y-97151579D01*
X137999492Y-97068718D01*
X138014026Y-96995652D01*
X138014026Y-96606304D01*
X138013236Y-96602330D01*
X137998900Y-96530257D01*
X138006216Y-96493475D01*
X138037399Y-96472640D01*
X138046958Y-96471698D01*
X138409453Y-96471698D01*
X138409455Y-96471698D01*
X138468446Y-96447263D01*
X138468448Y-96447261D01*
X138468449Y-96447261D01*
X138723825Y-96191885D01*
X138723825Y-96191884D01*
X138723827Y-96191882D01*
X138748262Y-96132891D01*
X138748262Y-96069041D01*
X138748262Y-95786516D01*
X138762614Y-95751868D01*
X138797262Y-95737516D01*
X138821759Y-95744080D01*
X138855190Y-95763381D01*
X138879805Y-95777593D01*
X138884011Y-95780021D01*
X138919478Y-95789524D01*
X138960436Y-95800500D01*
X138960438Y-95800500D01*
X139039564Y-95800500D01*
X139066230Y-95793354D01*
X139115989Y-95780021D01*
X139120195Y-95777593D01*
X139144810Y-95763381D01*
X139184511Y-95740460D01*
X139240460Y-95684511D01*
X139280021Y-95615989D01*
X139300500Y-95539562D01*
X139300500Y-95460438D01*
X139300500Y-95460436D01*
X139290011Y-95421292D01*
X139280021Y-95384011D01*
X139280020Y-95384009D01*
X139280020Y-95384008D01*
X139240459Y-95315488D01*
X139184511Y-95259540D01*
X139115990Y-95219979D01*
X139039564Y-95199500D01*
X139039562Y-95199500D01*
X138960438Y-95199500D01*
X138960436Y-95199500D01*
X138884010Y-95219979D01*
X138884008Y-95219979D01*
X138821762Y-95255918D01*
X138784580Y-95260813D01*
X138754827Y-95237983D01*
X138748262Y-95213483D01*
X138748262Y-94988275D01*
X138748261Y-94988271D01*
X138723827Y-94929282D01*
X138678678Y-94884133D01*
X138566456Y-94771911D01*
X138448680Y-94654134D01*
X138437956Y-94649692D01*
X138418655Y-94641697D01*
X138389688Y-94629698D01*
X138389687Y-94629698D01*
X138044539Y-94629698D01*
X138009891Y-94615346D01*
X137884720Y-94490175D01*
X137870368Y-94455527D01*
X137884720Y-94420879D01*
X137900616Y-94410257D01*
X137904890Y-94408485D01*
X137904895Y-94408485D01*
X137974524Y-94361960D01*
X138021049Y-94292331D01*
X138033262Y-94230931D01*
X138033261Y-93989466D01*
X138021049Y-93928065D01*
X138004986Y-93904025D01*
X137974524Y-93858435D01*
X137904895Y-93811911D01*
X137901858Y-93811307D01*
X137843495Y-93799698D01*
X137843491Y-93799698D01*
X137542031Y-93799698D01*
X137480628Y-93811911D01*
X137410999Y-93858435D01*
X137364475Y-93928064D01*
X137362859Y-93936187D01*
X137352262Y-93989465D01*
X137352262Y-93989466D01*
X137352262Y-93989468D01*
X137352262Y-94230928D01*
X137364475Y-94292331D01*
X137410999Y-94361960D01*
X137426642Y-94372412D01*
X137480629Y-94408485D01*
X137492820Y-94410909D01*
X137524003Y-94431743D01*
X137532262Y-94458968D01*
X137532262Y-94557124D01*
X137536597Y-94567588D01*
X137556697Y-94616114D01*
X137556698Y-94616115D01*
X137556699Y-94616117D01*
X137600939Y-94660357D01*
X137615291Y-94695005D01*
X137600939Y-94729653D01*
X137566291Y-94744005D01*
X137547539Y-94740275D01*
X137449580Y-94699698D01*
X137449579Y-94699698D01*
X135741500Y-94699698D01*
X135706852Y-94685346D01*
X135692500Y-94650698D01*
X135692500Y-94574119D01*
X135676630Y-94514894D01*
X135671340Y-94495152D01*
X135671339Y-94495151D01*
X135671339Y-94495149D01*
X135630461Y-94424348D01*
X135572651Y-94366538D01*
X135501850Y-94325660D01*
X135501846Y-94325659D01*
X135422881Y-94304500D01*
X135422878Y-94304500D01*
X135341122Y-94304500D01*
X135341119Y-94304500D01*
X135262153Y-94325659D01*
X135262149Y-94325660D01*
X135191348Y-94366538D01*
X135191348Y-94366539D01*
X135133539Y-94424348D01*
X135133538Y-94424348D01*
X135092660Y-94495149D01*
X135092659Y-94495153D01*
X135071500Y-94574119D01*
X135071500Y-94607512D01*
X135057148Y-94642160D01*
X134978523Y-94720785D01*
X134962849Y-94736459D01*
X134919309Y-94779998D01*
X134887262Y-94857365D01*
X134887262Y-95563251D01*
X134883532Y-95582002D01*
X134862263Y-95633350D01*
X134862262Y-95633356D01*
X134862262Y-95727043D01*
X134867820Y-95740460D01*
X134898115Y-95813598D01*
X134898116Y-95813599D01*
X134898117Y-95813601D01*
X134964359Y-95879843D01*
X134964360Y-95879843D01*
X134964362Y-95879845D01*
X135050918Y-95915698D01*
X135050920Y-95915698D01*
X135144604Y-95915698D01*
X135144606Y-95915698D01*
X135203503Y-95891302D01*
X135241004Y-95891302D01*
X135267523Y-95917820D01*
X135267523Y-95955323D01*
X135237263Y-96028377D01*
X135237262Y-96028383D01*
X135237262Y-96492016D01*
X135252563Y-96528955D01*
X135276921Y-96587759D01*
X135276922Y-96587760D01*
X135276922Y-96587761D01*
X135387137Y-96697975D01*
X135496921Y-96807759D01*
X135527597Y-96838435D01*
X135555212Y-96866050D01*
X135569563Y-96900698D01*
X135555211Y-96935347D01*
X135520563Y-96949698D01*
X135498902Y-96949698D01*
X135444783Y-96972116D01*
X135439955Y-96974116D01*
X135430723Y-96977940D01*
X135430721Y-96977941D01*
X134834247Y-97574415D01*
X134799599Y-97588767D01*
X134764951Y-97574415D01*
X134612614Y-97422078D01*
X134598262Y-97387430D01*
X134598262Y-94796856D01*
X134612614Y-94762208D01*
X134622759Y-94754422D01*
X134653869Y-94736462D01*
X134711680Y-94678651D01*
X134752558Y-94607848D01*
X134764203Y-94564388D01*
X134773718Y-94528880D01*
X134773718Y-94447119D01*
X134752559Y-94368156D01*
X134752557Y-94368150D01*
X134741582Y-94349141D01*
X134719425Y-94310764D01*
X134716595Y-94305024D01*
X134716378Y-94304500D01*
X134711259Y-94292141D01*
X134711258Y-94292140D01*
X134711257Y-94292138D01*
X134663070Y-94243951D01*
X134648718Y-94209303D01*
X134648718Y-94085499D01*
X134663070Y-94050851D01*
X134697718Y-94036499D01*
X134704730Y-94036499D01*
X134704732Y-94036499D01*
X134766133Y-94024287D01*
X134835762Y-93977762D01*
X134882287Y-93908133D01*
X134894500Y-93846733D01*
X134894499Y-93605268D01*
X134882287Y-93543867D01*
X134875718Y-93534036D01*
X135437100Y-93534036D01*
X135437100Y-93613163D01*
X135457579Y-93689589D01*
X135457579Y-93689591D01*
X135479570Y-93727679D01*
X135497140Y-93758111D01*
X135553089Y-93814060D01*
X135586102Y-93833120D01*
X135609680Y-93846733D01*
X135621611Y-93853621D01*
X135651161Y-93861539D01*
X135698036Y-93874100D01*
X135698038Y-93874100D01*
X135777164Y-93874100D01*
X135803830Y-93866954D01*
X135853589Y-93853621D01*
X135922111Y-93814060D01*
X135978060Y-93758111D01*
X136017621Y-93689589D01*
X136038100Y-93613162D01*
X136038100Y-93534038D01*
X136038100Y-93534036D01*
X136023812Y-93480716D01*
X136023812Y-93480715D01*
X136021274Y-93471243D01*
X138324733Y-93471243D01*
X138324733Y-93550370D01*
X138345212Y-93626796D01*
X138345212Y-93626798D01*
X138384773Y-93695318D01*
X138440722Y-93751267D01*
X138509244Y-93790828D01*
X138540298Y-93799149D01*
X138585669Y-93811307D01*
X138585671Y-93811307D01*
X138664797Y-93811307D01*
X138697431Y-93802562D01*
X138741222Y-93790828D01*
X138809744Y-93751267D01*
X138865693Y-93695318D01*
X138903920Y-93629107D01*
X138905253Y-93626798D01*
X138905253Y-93626797D01*
X138905254Y-93626796D01*
X138925183Y-93552421D01*
X138925733Y-93550370D01*
X138925733Y-93471243D01*
X138912348Y-93421292D01*
X138905254Y-93394818D01*
X138905253Y-93394816D01*
X138905253Y-93394815D01*
X138879667Y-93350500D01*
X138865693Y-93326296D01*
X138809744Y-93270347D01*
X138787255Y-93257363D01*
X138741223Y-93230786D01*
X138664797Y-93210307D01*
X138664795Y-93210307D01*
X138585671Y-93210307D01*
X138585669Y-93210307D01*
X138509243Y-93230786D01*
X138509241Y-93230786D01*
X138440721Y-93270347D01*
X138440721Y-93270348D01*
X138384774Y-93326295D01*
X138384773Y-93326295D01*
X138345212Y-93394815D01*
X138345212Y-93394817D01*
X138324733Y-93471243D01*
X136021274Y-93471243D01*
X136019270Y-93463765D01*
X136017621Y-93457611D01*
X136017620Y-93457610D01*
X136017620Y-93457608D01*
X135982158Y-93396187D01*
X135978060Y-93389089D01*
X135922111Y-93333140D01*
X135898936Y-93319760D01*
X135853590Y-93293579D01*
X135777164Y-93273100D01*
X135777162Y-93273100D01*
X135698038Y-93273100D01*
X135698036Y-93273100D01*
X135621610Y-93293579D01*
X135621608Y-93293579D01*
X135553088Y-93333140D01*
X135553088Y-93333141D01*
X135497141Y-93389088D01*
X135497140Y-93389088D01*
X135457579Y-93457608D01*
X135457579Y-93457610D01*
X135437100Y-93534036D01*
X134875718Y-93534036D01*
X134861440Y-93512668D01*
X134835762Y-93474237D01*
X134766133Y-93427713D01*
X134764801Y-93427448D01*
X134704733Y-93415500D01*
X134704729Y-93415500D01*
X134403269Y-93415500D01*
X134341866Y-93427713D01*
X134272237Y-93474237D01*
X134225713Y-93543866D01*
X134223754Y-93553717D01*
X134213500Y-93605267D01*
X134213500Y-93605268D01*
X134213500Y-93605270D01*
X134213500Y-93846730D01*
X134216447Y-93861545D01*
X134225713Y-93908133D01*
X134262384Y-93963015D01*
X134269460Y-93973604D01*
X134277718Y-94000827D01*
X134277718Y-94214091D01*
X134263366Y-94248739D01*
X134214757Y-94297348D01*
X134214756Y-94297348D01*
X134173878Y-94368149D01*
X134173877Y-94368153D01*
X134152718Y-94447119D01*
X133700000Y-94447119D01*
X133700000Y-92443738D01*
X135317810Y-92443738D01*
X135317810Y-92443740D01*
X135317810Y-92443741D01*
X135317810Y-92685201D01*
X135330023Y-92746604D01*
X135376547Y-92816233D01*
X135408557Y-92837621D01*
X135446177Y-92862758D01*
X135507577Y-92874971D01*
X135809042Y-92874970D01*
X135870443Y-92862758D01*
X135940072Y-92816233D01*
X135957683Y-92789877D01*
X135961856Y-92787088D01*
X135963777Y-92782452D01*
X135976982Y-92776981D01*
X135988866Y-92769042D01*
X135998425Y-92768100D01*
X136010833Y-92768100D01*
X136045481Y-92782452D01*
X136061089Y-92798060D01*
X136129611Y-92837621D01*
X136165078Y-92847124D01*
X136206036Y-92858100D01*
X136206038Y-92858100D01*
X136285164Y-92858100D01*
X136311830Y-92850954D01*
X136361589Y-92837621D01*
X136430111Y-92798060D01*
X136486060Y-92742111D01*
X136520320Y-92682770D01*
X136525620Y-92673591D01*
X136525620Y-92673590D01*
X136525621Y-92673589D01*
X136546100Y-92597162D01*
X136546100Y-92518038D01*
X136546100Y-92518036D01*
X136535054Y-92476814D01*
X136525621Y-92441611D01*
X136525620Y-92441609D01*
X136525620Y-92441608D01*
X136493063Y-92385219D01*
X136486060Y-92373089D01*
X136430111Y-92317140D01*
X136412879Y-92307191D01*
X136361590Y-92277579D01*
X136285164Y-92257100D01*
X136285162Y-92257100D01*
X136206038Y-92257100D01*
X136206036Y-92257100D01*
X136129610Y-92277579D01*
X136129608Y-92277579D01*
X136061088Y-92317140D01*
X136061088Y-92317141D01*
X136045481Y-92332748D01*
X136010833Y-92347100D01*
X135989242Y-92347100D01*
X135954594Y-92332748D01*
X135948503Y-92325327D01*
X135940072Y-92312709D01*
X135940071Y-92312708D01*
X135940069Y-92312706D01*
X135870443Y-92266184D01*
X135866064Y-92265313D01*
X135809043Y-92253971D01*
X135809039Y-92253971D01*
X135507579Y-92253971D01*
X135446176Y-92266184D01*
X135376547Y-92312708D01*
X135330023Y-92382337D01*
X135327718Y-92393928D01*
X135317810Y-92443738D01*
X133700000Y-92443738D01*
X133700000Y-91400436D01*
X134167100Y-91400436D01*
X134167100Y-91479563D01*
X134187579Y-91555989D01*
X134187579Y-91555991D01*
X134225739Y-91622084D01*
X134227140Y-91624511D01*
X134283089Y-91680460D01*
X134294883Y-91687269D01*
X134341878Y-91714402D01*
X134351611Y-91720021D01*
X134387078Y-91729524D01*
X134428036Y-91740500D01*
X134428038Y-91740500D01*
X134507164Y-91740500D01*
X134533830Y-91733354D01*
X134583589Y-91720021D01*
X134652111Y-91680460D01*
X134708060Y-91624511D01*
X134747621Y-91555989D01*
X134749316Y-91549659D01*
X134772144Y-91519906D01*
X134809325Y-91515008D01*
X134839080Y-91537836D01*
X134843977Y-91549656D01*
X134855743Y-91593563D01*
X134855743Y-91593565D01*
X134888041Y-91649505D01*
X134896621Y-91664366D01*
X134954432Y-91722177D01*
X134980346Y-91737138D01*
X135025232Y-91763054D01*
X135025234Y-91763054D01*
X135025235Y-91763055D01*
X135035099Y-91765698D01*
X135104202Y-91784215D01*
X135104205Y-91784215D01*
X135185963Y-91784215D01*
X135228469Y-91772825D01*
X135264931Y-91763055D01*
X135335734Y-91722177D01*
X135393545Y-91664366D01*
X135410340Y-91635276D01*
X136345802Y-91635276D01*
X136345802Y-91714403D01*
X136366281Y-91790829D01*
X136366281Y-91790831D01*
X136396411Y-91843016D01*
X136405842Y-91859351D01*
X136461791Y-91915300D01*
X136493396Y-91933547D01*
X136527354Y-91953153D01*
X136530313Y-91954861D01*
X136561382Y-91963186D01*
X136606738Y-91975340D01*
X136606740Y-91975340D01*
X136685866Y-91975340D01*
X136712532Y-91968194D01*
X136762291Y-91954861D01*
X136765250Y-91953153D01*
X136782480Y-91943205D01*
X136830813Y-91915300D01*
X136886762Y-91859351D01*
X136923512Y-91795698D01*
X136926322Y-91790831D01*
X136926322Y-91790830D01*
X136926323Y-91790829D01*
X136944719Y-91722176D01*
X136946802Y-91714403D01*
X136946802Y-91635276D01*
X136937673Y-91601208D01*
X136926323Y-91558851D01*
X136926322Y-91558849D01*
X136926322Y-91558848D01*
X136895056Y-91504695D01*
X136886762Y-91490329D01*
X136830813Y-91434380D01*
X136822712Y-91429703D01*
X136762292Y-91394819D01*
X136685866Y-91374340D01*
X136685864Y-91374340D01*
X136606740Y-91374340D01*
X136606738Y-91374340D01*
X136530312Y-91394819D01*
X136530310Y-91394819D01*
X136461790Y-91434380D01*
X136461790Y-91434381D01*
X136405843Y-91490328D01*
X136405842Y-91490328D01*
X136366281Y-91558848D01*
X136366281Y-91558850D01*
X136345802Y-91635276D01*
X135410340Y-91635276D01*
X135434423Y-91593563D01*
X135451094Y-91531346D01*
X135455583Y-91514595D01*
X135455583Y-91432834D01*
X135438529Y-91369190D01*
X135434423Y-91353867D01*
X135434422Y-91353866D01*
X135434422Y-91353864D01*
X135405406Y-91303608D01*
X135393545Y-91283064D01*
X135335734Y-91225253D01*
X135321767Y-91217189D01*
X135264933Y-91184375D01*
X135264929Y-91184374D01*
X135185964Y-91163215D01*
X135185961Y-91163215D01*
X135104205Y-91163215D01*
X135104202Y-91163215D01*
X135025236Y-91184374D01*
X135025232Y-91184375D01*
X134954431Y-91225253D01*
X134954431Y-91225254D01*
X134896622Y-91283063D01*
X134896621Y-91283063D01*
X134855743Y-91353864D01*
X134853012Y-91364059D01*
X134830181Y-91393811D01*
X134792998Y-91398705D01*
X134763246Y-91375874D01*
X134758352Y-91364058D01*
X134752310Y-91341512D01*
X134747621Y-91324011D01*
X134747620Y-91324009D01*
X134747620Y-91324008D01*
X134710891Y-91260393D01*
X134708060Y-91255489D01*
X134652111Y-91199540D01*
X134651354Y-91199103D01*
X134583590Y-91159979D01*
X134507164Y-91139500D01*
X134507162Y-91139500D01*
X134428038Y-91139500D01*
X134428036Y-91139500D01*
X134351610Y-91159979D01*
X134351608Y-91159979D01*
X134283088Y-91199540D01*
X134283088Y-91199541D01*
X134227141Y-91255488D01*
X134227140Y-91255488D01*
X134187579Y-91324008D01*
X134187579Y-91324010D01*
X134167100Y-91400436D01*
X133700000Y-91400436D01*
X133700000Y-91047320D01*
X133700723Y-91038934D01*
X133700863Y-91038128D01*
X133701085Y-91036935D01*
X133701202Y-91036344D01*
X133701230Y-91036030D01*
X133701389Y-91035116D01*
X133700514Y-90998201D01*
X133700500Y-90997039D01*
X133700500Y-90892436D01*
X136402300Y-90892436D01*
X136402300Y-90971563D01*
X136422779Y-91047989D01*
X136422779Y-91047991D01*
X136457877Y-91108781D01*
X136462340Y-91116511D01*
X136518289Y-91172460D01*
X136586811Y-91212021D01*
X136613633Y-91219208D01*
X136663236Y-91232500D01*
X136663238Y-91232500D01*
X136742364Y-91232500D01*
X136769408Y-91225253D01*
X136818789Y-91212021D01*
X136887311Y-91172460D01*
X136943260Y-91116511D01*
X136980314Y-91052331D01*
X136982820Y-91047991D01*
X136982820Y-91047990D01*
X136982821Y-91047989D01*
X137003300Y-90971562D01*
X137003300Y-90892438D01*
X137003300Y-90892436D01*
X136989168Y-90839698D01*
X136982821Y-90816011D01*
X136982820Y-90816009D01*
X136982820Y-90816008D01*
X136957197Y-90771629D01*
X136943260Y-90747489D01*
X136887311Y-90691540D01*
X136884327Y-90689817D01*
X136818790Y-90651979D01*
X136742364Y-90631500D01*
X136742362Y-90631500D01*
X136663238Y-90631500D01*
X136663236Y-90631500D01*
X136586810Y-90651979D01*
X136586808Y-90651979D01*
X136518288Y-90691540D01*
X136518288Y-90691541D01*
X136462341Y-90747488D01*
X136462340Y-90747488D01*
X136422779Y-90816008D01*
X136422779Y-90816010D01*
X136402300Y-90892436D01*
X133700500Y-90892436D01*
X133700500Y-88249500D01*
X133714852Y-88214852D01*
X133749500Y-88200500D01*
X140338463Y-88200500D01*
X140351667Y-88205969D01*
G37*
%TD.AperFunction*%
%TA.AperFunction,Conductor*%
G36*
X143394922Y-99145050D02*
G01*
X143402910Y-99153038D01*
X143417262Y-99187686D01*
X143417262Y-99255388D01*
X143402910Y-99290036D01*
X143380948Y-99302717D01*
X143371777Y-99305175D01*
X143371770Y-99305177D01*
X143303250Y-99344738D01*
X143303250Y-99344739D01*
X143247303Y-99400686D01*
X143247302Y-99400686D01*
X143207741Y-99469206D01*
X143207741Y-99469208D01*
X143187262Y-99545634D01*
X143187262Y-99624761D01*
X143207740Y-99701186D01*
X143207741Y-99701187D01*
X143222067Y-99726000D01*
X143226963Y-99763181D01*
X143204133Y-99792935D01*
X143179632Y-99799500D01*
X142785892Y-99799500D01*
X142751244Y-99785148D01*
X142736892Y-99750500D01*
X142743456Y-99726001D01*
X142757783Y-99701187D01*
X142771892Y-99648533D01*
X142778262Y-99624761D01*
X142778262Y-99545634D01*
X142765623Y-99498468D01*
X142757783Y-99469209D01*
X142757782Y-99469207D01*
X142757782Y-99469206D01*
X142728323Y-99418182D01*
X142718222Y-99400687D01*
X142662273Y-99344738D01*
X142654101Y-99340020D01*
X142593752Y-99305177D01*
X142517326Y-99284698D01*
X142517324Y-99284698D01*
X142438200Y-99284698D01*
X142438198Y-99284698D01*
X142361772Y-99305177D01*
X142361770Y-99305177D01*
X142293250Y-99344738D01*
X142293250Y-99344739D01*
X142262410Y-99375579D01*
X142227762Y-99389931D01*
X142193114Y-99375579D01*
X142162273Y-99344738D01*
X142093752Y-99305177D01*
X142017326Y-99284698D01*
X142017324Y-99284698D01*
X141938200Y-99284698D01*
X141938198Y-99284698D01*
X141861772Y-99305177D01*
X141861770Y-99305177D01*
X141793250Y-99344738D01*
X141793250Y-99344739D01*
X141747410Y-99390579D01*
X141712762Y-99404931D01*
X141678114Y-99390579D01*
X141632273Y-99344738D01*
X141563752Y-99305177D01*
X141487326Y-99284698D01*
X141487324Y-99284698D01*
X141408200Y-99284698D01*
X141408198Y-99284698D01*
X141331772Y-99305177D01*
X141331770Y-99305177D01*
X141263250Y-99344738D01*
X141263250Y-99344739D01*
X141207303Y-99400686D01*
X141207302Y-99400686D01*
X141167741Y-99469206D01*
X141167741Y-99469208D01*
X141147262Y-99545634D01*
X141147262Y-99624761D01*
X141167740Y-99701186D01*
X141167741Y-99701187D01*
X141182067Y-99726000D01*
X141186963Y-99763181D01*
X141164133Y-99792935D01*
X141139632Y-99799500D01*
X137229986Y-99799500D01*
X137195338Y-99785148D01*
X137180986Y-99750500D01*
X137189244Y-99723277D01*
X137199409Y-99708064D01*
X137218971Y-99678788D01*
X137231184Y-99617388D01*
X137231183Y-99375923D01*
X137228067Y-99360255D01*
X137235385Y-99323473D01*
X137266569Y-99302639D01*
X137276126Y-99301698D01*
X140326099Y-99301698D01*
X140326101Y-99301698D01*
X140403469Y-99269651D01*
X140528070Y-99145050D01*
X140562718Y-99130698D01*
X143360274Y-99130698D01*
X143394922Y-99145050D01*
G37*
%TD.AperFunction*%
%TA.AperFunction,Conductor*%
G36*
X154080994Y-96283242D02*
G01*
X154095346Y-96317890D01*
X154091618Y-96336636D01*
X154090926Y-96338306D01*
X154077262Y-96406998D01*
X154077262Y-96953397D01*
X154090925Y-97022084D01*
X154090925Y-97022085D01*
X154090926Y-97022086D01*
X154098509Y-97033435D01*
X154142975Y-97099984D01*
X154174611Y-97121122D01*
X154220874Y-97152034D01*
X154289566Y-97165698D01*
X154585958Y-97165698D01*
X154622798Y-97158369D01*
X154659581Y-97165684D01*
X154667007Y-97171779D01*
X154966565Y-97471337D01*
X154980917Y-97505985D01*
X154979976Y-97515544D01*
X154977701Y-97526983D01*
X154968267Y-97574415D01*
X154967262Y-97579467D01*
X154967262Y-97820928D01*
X154979475Y-97882331D01*
X155025999Y-97951960D01*
X155045020Y-97964669D01*
X155095629Y-97998485D01*
X155157029Y-98010698D01*
X155456304Y-98010697D01*
X155490952Y-98025049D01*
X155505304Y-98059697D01*
X155498739Y-98084197D01*
X155469979Y-98134008D01*
X155469979Y-98134010D01*
X155449500Y-98210436D01*
X155449500Y-98289563D01*
X155469979Y-98365989D01*
X155469979Y-98365991D01*
X155502449Y-98422229D01*
X155509540Y-98434511D01*
X155565489Y-98490460D01*
X155634011Y-98530021D01*
X155669478Y-98539524D01*
X155710436Y-98550500D01*
X155710438Y-98550500D01*
X155789564Y-98550500D01*
X155822235Y-98541745D01*
X155865989Y-98530021D01*
X155933762Y-98490891D01*
X155970944Y-98485997D01*
X156000697Y-98508827D01*
X156007262Y-98533327D01*
X156007262Y-98876300D01*
X155992910Y-98910948D01*
X155958262Y-98925300D01*
X155934300Y-98925300D01*
X155889130Y-98944011D01*
X155866120Y-98953542D01*
X155678114Y-99141548D01*
X155643466Y-99155900D01*
X155464869Y-99155900D01*
X155403466Y-99168113D01*
X155333836Y-99214638D01*
X155330425Y-99218050D01*
X155328512Y-99216137D01*
X155305084Y-99231739D01*
X155268313Y-99224365D01*
X155261386Y-99217438D01*
X155260775Y-99218050D01*
X155257363Y-99214638D01*
X155209899Y-99182924D01*
X155187733Y-99168113D01*
X155187732Y-99168112D01*
X155183720Y-99165432D01*
X155185097Y-99163370D01*
X155164814Y-99143054D01*
X155161100Y-99124340D01*
X155161100Y-98906304D01*
X155161099Y-98906300D01*
X155158245Y-98899411D01*
X155138483Y-98851700D01*
X155132859Y-98838122D01*
X155132858Y-98838121D01*
X155132858Y-98838120D01*
X155132857Y-98838119D01*
X154903389Y-98608652D01*
X154889037Y-98574004D01*
X154890708Y-98561318D01*
X154894100Y-98548662D01*
X154894100Y-98453736D01*
X154894099Y-98453735D01*
X154884268Y-98417046D01*
X154869533Y-98362052D01*
X154822072Y-98279848D01*
X154754952Y-98212728D01*
X154743122Y-98205898D01*
X154672749Y-98165267D01*
X154672746Y-98165266D01*
X154581064Y-98140700D01*
X154581061Y-98140700D01*
X154486139Y-98140700D01*
X154486136Y-98140700D01*
X154394453Y-98165266D01*
X154394450Y-98165267D01*
X154312247Y-98212728D01*
X154312247Y-98212729D01*
X154245129Y-98279847D01*
X154245128Y-98279847D01*
X154197667Y-98362050D01*
X154197666Y-98362053D01*
X154173100Y-98453735D01*
X154173100Y-98548664D01*
X154197666Y-98640346D01*
X154197667Y-98640349D01*
X154242880Y-98718659D01*
X154245128Y-98722552D01*
X154312248Y-98789672D01*
X154394452Y-98837133D01*
X154448818Y-98851700D01*
X154486135Y-98861699D01*
X154486136Y-98861700D01*
X154486139Y-98861700D01*
X154581063Y-98861700D01*
X154588279Y-98859765D01*
X154593719Y-98858308D01*
X154630901Y-98863200D01*
X154641052Y-98870989D01*
X154775748Y-99005684D01*
X154790100Y-99040332D01*
X154790100Y-99124340D01*
X154775748Y-99158988D01*
X154767057Y-99164800D01*
X154767480Y-99165432D01*
X154693837Y-99214637D01*
X154647313Y-99284266D01*
X154644259Y-99299617D01*
X154635100Y-99345667D01*
X154635100Y-99345669D01*
X154635100Y-99345670D01*
X154635100Y-99587130D01*
X154647313Y-99648533D01*
X154696519Y-99722175D01*
X154694660Y-99723416D01*
X154705879Y-99750500D01*
X154691527Y-99785148D01*
X154656879Y-99799500D01*
X147323330Y-99799500D01*
X147288682Y-99785148D01*
X147274330Y-99750500D01*
X147280894Y-99726001D01*
X147295221Y-99701187D01*
X147309330Y-99648533D01*
X147315700Y-99624761D01*
X147315700Y-99545634D01*
X147303061Y-99498468D01*
X147295221Y-99469209D01*
X147295220Y-99469207D01*
X147295220Y-99469206D01*
X147265761Y-99418182D01*
X147255660Y-99400687D01*
X147199711Y-99344738D01*
X147191539Y-99340020D01*
X147131190Y-99305177D01*
X147054764Y-99284698D01*
X147054762Y-99284698D01*
X146975638Y-99284698D01*
X146975636Y-99284698D01*
X146899210Y-99305177D01*
X146899208Y-99305177D01*
X146830688Y-99344738D01*
X146830688Y-99344739D01*
X146774741Y-99400686D01*
X146774740Y-99400686D01*
X146735179Y-99469206D01*
X146735179Y-99469208D01*
X146714700Y-99545634D01*
X146714700Y-99624761D01*
X146735178Y-99701186D01*
X146735179Y-99701187D01*
X146749505Y-99726000D01*
X146754401Y-99763181D01*
X146731571Y-99792935D01*
X146707070Y-99799500D01*
X146285892Y-99799500D01*
X146251244Y-99785148D01*
X146236892Y-99750500D01*
X146243456Y-99726001D01*
X146257783Y-99701187D01*
X146271892Y-99648533D01*
X146278262Y-99624761D01*
X146278262Y-99545634D01*
X146265623Y-99498468D01*
X146257783Y-99469209D01*
X146257782Y-99469207D01*
X146257782Y-99469206D01*
X146228323Y-99418182D01*
X146218222Y-99400687D01*
X146162273Y-99344738D01*
X146154101Y-99340020D01*
X146093752Y-99305177D01*
X146017326Y-99284698D01*
X146017324Y-99284698D01*
X145938200Y-99284698D01*
X145938198Y-99284698D01*
X145861772Y-99305177D01*
X145861770Y-99305177D01*
X145793250Y-99344738D01*
X145793250Y-99344739D01*
X145742509Y-99395480D01*
X145707861Y-99409832D01*
X145673213Y-99395480D01*
X145662273Y-99384540D01*
X145593752Y-99344979D01*
X145517326Y-99324500D01*
X145517324Y-99324500D01*
X145438200Y-99324500D01*
X145438198Y-99324500D01*
X145361772Y-99344979D01*
X145361770Y-99344979D01*
X145293257Y-99384535D01*
X145293251Y-99384540D01*
X145282308Y-99395482D01*
X145247658Y-99409831D01*
X145213014Y-99395479D01*
X145162273Y-99344738D01*
X145093752Y-99305177D01*
X145017326Y-99284698D01*
X145017324Y-99284698D01*
X144938200Y-99284698D01*
X144938198Y-99284698D01*
X144861772Y-99305177D01*
X144861770Y-99305177D01*
X144793250Y-99344738D01*
X144793250Y-99344739D01*
X144742509Y-99395480D01*
X144707861Y-99409832D01*
X144673213Y-99395480D01*
X144662273Y-99384540D01*
X144593752Y-99344979D01*
X144517326Y-99324500D01*
X144517324Y-99324500D01*
X144438200Y-99324500D01*
X144438198Y-99324500D01*
X144361772Y-99344979D01*
X144361770Y-99344979D01*
X144293257Y-99384535D01*
X144293247Y-99384543D01*
X144286322Y-99391468D01*
X144251673Y-99405818D01*
X144217028Y-99391466D01*
X144187795Y-99362233D01*
X144119274Y-99322672D01*
X144042848Y-99302193D01*
X144042846Y-99302193D01*
X143963722Y-99302193D01*
X143963720Y-99302193D01*
X143899945Y-99319282D01*
X143862762Y-99314387D01*
X143839932Y-99284635D01*
X143838262Y-99271952D01*
X143838262Y-99038329D01*
X143838261Y-99038325D01*
X143836663Y-99034466D01*
X143806215Y-98960959D01*
X143747001Y-98901745D01*
X143667394Y-98822138D01*
X143587003Y-98741746D01*
X143509634Y-98709698D01*
X143509633Y-98709698D01*
X142832273Y-98709698D01*
X142797625Y-98695346D01*
X142783273Y-98660698D01*
X142787864Y-98639990D01*
X142793887Y-98627074D01*
X142814449Y-98582979D01*
X142820762Y-98535027D01*
X142820761Y-98110484D01*
X142835113Y-98075837D01*
X142869761Y-98061485D01*
X142888510Y-98065214D01*
X142925891Y-98080698D01*
X142925892Y-98080698D01*
X143009633Y-98080698D01*
X143418484Y-98080698D01*
X143431165Y-98082367D01*
X143445534Y-98086217D01*
X143495866Y-98099705D01*
X143495868Y-98099705D01*
X143574994Y-98099705D01*
X143601660Y-98092559D01*
X143651419Y-98079226D01*
X143719941Y-98039665D01*
X143775890Y-97983716D01*
X143811461Y-97922105D01*
X143815450Y-97915196D01*
X143815450Y-97915195D01*
X143815451Y-97915194D01*
X143834194Y-97845246D01*
X143835930Y-97838768D01*
X143835930Y-97759641D01*
X143819032Y-97696582D01*
X143815451Y-97683216D01*
X143815450Y-97683214D01*
X143815450Y-97683213D01*
X143787917Y-97635526D01*
X143775890Y-97614694D01*
X143719941Y-97558745D01*
X143714662Y-97555697D01*
X143651420Y-97519184D01*
X143574994Y-97498705D01*
X143574992Y-97498705D01*
X143495868Y-97498705D01*
X143495866Y-97498705D01*
X143419440Y-97519184D01*
X143419438Y-97519184D01*
X143350918Y-97558745D01*
X143350918Y-97558746D01*
X143294972Y-97614691D01*
X143294970Y-97614693D01*
X143294970Y-97614694D01*
X143283131Y-97635199D01*
X143253379Y-97658029D01*
X143240697Y-97659698D01*
X143075250Y-97659698D01*
X143040602Y-97645346D01*
X142512613Y-97117357D01*
X142498340Y-97085496D01*
X142498261Y-97084109D01*
X142498261Y-97029466D01*
X142493899Y-97007535D01*
X142493705Y-97004126D01*
X142498843Y-96989403D01*
X142501884Y-96974116D01*
X142504876Y-96972116D01*
X142506063Y-96968717D01*
X142520108Y-96961938D01*
X142533067Y-96953281D01*
X142536596Y-96953982D01*
X142539839Y-96952418D01*
X142554561Y-96957556D01*
X142569849Y-96960597D01*
X142574713Y-96964589D01*
X142575248Y-96964776D01*
X142575449Y-96965193D01*
X142577274Y-96966691D01*
X142801697Y-97191114D01*
X142846846Y-97236263D01*
X142905837Y-97260698D01*
X143079114Y-97260698D01*
X143113762Y-97275050D01*
X143119252Y-97282204D01*
X143119311Y-97282159D01*
X143121264Y-97284705D01*
X143121267Y-97284709D01*
X143177216Y-97340658D01*
X143190650Y-97348414D01*
X143238856Y-97376246D01*
X143245738Y-97380219D01*
X143281113Y-97389698D01*
X143322163Y-97400698D01*
X143322165Y-97400698D01*
X143401291Y-97400698D01*
X143427957Y-97393552D01*
X143477716Y-97380219D01*
X143484598Y-97376246D01*
X143495868Y-97369739D01*
X143546238Y-97340658D01*
X143574093Y-97312802D01*
X143608738Y-97298452D01*
X143643385Y-97312802D01*
X143643387Y-97312804D01*
X143806843Y-97476261D01*
X143806844Y-97476261D01*
X143806846Y-97476263D01*
X143865837Y-97500698D01*
X143929687Y-97500698D01*
X144111188Y-97500698D01*
X144138410Y-97508955D01*
X144181417Y-97537692D01*
X144221668Y-97545698D01*
X144489637Y-97545698D01*
X144524285Y-97560050D01*
X144538637Y-97594698D01*
X144524285Y-97629346D01*
X144509291Y-97644340D01*
X144509290Y-97644340D01*
X144469729Y-97712860D01*
X144469729Y-97712862D01*
X144449250Y-97789288D01*
X144449250Y-97868415D01*
X144469729Y-97944841D01*
X144469729Y-97944843D01*
X144500700Y-97998485D01*
X144509290Y-98013363D01*
X144565239Y-98069312D01*
X144565242Y-98069314D01*
X144567791Y-98071270D01*
X144567129Y-98072132D01*
X144587579Y-98098778D01*
X144589250Y-98111465D01*
X144589250Y-98205898D01*
X144595381Y-98220698D01*
X144613685Y-98264888D01*
X144613686Y-98264889D01*
X144613686Y-98264890D01*
X145164911Y-98816114D01*
X145210060Y-98861263D01*
X145269051Y-98885698D01*
X145269053Y-98885698D01*
X145646471Y-98885698D01*
X145646473Y-98885698D01*
X145705464Y-98861263D01*
X145866677Y-98700050D01*
X145901325Y-98685698D01*
X145953853Y-98685698D01*
X145953856Y-98685698D01*
X145994107Y-98677692D01*
X146030539Y-98653349D01*
X146067322Y-98646033D01*
X146084985Y-98653349D01*
X146121417Y-98677692D01*
X146161668Y-98685698D01*
X146161671Y-98685698D01*
X146353853Y-98685698D01*
X146353856Y-98685698D01*
X146394107Y-98677692D01*
X146430539Y-98653349D01*
X146467322Y-98646033D01*
X146484985Y-98653349D01*
X146521417Y-98677692D01*
X146561668Y-98685698D01*
X146561671Y-98685698D01*
X146753853Y-98685698D01*
X146753856Y-98685698D01*
X146794107Y-98677692D01*
X146830539Y-98653349D01*
X146867322Y-98646033D01*
X146884985Y-98653349D01*
X146921417Y-98677692D01*
X146961668Y-98685698D01*
X146961671Y-98685698D01*
X147153853Y-98685698D01*
X147153856Y-98685698D01*
X147194107Y-98677692D01*
X147230539Y-98653349D01*
X147267322Y-98646033D01*
X147284985Y-98653349D01*
X147321417Y-98677692D01*
X147361668Y-98685698D01*
X147361671Y-98685698D01*
X147553853Y-98685698D01*
X147553856Y-98685698D01*
X147594107Y-98677692D01*
X147630539Y-98653349D01*
X147667322Y-98646033D01*
X147684985Y-98653349D01*
X147721417Y-98677692D01*
X147761668Y-98685698D01*
X147761671Y-98685698D01*
X147953853Y-98685698D01*
X147953856Y-98685698D01*
X147994107Y-98677692D01*
X148021040Y-98659695D01*
X148057821Y-98652379D01*
X148089004Y-98673215D01*
X148097262Y-98700438D01*
X148097262Y-98986608D01*
X148112751Y-99024000D01*
X148121697Y-99045598D01*
X148128857Y-99052758D01*
X148143210Y-99087405D01*
X148142033Y-99096348D01*
X148142106Y-99096358D01*
X148141687Y-99099542D01*
X148141687Y-99178670D01*
X148162166Y-99255096D01*
X148162166Y-99255098D01*
X148196475Y-99314522D01*
X148201727Y-99323618D01*
X148257676Y-99379567D01*
X148294257Y-99400687D01*
X148319749Y-99415405D01*
X148326198Y-99419128D01*
X148360204Y-99428240D01*
X148402623Y-99439607D01*
X148402625Y-99439607D01*
X148481751Y-99439607D01*
X148508417Y-99432461D01*
X148558176Y-99419128D01*
X148564625Y-99415405D01*
X148574279Y-99409831D01*
X148626698Y-99379567D01*
X148682647Y-99323618D01*
X148718455Y-99261596D01*
X148722207Y-99255098D01*
X148722207Y-99255097D01*
X148722208Y-99255096D01*
X148741213Y-99184169D01*
X148742687Y-99178670D01*
X148742687Y-99099543D01*
X148733614Y-99065686D01*
X148722208Y-99023118D01*
X148722207Y-99023116D01*
X148722207Y-99023115D01*
X148693309Y-98973064D01*
X148682647Y-98954596D01*
X148626698Y-98898647D01*
X148624448Y-98897348D01*
X148558177Y-98859086D01*
X148481751Y-98838607D01*
X148481749Y-98838607D01*
X148467262Y-98838607D01*
X148432614Y-98824255D01*
X148418262Y-98789607D01*
X148418262Y-98700438D01*
X148432614Y-98665790D01*
X148467262Y-98651438D01*
X148494483Y-98659695D01*
X148521417Y-98677692D01*
X148561668Y-98685698D01*
X148561671Y-98685698D01*
X148753853Y-98685698D01*
X148753856Y-98685698D01*
X148794107Y-98677692D01*
X148796038Y-98676401D01*
X148798315Y-98675948D01*
X148798565Y-98675845D01*
X148798585Y-98675894D01*
X148832818Y-98669083D01*
X148864002Y-98689916D01*
X148872262Y-98717142D01*
X148872262Y-99078992D01*
X148880775Y-99099543D01*
X148900503Y-99147170D01*
X148900504Y-99147171D01*
X148900505Y-99147173D01*
X149362672Y-99609341D01*
X149362675Y-99609343D01*
X149362676Y-99609344D01*
X149378488Y-99615893D01*
X149378489Y-99615894D01*
X149378490Y-99615894D01*
X149430856Y-99637585D01*
X149430858Y-99637585D01*
X151232011Y-99637585D01*
X151232013Y-99637585D01*
X151300192Y-99609344D01*
X151534684Y-99374852D01*
X151569332Y-99360500D01*
X151626764Y-99360500D01*
X151653430Y-99353354D01*
X151703189Y-99340021D01*
X151771711Y-99300460D01*
X151827660Y-99244511D01*
X151847219Y-99210634D01*
X152017262Y-99210634D01*
X152017262Y-99289761D01*
X152037741Y-99366187D01*
X152037741Y-99366189D01*
X152066157Y-99415405D01*
X152077302Y-99434709D01*
X152133251Y-99490658D01*
X152172787Y-99513484D01*
X152193940Y-99525697D01*
X152201773Y-99530219D01*
X152237014Y-99539662D01*
X152278198Y-99550698D01*
X152278200Y-99550698D01*
X152357326Y-99550698D01*
X152387415Y-99542635D01*
X152433751Y-99530219D01*
X152502273Y-99490658D01*
X152558222Y-99434709D01*
X152597783Y-99366187D01*
X152615395Y-99300459D01*
X152618262Y-99289761D01*
X152618262Y-99210634D01*
X152608429Y-99173941D01*
X152597783Y-99134209D01*
X152597782Y-99134207D01*
X152597782Y-99134206D01*
X152569961Y-99086020D01*
X152558222Y-99065687D01*
X152502273Y-99009738D01*
X152477889Y-98995660D01*
X152433752Y-98970177D01*
X152357326Y-98949698D01*
X152357324Y-98949698D01*
X152278200Y-98949698D01*
X152278198Y-98949698D01*
X152201772Y-98970177D01*
X152201770Y-98970177D01*
X152133250Y-99009738D01*
X152133250Y-99009739D01*
X152077303Y-99065686D01*
X152077302Y-99065686D01*
X152037741Y-99134206D01*
X152037741Y-99134208D01*
X152017262Y-99210634D01*
X151847219Y-99210634D01*
X151867221Y-99175989D01*
X151883649Y-99114680D01*
X151887700Y-99099563D01*
X151887700Y-99020436D01*
X151871916Y-98961534D01*
X151867221Y-98944011D01*
X151867220Y-98944009D01*
X151867220Y-98944008D01*
X151837552Y-98892622D01*
X151827660Y-98875489D01*
X151771711Y-98819540D01*
X151763931Y-98815048D01*
X151703190Y-98779979D01*
X151626764Y-98759500D01*
X151626762Y-98759500D01*
X151547638Y-98759500D01*
X151547636Y-98759500D01*
X151471210Y-98779979D01*
X151471208Y-98779979D01*
X151402688Y-98819540D01*
X151402688Y-98819541D01*
X151346741Y-98875488D01*
X151346740Y-98875488D01*
X151307179Y-98944008D01*
X151307179Y-98944010D01*
X151286700Y-99020436D01*
X151286700Y-99077868D01*
X151272348Y-99112516D01*
X151132631Y-99252233D01*
X151097983Y-99266585D01*
X150603973Y-99266585D01*
X150569325Y-99252233D01*
X150554973Y-99217585D01*
X150569325Y-99182937D01*
X150579473Y-99175150D01*
X150619030Y-99152311D01*
X150650294Y-99134261D01*
X150706243Y-99078312D01*
X150745804Y-99009790D01*
X150762585Y-98947163D01*
X150766283Y-98933364D01*
X150766283Y-98854237D01*
X150745804Y-98777812D01*
X150739007Y-98766040D01*
X150733118Y-98755840D01*
X150728223Y-98718659D01*
X150751053Y-98688906D01*
X150765988Y-98683284D01*
X150794107Y-98677692D01*
X150839755Y-98647191D01*
X150870256Y-98601543D01*
X150878262Y-98561292D01*
X150878262Y-97779104D01*
X150877142Y-97773473D01*
X150884458Y-97736691D01*
X150915640Y-97715855D01*
X150952422Y-97723171D01*
X150959848Y-97729265D01*
X151737697Y-98507114D01*
X151782846Y-98552263D01*
X151841837Y-98576698D01*
X152760930Y-98576698D01*
X152795578Y-98591050D01*
X152809930Y-98625698D01*
X152803365Y-98650198D01*
X152780379Y-98690008D01*
X152780379Y-98690010D01*
X152759900Y-98766436D01*
X152759900Y-98845563D01*
X152780379Y-98921989D01*
X152780379Y-98921991D01*
X152810810Y-98974698D01*
X152819940Y-98990511D01*
X152875889Y-99046460D01*
X152910695Y-99066555D01*
X152931058Y-99078312D01*
X152944411Y-99086021D01*
X152967139Y-99092111D01*
X153020836Y-99106500D01*
X153020838Y-99106500D01*
X153099964Y-99106500D01*
X153126630Y-99099354D01*
X153176389Y-99086021D01*
X153244911Y-99046460D01*
X153300860Y-98990511D01*
X153335120Y-98931170D01*
X153340420Y-98921991D01*
X153340420Y-98921990D01*
X153340421Y-98921989D01*
X153358180Y-98855714D01*
X153360900Y-98845563D01*
X153360900Y-98766436D01*
X153356533Y-98750140D01*
X153361427Y-98712958D01*
X153391179Y-98690127D01*
X153409418Y-98685240D01*
X153446599Y-98690134D01*
X153469430Y-98719887D01*
X153471100Y-98732570D01*
X153471100Y-98794763D01*
X153491579Y-98871189D01*
X153491579Y-98871191D01*
X153531140Y-98939711D01*
X153587089Y-98995660D01*
X153655611Y-99035221D01*
X153684306Y-99042910D01*
X153732036Y-99055700D01*
X153732038Y-99055700D01*
X153811164Y-99055700D01*
X153848862Y-99045598D01*
X153887589Y-99035221D01*
X153956111Y-98995660D01*
X154012060Y-98939711D01*
X154051621Y-98871189D01*
X154070270Y-98801592D01*
X154072100Y-98794763D01*
X154072100Y-98715636D01*
X154061843Y-98677361D01*
X154051621Y-98639211D01*
X154051620Y-98639209D01*
X154051620Y-98639208D01*
X154023612Y-98590698D01*
X154012060Y-98570689D01*
X153956111Y-98514740D01*
X153945869Y-98508827D01*
X153887590Y-98475179D01*
X153811164Y-98454700D01*
X153811162Y-98454700D01*
X153732038Y-98454700D01*
X153732035Y-98454700D01*
X153676582Y-98469559D01*
X153639400Y-98464664D01*
X153616570Y-98434911D01*
X153614900Y-98422229D01*
X153614900Y-98360036D01*
X153603784Y-98318554D01*
X153594421Y-98283611D01*
X153594420Y-98283609D01*
X153594420Y-98283608D01*
X153565912Y-98234232D01*
X153554860Y-98215089D01*
X153498911Y-98159140D01*
X153469305Y-98142047D01*
X153430390Y-98119579D01*
X153353964Y-98099100D01*
X153353962Y-98099100D01*
X153274838Y-98099100D01*
X153274836Y-98099100D01*
X153198410Y-98119579D01*
X153198408Y-98119579D01*
X153129888Y-98159140D01*
X153129888Y-98159141D01*
X153073943Y-98215085D01*
X153071984Y-98217639D01*
X153071123Y-98216978D01*
X153044467Y-98237431D01*
X153031787Y-98239100D01*
X152876433Y-98239100D01*
X152845369Y-98251968D01*
X152826617Y-98255698D01*
X151960539Y-98255698D01*
X151925891Y-98241346D01*
X151313891Y-97629346D01*
X151299539Y-97594698D01*
X151313891Y-97560050D01*
X151348539Y-97545698D01*
X151893853Y-97545698D01*
X151893856Y-97545698D01*
X151934107Y-97537692D01*
X151979755Y-97507191D01*
X151979756Y-97507190D01*
X151983168Y-97503779D01*
X151983940Y-97504551D01*
X152010752Y-97486639D01*
X152020308Y-97485698D01*
X152170981Y-97485698D01*
X152205629Y-97500050D01*
X152219039Y-97525140D01*
X152219406Y-97526983D01*
X152219475Y-97527330D01*
X152219475Y-97527331D01*
X152265999Y-97596960D01*
X152306875Y-97624272D01*
X152335629Y-97643485D01*
X152397029Y-97655698D01*
X152638494Y-97655697D01*
X152699895Y-97643485D01*
X152769524Y-97596960D01*
X152776327Y-97586779D01*
X152782544Y-97577475D01*
X152813727Y-97556639D01*
X152823286Y-97555698D01*
X152994685Y-97555698D01*
X152994687Y-97555698D01*
X153053678Y-97531263D01*
X153109892Y-97475048D01*
X153144538Y-97460697D01*
X153358492Y-97460697D01*
X153358494Y-97460697D01*
X153419895Y-97448485D01*
X153489524Y-97401960D01*
X153536049Y-97332331D01*
X153548262Y-97270931D01*
X153548261Y-96969466D01*
X153536049Y-96908065D01*
X153498639Y-96852077D01*
X153491323Y-96815294D01*
X153504731Y-96790208D01*
X154011699Y-96283241D01*
X154046346Y-96268890D01*
X154080994Y-96283242D01*
G37*
%TD.AperFunction*%
%TA.AperFunction,Conductor*%
G36*
X150948626Y-88214852D02*
G01*
X150962978Y-88249500D01*
X150956414Y-88273999D01*
X150939586Y-88303146D01*
X150939585Y-88303148D01*
X150916722Y-88388473D01*
X150916722Y-88476814D01*
X150938869Y-88559466D01*
X150939586Y-88562142D01*
X150957121Y-88592514D01*
X150983752Y-88638642D01*
X150983754Y-88638644D01*
X150983755Y-88638646D01*
X151046220Y-88701111D01*
X151122724Y-88745280D01*
X151159746Y-88755200D01*
X151208051Y-88768144D01*
X151208053Y-88768144D01*
X151296393Y-88768144D01*
X151330522Y-88758998D01*
X151381720Y-88745280D01*
X151458224Y-88701111D01*
X151520689Y-88638646D01*
X151564858Y-88562142D01*
X151587722Y-88476813D01*
X151587722Y-88388475D01*
X151587722Y-88388473D01*
X151569333Y-88319848D01*
X151564858Y-88303146D01*
X151548029Y-88273998D01*
X151543136Y-88236817D01*
X151565967Y-88207064D01*
X151590466Y-88200500D01*
X159025758Y-88200500D01*
X159060406Y-88214852D01*
X159074758Y-88249500D01*
X159060406Y-88284148D01*
X159050258Y-88291935D01*
X159005953Y-88317513D01*
X159005944Y-88317520D01*
X158929520Y-88393944D01*
X158929513Y-88393953D01*
X158875475Y-88487550D01*
X158875474Y-88487554D01*
X158847500Y-88591954D01*
X158847500Y-88700045D01*
X158875474Y-88804445D01*
X158875475Y-88804449D01*
X158929513Y-88898046D01*
X158929516Y-88898050D01*
X158929518Y-88898053D01*
X159005947Y-88974482D01*
X159005950Y-88974483D01*
X159005953Y-88974486D01*
X159099550Y-89028524D01*
X159099552Y-89028524D01*
X159099553Y-89028525D01*
X159120531Y-89034146D01*
X159203954Y-89056500D01*
X159203957Y-89056500D01*
X159312045Y-89056500D01*
X159375036Y-89039621D01*
X159416447Y-89028525D01*
X159426206Y-89022891D01*
X159498476Y-88981166D01*
X159510053Y-88974482D01*
X159586482Y-88898053D01*
X159640525Y-88804447D01*
X159662751Y-88721500D01*
X159668500Y-88700045D01*
X159668500Y-88591954D01*
X159647518Y-88513654D01*
X159640525Y-88487553D01*
X159640524Y-88487552D01*
X159640524Y-88487550D01*
X159586486Y-88393953D01*
X159586483Y-88393950D01*
X159586482Y-88393947D01*
X159510053Y-88317518D01*
X159510050Y-88317516D01*
X159510046Y-88317513D01*
X159465742Y-88291935D01*
X159442912Y-88262183D01*
X159447807Y-88225000D01*
X159477559Y-88202170D01*
X159490242Y-88200500D01*
X168250500Y-88200500D01*
X168285148Y-88214852D01*
X168299500Y-88249500D01*
X168299500Y-90998402D01*
X168298897Y-91036723D01*
X168299500Y-91038246D01*
X168299500Y-91042143D01*
X168300000Y-91047222D01*
X168300000Y-96952780D01*
X168299214Y-96961524D01*
X168298896Y-96963272D01*
X168299494Y-97001215D01*
X168299500Y-97001986D01*
X168299500Y-99750500D01*
X168285148Y-99785148D01*
X168250500Y-99799500D01*
X160484318Y-99799500D01*
X160449670Y-99785148D01*
X160435318Y-99750500D01*
X160449670Y-99715852D01*
X160459813Y-99708067D01*
X160524845Y-99670522D01*
X160587310Y-99608057D01*
X160626798Y-99539660D01*
X160656549Y-99516831D01*
X160678790Y-99516103D01*
X160727029Y-99525698D01*
X160968494Y-99525697D01*
X161029895Y-99513485D01*
X161099524Y-99466960D01*
X161146049Y-99397331D01*
X161158262Y-99335931D01*
X161158261Y-99034466D01*
X161146049Y-98973065D01*
X161108830Y-98917363D01*
X161099523Y-98903434D01*
X161096112Y-98900023D01*
X161098035Y-98898099D01*
X161082438Y-98874766D01*
X161089748Y-98837982D01*
X161096734Y-98830995D01*
X161096112Y-98830373D01*
X161099523Y-98826961D01*
X161104757Y-98819128D01*
X161146049Y-98757331D01*
X161146050Y-98757328D01*
X161147897Y-98752871D01*
X161149815Y-98753665D01*
X161153431Y-98748254D01*
X161158901Y-98735050D01*
X161163535Y-98733130D01*
X161166324Y-98728957D01*
X161193549Y-98720698D01*
X161215703Y-98720698D01*
X161250351Y-98735050D01*
X161256158Y-98743742D01*
X161256794Y-98743318D01*
X161259474Y-98747330D01*
X161259475Y-98747331D01*
X161264552Y-98754929D01*
X161305999Y-98816960D01*
X161348807Y-98845563D01*
X161375629Y-98863485D01*
X161437029Y-98875698D01*
X161678494Y-98875697D01*
X161739895Y-98863485D01*
X161809524Y-98816960D01*
X161856049Y-98747331D01*
X161861451Y-98720168D01*
X161882284Y-98688988D01*
X161919067Y-98681670D01*
X161948570Y-98701381D01*
X161949034Y-98701026D01*
X161950082Y-98702391D01*
X161950250Y-98702504D01*
X161950599Y-98703066D01*
X161950990Y-98703575D01*
X161950992Y-98703578D01*
X162013457Y-98766043D01*
X162013458Y-98766044D01*
X162013460Y-98766045D01*
X162026482Y-98773563D01*
X162089961Y-98810212D01*
X162124777Y-98819541D01*
X162173545Y-98832609D01*
X162203297Y-98855439D01*
X162208192Y-98892622D01*
X162185362Y-98922374D01*
X162117544Y-98961527D01*
X162117535Y-98961534D01*
X162055075Y-99023994D01*
X162055070Y-99024000D01*
X162010904Y-99100501D01*
X162010903Y-99100503D01*
X161988040Y-99185828D01*
X161988040Y-99274169D01*
X162007014Y-99344979D01*
X162010904Y-99359497D01*
X162025364Y-99384543D01*
X162055070Y-99435997D01*
X162055072Y-99435999D01*
X162055073Y-99436001D01*
X162117538Y-99498466D01*
X162117539Y-99498467D01*
X162117541Y-99498468D01*
X162127620Y-99504287D01*
X162194042Y-99542635D01*
X162236706Y-99554067D01*
X162279369Y-99565499D01*
X162279371Y-99565499D01*
X162367711Y-99565499D01*
X162401840Y-99556353D01*
X162453038Y-99542635D01*
X162529542Y-99498466D01*
X162592007Y-99436001D01*
X162636176Y-99359497D01*
X162654862Y-99289760D01*
X162659040Y-99274169D01*
X162659040Y-99185831D01*
X162658821Y-99184169D01*
X162659040Y-99183351D01*
X162659040Y-99182618D01*
X162659236Y-99182618D01*
X162668524Y-99147943D01*
X162672744Y-99143129D01*
X162781143Y-99034731D01*
X162815790Y-99020380D01*
X162821940Y-99020985D01*
X162821950Y-99020886D01*
X162824346Y-99021122D01*
X163900651Y-99021122D01*
X163900654Y-99021122D01*
X163976642Y-99006007D01*
X164062810Y-98948432D01*
X164120385Y-98862264D01*
X164135500Y-98786276D01*
X164135500Y-98434968D01*
X164864500Y-98434968D01*
X164864500Y-98786276D01*
X164879416Y-98861262D01*
X164879615Y-98862264D01*
X164937189Y-98948432D01*
X164974056Y-98973065D01*
X165023358Y-99006007D01*
X165099346Y-99021122D01*
X165099349Y-99021122D01*
X166175651Y-99021122D01*
X166175654Y-99021122D01*
X166251642Y-99006007D01*
X166337810Y-98948432D01*
X166395385Y-98862264D01*
X166410500Y-98786276D01*
X166410500Y-98782753D01*
X166424852Y-98748105D01*
X167157257Y-98015700D01*
X167157259Y-98015698D01*
X167185500Y-97947519D01*
X167185500Y-97873723D01*
X167185500Y-97492461D01*
X167199852Y-97457813D01*
X167210002Y-97450025D01*
X167221345Y-97443476D01*
X167221344Y-97443476D01*
X167221352Y-97443472D01*
X167288472Y-97376352D01*
X167335933Y-97294148D01*
X167360499Y-97202464D01*
X167360500Y-97202464D01*
X167360500Y-97107536D01*
X167360499Y-97107535D01*
X167346560Y-97055515D01*
X167335933Y-97015852D01*
X167288472Y-96933648D01*
X167221352Y-96866528D01*
X167208906Y-96859342D01*
X167139149Y-96819067D01*
X167139146Y-96819066D01*
X167047464Y-96794500D01*
X167047461Y-96794500D01*
X166952539Y-96794500D01*
X166952536Y-96794500D01*
X166860853Y-96819066D01*
X166860850Y-96819067D01*
X166778647Y-96866528D01*
X166778647Y-96866529D01*
X166711529Y-96933647D01*
X166711528Y-96933647D01*
X166664067Y-97015850D01*
X166664066Y-97015853D01*
X166639500Y-97107535D01*
X166639500Y-97202464D01*
X166664066Y-97294146D01*
X166664067Y-97294149D01*
X166688584Y-97336612D01*
X166711528Y-97376352D01*
X166778648Y-97443472D01*
X166778651Y-97443473D01*
X166778654Y-97443476D01*
X166789998Y-97450025D01*
X166812830Y-97479777D01*
X166814500Y-97492461D01*
X166814500Y-97813488D01*
X166800148Y-97848136D01*
X166388822Y-98259462D01*
X166354174Y-98273814D01*
X166326952Y-98265556D01*
X166251643Y-98215237D01*
X166227506Y-98210436D01*
X166175654Y-98200122D01*
X165099346Y-98200122D01*
X165047494Y-98210436D01*
X165023357Y-98215237D01*
X164937189Y-98272811D01*
X164879615Y-98358979D01*
X164879004Y-98362050D01*
X164864500Y-98434968D01*
X164135500Y-98434968D01*
X164120385Y-98358980D01*
X164094695Y-98320532D01*
X164062810Y-98272811D01*
X163976642Y-98215237D01*
X163964028Y-98212728D01*
X163900654Y-98200122D01*
X162824346Y-98200122D01*
X162772494Y-98210436D01*
X162748357Y-98215237D01*
X162662189Y-98272811D01*
X162606670Y-98355903D01*
X162575487Y-98376738D01*
X162538705Y-98369422D01*
X162523495Y-98353182D01*
X162487926Y-98291574D01*
X162425461Y-98229109D01*
X162425459Y-98229108D01*
X162425457Y-98229106D01*
X162365860Y-98194699D01*
X162348957Y-98184940D01*
X162348954Y-98184939D01*
X162263630Y-98162076D01*
X162263628Y-98162076D01*
X162175290Y-98162076D01*
X162175288Y-98162076D01*
X162089963Y-98184939D01*
X162089961Y-98184940D01*
X162013460Y-98229106D01*
X162013454Y-98229111D01*
X161950994Y-98291571D01*
X161950989Y-98291577D01*
X161936627Y-98316454D01*
X161906874Y-98339284D01*
X161869691Y-98334388D01*
X161853450Y-98319176D01*
X161853034Y-98318554D01*
X161833754Y-98289698D01*
X161809524Y-98253435D01*
X161739895Y-98206911D01*
X161728759Y-98204696D01*
X161678495Y-98194698D01*
X161678491Y-98194698D01*
X161437031Y-98194698D01*
X161375628Y-98206911D01*
X161305999Y-98253435D01*
X161275790Y-98298648D01*
X161264058Y-98316207D01*
X161256794Y-98327078D01*
X161254724Y-98325695D01*
X161254082Y-98326338D01*
X161250351Y-98335346D01*
X161241351Y-98339073D01*
X161234463Y-98345965D01*
X161215703Y-98349698D01*
X161183354Y-98349698D01*
X161148706Y-98335346D01*
X161142612Y-98327921D01*
X161099524Y-98263435D01*
X161029895Y-98216911D01*
X161021479Y-98215237D01*
X160968495Y-98204698D01*
X160968491Y-98204698D01*
X160727031Y-98204698D01*
X160665628Y-98216911D01*
X160596002Y-98263433D01*
X160592591Y-98266846D01*
X160590745Y-98265001D01*
X160567136Y-98280748D01*
X160533118Y-98275116D01*
X160505354Y-98259087D01*
X160505350Y-98259085D01*
X160428927Y-98238607D01*
X160428925Y-98238607D01*
X160349801Y-98238607D01*
X160349799Y-98238607D01*
X160273373Y-98259086D01*
X160273371Y-98259086D01*
X160204851Y-98298647D01*
X160204851Y-98298648D01*
X160164244Y-98339255D01*
X160129596Y-98353607D01*
X159706656Y-98353607D01*
X159672008Y-98339255D01*
X159657656Y-98304607D01*
X159664220Y-98280108D01*
X159707759Y-98204697D01*
X159726700Y-98134008D01*
X159730623Y-98119369D01*
X159730623Y-98031028D01*
X159714264Y-97969979D01*
X159707759Y-97945701D01*
X159667337Y-97875687D01*
X159663592Y-97869200D01*
X159663587Y-97869194D01*
X159601127Y-97806734D01*
X159601121Y-97806729D01*
X159547808Y-97775950D01*
X159524621Y-97762563D01*
X159524618Y-97762562D01*
X159439294Y-97739699D01*
X159439292Y-97739699D01*
X159350954Y-97739699D01*
X159350952Y-97739699D01*
X159265627Y-97762562D01*
X159265625Y-97762563D01*
X159189124Y-97806729D01*
X159189118Y-97806734D01*
X159126658Y-97869194D01*
X159126653Y-97869200D01*
X159082487Y-97945701D01*
X159082486Y-97945703D01*
X159059623Y-98031028D01*
X159059623Y-98119369D01*
X159074848Y-98176189D01*
X159082487Y-98204697D01*
X159089127Y-98216198D01*
X159089128Y-98216199D01*
X159094022Y-98253381D01*
X159071191Y-98283134D01*
X159046692Y-98289698D01*
X158566878Y-98289698D01*
X158542704Y-98294506D01*
X158534646Y-98296109D01*
X158498095Y-98320531D01*
X158473673Y-98357082D01*
X158473085Y-98360038D01*
X158467262Y-98389314D01*
X158467262Y-99411082D01*
X158472936Y-99439607D01*
X158473673Y-99443313D01*
X158498095Y-99479864D01*
X158514250Y-99490658D01*
X158534647Y-99504287D01*
X158566878Y-99510698D01*
X158566881Y-99510698D01*
X159588643Y-99510698D01*
X159588646Y-99510698D01*
X159620877Y-99504287D01*
X159657428Y-99479864D01*
X159681851Y-99443313D01*
X159688262Y-99411082D01*
X159688262Y-98773607D01*
X159702614Y-98738959D01*
X159737262Y-98724607D01*
X160129596Y-98724607D01*
X160164244Y-98738959D01*
X160204852Y-98779567D01*
X160240541Y-98800172D01*
X160273370Y-98819126D01*
X160273374Y-98819128D01*
X160302603Y-98826960D01*
X160349799Y-98839607D01*
X160349801Y-98839607D01*
X160428927Y-98839607D01*
X160476123Y-98826960D01*
X160505352Y-98819128D01*
X160505354Y-98819126D01*
X160505356Y-98819126D01*
X160527243Y-98806489D01*
X160542214Y-98804517D01*
X160556677Y-98800172D01*
X160560006Y-98802173D01*
X160564425Y-98801592D01*
X160589704Y-98817939D01*
X160591182Y-98819750D01*
X160596000Y-98826960D01*
X160598347Y-98828528D01*
X160602988Y-98834214D01*
X160606443Y-98845716D01*
X160613101Y-98855714D01*
X160611638Y-98863006D01*
X160613779Y-98870131D01*
X160608088Y-98880708D01*
X160605727Y-98892485D01*
X160598800Y-98899411D01*
X160599412Y-98900023D01*
X160596000Y-98903434D01*
X160562935Y-98952921D01*
X160531753Y-98973756D01*
X160522193Y-98974698D01*
X160493827Y-98974698D01*
X160416460Y-99006745D01*
X160403170Y-99020036D01*
X160371002Y-99052203D01*
X160336356Y-99066555D01*
X160274672Y-99066555D01*
X160189347Y-99089418D01*
X160189345Y-99089419D01*
X160112844Y-99133585D01*
X160112838Y-99133590D01*
X160050378Y-99196050D01*
X160050373Y-99196056D01*
X160006207Y-99272557D01*
X160006206Y-99272559D01*
X159983343Y-99357884D01*
X159983343Y-99446225D01*
X160006206Y-99531550D01*
X160006207Y-99531553D01*
X160014337Y-99545634D01*
X160050373Y-99608053D01*
X160050375Y-99608055D01*
X160050376Y-99608057D01*
X160112841Y-99670522D01*
X160177869Y-99708065D01*
X160200698Y-99737817D01*
X160195804Y-99775000D01*
X160166051Y-99797830D01*
X160153368Y-99799500D01*
X155934321Y-99799500D01*
X155899673Y-99785148D01*
X155885321Y-99750500D01*
X155896539Y-99723416D01*
X155894681Y-99722175D01*
X155923671Y-99678788D01*
X155943887Y-99648533D01*
X155956100Y-99587133D01*
X155956099Y-99516163D01*
X155970450Y-99481516D01*
X156005098Y-99467164D01*
X156033043Y-99478738D01*
X156034083Y-99477183D01*
X156040568Y-99481516D01*
X156074647Y-99504287D01*
X156106878Y-99510698D01*
X156106881Y-99510698D01*
X157128643Y-99510698D01*
X157128646Y-99510698D01*
X157160877Y-99504287D01*
X157197428Y-99479864D01*
X157221851Y-99443313D01*
X157228262Y-99411082D01*
X157228262Y-98389314D01*
X157221851Y-98357083D01*
X157212406Y-98342948D01*
X157197428Y-98320531D01*
X157160877Y-98296109D01*
X157157257Y-98295389D01*
X157128646Y-98289698D01*
X157128643Y-98289698D01*
X156997118Y-98289698D01*
X156962470Y-98275346D01*
X156948118Y-98240698D01*
X156954683Y-98216198D01*
X156977782Y-98176189D01*
X156977782Y-98176188D01*
X156977783Y-98176187D01*
X156996035Y-98108070D01*
X156998262Y-98099761D01*
X156998262Y-98020634D01*
X156986885Y-97978178D01*
X156977783Y-97944209D01*
X156977782Y-97944207D01*
X156977782Y-97944206D01*
X156950459Y-97896883D01*
X156938222Y-97875687D01*
X156938221Y-97875686D01*
X156936683Y-97873022D01*
X156931788Y-97835840D01*
X156944467Y-97813877D01*
X156997736Y-97760609D01*
X157037297Y-97692087D01*
X157046184Y-97658919D01*
X157069014Y-97629167D01*
X157106196Y-97624272D01*
X157118011Y-97629165D01*
X157131959Y-97637218D01*
X157139074Y-97641326D01*
X157215499Y-97661805D01*
X157215501Y-97661805D01*
X157294627Y-97661805D01*
X157324328Y-97653846D01*
X157371052Y-97641326D01*
X157372750Y-97640346D01*
X157392112Y-97629167D01*
X157439574Y-97601765D01*
X157495523Y-97545816D01*
X157533634Y-97479805D01*
X157535083Y-97477296D01*
X157535083Y-97477295D01*
X157535084Y-97477294D01*
X157555270Y-97401960D01*
X157555563Y-97400868D01*
X157555563Y-97336610D01*
X158086157Y-97336610D01*
X158086157Y-97424951D01*
X158108691Y-97509048D01*
X158109021Y-97510279D01*
X158121136Y-97531263D01*
X158153187Y-97586779D01*
X158153189Y-97586781D01*
X158153190Y-97586783D01*
X158215655Y-97649248D01*
X158215656Y-97649249D01*
X158215658Y-97649250D01*
X158226527Y-97655525D01*
X158292159Y-97693417D01*
X158333297Y-97704440D01*
X158377486Y-97716281D01*
X158377488Y-97716281D01*
X158465828Y-97716281D01*
X158499957Y-97707135D01*
X158551155Y-97693417D01*
X158627659Y-97649248D01*
X158690124Y-97586783D01*
X158734293Y-97510279D01*
X158754129Y-97436250D01*
X158757157Y-97424951D01*
X158757157Y-97336610D01*
X158743250Y-97284712D01*
X158734293Y-97251283D01*
X158696422Y-97185687D01*
X158690126Y-97174782D01*
X158690121Y-97174776D01*
X158627661Y-97112316D01*
X158627655Y-97112311D01*
X158573914Y-97081285D01*
X158551155Y-97068145D01*
X158551152Y-97068144D01*
X158465828Y-97045281D01*
X158465826Y-97045281D01*
X158377488Y-97045281D01*
X158377486Y-97045281D01*
X158292161Y-97068144D01*
X158292159Y-97068145D01*
X158215658Y-97112311D01*
X158215652Y-97112316D01*
X158153192Y-97174776D01*
X158153187Y-97174782D01*
X158109021Y-97251283D01*
X158109020Y-97251285D01*
X158086157Y-97336610D01*
X157555563Y-97336610D01*
X157555563Y-97321741D01*
X157545640Y-97284712D01*
X157535084Y-97245316D01*
X157535083Y-97245314D01*
X157535083Y-97245313D01*
X157510002Y-97201873D01*
X157495523Y-97176794D01*
X157439574Y-97120845D01*
X157416520Y-97107535D01*
X157371054Y-97081285D01*
X157371053Y-97081284D01*
X157371052Y-97081284D01*
X157364331Y-97079483D01*
X157360096Y-97078348D01*
X157330344Y-97055515D01*
X157324723Y-97021458D01*
X157328750Y-97001215D01*
X157338262Y-96953394D01*
X157338262Y-96556682D01*
X158760339Y-96556682D01*
X158760339Y-96658189D01*
X158786610Y-96756231D01*
X158786611Y-96756235D01*
X158830258Y-96831832D01*
X158837363Y-96844138D01*
X158909137Y-96915912D01*
X158921991Y-96923333D01*
X158997039Y-96966663D01*
X158997041Y-96966663D01*
X158997042Y-96966664D01*
X159017978Y-96972274D01*
X159095085Y-96992936D01*
X159095087Y-96992936D01*
X159169580Y-96992936D01*
X159204228Y-97007288D01*
X160078400Y-97881462D01*
X160078402Y-97881463D01*
X160078403Y-97881464D01*
X160174147Y-97921122D01*
X162584343Y-97921122D01*
X162618991Y-97935474D01*
X162625085Y-97942900D01*
X162662188Y-97998431D01*
X162690371Y-98017262D01*
X162748358Y-98056007D01*
X162824346Y-98071122D01*
X162824349Y-98071122D01*
X163900651Y-98071122D01*
X163900654Y-98071122D01*
X163976642Y-98056007D01*
X164062810Y-97998432D01*
X164120385Y-97912264D01*
X164135500Y-97836276D01*
X164135500Y-97484968D01*
X164134134Y-97478101D01*
X164141449Y-97441319D01*
X164172631Y-97420483D01*
X164209414Y-97427798D01*
X164224628Y-97444042D01*
X164231530Y-97455998D01*
X164231532Y-97456000D01*
X164231533Y-97456002D01*
X164293998Y-97518467D01*
X164293999Y-97518468D01*
X164294001Y-97518469D01*
X164306942Y-97525940D01*
X164370502Y-97562636D01*
X164406266Y-97572219D01*
X164455829Y-97585500D01*
X164455831Y-97585500D01*
X164544171Y-97585500D01*
X164585538Y-97574415D01*
X164629498Y-97562636D01*
X164706002Y-97518467D01*
X164768467Y-97456002D01*
X164812636Y-97379498D01*
X164830679Y-97312161D01*
X164835500Y-97294170D01*
X164835500Y-97205829D01*
X164823139Y-97159698D01*
X164812636Y-97120502D01*
X164777803Y-97060168D01*
X164768469Y-97044001D01*
X164768464Y-97043995D01*
X164706004Y-96981535D01*
X164705998Y-96981530D01*
X164664329Y-96957473D01*
X164629498Y-96937364D01*
X164629495Y-96937363D01*
X164544171Y-96914500D01*
X164544169Y-96914500D01*
X164455831Y-96914500D01*
X164455826Y-96914500D01*
X164454161Y-96914719D01*
X164453344Y-96914500D01*
X164452620Y-96914500D01*
X164452620Y-96914305D01*
X164417937Y-96905009D01*
X164413122Y-96900786D01*
X164149852Y-96637516D01*
X164135500Y-96602868D01*
X164135500Y-96534971D01*
X164135500Y-96534968D01*
X164864500Y-96534968D01*
X164864500Y-96886276D01*
X164877657Y-96952418D01*
X164879615Y-96962264D01*
X164937189Y-97048432D01*
X164992661Y-97085496D01*
X165023358Y-97106007D01*
X165099346Y-97121122D01*
X165099349Y-97121122D01*
X166175651Y-97121122D01*
X166175654Y-97121122D01*
X166251642Y-97106007D01*
X166337810Y-97048432D01*
X166395385Y-96962264D01*
X166410500Y-96886276D01*
X166410500Y-96534968D01*
X166395385Y-96458980D01*
X166369138Y-96419698D01*
X166337810Y-96372811D01*
X166251642Y-96315237D01*
X166175654Y-96300122D01*
X166175651Y-96300122D01*
X165827391Y-96300122D01*
X165792743Y-96285770D01*
X165778391Y-96251122D01*
X165787440Y-96224464D01*
X165786866Y-96224133D01*
X165788472Y-96221352D01*
X165835933Y-96139148D01*
X165860499Y-96047464D01*
X165860500Y-96047464D01*
X165860500Y-95952536D01*
X165860499Y-95952535D01*
X165842237Y-95884379D01*
X165835933Y-95860852D01*
X165833794Y-95857148D01*
X165808651Y-95813599D01*
X165788472Y-95778648D01*
X165721352Y-95711528D01*
X165687886Y-95692206D01*
X165639149Y-95664067D01*
X165639146Y-95664066D01*
X165547464Y-95639500D01*
X165547461Y-95639500D01*
X165452539Y-95639500D01*
X165452536Y-95639500D01*
X165360853Y-95664066D01*
X165360850Y-95664067D01*
X165278647Y-95711528D01*
X165278647Y-95711529D01*
X165211529Y-95778647D01*
X165211528Y-95778647D01*
X165164067Y-95860850D01*
X165164066Y-95860853D01*
X165139500Y-95952535D01*
X165139500Y-96047464D01*
X165164066Y-96139146D01*
X165164067Y-96139149D01*
X165183546Y-96172886D01*
X165211493Y-96221292D01*
X165213134Y-96224133D01*
X165212362Y-96224578D01*
X165221190Y-96257516D01*
X165202440Y-96289995D01*
X165172609Y-96300122D01*
X165099346Y-96300122D01*
X165048128Y-96310310D01*
X165023357Y-96315237D01*
X164937189Y-96372811D01*
X164879615Y-96458979D01*
X164878778Y-96463186D01*
X164864500Y-96534968D01*
X164135500Y-96534968D01*
X164120385Y-96458980D01*
X164094138Y-96419698D01*
X164062810Y-96372811D01*
X163976642Y-96315237D01*
X163900654Y-96300122D01*
X162824346Y-96300122D01*
X162773128Y-96310310D01*
X162748357Y-96315237D01*
X162662189Y-96372811D01*
X162604615Y-96458979D01*
X162603778Y-96463186D01*
X162589500Y-96534968D01*
X162589500Y-96886276D01*
X162602657Y-96952418D01*
X162604615Y-96962264D01*
X162662189Y-97048432D01*
X162717661Y-97085496D01*
X162748358Y-97106007D01*
X162824346Y-97121122D01*
X162824349Y-97121122D01*
X163900651Y-97121122D01*
X163900654Y-97121122D01*
X163976642Y-97106007D01*
X164013363Y-97081470D01*
X164050141Y-97074155D01*
X164075230Y-97087566D01*
X164150786Y-97163122D01*
X164165138Y-97197770D01*
X164164719Y-97204161D01*
X164164500Y-97205825D01*
X164164500Y-97294172D01*
X164168578Y-97309391D01*
X164163683Y-97346573D01*
X164133930Y-97369403D01*
X164096748Y-97364508D01*
X164080506Y-97349296D01*
X164062810Y-97322811D01*
X163976642Y-97265237D01*
X163900654Y-97250122D01*
X162824346Y-97250122D01*
X162771182Y-97260697D01*
X162748357Y-97265237D01*
X162662188Y-97322812D01*
X162625085Y-97378344D01*
X162593903Y-97399180D01*
X162584343Y-97400122D01*
X160354163Y-97400122D01*
X160319515Y-97385770D01*
X159545691Y-96611946D01*
X159531339Y-96577298D01*
X159531339Y-96556682D01*
X159504236Y-96455537D01*
X159505383Y-96455229D01*
X159505378Y-96421902D01*
X159531892Y-96395379D01*
X159563334Y-96393316D01*
X159581217Y-96398108D01*
X159581219Y-96398108D01*
X159660345Y-96398108D01*
X159694886Y-96388852D01*
X159736770Y-96377629D01*
X159805292Y-96338068D01*
X159861241Y-96282119D01*
X159895501Y-96222778D01*
X159900801Y-96213599D01*
X159900801Y-96213598D01*
X159900802Y-96213597D01*
X159917163Y-96152540D01*
X159921281Y-96137171D01*
X159921281Y-96058044D01*
X159908557Y-96010560D01*
X159900802Y-95981619D01*
X159900801Y-95981617D01*
X159900801Y-95981616D01*
X159867501Y-95923940D01*
X159861241Y-95913097D01*
X159805292Y-95857148D01*
X159773670Y-95838891D01*
X159750841Y-95809139D01*
X159755737Y-95771956D01*
X159770947Y-95755717D01*
X159819411Y-95723335D01*
X159873671Y-95642128D01*
X159887915Y-95570520D01*
X159887914Y-95152159D01*
X159887913Y-95152154D01*
X160146915Y-95152154D01*
X160146915Y-95570515D01*
X160161159Y-95642128D01*
X160161160Y-95642130D01*
X160215418Y-95723335D01*
X160295138Y-95776601D01*
X160296626Y-95777595D01*
X160368234Y-95791839D01*
X160686595Y-95791838D01*
X160758204Y-95777595D01*
X160839411Y-95723335D01*
X160893671Y-95642128D01*
X160907915Y-95570520D01*
X160907914Y-95298825D01*
X160922265Y-95264179D01*
X161012242Y-95174202D01*
X161046889Y-95159851D01*
X161081537Y-95174203D01*
X161091297Y-95188141D01*
X161127013Y-95264733D01*
X161138029Y-95288356D01*
X161220128Y-95370455D01*
X161220130Y-95370456D01*
X161220131Y-95370457D01*
X161325363Y-95419528D01*
X161373315Y-95425841D01*
X161962972Y-95425840D01*
X162010925Y-95419528D01*
X162116157Y-95370457D01*
X162198260Y-95288354D01*
X162247331Y-95183122D01*
X162253644Y-95135170D01*
X162253644Y-95129267D01*
X165506300Y-95129267D01*
X165506300Y-95129268D01*
X165506300Y-95129270D01*
X165506300Y-95370730D01*
X165518513Y-95432133D01*
X165565037Y-95501762D01*
X165598632Y-95524209D01*
X165634667Y-95548287D01*
X165696067Y-95560500D01*
X165997532Y-95560499D01*
X166058933Y-95548287D01*
X166128562Y-95501762D01*
X166128563Y-95501761D01*
X166131975Y-95498350D01*
X166133898Y-95500273D01*
X166157232Y-95484676D01*
X166194016Y-95491986D01*
X166201002Y-95498972D01*
X166201625Y-95498350D01*
X166205036Y-95501761D01*
X166213163Y-95507191D01*
X166274667Y-95548287D01*
X166336067Y-95560500D01*
X166637532Y-95560499D01*
X166698933Y-95548287D01*
X166768562Y-95501762D01*
X166815087Y-95432133D01*
X166827300Y-95370733D01*
X166827299Y-95129268D01*
X166815087Y-95067867D01*
X166783969Y-95021296D01*
X166768562Y-94998237D01*
X166736064Y-94976523D01*
X166715228Y-94945340D01*
X166720851Y-94911283D01*
X166751621Y-94857989D01*
X166772100Y-94781562D01*
X166772100Y-94702438D01*
X166772100Y-94702436D01*
X166759624Y-94655878D01*
X166751621Y-94626011D01*
X166751620Y-94626009D01*
X166751620Y-94626008D01*
X166720760Y-94572558D01*
X166712060Y-94557489D01*
X166656111Y-94501540D01*
X166645047Y-94495152D01*
X166587590Y-94461979D01*
X166511164Y-94441500D01*
X166511162Y-94441500D01*
X166432038Y-94441500D01*
X166432036Y-94441500D01*
X166355610Y-94461979D01*
X166355608Y-94461979D01*
X166287090Y-94501539D01*
X166238592Y-94550037D01*
X166203944Y-94564388D01*
X166169295Y-94550036D01*
X166156614Y-94528071D01*
X166153884Y-94517885D01*
X166142021Y-94473611D01*
X166142020Y-94473609D01*
X166142020Y-94473608D01*
X166105820Y-94410909D01*
X166102460Y-94405089D01*
X166046511Y-94349140D01*
X166030157Y-94339698D01*
X165977990Y-94309579D01*
X165901564Y-94289100D01*
X165901562Y-94289100D01*
X165822438Y-94289100D01*
X165822436Y-94289100D01*
X165746010Y-94309579D01*
X165746008Y-94309579D01*
X165677488Y-94349140D01*
X165677488Y-94349141D01*
X165621541Y-94405088D01*
X165621540Y-94405088D01*
X165581979Y-94473608D01*
X165581979Y-94473610D01*
X165561500Y-94550036D01*
X165561500Y-94629163D01*
X165581979Y-94705589D01*
X165581979Y-94705591D01*
X165621540Y-94774111D01*
X165662148Y-94814719D01*
X165676500Y-94849367D01*
X165676500Y-94903178D01*
X165662148Y-94937826D01*
X165637063Y-94951236D01*
X165634668Y-94951712D01*
X165565037Y-94998237D01*
X165518513Y-95067866D01*
X165518513Y-95067867D01*
X165506300Y-95129267D01*
X162253644Y-95129267D01*
X162253643Y-94877814D01*
X162253643Y-94620516D01*
X162253643Y-94620514D01*
X162253643Y-94620513D01*
X162247331Y-94572560D01*
X162198260Y-94467328D01*
X162198259Y-94467327D01*
X162198258Y-94467325D01*
X162116159Y-94385226D01*
X162116157Y-94385225D01*
X162010926Y-94336154D01*
X162000329Y-94334759D01*
X161962973Y-94329841D01*
X161962969Y-94329841D01*
X161373319Y-94329841D01*
X161373314Y-94329842D01*
X161325364Y-94336153D01*
X161220130Y-94385225D01*
X161220128Y-94385226D01*
X161138029Y-94467325D01*
X161138028Y-94467327D01*
X161088957Y-94572558D01*
X161088957Y-94572560D01*
X161084356Y-94607512D01*
X161082644Y-94620514D01*
X161082576Y-94621552D01*
X161082482Y-94621741D01*
X161082435Y-94622103D01*
X161082312Y-94622086D01*
X161065984Y-94655186D01*
X161033681Y-94667341D01*
X160969040Y-94667341D01*
X160911545Y-94691157D01*
X160895086Y-94697975D01*
X160891672Y-94699389D01*
X160891670Y-94699390D01*
X160674573Y-94916487D01*
X160639925Y-94930839D01*
X160368238Y-94930839D01*
X160296625Y-94945083D01*
X160296623Y-94945084D01*
X160215418Y-94999342D01*
X160161158Y-95080550D01*
X160146915Y-95152154D01*
X159887913Y-95152154D01*
X159873671Y-95080550D01*
X159860971Y-95061543D01*
X159819411Y-94999342D01*
X159738203Y-94945082D01*
X159666597Y-94930839D01*
X159348238Y-94930839D01*
X159276625Y-94945083D01*
X159276623Y-94945084D01*
X159195418Y-94999342D01*
X159141158Y-95080550D01*
X159126915Y-95152154D01*
X159126915Y-95570515D01*
X159141159Y-95642128D01*
X159141160Y-95642130D01*
X159195417Y-95723334D01*
X159275138Y-95776601D01*
X159295973Y-95807783D01*
X159296915Y-95817343D01*
X159296915Y-96024029D01*
X159316551Y-96071433D01*
X159320281Y-96090185D01*
X159320281Y-96137171D01*
X159332352Y-96182220D01*
X159327457Y-96219403D01*
X159297705Y-96242233D01*
X159272339Y-96242233D01*
X159196593Y-96221936D01*
X159196591Y-96221936D01*
X159095087Y-96221936D01*
X159095085Y-96221936D01*
X158997043Y-96248207D01*
X158997039Y-96248208D01*
X158909136Y-96298960D01*
X158909136Y-96298961D01*
X158837364Y-96370733D01*
X158837363Y-96370733D01*
X158786611Y-96458636D01*
X158786610Y-96458640D01*
X158760339Y-96556682D01*
X157338262Y-96556682D01*
X157338262Y-96407002D01*
X157324598Y-96338310D01*
X157294307Y-96292976D01*
X157272548Y-96260411D01*
X157204740Y-96215104D01*
X157194650Y-96208362D01*
X157194649Y-96208361D01*
X157194648Y-96208361D01*
X157125961Y-96194698D01*
X157125958Y-96194698D01*
X156829566Y-96194698D01*
X156786150Y-96203334D01*
X156780992Y-96204360D01*
X156778553Y-96204845D01*
X156757259Y-96204360D01*
X156753657Y-96203471D01*
X156702062Y-96182100D01*
X156667013Y-96182100D01*
X156661232Y-96180674D01*
X156650560Y-96172818D01*
X156638319Y-96167748D01*
X156597711Y-96127140D01*
X156529190Y-96087579D01*
X156452764Y-96067100D01*
X156452762Y-96067100D01*
X156373638Y-96067100D01*
X156373636Y-96067100D01*
X156297210Y-96087579D01*
X156297208Y-96087579D01*
X156228688Y-96127140D01*
X156228688Y-96127141D01*
X156172741Y-96183088D01*
X156172740Y-96183088D01*
X156133179Y-96251608D01*
X156133179Y-96251610D01*
X156122094Y-96292976D01*
X156112552Y-96305409D01*
X156104781Y-96319023D01*
X156101397Y-96319947D01*
X156099263Y-96322729D01*
X156083722Y-96324774D01*
X156068603Y-96328904D01*
X156065750Y-96327139D01*
X156062081Y-96327623D01*
X156036034Y-96310310D01*
X156034981Y-96308952D01*
X156002548Y-96260412D01*
X155991789Y-96253223D01*
X155986908Y-96246925D01*
X155983906Y-96235935D01*
X155977580Y-96226467D01*
X155977980Y-96214237D01*
X155977027Y-96210747D01*
X155978159Y-96208763D01*
X155978307Y-96204228D01*
X155995746Y-96139149D01*
X155998262Y-96129761D01*
X155998262Y-96050634D01*
X155987623Y-96010931D01*
X155977783Y-95974209D01*
X155977782Y-95974207D01*
X155977782Y-95974206D01*
X155942500Y-95913097D01*
X155938222Y-95905687D01*
X155882273Y-95849738D01*
X155874967Y-95845520D01*
X155813752Y-95810177D01*
X155737326Y-95789698D01*
X155737324Y-95789698D01*
X155658200Y-95789698D01*
X155658198Y-95789698D01*
X155581772Y-95810177D01*
X155581770Y-95810177D01*
X155513250Y-95849738D01*
X155513250Y-95849739D01*
X155457303Y-95905686D01*
X155457302Y-95905686D01*
X155417741Y-95974206D01*
X155417741Y-95974208D01*
X155397262Y-96050634D01*
X155397262Y-96129761D01*
X155417740Y-96206184D01*
X155418970Y-96209153D01*
X155417698Y-96209679D01*
X155421989Y-96242237D01*
X155415399Y-96256785D01*
X155360925Y-96338311D01*
X155347262Y-96406998D01*
X155347262Y-96953397D01*
X155360925Y-97022084D01*
X155360925Y-97022085D01*
X155360926Y-97022086D01*
X155368509Y-97033435D01*
X155412975Y-97099984D01*
X155444611Y-97121122D01*
X155490874Y-97152034D01*
X155559566Y-97165698D01*
X155855958Y-97165698D01*
X155924650Y-97152034D01*
X156002548Y-97099984D01*
X156054598Y-97022086D01*
X156068262Y-96953394D01*
X156068262Y-96554019D01*
X156082614Y-96519371D01*
X156117262Y-96505019D01*
X156151910Y-96519371D01*
X156159695Y-96529516D01*
X156172740Y-96552111D01*
X156228689Y-96608060D01*
X156297211Y-96647621D01*
X156332678Y-96657124D01*
X156373636Y-96668100D01*
X156373638Y-96668100D01*
X156452764Y-96668100D01*
X156503713Y-96654447D01*
X156529189Y-96647621D01*
X156543763Y-96639206D01*
X156580943Y-96634311D01*
X156610697Y-96657141D01*
X156617262Y-96681642D01*
X156617262Y-96953397D01*
X156630925Y-97022084D01*
X156630925Y-97022085D01*
X156630926Y-97022086D01*
X156638509Y-97033435D01*
X156682975Y-97099984D01*
X156714611Y-97121122D01*
X156760874Y-97152034D01*
X156829566Y-97165698D01*
X156936139Y-97165698D01*
X156970787Y-97180050D01*
X156985139Y-97214698D01*
X156982547Y-97230423D01*
X156980993Y-97235007D01*
X156975042Y-97245316D01*
X156965746Y-97280006D01*
X156965232Y-97281525D01*
X156953842Y-97294527D01*
X156943323Y-97308236D01*
X156941640Y-97308457D01*
X156940521Y-97309735D01*
X156923276Y-97310874D01*
X156906141Y-97313130D01*
X156903802Y-97312161D01*
X156903099Y-97312208D01*
X156902366Y-97311566D01*
X156894324Y-97308235D01*
X156873266Y-97296077D01*
X156796840Y-97275598D01*
X156796838Y-97275598D01*
X156717714Y-97275598D01*
X156717712Y-97275598D01*
X156641286Y-97296077D01*
X156641284Y-97296077D01*
X156572764Y-97335638D01*
X156572764Y-97335639D01*
X156532157Y-97376246D01*
X156497509Y-97390598D01*
X156107846Y-97390598D01*
X156100890Y-97389913D01*
X156100889Y-97389934D01*
X156098496Y-97389698D01*
X156098495Y-97389698D01*
X156098493Y-97389698D01*
X155797031Y-97389698D01*
X155735628Y-97401911D01*
X155665998Y-97448436D01*
X155662587Y-97451848D01*
X155660674Y-97449935D01*
X155637246Y-97465537D01*
X155600475Y-97458163D01*
X155593548Y-97451236D01*
X155592937Y-97451848D01*
X155589525Y-97448436D01*
X155519895Y-97401911D01*
X155514646Y-97400867D01*
X155458495Y-97389698D01*
X155458492Y-97389698D01*
X155429894Y-97389698D01*
X155395246Y-97375346D01*
X154812614Y-96792714D01*
X154798262Y-96758066D01*
X154798262Y-96602330D01*
X154812614Y-96567682D01*
X154855097Y-96525199D01*
X154901608Y-96478687D01*
X154925919Y-96466703D01*
X154925659Y-96465732D01*
X154953394Y-96458299D01*
X155005189Y-96444421D01*
X155073711Y-96404860D01*
X155129660Y-96348911D01*
X155169221Y-96280389D01*
X155185563Y-96219403D01*
X155189700Y-96203963D01*
X155189700Y-96124836D01*
X155177803Y-96080438D01*
X155169221Y-96048411D01*
X155169220Y-96048409D01*
X155169220Y-96048408D01*
X155134835Y-95988853D01*
X155129660Y-95979889D01*
X155073711Y-95923940D01*
X155063111Y-95917820D01*
X155005190Y-95884379D01*
X154928764Y-95863900D01*
X154928762Y-95863900D01*
X154849638Y-95863900D01*
X154849636Y-95863900D01*
X154773210Y-95884379D01*
X154773208Y-95884379D01*
X154704688Y-95923940D01*
X154704688Y-95923941D01*
X154648741Y-95979888D01*
X154648740Y-95979888D01*
X154609179Y-96048408D01*
X154609179Y-96048410D01*
X154588700Y-96124836D01*
X154588700Y-96145698D01*
X154574348Y-96180346D01*
X154539700Y-96194698D01*
X154289562Y-96194698D01*
X154220873Y-96208361D01*
X154219204Y-96209053D01*
X154217398Y-96209052D01*
X154216141Y-96209303D01*
X154216091Y-96209052D01*
X154181701Y-96209051D01*
X154155184Y-96182531D01*
X154155186Y-96145028D01*
X154165806Y-96129134D01*
X154173827Y-96121114D01*
X154198262Y-96062123D01*
X154198262Y-95998273D01*
X154198262Y-95751527D01*
X154201993Y-95732773D01*
X154202075Y-95732572D01*
X154202262Y-95732123D01*
X154202262Y-95668273D01*
X154202262Y-92215975D01*
X154216614Y-92181327D01*
X154573825Y-91824116D01*
X154573827Y-91824114D01*
X154589084Y-91787279D01*
X154615602Y-91760761D01*
X154624791Y-91757973D01*
X154654650Y-91752034D01*
X154732548Y-91699984D01*
X154784598Y-91622086D01*
X154798262Y-91553394D01*
X154798262Y-91007002D01*
X154791550Y-90973258D01*
X154798866Y-90936475D01*
X154830048Y-90915640D01*
X154839608Y-90914698D01*
X155094985Y-90914698D01*
X155129633Y-90929050D01*
X155332910Y-91132327D01*
X155347262Y-91166975D01*
X155347262Y-91553397D01*
X155360925Y-91622084D01*
X155360925Y-91622085D01*
X155360926Y-91622086D01*
X155363083Y-91625314D01*
X155412975Y-91699984D01*
X155446190Y-91722177D01*
X155490874Y-91752034D01*
X155559566Y-91765698D01*
X155855958Y-91765698D01*
X155924650Y-91752034D01*
X156002548Y-91699984D01*
X156054598Y-91622086D01*
X156068262Y-91553394D01*
X156068262Y-91007002D01*
X156054598Y-90938310D01*
X156023685Y-90892045D01*
X156002548Y-90860411D01*
X155944899Y-90821892D01*
X155924650Y-90808362D01*
X155924648Y-90808361D01*
X155923698Y-90807968D01*
X155922969Y-90807239D01*
X155920637Y-90805681D01*
X155920947Y-90805216D01*
X155897180Y-90781449D01*
X155897180Y-90743946D01*
X155923699Y-90717428D01*
X155942450Y-90713698D01*
X156163985Y-90713698D01*
X156198633Y-90728050D01*
X156602910Y-91132327D01*
X156617262Y-91166975D01*
X156617262Y-91553397D01*
X156630925Y-91622084D01*
X156630925Y-91622085D01*
X156630926Y-91622086D01*
X156633083Y-91625314D01*
X156682975Y-91699984D01*
X156716190Y-91722177D01*
X156760874Y-91752034D01*
X156829566Y-91765698D01*
X157125958Y-91765698D01*
X157194650Y-91752034D01*
X157272548Y-91699984D01*
X157324598Y-91622086D01*
X157338262Y-91553394D01*
X157338262Y-91007002D01*
X157324598Y-90938310D01*
X157293685Y-90892045D01*
X157272548Y-90860411D01*
X157206093Y-90816008D01*
X157194650Y-90808362D01*
X157194649Y-90808361D01*
X157194648Y-90808361D01*
X157125961Y-90794698D01*
X157125958Y-90794698D01*
X156829566Y-90794698D01*
X156807039Y-90799179D01*
X156763233Y-90807892D01*
X156726451Y-90800575D01*
X156719026Y-90794481D01*
X156520891Y-90596346D01*
X156506539Y-90561698D01*
X156520891Y-90527050D01*
X156555539Y-90512698D01*
X157232985Y-90512698D01*
X157267633Y-90527050D01*
X157872910Y-91132327D01*
X157887262Y-91166975D01*
X157887262Y-91553397D01*
X157900925Y-91622084D01*
X157900925Y-91622085D01*
X157900926Y-91622086D01*
X157903083Y-91625314D01*
X157952975Y-91699984D01*
X157986190Y-91722177D01*
X158030874Y-91752034D01*
X158099566Y-91765698D01*
X158395958Y-91765698D01*
X158464650Y-91752034D01*
X158542548Y-91699984D01*
X158594598Y-91622086D01*
X158608262Y-91553394D01*
X158608262Y-91531346D01*
X159437262Y-91531346D01*
X159437262Y-92607654D01*
X159449687Y-92670117D01*
X159452377Y-92683642D01*
X159509951Y-92769810D01*
X159555879Y-92800497D01*
X159596120Y-92827385D01*
X159672108Y-92842500D01*
X159672111Y-92842500D01*
X160023413Y-92842500D01*
X160023416Y-92842500D01*
X160099404Y-92827385D01*
X160185572Y-92769810D01*
X160243147Y-92683642D01*
X160258262Y-92607654D01*
X160258262Y-91531346D01*
X160243147Y-91455358D01*
X160212642Y-91409703D01*
X160185572Y-91369189D01*
X160099404Y-91311615D01*
X160097348Y-91311206D01*
X160023416Y-91296500D01*
X159672108Y-91296500D01*
X159619296Y-91307005D01*
X159596119Y-91311615D01*
X159509951Y-91369189D01*
X159452377Y-91455357D01*
X159451797Y-91458273D01*
X159437262Y-91531346D01*
X158608262Y-91531346D01*
X158608262Y-91007002D01*
X158594598Y-90938310D01*
X158563685Y-90892045D01*
X158542548Y-90860411D01*
X158476093Y-90816008D01*
X158464650Y-90808362D01*
X158464649Y-90808361D01*
X158464648Y-90808361D01*
X158395961Y-90794698D01*
X158395958Y-90794698D01*
X158099566Y-90794698D01*
X158077039Y-90799179D01*
X158033233Y-90807892D01*
X157996451Y-90800575D01*
X157989026Y-90794481D01*
X157410680Y-90216134D01*
X157407633Y-90214872D01*
X157393402Y-90208977D01*
X157351688Y-90191698D01*
X157351687Y-90191698D01*
X155658384Y-90191698D01*
X155623736Y-90177346D01*
X155609384Y-90142698D01*
X155615948Y-90118198D01*
X155617997Y-90114649D01*
X155649176Y-90060645D01*
X155669314Y-89985488D01*
X155677151Y-89956243D01*
X155677151Y-89848153D01*
X155677150Y-89848150D01*
X155676445Y-89845520D01*
X157997262Y-89845520D01*
X157997262Y-90174875D01*
X158011795Y-90247937D01*
X158067160Y-90330799D01*
X158140173Y-90379583D01*
X158150022Y-90386164D01*
X158223088Y-90400698D01*
X158490274Y-90400698D01*
X158524922Y-90415050D01*
X158945322Y-90835451D01*
X158945323Y-90835451D01*
X158945325Y-90835453D01*
X159022693Y-90867500D01*
X159022695Y-90867500D01*
X160639630Y-90867500D01*
X160639632Y-90867500D01*
X160717000Y-90835453D01*
X160976215Y-90576238D01*
X160977308Y-90575145D01*
X161002394Y-90561735D01*
X161049404Y-90552385D01*
X161135572Y-90494810D01*
X161193147Y-90408642D01*
X161208262Y-90332654D01*
X161208262Y-89256346D01*
X161197265Y-89201060D01*
X161198244Y-89196137D01*
X161196323Y-89191500D01*
X161201792Y-89178294D01*
X161204581Y-89164277D01*
X161208754Y-89161488D01*
X161210675Y-89156852D01*
X161223878Y-89151382D01*
X161235763Y-89143442D01*
X161245323Y-89142500D01*
X161300201Y-89142500D01*
X161334849Y-89156852D01*
X161349201Y-89191500D01*
X161348259Y-89201060D01*
X161337262Y-89256342D01*
X161337262Y-89256346D01*
X161337262Y-90332654D01*
X161349728Y-90395325D01*
X161352377Y-90408642D01*
X161409951Y-90494810D01*
X161442542Y-90516586D01*
X161496120Y-90552385D01*
X161572108Y-90567500D01*
X161572111Y-90567500D01*
X161923413Y-90567500D01*
X161923416Y-90567500D01*
X161999404Y-90552385D01*
X162085572Y-90494810D01*
X162143147Y-90408642D01*
X162158262Y-90332654D01*
X162158262Y-89701988D01*
X162172614Y-89667340D01*
X162207102Y-89632852D01*
X162241750Y-89618500D01*
X162654136Y-89618500D01*
X162688784Y-89632852D01*
X162703136Y-89667500D01*
X162688784Y-89702148D01*
X162681359Y-89708242D01*
X162649397Y-89729597D01*
X162594033Y-89812458D01*
X162579500Y-89885520D01*
X162579500Y-90214875D01*
X162594033Y-90287937D01*
X162649398Y-90370799D01*
X162715626Y-90415050D01*
X162732260Y-90426164D01*
X162805326Y-90440698D01*
X163194674Y-90440698D01*
X163267740Y-90426164D01*
X163350601Y-90370799D01*
X163350605Y-90370792D01*
X163351957Y-90369442D01*
X163353738Y-90368703D01*
X163354615Y-90368118D01*
X163354731Y-90368292D01*
X163386602Y-90355083D01*
X163421253Y-90369428D01*
X163429043Y-90379576D01*
X163463214Y-90438763D01*
X163478187Y-90464698D01*
X163478568Y-90465357D01*
X163554997Y-90541786D01*
X163555000Y-90541787D01*
X163555003Y-90541790D01*
X163648600Y-90595828D01*
X163648602Y-90595828D01*
X163648603Y-90595829D01*
X163661654Y-90599326D01*
X163753004Y-90623804D01*
X163753007Y-90623804D01*
X163861095Y-90623804D01*
X163913972Y-90609635D01*
X163965497Y-90595829D01*
X164018083Y-90565469D01*
X164055204Y-90544037D01*
X164059103Y-90541786D01*
X164097852Y-90503037D01*
X164132500Y-90488685D01*
X164167148Y-90503037D01*
X164181500Y-90537685D01*
X164181500Y-90840654D01*
X164194097Y-90903982D01*
X164196615Y-90916642D01*
X164254189Y-91002810D01*
X164302540Y-91035116D01*
X164340358Y-91060385D01*
X164416346Y-91075500D01*
X164416349Y-91075500D01*
X164737766Y-91075500D01*
X164772414Y-91089852D01*
X164786766Y-91124500D01*
X164772414Y-91159148D01*
X164762265Y-91166936D01*
X164739233Y-91180232D01*
X164739227Y-91180237D01*
X164662803Y-91256661D01*
X164662796Y-91256670D01*
X164608758Y-91350267D01*
X164608757Y-91350271D01*
X164580783Y-91454671D01*
X164580783Y-91459807D01*
X164566431Y-91494455D01*
X164343539Y-91717347D01*
X164343538Y-91717347D01*
X164302660Y-91788148D01*
X164302659Y-91788152D01*
X164288942Y-91839344D01*
X164268838Y-91867401D01*
X164254190Y-91877189D01*
X164216534Y-91933547D01*
X164196615Y-91963358D01*
X164181500Y-92039346D01*
X164181500Y-92039347D01*
X164181500Y-92039349D01*
X164181500Y-92517999D01*
X164167148Y-92552647D01*
X164132500Y-92566999D01*
X163218407Y-92566999D01*
X163208259Y-92562795D01*
X163183759Y-92552648D01*
X163173123Y-92526971D01*
X163169407Y-92518000D01*
X163169407Y-92476814D01*
X163169407Y-92436569D01*
X163169406Y-92436566D01*
X163169406Y-92326715D01*
X163157194Y-92265314D01*
X163126916Y-92220000D01*
X163110668Y-92195683D01*
X163107257Y-92192272D01*
X163109180Y-92190348D01*
X163093583Y-92167015D01*
X163100893Y-92130231D01*
X163107879Y-92123244D01*
X163107257Y-92122622D01*
X163110668Y-92119210D01*
X163113363Y-92115177D01*
X163157194Y-92049580D01*
X163169407Y-91988180D01*
X163169406Y-91843996D01*
X163173480Y-91824435D01*
X163176463Y-91817581D01*
X163178454Y-91815592D01*
X163200215Y-91763055D01*
X163210500Y-91738225D01*
X163210500Y-91477762D01*
X163224852Y-91443114D01*
X163249938Y-91429704D01*
X163267740Y-91426164D01*
X163350601Y-91370799D01*
X163405966Y-91287938D01*
X163420500Y-91214872D01*
X163420500Y-90885524D01*
X163405966Y-90812458D01*
X163401070Y-90805130D01*
X163350601Y-90729596D01*
X163267739Y-90674231D01*
X163194677Y-90659698D01*
X163194674Y-90659698D01*
X162805326Y-90659698D01*
X162805322Y-90659698D01*
X162732260Y-90674231D01*
X162649398Y-90729596D01*
X162591353Y-90816470D01*
X162589500Y-90815232D01*
X162568751Y-90835972D01*
X162550010Y-90839698D01*
X161112692Y-90839698D01*
X161035325Y-90871745D01*
X161020374Y-90886697D01*
X160976112Y-90930959D01*
X160976111Y-90930960D01*
X160825518Y-91081553D01*
X160671631Y-91235439D01*
X160618217Y-91288853D01*
X160593129Y-91302263D01*
X160546121Y-91311614D01*
X160459951Y-91369189D01*
X160402377Y-91455357D01*
X160401797Y-91458273D01*
X160387262Y-91531346D01*
X160387262Y-92607654D01*
X160399687Y-92670117D01*
X160402377Y-92683642D01*
X160459951Y-92769810D01*
X160505879Y-92800497D01*
X160546120Y-92827385D01*
X160622108Y-92842500D01*
X160622111Y-92842500D01*
X160973413Y-92842500D01*
X160973416Y-92842500D01*
X161049404Y-92827385D01*
X161135572Y-92769810D01*
X161193147Y-92683642D01*
X161208262Y-92607654D01*
X161208262Y-91531346D01*
X161193147Y-91455358D01*
X161156987Y-91401241D01*
X161154200Y-91387226D01*
X161148730Y-91374019D01*
X161150651Y-91369381D01*
X161149672Y-91364459D01*
X161163080Y-91339372D01*
X161227405Y-91275048D01*
X161262052Y-91260698D01*
X161410790Y-91260698D01*
X161445438Y-91275050D01*
X161459790Y-91309698D01*
X161445438Y-91344346D01*
X161438013Y-91350440D01*
X161409951Y-91369189D01*
X161352377Y-91455357D01*
X161351797Y-91458273D01*
X161337262Y-91531346D01*
X161337262Y-92607654D01*
X161349687Y-92670117D01*
X161352377Y-92683642D01*
X161409951Y-92769810D01*
X161455879Y-92800497D01*
X161496120Y-92827385D01*
X161572108Y-92842500D01*
X161572111Y-92842500D01*
X161923413Y-92842500D01*
X161923416Y-92842500D01*
X161999404Y-92827385D01*
X162006208Y-92822838D01*
X162042986Y-92815520D01*
X162068079Y-92828931D01*
X162365109Y-93125961D01*
X162380348Y-93134759D01*
X162435909Y-93166838D01*
X162435911Y-93166838D01*
X162435912Y-93166839D01*
X162445843Y-93169500D01*
X162514879Y-93187999D01*
X162514882Y-93187999D01*
X162514883Y-93187999D01*
X164167989Y-93187999D01*
X164202637Y-93202351D01*
X164208731Y-93209776D01*
X164254189Y-93277810D01*
X164311764Y-93316279D01*
X164340358Y-93335385D01*
X164416346Y-93350500D01*
X164416349Y-93350500D01*
X164767651Y-93350500D01*
X164767654Y-93350500D01*
X164843642Y-93335385D01*
X164929810Y-93277810D01*
X164987385Y-93191642D01*
X165002500Y-93115654D01*
X165002500Y-92039346D01*
X164990565Y-91979344D01*
X164991547Y-91974407D01*
X164989623Y-91969754D01*
X164995095Y-91956565D01*
X164997881Y-91942562D01*
X165003994Y-91935118D01*
X165004455Y-91934656D01*
X165005567Y-91933547D01*
X165005896Y-91933411D01*
X165040193Y-91919217D01*
X165045328Y-91919217D01*
X165067841Y-91913184D01*
X165085478Y-91908458D01*
X165122659Y-91913352D01*
X165145490Y-91943105D01*
X165146219Y-91965347D01*
X165143814Y-91977439D01*
X165131500Y-92039346D01*
X165131500Y-93115654D01*
X165142211Y-93169500D01*
X165146615Y-93191642D01*
X165204189Y-93277810D01*
X165261764Y-93316279D01*
X165290358Y-93335385D01*
X165366346Y-93350500D01*
X165366349Y-93350500D01*
X165717651Y-93350500D01*
X165717654Y-93350500D01*
X165793642Y-93335385D01*
X165879810Y-93277810D01*
X165937385Y-93191642D01*
X165952500Y-93115654D01*
X165952500Y-92039346D01*
X165937385Y-91963358D01*
X165912321Y-91925846D01*
X165879810Y-91877189D01*
X165793639Y-91819613D01*
X165791941Y-91819276D01*
X165790499Y-91818312D01*
X165789182Y-91817767D01*
X165789290Y-91817505D01*
X165760758Y-91798441D01*
X165752500Y-91771218D01*
X165752500Y-91108781D01*
X165766852Y-91074133D01*
X165791942Y-91060723D01*
X165793642Y-91060385D01*
X165879810Y-91002810D01*
X165937385Y-90916642D01*
X165952500Y-90840654D01*
X165952500Y-89764346D01*
X165937385Y-89688358D01*
X165901219Y-89634231D01*
X165879810Y-89602189D01*
X165793642Y-89544615D01*
X165793632Y-89544613D01*
X165717654Y-89529500D01*
X165366346Y-89529500D01*
X165309355Y-89540836D01*
X165290357Y-89544615D01*
X165204189Y-89602189D01*
X165146615Y-89688357D01*
X165143928Y-89701868D01*
X165131500Y-89764346D01*
X165131500Y-90840654D01*
X165144097Y-90903982D01*
X165146615Y-90916642D01*
X165204189Y-91002810D01*
X165241480Y-91027726D01*
X165290358Y-91060385D01*
X165292056Y-91060722D01*
X165293496Y-91061684D01*
X165294818Y-91062232D01*
X165294709Y-91062494D01*
X165303943Y-91068663D01*
X165317148Y-91074133D01*
X165319067Y-91078766D01*
X165323239Y-91081553D01*
X165331500Y-91108781D01*
X165331500Y-91150103D01*
X165317148Y-91184751D01*
X165282500Y-91199103D01*
X165247852Y-91184751D01*
X165243338Y-91180237D01*
X165243336Y-91180235D01*
X165243333Y-91180233D01*
X165243329Y-91180230D01*
X165149732Y-91126192D01*
X165149728Y-91126191D01*
X165045329Y-91098217D01*
X165045326Y-91098217D01*
X164948555Y-91098217D01*
X164913907Y-91083865D01*
X164899555Y-91049217D01*
X164913907Y-91014569D01*
X164921333Y-91008475D01*
X164929809Y-91002811D01*
X164929810Y-91002810D01*
X164987385Y-90916642D01*
X165002500Y-90840654D01*
X165002500Y-89764346D01*
X164987385Y-89688358D01*
X164951219Y-89634231D01*
X164929810Y-89602189D01*
X164843642Y-89544615D01*
X164843632Y-89544613D01*
X164796632Y-89535263D01*
X164771545Y-89521854D01*
X164711239Y-89461548D01*
X164475840Y-89226148D01*
X164461488Y-89191500D01*
X164475840Y-89156852D01*
X164510488Y-89142500D01*
X165676511Y-89142500D01*
X165711159Y-89156852D01*
X166126679Y-89572372D01*
X166141031Y-89607020D01*
X166132773Y-89634243D01*
X166096615Y-89688357D01*
X166093928Y-89701868D01*
X166081500Y-89764346D01*
X166081500Y-90840654D01*
X166094097Y-90903982D01*
X166096615Y-90916642D01*
X166154189Y-91002810D01*
X166202540Y-91035116D01*
X166240358Y-91060385D01*
X166316346Y-91075500D01*
X166316349Y-91075500D01*
X166667651Y-91075500D01*
X166667654Y-91075500D01*
X166743642Y-91060385D01*
X166829810Y-91002810D01*
X166887385Y-90916642D01*
X166902500Y-90840654D01*
X166902500Y-89764346D01*
X166887385Y-89688358D01*
X166851219Y-89634231D01*
X166829810Y-89602189D01*
X166743639Y-89544613D01*
X166696635Y-89535264D01*
X166671546Y-89521854D01*
X165903241Y-88753549D01*
X165903239Y-88753548D01*
X165903238Y-88753547D01*
X165857918Y-88734774D01*
X165825871Y-88721500D01*
X165825870Y-88721500D01*
X160089634Y-88721500D01*
X160005892Y-88721500D01*
X160005890Y-88721500D01*
X159948482Y-88745280D01*
X159932834Y-88751762D01*
X159928522Y-88753548D01*
X159928521Y-88753548D01*
X159728523Y-88953547D01*
X159728523Y-88953548D01*
X159698289Y-88983782D01*
X159668217Y-89013854D01*
X159643129Y-89027263D01*
X159596121Y-89036614D01*
X159509951Y-89094189D01*
X159452377Y-89180357D01*
X159452377Y-89180358D01*
X159437262Y-89256346D01*
X159437262Y-89256347D01*
X159437262Y-89256349D01*
X159437262Y-90332657D01*
X159448259Y-90387940D01*
X159440943Y-90424723D01*
X159409761Y-90445558D01*
X159400201Y-90446500D01*
X159172052Y-90446500D01*
X159137404Y-90432148D01*
X158852614Y-90147358D01*
X158838262Y-90112710D01*
X158838262Y-89845524D01*
X158838261Y-89845520D01*
X158836721Y-89837780D01*
X158823728Y-89772458D01*
X158792850Y-89726245D01*
X158768363Y-89689596D01*
X158685501Y-89634231D01*
X158612439Y-89619698D01*
X158612436Y-89619698D01*
X158223088Y-89619698D01*
X158223084Y-89619698D01*
X158150022Y-89634231D01*
X158067160Y-89689596D01*
X158011795Y-89772458D01*
X157997262Y-89845520D01*
X155676445Y-89845520D01*
X155659808Y-89783431D01*
X155649176Y-89743751D01*
X155649175Y-89743750D01*
X155649175Y-89743748D01*
X155595137Y-89650151D01*
X155595134Y-89650148D01*
X155595133Y-89650145D01*
X155518704Y-89573716D01*
X155518701Y-89573714D01*
X155518697Y-89573711D01*
X155425100Y-89519673D01*
X155425096Y-89519672D01*
X155320697Y-89491698D01*
X155320694Y-89491698D01*
X155212608Y-89491698D01*
X155212605Y-89491698D01*
X155108205Y-89519672D01*
X155108201Y-89519673D01*
X155014604Y-89573711D01*
X155014595Y-89573718D01*
X154938171Y-89650142D01*
X154938164Y-89650151D01*
X154884126Y-89743748D01*
X154884125Y-89743752D01*
X154856151Y-89848152D01*
X154856151Y-89956243D01*
X154882348Y-90054010D01*
X154884126Y-90060645D01*
X154915305Y-90114649D01*
X154917354Y-90118198D01*
X154922248Y-90155381D01*
X154899418Y-90185134D01*
X154874918Y-90191698D01*
X153996536Y-90191698D01*
X153953408Y-90209563D01*
X153940592Y-90214872D01*
X153937545Y-90216134D01*
X153937543Y-90216135D01*
X153859332Y-90294346D01*
X153824684Y-90308698D01*
X153790036Y-90294346D01*
X153775684Y-90259698D01*
X153778697Y-90242782D01*
X153780146Y-90238841D01*
X153792584Y-90217299D01*
X153804688Y-90172121D01*
X153805458Y-90170030D01*
X153808401Y-90166839D01*
X153816795Y-90152300D01*
X153953296Y-90015800D01*
X153978380Y-90002392D01*
X154016924Y-89994726D01*
X154099785Y-89939361D01*
X154155150Y-89856500D01*
X154169684Y-89783434D01*
X154169684Y-89454086D01*
X154155150Y-89381020D01*
X154147651Y-89369797D01*
X154099785Y-89298158D01*
X154016923Y-89242793D01*
X153943861Y-89228260D01*
X153943858Y-89228260D01*
X153554510Y-89228260D01*
X153554506Y-89228260D01*
X153481444Y-89242793D01*
X153398582Y-89298158D01*
X153343217Y-89381020D01*
X153328684Y-89454082D01*
X153328684Y-89454086D01*
X153328684Y-89783434D01*
X153331231Y-89796239D01*
X153331922Y-89799711D01*
X153324605Y-89836493D01*
X153313703Y-89848136D01*
X153312596Y-89848985D01*
X153254783Y-89906799D01*
X153254782Y-89906799D01*
X153213904Y-89977600D01*
X153213903Y-89977604D01*
X153192744Y-90056570D01*
X153192744Y-90138331D01*
X153213903Y-90217297D01*
X153213904Y-90217301D01*
X153231593Y-90247938D01*
X153254782Y-90288102D01*
X153312593Y-90345913D01*
X153334393Y-90358499D01*
X153383393Y-90386790D01*
X153383395Y-90386790D01*
X153383396Y-90386791D01*
X153402418Y-90391888D01*
X153462363Y-90407951D01*
X153462366Y-90407951D01*
X153544124Y-90407951D01*
X153583607Y-90397371D01*
X153623092Y-90386791D01*
X153640989Y-90376457D01*
X153678170Y-90371562D01*
X153707924Y-90394392D01*
X153712820Y-90431574D01*
X153700137Y-90453541D01*
X153275985Y-90877693D01*
X153241337Y-90892045D01*
X153206689Y-90877693D01*
X153192337Y-90843045D01*
X153192337Y-90776882D01*
X153192337Y-90776881D01*
X153180125Y-90715480D01*
X153157504Y-90681626D01*
X153133600Y-90645850D01*
X153063971Y-90599326D01*
X153002571Y-90587113D01*
X153002567Y-90587113D01*
X152761107Y-90587113D01*
X152699704Y-90599326D01*
X152627736Y-90647414D01*
X152590953Y-90654730D01*
X152565865Y-90641320D01*
X152096533Y-90171988D01*
X152082181Y-90137340D01*
X152082181Y-90104523D01*
X152072925Y-90069982D01*
X152061702Y-90028098D01*
X152061701Y-90028096D01*
X152061701Y-90028095D01*
X152026615Y-89967326D01*
X152022141Y-89959576D01*
X151966192Y-89903627D01*
X151931335Y-89883502D01*
X151918095Y-89875858D01*
X151908594Y-89863475D01*
X151897475Y-89852530D01*
X151897677Y-89849247D01*
X151895265Y-89846104D01*
X151897180Y-89815028D01*
X151898457Y-89811874D01*
X151918021Y-89777989D01*
X151929434Y-89735395D01*
X151930566Y-89732601D01*
X151941765Y-89721224D01*
X151951482Y-89708561D01*
X151954640Y-89708145D01*
X151956875Y-89705875D01*
X151972838Y-89705749D01*
X151988664Y-89703666D01*
X151992011Y-89705598D01*
X151994377Y-89705580D01*
X151997778Y-89708927D01*
X152010630Y-89716348D01*
X152020528Y-89726246D01*
X152065764Y-89752363D01*
X152086524Y-89764349D01*
X152089050Y-89765807D01*
X152124517Y-89775310D01*
X152165475Y-89786286D01*
X152165477Y-89786286D01*
X152244603Y-89786286D01*
X152275565Y-89777989D01*
X152321028Y-89765807D01*
X152323554Y-89764349D01*
X152344305Y-89752368D01*
X152389550Y-89726246D01*
X152445499Y-89670297D01*
X152482032Y-89607020D01*
X152485059Y-89601777D01*
X152485059Y-89601776D01*
X152485060Y-89601775D01*
X152504054Y-89530891D01*
X152505539Y-89525349D01*
X152505539Y-89467918D01*
X152519891Y-89433270D01*
X152580021Y-89373140D01*
X152608262Y-89304961D01*
X152608262Y-89231165D01*
X152608262Y-89022257D01*
X152622614Y-88987609D01*
X152631306Y-88981801D01*
X152630882Y-88981166D01*
X152634894Y-88978485D01*
X152634895Y-88978485D01*
X152704524Y-88931960D01*
X152751049Y-88862331D01*
X152763262Y-88800931D01*
X152763261Y-88559466D01*
X152751049Y-88498065D01*
X152735610Y-88474960D01*
X152704524Y-88428435D01*
X152634895Y-88381911D01*
X152573495Y-88369698D01*
X152573491Y-88369698D01*
X152272031Y-88369698D01*
X152210628Y-88381911D01*
X152140999Y-88428435D01*
X152094475Y-88498064D01*
X152094475Y-88498065D01*
X152082262Y-88559465D01*
X152082262Y-88559466D01*
X152082262Y-88559468D01*
X152082262Y-88800928D01*
X152094475Y-88862331D01*
X152140999Y-88931960D01*
X152173307Y-88953547D01*
X152210629Y-88978485D01*
X152214642Y-88981166D01*
X152213259Y-88983235D01*
X152233529Y-89003497D01*
X152237262Y-89022257D01*
X152237262Y-89136286D01*
X152222910Y-89170934D01*
X152188262Y-89185286D01*
X152165475Y-89185286D01*
X152089049Y-89205765D01*
X152089047Y-89205765D01*
X152020527Y-89245326D01*
X152020527Y-89245327D01*
X151964580Y-89301274D01*
X151964579Y-89301274D01*
X151925018Y-89369794D01*
X151925018Y-89369796D01*
X151914386Y-89409472D01*
X151891555Y-89439225D01*
X151854373Y-89444119D01*
X151832408Y-89431437D01*
X151822511Y-89421540D01*
X151753990Y-89381979D01*
X151677564Y-89361500D01*
X151677562Y-89361500D01*
X151598438Y-89361500D01*
X151598436Y-89361500D01*
X151522010Y-89381979D01*
X151522008Y-89381979D01*
X151453488Y-89421540D01*
X151453488Y-89421541D01*
X151397541Y-89477488D01*
X151397540Y-89477488D01*
X151357979Y-89546008D01*
X151357979Y-89546010D01*
X151337500Y-89622436D01*
X151337500Y-89667220D01*
X151323148Y-89701868D01*
X151288500Y-89716220D01*
X151261987Y-89716220D01*
X151185561Y-89736699D01*
X151185559Y-89736699D01*
X151117039Y-89776260D01*
X151117039Y-89776261D01*
X151061093Y-89832206D01*
X151061091Y-89832208D01*
X151061091Y-89832209D01*
X151056350Y-89840421D01*
X151028740Y-89888242D01*
X150998986Y-89911072D01*
X150961805Y-89906176D01*
X150933752Y-89889979D01*
X150857326Y-89869500D01*
X150857324Y-89869500D01*
X150778200Y-89869500D01*
X150778198Y-89869500D01*
X150701772Y-89889979D01*
X150701770Y-89889979D01*
X150633250Y-89929539D01*
X150633248Y-89929540D01*
X150626847Y-89935942D01*
X150592198Y-89950292D01*
X150564979Y-89942034D01*
X150519896Y-89911911D01*
X150507615Y-89909468D01*
X150458495Y-89899698D01*
X150458491Y-89899698D01*
X150217031Y-89899698D01*
X150155628Y-89911911D01*
X150085999Y-89958435D01*
X150039474Y-90028066D01*
X150037339Y-90038800D01*
X150016503Y-90069982D01*
X150008033Y-90074510D01*
X149987683Y-90082939D01*
X149627966Y-90442656D01*
X149593318Y-90457008D01*
X149558670Y-90442656D01*
X149544318Y-90408008D01*
X149545987Y-90395331D01*
X149560500Y-90341169D01*
X149560500Y-90252831D01*
X149560500Y-90252829D01*
X149544493Y-90193092D01*
X149537636Y-90167502D01*
X149493467Y-90090998D01*
X149431002Y-90028533D01*
X149431000Y-90028532D01*
X149430998Y-90028530D01*
X149385722Y-90002391D01*
X149354498Y-89984364D01*
X149354495Y-89984363D01*
X149269171Y-89961500D01*
X149269169Y-89961500D01*
X149180831Y-89961500D01*
X149180829Y-89961500D01*
X149095504Y-89984363D01*
X149095502Y-89984364D01*
X149019001Y-90028530D01*
X149018995Y-90028535D01*
X148956535Y-90090995D01*
X148956530Y-90091001D01*
X148912364Y-90167502D01*
X148912363Y-90167504D01*
X148889500Y-90252829D01*
X148889500Y-90341170D01*
X148912363Y-90426495D01*
X148912364Y-90426498D01*
X148927977Y-90453541D01*
X148956530Y-90502998D01*
X148956532Y-90503000D01*
X148956533Y-90503002D01*
X149018998Y-90565467D01*
X149018999Y-90565468D01*
X149019001Y-90565469D01*
X149024225Y-90568485D01*
X149095502Y-90609636D01*
X149138166Y-90621068D01*
X149180829Y-90632500D01*
X149180831Y-90632500D01*
X149269171Y-90632500D01*
X149295368Y-90625479D01*
X149323327Y-90617988D01*
X149329890Y-90618852D01*
X149336008Y-90616318D01*
X149347825Y-90621212D01*
X149360508Y-90622882D01*
X149364539Y-90628135D01*
X149370656Y-90630669D01*
X149375551Y-90642486D01*
X149383339Y-90652635D01*
X149382474Y-90659199D01*
X149385009Y-90665317D01*
X149380114Y-90677134D01*
X149378445Y-90689817D01*
X149370658Y-90699965D01*
X149356926Y-90713698D01*
X149352685Y-90717939D01*
X149337371Y-90733253D01*
X149300502Y-90770121D01*
X149299447Y-90772669D01*
X149272924Y-90799184D01*
X149235421Y-90799179D01*
X149226956Y-90794653D01*
X149194107Y-90772704D01*
X149188702Y-90771629D01*
X149153856Y-90764698D01*
X148961668Y-90764698D01*
X148931479Y-90770702D01*
X148921416Y-90772704D01*
X148921414Y-90772705D01*
X148919483Y-90773996D01*
X148917205Y-90774448D01*
X148916959Y-90774551D01*
X148916938Y-90774501D01*
X148882701Y-90781311D01*
X148851519Y-90760474D01*
X148843262Y-90733253D01*
X148843262Y-90658063D01*
X148840614Y-90651671D01*
X148838554Y-90620238D01*
X148839700Y-90615962D01*
X148839700Y-90536838D01*
X148839700Y-90536836D01*
X148824791Y-90481198D01*
X148819221Y-90460411D01*
X148819220Y-90460409D01*
X148819220Y-90460408D01*
X148782899Y-90397500D01*
X148779660Y-90391889D01*
X148723711Y-90335940D01*
X148718025Y-90332657D01*
X148655190Y-90296379D01*
X148578764Y-90275900D01*
X148578762Y-90275900D01*
X148499638Y-90275900D01*
X148499636Y-90275900D01*
X148423210Y-90296379D01*
X148423208Y-90296379D01*
X148354688Y-90335940D01*
X148354688Y-90335941D01*
X148298741Y-90391888D01*
X148298740Y-90391888D01*
X148259179Y-90460408D01*
X148259179Y-90460410D01*
X148238700Y-90536836D01*
X148238700Y-90615963D01*
X148259179Y-90692389D01*
X148260409Y-90695359D01*
X148259109Y-90695897D01*
X148263386Y-90728380D01*
X148240556Y-90758133D01*
X148216056Y-90764698D01*
X148161668Y-90764698D01*
X148131479Y-90770702D01*
X148121416Y-90772704D01*
X148084984Y-90797047D01*
X148048201Y-90804362D01*
X148030540Y-90797047D01*
X148004706Y-90779786D01*
X147994107Y-90772704D01*
X147953856Y-90764698D01*
X147761668Y-90764698D01*
X147731479Y-90770702D01*
X147721416Y-90772704D01*
X147684984Y-90797047D01*
X147648201Y-90804362D01*
X147630540Y-90797047D01*
X147604706Y-90779786D01*
X147594107Y-90772704D01*
X147553856Y-90764698D01*
X147478109Y-90764698D01*
X147443461Y-90750346D01*
X147429109Y-90715698D01*
X147443461Y-90681050D01*
X147607926Y-90516586D01*
X147854053Y-90270459D01*
X147862158Y-90250891D01*
X147886100Y-90193091D01*
X147886100Y-89537481D01*
X147900451Y-89502834D01*
X148115971Y-89287313D01*
X148150619Y-89272962D01*
X148639481Y-89272962D01*
X148639487Y-89272962D01*
X148665451Y-89269951D01*
X148771645Y-89223062D01*
X148853730Y-89140977D01*
X148900619Y-89034783D01*
X148903631Y-89008820D01*
X148903630Y-88789847D01*
X148917982Y-88755200D01*
X148952630Y-88740848D01*
X149179342Y-88740848D01*
X149213990Y-88755200D01*
X149227400Y-88780287D01*
X149228310Y-88784859D01*
X149230941Y-88798089D01*
X149286305Y-88880949D01*
X149362651Y-88931960D01*
X149369167Y-88936314D01*
X149442233Y-88950848D01*
X149771581Y-88950848D01*
X149844647Y-88936314D01*
X149927508Y-88880949D01*
X149982873Y-88798088D01*
X149997407Y-88725022D01*
X149997407Y-88335674D01*
X149993796Y-88317520D01*
X149982168Y-88259059D01*
X149989484Y-88222277D01*
X150020667Y-88201442D01*
X150030226Y-88200500D01*
X150913978Y-88200500D01*
X150948626Y-88214852D01*
G37*
%TD.AperFunction*%
%TA.AperFunction,Conductor*%
G36*
X145021410Y-91141538D02*
G01*
X145222910Y-91343038D01*
X145237262Y-91377686D01*
X145237262Y-91671292D01*
X145240440Y-91687269D01*
X145245268Y-91711543D01*
X145275768Y-91757191D01*
X145299167Y-91772825D01*
X145321417Y-91787692D01*
X145361668Y-91795698D01*
X145361671Y-91795698D01*
X145553853Y-91795698D01*
X145553856Y-91795698D01*
X145594107Y-91787692D01*
X145630539Y-91763349D01*
X145667322Y-91756033D01*
X145684985Y-91763349D01*
X145721417Y-91787692D01*
X145761668Y-91795698D01*
X145761671Y-91795698D01*
X145953853Y-91795698D01*
X145953856Y-91795698D01*
X145994107Y-91787692D01*
X146030539Y-91763349D01*
X146067322Y-91756033D01*
X146084985Y-91763349D01*
X146121417Y-91787692D01*
X146161668Y-91795698D01*
X146161671Y-91795698D01*
X146353853Y-91795698D01*
X146353856Y-91795698D01*
X146394107Y-91787692D01*
X146430539Y-91763349D01*
X146467322Y-91756033D01*
X146484985Y-91763349D01*
X146521417Y-91787692D01*
X146561668Y-91795698D01*
X146561671Y-91795698D01*
X146753853Y-91795698D01*
X146753856Y-91795698D01*
X146794107Y-91787692D01*
X146830539Y-91763349D01*
X146867322Y-91756033D01*
X146884985Y-91763349D01*
X146921417Y-91787692D01*
X146961668Y-91795698D01*
X146961671Y-91795698D01*
X147153853Y-91795698D01*
X147153856Y-91795698D01*
X147194107Y-91787692D01*
X147230539Y-91763349D01*
X147267322Y-91756033D01*
X147284985Y-91763349D01*
X147321417Y-91787692D01*
X147361668Y-91795698D01*
X147361671Y-91795698D01*
X147553853Y-91795698D01*
X147553856Y-91795698D01*
X147594107Y-91787692D01*
X147630539Y-91763349D01*
X147667322Y-91756033D01*
X147684985Y-91763349D01*
X147721417Y-91787692D01*
X147761668Y-91795698D01*
X147833972Y-91795698D01*
X147868620Y-91810050D01*
X147882972Y-91844698D01*
X147876407Y-91869198D01*
X147867741Y-91884206D01*
X147867741Y-91884208D01*
X147847262Y-91960634D01*
X147847262Y-92039761D01*
X147867741Y-92116187D01*
X147867741Y-92116189D01*
X147905349Y-92181327D01*
X147907302Y-92184709D01*
X147963251Y-92240658D01*
X147986310Y-92253971D01*
X148030023Y-92279209D01*
X148031773Y-92280219D01*
X148058218Y-92287305D01*
X148108198Y-92300698D01*
X148108200Y-92300698D01*
X148187326Y-92300698D01*
X148213992Y-92293552D01*
X148263751Y-92280219D01*
X148265501Y-92279209D01*
X148282317Y-92269500D01*
X148332273Y-92240658D01*
X148388222Y-92184709D01*
X148420585Y-92128653D01*
X148450338Y-92105824D01*
X148487520Y-92110719D01*
X148510350Y-92140471D01*
X148528825Y-92209417D01*
X148528825Y-92209419D01*
X148561599Y-92266184D01*
X148568386Y-92277939D01*
X148624335Y-92333888D01*
X148662004Y-92355636D01*
X148692231Y-92373088D01*
X148692857Y-92373449D01*
X148728324Y-92382952D01*
X148769282Y-92393928D01*
X148769284Y-92393928D01*
X148848410Y-92393928D01*
X148875076Y-92386782D01*
X148924835Y-92373449D01*
X148925461Y-92373088D01*
X148943477Y-92362686D01*
X148993357Y-92333888D01*
X149046123Y-92281121D01*
X149080769Y-92266771D01*
X149115417Y-92281122D01*
X149120161Y-92287305D01*
X149120348Y-92287162D01*
X149122301Y-92289707D01*
X149122302Y-92289709D01*
X149178251Y-92345658D01*
X149246773Y-92385219D01*
X149279275Y-92393928D01*
X149323198Y-92405698D01*
X149323200Y-92405698D01*
X149402326Y-92405698D01*
X149428992Y-92398552D01*
X149478751Y-92385219D01*
X149547273Y-92345658D01*
X149603222Y-92289709D01*
X149639804Y-92226347D01*
X149642782Y-92221189D01*
X149642783Y-92221186D01*
X149642986Y-92220431D01*
X149654239Y-92178432D01*
X149677069Y-92148680D01*
X149714251Y-92143785D01*
X149744004Y-92166615D01*
X149748899Y-92178432D01*
X149761739Y-92226347D01*
X149761739Y-92226349D01*
X149792841Y-92280218D01*
X149801300Y-92294869D01*
X149857249Y-92350818D01*
X149895822Y-92373088D01*
X149916833Y-92385219D01*
X149925771Y-92390379D01*
X149961238Y-92399882D01*
X150002196Y-92410858D01*
X150002198Y-92410858D01*
X150081324Y-92410858D01*
X150107990Y-92403712D01*
X150157749Y-92390379D01*
X150226271Y-92350818D01*
X150282220Y-92294869D01*
X150321781Y-92226347D01*
X150342260Y-92149920D01*
X150342260Y-92070796D01*
X150342260Y-92070794D01*
X150327919Y-92017276D01*
X150321781Y-91994369D01*
X150321780Y-91994367D01*
X150321780Y-91994366D01*
X150296699Y-91950926D01*
X150282220Y-91925847D01*
X150235719Y-91879346D01*
X150221367Y-91844698D01*
X150235719Y-91810050D01*
X150270367Y-91795698D01*
X150353853Y-91795698D01*
X150353856Y-91795698D01*
X150394107Y-91787692D01*
X150430539Y-91763349D01*
X150467322Y-91756033D01*
X150484985Y-91763349D01*
X150521417Y-91787692D01*
X150561668Y-91795698D01*
X150658262Y-91795698D01*
X150692910Y-91810050D01*
X150707262Y-91844698D01*
X150707262Y-93083947D01*
X150692910Y-93118595D01*
X150658262Y-93132947D01*
X150623614Y-93118595D01*
X150615829Y-93108450D01*
X150608460Y-93095687D01*
X150552511Y-93039738D01*
X150541341Y-93033289D01*
X150483990Y-93000177D01*
X150407564Y-92979698D01*
X150407562Y-92979698D01*
X150328438Y-92979698D01*
X150328436Y-92979698D01*
X150252010Y-93000177D01*
X150252008Y-93000177D01*
X150183488Y-93039738D01*
X150183488Y-93039739D01*
X150127541Y-93095686D01*
X150127540Y-93095686D01*
X150087979Y-93164206D01*
X150087979Y-93164208D01*
X150067500Y-93240634D01*
X150067500Y-93319761D01*
X150087979Y-93396187D01*
X150087979Y-93396189D01*
X150123817Y-93458260D01*
X150127540Y-93464709D01*
X150183489Y-93520658D01*
X150202761Y-93531784D01*
X150225592Y-93561536D01*
X150227262Y-93574220D01*
X150227262Y-93729165D01*
X150212910Y-93763813D01*
X150117846Y-93858877D01*
X150102623Y-93874100D01*
X150072697Y-93904025D01*
X150048262Y-93963015D01*
X150048262Y-96740698D01*
X150033910Y-96775346D01*
X149999262Y-96789698D01*
X147605835Y-96789698D01*
X147546844Y-96814134D01*
X147546843Y-96814134D01*
X147446674Y-96914305D01*
X147416846Y-96944133D01*
X147403423Y-96957556D01*
X147371697Y-96989281D01*
X147347262Y-97048271D01*
X147347262Y-97087128D01*
X147332910Y-97121776D01*
X147298262Y-97136128D01*
X147273765Y-97129565D01*
X147267995Y-97126234D01*
X147191569Y-97105755D01*
X147191567Y-97105755D01*
X147112443Y-97105755D01*
X147112441Y-97105755D01*
X147036015Y-97126234D01*
X147036013Y-97126234D01*
X146967493Y-97165795D01*
X146967493Y-97165796D01*
X146922560Y-97210729D01*
X146887912Y-97225081D01*
X146855008Y-97211451D01*
X146854822Y-97211694D01*
X146853916Y-97210999D01*
X146853264Y-97210729D01*
X146852273Y-97209738D01*
X146783752Y-97170177D01*
X146707326Y-97149698D01*
X146707324Y-97149698D01*
X146628200Y-97149698D01*
X146628198Y-97149698D01*
X146551772Y-97170177D01*
X146551770Y-97170177D01*
X146483250Y-97209738D01*
X146483250Y-97209739D01*
X146427305Y-97265683D01*
X146427300Y-97265690D01*
X146419209Y-97279703D01*
X146389454Y-97302531D01*
X146352275Y-97297635D01*
X146321602Y-97279926D01*
X146245176Y-97259447D01*
X146245174Y-97259447D01*
X146166050Y-97259447D01*
X146166048Y-97259447D01*
X146089622Y-97279926D01*
X146089620Y-97279926D01*
X146021100Y-97319487D01*
X146021100Y-97319488D01*
X145965153Y-97375435D01*
X145965152Y-97375435D01*
X145925591Y-97443955D01*
X145925591Y-97443957D01*
X145905112Y-97520383D01*
X145905112Y-97602721D01*
X145904271Y-97602721D01*
X145905504Y-97605698D01*
X145899464Y-97620278D01*
X145895379Y-97635526D01*
X145892447Y-97637218D01*
X145891152Y-97640346D01*
X145876571Y-97646385D01*
X145862901Y-97654279D01*
X145856504Y-97654698D01*
X145807262Y-97654698D01*
X145772614Y-97640346D01*
X145758262Y-97605698D01*
X145758262Y-97570634D01*
X145747712Y-97531263D01*
X145737783Y-97494209D01*
X145737782Y-97494207D01*
X145737782Y-97494206D01*
X145707247Y-97441319D01*
X145698222Y-97425687D01*
X145642273Y-97369738D01*
X145633214Y-97364508D01*
X145573752Y-97330177D01*
X145497326Y-97309698D01*
X145497324Y-97309698D01*
X145418200Y-97309698D01*
X145418198Y-97309698D01*
X145341772Y-97330177D01*
X145341770Y-97330177D01*
X145273250Y-97369738D01*
X145273250Y-97369739D01*
X145217302Y-97425686D01*
X145216135Y-97427208D01*
X145215297Y-97427691D01*
X145215031Y-97427958D01*
X145214959Y-97427886D01*
X145183656Y-97445958D01*
X145147431Y-97436250D01*
X145128681Y-97403771D01*
X145128262Y-97397377D01*
X145128262Y-97229107D01*
X145128262Y-97229104D01*
X145120256Y-97188853D01*
X145098425Y-97156180D01*
X145095913Y-97152421D01*
X145088597Y-97115638D01*
X145095913Y-97097975D01*
X145102868Y-97087566D01*
X145120256Y-97061543D01*
X145128262Y-97021292D01*
X145128262Y-96829104D01*
X145120256Y-96788853D01*
X145095913Y-96752421D01*
X145088597Y-96715638D01*
X145095913Y-96697975D01*
X145108161Y-96679644D01*
X145120256Y-96661543D01*
X145128262Y-96621292D01*
X145128262Y-96429104D01*
X145120256Y-96388853D01*
X145095913Y-96352421D01*
X145088597Y-96315638D01*
X145095913Y-96297975D01*
X145101635Y-96289411D01*
X145120256Y-96261543D01*
X145128262Y-96221292D01*
X145128262Y-96029104D01*
X145120256Y-95988853D01*
X145095913Y-95952421D01*
X145088597Y-95915638D01*
X145095913Y-95897975D01*
X145104997Y-95884379D01*
X145120256Y-95861543D01*
X145128262Y-95821292D01*
X145128262Y-95629104D01*
X145120256Y-95588853D01*
X145095913Y-95552421D01*
X145088597Y-95515638D01*
X145095913Y-95497975D01*
X145107555Y-95480551D01*
X145120256Y-95461543D01*
X145128262Y-95421292D01*
X145128262Y-95229104D01*
X145120256Y-95188853D01*
X145095913Y-95152421D01*
X145088597Y-95115638D01*
X145095913Y-95097975D01*
X145104116Y-95085698D01*
X145120256Y-95061543D01*
X145128262Y-95021292D01*
X145128262Y-94829104D01*
X145120256Y-94788853D01*
X145095913Y-94752421D01*
X145088597Y-94715638D01*
X145095913Y-94697975D01*
X145097897Y-94695005D01*
X145120256Y-94661543D01*
X145128262Y-94621292D01*
X145128262Y-94429104D01*
X145120256Y-94388853D01*
X145095913Y-94352421D01*
X145088597Y-94315638D01*
X145095913Y-94297975D01*
X145099813Y-94292138D01*
X145120256Y-94261543D01*
X145128262Y-94221292D01*
X145128262Y-94079698D01*
X145142614Y-94045050D01*
X145177262Y-94030698D01*
X145307233Y-94030698D01*
X145341881Y-94045050D01*
X145357489Y-94060658D01*
X145426011Y-94100219D01*
X145461478Y-94109722D01*
X145502436Y-94120698D01*
X145502438Y-94120698D01*
X145581564Y-94120698D01*
X145608230Y-94113552D01*
X145657989Y-94100219D01*
X145726511Y-94060658D01*
X145782460Y-94004709D01*
X145822021Y-93936187D01*
X145842023Y-93861542D01*
X145842500Y-93859761D01*
X145842500Y-93780634D01*
X145828310Y-93727679D01*
X145822021Y-93704209D01*
X145822020Y-93704207D01*
X145822020Y-93704206D01*
X145782459Y-93635686D01*
X145726511Y-93579738D01*
X145657991Y-93540177D01*
X145657988Y-93540176D01*
X145640537Y-93535500D01*
X145610785Y-93512668D01*
X145605891Y-93475488D01*
X145615465Y-93439760D01*
X145615465Y-93360636D01*
X145615465Y-93360634D01*
X145604512Y-93319760D01*
X145594986Y-93284209D01*
X145594985Y-93284207D01*
X145594985Y-93284206D01*
X145555424Y-93215686D01*
X145499476Y-93159738D01*
X145430955Y-93120177D01*
X145354529Y-93099698D01*
X145354527Y-93099698D01*
X145275403Y-93099698D01*
X145275401Y-93099698D01*
X145198975Y-93120177D01*
X145198974Y-93120177D01*
X145188599Y-93126167D01*
X145151417Y-93131060D01*
X145121665Y-93108227D01*
X145116772Y-93071045D01*
X145118833Y-93064975D01*
X145120250Y-93061551D01*
X145120256Y-93061543D01*
X145128262Y-93021292D01*
X145128262Y-92829104D01*
X145120256Y-92788853D01*
X145095913Y-92752421D01*
X145088597Y-92715638D01*
X145095913Y-92697975D01*
X145110012Y-92676874D01*
X145120256Y-92661543D01*
X145128262Y-92621292D01*
X145128262Y-92429104D01*
X145120256Y-92388853D01*
X145095913Y-92352421D01*
X145088597Y-92315638D01*
X145095913Y-92297975D01*
X145107173Y-92281123D01*
X145120256Y-92261543D01*
X145128262Y-92221292D01*
X145128262Y-92029104D01*
X145120256Y-91988853D01*
X145110134Y-91973705D01*
X145089755Y-91943204D01*
X145044107Y-91912704D01*
X145040909Y-91912068D01*
X145003856Y-91904698D01*
X145003853Y-91904698D01*
X144986762Y-91904698D01*
X144952114Y-91890346D01*
X144937762Y-91855698D01*
X144937762Y-91176186D01*
X144952114Y-91141538D01*
X144986762Y-91127186D01*
X145021410Y-91141538D01*
G37*
%TD.AperFunction*%
%TA.AperFunction,Conductor*%
G36*
X150954761Y-93799149D02*
G01*
X150968779Y-93801938D01*
X150971567Y-93806111D01*
X150976204Y-93808032D01*
X150989614Y-93833120D01*
X150995267Y-93861539D01*
X150995268Y-93861543D01*
X151003658Y-93874100D01*
X151019611Y-93897976D01*
X151026926Y-93934759D01*
X151019611Y-93952420D01*
X150995268Y-93988852D01*
X150993266Y-93998915D01*
X150987262Y-94029104D01*
X150987262Y-94221292D01*
X150993317Y-94251733D01*
X150995268Y-94261543D01*
X151019611Y-94297976D01*
X151026926Y-94334759D01*
X151019611Y-94352420D01*
X150995268Y-94388852D01*
X150994900Y-94390702D01*
X150987262Y-94429104D01*
X150987262Y-94621292D01*
X150991321Y-94641697D01*
X150995268Y-94661543D01*
X151019611Y-94697976D01*
X151026926Y-94734759D01*
X151019611Y-94752420D01*
X150995268Y-94788852D01*
X150994005Y-94795205D01*
X150987262Y-94829104D01*
X150987262Y-95021292D01*
X150994059Y-95055464D01*
X150995268Y-95061543D01*
X151019611Y-95097976D01*
X151026926Y-95134759D01*
X151019611Y-95152420D01*
X150995268Y-95188852D01*
X150995268Y-95188853D01*
X150987262Y-95229104D01*
X150987262Y-95421292D01*
X150993515Y-95452731D01*
X150995268Y-95461543D01*
X151019611Y-95497976D01*
X151026926Y-95534759D01*
X151019611Y-95552420D01*
X150995268Y-95588852D01*
X150995268Y-95588853D01*
X150987262Y-95629104D01*
X150987262Y-95821292D01*
X150993837Y-95854346D01*
X150995268Y-95861543D01*
X151019611Y-95897976D01*
X151026926Y-95934759D01*
X151019611Y-95952420D01*
X150995268Y-95988852D01*
X150995268Y-95988853D01*
X150987262Y-96029104D01*
X150987262Y-96221292D01*
X150995043Y-96260411D01*
X150995268Y-96261543D01*
X151019611Y-96297976D01*
X151026926Y-96334759D01*
X151019611Y-96352420D01*
X150995268Y-96388852D01*
X150995268Y-96388853D01*
X150987262Y-96429104D01*
X150987262Y-96621292D01*
X150994601Y-96658188D01*
X150995268Y-96661543D01*
X151019611Y-96697976D01*
X151026926Y-96734759D01*
X151019611Y-96752420D01*
X150995268Y-96788852D01*
X150995268Y-96788853D01*
X150987262Y-96829104D01*
X150987262Y-97021292D01*
X150992614Y-97048199D01*
X150995268Y-97061543D01*
X151019611Y-97097976D01*
X151020989Y-97104908D01*
X151025551Y-97110308D01*
X151024103Y-97120567D01*
X151026926Y-97134759D01*
X151022406Y-97147679D01*
X151021135Y-97150139D01*
X150995268Y-97188853D01*
X150991585Y-97207368D01*
X150988412Y-97213514D01*
X150978967Y-97221493D01*
X150972096Y-97231776D01*
X150965163Y-97233154D01*
X150959764Y-97237716D01*
X150947441Y-97236678D01*
X150935313Y-97239091D01*
X150927691Y-97235016D01*
X150922393Y-97234571D01*
X150918717Y-97230219D01*
X150910226Y-97225681D01*
X150642614Y-96958069D01*
X150628262Y-96923421D01*
X150628262Y-94349309D01*
X150628261Y-94349305D01*
X150625734Y-94343205D01*
X150603827Y-94290316D01*
X150603825Y-94290314D01*
X150601144Y-94286300D01*
X150603221Y-94284912D01*
X150592262Y-94258454D01*
X150592262Y-94161941D01*
X150606614Y-94127293D01*
X150633827Y-94100080D01*
X150643509Y-94076702D01*
X150654127Y-94060812D01*
X150906909Y-93808031D01*
X150920111Y-93802562D01*
X150931996Y-93794622D01*
X150936918Y-93795601D01*
X150941556Y-93793680D01*
X150954761Y-93799149D01*
G37*
%TD.AperFunction*%
%TA.AperFunction,Conductor*%
G36*
X153411910Y-94157351D02*
G01*
X153426262Y-94191999D01*
X153426262Y-94589395D01*
X153411910Y-94624043D01*
X152803991Y-95231961D01*
X152769343Y-95246313D01*
X152734695Y-95231961D01*
X152722013Y-95209995D01*
X152717783Y-95194209D01*
X152717782Y-95194206D01*
X152687338Y-95141477D01*
X152678222Y-95125687D01*
X152622273Y-95069738D01*
X152571072Y-95040177D01*
X152555822Y-95031372D01*
X152532992Y-95001618D01*
X152537888Y-94964436D01*
X152545671Y-94954293D01*
X153342615Y-94157350D01*
X153377262Y-94142999D01*
X153411910Y-94157351D01*
G37*
%TD.AperFunction*%
%TD*%
M02*
