%TF.GenerationSoftware,KiCad,Pcbnew,10.0.3*%
%TF.CreationDate,2026-07-16T14:50:01-04:00*%
%TF.ProjectId,ESP32-S3 Small Camera,45535033-322d-4533-9320-536d616c6c20,rev?*%
%TF.SameCoordinates,Original*%
%TF.FileFunction,Copper,L4,Inr*%
%TF.FilePolarity,Positive*%
%FSLAX46Y46*%
G04 Gerber Fmt 4.6, Leading zero omitted, Abs format (unit mm)*
G04 Created by KiCad (PCBNEW 10.0.3) date 2026-07-16 14:50:01*
%MOMM*%
%LPD*%
G01*
G04 APERTURE LIST*
%TA.AperFunction,ViaPad*%
%ADD10C,0.350000*%
%TD*%
%TA.AperFunction,ViaPad*%
%ADD11C,0.450000*%
%TD*%
%TA.AperFunction,ViaPad*%
%ADD12C,0.400000*%
%TD*%
%TA.AperFunction,ViaPad*%
%ADD13C,0.600000*%
%TD*%
%TA.AperFunction,ViaPad*%
%ADD14C,0.550000*%
%TD*%
%TA.AperFunction,ViaPad*%
%ADD15C,0.500000*%
%TD*%
%TA.AperFunction,Conductor*%
%ADD16C,0.100000*%
%TD*%
G04 APERTURE END LIST*
D10*
%TO.N,Net-(U3-TS{slash}MR)*%
X152205039Y-89485786D03*
%TO.N,GND*%
X163145095Y-99404825D03*
D11*
X167250000Y-96000000D03*
D10*
X147421600Y-91998800D03*
X147000000Y-95000000D03*
X155413234Y-92100492D03*
D11*
X139922498Y-91677577D03*
D10*
X148500000Y-95500000D03*
X149368005Y-96108585D03*
X136906000Y-94361000D03*
X149500000Y-93500000D03*
D11*
X149250400Y-89611200D03*
D12*
X141523711Y-97717018D03*
D10*
X155244800Y-98450400D03*
D11*
X157000000Y-94500000D03*
D10*
X153877737Y-97084883D03*
D11*
X167250000Y-92500000D03*
D10*
X136042400Y-97536000D03*
X147500000Y-94500000D03*
D11*
X143052800Y-88493600D03*
D10*
X136357913Y-99510032D03*
D11*
X163500000Y-95500000D03*
D10*
X134000000Y-94000000D03*
X148082016Y-93214070D03*
D12*
X162373288Y-89834266D03*
D11*
X137304428Y-90924840D03*
D10*
X150785221Y-94217271D03*
D13*
X165354000Y-93853000D03*
D11*
X155158368Y-94574431D03*
D10*
X134787762Y-96400198D03*
X146500000Y-93500000D03*
D11*
X135993364Y-88493365D03*
D10*
X137859543Y-89716688D03*
X144217762Y-97790198D03*
X149000000Y-94500000D03*
D11*
X142787095Y-91936295D03*
D10*
X153217762Y-94550198D03*
X163000000Y-88500000D03*
D11*
X140970000Y-92456000D03*
D10*
X147523200Y-99625000D03*
X137250646Y-95888198D03*
X159097552Y-89884235D03*
X157696657Y-97077363D03*
X140747762Y-94488000D03*
D11*
X154620391Y-89977198D03*
X153000000Y-88500000D03*
D10*
X163750000Y-92250000D03*
X145491200Y-97028000D03*
X137856199Y-88720717D03*
X156750000Y-92250000D03*
D11*
X155956000Y-92760800D03*
X162814000Y-93984389D03*
D10*
X140868400Y-99585198D03*
D11*
X144272000Y-89662000D03*
D10*
X147500000Y-96000000D03*
X142433283Y-93729119D03*
X146500000Y-96500000D03*
%TO.N,DOVDD*%
X143535430Y-97799205D03*
X136245600Y-92557600D03*
X139000000Y-95500000D03*
%TO.N,VBUS*%
X166471600Y-94742000D03*
D14*
X159145839Y-96607436D03*
X152951761Y-91527684D03*
D10*
%TO.N,VBUS_SENSE*%
X148539200Y-90576400D03*
X165862000Y-94589600D03*
%TO.N,CS*%
X154889200Y-96164400D03*
X152490795Y-96150198D03*
D11*
%TO.N,VCC_3V3*%
X151252222Y-88432644D03*
X140117762Y-94520198D03*
X160318843Y-99402055D03*
D10*
X148147762Y-92000198D03*
X152317762Y-99250198D03*
X150817762Y-90170000D03*
D15*
X154533600Y-98501200D03*
D10*
X151978975Y-91561645D03*
D12*
X135145083Y-91473715D03*
X135382000Y-94615000D03*
D10*
X134213600Y-98907600D03*
X156757276Y-97576098D03*
X136477762Y-97750198D03*
D11*
X145037762Y-88900000D03*
D10*
X150368000Y-93280198D03*
X159620781Y-96097608D03*
X149362762Y-92105198D03*
D12*
X141173200Y-89154000D03*
D10*
%TO.N,BOOT*%
X156697762Y-98060198D03*
X145542000Y-93820198D03*
%TO.N,RESET*%
X160389363Y-98539107D03*
X145314965Y-93400198D03*
D13*
%TO.N,B-*%
X164991283Y-91508717D03*
D10*
%TO.N,CAM_EN*%
X151301551Y-90016720D03*
D12*
X134463218Y-94488000D03*
D11*
X149225000Y-90297000D03*
D10*
%TO.N,VDD3P3*%
X143777762Y-92395198D03*
%TO.N,Y4*%
X142955651Y-94243616D03*
%TO.N,Y3*%
X143420462Y-94525708D03*
%TO.N,Y5*%
X143919644Y-94917376D03*
%TO.N,Y2*%
X142881026Y-95320198D03*
%TO.N,Y6*%
X143847762Y-95640198D03*
%TO.N,PCLK*%
X143357762Y-95970997D03*
%TO.N,Y7*%
X143129000Y-96393000D03*
%TO.N,SDA*%
X152425603Y-93217801D03*
X143807750Y-96743000D03*
X151638000Y-89662000D03*
%TO.N,SCL*%
X152857762Y-92970198D03*
X151781681Y-90144087D03*
X143361727Y-97100198D03*
%TO.N,Y8*%
X141447762Y-99585198D03*
X145457762Y-97610198D03*
%TO.N,MCLK_3V3*%
X144749750Y-97828852D03*
X134467600Y-91440000D03*
%TO.N,Y9*%
X142477762Y-99585198D03*
X146205612Y-97559947D03*
%TO.N,HREF*%
X146667762Y-97450198D03*
X144003284Y-99602693D03*
%TO.N,PWDN_3V3*%
X143205200Y-90170000D03*
X147152005Y-97406255D03*
%TO.N,Net-(U8-XTAL_32K_P)*%
X153060400Y-98806000D03*
X147857762Y-97370198D03*
%TO.N,GPout*%
X153771600Y-98755200D03*
X148442187Y-99139107D03*
%TO.N,VSYNC*%
X148360342Y-97433387D03*
X144977762Y-99585198D03*
%TO.N,RST_CM_3V3*%
X143408400Y-89560400D03*
X151587200Y-99060000D03*
%TO.N,D-*%
X149479000Y-98933000D03*
X155750000Y-98250000D03*
%TO.N,D+*%
X157255063Y-97361305D03*
X150021594Y-99077085D03*
%TO.N,INT_BQ25180*%
X151372483Y-90817086D03*
X150465783Y-98893801D03*
%TO.N,WP*%
X156413200Y-96367600D03*
X152197762Y-96570198D03*
%TO.N,DO*%
X152437762Y-95310198D03*
X155697762Y-96090198D03*
%TO.N,BTTN*%
X153314400Y-98399600D03*
D11*
X162219459Y-98497576D03*
D10*
%TO.N,SCCB_SDA*%
X150041760Y-92110358D03*
X147015200Y-99585198D03*
X136646302Y-91674840D03*
%TO.N,SCCB_SCL*%
X138625233Y-93510807D03*
X148808846Y-92093428D03*
X145977762Y-99585198D03*
%TO.N,DVDD*%
X143487762Y-99585198D03*
D15*
%TO.N,D-X*%
X167000000Y-97155000D03*
%TO.N,D+X*%
X165500000Y-96000000D03*
D11*
%TO.N,Net-(R4-Pad1)*%
X158421657Y-97380781D03*
X164500000Y-97250000D03*
%TO.N,Net-(R3-Pad1)*%
X162323540Y-99229999D03*
X159395123Y-98075199D03*
D12*
%TO.N,LOAD_SYS*%
X153503244Y-90097451D03*
D14*
X136700418Y-96684198D03*
D13*
%TO.N,B+*%
X163807050Y-90213304D03*
X155266651Y-89902198D03*
X159258000Y-88646000D03*
D10*
%TO.N,PWDN_CAM*%
X144477762Y-99625000D03*
X136702800Y-90932000D03*
%TO.N,RST_CM_CAM*%
X141071600Y-89712800D03*
X143662400Y-88544400D03*
X145477762Y-99625000D03*
%TO.N,MCLK_CAM*%
X135737600Y-93573600D03*
X141977762Y-99585198D03*
%TD*%
%TO.N,PWDN_3V3*%
D16*
X147079460Y-97478800D02*
X147152005Y-97406255D01*
%TD*%
%TA.AperFunction,Conductor*%
%TO.N,GND*%
G36*
X143508831Y-88214852D02*
G01*
X143523183Y-88249500D01*
X143508831Y-88284148D01*
X143498684Y-88291933D01*
X143490665Y-88296563D01*
X143477888Y-88303940D01*
X143477888Y-88303941D01*
X143421941Y-88359888D01*
X143421940Y-88359888D01*
X143382379Y-88428408D01*
X143382379Y-88428410D01*
X143361900Y-88504836D01*
X143361900Y-88583963D01*
X143382379Y-88660389D01*
X143382379Y-88660391D01*
X143421940Y-88728911D01*
X143477889Y-88784860D01*
X143546411Y-88824421D01*
X143581878Y-88833924D01*
X143622836Y-88844900D01*
X143622838Y-88844900D01*
X143701964Y-88844900D01*
X143728630Y-88837754D01*
X143778389Y-88824421D01*
X143778391Y-88824420D01*
X143803049Y-88810184D01*
X143815296Y-88803112D01*
X143846911Y-88784860D01*
X143902860Y-88728911D01*
X143942421Y-88660389D01*
X143960759Y-88591954D01*
X143962900Y-88583963D01*
X143962900Y-88504836D01*
X143954243Y-88472534D01*
X143942421Y-88428411D01*
X143942420Y-88428409D01*
X143942420Y-88428408D01*
X143902859Y-88359888D01*
X143846911Y-88303940D01*
X143845536Y-88303146D01*
X143826116Y-88291934D01*
X143803287Y-88262182D01*
X143808182Y-88225000D01*
X143837935Y-88202170D01*
X143850617Y-88200500D01*
X150913978Y-88200500D01*
X150948626Y-88214852D01*
X150962978Y-88249500D01*
X150956414Y-88273999D01*
X150939586Y-88303146D01*
X150939585Y-88303148D01*
X150916722Y-88388473D01*
X150916722Y-88388475D01*
X150916722Y-88476813D01*
X150939586Y-88562142D01*
X150959695Y-88596973D01*
X150983752Y-88638642D01*
X150983754Y-88638644D01*
X150983755Y-88638646D01*
X151046220Y-88701111D01*
X151122724Y-88745280D01*
X151165388Y-88756712D01*
X151208051Y-88768144D01*
X151208053Y-88768144D01*
X151296393Y-88768144D01*
X151330522Y-88758998D01*
X151381720Y-88745280D01*
X151458224Y-88701111D01*
X151520689Y-88638646D01*
X151564858Y-88562142D01*
X151587722Y-88476813D01*
X151587722Y-88388475D01*
X151587722Y-88388473D01*
X151576290Y-88345810D01*
X151564858Y-88303146D01*
X151548029Y-88273998D01*
X151543136Y-88236817D01*
X151565967Y-88207064D01*
X151590466Y-88200500D01*
X159025758Y-88200500D01*
X159060406Y-88214852D01*
X159074758Y-88249500D01*
X159060406Y-88284148D01*
X159050258Y-88291935D01*
X159005953Y-88317513D01*
X159005944Y-88317520D01*
X158929520Y-88393944D01*
X158929513Y-88393953D01*
X158875475Y-88487550D01*
X158875474Y-88487554D01*
X158847500Y-88591954D01*
X158847500Y-88700045D01*
X158875474Y-88804445D01*
X158875475Y-88804449D01*
X158929513Y-88898046D01*
X158929516Y-88898050D01*
X158929518Y-88898053D01*
X159005947Y-88974482D01*
X159005950Y-88974483D01*
X159005953Y-88974486D01*
X159099550Y-89028524D01*
X159099552Y-89028524D01*
X159099553Y-89028525D01*
X159120542Y-89034149D01*
X159203954Y-89056500D01*
X159203957Y-89056500D01*
X159312045Y-89056500D01*
X159364245Y-89042512D01*
X159416447Y-89028525D01*
X159510053Y-88974482D01*
X159586482Y-88898053D01*
X159640525Y-88804447D01*
X159660765Y-88728911D01*
X159668500Y-88700045D01*
X159668500Y-88591954D01*
X159647518Y-88513654D01*
X159640525Y-88487553D01*
X159640524Y-88487552D01*
X159640524Y-88487550D01*
X159586486Y-88393953D01*
X159586483Y-88393950D01*
X159586482Y-88393947D01*
X159510053Y-88317518D01*
X159510050Y-88317516D01*
X159510046Y-88317513D01*
X159465742Y-88291935D01*
X159442912Y-88262183D01*
X159447807Y-88225000D01*
X159477559Y-88202170D01*
X159490242Y-88200500D01*
X168250500Y-88200500D01*
X168285148Y-88214852D01*
X168299500Y-88249500D01*
X168299500Y-90998402D01*
X168298897Y-91036723D01*
X168299500Y-91038246D01*
X168299500Y-91042143D01*
X168300000Y-91047222D01*
X168300000Y-96952780D01*
X168299214Y-96961524D01*
X168298896Y-96963272D01*
X168299494Y-97001215D01*
X168299500Y-97001986D01*
X168299500Y-99750500D01*
X168285148Y-99785148D01*
X168250500Y-99799500D01*
X160484318Y-99799500D01*
X160449670Y-99785148D01*
X160435318Y-99750500D01*
X160449670Y-99715852D01*
X160459813Y-99708067D01*
X160524845Y-99670522D01*
X160587310Y-99608057D01*
X160631479Y-99531553D01*
X160654343Y-99446224D01*
X160654343Y-99357886D01*
X160654343Y-99357884D01*
X160642911Y-99315221D01*
X160631479Y-99272557D01*
X160587310Y-99196053D01*
X160524845Y-99133588D01*
X160524843Y-99133587D01*
X160524841Y-99133585D01*
X160483172Y-99109528D01*
X160448341Y-99089419D01*
X160448338Y-99089418D01*
X160363014Y-99066555D01*
X160363012Y-99066555D01*
X160274674Y-99066555D01*
X160274672Y-99066555D01*
X160189347Y-99089418D01*
X160189345Y-99089419D01*
X160112844Y-99133585D01*
X160112838Y-99133590D01*
X160050378Y-99196050D01*
X160050373Y-99196056D01*
X160006207Y-99272557D01*
X160006206Y-99272559D01*
X159983343Y-99357884D01*
X159983343Y-99446225D01*
X160006206Y-99531550D01*
X160006207Y-99531553D01*
X160014337Y-99545634D01*
X160050373Y-99608053D01*
X160050375Y-99608055D01*
X160050376Y-99608057D01*
X160112841Y-99670522D01*
X160177869Y-99708065D01*
X160200698Y-99737817D01*
X160195804Y-99775000D01*
X160166051Y-99797830D01*
X160153368Y-99799500D01*
X147323330Y-99799500D01*
X147288682Y-99785148D01*
X147274330Y-99750500D01*
X147280894Y-99726001D01*
X147295221Y-99701187D01*
X147315700Y-99624760D01*
X147315700Y-99545636D01*
X147315700Y-99545634D01*
X147303061Y-99498468D01*
X147295221Y-99469209D01*
X147295220Y-99469207D01*
X147295220Y-99469206D01*
X147265761Y-99418182D01*
X147255660Y-99400687D01*
X147199711Y-99344738D01*
X147163130Y-99323618D01*
X147131190Y-99305177D01*
X147054764Y-99284698D01*
X147054762Y-99284698D01*
X146975638Y-99284698D01*
X146975636Y-99284698D01*
X146899210Y-99305177D01*
X146899208Y-99305177D01*
X146830688Y-99344738D01*
X146830688Y-99344739D01*
X146774741Y-99400686D01*
X146774740Y-99400686D01*
X146735179Y-99469206D01*
X146735179Y-99469208D01*
X146714700Y-99545634D01*
X146714700Y-99624761D01*
X146735178Y-99701186D01*
X146735179Y-99701187D01*
X146749505Y-99726000D01*
X146754401Y-99763181D01*
X146731571Y-99792935D01*
X146707070Y-99799500D01*
X146285892Y-99799500D01*
X146251244Y-99785148D01*
X146236892Y-99750500D01*
X146243456Y-99726001D01*
X146257783Y-99701187D01*
X146278262Y-99624760D01*
X146278262Y-99545636D01*
X146278262Y-99545634D01*
X146265623Y-99498468D01*
X146257783Y-99469209D01*
X146257782Y-99469207D01*
X146257782Y-99469206D01*
X146228323Y-99418182D01*
X146218222Y-99400687D01*
X146162273Y-99344738D01*
X146125692Y-99323618D01*
X146093752Y-99305177D01*
X146017326Y-99284698D01*
X146017324Y-99284698D01*
X145938200Y-99284698D01*
X145938198Y-99284698D01*
X145861772Y-99305177D01*
X145861770Y-99305177D01*
X145793250Y-99344738D01*
X145793250Y-99344739D01*
X145742509Y-99395480D01*
X145707861Y-99409832D01*
X145673213Y-99395480D01*
X145662273Y-99384540D01*
X145593752Y-99344979D01*
X145517326Y-99324500D01*
X145517324Y-99324500D01*
X145438200Y-99324500D01*
X145438198Y-99324500D01*
X145361772Y-99344979D01*
X145361770Y-99344979D01*
X145293257Y-99384535D01*
X145293251Y-99384540D01*
X145282308Y-99395482D01*
X145247658Y-99409831D01*
X145213014Y-99395479D01*
X145162273Y-99344738D01*
X145093752Y-99305177D01*
X145017326Y-99284698D01*
X145017324Y-99284698D01*
X144938200Y-99284698D01*
X144938198Y-99284698D01*
X144861772Y-99305177D01*
X144861770Y-99305177D01*
X144793250Y-99344738D01*
X144793250Y-99344739D01*
X144742509Y-99395480D01*
X144707861Y-99409832D01*
X144673213Y-99395480D01*
X144662273Y-99384540D01*
X144593752Y-99344979D01*
X144517326Y-99324500D01*
X144517324Y-99324500D01*
X144438200Y-99324500D01*
X144438198Y-99324500D01*
X144361772Y-99344979D01*
X144361770Y-99344979D01*
X144293257Y-99384535D01*
X144293247Y-99384543D01*
X144286322Y-99391468D01*
X144251673Y-99405818D01*
X144217028Y-99391466D01*
X144187795Y-99362233D01*
X144119274Y-99322672D01*
X144042848Y-99302193D01*
X144042846Y-99302193D01*
X143963722Y-99302193D01*
X143963720Y-99302193D01*
X143887294Y-99322672D01*
X143887292Y-99322672D01*
X143818774Y-99362232D01*
X143788918Y-99392088D01*
X143754269Y-99406439D01*
X143719622Y-99392087D01*
X143672273Y-99344738D01*
X143603752Y-99305177D01*
X143527326Y-99284698D01*
X143527324Y-99284698D01*
X143448200Y-99284698D01*
X143448198Y-99284698D01*
X143371772Y-99305177D01*
X143371770Y-99305177D01*
X143303250Y-99344738D01*
X143303250Y-99344739D01*
X143247303Y-99400686D01*
X143247302Y-99400686D01*
X143207741Y-99469206D01*
X143207741Y-99469208D01*
X143187262Y-99545634D01*
X143187262Y-99624761D01*
X143207740Y-99701186D01*
X143207741Y-99701187D01*
X143222067Y-99726000D01*
X143226963Y-99763181D01*
X143204133Y-99792935D01*
X143179632Y-99799500D01*
X142785892Y-99799500D01*
X142751244Y-99785148D01*
X142736892Y-99750500D01*
X142743456Y-99726001D01*
X142757783Y-99701187D01*
X142778262Y-99624760D01*
X142778262Y-99545636D01*
X142778262Y-99545634D01*
X142765623Y-99498468D01*
X142757783Y-99469209D01*
X142757782Y-99469207D01*
X142757782Y-99469206D01*
X142728323Y-99418182D01*
X142718222Y-99400687D01*
X142662273Y-99344738D01*
X142625692Y-99323618D01*
X142593752Y-99305177D01*
X142517326Y-99284698D01*
X142517324Y-99284698D01*
X142438200Y-99284698D01*
X142438198Y-99284698D01*
X142361772Y-99305177D01*
X142361770Y-99305177D01*
X142293250Y-99344738D01*
X142293250Y-99344739D01*
X142262410Y-99375579D01*
X142227762Y-99389931D01*
X142193114Y-99375579D01*
X142162273Y-99344738D01*
X142093752Y-99305177D01*
X142017326Y-99284698D01*
X142017324Y-99284698D01*
X141938200Y-99284698D01*
X141938198Y-99284698D01*
X141861772Y-99305177D01*
X141861770Y-99305177D01*
X141793250Y-99344738D01*
X141793250Y-99344739D01*
X141747410Y-99390579D01*
X141712762Y-99404931D01*
X141678114Y-99390579D01*
X141632273Y-99344738D01*
X141563752Y-99305177D01*
X141487326Y-99284698D01*
X141487324Y-99284698D01*
X141408200Y-99284698D01*
X141408198Y-99284698D01*
X141331772Y-99305177D01*
X141331770Y-99305177D01*
X141263250Y-99344738D01*
X141263250Y-99344739D01*
X141207303Y-99400686D01*
X141207302Y-99400686D01*
X141167741Y-99469206D01*
X141167741Y-99469208D01*
X141147262Y-99545634D01*
X141147262Y-99624761D01*
X141167740Y-99701186D01*
X141167741Y-99701187D01*
X141182067Y-99726000D01*
X141186963Y-99763181D01*
X141164133Y-99792935D01*
X141139632Y-99799500D01*
X133749500Y-99799500D01*
X133714852Y-99785148D01*
X133700500Y-99750500D01*
X133700500Y-98868036D01*
X133913100Y-98868036D01*
X133913100Y-98947163D01*
X133933579Y-99023589D01*
X133933579Y-99023591D01*
X133965173Y-99078312D01*
X133973140Y-99092111D01*
X134029089Y-99148060D01*
X134073082Y-99173459D01*
X134089475Y-99182924D01*
X134097611Y-99187621D01*
X134122541Y-99194301D01*
X134174036Y-99208100D01*
X134174038Y-99208100D01*
X134253164Y-99208100D01*
X134279830Y-99200954D01*
X134329589Y-99187621D01*
X134337725Y-99182924D01*
X134341653Y-99180656D01*
X134398111Y-99148060D01*
X134446628Y-99099543D01*
X148141687Y-99099543D01*
X148141687Y-99178670D01*
X148162166Y-99255096D01*
X148162166Y-99255098D01*
X148189357Y-99302193D01*
X148201727Y-99323618D01*
X148257676Y-99379567D01*
X148326198Y-99419128D01*
X148360204Y-99428240D01*
X148402623Y-99439607D01*
X148402625Y-99439607D01*
X148481751Y-99439607D01*
X148508417Y-99432461D01*
X148558176Y-99419128D01*
X148626698Y-99379567D01*
X148682647Y-99323618D01*
X148722208Y-99255096D01*
X148741547Y-99182923D01*
X148742687Y-99178670D01*
X148742687Y-99099543D01*
X148733614Y-99065686D01*
X148722208Y-99023118D01*
X148722207Y-99023116D01*
X148722207Y-99023115D01*
X148693020Y-98972562D01*
X148682647Y-98954596D01*
X148626698Y-98898647D01*
X148620321Y-98894965D01*
X148617673Y-98893436D01*
X149178500Y-98893436D01*
X149178500Y-98972563D01*
X149198979Y-99048989D01*
X149198979Y-99048991D01*
X149238041Y-99116647D01*
X149238540Y-99117511D01*
X149294489Y-99173460D01*
X149333627Y-99196056D01*
X149358876Y-99210634D01*
X149363011Y-99213021D01*
X149398478Y-99222524D01*
X149439436Y-99233500D01*
X149439438Y-99233500D01*
X149518564Y-99233500D01*
X149545230Y-99226354D01*
X149594989Y-99213021D01*
X149599124Y-99210634D01*
X149603512Y-99208100D01*
X149663511Y-99173460D01*
X149663519Y-99173451D01*
X149665918Y-99171612D01*
X149702143Y-99161905D01*
X149734622Y-99180656D01*
X149741018Y-99191735D01*
X149741572Y-99193073D01*
X149777381Y-99255096D01*
X149781134Y-99261596D01*
X149837083Y-99317545D01*
X149905605Y-99357106D01*
X149941072Y-99366609D01*
X149982030Y-99377585D01*
X149982032Y-99377585D01*
X150061158Y-99377585D01*
X150087824Y-99370439D01*
X150137583Y-99357106D01*
X150206105Y-99317545D01*
X150262054Y-99261596D01*
X150298896Y-99197782D01*
X150328649Y-99174953D01*
X150354014Y-99174953D01*
X150426219Y-99194301D01*
X150426221Y-99194301D01*
X150505347Y-99194301D01*
X150532013Y-99187155D01*
X150581772Y-99173822D01*
X150582398Y-99173461D01*
X150619030Y-99152311D01*
X150650294Y-99134261D01*
X150706243Y-99078312D01*
X150739658Y-99020436D01*
X151286700Y-99020436D01*
X151286700Y-99099563D01*
X151307179Y-99175989D01*
X151307179Y-99175991D01*
X151328559Y-99213021D01*
X151346740Y-99244511D01*
X151402689Y-99300460D01*
X151471211Y-99340021D01*
X151506678Y-99349524D01*
X151547636Y-99360500D01*
X151547638Y-99360500D01*
X151626764Y-99360500D01*
X151653430Y-99353354D01*
X151703189Y-99340021D01*
X151771711Y-99300460D01*
X151827660Y-99244511D01*
X151847219Y-99210634D01*
X152017262Y-99210634D01*
X152017262Y-99289761D01*
X152037741Y-99366187D01*
X152037741Y-99366189D01*
X152062939Y-99409832D01*
X152077302Y-99434709D01*
X152133251Y-99490658D01*
X152201773Y-99530219D01*
X152237240Y-99539722D01*
X152278198Y-99550698D01*
X152278200Y-99550698D01*
X152357326Y-99550698D01*
X152387415Y-99542635D01*
X152433751Y-99530219D01*
X152502273Y-99490658D01*
X152558222Y-99434709D01*
X152597783Y-99366187D01*
X152618262Y-99289760D01*
X152618262Y-99210636D01*
X152618262Y-99210634D01*
X152608701Y-99174953D01*
X152597783Y-99134209D01*
X152597782Y-99134207D01*
X152597782Y-99134206D01*
X152569961Y-99086020D01*
X152558222Y-99065687D01*
X152502273Y-99009738D01*
X152477889Y-98995660D01*
X152433752Y-98970177D01*
X152357326Y-98949698D01*
X152357324Y-98949698D01*
X152278200Y-98949698D01*
X152278198Y-98949698D01*
X152201772Y-98970177D01*
X152201770Y-98970177D01*
X152133250Y-99009738D01*
X152133250Y-99009739D01*
X152077303Y-99065686D01*
X152077302Y-99065686D01*
X152037741Y-99134206D01*
X152037741Y-99134208D01*
X152017262Y-99210634D01*
X151847219Y-99210634D01*
X151867221Y-99175989D01*
X151887448Y-99100503D01*
X151887700Y-99099563D01*
X151887700Y-99020436D01*
X151879043Y-98988134D01*
X151867221Y-98944011D01*
X151867220Y-98944009D01*
X151867220Y-98944008D01*
X151827659Y-98875488D01*
X151771713Y-98819542D01*
X151771711Y-98819540D01*
X151747670Y-98805660D01*
X151747670Y-98805659D01*
X151703190Y-98779979D01*
X151652649Y-98766436D01*
X152759900Y-98766436D01*
X152759900Y-98845563D01*
X152780379Y-98921989D01*
X152780379Y-98921991D01*
X152819940Y-98990511D01*
X152875889Y-99046460D01*
X152910695Y-99066555D01*
X152931058Y-99078312D01*
X152944411Y-99086021D01*
X152979878Y-99095524D01*
X153020836Y-99106500D01*
X153020838Y-99106500D01*
X153099964Y-99106500D01*
X153126630Y-99099354D01*
X153176389Y-99086021D01*
X153244911Y-99046460D01*
X153300860Y-98990511D01*
X153340421Y-98921989D01*
X153357276Y-98859086D01*
X153360900Y-98845563D01*
X153360900Y-98766436D01*
X153356533Y-98750140D01*
X153361427Y-98712958D01*
X153391179Y-98690127D01*
X153409418Y-98685240D01*
X153446599Y-98690134D01*
X153469430Y-98719887D01*
X153471100Y-98732570D01*
X153471100Y-98794763D01*
X153491579Y-98871189D01*
X153491579Y-98871191D01*
X153531140Y-98939711D01*
X153587089Y-98995660D01*
X153655611Y-99035221D01*
X153691078Y-99044724D01*
X153732036Y-99055700D01*
X153732038Y-99055700D01*
X153811164Y-99055700D01*
X153845649Y-99046459D01*
X153887589Y-99035221D01*
X153956111Y-98995660D01*
X154012060Y-98939711D01*
X154049139Y-98875488D01*
X154051620Y-98871191D01*
X154051620Y-98871190D01*
X154051621Y-98871189D01*
X154071786Y-98795933D01*
X154072100Y-98794763D01*
X154072100Y-98715636D01*
X154059105Y-98667141D01*
X154051621Y-98639211D01*
X154051620Y-98639209D01*
X154051620Y-98639208D01*
X154012059Y-98570688D01*
X153956111Y-98514740D01*
X153918390Y-98492962D01*
X153887590Y-98475179D01*
X153811164Y-98454700D01*
X153811162Y-98454700D01*
X153732038Y-98454700D01*
X153732035Y-98454700D01*
X153676582Y-98469559D01*
X153639400Y-98464664D01*
X153631014Y-98453735D01*
X154173100Y-98453735D01*
X154173100Y-98548664D01*
X154197666Y-98640346D01*
X154197667Y-98640349D01*
X154237471Y-98709290D01*
X154245128Y-98722552D01*
X154312248Y-98789672D01*
X154394452Y-98837133D01*
X154425914Y-98845563D01*
X154486135Y-98861699D01*
X154486136Y-98861700D01*
X154486139Y-98861700D01*
X154581064Y-98861700D01*
X154581064Y-98861699D01*
X154672748Y-98837133D01*
X154754952Y-98789672D01*
X154822072Y-98722552D01*
X154869533Y-98640348D01*
X154894099Y-98548664D01*
X154894100Y-98548664D01*
X154894100Y-98453736D01*
X154894099Y-98453735D01*
X154871148Y-98368080D01*
X154869533Y-98362052D01*
X154822072Y-98279848D01*
X154754952Y-98212728D01*
X154750982Y-98210436D01*
X155449500Y-98210436D01*
X155449500Y-98289563D01*
X155469979Y-98365989D01*
X155469979Y-98365991D01*
X155502962Y-98423117D01*
X155509540Y-98434511D01*
X155565489Y-98490460D01*
X155634011Y-98530021D01*
X155669478Y-98539524D01*
X155710436Y-98550500D01*
X155710438Y-98550500D01*
X155789564Y-98550500D01*
X155816230Y-98543354D01*
X155865989Y-98530021D01*
X155918779Y-98499543D01*
X160088863Y-98499543D01*
X160088863Y-98578670D01*
X160109342Y-98655096D01*
X160109342Y-98655098D01*
X160144296Y-98715638D01*
X160148903Y-98723618D01*
X160204852Y-98779567D01*
X160273374Y-98819128D01*
X160308841Y-98828631D01*
X160349799Y-98839607D01*
X160349801Y-98839607D01*
X160428927Y-98839607D01*
X160455593Y-98832461D01*
X160505352Y-98819128D01*
X160573874Y-98779567D01*
X160629823Y-98723618D01*
X160669384Y-98655096D01*
X160689863Y-98578669D01*
X160689863Y-98499545D01*
X160689863Y-98499543D01*
X160680038Y-98462878D01*
X160678050Y-98455460D01*
X160677499Y-98453405D01*
X161883959Y-98453405D01*
X161883959Y-98541746D01*
X161893853Y-98578669D01*
X161906823Y-98627074D01*
X161926932Y-98661905D01*
X161950989Y-98703574D01*
X161950991Y-98703576D01*
X161950992Y-98703578D01*
X162013457Y-98766043D01*
X162013458Y-98766044D01*
X162013460Y-98766045D01*
X162014141Y-98766438D01*
X162089961Y-98810212D01*
X162124777Y-98819541D01*
X162173545Y-98832609D01*
X162203297Y-98855439D01*
X162208192Y-98892622D01*
X162185362Y-98922374D01*
X162117544Y-98961527D01*
X162117535Y-98961534D01*
X162055075Y-99023994D01*
X162055070Y-99024000D01*
X162010904Y-99100501D01*
X162010903Y-99100503D01*
X161988040Y-99185828D01*
X161988040Y-99274169D01*
X162007014Y-99344979D01*
X162010904Y-99359497D01*
X162025364Y-99384543D01*
X162055070Y-99435997D01*
X162055072Y-99435999D01*
X162055073Y-99436001D01*
X162117538Y-99498466D01*
X162194042Y-99542635D01*
X162236706Y-99554067D01*
X162279369Y-99565499D01*
X162279371Y-99565499D01*
X162367711Y-99565499D01*
X162401840Y-99556353D01*
X162453038Y-99542635D01*
X162529542Y-99498466D01*
X162592007Y-99436001D01*
X162636176Y-99359497D01*
X162654862Y-99289760D01*
X162659040Y-99274169D01*
X162659040Y-99185828D01*
X162637783Y-99106500D01*
X162636176Y-99100501D01*
X162592007Y-99023997D01*
X162529542Y-98961532D01*
X162529540Y-98961531D01*
X162529538Y-98961529D01*
X162461717Y-98922374D01*
X162453038Y-98917363D01*
X162453035Y-98917362D01*
X162369453Y-98894965D01*
X162339700Y-98872134D01*
X162334806Y-98834952D01*
X162357634Y-98805201D01*
X162425461Y-98766043D01*
X162487926Y-98703578D01*
X162532095Y-98627074D01*
X162554959Y-98541745D01*
X162554959Y-98453407D01*
X162554959Y-98453405D01*
X162537389Y-98387835D01*
X162532095Y-98368078D01*
X162487926Y-98291574D01*
X162425461Y-98229109D01*
X162425459Y-98229108D01*
X162425457Y-98229106D01*
X162383172Y-98204694D01*
X162348957Y-98184940D01*
X162348954Y-98184939D01*
X162263630Y-98162076D01*
X162263628Y-98162076D01*
X162175290Y-98162076D01*
X162175288Y-98162076D01*
X162089963Y-98184939D01*
X162089961Y-98184940D01*
X162013460Y-98229106D01*
X162013454Y-98229111D01*
X161950994Y-98291571D01*
X161950989Y-98291577D01*
X161906823Y-98368078D01*
X161906822Y-98368080D01*
X161883959Y-98453405D01*
X160677499Y-98453405D01*
X160669384Y-98423118D01*
X160669383Y-98423116D01*
X160669383Y-98423115D01*
X160636402Y-98365991D01*
X160629823Y-98354596D01*
X160573874Y-98298647D01*
X160505353Y-98259086D01*
X160428927Y-98238607D01*
X160428925Y-98238607D01*
X160349801Y-98238607D01*
X160349799Y-98238607D01*
X160273373Y-98259086D01*
X160273371Y-98259086D01*
X160204851Y-98298647D01*
X160204851Y-98298648D01*
X160148904Y-98354595D01*
X160148903Y-98354595D01*
X160109342Y-98423115D01*
X160109342Y-98423117D01*
X160088863Y-98499543D01*
X155918779Y-98499543D01*
X155934511Y-98490460D01*
X155990460Y-98434511D01*
X156030021Y-98365989D01*
X156050500Y-98289562D01*
X156050500Y-98210438D01*
X156050500Y-98210436D01*
X156037541Y-98162076D01*
X156030021Y-98134011D01*
X156030020Y-98134009D01*
X156030020Y-98134008D01*
X155992667Y-98069312D01*
X155990460Y-98065489D01*
X155945605Y-98020634D01*
X156397262Y-98020634D01*
X156397262Y-98099761D01*
X156417741Y-98176187D01*
X156417741Y-98176189D01*
X156453779Y-98238607D01*
X156457302Y-98244709D01*
X156513251Y-98300658D01*
X156581773Y-98340219D01*
X156617240Y-98349722D01*
X156658198Y-98360698D01*
X156658200Y-98360698D01*
X156737326Y-98360698D01*
X156763992Y-98353552D01*
X156813751Y-98340219D01*
X156882273Y-98300658D01*
X156938222Y-98244709D01*
X156977783Y-98176187D01*
X156995820Y-98108873D01*
X156998262Y-98099761D01*
X156998262Y-98031028D01*
X159059623Y-98031028D01*
X159059623Y-98119369D01*
X159074848Y-98176189D01*
X159082487Y-98204697D01*
X159096581Y-98229109D01*
X159126653Y-98281197D01*
X159126655Y-98281199D01*
X159126656Y-98281201D01*
X159189121Y-98343666D01*
X159265625Y-98387835D01*
X159308289Y-98399267D01*
X159350952Y-98410699D01*
X159350954Y-98410699D01*
X159439294Y-98410699D01*
X159473423Y-98401553D01*
X159524621Y-98387835D01*
X159601125Y-98343666D01*
X159663590Y-98281201D01*
X159707759Y-98204697D01*
X159727948Y-98129352D01*
X159730623Y-98119369D01*
X159730623Y-98031028D01*
X159714264Y-97969979D01*
X159707759Y-97945701D01*
X159667337Y-97875687D01*
X159663592Y-97869200D01*
X159663587Y-97869194D01*
X159601127Y-97806734D01*
X159601121Y-97806729D01*
X159559452Y-97782672D01*
X159524621Y-97762563D01*
X159524618Y-97762562D01*
X159439294Y-97739699D01*
X159439292Y-97739699D01*
X159350954Y-97739699D01*
X159350952Y-97739699D01*
X159265627Y-97762562D01*
X159265625Y-97762563D01*
X159189124Y-97806729D01*
X159189118Y-97806734D01*
X159126658Y-97869194D01*
X159126653Y-97869200D01*
X159082487Y-97945701D01*
X159082486Y-97945703D01*
X159059623Y-98031028D01*
X156998262Y-98031028D01*
X156998262Y-98020634D01*
X156984688Y-97969979D01*
X156977783Y-97944209D01*
X156977782Y-97944207D01*
X156977782Y-97944206D01*
X156946611Y-97890218D01*
X156938222Y-97875687D01*
X156938221Y-97875686D01*
X156936683Y-97873022D01*
X156931788Y-97835840D01*
X156944467Y-97813877D01*
X156997736Y-97760609D01*
X157037297Y-97692087D01*
X157046184Y-97658919D01*
X157069014Y-97629167D01*
X157106196Y-97624272D01*
X157118011Y-97629165D01*
X157139072Y-97641325D01*
X157139074Y-97641326D01*
X157215499Y-97661805D01*
X157215501Y-97661805D01*
X157294627Y-97661805D01*
X157321293Y-97654659D01*
X157371052Y-97641326D01*
X157439574Y-97601765D01*
X157495523Y-97545816D01*
X157535084Y-97477294D01*
X157555563Y-97400867D01*
X157555563Y-97336610D01*
X158086157Y-97336610D01*
X158086157Y-97424951D01*
X158102566Y-97486189D01*
X158109021Y-97510279D01*
X158120324Y-97529856D01*
X158153187Y-97586779D01*
X158153189Y-97586781D01*
X158153190Y-97586783D01*
X158215655Y-97649248D01*
X158215656Y-97649249D01*
X158215658Y-97649250D01*
X158231825Y-97658584D01*
X158292159Y-97693417D01*
X158334823Y-97704849D01*
X158377486Y-97716281D01*
X158377488Y-97716281D01*
X158465828Y-97716281D01*
X158501377Y-97706755D01*
X158551155Y-97693417D01*
X158627659Y-97649248D01*
X158690124Y-97586783D01*
X158734293Y-97510279D01*
X158757157Y-97424950D01*
X158757157Y-97336612D01*
X158757157Y-97336610D01*
X158744739Y-97290267D01*
X158734293Y-97251283D01*
X158708051Y-97205829D01*
X164164500Y-97205829D01*
X164164500Y-97294170D01*
X164186521Y-97376352D01*
X164187364Y-97379498D01*
X164195636Y-97393825D01*
X164231530Y-97455998D01*
X164231532Y-97456000D01*
X164231533Y-97456002D01*
X164293998Y-97518467D01*
X164293999Y-97518468D01*
X164294001Y-97518469D01*
X164310168Y-97527803D01*
X164370502Y-97562636D01*
X164413166Y-97574068D01*
X164455829Y-97585500D01*
X164455831Y-97585500D01*
X164544171Y-97585500D01*
X164578300Y-97576354D01*
X164629498Y-97562636D01*
X164706002Y-97518467D01*
X164768467Y-97456002D01*
X164812636Y-97379498D01*
X164831731Y-97308235D01*
X164835500Y-97294170D01*
X164835500Y-97205829D01*
X164819894Y-97147590D01*
X164812636Y-97120502D01*
X164805150Y-97107535D01*
X166639500Y-97107535D01*
X166639500Y-97202464D01*
X166664066Y-97294146D01*
X166664067Y-97294149D01*
X166690919Y-97340657D01*
X166711528Y-97376352D01*
X166778648Y-97443472D01*
X166860852Y-97490933D01*
X166931035Y-97509738D01*
X166952535Y-97515499D01*
X166952536Y-97515500D01*
X166952539Y-97515500D01*
X167047464Y-97515500D01*
X167047464Y-97515499D01*
X167139148Y-97490933D01*
X167221352Y-97443472D01*
X167288472Y-97376352D01*
X167335933Y-97294148D01*
X167360499Y-97202464D01*
X167360500Y-97202464D01*
X167360500Y-97107536D01*
X167360499Y-97107535D01*
X167343475Y-97044001D01*
X167335933Y-97015852D01*
X167288472Y-96933648D01*
X167221352Y-96866528D01*
X167209593Y-96859739D01*
X167139149Y-96819067D01*
X167139146Y-96819066D01*
X167047464Y-96794500D01*
X167047461Y-96794500D01*
X166952539Y-96794500D01*
X166952536Y-96794500D01*
X166860853Y-96819066D01*
X166860850Y-96819067D01*
X166778647Y-96866528D01*
X166778647Y-96866529D01*
X166711529Y-96933647D01*
X166711528Y-96933647D01*
X166664067Y-97015850D01*
X166664066Y-97015853D01*
X166639500Y-97107535D01*
X164805150Y-97107535D01*
X164768467Y-97043998D01*
X164706002Y-96981533D01*
X164706000Y-96981532D01*
X164705998Y-96981530D01*
X164664329Y-96957473D01*
X164629498Y-96937364D01*
X164629495Y-96937363D01*
X164544171Y-96914500D01*
X164544169Y-96914500D01*
X164455831Y-96914500D01*
X164455829Y-96914500D01*
X164370504Y-96937363D01*
X164370502Y-96937364D01*
X164294001Y-96981530D01*
X164293995Y-96981535D01*
X164231535Y-97043995D01*
X164231530Y-97044001D01*
X164187364Y-97120502D01*
X164187363Y-97120504D01*
X164164500Y-97205829D01*
X158708051Y-97205829D01*
X158696420Y-97185684D01*
X158690126Y-97174782D01*
X158690121Y-97174776D01*
X158627661Y-97112316D01*
X158627655Y-97112311D01*
X158583236Y-97086667D01*
X158551155Y-97068145D01*
X158551152Y-97068144D01*
X158465828Y-97045281D01*
X158465826Y-97045281D01*
X158377488Y-97045281D01*
X158377486Y-97045281D01*
X158292161Y-97068144D01*
X158292159Y-97068145D01*
X158215658Y-97112311D01*
X158215652Y-97112316D01*
X158153192Y-97174776D01*
X158153187Y-97174782D01*
X158109021Y-97251283D01*
X158109020Y-97251285D01*
X158086157Y-97336610D01*
X157555563Y-97336610D01*
X157555563Y-97321743D01*
X157555563Y-97321741D01*
X157545640Y-97284710D01*
X157535084Y-97245316D01*
X157535083Y-97245314D01*
X157535083Y-97245313D01*
X157510002Y-97201873D01*
X157495523Y-97176794D01*
X157439574Y-97120845D01*
X157421682Y-97110515D01*
X157371053Y-97081284D01*
X157294627Y-97060805D01*
X157294625Y-97060805D01*
X157215501Y-97060805D01*
X157215499Y-97060805D01*
X157139073Y-97081284D01*
X157139071Y-97081284D01*
X157070551Y-97120845D01*
X157070551Y-97120846D01*
X157014604Y-97176793D01*
X157014603Y-97176793D01*
X156975042Y-97245313D01*
X156975042Y-97245315D01*
X156966154Y-97278483D01*
X156943323Y-97308236D01*
X156906141Y-97313130D01*
X156894324Y-97308235D01*
X156873266Y-97296077D01*
X156796840Y-97275598D01*
X156796838Y-97275598D01*
X156717714Y-97275598D01*
X156717712Y-97275598D01*
X156641286Y-97296077D01*
X156641284Y-97296077D01*
X156572764Y-97335638D01*
X156572764Y-97335639D01*
X156516817Y-97391586D01*
X156516816Y-97391586D01*
X156477255Y-97460106D01*
X156477255Y-97460108D01*
X156456776Y-97536534D01*
X156456776Y-97615661D01*
X156477255Y-97692087D01*
X156477255Y-97692089D01*
X156518354Y-97763273D01*
X156523249Y-97800455D01*
X156510568Y-97822421D01*
X156457301Y-97875688D01*
X156417741Y-97944206D01*
X156417741Y-97944208D01*
X156397262Y-98020634D01*
X155945605Y-98020634D01*
X155934511Y-98009540D01*
X155865990Y-97969979D01*
X155789564Y-97949500D01*
X155789562Y-97949500D01*
X155710438Y-97949500D01*
X155710436Y-97949500D01*
X155634010Y-97969979D01*
X155634008Y-97969979D01*
X155565488Y-98009540D01*
X155565488Y-98009541D01*
X155509541Y-98065488D01*
X155509540Y-98065488D01*
X155469979Y-98134008D01*
X155469979Y-98134010D01*
X155449500Y-98210436D01*
X154750982Y-98210436D01*
X154741037Y-98204694D01*
X154672749Y-98165267D01*
X154672746Y-98165266D01*
X154581064Y-98140700D01*
X154581061Y-98140700D01*
X154486139Y-98140700D01*
X154486136Y-98140700D01*
X154394453Y-98165266D01*
X154394450Y-98165267D01*
X154312247Y-98212728D01*
X154312247Y-98212729D01*
X154245129Y-98279847D01*
X154245128Y-98279847D01*
X154197667Y-98362050D01*
X154197666Y-98362053D01*
X154173100Y-98453735D01*
X153631014Y-98453735D01*
X153616570Y-98434911D01*
X153614900Y-98422229D01*
X153614900Y-98360036D01*
X153606243Y-98327734D01*
X153594421Y-98283611D01*
X153594420Y-98283609D01*
X153594420Y-98283608D01*
X153568438Y-98238607D01*
X153554860Y-98215089D01*
X153498911Y-98159140D01*
X153466972Y-98140700D01*
X153430390Y-98119579D01*
X153353964Y-98099100D01*
X153353962Y-98099100D01*
X153274838Y-98099100D01*
X153274836Y-98099100D01*
X153198410Y-98119579D01*
X153198408Y-98119579D01*
X153129888Y-98159140D01*
X153129888Y-98159141D01*
X153073941Y-98215088D01*
X153073940Y-98215088D01*
X153034379Y-98283608D01*
X153034379Y-98283610D01*
X153013900Y-98360036D01*
X153013900Y-98439165D01*
X153018266Y-98455460D01*
X153013371Y-98492642D01*
X152983620Y-98515472D01*
X152944408Y-98525979D01*
X152875888Y-98565540D01*
X152875888Y-98565541D01*
X152819941Y-98621488D01*
X152819940Y-98621488D01*
X152780379Y-98690008D01*
X152780379Y-98690010D01*
X152759900Y-98766436D01*
X151652649Y-98766436D01*
X151626764Y-98759500D01*
X151626762Y-98759500D01*
X151547638Y-98759500D01*
X151547636Y-98759500D01*
X151471210Y-98779979D01*
X151471208Y-98779979D01*
X151402688Y-98819540D01*
X151402688Y-98819541D01*
X151346741Y-98875488D01*
X151346740Y-98875488D01*
X151307179Y-98944008D01*
X151307179Y-98944010D01*
X151286700Y-99020436D01*
X150739658Y-99020436D01*
X150745804Y-99009790D01*
X150749590Y-98995660D01*
X150766283Y-98933364D01*
X150766283Y-98854237D01*
X150756665Y-98818344D01*
X150745804Y-98777812D01*
X150745803Y-98777810D01*
X150745803Y-98777809D01*
X150709907Y-98715636D01*
X150706243Y-98709290D01*
X150650294Y-98653341D01*
X150627791Y-98640349D01*
X150581773Y-98613780D01*
X150505347Y-98593301D01*
X150505345Y-98593301D01*
X150426221Y-98593301D01*
X150426219Y-98593301D01*
X150349793Y-98613780D01*
X150349791Y-98613780D01*
X150281271Y-98653341D01*
X150281271Y-98653342D01*
X150225325Y-98709287D01*
X150225323Y-98709289D01*
X150225323Y-98709290D01*
X150221659Y-98715636D01*
X150188480Y-98773103D01*
X150158726Y-98795933D01*
X150133363Y-98795932D01*
X150061159Y-98776585D01*
X150061156Y-98776585D01*
X149982032Y-98776585D01*
X149982030Y-98776585D01*
X149905604Y-98797064D01*
X149905602Y-98797064D01*
X149837081Y-98836625D01*
X149834666Y-98838479D01*
X149798439Y-98848177D01*
X149765964Y-98829419D01*
X149759573Y-98818344D01*
X149759020Y-98817008D01*
X149719459Y-98748488D01*
X149663511Y-98692540D01*
X149594990Y-98652979D01*
X149518564Y-98632500D01*
X149518562Y-98632500D01*
X149439438Y-98632500D01*
X149439436Y-98632500D01*
X149363010Y-98652979D01*
X149363008Y-98652979D01*
X149294488Y-98692540D01*
X149294488Y-98692541D01*
X149238541Y-98748488D01*
X149238540Y-98748488D01*
X149198979Y-98817008D01*
X149198979Y-98817010D01*
X149178500Y-98893436D01*
X148617673Y-98893436D01*
X148558177Y-98859086D01*
X148481751Y-98838607D01*
X148481749Y-98838607D01*
X148402625Y-98838607D01*
X148402623Y-98838607D01*
X148326197Y-98859086D01*
X148326195Y-98859086D01*
X148257675Y-98898647D01*
X148257675Y-98898648D01*
X148201728Y-98954595D01*
X148201727Y-98954595D01*
X148162166Y-99023115D01*
X148162166Y-99023117D01*
X148141687Y-99099543D01*
X134446628Y-99099543D01*
X134454060Y-99092111D01*
X134493621Y-99023589D01*
X134510249Y-98961534D01*
X134514100Y-98947163D01*
X134514100Y-98868036D01*
X134501105Y-98819541D01*
X134493621Y-98791611D01*
X134493620Y-98791609D01*
X134493620Y-98791608D01*
X134454059Y-98723088D01*
X134398111Y-98667140D01*
X134329590Y-98627579D01*
X134253164Y-98607100D01*
X134253162Y-98607100D01*
X134174038Y-98607100D01*
X134174036Y-98607100D01*
X134097610Y-98627579D01*
X134097608Y-98627579D01*
X134029088Y-98667140D01*
X134029088Y-98667141D01*
X133973141Y-98723088D01*
X133973140Y-98723088D01*
X133933579Y-98791608D01*
X133933579Y-98791610D01*
X133913100Y-98868036D01*
X133700500Y-98868036D01*
X133700500Y-97710634D01*
X136177262Y-97710634D01*
X136177262Y-97789761D01*
X136197741Y-97866187D01*
X136197741Y-97866189D01*
X136223439Y-97910698D01*
X136237302Y-97934709D01*
X136293251Y-97990658D01*
X136361773Y-98030219D01*
X136397021Y-98039664D01*
X136438198Y-98050698D01*
X136438200Y-98050698D01*
X136517326Y-98050698D01*
X136543992Y-98043552D01*
X136593751Y-98030219D01*
X136662273Y-97990658D01*
X136718222Y-97934709D01*
X136753837Y-97873022D01*
X136757782Y-97866189D01*
X136757782Y-97866188D01*
X136757783Y-97866187D01*
X136778262Y-97789760D01*
X136778262Y-97759641D01*
X143234930Y-97759641D01*
X143234930Y-97838768D01*
X143255409Y-97915194D01*
X143255409Y-97915196D01*
X143273023Y-97945703D01*
X143294970Y-97983716D01*
X143350919Y-98039665D01*
X143419441Y-98079226D01*
X143454908Y-98088729D01*
X143495866Y-98099705D01*
X143495868Y-98099705D01*
X143574994Y-98099705D01*
X143601660Y-98092559D01*
X143651419Y-98079226D01*
X143719941Y-98039665D01*
X143775890Y-97983716D01*
X143815451Y-97915194D01*
X143835608Y-97839968D01*
X143835930Y-97838768D01*
X143835930Y-97789288D01*
X144449250Y-97789288D01*
X144449250Y-97868415D01*
X144469729Y-97944841D01*
X144469729Y-97944843D01*
X144496181Y-97990658D01*
X144509290Y-98013363D01*
X144565239Y-98069312D01*
X144633761Y-98108873D01*
X144669228Y-98118376D01*
X144710186Y-98129352D01*
X144710188Y-98129352D01*
X144789314Y-98129352D01*
X144815980Y-98122206D01*
X144865739Y-98108873D01*
X144934261Y-98069312D01*
X144990210Y-98013363D01*
X145029273Y-97945703D01*
X145029770Y-97944843D01*
X145029770Y-97944842D01*
X145029771Y-97944841D01*
X145049015Y-97873022D01*
X145050250Y-97868415D01*
X145050250Y-97789288D01*
X145039909Y-97750698D01*
X145029771Y-97712863D01*
X145029770Y-97712861D01*
X145029770Y-97712860D01*
X144998627Y-97658920D01*
X144990210Y-97644341D01*
X144934261Y-97588392D01*
X144903507Y-97570636D01*
X144903504Y-97570634D01*
X145157262Y-97570634D01*
X145157262Y-97649761D01*
X145177741Y-97726187D01*
X145177741Y-97726189D01*
X145214172Y-97789288D01*
X145217302Y-97794709D01*
X145273251Y-97850658D01*
X145341773Y-97890219D01*
X145377240Y-97899722D01*
X145418198Y-97910698D01*
X145418200Y-97910698D01*
X145497326Y-97910698D01*
X145523992Y-97903552D01*
X145573751Y-97890219D01*
X145642273Y-97850658D01*
X145698222Y-97794709D01*
X145737783Y-97726187D01*
X145753933Y-97665911D01*
X145758262Y-97649761D01*
X145758262Y-97570634D01*
X145747335Y-97529856D01*
X145744796Y-97520383D01*
X145905112Y-97520383D01*
X145905112Y-97599510D01*
X145925591Y-97675936D01*
X145925591Y-97675938D01*
X145959049Y-97733887D01*
X145965152Y-97744458D01*
X146021101Y-97800407D01*
X146059231Y-97822421D01*
X146087544Y-97838768D01*
X146089623Y-97839968D01*
X146125090Y-97849471D01*
X146166048Y-97860447D01*
X146166050Y-97860447D01*
X146245176Y-97860447D01*
X146281706Y-97850658D01*
X146321601Y-97839968D01*
X146323680Y-97838768D01*
X146351993Y-97822421D01*
X146390123Y-97800407D01*
X146446072Y-97744458D01*
X146454162Y-97730444D01*
X146483915Y-97707614D01*
X146521096Y-97712507D01*
X146521097Y-97712508D01*
X146521098Y-97712509D01*
X146527631Y-97716281D01*
X146551773Y-97730219D01*
X146587152Y-97739699D01*
X146628198Y-97750698D01*
X146628200Y-97750698D01*
X146707326Y-97750698D01*
X146733992Y-97743552D01*
X146783751Y-97730219D01*
X146852273Y-97690658D01*
X146897207Y-97645724D01*
X146931855Y-97631372D01*
X146964758Y-97645001D01*
X146964945Y-97644759D01*
X146965850Y-97645453D01*
X146966503Y-97645724D01*
X146967494Y-97646715D01*
X146988634Y-97658920D01*
X147018106Y-97675936D01*
X147036016Y-97686276D01*
X147062666Y-97693417D01*
X147112441Y-97706755D01*
X147112443Y-97706755D01*
X147191569Y-97706755D01*
X147218235Y-97699609D01*
X147267994Y-97686276D01*
X147336516Y-97646715D01*
X147392465Y-97590766D01*
X147432026Y-97522244D01*
X147452505Y-97445817D01*
X147452505Y-97366693D01*
X147452505Y-97366691D01*
X147445529Y-97340658D01*
X147442843Y-97330634D01*
X147557262Y-97330634D01*
X147557262Y-97409761D01*
X147577741Y-97486187D01*
X147577741Y-97486189D01*
X147612168Y-97545817D01*
X147617302Y-97554709D01*
X147673251Y-97610658D01*
X147705310Y-97629167D01*
X147740979Y-97649761D01*
X147741773Y-97650219D01*
X147774245Y-97658920D01*
X147818198Y-97670698D01*
X147818200Y-97670698D01*
X147897326Y-97670698D01*
X147930512Y-97661805D01*
X147973751Y-97650219D01*
X147974545Y-97649761D01*
X147989156Y-97641325D01*
X148042273Y-97610658D01*
X148043666Y-97609264D01*
X148044587Y-97608882D01*
X148044827Y-97608699D01*
X148044876Y-97608763D01*
X148078311Y-97594909D01*
X148112962Y-97609256D01*
X148117743Y-97615484D01*
X148117924Y-97615346D01*
X148119880Y-97617895D01*
X148119882Y-97617898D01*
X148175831Y-97673847D01*
X148244353Y-97713408D01*
X148279820Y-97722911D01*
X148320778Y-97733887D01*
X148320780Y-97733887D01*
X148399906Y-97733887D01*
X148428640Y-97726187D01*
X148476331Y-97713408D01*
X148544853Y-97673847D01*
X148600802Y-97617898D01*
X148640363Y-97549376D01*
X148660842Y-97472949D01*
X148660842Y-97393825D01*
X148660842Y-97393823D01*
X148648674Y-97348414D01*
X148640363Y-97317398D01*
X148640362Y-97317396D01*
X148640362Y-97317395D01*
X148615281Y-97273955D01*
X148600802Y-97248876D01*
X148544853Y-97192927D01*
X148534378Y-97186879D01*
X148476332Y-97153366D01*
X148399906Y-97132887D01*
X148399904Y-97132887D01*
X148320780Y-97132887D01*
X148320778Y-97132887D01*
X148244352Y-97153366D01*
X148244350Y-97153366D01*
X148175837Y-97192922D01*
X148175830Y-97192928D01*
X148174429Y-97194329D01*
X148173508Y-97194710D01*
X148173287Y-97194880D01*
X148173241Y-97194820D01*
X148139778Y-97208676D01*
X148105132Y-97194320D01*
X148100360Y-97188100D01*
X148100180Y-97188239D01*
X148098224Y-97185690D01*
X148098222Y-97185687D01*
X148042273Y-97129738D01*
X148026276Y-97120502D01*
X147973752Y-97090177D01*
X147897326Y-97069698D01*
X147897324Y-97069698D01*
X147818200Y-97069698D01*
X147818198Y-97069698D01*
X147741772Y-97090177D01*
X147741770Y-97090177D01*
X147673250Y-97129738D01*
X147673250Y-97129739D01*
X147617303Y-97185686D01*
X147617302Y-97185686D01*
X147577741Y-97254206D01*
X147577741Y-97254208D01*
X147557262Y-97330634D01*
X147442843Y-97330634D01*
X147432026Y-97290266D01*
X147432025Y-97290265D01*
X147432025Y-97290263D01*
X147406074Y-97245315D01*
X147392465Y-97221744D01*
X147336516Y-97165795D01*
X147333937Y-97164306D01*
X147267995Y-97126234D01*
X147191569Y-97105755D01*
X147191567Y-97105755D01*
X147112443Y-97105755D01*
X147112441Y-97105755D01*
X147036015Y-97126234D01*
X147036013Y-97126234D01*
X146967493Y-97165795D01*
X146967493Y-97165796D01*
X146922560Y-97210729D01*
X146887912Y-97225081D01*
X146855008Y-97211451D01*
X146854822Y-97211694D01*
X146853916Y-97210999D01*
X146853264Y-97210729D01*
X146852273Y-97209738D01*
X146783752Y-97170177D01*
X146707326Y-97149698D01*
X146707324Y-97149698D01*
X146628200Y-97149698D01*
X146628198Y-97149698D01*
X146551772Y-97170177D01*
X146551770Y-97170177D01*
X146483250Y-97209738D01*
X146483250Y-97209739D01*
X146427305Y-97265683D01*
X146427300Y-97265690D01*
X146419209Y-97279703D01*
X146389454Y-97302531D01*
X146352275Y-97297635D01*
X146321602Y-97279926D01*
X146245176Y-97259447D01*
X146245174Y-97259447D01*
X146166050Y-97259447D01*
X146166048Y-97259447D01*
X146089622Y-97279926D01*
X146089620Y-97279926D01*
X146021100Y-97319487D01*
X146021100Y-97319488D01*
X145965153Y-97375435D01*
X145965152Y-97375435D01*
X145925591Y-97443955D01*
X145925591Y-97443957D01*
X145905112Y-97520383D01*
X145744796Y-97520383D01*
X145744475Y-97519184D01*
X145737783Y-97494209D01*
X145737782Y-97494207D01*
X145737782Y-97494206D01*
X145712085Y-97449698D01*
X145698222Y-97425687D01*
X145642273Y-97369738D01*
X145591905Y-97340658D01*
X145573752Y-97330177D01*
X145497326Y-97309698D01*
X145497324Y-97309698D01*
X145418200Y-97309698D01*
X145418198Y-97309698D01*
X145341772Y-97330177D01*
X145341770Y-97330177D01*
X145273250Y-97369738D01*
X145273250Y-97369739D01*
X145217303Y-97425686D01*
X145217302Y-97425686D01*
X145177741Y-97494206D01*
X145177741Y-97494208D01*
X145157262Y-97570634D01*
X144903504Y-97570634D01*
X144865740Y-97548831D01*
X144789314Y-97528352D01*
X144789312Y-97528352D01*
X144710188Y-97528352D01*
X144710186Y-97528352D01*
X144633760Y-97548831D01*
X144633758Y-97548831D01*
X144565238Y-97588392D01*
X144565238Y-97588393D01*
X144509291Y-97644340D01*
X144509290Y-97644340D01*
X144469729Y-97712860D01*
X144469729Y-97712862D01*
X144449250Y-97789288D01*
X143835930Y-97789288D01*
X143835930Y-97759641D01*
X143822798Y-97710634D01*
X143815451Y-97683216D01*
X143815450Y-97683214D01*
X143815450Y-97683213D01*
X143777740Y-97617899D01*
X143775890Y-97614694D01*
X143719941Y-97558745D01*
X143651420Y-97519184D01*
X143574994Y-97498705D01*
X143574992Y-97498705D01*
X143495868Y-97498705D01*
X143495866Y-97498705D01*
X143419440Y-97519184D01*
X143419438Y-97519184D01*
X143350918Y-97558745D01*
X143350918Y-97558746D01*
X143294971Y-97614693D01*
X143294970Y-97614693D01*
X143255409Y-97683213D01*
X143255409Y-97683215D01*
X143234930Y-97759641D01*
X136778262Y-97759641D01*
X136778262Y-97710636D01*
X136778262Y-97710634D01*
X136764404Y-97658920D01*
X136757783Y-97634209D01*
X136757782Y-97634207D01*
X136757782Y-97634206D01*
X136718221Y-97565686D01*
X136662273Y-97509738D01*
X136593752Y-97470177D01*
X136517326Y-97449698D01*
X136517324Y-97449698D01*
X136438200Y-97449698D01*
X136438198Y-97449698D01*
X136361772Y-97470177D01*
X136361770Y-97470177D01*
X136293250Y-97509738D01*
X136293250Y-97509739D01*
X136237303Y-97565686D01*
X136237302Y-97565686D01*
X136197741Y-97634206D01*
X136197741Y-97634208D01*
X136177262Y-97710634D01*
X133700500Y-97710634D01*
X133700500Y-97002389D01*
X133701389Y-96964882D01*
X133700500Y-96962583D01*
X133700500Y-96960118D01*
X133700500Y-96958464D01*
X133700000Y-96952673D01*
X133700000Y-96633444D01*
X136314918Y-96633444D01*
X136314918Y-96734951D01*
X136341189Y-96832993D01*
X136341190Y-96832997D01*
X136374383Y-96890487D01*
X136391942Y-96920900D01*
X136463716Y-96992674D01*
X136479171Y-97001597D01*
X136551618Y-97043425D01*
X136551620Y-97043425D01*
X136551621Y-97043426D01*
X136558544Y-97045281D01*
X136649664Y-97069698D01*
X136649666Y-97069698D01*
X136751172Y-97069698D01*
X136784996Y-97060634D01*
X143061227Y-97060634D01*
X143061227Y-97139761D01*
X143081706Y-97216187D01*
X143081706Y-97216189D01*
X143121267Y-97284709D01*
X143177216Y-97340658D01*
X143190650Y-97348414D01*
X143237453Y-97375436D01*
X143245738Y-97380219D01*
X143281205Y-97389722D01*
X143322163Y-97400698D01*
X143322165Y-97400698D01*
X143401291Y-97400698D01*
X143427957Y-97393552D01*
X143477716Y-97380219D01*
X143546238Y-97340658D01*
X143602187Y-97284709D01*
X143641748Y-97216187D01*
X143662227Y-97139760D01*
X143662227Y-97078965D01*
X143676579Y-97044317D01*
X143711227Y-97029965D01*
X143723906Y-97031634D01*
X143744981Y-97037281D01*
X143768186Y-97043500D01*
X143768188Y-97043500D01*
X143847314Y-97043500D01*
X143873980Y-97036354D01*
X143923739Y-97023021D01*
X143992261Y-96983460D01*
X144048210Y-96927511D01*
X144083418Y-96866528D01*
X144087770Y-96858991D01*
X144087770Y-96858990D01*
X144087771Y-96858989D01*
X144108250Y-96782562D01*
X144108250Y-96703438D01*
X144108250Y-96703436D01*
X144096125Y-96658188D01*
X144087771Y-96627011D01*
X144087770Y-96627009D01*
X144087770Y-96627008D01*
X144071049Y-96598048D01*
X144048210Y-96558489D01*
X144020355Y-96530634D01*
X151897262Y-96530634D01*
X151897262Y-96609761D01*
X151917741Y-96686187D01*
X151917741Y-96686189D01*
X151948583Y-96739607D01*
X151957302Y-96754709D01*
X152013251Y-96810658D01*
X152081773Y-96850219D01*
X152114510Y-96858991D01*
X152158198Y-96870698D01*
X152158200Y-96870698D01*
X152237326Y-96870698D01*
X152263992Y-96863552D01*
X152313751Y-96850219D01*
X152382273Y-96810658D01*
X152438222Y-96754709D01*
X152477783Y-96686187D01*
X152498262Y-96609760D01*
X152498262Y-96530636D01*
X152498262Y-96530634D01*
X152493110Y-96511408D01*
X152498004Y-96474226D01*
X152527757Y-96451395D01*
X152546773Y-96446299D01*
X152606784Y-96430219D01*
X152675306Y-96390658D01*
X152731255Y-96334709D01*
X152770816Y-96266187D01*
X152791295Y-96189760D01*
X152791295Y-96124836D01*
X154588700Y-96124836D01*
X154588700Y-96203963D01*
X154609179Y-96280389D01*
X154609179Y-96280391D01*
X154641247Y-96335933D01*
X154648740Y-96348911D01*
X154704689Y-96404860D01*
X154734207Y-96421902D01*
X154769883Y-96442500D01*
X154773211Y-96444421D01*
X154796637Y-96450698D01*
X154849636Y-96464900D01*
X154849638Y-96464900D01*
X154928764Y-96464900D01*
X154963704Y-96455537D01*
X155005189Y-96444421D01*
X155073711Y-96404860D01*
X155129660Y-96348911D01*
X155169221Y-96280389D01*
X155189700Y-96203962D01*
X155189700Y-96124838D01*
X155189700Y-96124836D01*
X155172355Y-96060107D01*
X155169817Y-96050636D01*
X155169816Y-96050634D01*
X155397262Y-96050634D01*
X155397262Y-96129761D01*
X155417741Y-96206187D01*
X155417741Y-96206189D01*
X155443966Y-96251611D01*
X155457302Y-96274709D01*
X155513251Y-96330658D01*
X155581773Y-96370219D01*
X155609427Y-96377629D01*
X155658198Y-96390698D01*
X155658200Y-96390698D01*
X155737326Y-96390698D01*
X155763992Y-96383552D01*
X155813751Y-96370219D01*
X155882273Y-96330658D01*
X155884895Y-96328036D01*
X156112700Y-96328036D01*
X156112700Y-96407163D01*
X156133179Y-96483589D01*
X156133179Y-96483591D01*
X156163093Y-96535402D01*
X156172740Y-96552111D01*
X156228689Y-96608060D01*
X156297211Y-96647621D01*
X156332678Y-96657124D01*
X156373636Y-96668100D01*
X156373638Y-96668100D01*
X156452764Y-96668100D01*
X156479430Y-96660954D01*
X156529189Y-96647621D01*
X156597711Y-96608060D01*
X156649089Y-96556682D01*
X158760339Y-96556682D01*
X158760339Y-96658189D01*
X158786610Y-96756231D01*
X158786611Y-96756235D01*
X158830931Y-96832997D01*
X158837363Y-96844138D01*
X158909137Y-96915912D01*
X158924447Y-96924751D01*
X158997039Y-96966663D01*
X158997041Y-96966663D01*
X158997042Y-96966664D01*
X159017978Y-96972274D01*
X159095085Y-96992936D01*
X159095087Y-96992936D01*
X159196593Y-96992936D01*
X159245613Y-96979800D01*
X159294636Y-96966664D01*
X159300503Y-96963277D01*
X159318869Y-96952673D01*
X159382541Y-96915912D01*
X159454315Y-96844138D01*
X159505067Y-96756233D01*
X159527302Y-96673255D01*
X159531339Y-96658189D01*
X159531339Y-96556682D01*
X159504236Y-96455537D01*
X159505383Y-96455229D01*
X159505378Y-96421902D01*
X159531892Y-96395379D01*
X159563334Y-96393316D01*
X159581217Y-96398108D01*
X159581219Y-96398108D01*
X159660345Y-96398108D01*
X159688150Y-96390657D01*
X159736770Y-96377629D01*
X159805292Y-96338068D01*
X159861241Y-96282119D01*
X159895501Y-96222778D01*
X159900801Y-96213599D01*
X159900801Y-96213598D01*
X159900802Y-96213597D01*
X159921281Y-96137170D01*
X159921281Y-96058046D01*
X159921281Y-96058044D01*
X159908557Y-96010560D01*
X159900802Y-95981619D01*
X159896524Y-95974209D01*
X159896303Y-95973826D01*
X159896302Y-95973825D01*
X159889849Y-95962648D01*
X159884010Y-95952535D01*
X165139500Y-95952535D01*
X165139500Y-96047464D01*
X165164066Y-96139146D01*
X165164067Y-96139149D01*
X165205814Y-96211456D01*
X165211528Y-96221352D01*
X165278648Y-96288472D01*
X165326799Y-96316272D01*
X165358733Y-96334710D01*
X165360852Y-96335933D01*
X165423544Y-96352731D01*
X165452535Y-96360499D01*
X165452536Y-96360500D01*
X165452539Y-96360500D01*
X165547464Y-96360500D01*
X165547464Y-96360499D01*
X165639148Y-96335933D01*
X165721352Y-96288472D01*
X165788472Y-96221352D01*
X165835933Y-96139148D01*
X165860499Y-96047464D01*
X165860500Y-96047464D01*
X165860500Y-95952536D01*
X165860499Y-95952535D01*
X165841240Y-95880658D01*
X165835933Y-95860852D01*
X165833794Y-95857148D01*
X165799130Y-95797108D01*
X165788472Y-95778648D01*
X165721352Y-95711528D01*
X165687886Y-95692206D01*
X165639149Y-95664067D01*
X165639146Y-95664066D01*
X165547464Y-95639500D01*
X165547461Y-95639500D01*
X165452539Y-95639500D01*
X165452536Y-95639500D01*
X165360853Y-95664066D01*
X165360850Y-95664067D01*
X165278647Y-95711528D01*
X165278647Y-95711529D01*
X165211529Y-95778647D01*
X165211528Y-95778647D01*
X165164067Y-95860850D01*
X165164066Y-95860853D01*
X165139500Y-95952535D01*
X159884010Y-95952535D01*
X159861241Y-95913097D01*
X159805292Y-95857148D01*
X159792459Y-95849739D01*
X159736771Y-95817587D01*
X159660345Y-95797108D01*
X159660343Y-95797108D01*
X159581219Y-95797108D01*
X159581217Y-95797108D01*
X159504791Y-95817587D01*
X159504789Y-95817587D01*
X159436269Y-95857148D01*
X159436269Y-95857149D01*
X159380322Y-95913096D01*
X159380321Y-95913096D01*
X159340760Y-95981616D01*
X159340760Y-95981618D01*
X159320281Y-96058044D01*
X159320281Y-96137171D01*
X159332352Y-96182220D01*
X159327457Y-96219403D01*
X159297705Y-96242233D01*
X159272339Y-96242233D01*
X159196593Y-96221936D01*
X159196591Y-96221936D01*
X159095087Y-96221936D01*
X159095085Y-96221936D01*
X158997043Y-96248207D01*
X158997039Y-96248208D01*
X158909136Y-96298960D01*
X158909136Y-96298961D01*
X158837364Y-96370733D01*
X158837363Y-96370733D01*
X158786611Y-96458636D01*
X158786610Y-96458640D01*
X158760339Y-96556682D01*
X156649089Y-96556682D01*
X156653660Y-96552111D01*
X156693221Y-96483589D01*
X156713700Y-96407162D01*
X156713700Y-96328038D01*
X156713700Y-96328036D01*
X156701396Y-96282119D01*
X156693221Y-96251611D01*
X156693220Y-96251609D01*
X156693220Y-96251608D01*
X156665795Y-96204108D01*
X156653660Y-96183089D01*
X156597711Y-96127140D01*
X156593720Y-96124836D01*
X156529190Y-96087579D01*
X156452764Y-96067100D01*
X156452762Y-96067100D01*
X156373638Y-96067100D01*
X156373636Y-96067100D01*
X156297210Y-96087579D01*
X156297208Y-96087579D01*
X156228688Y-96127140D01*
X156228688Y-96127141D01*
X156172741Y-96183088D01*
X156172740Y-96183088D01*
X156133179Y-96251608D01*
X156133179Y-96251610D01*
X156112700Y-96328036D01*
X155884895Y-96328036D01*
X155938222Y-96274709D01*
X155977783Y-96206187D01*
X155995746Y-96139149D01*
X155998262Y-96129761D01*
X155998262Y-96050634D01*
X155987523Y-96010559D01*
X155977783Y-95974209D01*
X155977782Y-95974207D01*
X155977782Y-95974206D01*
X155946611Y-95920218D01*
X155938222Y-95905687D01*
X155882273Y-95849738D01*
X155882204Y-95849698D01*
X155813752Y-95810177D01*
X155737326Y-95789698D01*
X155737324Y-95789698D01*
X155658200Y-95789698D01*
X155658198Y-95789698D01*
X155581772Y-95810177D01*
X155581770Y-95810177D01*
X155513250Y-95849738D01*
X155513250Y-95849739D01*
X155457303Y-95905686D01*
X155457302Y-95905686D01*
X155417741Y-95974206D01*
X155417741Y-95974208D01*
X155397262Y-96050634D01*
X155169816Y-96050634D01*
X155169221Y-96048411D01*
X155169220Y-96048409D01*
X155169220Y-96048408D01*
X155144139Y-96004968D01*
X155129660Y-95979889D01*
X155073711Y-95923940D01*
X155067256Y-95920213D01*
X155005190Y-95884379D01*
X154928764Y-95863900D01*
X154928762Y-95863900D01*
X154849638Y-95863900D01*
X154849636Y-95863900D01*
X154773210Y-95884379D01*
X154773208Y-95884379D01*
X154704688Y-95923940D01*
X154704688Y-95923941D01*
X154648741Y-95979888D01*
X154648740Y-95979888D01*
X154609179Y-96048408D01*
X154609179Y-96048410D01*
X154588700Y-96124836D01*
X152791295Y-96124836D01*
X152791295Y-96110636D01*
X152791295Y-96110634D01*
X152777203Y-96058046D01*
X152770816Y-96034209D01*
X152770815Y-96034207D01*
X152770815Y-96034206D01*
X152740453Y-95981618D01*
X152731255Y-95965687D01*
X152675306Y-95909738D01*
X152606785Y-95870177D01*
X152530359Y-95849698D01*
X152530357Y-95849698D01*
X152451233Y-95849698D01*
X152451231Y-95849698D01*
X152374805Y-95870177D01*
X152374803Y-95870177D01*
X152306283Y-95909738D01*
X152306283Y-95909739D01*
X152250336Y-95965686D01*
X152250335Y-95965686D01*
X152210774Y-96034206D01*
X152210774Y-96034208D01*
X152190295Y-96110634D01*
X152190295Y-96110636D01*
X152190295Y-96189760D01*
X152193015Y-96199911D01*
X152195447Y-96208988D01*
X152190551Y-96246171D01*
X152160799Y-96269000D01*
X152081772Y-96290177D01*
X152081770Y-96290177D01*
X152013250Y-96329738D01*
X152013250Y-96329739D01*
X151957303Y-96385686D01*
X151957302Y-96385686D01*
X151917741Y-96454206D01*
X151917741Y-96454208D01*
X151897262Y-96530634D01*
X144020355Y-96530634D01*
X143992261Y-96502540D01*
X143923740Y-96462979D01*
X143847314Y-96442500D01*
X143847312Y-96442500D01*
X143768188Y-96442500D01*
X143768186Y-96442500D01*
X143691760Y-96462979D01*
X143691758Y-96462979D01*
X143623238Y-96502540D01*
X143623238Y-96502541D01*
X143567291Y-96558488D01*
X143567290Y-96558488D01*
X143527729Y-96627008D01*
X143527729Y-96627010D01*
X143507250Y-96703436D01*
X143507250Y-96764232D01*
X143492898Y-96798880D01*
X143458250Y-96813232D01*
X143445568Y-96811562D01*
X143401292Y-96799698D01*
X143401289Y-96799698D01*
X143322165Y-96799698D01*
X143322163Y-96799698D01*
X143245737Y-96820177D01*
X143245735Y-96820177D01*
X143177215Y-96859738D01*
X143177215Y-96859739D01*
X143121268Y-96915686D01*
X143121267Y-96915686D01*
X143081706Y-96984206D01*
X143081706Y-96984208D01*
X143061227Y-97060634D01*
X136784996Y-97060634D01*
X136800192Y-97056562D01*
X136849215Y-97043426D01*
X136937120Y-96992674D01*
X137008894Y-96920900D01*
X137059646Y-96832995D01*
X137080623Y-96754710D01*
X137085918Y-96734951D01*
X137085918Y-96633444D01*
X137064124Y-96552112D01*
X137059646Y-96535401D01*
X137059645Y-96535400D01*
X137059645Y-96535398D01*
X137018942Y-96464900D01*
X137008894Y-96447496D01*
X136937120Y-96375722D01*
X136910755Y-96360500D01*
X136898520Y-96353436D01*
X142828500Y-96353436D01*
X142828500Y-96432563D01*
X142848979Y-96508989D01*
X142848979Y-96508991D01*
X142888426Y-96577314D01*
X142888540Y-96577511D01*
X142944489Y-96633460D01*
X142969015Y-96647620D01*
X143004487Y-96668100D01*
X143013011Y-96673021D01*
X143037728Y-96679644D01*
X143089436Y-96693500D01*
X143089438Y-96693500D01*
X143168564Y-96693500D01*
X143195854Y-96686187D01*
X143244989Y-96673021D01*
X143313511Y-96633460D01*
X143369460Y-96577511D01*
X143403720Y-96518170D01*
X143409020Y-96508991D01*
X143409020Y-96508990D01*
X143409021Y-96508989D01*
X143429500Y-96432562D01*
X143429500Y-96353438D01*
X143429500Y-96353436D01*
X143419541Y-96316272D01*
X143424435Y-96279090D01*
X143454186Y-96256260D01*
X143473751Y-96251018D01*
X143542273Y-96211457D01*
X143598222Y-96155508D01*
X143637783Y-96086986D01*
X143658262Y-96010559D01*
X143658262Y-95962648D01*
X143672614Y-95928000D01*
X143707262Y-95913648D01*
X143728642Y-95919377D01*
X143728803Y-95918989D01*
X143731751Y-95920210D01*
X143731762Y-95920213D01*
X143731771Y-95920218D01*
X143731773Y-95920219D01*
X143767240Y-95929722D01*
X143808198Y-95940698D01*
X143808200Y-95940698D01*
X143887326Y-95940698D01*
X143921893Y-95931435D01*
X143963751Y-95920219D01*
X143963762Y-95920213D01*
X143981903Y-95909739D01*
X144032273Y-95880658D01*
X144088222Y-95824709D01*
X144127783Y-95756187D01*
X144144927Y-95692206D01*
X144148262Y-95679761D01*
X144148262Y-95600634D01*
X144131897Y-95539563D01*
X144127783Y-95524209D01*
X144127782Y-95524207D01*
X144127782Y-95524206D01*
X144090965Y-95460438D01*
X144088222Y-95455687D01*
X144032273Y-95399738D01*
X144005033Y-95384011D01*
X143963752Y-95360177D01*
X143887326Y-95339698D01*
X143887324Y-95339698D01*
X143808200Y-95339698D01*
X143808198Y-95339698D01*
X143731772Y-95360177D01*
X143731770Y-95360177D01*
X143663250Y-95399738D01*
X143663250Y-95399739D01*
X143607303Y-95455686D01*
X143607302Y-95455686D01*
X143567741Y-95524206D01*
X143567741Y-95524208D01*
X143547262Y-95600634D01*
X143547262Y-95648546D01*
X143532910Y-95683194D01*
X143498262Y-95697546D01*
X143476880Y-95691820D01*
X143476721Y-95692206D01*
X143473792Y-95690993D01*
X143473773Y-95690988D01*
X143473755Y-95690977D01*
X143473751Y-95690976D01*
X143397326Y-95670497D01*
X143397324Y-95670497D01*
X143318200Y-95670497D01*
X143318198Y-95670497D01*
X143241772Y-95690976D01*
X143241770Y-95690976D01*
X143173250Y-95730537D01*
X143173250Y-95730538D01*
X143117303Y-95786485D01*
X143117302Y-95786485D01*
X143077741Y-95855005D01*
X143077741Y-95855007D01*
X143057262Y-95931433D01*
X143057262Y-96010560D01*
X143067220Y-96047723D01*
X143062326Y-96084906D01*
X143032574Y-96107736D01*
X143013011Y-96112978D01*
X143013008Y-96112979D01*
X142944488Y-96152540D01*
X142944488Y-96152541D01*
X142888541Y-96208488D01*
X142888540Y-96208488D01*
X142848979Y-96277008D01*
X142848979Y-96277010D01*
X142828500Y-96353436D01*
X136898520Y-96353436D01*
X136849217Y-96324970D01*
X136849213Y-96324969D01*
X136751172Y-96298698D01*
X136751170Y-96298698D01*
X136649666Y-96298698D01*
X136649664Y-96298698D01*
X136551622Y-96324969D01*
X136551618Y-96324970D01*
X136463715Y-96375722D01*
X136463715Y-96375723D01*
X136391943Y-96447495D01*
X136391942Y-96447495D01*
X136341190Y-96535398D01*
X136341189Y-96535402D01*
X136314918Y-96633444D01*
X133700000Y-96633444D01*
X133700000Y-95460436D01*
X138699500Y-95460436D01*
X138699500Y-95539563D01*
X138719979Y-95615989D01*
X138719979Y-95615991D01*
X138751449Y-95670497D01*
X138759540Y-95684511D01*
X138815489Y-95740460D01*
X138884011Y-95780021D01*
X138919478Y-95789524D01*
X138960436Y-95800500D01*
X138960438Y-95800500D01*
X139039564Y-95800500D01*
X139066230Y-95793354D01*
X139115989Y-95780021D01*
X139184511Y-95740460D01*
X139240460Y-95684511D01*
X139280021Y-95615989D01*
X139300500Y-95539562D01*
X139300500Y-95460438D01*
X139300500Y-95460436D01*
X139284235Y-95399738D01*
X139280021Y-95384011D01*
X139280020Y-95384009D01*
X139280020Y-95384008D01*
X139240459Y-95315488D01*
X139205605Y-95280634D01*
X142580526Y-95280634D01*
X142580526Y-95359761D01*
X142601005Y-95436187D01*
X142601005Y-95436189D01*
X142634793Y-95494710D01*
X142640566Y-95504709D01*
X142696515Y-95560658D01*
X142765037Y-95600219D01*
X142800504Y-95609722D01*
X142841462Y-95620698D01*
X142841464Y-95620698D01*
X142920590Y-95620698D01*
X142947256Y-95613552D01*
X142997015Y-95600219D01*
X143065537Y-95560658D01*
X143121486Y-95504709D01*
X143161047Y-95436187D01*
X143177197Y-95375911D01*
X143181526Y-95359761D01*
X143181526Y-95280634D01*
X143181384Y-95280104D01*
X143181384Y-95280103D01*
X143178846Y-95270634D01*
X152137262Y-95270634D01*
X152137262Y-95349761D01*
X152157741Y-95426187D01*
X152157741Y-95426189D01*
X152197302Y-95494709D01*
X152253251Y-95550658D01*
X152321773Y-95590219D01*
X152357240Y-95599722D01*
X152398198Y-95610698D01*
X152398200Y-95610698D01*
X152477326Y-95610698D01*
X152503992Y-95603552D01*
X152553751Y-95590219D01*
X152622273Y-95550658D01*
X152678222Y-95494709D01*
X152717783Y-95426187D01*
X152735582Y-95359761D01*
X152738262Y-95349761D01*
X152738262Y-95270634D01*
X152724688Y-95219979D01*
X152717783Y-95194209D01*
X152717782Y-95194207D01*
X152717782Y-95194206D01*
X152678221Y-95125686D01*
X152622273Y-95069738D01*
X152553752Y-95030177D01*
X152477326Y-95009698D01*
X152477324Y-95009698D01*
X152398200Y-95009698D01*
X152398198Y-95009698D01*
X152321772Y-95030177D01*
X152321770Y-95030177D01*
X152253250Y-95069738D01*
X152253250Y-95069739D01*
X152197303Y-95125686D01*
X152197302Y-95125686D01*
X152157741Y-95194206D01*
X152157741Y-95194208D01*
X152137262Y-95270634D01*
X143178846Y-95270634D01*
X143170638Y-95240004D01*
X143161047Y-95204209D01*
X143161046Y-95204207D01*
X143161046Y-95204206D01*
X143121485Y-95135686D01*
X143065537Y-95079738D01*
X142997016Y-95040177D01*
X142920590Y-95019698D01*
X142920588Y-95019698D01*
X142841464Y-95019698D01*
X142841462Y-95019698D01*
X142765036Y-95040177D01*
X142765034Y-95040177D01*
X142696514Y-95079738D01*
X142696514Y-95079739D01*
X142640567Y-95135686D01*
X142640566Y-95135686D01*
X142601005Y-95204206D01*
X142601005Y-95204208D01*
X142580526Y-95280634D01*
X139205605Y-95280634D01*
X139184511Y-95259540D01*
X139115990Y-95219979D01*
X139039564Y-95199500D01*
X139039562Y-95199500D01*
X138960438Y-95199500D01*
X138960436Y-95199500D01*
X138884010Y-95219979D01*
X138884008Y-95219979D01*
X138815488Y-95259540D01*
X138815488Y-95259541D01*
X138759541Y-95315488D01*
X138759540Y-95315488D01*
X138719979Y-95384008D01*
X138719979Y-95384010D01*
X138699500Y-95460436D01*
X133700000Y-95460436D01*
X133700000Y-94447119D01*
X134152718Y-94447119D01*
X134152718Y-94528880D01*
X134173877Y-94607846D01*
X134173878Y-94607850D01*
X134201608Y-94655878D01*
X134214756Y-94678651D01*
X134272567Y-94736462D01*
X134298481Y-94751423D01*
X134343367Y-94777339D01*
X134343369Y-94777339D01*
X134343370Y-94777340D01*
X134363112Y-94782630D01*
X134422337Y-94798500D01*
X134422340Y-94798500D01*
X134504098Y-94798500D01*
X134543581Y-94787920D01*
X134583066Y-94777340D01*
X134653869Y-94736462D01*
X134711680Y-94678651D01*
X134752558Y-94607848D01*
X134761596Y-94574119D01*
X135071500Y-94574119D01*
X135071500Y-94655880D01*
X135092659Y-94734846D01*
X135092660Y-94734850D01*
X135127507Y-94795205D01*
X135133538Y-94805651D01*
X135191349Y-94863462D01*
X135217263Y-94878423D01*
X135262149Y-94904339D01*
X135262151Y-94904339D01*
X135262152Y-94904340D01*
X135281894Y-94909630D01*
X135341119Y-94925500D01*
X135341122Y-94925500D01*
X135422880Y-94925500D01*
X135462363Y-94914920D01*
X135501848Y-94904340D01*
X135572651Y-94863462D01*
X135630462Y-94805651D01*
X135671340Y-94734848D01*
X135690542Y-94663186D01*
X135692500Y-94655880D01*
X135692500Y-94574119D01*
X135676630Y-94514894D01*
X135671340Y-94495152D01*
X135660298Y-94476027D01*
X139782262Y-94476027D01*
X139782262Y-94564368D01*
X139802983Y-94641699D01*
X139805126Y-94649696D01*
X139820841Y-94676916D01*
X139849292Y-94726196D01*
X139849294Y-94726198D01*
X139849295Y-94726200D01*
X139911760Y-94788665D01*
X139911761Y-94788666D01*
X139911763Y-94788667D01*
X139923088Y-94795205D01*
X139988264Y-94832834D01*
X140030928Y-94844266D01*
X140073591Y-94855698D01*
X140073593Y-94855698D01*
X140161933Y-94855698D01*
X140196062Y-94846552D01*
X140247260Y-94832834D01*
X140323764Y-94788665D01*
X140386229Y-94726200D01*
X140430398Y-94649696D01*
X140453020Y-94565270D01*
X140453262Y-94564368D01*
X140453262Y-94476027D01*
X140435493Y-94409716D01*
X140430398Y-94390700D01*
X140386229Y-94314196D01*
X140323764Y-94251731D01*
X140323761Y-94251729D01*
X140323757Y-94251726D01*
X140309124Y-94243278D01*
X140309123Y-94243278D01*
X140307451Y-94242313D01*
X140277824Y-94225208D01*
X140247260Y-94207562D01*
X140247257Y-94207561D01*
X140234162Y-94204052D01*
X142655151Y-94204052D01*
X142655151Y-94283179D01*
X142675630Y-94359605D01*
X142675630Y-94359607D01*
X142704563Y-94409719D01*
X142715191Y-94428127D01*
X142771140Y-94484076D01*
X142839662Y-94523637D01*
X142859229Y-94528880D01*
X142916087Y-94544116D01*
X142916089Y-94544116D01*
X142995215Y-94544116D01*
X143020408Y-94537364D01*
X143059051Y-94527010D01*
X143096231Y-94531904D01*
X143119062Y-94561657D01*
X143119263Y-94562663D01*
X143140441Y-94641697D01*
X143140441Y-94641699D01*
X143175510Y-94702438D01*
X143180002Y-94710219D01*
X143235951Y-94766168D01*
X143262616Y-94781563D01*
X143304469Y-94805727D01*
X143304473Y-94805729D01*
X143339940Y-94815232D01*
X143380898Y-94826208D01*
X143380900Y-94826208D01*
X143460026Y-94826208D01*
X143486692Y-94819062D01*
X143536451Y-94805729D01*
X143536454Y-94805727D01*
X143536455Y-94805727D01*
X143554679Y-94795205D01*
X143591861Y-94790308D01*
X143621614Y-94813138D01*
X143626511Y-94850320D01*
X143626510Y-94850321D01*
X143619144Y-94877810D01*
X143619144Y-94956939D01*
X143639623Y-95033365D01*
X143639623Y-95033367D01*
X143660623Y-95069739D01*
X143679184Y-95101887D01*
X143735133Y-95157836D01*
X143803655Y-95197397D01*
X143839122Y-95206900D01*
X143880080Y-95217876D01*
X143880082Y-95217876D01*
X143959208Y-95217876D01*
X143985874Y-95210730D01*
X144035633Y-95197397D01*
X144104155Y-95157836D01*
X144160104Y-95101887D01*
X144199665Y-95033365D01*
X144220144Y-94956938D01*
X144220144Y-94877814D01*
X144220144Y-94877812D01*
X144206316Y-94826208D01*
X144199665Y-94801387D01*
X144199664Y-94801385D01*
X144199664Y-94801384D01*
X144174583Y-94757944D01*
X144160104Y-94732865D01*
X144104155Y-94676916D01*
X144080374Y-94663186D01*
X144035634Y-94637355D01*
X143959208Y-94616876D01*
X143959206Y-94616876D01*
X143880082Y-94616876D01*
X143880080Y-94616876D01*
X143803654Y-94637355D01*
X143785424Y-94647880D01*
X143769277Y-94650005D01*
X143753459Y-94653872D01*
X143751043Y-94652405D01*
X143748242Y-94652774D01*
X143735321Y-94642859D01*
X143721402Y-94634408D01*
X143720913Y-94631803D01*
X143718489Y-94629943D01*
X143712497Y-94597978D01*
X143712902Y-94595347D01*
X143720962Y-94565270D01*
X143720962Y-94550036D01*
X165561500Y-94550036D01*
X165561500Y-94629163D01*
X165581979Y-94705589D01*
X165581979Y-94705591D01*
X165616954Y-94766168D01*
X165621540Y-94774111D01*
X165677489Y-94830060D01*
X165682294Y-94832834D01*
X165735341Y-94863461D01*
X165746011Y-94869621D01*
X165776572Y-94877810D01*
X165822436Y-94890100D01*
X165822438Y-94890100D01*
X165901564Y-94890100D01*
X165928230Y-94882954D01*
X165977989Y-94869621D01*
X166046511Y-94830060D01*
X166095009Y-94781561D01*
X166129655Y-94767211D01*
X166164303Y-94781562D01*
X166176985Y-94803528D01*
X166191579Y-94857989D01*
X166191579Y-94857991D01*
X166227381Y-94920000D01*
X166231140Y-94926511D01*
X166287089Y-94982460D01*
X166355611Y-95022021D01*
X166386049Y-95030177D01*
X166432036Y-95042500D01*
X166432038Y-95042500D01*
X166511164Y-95042500D01*
X166545246Y-95033367D01*
X166587589Y-95022021D01*
X166656111Y-94982460D01*
X166712060Y-94926511D01*
X166751621Y-94857989D01*
X166772100Y-94781562D01*
X166772100Y-94702438D01*
X166772100Y-94702436D01*
X166761582Y-94663186D01*
X166751621Y-94626011D01*
X166751620Y-94626009D01*
X166751620Y-94626008D01*
X166721661Y-94574119D01*
X166712060Y-94557489D01*
X166656111Y-94501540D01*
X166645047Y-94495152D01*
X166587590Y-94461979D01*
X166511164Y-94441500D01*
X166511162Y-94441500D01*
X166432038Y-94441500D01*
X166432036Y-94441500D01*
X166355610Y-94461979D01*
X166355608Y-94461979D01*
X166287090Y-94501539D01*
X166238592Y-94550037D01*
X166203944Y-94564388D01*
X166169295Y-94550036D01*
X166156614Y-94528071D01*
X166153884Y-94517885D01*
X166142021Y-94473611D01*
X166142020Y-94473609D01*
X166142020Y-94473608D01*
X166105133Y-94409719D01*
X166102460Y-94405089D01*
X166046511Y-94349140D01*
X166032752Y-94341196D01*
X165977990Y-94309579D01*
X165901564Y-94289100D01*
X165901562Y-94289100D01*
X165822438Y-94289100D01*
X165822436Y-94289100D01*
X165746010Y-94309579D01*
X165746008Y-94309579D01*
X165677488Y-94349140D01*
X165677488Y-94349141D01*
X165621541Y-94405088D01*
X165621540Y-94405088D01*
X165581979Y-94473608D01*
X165581979Y-94473610D01*
X165561500Y-94550036D01*
X143720962Y-94550036D01*
X143720962Y-94486146D01*
X143720962Y-94486144D01*
X143710505Y-94447122D01*
X143700483Y-94409719D01*
X143700482Y-94409717D01*
X143700482Y-94409716D01*
X143660921Y-94341196D01*
X143604973Y-94285248D01*
X143536452Y-94245687D01*
X143460026Y-94225208D01*
X143460024Y-94225208D01*
X143380900Y-94225208D01*
X143380897Y-94225208D01*
X143317062Y-94242313D01*
X143279880Y-94237418D01*
X143257050Y-94207665D01*
X143256850Y-94206662D01*
X143245066Y-94162686D01*
X143235672Y-94127627D01*
X143235671Y-94127625D01*
X143235671Y-94127624D01*
X143210590Y-94084184D01*
X143196111Y-94059105D01*
X143140162Y-94003156D01*
X143071641Y-93963595D01*
X142995215Y-93943116D01*
X142995213Y-93943116D01*
X142916089Y-93943116D01*
X142916087Y-93943116D01*
X142839661Y-93963595D01*
X142839659Y-93963595D01*
X142771139Y-94003156D01*
X142771139Y-94003157D01*
X142715192Y-94059104D01*
X142715191Y-94059104D01*
X142675630Y-94127624D01*
X142675630Y-94127626D01*
X142655151Y-94204052D01*
X140234162Y-94204052D01*
X140161933Y-94184698D01*
X140161931Y-94184698D01*
X140073593Y-94184698D01*
X140073591Y-94184698D01*
X139988266Y-94207561D01*
X139988264Y-94207562D01*
X139911763Y-94251728D01*
X139911757Y-94251733D01*
X139849297Y-94314193D01*
X139849292Y-94314199D01*
X139805126Y-94390700D01*
X139805125Y-94390702D01*
X139782262Y-94476027D01*
X135660298Y-94476027D01*
X135630462Y-94424349D01*
X135572651Y-94366538D01*
X135560643Y-94359605D01*
X135501850Y-94325660D01*
X135501846Y-94325659D01*
X135422881Y-94304500D01*
X135422878Y-94304500D01*
X135341122Y-94304500D01*
X135341119Y-94304500D01*
X135262153Y-94325659D01*
X135262149Y-94325660D01*
X135191348Y-94366538D01*
X135191348Y-94366539D01*
X135133539Y-94424348D01*
X135133538Y-94424348D01*
X135092660Y-94495149D01*
X135092659Y-94495153D01*
X135071500Y-94574119D01*
X134761596Y-94574119D01*
X134764203Y-94564388D01*
X134765854Y-94558228D01*
X134765854Y-94558227D01*
X134773718Y-94528879D01*
X134773718Y-94447119D01*
X134752558Y-94368153D01*
X134752557Y-94368149D01*
X134721408Y-94314199D01*
X134711680Y-94297349D01*
X134653869Y-94239538D01*
X134629049Y-94225208D01*
X134583068Y-94198660D01*
X134583064Y-94198659D01*
X134504099Y-94177500D01*
X134504096Y-94177500D01*
X134422340Y-94177500D01*
X134422337Y-94177500D01*
X134343371Y-94198659D01*
X134343367Y-94198660D01*
X134272566Y-94239538D01*
X134272566Y-94239539D01*
X134214757Y-94297348D01*
X134214756Y-94297348D01*
X134173878Y-94368149D01*
X134173877Y-94368153D01*
X134152718Y-94447119D01*
X133700000Y-94447119D01*
X133700000Y-93534036D01*
X135437100Y-93534036D01*
X135437100Y-93613163D01*
X135457579Y-93689589D01*
X135457579Y-93689591D01*
X135493188Y-93751266D01*
X135497140Y-93758111D01*
X135553089Y-93814060D01*
X135621611Y-93853621D01*
X135657078Y-93863124D01*
X135698036Y-93874100D01*
X135698038Y-93874100D01*
X135777164Y-93874100D01*
X135803830Y-93866954D01*
X135853589Y-93853621D01*
X135922111Y-93814060D01*
X135978060Y-93758111D01*
X136017621Y-93689589D01*
X136038100Y-93613162D01*
X136038100Y-93534038D01*
X136038100Y-93534036D01*
X136023812Y-93480716D01*
X136023812Y-93480715D01*
X136021274Y-93471243D01*
X138324733Y-93471243D01*
X138324733Y-93550370D01*
X138345212Y-93626796D01*
X138345212Y-93626798D01*
X138384773Y-93695318D01*
X138440722Y-93751267D01*
X138509244Y-93790828D01*
X138544711Y-93800331D01*
X138585669Y-93811307D01*
X138585671Y-93811307D01*
X138664797Y-93811307D01*
X138691463Y-93804161D01*
X138741222Y-93790828D01*
X138809744Y-93751267D01*
X138865693Y-93695318D01*
X138905254Y-93626796D01*
X138925733Y-93550369D01*
X138925733Y-93471245D01*
X138925733Y-93471243D01*
X138907262Y-93402313D01*
X138905254Y-93394818D01*
X138905253Y-93394816D01*
X138905253Y-93394815D01*
X138897810Y-93381924D01*
X138885518Y-93360634D01*
X145014465Y-93360634D01*
X145014465Y-93439761D01*
X145034944Y-93516187D01*
X145034944Y-93516189D01*
X145071635Y-93579738D01*
X145074505Y-93584709D01*
X145130454Y-93640658D01*
X145151365Y-93652731D01*
X145198972Y-93680217D01*
X145198976Y-93680219D01*
X145216425Y-93684894D01*
X145246177Y-93707723D01*
X145251073Y-93744905D01*
X145241500Y-93780635D01*
X145241500Y-93859761D01*
X145261979Y-93936187D01*
X145261979Y-93936189D01*
X145300643Y-94003156D01*
X145301540Y-94004709D01*
X145357489Y-94060658D01*
X145426011Y-94100219D01*
X145461478Y-94109722D01*
X145502436Y-94120698D01*
X145502438Y-94120698D01*
X145581564Y-94120698D01*
X145608230Y-94113552D01*
X145657989Y-94100219D01*
X145726511Y-94060658D01*
X145782460Y-94004709D01*
X145822021Y-93936187D01*
X145842500Y-93859760D01*
X145842500Y-93780636D01*
X145842500Y-93780635D01*
X145842500Y-93780634D01*
X145832926Y-93744905D01*
X145822021Y-93704209D01*
X145822020Y-93704207D01*
X145822020Y-93704206D01*
X145782459Y-93635686D01*
X145726511Y-93579738D01*
X145657991Y-93540177D01*
X145657988Y-93540176D01*
X145640537Y-93535500D01*
X145610785Y-93512668D01*
X145605891Y-93475488D01*
X145615465Y-93439760D01*
X145615465Y-93360636D01*
X145615465Y-93360634D01*
X145604512Y-93319760D01*
X145594986Y-93284209D01*
X145594985Y-93284207D01*
X145594985Y-93284206D01*
X145582120Y-93261924D01*
X145569828Y-93240634D01*
X150067500Y-93240634D01*
X150067500Y-93319761D01*
X150087979Y-93396187D01*
X150087979Y-93396189D01*
X150123817Y-93458260D01*
X150127540Y-93464709D01*
X150183489Y-93520658D01*
X150252011Y-93560219D01*
X150287478Y-93569722D01*
X150328436Y-93580698D01*
X150328438Y-93580698D01*
X150407564Y-93580698D01*
X150434230Y-93573552D01*
X150483989Y-93560219D01*
X150552511Y-93520658D01*
X150608460Y-93464709D01*
X150648021Y-93396187D01*
X150664741Y-93333789D01*
X150668500Y-93319761D01*
X150668500Y-93240634D01*
X150654318Y-93187710D01*
X150654318Y-93187709D01*
X150651780Y-93178237D01*
X152125103Y-93178237D01*
X152125103Y-93257364D01*
X152145582Y-93333790D01*
X152145582Y-93333792D01*
X152173372Y-93381924D01*
X152185143Y-93402312D01*
X152241092Y-93458261D01*
X152309614Y-93497822D01*
X152345081Y-93507325D01*
X152386039Y-93518301D01*
X152386041Y-93518301D01*
X152465167Y-93518301D01*
X152491833Y-93511155D01*
X152541592Y-93497822D01*
X152610114Y-93458261D01*
X152666063Y-93402312D01*
X152705624Y-93333790D01*
X152716256Y-93294109D01*
X152739086Y-93264357D01*
X152776268Y-93259462D01*
X152793587Y-93264103D01*
X152818198Y-93270698D01*
X152818200Y-93270698D01*
X152897326Y-93270698D01*
X152923992Y-93263552D01*
X152973751Y-93250219D01*
X153042273Y-93210658D01*
X153098222Y-93154709D01*
X153137783Y-93086187D01*
X153158262Y-93009760D01*
X153158262Y-92930636D01*
X153158262Y-92930634D01*
X153140188Y-92863186D01*
X153137783Y-92854209D01*
X153137782Y-92854207D01*
X153137782Y-92854206D01*
X153112701Y-92810766D01*
X153098222Y-92785687D01*
X153042273Y-92729738D01*
X153034550Y-92725279D01*
X152973752Y-92690177D01*
X152897326Y-92669698D01*
X152897324Y-92669698D01*
X152818200Y-92669698D01*
X152818198Y-92669698D01*
X152741772Y-92690177D01*
X152741770Y-92690177D01*
X152673250Y-92729738D01*
X152673250Y-92729739D01*
X152617303Y-92785686D01*
X152617302Y-92785686D01*
X152577741Y-92854206D01*
X152577741Y-92854208D01*
X152567108Y-92893889D01*
X152544277Y-92923642D01*
X152507095Y-92928536D01*
X152465167Y-92917301D01*
X152465165Y-92917301D01*
X152386041Y-92917301D01*
X152386039Y-92917301D01*
X152309613Y-92937780D01*
X152309611Y-92937780D01*
X152241091Y-92977341D01*
X152241091Y-92977342D01*
X152185144Y-93033289D01*
X152185143Y-93033289D01*
X152145582Y-93101809D01*
X152145582Y-93101811D01*
X152125103Y-93178237D01*
X150651780Y-93178237D01*
X150648021Y-93164209D01*
X150648020Y-93164206D01*
X150611996Y-93101812D01*
X150608460Y-93095687D01*
X150552511Y-93039738D01*
X150541341Y-93033289D01*
X150483990Y-93000177D01*
X150407564Y-92979698D01*
X150407562Y-92979698D01*
X150328438Y-92979698D01*
X150328436Y-92979698D01*
X150252010Y-93000177D01*
X150252008Y-93000177D01*
X150183488Y-93039738D01*
X150183488Y-93039739D01*
X150127541Y-93095686D01*
X150127540Y-93095686D01*
X150087979Y-93164206D01*
X150087979Y-93164208D01*
X150067500Y-93240634D01*
X145569828Y-93240634D01*
X145555424Y-93215686D01*
X145499476Y-93159738D01*
X145430955Y-93120177D01*
X145354529Y-93099698D01*
X145354527Y-93099698D01*
X145275403Y-93099698D01*
X145275401Y-93099698D01*
X145198975Y-93120177D01*
X145198973Y-93120177D01*
X145130453Y-93159738D01*
X145130453Y-93159739D01*
X145074506Y-93215686D01*
X145074505Y-93215686D01*
X145034944Y-93284206D01*
X145034944Y-93284208D01*
X145014465Y-93360634D01*
X138885518Y-93360634D01*
X138884028Y-93358054D01*
X138865693Y-93326296D01*
X138809744Y-93270347D01*
X138787255Y-93257363D01*
X138741223Y-93230786D01*
X138664797Y-93210307D01*
X138664795Y-93210307D01*
X138585671Y-93210307D01*
X138585669Y-93210307D01*
X138509243Y-93230786D01*
X138509241Y-93230786D01*
X138440721Y-93270347D01*
X138440721Y-93270348D01*
X138384774Y-93326295D01*
X138384773Y-93326295D01*
X138345212Y-93394815D01*
X138345212Y-93394817D01*
X138324733Y-93471243D01*
X136021274Y-93471243D01*
X136017621Y-93457612D01*
X136017620Y-93457608D01*
X135982158Y-93396187D01*
X135978060Y-93389089D01*
X135922111Y-93333140D01*
X135898936Y-93319760D01*
X135853590Y-93293579D01*
X135777164Y-93273100D01*
X135777162Y-93273100D01*
X135698038Y-93273100D01*
X135698036Y-93273100D01*
X135621610Y-93293579D01*
X135621608Y-93293579D01*
X135553088Y-93333140D01*
X135553088Y-93333141D01*
X135497141Y-93389088D01*
X135497140Y-93389088D01*
X135457579Y-93457608D01*
X135457579Y-93457610D01*
X135437100Y-93534036D01*
X133700000Y-93534036D01*
X133700000Y-92518036D01*
X135945100Y-92518036D01*
X135945100Y-92597163D01*
X135965579Y-92673589D01*
X135965579Y-92673591D01*
X135995422Y-92725279D01*
X136005140Y-92742111D01*
X136061089Y-92798060D01*
X136129611Y-92837621D01*
X136165078Y-92847124D01*
X136206036Y-92858100D01*
X136206038Y-92858100D01*
X136285164Y-92858100D01*
X136311830Y-92850954D01*
X136361589Y-92837621D01*
X136430111Y-92798060D01*
X136486060Y-92742111D01*
X136525621Y-92673589D01*
X136546100Y-92597162D01*
X136546100Y-92518038D01*
X136546100Y-92518036D01*
X136535054Y-92476814D01*
X136525621Y-92441611D01*
X136525620Y-92441609D01*
X136525620Y-92441608D01*
X136493063Y-92385219D01*
X136486060Y-92373089D01*
X136468605Y-92355634D01*
X143477262Y-92355634D01*
X143477262Y-92434761D01*
X143497741Y-92511187D01*
X143497741Y-92511189D01*
X143533089Y-92572412D01*
X143537302Y-92579709D01*
X143593251Y-92635658D01*
X143661773Y-92675219D01*
X143697240Y-92684722D01*
X143738198Y-92695698D01*
X143738200Y-92695698D01*
X143817326Y-92695698D01*
X143843992Y-92688552D01*
X143893751Y-92675219D01*
X143962273Y-92635658D01*
X144018222Y-92579709D01*
X144057783Y-92511187D01*
X144078262Y-92434760D01*
X144078262Y-92355636D01*
X144078262Y-92355634D01*
X144061979Y-92294869D01*
X144057783Y-92279209D01*
X144057782Y-92279207D01*
X144057782Y-92279206D01*
X144024284Y-92221187D01*
X144018222Y-92210687D01*
X143962273Y-92154738D01*
X143937562Y-92140471D01*
X143893752Y-92115177D01*
X143817326Y-92094698D01*
X143817324Y-92094698D01*
X143738200Y-92094698D01*
X143738198Y-92094698D01*
X143661772Y-92115177D01*
X143661770Y-92115177D01*
X143593250Y-92154738D01*
X143593250Y-92154739D01*
X143537303Y-92210686D01*
X143537302Y-92210686D01*
X143497741Y-92279206D01*
X143497741Y-92279208D01*
X143477262Y-92355634D01*
X136468605Y-92355634D01*
X136430111Y-92317140D01*
X136361590Y-92277579D01*
X136285164Y-92257100D01*
X136285162Y-92257100D01*
X136206038Y-92257100D01*
X136206036Y-92257100D01*
X136129610Y-92277579D01*
X136129608Y-92277579D01*
X136061088Y-92317140D01*
X136061088Y-92317141D01*
X136005141Y-92373088D01*
X136005140Y-92373088D01*
X135965579Y-92441608D01*
X135965579Y-92441610D01*
X135945100Y-92518036D01*
X133700000Y-92518036D01*
X133700000Y-91400436D01*
X134167100Y-91400436D01*
X134167100Y-91479563D01*
X134187579Y-91555989D01*
X134187579Y-91555991D01*
X134227140Y-91624511D01*
X134283089Y-91680460D01*
X134324049Y-91704108D01*
X134341878Y-91714402D01*
X134351611Y-91720021D01*
X134387078Y-91729524D01*
X134428036Y-91740500D01*
X134428038Y-91740500D01*
X134507164Y-91740500D01*
X134533830Y-91733354D01*
X134583589Y-91720021D01*
X134652111Y-91680460D01*
X134708060Y-91624511D01*
X134747621Y-91555989D01*
X134749316Y-91549659D01*
X134772144Y-91519906D01*
X134809325Y-91515008D01*
X134839080Y-91537836D01*
X134843977Y-91549656D01*
X134855743Y-91593563D01*
X134855743Y-91593565D01*
X134879827Y-91635278D01*
X134896621Y-91664366D01*
X134954432Y-91722177D01*
X134980346Y-91737138D01*
X135025232Y-91763054D01*
X135025234Y-91763054D01*
X135025235Y-91763055D01*
X135044977Y-91768345D01*
X135104202Y-91784215D01*
X135104205Y-91784215D01*
X135185963Y-91784215D01*
X135225446Y-91773635D01*
X135264931Y-91763055D01*
X135270675Y-91759739D01*
X135274418Y-91757577D01*
X135335734Y-91722177D01*
X135393545Y-91664366D01*
X135410340Y-91635276D01*
X136345802Y-91635276D01*
X136345802Y-91714403D01*
X136366281Y-91790829D01*
X136366281Y-91790831D01*
X136402020Y-91852731D01*
X136405842Y-91859351D01*
X136461791Y-91915300D01*
X136480059Y-91925847D01*
X136527354Y-91953153D01*
X136530313Y-91954861D01*
X136561382Y-91963186D01*
X136606738Y-91975340D01*
X136606740Y-91975340D01*
X136685866Y-91975340D01*
X136712532Y-91968194D01*
X136740746Y-91960634D01*
X147847262Y-91960634D01*
X147847262Y-92039761D01*
X147867741Y-92116187D01*
X147867741Y-92116189D01*
X147907302Y-92184709D01*
X147963251Y-92240658D01*
X147991730Y-92257100D01*
X148030023Y-92279209D01*
X148031773Y-92280219D01*
X148058218Y-92287305D01*
X148108198Y-92300698D01*
X148108200Y-92300698D01*
X148187326Y-92300698D01*
X148213992Y-92293552D01*
X148263751Y-92280219D01*
X148265501Y-92279209D01*
X148282317Y-92269500D01*
X148332273Y-92240658D01*
X148388222Y-92184709D01*
X148420585Y-92128653D01*
X148450338Y-92105824D01*
X148487520Y-92110719D01*
X148510350Y-92140471D01*
X148528825Y-92209417D01*
X148528825Y-92209419D01*
X148561938Y-92266771D01*
X148568386Y-92277939D01*
X148624335Y-92333888D01*
X148662004Y-92355636D01*
X148692231Y-92373088D01*
X148692857Y-92373449D01*
X148728324Y-92382952D01*
X148769282Y-92393928D01*
X148769284Y-92393928D01*
X148848410Y-92393928D01*
X148875076Y-92386782D01*
X148924835Y-92373449D01*
X148925461Y-92373088D01*
X148943477Y-92362686D01*
X148993357Y-92333888D01*
X149046123Y-92281121D01*
X149080769Y-92266771D01*
X149115417Y-92281122D01*
X149120161Y-92287305D01*
X149120348Y-92287162D01*
X149122301Y-92289707D01*
X149122302Y-92289709D01*
X149178251Y-92345658D01*
X149246773Y-92385219D01*
X149279275Y-92393928D01*
X149323198Y-92405698D01*
X149323200Y-92405698D01*
X149402326Y-92405698D01*
X149428992Y-92398552D01*
X149478751Y-92385219D01*
X149547273Y-92345658D01*
X149603222Y-92289709D01*
X149642783Y-92221187D01*
X149654239Y-92178432D01*
X149677069Y-92148680D01*
X149714251Y-92143785D01*
X149744004Y-92166615D01*
X149748899Y-92178432D01*
X149761739Y-92226347D01*
X149761739Y-92226349D01*
X149792841Y-92280218D01*
X149801300Y-92294869D01*
X149857249Y-92350818D01*
X149895822Y-92373088D01*
X149916833Y-92385219D01*
X149925771Y-92390379D01*
X149961238Y-92399882D01*
X150002196Y-92410858D01*
X150002198Y-92410858D01*
X150081324Y-92410858D01*
X150107990Y-92403712D01*
X150157749Y-92390379D01*
X150226271Y-92350818D01*
X150282220Y-92294869D01*
X150321781Y-92226347D01*
X150342260Y-92149920D01*
X150342260Y-92070796D01*
X150342260Y-92070794D01*
X150333237Y-92037123D01*
X150321781Y-91994369D01*
X150321780Y-91994367D01*
X150321780Y-91994366D01*
X150282219Y-91925846D01*
X150226271Y-91869898D01*
X150157750Y-91830337D01*
X150081324Y-91809858D01*
X150081322Y-91809858D01*
X150002198Y-91809858D01*
X150002196Y-91809858D01*
X149925770Y-91830337D01*
X149925768Y-91830337D01*
X149857248Y-91869898D01*
X149857248Y-91869899D01*
X149801301Y-91925846D01*
X149801300Y-91925846D01*
X149761739Y-91994366D01*
X149761739Y-91994368D01*
X149750282Y-92037123D01*
X149727451Y-92066876D01*
X149690269Y-92071770D01*
X149660516Y-92048939D01*
X149655622Y-92037123D01*
X149652843Y-92026756D01*
X149642783Y-91989209D01*
X149642782Y-91989207D01*
X149642782Y-91989206D01*
X149606201Y-91925847D01*
X149603222Y-91920687D01*
X149547273Y-91864738D01*
X149537944Y-91859352D01*
X149478752Y-91825177D01*
X149402326Y-91804698D01*
X149402324Y-91804698D01*
X149323200Y-91804698D01*
X149323198Y-91804698D01*
X149246772Y-91825177D01*
X149246770Y-91825177D01*
X149178252Y-91864737D01*
X149125486Y-91917503D01*
X149090838Y-91931854D01*
X149056189Y-91917502D01*
X149051447Y-91911320D01*
X149051260Y-91911464D01*
X149049305Y-91908916D01*
X148993357Y-91852968D01*
X148924836Y-91813407D01*
X148848410Y-91792928D01*
X148848408Y-91792928D01*
X148769284Y-91792928D01*
X148769282Y-91792928D01*
X148692856Y-91813407D01*
X148692854Y-91813407D01*
X148624334Y-91852968D01*
X148624334Y-91852969D01*
X148568388Y-91908914D01*
X148568386Y-91908916D01*
X148568386Y-91908917D01*
X148563429Y-91917503D01*
X148536022Y-91964972D01*
X148506268Y-91987802D01*
X148469086Y-91982906D01*
X148446257Y-91953153D01*
X148437557Y-91920686D01*
X148427783Y-91884209D01*
X148427782Y-91884208D01*
X148427782Y-91884206D01*
X148388221Y-91815686D01*
X148332273Y-91759738D01*
X148263752Y-91720177D01*
X148187326Y-91699698D01*
X148187324Y-91699698D01*
X148108200Y-91699698D01*
X148108198Y-91699698D01*
X148031772Y-91720177D01*
X148031770Y-91720177D01*
X147963250Y-91759738D01*
X147963250Y-91759739D01*
X147907303Y-91815686D01*
X147907302Y-91815686D01*
X147867741Y-91884206D01*
X147867741Y-91884208D01*
X147847262Y-91960634D01*
X136740746Y-91960634D01*
X136762291Y-91954861D01*
X136765250Y-91953153D01*
X136802140Y-91931854D01*
X136830813Y-91915300D01*
X136886762Y-91859351D01*
X136926323Y-91790829D01*
X136945255Y-91720177D01*
X136946802Y-91714403D01*
X136946802Y-91635276D01*
X136937673Y-91601208D01*
X136926323Y-91558851D01*
X136926322Y-91558849D01*
X136926322Y-91558848D01*
X136917386Y-91543371D01*
X136905094Y-91522081D01*
X151678475Y-91522081D01*
X151678475Y-91601208D01*
X151698954Y-91677634D01*
X151698954Y-91677636D01*
X151738515Y-91746156D01*
X151794464Y-91802105D01*
X151844624Y-91831065D01*
X151853447Y-91836159D01*
X151862986Y-91841666D01*
X151898453Y-91851169D01*
X151939411Y-91862145D01*
X151939413Y-91862145D01*
X152018539Y-91862145D01*
X152045205Y-91854999D01*
X152094964Y-91841666D01*
X152163486Y-91802105D01*
X152219435Y-91746156D01*
X152253695Y-91686815D01*
X152258995Y-91677636D01*
X152258995Y-91677635D01*
X152258996Y-91677634D01*
X152279475Y-91601207D01*
X152279475Y-91522083D01*
X152279475Y-91522080D01*
X152279474Y-91522079D01*
X152269915Y-91486402D01*
X152267377Y-91476930D01*
X152566261Y-91476930D01*
X152566261Y-91578437D01*
X152592532Y-91676479D01*
X152592533Y-91676483D01*
X152629494Y-91740500D01*
X152643285Y-91764386D01*
X152715059Y-91836160D01*
X152716859Y-91837199D01*
X152802961Y-91886911D01*
X152802963Y-91886911D01*
X152802964Y-91886912D01*
X152835645Y-91895669D01*
X152901007Y-91913184D01*
X152901009Y-91913184D01*
X153002515Y-91913184D01*
X153051535Y-91900048D01*
X153100558Y-91886912D01*
X153105242Y-91884208D01*
X153138966Y-91864737D01*
X153188463Y-91836160D01*
X153260237Y-91764386D01*
X153310989Y-91676481D01*
X153333208Y-91593563D01*
X153337261Y-91578437D01*
X153337261Y-91476930D01*
X153333835Y-91464145D01*
X153331296Y-91454671D01*
X164580783Y-91454671D01*
X164580783Y-91562762D01*
X164608757Y-91667162D01*
X164608758Y-91667166D01*
X164662796Y-91760763D01*
X164662799Y-91760767D01*
X164662801Y-91760770D01*
X164739230Y-91837199D01*
X164739233Y-91837200D01*
X164739236Y-91837203D01*
X164832833Y-91891241D01*
X164832835Y-91891241D01*
X164832836Y-91891242D01*
X164858937Y-91898235D01*
X164937237Y-91919217D01*
X164937240Y-91919217D01*
X165045328Y-91919217D01*
X165097528Y-91905229D01*
X165149730Y-91891242D01*
X165161914Y-91884208D01*
X165243329Y-91837203D01*
X165243328Y-91837203D01*
X165243336Y-91837199D01*
X165319765Y-91760770D01*
X165331468Y-91740500D01*
X165373807Y-91667166D01*
X165373807Y-91667165D01*
X165373808Y-91667164D01*
X165387795Y-91614962D01*
X165401783Y-91562762D01*
X165401783Y-91454671D01*
X165373808Y-91350271D01*
X165373807Y-91350267D01*
X165319769Y-91256670D01*
X165319766Y-91256667D01*
X165319765Y-91256664D01*
X165243336Y-91180235D01*
X165243333Y-91180233D01*
X165243329Y-91180230D01*
X165149732Y-91126192D01*
X165149728Y-91126191D01*
X165045329Y-91098217D01*
X165045326Y-91098217D01*
X164937240Y-91098217D01*
X164937237Y-91098217D01*
X164832837Y-91126191D01*
X164832833Y-91126192D01*
X164739236Y-91180230D01*
X164739227Y-91180237D01*
X164662803Y-91256661D01*
X164662796Y-91256670D01*
X164608758Y-91350267D01*
X164608757Y-91350271D01*
X164580783Y-91454671D01*
X153331296Y-91454671D01*
X153310989Y-91378888D01*
X153310988Y-91378884D01*
X153269488Y-91307005D01*
X153260237Y-91290982D01*
X153188463Y-91219208D01*
X153163908Y-91205031D01*
X153100560Y-91168456D01*
X153100556Y-91168455D01*
X153002515Y-91142184D01*
X153002513Y-91142184D01*
X152901009Y-91142184D01*
X152901007Y-91142184D01*
X152802965Y-91168455D01*
X152802961Y-91168456D01*
X152715058Y-91219208D01*
X152715058Y-91219209D01*
X152643286Y-91290981D01*
X152643285Y-91290981D01*
X152592533Y-91378884D01*
X152592532Y-91378888D01*
X152566261Y-91476930D01*
X152267377Y-91476930D01*
X152261412Y-91454674D01*
X152258996Y-91445656D01*
X152258995Y-91445654D01*
X152258995Y-91445653D01*
X152233914Y-91402213D01*
X152219435Y-91377134D01*
X152163486Y-91321185D01*
X152151060Y-91314011D01*
X152094965Y-91281624D01*
X152018539Y-91261145D01*
X152018537Y-91261145D01*
X151939413Y-91261145D01*
X151939411Y-91261145D01*
X151862985Y-91281624D01*
X151862983Y-91281624D01*
X151794463Y-91321185D01*
X151794463Y-91321186D01*
X151738516Y-91377133D01*
X151738515Y-91377133D01*
X151698954Y-91445653D01*
X151698954Y-91445655D01*
X151678475Y-91522081D01*
X136905094Y-91522081D01*
X136886761Y-91490328D01*
X136830813Y-91434380D01*
X136762292Y-91394819D01*
X136685866Y-91374340D01*
X136685864Y-91374340D01*
X136606740Y-91374340D01*
X136606738Y-91374340D01*
X136530312Y-91394819D01*
X136530310Y-91394819D01*
X136461790Y-91434380D01*
X136461790Y-91434381D01*
X136405843Y-91490328D01*
X136405842Y-91490328D01*
X136366281Y-91558848D01*
X136366281Y-91558850D01*
X136345802Y-91635276D01*
X135410340Y-91635276D01*
X135434423Y-91593563D01*
X135453577Y-91522080D01*
X135455583Y-91514595D01*
X135455583Y-91432834D01*
X135434423Y-91353868D01*
X135434422Y-91353864D01*
X135393544Y-91283063D01*
X135335734Y-91225253D01*
X135264933Y-91184375D01*
X135264929Y-91184374D01*
X135185964Y-91163215D01*
X135185961Y-91163215D01*
X135104205Y-91163215D01*
X135104202Y-91163215D01*
X135025236Y-91184374D01*
X135025232Y-91184375D01*
X134954431Y-91225253D01*
X134954431Y-91225254D01*
X134896622Y-91283063D01*
X134896621Y-91283063D01*
X134855743Y-91353864D01*
X134853012Y-91364059D01*
X134830181Y-91393811D01*
X134792998Y-91398705D01*
X134763246Y-91375874D01*
X134758352Y-91364058D01*
X134754656Y-91350267D01*
X134747621Y-91324011D01*
X134747620Y-91324009D01*
X134747620Y-91324008D01*
X134710891Y-91260393D01*
X134708060Y-91255489D01*
X134652111Y-91199540D01*
X134626286Y-91184630D01*
X134583590Y-91159979D01*
X134507164Y-91139500D01*
X134507162Y-91139500D01*
X134428038Y-91139500D01*
X134428036Y-91139500D01*
X134351610Y-91159979D01*
X134351608Y-91159979D01*
X134283088Y-91199540D01*
X134283088Y-91199541D01*
X134227141Y-91255488D01*
X134227140Y-91255488D01*
X134187579Y-91324008D01*
X134187579Y-91324010D01*
X134167100Y-91400436D01*
X133700000Y-91400436D01*
X133700000Y-91047320D01*
X133700723Y-91038934D01*
X133700863Y-91038128D01*
X133701085Y-91036935D01*
X133701202Y-91036344D01*
X133701230Y-91036030D01*
X133701389Y-91035116D01*
X133700514Y-90998201D01*
X133700500Y-90997039D01*
X133700500Y-90892436D01*
X136402300Y-90892436D01*
X136402300Y-90971563D01*
X136422779Y-91047989D01*
X136422779Y-91047991D01*
X136458300Y-91109513D01*
X136462340Y-91116511D01*
X136518289Y-91172460D01*
X136586811Y-91212021D01*
X136622278Y-91221524D01*
X136663236Y-91232500D01*
X136663238Y-91232500D01*
X136742364Y-91232500D01*
X136769408Y-91225253D01*
X136818789Y-91212021D01*
X136887311Y-91172460D01*
X136943260Y-91116511D01*
X136982821Y-91047989D01*
X137003300Y-90971562D01*
X137003300Y-90892438D01*
X137003300Y-90892436D01*
X136990272Y-90843819D01*
X136982821Y-90816011D01*
X136982820Y-90816009D01*
X136982820Y-90816008D01*
X136951009Y-90760911D01*
X136943260Y-90747489D01*
X136887311Y-90691540D01*
X136818790Y-90651979D01*
X136742364Y-90631500D01*
X136742362Y-90631500D01*
X136663238Y-90631500D01*
X136663236Y-90631500D01*
X136586810Y-90651979D01*
X136586808Y-90651979D01*
X136518288Y-90691540D01*
X136518288Y-90691541D01*
X136462341Y-90747488D01*
X136462340Y-90747488D01*
X136422779Y-90816008D01*
X136422779Y-90816010D01*
X136402300Y-90892436D01*
X133700500Y-90892436D01*
X133700500Y-90536836D01*
X148238700Y-90536836D01*
X148238700Y-90615963D01*
X148259179Y-90692389D01*
X148259179Y-90692391D01*
X148290990Y-90747488D01*
X148298740Y-90760911D01*
X148354689Y-90816860D01*
X148423211Y-90856421D01*
X148453123Y-90864436D01*
X148499636Y-90876900D01*
X148499638Y-90876900D01*
X148578764Y-90876900D01*
X148605430Y-90869754D01*
X148655189Y-90856421D01*
X148723711Y-90816860D01*
X148763049Y-90777522D01*
X151071983Y-90777522D01*
X151071983Y-90856649D01*
X151092462Y-90933075D01*
X151092462Y-90933077D01*
X151115256Y-90972556D01*
X151132023Y-91001597D01*
X151187972Y-91057546D01*
X151256494Y-91097107D01*
X151291961Y-91106610D01*
X151332919Y-91117586D01*
X151332921Y-91117586D01*
X151412047Y-91117586D01*
X151442173Y-91109513D01*
X151488472Y-91097107D01*
X151556994Y-91057546D01*
X151612943Y-91001597D01*
X151652504Y-90933075D01*
X151672983Y-90856648D01*
X151672983Y-90777524D01*
X151672983Y-90777522D01*
X151664326Y-90745220D01*
X151652504Y-90701097D01*
X151652503Y-90701095D01*
X151652503Y-90701094D01*
X151612942Y-90632574D01*
X151556994Y-90576626D01*
X151488473Y-90537065D01*
X151412047Y-90516586D01*
X151412045Y-90516586D01*
X151332921Y-90516586D01*
X151332919Y-90516586D01*
X151256493Y-90537065D01*
X151256491Y-90537065D01*
X151187971Y-90576626D01*
X151187971Y-90576627D01*
X151132024Y-90632574D01*
X151132023Y-90632574D01*
X151092462Y-90701094D01*
X151092462Y-90701096D01*
X151071983Y-90777522D01*
X148763049Y-90777522D01*
X148779660Y-90760911D01*
X148801439Y-90723188D01*
X148819220Y-90692391D01*
X148819220Y-90692390D01*
X148819221Y-90692389D01*
X148839700Y-90615962D01*
X148839700Y-90536838D01*
X148839700Y-90536836D01*
X148821924Y-90470500D01*
X148819221Y-90460411D01*
X148819220Y-90460409D01*
X148819220Y-90460408D01*
X148779659Y-90391888D01*
X148723711Y-90335940D01*
X148655190Y-90296379D01*
X148578764Y-90275900D01*
X148578762Y-90275900D01*
X148499638Y-90275900D01*
X148499636Y-90275900D01*
X148423210Y-90296379D01*
X148423208Y-90296379D01*
X148354688Y-90335940D01*
X148354688Y-90335941D01*
X148298741Y-90391888D01*
X148298740Y-90391888D01*
X148259179Y-90460408D01*
X148259179Y-90460410D01*
X148238700Y-90536836D01*
X133700500Y-90536836D01*
X133700500Y-90130436D01*
X142904700Y-90130436D01*
X142904700Y-90209563D01*
X142925179Y-90285989D01*
X142925179Y-90285991D01*
X142959775Y-90345912D01*
X142964740Y-90354511D01*
X143020689Y-90410460D01*
X143089211Y-90450021D01*
X143124678Y-90459524D01*
X143165636Y-90470500D01*
X143165638Y-90470500D01*
X143244764Y-90470500D01*
X143271430Y-90463354D01*
X143321189Y-90450021D01*
X143389711Y-90410460D01*
X143445660Y-90354511D01*
X143480836Y-90293584D01*
X143485220Y-90285991D01*
X143485220Y-90285990D01*
X143485221Y-90285989D01*
X143494106Y-90252829D01*
X148889500Y-90252829D01*
X148889500Y-90341170D01*
X148912363Y-90426495D01*
X148912364Y-90426498D01*
X148922808Y-90444587D01*
X148956530Y-90502998D01*
X148956532Y-90503000D01*
X148956533Y-90503002D01*
X149018998Y-90565467D01*
X149095502Y-90609636D01*
X149119115Y-90615963D01*
X149180829Y-90632500D01*
X149180831Y-90632500D01*
X149269171Y-90632500D01*
X149303300Y-90623354D01*
X149354498Y-90609636D01*
X149431002Y-90565467D01*
X149493467Y-90503002D01*
X149537636Y-90426498D01*
X149554784Y-90362501D01*
X149560500Y-90341170D01*
X149560500Y-90252829D01*
X149541963Y-90183650D01*
X149537636Y-90167502D01*
X149516236Y-90130436D01*
X150517262Y-90130436D01*
X150517262Y-90209563D01*
X150537741Y-90285989D01*
X150537741Y-90285991D01*
X150572337Y-90345912D01*
X150577302Y-90354511D01*
X150633251Y-90410460D01*
X150701773Y-90450021D01*
X150737240Y-90459524D01*
X150778198Y-90470500D01*
X150778200Y-90470500D01*
X150857326Y-90470500D01*
X150883992Y-90463354D01*
X150933751Y-90450021D01*
X151002273Y-90410460D01*
X151058222Y-90354511D01*
X151090573Y-90298476D01*
X151120323Y-90275648D01*
X151157504Y-90280541D01*
X151185562Y-90296741D01*
X151221029Y-90306244D01*
X151261987Y-90317220D01*
X151261989Y-90317220D01*
X151341115Y-90317220D01*
X151367781Y-90310074D01*
X151417540Y-90296741D01*
X151454071Y-90275650D01*
X151491253Y-90270755D01*
X151521005Y-90293583D01*
X151541221Y-90328598D01*
X151597170Y-90384547D01*
X151665692Y-90424108D01*
X151701159Y-90433611D01*
X151742117Y-90444587D01*
X151742119Y-90444587D01*
X151821245Y-90444587D01*
X151847911Y-90437441D01*
X151897670Y-90424108D01*
X151966192Y-90384547D01*
X152022141Y-90328598D01*
X152061702Y-90260076D01*
X152082181Y-90183649D01*
X152082181Y-90104525D01*
X152082181Y-90104523D01*
X152071870Y-90066044D01*
X152069331Y-90056570D01*
X153192744Y-90056570D01*
X153192744Y-90138331D01*
X153213903Y-90217297D01*
X153213904Y-90217301D01*
X153247593Y-90275650D01*
X153254782Y-90288102D01*
X153312593Y-90345913D01*
X153327487Y-90354512D01*
X153383393Y-90386790D01*
X153383395Y-90386790D01*
X153383396Y-90386791D01*
X153402418Y-90391888D01*
X153462363Y-90407951D01*
X153462366Y-90407951D01*
X153544124Y-90407951D01*
X153583607Y-90397371D01*
X153623092Y-90386791D01*
X153626981Y-90384546D01*
X153632579Y-90381313D01*
X153693895Y-90345913D01*
X153751706Y-90288102D01*
X153792584Y-90217299D01*
X153805927Y-90167502D01*
X153813744Y-90138331D01*
X153813744Y-90056570D01*
X153794697Y-89985488D01*
X153792584Y-89977603D01*
X153792583Y-89977602D01*
X153792583Y-89977600D01*
X153754172Y-89911072D01*
X153751706Y-89906800D01*
X153693895Y-89848989D01*
X153692445Y-89848152D01*
X154856151Y-89848152D01*
X154856151Y-89956243D01*
X154884125Y-90060643D01*
X154884126Y-90060647D01*
X154938164Y-90154244D01*
X154938167Y-90154248D01*
X154938169Y-90154251D01*
X155014598Y-90230680D01*
X155014601Y-90230681D01*
X155014604Y-90230684D01*
X155108201Y-90284722D01*
X155108203Y-90284722D01*
X155108204Y-90284723D01*
X155134305Y-90291716D01*
X155212605Y-90312698D01*
X155212608Y-90312698D01*
X155320696Y-90312698D01*
X155392028Y-90293584D01*
X155425098Y-90284723D01*
X155440817Y-90275648D01*
X155518697Y-90230684D01*
X155518696Y-90230684D01*
X155518704Y-90230680D01*
X155590126Y-90159258D01*
X163396550Y-90159258D01*
X163396550Y-90267349D01*
X163424524Y-90371749D01*
X163424525Y-90371753D01*
X163478563Y-90465350D01*
X163478566Y-90465354D01*
X163478568Y-90465357D01*
X163554997Y-90541786D01*
X163555000Y-90541787D01*
X163555003Y-90541790D01*
X163648600Y-90595828D01*
X163648602Y-90595828D01*
X163648603Y-90595829D01*
X163674704Y-90602822D01*
X163753004Y-90623804D01*
X163753007Y-90623804D01*
X163861095Y-90623804D01*
X163913972Y-90609635D01*
X163965497Y-90595829D01*
X164018083Y-90565469D01*
X164059096Y-90541790D01*
X164059095Y-90541790D01*
X164059103Y-90541786D01*
X164135532Y-90465357D01*
X164168675Y-90407951D01*
X164189574Y-90371753D01*
X164189574Y-90371752D01*
X164189575Y-90371751D01*
X164210520Y-90293584D01*
X164217550Y-90267349D01*
X164217550Y-90159258D01*
X164196568Y-90080958D01*
X164189575Y-90054857D01*
X164189574Y-90054856D01*
X164189574Y-90054854D01*
X164135536Y-89961257D01*
X164135533Y-89961254D01*
X164135532Y-89961251D01*
X164059103Y-89884822D01*
X164059100Y-89884820D01*
X164059096Y-89884817D01*
X163965499Y-89830779D01*
X163965495Y-89830778D01*
X163861096Y-89802804D01*
X163861093Y-89802804D01*
X163753007Y-89802804D01*
X163753004Y-89802804D01*
X163648604Y-89830778D01*
X163648600Y-89830779D01*
X163555003Y-89884817D01*
X163554994Y-89884824D01*
X163478570Y-89961248D01*
X163478563Y-89961257D01*
X163424525Y-90054854D01*
X163424524Y-90054858D01*
X163396550Y-90159258D01*
X155590126Y-90159258D01*
X155595133Y-90154251D01*
X155649176Y-90060645D01*
X155663163Y-90008443D01*
X155677151Y-89956243D01*
X155677151Y-89848152D01*
X155655086Y-89765806D01*
X155649176Y-89743751D01*
X155649175Y-89743750D01*
X155649175Y-89743748D01*
X155595137Y-89650151D01*
X155595134Y-89650148D01*
X155595133Y-89650145D01*
X155518704Y-89573716D01*
X155518701Y-89573714D01*
X155518697Y-89573711D01*
X155425100Y-89519673D01*
X155425096Y-89519672D01*
X155320697Y-89491698D01*
X155320694Y-89491698D01*
X155212608Y-89491698D01*
X155212605Y-89491698D01*
X155108205Y-89519672D01*
X155108201Y-89519673D01*
X155014604Y-89573711D01*
X155014595Y-89573718D01*
X154938171Y-89650142D01*
X154938164Y-89650151D01*
X154884126Y-89743748D01*
X154884125Y-89743752D01*
X154856151Y-89848152D01*
X153692445Y-89848152D01*
X153623094Y-89808111D01*
X153623090Y-89808110D01*
X153544125Y-89786951D01*
X153544122Y-89786951D01*
X153462366Y-89786951D01*
X153462363Y-89786951D01*
X153383397Y-89808110D01*
X153383393Y-89808111D01*
X153312592Y-89848989D01*
X153312592Y-89848990D01*
X153254783Y-89906799D01*
X153254782Y-89906799D01*
X153213904Y-89977600D01*
X153213903Y-89977604D01*
X153192744Y-90056570D01*
X152069331Y-90056570D01*
X152068871Y-90054854D01*
X152061702Y-90028098D01*
X152061701Y-90028096D01*
X152061701Y-90028095D01*
X152032547Y-89977600D01*
X152022141Y-89959576D01*
X151966192Y-89903627D01*
X151931335Y-89883502D01*
X151918095Y-89875858D01*
X151908594Y-89863475D01*
X151897475Y-89852530D01*
X151897677Y-89849247D01*
X151895265Y-89846104D01*
X151897180Y-89815028D01*
X151898457Y-89811874D01*
X151918021Y-89777989D01*
X151929434Y-89735395D01*
X151930566Y-89732601D01*
X151941765Y-89721224D01*
X151951482Y-89708561D01*
X151954640Y-89708145D01*
X151956875Y-89705875D01*
X151972838Y-89705749D01*
X151988664Y-89703666D01*
X151992011Y-89705598D01*
X151994377Y-89705580D01*
X151997778Y-89708927D01*
X152010630Y-89716348D01*
X152020528Y-89726246D01*
X152089050Y-89765807D01*
X152124517Y-89775310D01*
X152165475Y-89786286D01*
X152165477Y-89786286D01*
X152244603Y-89786286D01*
X152275565Y-89777989D01*
X152321028Y-89765807D01*
X152389550Y-89726246D01*
X152445499Y-89670297D01*
X152485060Y-89601775D01*
X152505539Y-89525348D01*
X152505539Y-89446224D01*
X152505539Y-89446222D01*
X152486692Y-89375889D01*
X152485060Y-89369797D01*
X152485059Y-89369795D01*
X152485059Y-89369794D01*
X152445498Y-89301274D01*
X152389550Y-89245326D01*
X152321029Y-89205765D01*
X152244603Y-89185286D01*
X152244601Y-89185286D01*
X152165477Y-89185286D01*
X152165475Y-89185286D01*
X152089049Y-89205765D01*
X152089047Y-89205765D01*
X152020527Y-89245326D01*
X152020527Y-89245327D01*
X151964580Y-89301274D01*
X151964579Y-89301274D01*
X151925018Y-89369794D01*
X151925018Y-89369796D01*
X151914386Y-89409472D01*
X151891555Y-89439225D01*
X151854373Y-89444119D01*
X151832408Y-89431437D01*
X151822511Y-89421540D01*
X151753990Y-89381979D01*
X151677564Y-89361500D01*
X151677562Y-89361500D01*
X151598438Y-89361500D01*
X151598436Y-89361500D01*
X151522010Y-89381979D01*
X151522008Y-89381979D01*
X151453488Y-89421540D01*
X151453488Y-89421541D01*
X151397541Y-89477488D01*
X151397540Y-89477488D01*
X151357979Y-89546008D01*
X151357979Y-89546010D01*
X151337500Y-89622436D01*
X151337500Y-89667220D01*
X151323148Y-89701868D01*
X151288500Y-89716220D01*
X151261987Y-89716220D01*
X151185561Y-89736699D01*
X151185559Y-89736699D01*
X151117039Y-89776260D01*
X151117039Y-89776261D01*
X151061093Y-89832206D01*
X151061091Y-89832208D01*
X151061091Y-89832209D01*
X151056350Y-89840421D01*
X151028740Y-89888242D01*
X150998986Y-89911072D01*
X150961805Y-89906176D01*
X150933752Y-89889979D01*
X150857326Y-89869500D01*
X150857324Y-89869500D01*
X150778200Y-89869500D01*
X150778198Y-89869500D01*
X150701772Y-89889979D01*
X150701770Y-89889979D01*
X150633250Y-89929540D01*
X150633250Y-89929541D01*
X150577303Y-89985488D01*
X150577302Y-89985488D01*
X150537741Y-90054008D01*
X150537741Y-90054010D01*
X150517262Y-90130436D01*
X149516236Y-90130436D01*
X149493467Y-90090998D01*
X149431002Y-90028533D01*
X149431000Y-90028532D01*
X149430998Y-90028530D01*
X149369144Y-89992820D01*
X149354498Y-89984364D01*
X149354495Y-89984363D01*
X149269171Y-89961500D01*
X149269169Y-89961500D01*
X149180831Y-89961500D01*
X149180829Y-89961500D01*
X149095504Y-89984363D01*
X149095502Y-89984364D01*
X149019001Y-90028530D01*
X149018995Y-90028535D01*
X148956535Y-90090995D01*
X148956530Y-90091001D01*
X148912364Y-90167502D01*
X148912363Y-90167504D01*
X148889500Y-90252829D01*
X143494106Y-90252829D01*
X143503627Y-90217299D01*
X143505700Y-90209563D01*
X143505700Y-90130436D01*
X143486999Y-90060647D01*
X143485221Y-90054011D01*
X143485220Y-90054009D01*
X143485220Y-90054008D01*
X143449893Y-89992821D01*
X143445660Y-89985489D01*
X143404719Y-89944548D01*
X143390367Y-89909900D01*
X143404719Y-89875252D01*
X143439367Y-89860900D01*
X143447964Y-89860900D01*
X143474630Y-89853754D01*
X143524389Y-89840421D01*
X143592911Y-89800860D01*
X143648860Y-89744911D01*
X143688421Y-89676389D01*
X143708900Y-89599962D01*
X143708900Y-89520838D01*
X143708900Y-89520836D01*
X143695905Y-89472342D01*
X143688421Y-89444411D01*
X143688420Y-89444409D01*
X143688420Y-89444408D01*
X143648859Y-89375888D01*
X143592911Y-89319940D01*
X143524390Y-89280379D01*
X143447964Y-89259900D01*
X143447962Y-89259900D01*
X143368838Y-89259900D01*
X143368836Y-89259900D01*
X143292410Y-89280379D01*
X143292408Y-89280379D01*
X143223888Y-89319940D01*
X143223888Y-89319941D01*
X143167941Y-89375888D01*
X143167940Y-89375888D01*
X143128379Y-89444408D01*
X143128379Y-89444410D01*
X143107900Y-89520836D01*
X143107900Y-89599963D01*
X143128379Y-89676389D01*
X143128379Y-89676391D01*
X143167940Y-89744911D01*
X143208881Y-89785852D01*
X143223233Y-89820500D01*
X143208881Y-89855148D01*
X143174233Y-89869500D01*
X143165636Y-89869500D01*
X143089210Y-89889979D01*
X143089208Y-89889979D01*
X143020688Y-89929540D01*
X143020688Y-89929541D01*
X142964741Y-89985488D01*
X142964740Y-89985488D01*
X142925179Y-90054008D01*
X142925179Y-90054010D01*
X142904700Y-90130436D01*
X133700500Y-90130436D01*
X133700500Y-89673236D01*
X140771100Y-89673236D01*
X140771100Y-89752363D01*
X140791579Y-89828789D01*
X140791579Y-89828791D01*
X140825904Y-89888242D01*
X140831140Y-89897311D01*
X140887089Y-89953260D01*
X140929247Y-89977600D01*
X140942911Y-89985489D01*
X140955611Y-89992821D01*
X140991078Y-90002324D01*
X141032036Y-90013300D01*
X141032038Y-90013300D01*
X141111164Y-90013300D01*
X141137830Y-90006154D01*
X141187589Y-89992821D01*
X141256111Y-89953260D01*
X141312060Y-89897311D01*
X141346320Y-89837970D01*
X141351620Y-89828791D01*
X141351620Y-89828790D01*
X141351621Y-89828789D01*
X141372100Y-89752362D01*
X141372100Y-89673238D01*
X141372100Y-89673236D01*
X141358487Y-89622436D01*
X141351621Y-89596811D01*
X141351620Y-89596809D01*
X141351620Y-89596808D01*
X141312059Y-89528288D01*
X141296399Y-89512628D01*
X141282047Y-89477980D01*
X141296399Y-89443332D01*
X141306538Y-89435551D01*
X141363851Y-89402462D01*
X141421662Y-89344651D01*
X141462540Y-89273848D01*
X141480783Y-89205765D01*
X141483700Y-89194880D01*
X141483700Y-89113119D01*
X141462540Y-89034153D01*
X141462539Y-89034149D01*
X141428092Y-88974486D01*
X141421662Y-88963349D01*
X141363851Y-88905538D01*
X141350887Y-88898053D01*
X141293050Y-88864660D01*
X141293046Y-88864659D01*
X141260093Y-88855829D01*
X144702262Y-88855829D01*
X144702262Y-88944170D01*
X144710384Y-88974482D01*
X144725126Y-89029498D01*
X144745235Y-89064329D01*
X144769292Y-89105998D01*
X144769294Y-89106000D01*
X144769295Y-89106002D01*
X144831760Y-89168467D01*
X144908264Y-89212636D01*
X144950928Y-89224068D01*
X144993591Y-89235500D01*
X144993593Y-89235500D01*
X145081933Y-89235500D01*
X145116062Y-89226354D01*
X145167260Y-89212636D01*
X145243764Y-89168467D01*
X145306229Y-89106002D01*
X145350398Y-89029498D01*
X145373262Y-88944169D01*
X145373262Y-88855831D01*
X145373262Y-88855829D01*
X145359494Y-88804449D01*
X145350398Y-88770502D01*
X145306229Y-88693998D01*
X145243764Y-88631533D01*
X145243762Y-88631532D01*
X145243760Y-88631530D01*
X145175215Y-88591957D01*
X145167260Y-88587364D01*
X145167257Y-88587363D01*
X145081933Y-88564500D01*
X145081931Y-88564500D01*
X144993593Y-88564500D01*
X144993591Y-88564500D01*
X144908266Y-88587363D01*
X144908264Y-88587364D01*
X144831763Y-88631530D01*
X144831757Y-88631535D01*
X144769297Y-88693995D01*
X144769292Y-88694001D01*
X144725126Y-88770502D01*
X144725125Y-88770504D01*
X144702262Y-88855829D01*
X141260093Y-88855829D01*
X141214081Y-88843500D01*
X141214078Y-88843500D01*
X141132322Y-88843500D01*
X141132319Y-88843500D01*
X141053353Y-88864659D01*
X141053349Y-88864660D01*
X140982548Y-88905538D01*
X140982548Y-88905539D01*
X140924739Y-88963348D01*
X140924738Y-88963348D01*
X140883860Y-89034149D01*
X140883859Y-89034153D01*
X140862700Y-89113119D01*
X140862700Y-89194880D01*
X140883859Y-89273846D01*
X140883860Y-89273850D01*
X140924738Y-89344651D01*
X140946754Y-89366667D01*
X140961106Y-89401315D01*
X140946754Y-89435963D01*
X140936607Y-89443750D01*
X140887086Y-89472342D01*
X140831141Y-89528288D01*
X140831140Y-89528288D01*
X140791579Y-89596808D01*
X140791579Y-89596810D01*
X140771100Y-89673236D01*
X133700500Y-89673236D01*
X133700500Y-88249500D01*
X133714852Y-88214852D01*
X133749500Y-88200500D01*
X143474183Y-88200500D01*
X143508831Y-88214852D01*
G37*
%TD.AperFunction*%
%TD*%
M02*
