%TF.GenerationSoftware,KiCad,Pcbnew,10.0.3*%
%TF.CreationDate,2026-07-16T14:50:02-04:00*%
%TF.ProjectId,ESP32-S3 Small Camera,45535033-322d-4533-9320-536d616c6c20,rev?*%
%TF.SameCoordinates,Original*%
%TF.FileFunction,Profile,NP*%
%FSLAX46Y46*%
G04 Gerber Fmt 4.6, Leading zero omitted, Abs format (unit mm)*
G04 Created by KiCad (PCBNEW 10.0.3) date 2026-07-16 14:50:02*
%MOMM*%
%LPD*%
G01*
G04 APERTURE LIST*
%TA.AperFunction,Profile*%
%ADD10C,0.050000*%
%TD*%
%ADD11C,0.050000*%
G04 APERTURE END LIST*
D10*
X121060000Y-58870000D02*
X181060000Y-58870000D01*
X181060000Y-128870000D01*
X121060000Y-128870000D01*
X121060000Y-58870000D01*
X131500000Y-86000000D02*
X131500000Y-91000000D01*
D11*
X131500000Y-91000000D02*
X131515094Y-91000010D01*
X131529996Y-91000040D01*
X131544669Y-91000089D01*
X131559152Y-91000157D01*
X131573411Y-91000245D01*
X131587485Y-91000351D01*
X131601339Y-91000475D01*
X131615012Y-91000618D01*
X131628469Y-91000778D01*
X131641749Y-91000956D01*
X131654818Y-91001151D01*
X131667714Y-91001364D01*
X131680403Y-91001593D01*
X131692922Y-91001839D01*
X131705239Y-91002101D01*
X131717390Y-91002379D01*
X131729344Y-91002672D01*
X131741134Y-91002982D01*
X131752733Y-91003306D01*
X131764171Y-91003646D01*
X131775422Y-91004000D01*
X131786516Y-91004369D01*
X131797427Y-91004752D01*
X131808184Y-91005149D01*
X131818763Y-91005560D01*
X131829192Y-91005985D01*
X131839446Y-91006422D01*
X131849554Y-91006874D01*
X131859491Y-91007337D01*
X131869286Y-91007814D01*
X131878914Y-91008303D01*
X131888402Y-91008804D01*
X131897729Y-91009317D01*
X131906918Y-91009842D01*
X131915951Y-91010378D01*
X131924849Y-91010926D01*
X131933594Y-91011485D01*
X131942208Y-91012055D01*
X131950673Y-91012635D01*
X131959010Y-91013227D01*
X131967202Y-91013828D01*
X131975270Y-91014440D01*
X131983196Y-91015061D01*
X131991000Y-91015692D01*
X131998668Y-91016332D01*
X132006216Y-91016983D01*
X132013632Y-91017642D01*
X132020931Y-91018310D01*
X132028102Y-91018987D01*
X132035158Y-91019672D01*
X132042090Y-91020366D01*
X132048911Y-91021069D01*
X132055611Y-91021779D01*
X132062203Y-91022497D01*
X132068678Y-91023223D01*
X132075047Y-91023957D01*
X132081303Y-91024698D01*
X132087456Y-91025446D01*
X132093499Y-91026201D01*
X132099442Y-91026964D01*
X132105279Y-91027733D01*
X132111019Y-91028510D01*
X132116656Y-91029292D01*
X132122198Y-91030082D01*
X132127642Y-91030877D01*
X132132992Y-91031679D01*
X132138249Y-91032487D01*
X132143414Y-91033301D01*
X132148489Y-91034120D01*
X132153475Y-91034946D01*
X132158374Y-91035777D01*
X132163187Y-91036613D01*
X132167917Y-91037456D01*
X132172562Y-91038303D01*
X132177128Y-91039156D01*
X132181612Y-91040014D01*
X132186021Y-91040877D01*
X132190349Y-91041745D01*
X132194605Y-91042619D01*
X132198783Y-91043497D01*
X132202893Y-91044381D01*
X132206927Y-91045269D01*
X132210897Y-91046163D01*
X132214792Y-91047060D01*
X132218627Y-91047964D01*
X132222390Y-91048871D01*
X132226096Y-91049785D01*
X132229731Y-91050701D01*
X132233315Y-91051625D01*
X132236829Y-91052551D01*
X132240295Y-91053485D01*
X132243693Y-91054422D01*
X132247048Y-91055367D01*
X132250337Y-91056313D01*
X132253587Y-91057269D01*
X132256772Y-91058227D01*
X132263011Y-91060163D01*
X132269067Y-91062125D01*
X132274953Y-91064113D01*
X132280684Y-91066132D01*
X132286277Y-91068184D01*
X132291748Y-91070274D01*
X132297117Y-91072409D01*
X132302409Y-91074596D01*
X132307652Y-91076846D01*
X132312883Y-91079175D01*
X132318152Y-91081604D01*
X132323534Y-91084169D01*
X132329149Y-91086928D01*
X132335229Y-91089997D01*
X132342370Y-91093677D01*
X132345946Y-91095536D01*
X132352932Y-91099159D01*
X132356376Y-91100924D01*
X132359803Y-91102655D01*
X132363225Y-91104351D01*
X132366657Y-91106009D01*
X132370109Y-91107628D01*
X132373595Y-91109206D01*
X132377128Y-91110741D01*
X132380719Y-91112231D01*
X132384382Y-91113675D01*
X132388128Y-91115071D01*
X132390036Y-91115750D01*
X132391971Y-91116416D01*
X132393932Y-91117069D01*
X132395922Y-91117709D01*
X132397943Y-91118336D01*
X132399996Y-91118949D01*
X132402082Y-91119548D01*
X132404203Y-91120132D01*
X132406361Y-91120703D01*
X132408557Y-91121258D01*
X132410793Y-91121799D01*
X132413070Y-91122325D01*
X132415391Y-91122836D01*
X132417755Y-91123331D01*
X132420166Y-91123810D01*
X132422625Y-91124273D01*
X132425132Y-91124720D01*
X132427691Y-91125151D01*
X132430302Y-91125565D01*
X132432966Y-91125962D01*
X132435686Y-91126342D01*
X132438464Y-91126705D01*
X132441300Y-91127049D01*
X132444196Y-91127377D01*
X132447154Y-91127686D01*
X132450175Y-91127976D01*
X132453261Y-91128249D01*
X132456413Y-91128502D01*
X132459634Y-91128737D01*
X132462924Y-91128952D01*
X132466286Y-91129148D01*
X132469720Y-91129325D01*
X132473228Y-91129481D01*
X132476812Y-91129617D01*
X132480474Y-91129733D01*
X132484215Y-91129829D01*
X132488037Y-91129903D01*
X132491940Y-91129957D01*
X132495927Y-91129989D01*
X132500000Y-91130000D01*
X131500000Y-97000000D02*
X131515094Y-96999990D01*
X131529996Y-96999960D01*
X131544669Y-96999911D01*
X131559152Y-96999843D01*
X131573411Y-96999755D01*
X131587485Y-96999649D01*
X131601339Y-96999525D01*
X131615012Y-96999382D01*
X131628469Y-96999222D01*
X131641749Y-96999044D01*
X131654818Y-96998849D01*
X131667714Y-96998636D01*
X131680403Y-96998407D01*
X131692922Y-96998161D01*
X131705239Y-96997899D01*
X131717390Y-96997621D01*
X131729344Y-96997328D01*
X131741134Y-96997018D01*
X131752733Y-96996694D01*
X131764171Y-96996354D01*
X131775422Y-96996000D01*
X131786516Y-96995631D01*
X131797427Y-96995248D01*
X131808184Y-96994851D01*
X131818763Y-96994440D01*
X131829192Y-96994015D01*
X131839446Y-96993578D01*
X131849554Y-96993126D01*
X131859491Y-96992663D01*
X131869286Y-96992186D01*
X131878914Y-96991697D01*
X131888402Y-96991196D01*
X131897729Y-96990683D01*
X131906918Y-96990158D01*
X131915951Y-96989622D01*
X131924849Y-96989074D01*
X131933594Y-96988515D01*
X131942208Y-96987945D01*
X131950673Y-96987365D01*
X131959010Y-96986773D01*
X131967202Y-96986172D01*
X131975270Y-96985560D01*
X131983196Y-96984939D01*
X131991000Y-96984308D01*
X131998668Y-96983668D01*
X132006216Y-96983017D01*
X132013632Y-96982358D01*
X132020931Y-96981690D01*
X132028102Y-96981013D01*
X132035158Y-96980328D01*
X132042090Y-96979634D01*
X132048911Y-96978931D01*
X132055611Y-96978221D01*
X132062203Y-96977503D01*
X132068678Y-96976777D01*
X132075047Y-96976043D01*
X132081303Y-96975302D01*
X132087456Y-96974554D01*
X132093499Y-96973799D01*
X132099442Y-96973036D01*
X132105279Y-96972267D01*
X132111019Y-96971490D01*
X132116656Y-96970708D01*
X132122198Y-96969918D01*
X132127642Y-96969123D01*
X132132992Y-96968321D01*
X132138249Y-96967513D01*
X132143414Y-96966699D01*
X132148489Y-96965880D01*
X132153475Y-96965054D01*
X132158374Y-96964223D01*
X132163187Y-96963387D01*
X132167917Y-96962544D01*
X132172562Y-96961697D01*
X132177128Y-96960844D01*
X132181612Y-96959986D01*
X132186021Y-96959123D01*
X132190349Y-96958255D01*
X132194605Y-96957381D01*
X132198783Y-96956503D01*
X132202893Y-96955619D01*
X132206927Y-96954731D01*
X132210897Y-96953837D01*
X132214792Y-96952940D01*
X132218627Y-96952036D01*
X132222390Y-96951129D01*
X132226096Y-96950215D01*
X132229731Y-96949299D01*
X132233315Y-96948375D01*
X132236829Y-96947449D01*
X132240295Y-96946515D01*
X132243693Y-96945578D01*
X132247048Y-96944633D01*
X132250337Y-96943687D01*
X132253587Y-96942731D01*
X132256772Y-96941773D01*
X132263011Y-96939837D01*
X132269067Y-96937875D01*
X132274953Y-96935887D01*
X132280684Y-96933868D01*
X132286277Y-96931816D01*
X132291748Y-96929726D01*
X132297117Y-96927591D01*
X132302409Y-96925404D01*
X132307652Y-96923154D01*
X132312883Y-96920825D01*
X132318152Y-96918396D01*
X132323534Y-96915831D01*
X132329149Y-96913072D01*
X132335229Y-96910003D01*
X132342370Y-96906323D01*
X132345946Y-96904464D01*
X132352932Y-96900841D01*
X132356376Y-96899076D01*
X132359803Y-96897345D01*
X132363225Y-96895649D01*
X132366657Y-96893991D01*
X132370109Y-96892372D01*
X132373595Y-96890794D01*
X132377128Y-96889259D01*
X132380719Y-96887769D01*
X132384382Y-96886325D01*
X132388128Y-96884929D01*
X132390036Y-96884250D01*
X132391971Y-96883584D01*
X132393932Y-96882931D01*
X132395922Y-96882291D01*
X132397943Y-96881664D01*
X132399996Y-96881051D01*
X132402082Y-96880452D01*
X132404203Y-96879868D01*
X132406361Y-96879297D01*
X132408557Y-96878742D01*
X132410793Y-96878201D01*
X132413070Y-96877675D01*
X132415391Y-96877164D01*
X132417755Y-96876669D01*
X132420166Y-96876190D01*
X132422625Y-96875727D01*
X132425132Y-96875280D01*
X132427691Y-96874849D01*
X132430302Y-96874435D01*
X132432966Y-96874038D01*
X132435686Y-96873658D01*
X132438464Y-96873295D01*
X132441300Y-96872951D01*
X132444196Y-96872623D01*
X132447154Y-96872314D01*
X132450175Y-96872024D01*
X132453261Y-96871751D01*
X132456413Y-96871498D01*
X132459634Y-96871263D01*
X132462924Y-96871048D01*
X132466286Y-96870852D01*
X132469720Y-96870675D01*
X132473228Y-96870519D01*
X132476812Y-96870383D01*
X132480474Y-96870267D01*
X132484215Y-96870171D01*
X132488037Y-96870097D01*
X132491940Y-96870043D01*
X132495927Y-96870011D01*
X132500000Y-96870000D01*
D10*
X131500000Y-102000000D02*
X131500000Y-97000000D01*
X131500000Y-102000000D02*
X170500000Y-102000000D01*
D11*
X132500000Y-91130000D02*
X132503910Y-91129990D01*
X132507741Y-91129960D01*
X132511459Y-91129911D01*
X132515102Y-91129844D01*
X132518639Y-91129758D01*
X132522106Y-91129654D01*
X132525475Y-91129533D01*
X132528777Y-91129394D01*
X132531988Y-91129240D01*
X132535136Y-91129068D01*
X132538200Y-91128881D01*
X132541204Y-91128678D01*
X132544131Y-91128460D01*
X132547002Y-91128227D01*
X132549801Y-91127979D01*
X132552547Y-91127716D01*
X132555228Y-91127439D01*
X132557858Y-91127147D01*
X132560429Y-91126842D01*
X132562952Y-91126523D01*
X132565421Y-91126190D01*
X132567846Y-91125844D01*
X132570222Y-91125484D01*
X132572555Y-91125111D01*
X132574846Y-91124724D01*
X132577096Y-91124324D01*
X132579310Y-91123911D01*
X132581484Y-91123485D01*
X132583628Y-91123044D01*
X132585735Y-91122591D01*
X132587816Y-91122123D01*
X132589863Y-91121643D01*
X132593884Y-91120639D01*
X132597813Y-91119577D01*
X132601668Y-91118454D01*
X132605465Y-91117265D01*
X132609225Y-91116007D01*
X132612968Y-91114671D01*
X132616720Y-91113249D01*
X132620512Y-91111729D01*
X132624382Y-91110093D01*
X132628381Y-91108318D01*
X132632586Y-91106369D01*
X132637112Y-91104185D01*
X132642173Y-91101661D01*
X132648250Y-91098549D01*
X132654054Y-91095536D01*
X132661115Y-91091873D01*
X132664753Y-91090006D01*
X132668479Y-91088116D01*
X132672304Y-91086207D01*
X132676241Y-91084278D01*
X132680301Y-91082333D01*
X132684495Y-91080373D01*
X132688837Y-91078400D01*
X132693337Y-91076415D01*
X132698008Y-91074421D01*
X132702860Y-91072418D01*
X132707907Y-91070409D01*
X132713161Y-91068395D01*
X132718631Y-91066378D01*
X132724332Y-91064361D01*
X132727272Y-91063352D01*
X132730274Y-91062343D01*
X132733339Y-91061335D01*
X132736469Y-91060328D01*
X132739665Y-91059322D01*
X132742930Y-91058317D01*
X132746263Y-91057314D01*
X132749667Y-91056312D01*
X132753143Y-91055312D01*
X132756693Y-91054314D01*
X132760318Y-91053319D01*
X132764020Y-91052326D01*
X132767800Y-91051335D01*
X132771660Y-91050348D01*
X132775600Y-91049364D01*
X132779623Y-91048383D01*
X132783731Y-91047406D01*
X132787923Y-91046432D01*
X132792203Y-91045463D01*
X132796571Y-91044498D01*
X132801030Y-91043537D01*
X132805579Y-91042581D01*
X132810222Y-91041630D01*
X132814959Y-91040684D01*
X132819791Y-91039743D01*
X132824722Y-91038808D01*
X132829751Y-91037879D01*
X132834880Y-91036955D01*
X132840111Y-91036038D01*
X132845445Y-91035127D01*
X132850885Y-91034223D01*
X132856430Y-91033325D01*
X132862083Y-91032435D01*
X132867845Y-91031552D01*
X132873718Y-91030676D01*
X132879703Y-91029809D01*
X132885802Y-91028949D01*
X132892016Y-91028097D01*
X132898346Y-91027253D01*
X132904795Y-91026418D01*
X132911363Y-91025592D01*
X132918052Y-91024775D01*
X132924864Y-91023967D01*
X132931799Y-91023169D01*
X132938860Y-91022380D01*
X132946048Y-91021601D01*
X132953365Y-91020832D01*
X132960811Y-91020073D01*
X132968389Y-91019325D01*
X132976099Y-91018588D01*
X132983944Y-91017861D01*
X132991925Y-91017146D01*
X133000043Y-91016442D01*
X133008300Y-91015750D01*
X133016697Y-91015069D01*
X133025236Y-91014401D01*
X133033918Y-91013745D01*
X133042745Y-91013101D01*
X133051718Y-91012470D01*
X133060838Y-91011851D01*
X133070108Y-91011246D01*
X133079528Y-91010654D01*
X133089101Y-91010076D01*
X133098827Y-91009512D01*
X133108708Y-91008961D01*
X133118745Y-91008425D01*
X133128941Y-91007903D01*
X133139296Y-91007395D01*
X133149812Y-91006903D01*
X133160491Y-91006425D01*
X133171333Y-91005963D01*
X133182341Y-91005516D01*
X133193516Y-91005085D01*
X133204859Y-91004670D01*
X133216372Y-91004271D01*
X133228056Y-91003888D01*
X133239913Y-91003522D01*
X133251945Y-91003173D01*
X133264152Y-91002841D01*
X133276536Y-91002525D01*
X133289100Y-91002228D01*
X133301843Y-91001948D01*
X133314768Y-91001685D01*
X133327876Y-91001441D01*
X133341169Y-91001215D01*
X133354648Y-91001008D01*
X133368315Y-91000819D01*
X133382170Y-91000650D01*
X133396216Y-91000499D01*
X133410455Y-91000368D01*
X133424886Y-91000257D01*
X133439513Y-91000165D01*
X133454337Y-91000093D01*
X133469358Y-91000041D01*
X133484578Y-91000010D01*
X133500000Y-91000000D01*
X132500000Y-96870000D02*
X132503910Y-96870010D01*
X132507741Y-96870040D01*
X132511459Y-96870089D01*
X132515102Y-96870156D01*
X132518639Y-96870242D01*
X132522106Y-96870346D01*
X132525475Y-96870467D01*
X132528777Y-96870606D01*
X132531988Y-96870760D01*
X132535136Y-96870932D01*
X132538200Y-96871119D01*
X132541204Y-96871322D01*
X132544131Y-96871540D01*
X132547002Y-96871773D01*
X132549801Y-96872021D01*
X132552547Y-96872284D01*
X132555228Y-96872561D01*
X132557858Y-96872853D01*
X132560429Y-96873158D01*
X132562952Y-96873477D01*
X132565421Y-96873810D01*
X132567846Y-96874156D01*
X132570222Y-96874516D01*
X132572555Y-96874889D01*
X132574846Y-96875276D01*
X132577096Y-96875676D01*
X132579310Y-96876089D01*
X132581484Y-96876515D01*
X132583628Y-96876956D01*
X132585735Y-96877409D01*
X132587816Y-96877877D01*
X132589863Y-96878357D01*
X132593884Y-96879361D01*
X132597813Y-96880423D01*
X132601668Y-96881546D01*
X132605465Y-96882735D01*
X132609225Y-96883993D01*
X132612968Y-96885329D01*
X132616720Y-96886751D01*
X132620512Y-96888271D01*
X132624382Y-96889907D01*
X132628381Y-96891682D01*
X132632586Y-96893631D01*
X132637112Y-96895815D01*
X132642173Y-96898339D01*
X132648250Y-96901451D01*
X132654054Y-96904464D01*
X132661115Y-96908127D01*
X132664753Y-96909994D01*
X132668479Y-96911884D01*
X132672304Y-96913793D01*
X132676241Y-96915722D01*
X132680301Y-96917667D01*
X132684495Y-96919627D01*
X132688837Y-96921600D01*
X132693337Y-96923585D01*
X132698008Y-96925579D01*
X132702860Y-96927582D01*
X132707907Y-96929591D01*
X132713161Y-96931605D01*
X132718631Y-96933622D01*
X132724332Y-96935639D01*
X132727272Y-96936648D01*
X132730274Y-96937657D01*
X132733339Y-96938665D01*
X132736469Y-96939672D01*
X132739665Y-96940678D01*
X132742930Y-96941683D01*
X132746263Y-96942686D01*
X132749667Y-96943688D01*
X132753143Y-96944688D01*
X132756693Y-96945686D01*
X132760318Y-96946681D01*
X132764020Y-96947674D01*
X132767800Y-96948665D01*
X132771660Y-96949652D01*
X132775600Y-96950636D01*
X132779623Y-96951617D01*
X132783731Y-96952594D01*
X132787923Y-96953568D01*
X132792203Y-96954537D01*
X132796571Y-96955502D01*
X132801030Y-96956463D01*
X132805579Y-96957419D01*
X132810222Y-96958370D01*
X132814959Y-96959316D01*
X132819791Y-96960257D01*
X132824722Y-96961192D01*
X132829751Y-96962121D01*
X132834880Y-96963045D01*
X132840111Y-96963962D01*
X132845445Y-96964873D01*
X132850885Y-96965777D01*
X132856430Y-96966675D01*
X132862083Y-96967565D01*
X132867845Y-96968448D01*
X132873718Y-96969324D01*
X132879703Y-96970191D01*
X132885802Y-96971051D01*
X132892016Y-96971903D01*
X132898346Y-96972747D01*
X132904795Y-96973582D01*
X132911363Y-96974408D01*
X132918052Y-96975225D01*
X132924864Y-96976033D01*
X132931799Y-96976831D01*
X132938860Y-96977620D01*
X132946048Y-96978399D01*
X132953365Y-96979168D01*
X132960811Y-96979927D01*
X132968389Y-96980675D01*
X132976099Y-96981412D01*
X132983944Y-96982139D01*
X132991925Y-96982854D01*
X133000043Y-96983558D01*
X133008300Y-96984250D01*
X133016697Y-96984931D01*
X133025236Y-96985599D01*
X133033918Y-96986255D01*
X133042745Y-96986899D01*
X133051718Y-96987530D01*
X133060838Y-96988149D01*
X133070108Y-96988754D01*
X133079528Y-96989346D01*
X133089101Y-96989924D01*
X133098827Y-96990488D01*
X133108708Y-96991039D01*
X133118745Y-96991575D01*
X133128941Y-96992097D01*
X133139296Y-96992605D01*
X133149812Y-96993097D01*
X133160491Y-96993575D01*
X133171333Y-96994037D01*
X133182341Y-96994484D01*
X133193516Y-96994915D01*
X133204859Y-96995330D01*
X133216372Y-96995729D01*
X133228056Y-96996112D01*
X133239913Y-96996478D01*
X133251945Y-96996827D01*
X133264152Y-96997159D01*
X133276536Y-96997475D01*
X133289100Y-96997772D01*
X133301843Y-96998052D01*
X133314768Y-96998315D01*
X133327876Y-96998559D01*
X133341169Y-96998785D01*
X133354648Y-96998992D01*
X133368315Y-96999181D01*
X133382170Y-96999350D01*
X133396216Y-96999501D01*
X133410455Y-96999632D01*
X133424886Y-96999743D01*
X133439513Y-96999835D01*
X133454337Y-96999907D01*
X133469358Y-96999959D01*
X133484578Y-96999990D01*
X133500000Y-97000000D01*
D10*
X133400000Y-91770000D02*
G75*
G02*
X132800000Y-91770000I-300000J0D01*
G01*
X132800000Y-91770000D02*
G75*
G02*
X133400000Y-91770000I300000J0D01*
G01*
X133400000Y-92670000D02*
G75*
G02*
X132800000Y-92670000I-300000J0D01*
G01*
X132800000Y-92670000D02*
G75*
G02*
X133400000Y-92670000I300000J0D01*
G01*
X133400000Y-93570000D02*
G75*
G02*
X132800000Y-93570000I-300000J0D01*
G01*
X132800000Y-93570000D02*
G75*
G02*
X133400000Y-93570000I300000J0D01*
G01*
X133400000Y-94470000D02*
G75*
G02*
X132800000Y-94470000I-300000J0D01*
G01*
X132800000Y-94470000D02*
G75*
G02*
X133400000Y-94470000I300000J0D01*
G01*
X133400000Y-95370000D02*
G75*
G02*
X132800000Y-95370000I-300000J0D01*
G01*
X132800000Y-95370000D02*
G75*
G02*
X133400000Y-95370000I300000J0D01*
G01*
X133400000Y-96270000D02*
G75*
G02*
X132800000Y-96270000I-300000J0D01*
G01*
X132800000Y-96270000D02*
G75*
G02*
X133400000Y-96270000I300000J0D01*
G01*
X133500000Y-88000000D02*
X168500000Y-88000000D01*
X133500000Y-91000000D02*
X133500000Y-88000000D01*
X133500000Y-100000000D02*
X133500000Y-97000000D01*
X168500000Y-88000000D02*
X168500000Y-91000000D01*
D11*
X168500000Y-91000000D02*
X168515094Y-91000010D01*
X168529996Y-91000040D01*
X168544669Y-91000089D01*
X168559152Y-91000157D01*
X168573411Y-91000245D01*
X168587485Y-91000351D01*
X168601339Y-91000475D01*
X168615012Y-91000618D01*
X168628469Y-91000778D01*
X168641749Y-91000956D01*
X168654818Y-91001151D01*
X168667714Y-91001364D01*
X168680403Y-91001593D01*
X168692922Y-91001839D01*
X168705239Y-91002101D01*
X168717390Y-91002379D01*
X168729344Y-91002672D01*
X168741134Y-91002982D01*
X168752733Y-91003306D01*
X168764171Y-91003646D01*
X168775422Y-91004000D01*
X168786516Y-91004369D01*
X168797427Y-91004752D01*
X168808184Y-91005149D01*
X168818763Y-91005560D01*
X168829192Y-91005985D01*
X168839446Y-91006422D01*
X168849554Y-91006874D01*
X168859491Y-91007337D01*
X168869286Y-91007814D01*
X168878914Y-91008303D01*
X168888402Y-91008804D01*
X168897729Y-91009317D01*
X168906918Y-91009842D01*
X168915951Y-91010378D01*
X168924849Y-91010926D01*
X168933594Y-91011485D01*
X168942208Y-91012055D01*
X168950673Y-91012635D01*
X168959010Y-91013227D01*
X168967202Y-91013828D01*
X168975270Y-91014440D01*
X168983196Y-91015061D01*
X168991000Y-91015692D01*
X168998668Y-91016332D01*
X169006216Y-91016983D01*
X169013632Y-91017642D01*
X169020931Y-91018310D01*
X169028102Y-91018987D01*
X169035158Y-91019672D01*
X169042090Y-91020366D01*
X169048911Y-91021069D01*
X169055611Y-91021779D01*
X169062203Y-91022497D01*
X169068678Y-91023223D01*
X169075047Y-91023957D01*
X169081303Y-91024698D01*
X169087456Y-91025446D01*
X169093499Y-91026201D01*
X169099442Y-91026964D01*
X169105279Y-91027733D01*
X169111019Y-91028510D01*
X169116656Y-91029292D01*
X169122198Y-91030082D01*
X169127642Y-91030877D01*
X169132992Y-91031679D01*
X169138249Y-91032487D01*
X169143414Y-91033301D01*
X169148489Y-91034120D01*
X169153475Y-91034946D01*
X169158374Y-91035777D01*
X169163187Y-91036613D01*
X169167917Y-91037456D01*
X169172562Y-91038303D01*
X169177128Y-91039156D01*
X169181612Y-91040014D01*
X169186021Y-91040877D01*
X169190349Y-91041745D01*
X169194605Y-91042619D01*
X169198783Y-91043497D01*
X169202893Y-91044381D01*
X169206927Y-91045269D01*
X169210897Y-91046163D01*
X169214792Y-91047060D01*
X169218627Y-91047964D01*
X169222390Y-91048871D01*
X169226096Y-91049785D01*
X169229731Y-91050701D01*
X169233315Y-91051625D01*
X169236829Y-91052551D01*
X169240295Y-91053485D01*
X169243693Y-91054422D01*
X169247048Y-91055367D01*
X169250337Y-91056313D01*
X169253587Y-91057269D01*
X169256772Y-91058227D01*
X169263011Y-91060163D01*
X169269067Y-91062125D01*
X169274953Y-91064113D01*
X169280684Y-91066132D01*
X169286277Y-91068184D01*
X169291748Y-91070274D01*
X169297117Y-91072409D01*
X169302409Y-91074596D01*
X169307652Y-91076846D01*
X169312883Y-91079175D01*
X169318152Y-91081604D01*
X169323534Y-91084169D01*
X169329149Y-91086928D01*
X169335229Y-91089997D01*
X169342370Y-91093677D01*
X169345946Y-91095536D01*
X169352932Y-91099159D01*
X169356376Y-91100924D01*
X169359803Y-91102655D01*
X169363225Y-91104351D01*
X169366657Y-91106009D01*
X169370109Y-91107628D01*
X169373595Y-91109206D01*
X169377128Y-91110741D01*
X169380719Y-91112231D01*
X169384382Y-91113675D01*
X169388128Y-91115071D01*
X169390036Y-91115750D01*
X169391971Y-91116416D01*
X169393932Y-91117069D01*
X169395922Y-91117709D01*
X169397943Y-91118336D01*
X169399996Y-91118949D01*
X169402082Y-91119548D01*
X169404203Y-91120132D01*
X169406361Y-91120703D01*
X169408557Y-91121258D01*
X169410793Y-91121799D01*
X169413070Y-91122325D01*
X169415391Y-91122836D01*
X169417755Y-91123331D01*
X169420166Y-91123810D01*
X169422625Y-91124273D01*
X169425132Y-91124720D01*
X169427691Y-91125151D01*
X169430302Y-91125565D01*
X169432966Y-91125962D01*
X169435686Y-91126342D01*
X169438464Y-91126705D01*
X169441300Y-91127049D01*
X169444196Y-91127377D01*
X169447154Y-91127686D01*
X169450175Y-91127976D01*
X169453261Y-91128249D01*
X169456413Y-91128502D01*
X169459634Y-91128737D01*
X169462924Y-91128952D01*
X169466286Y-91129148D01*
X169469720Y-91129325D01*
X169473228Y-91129481D01*
X169476812Y-91129617D01*
X169480474Y-91129733D01*
X169484215Y-91129829D01*
X169488037Y-91129903D01*
X169491940Y-91129957D01*
X169495927Y-91129989D01*
X169500000Y-91130000D01*
D10*
X168500000Y-97000000D02*
X168500000Y-100000000D01*
D11*
X168500000Y-97000000D02*
X168515094Y-96999990D01*
X168529996Y-96999960D01*
X168544669Y-96999911D01*
X168559152Y-96999843D01*
X168573411Y-96999755D01*
X168587485Y-96999649D01*
X168601339Y-96999525D01*
X168615012Y-96999382D01*
X168628469Y-96999222D01*
X168641749Y-96999044D01*
X168654818Y-96998849D01*
X168667714Y-96998636D01*
X168680403Y-96998407D01*
X168692922Y-96998161D01*
X168705239Y-96997899D01*
X168717390Y-96997621D01*
X168729344Y-96997328D01*
X168741134Y-96997018D01*
X168752733Y-96996694D01*
X168764171Y-96996354D01*
X168775422Y-96996000D01*
X168786516Y-96995631D01*
X168797427Y-96995248D01*
X168808184Y-96994851D01*
X168818763Y-96994440D01*
X168829192Y-96994015D01*
X168839446Y-96993578D01*
X168849554Y-96993126D01*
X168859491Y-96992663D01*
X168869286Y-96992186D01*
X168878914Y-96991697D01*
X168888402Y-96991196D01*
X168897729Y-96990683D01*
X168906918Y-96990158D01*
X168915951Y-96989622D01*
X168924849Y-96989074D01*
X168933594Y-96988515D01*
X168942208Y-96987945D01*
X168950673Y-96987365D01*
X168959010Y-96986773D01*
X168967202Y-96986172D01*
X168975270Y-96985560D01*
X168983196Y-96984939D01*
X168991000Y-96984308D01*
X168998668Y-96983668D01*
X169006216Y-96983017D01*
X169013632Y-96982358D01*
X169020931Y-96981690D01*
X169028102Y-96981013D01*
X169035158Y-96980328D01*
X169042090Y-96979634D01*
X169048911Y-96978931D01*
X169055611Y-96978221D01*
X169062203Y-96977503D01*
X169068678Y-96976777D01*
X169075047Y-96976043D01*
X169081303Y-96975302D01*
X169087456Y-96974554D01*
X169093499Y-96973799D01*
X169099442Y-96973036D01*
X169105279Y-96972267D01*
X169111019Y-96971490D01*
X169116656Y-96970708D01*
X169122198Y-96969918D01*
X169127642Y-96969123D01*
X169132992Y-96968321D01*
X169138249Y-96967513D01*
X169143414Y-96966699D01*
X169148489Y-96965880D01*
X169153475Y-96965054D01*
X169158374Y-96964223D01*
X169163187Y-96963387D01*
X169167917Y-96962544D01*
X169172562Y-96961697D01*
X169177128Y-96960844D01*
X169181612Y-96959986D01*
X169186021Y-96959123D01*
X169190349Y-96958255D01*
X169194605Y-96957381D01*
X169198783Y-96956503D01*
X169202893Y-96955619D01*
X169206927Y-96954731D01*
X169210897Y-96953837D01*
X169214792Y-96952940D01*
X169218627Y-96952036D01*
X169222390Y-96951129D01*
X169226096Y-96950215D01*
X169229731Y-96949299D01*
X169233315Y-96948375D01*
X169236829Y-96947449D01*
X169240295Y-96946515D01*
X169243693Y-96945578D01*
X169247048Y-96944633D01*
X169250337Y-96943687D01*
X169253587Y-96942731D01*
X169256772Y-96941773D01*
X169263011Y-96939837D01*
X169269067Y-96937875D01*
X169274953Y-96935887D01*
X169280684Y-96933868D01*
X169286277Y-96931816D01*
X169291748Y-96929726D01*
X169297117Y-96927591D01*
X169302409Y-96925404D01*
X169307652Y-96923154D01*
X169312883Y-96920825D01*
X169318152Y-96918396D01*
X169323534Y-96915831D01*
X169329149Y-96913072D01*
X169335229Y-96910003D01*
X169342370Y-96906323D01*
X169345946Y-96904464D01*
X169352932Y-96900841D01*
X169356376Y-96899076D01*
X169359803Y-96897345D01*
X169363225Y-96895649D01*
X169366657Y-96893991D01*
X169370109Y-96892372D01*
X169373595Y-96890794D01*
X169377128Y-96889259D01*
X169380719Y-96887769D01*
X169384382Y-96886325D01*
X169388128Y-96884929D01*
X169390036Y-96884250D01*
X169391971Y-96883584D01*
X169393932Y-96882931D01*
X169395922Y-96882291D01*
X169397943Y-96881664D01*
X169399996Y-96881051D01*
X169402082Y-96880452D01*
X169404203Y-96879868D01*
X169406361Y-96879297D01*
X169408557Y-96878742D01*
X169410793Y-96878201D01*
X169413070Y-96877675D01*
X169415391Y-96877164D01*
X169417755Y-96876669D01*
X169420166Y-96876190D01*
X169422625Y-96875727D01*
X169425132Y-96875280D01*
X169427691Y-96874849D01*
X169430302Y-96874435D01*
X169432966Y-96874038D01*
X169435686Y-96873658D01*
X169438464Y-96873295D01*
X169441300Y-96872951D01*
X169444196Y-96872623D01*
X169447154Y-96872314D01*
X169450175Y-96872024D01*
X169453261Y-96871751D01*
X169456413Y-96871498D01*
X169459634Y-96871263D01*
X169462924Y-96871048D01*
X169466286Y-96870852D01*
X169469720Y-96870675D01*
X169473228Y-96870519D01*
X169476812Y-96870383D01*
X169480474Y-96870267D01*
X169484215Y-96870171D01*
X169488037Y-96870097D01*
X169491940Y-96870043D01*
X169495927Y-96870011D01*
X169500000Y-96870000D01*
D10*
X168500000Y-100000000D02*
X133500000Y-100000000D01*
X169200000Y-91770000D02*
G75*
G02*
X168600000Y-91770000I-300000J0D01*
G01*
X168600000Y-91770000D02*
G75*
G02*
X169200000Y-91770000I300000J0D01*
G01*
X169200000Y-92670000D02*
G75*
G02*
X168600000Y-92670000I-300000J0D01*
G01*
X168600000Y-92670000D02*
G75*
G02*
X169200000Y-92670000I300000J0D01*
G01*
X169200000Y-93570000D02*
G75*
G02*
X168600000Y-93570000I-300000J0D01*
G01*
X168600000Y-93570000D02*
G75*
G02*
X169200000Y-93570000I300000J0D01*
G01*
X169200000Y-94470000D02*
G75*
G02*
X168600000Y-94470000I-300000J0D01*
G01*
X168600000Y-94470000D02*
G75*
G02*
X169200000Y-94470000I300000J0D01*
G01*
X169200000Y-95370000D02*
G75*
G02*
X168600000Y-95370000I-300000J0D01*
G01*
X168600000Y-95370000D02*
G75*
G02*
X169200000Y-95370000I300000J0D01*
G01*
X169200000Y-96270000D02*
G75*
G02*
X168600000Y-96270000I-300000J0D01*
G01*
X168600000Y-96270000D02*
G75*
G02*
X169200000Y-96270000I300000J0D01*
G01*
D11*
X169500000Y-91130000D02*
X169503910Y-91129990D01*
X169507741Y-91129960D01*
X169511459Y-91129911D01*
X169515102Y-91129844D01*
X169518639Y-91129758D01*
X169522106Y-91129654D01*
X169525475Y-91129533D01*
X169528777Y-91129394D01*
X169531988Y-91129240D01*
X169535136Y-91129068D01*
X169538200Y-91128881D01*
X169541204Y-91128678D01*
X169544131Y-91128460D01*
X169547002Y-91128227D01*
X169549801Y-91127979D01*
X169552547Y-91127716D01*
X169555228Y-91127439D01*
X169557858Y-91127147D01*
X169560429Y-91126842D01*
X169562952Y-91126523D01*
X169565421Y-91126190D01*
X169567846Y-91125844D01*
X169570222Y-91125484D01*
X169572555Y-91125111D01*
X169574846Y-91124724D01*
X169577096Y-91124324D01*
X169579310Y-91123911D01*
X169581484Y-91123485D01*
X169583628Y-91123044D01*
X169585735Y-91122591D01*
X169587816Y-91122123D01*
X169589863Y-91121643D01*
X169593884Y-91120639D01*
X169597813Y-91119577D01*
X169601668Y-91118454D01*
X169605465Y-91117265D01*
X169609225Y-91116007D01*
X169612968Y-91114671D01*
X169616720Y-91113249D01*
X169620512Y-91111729D01*
X169624382Y-91110093D01*
X169628381Y-91108318D01*
X169632586Y-91106369D01*
X169637112Y-91104185D01*
X169642173Y-91101661D01*
X169648250Y-91098549D01*
X169654054Y-91095536D01*
X169661115Y-91091873D01*
X169664753Y-91090006D01*
X169668479Y-91088116D01*
X169672304Y-91086207D01*
X169676241Y-91084278D01*
X169680301Y-91082333D01*
X169684495Y-91080373D01*
X169688837Y-91078400D01*
X169693337Y-91076415D01*
X169698008Y-91074421D01*
X169702860Y-91072418D01*
X169707907Y-91070409D01*
X169713161Y-91068395D01*
X169718631Y-91066378D01*
X169724332Y-91064361D01*
X169727272Y-91063352D01*
X169730274Y-91062343D01*
X169733339Y-91061335D01*
X169736469Y-91060328D01*
X169739665Y-91059322D01*
X169742930Y-91058317D01*
X169746263Y-91057314D01*
X169749667Y-91056312D01*
X169753143Y-91055312D01*
X169756693Y-91054314D01*
X169760318Y-91053319D01*
X169764020Y-91052326D01*
X169767800Y-91051335D01*
X169771660Y-91050348D01*
X169775600Y-91049364D01*
X169779623Y-91048383D01*
X169783731Y-91047406D01*
X169787923Y-91046432D01*
X169792203Y-91045463D01*
X169796571Y-91044498D01*
X169801030Y-91043537D01*
X169805579Y-91042581D01*
X169810222Y-91041630D01*
X169814959Y-91040684D01*
X169819791Y-91039743D01*
X169824722Y-91038808D01*
X169829751Y-91037879D01*
X169834880Y-91036955D01*
X169840111Y-91036038D01*
X169845445Y-91035127D01*
X169850885Y-91034223D01*
X169856430Y-91033325D01*
X169862083Y-91032435D01*
X169867845Y-91031552D01*
X169873718Y-91030676D01*
X169879703Y-91029809D01*
X169885802Y-91028949D01*
X169892016Y-91028097D01*
X169898346Y-91027253D01*
X169904795Y-91026418D01*
X169911363Y-91025592D01*
X169918052Y-91024775D01*
X169924864Y-91023967D01*
X169931799Y-91023169D01*
X169938860Y-91022380D01*
X169946048Y-91021601D01*
X169953365Y-91020832D01*
X169960811Y-91020073D01*
X169968389Y-91019325D01*
X169976099Y-91018588D01*
X169983944Y-91017861D01*
X169991925Y-91017146D01*
X170000043Y-91016442D01*
X170008300Y-91015750D01*
X170016697Y-91015069D01*
X170025236Y-91014401D01*
X170033918Y-91013745D01*
X170042745Y-91013101D01*
X170051718Y-91012470D01*
X170060838Y-91011851D01*
X170070108Y-91011246D01*
X170079528Y-91010654D01*
X170089101Y-91010076D01*
X170098827Y-91009512D01*
X170108708Y-91008961D01*
X170118745Y-91008425D01*
X170128941Y-91007903D01*
X170139296Y-91007395D01*
X170149812Y-91006903D01*
X170160491Y-91006425D01*
X170171333Y-91005963D01*
X170182341Y-91005516D01*
X170193516Y-91005085D01*
X170204859Y-91004670D01*
X170216372Y-91004271D01*
X170228056Y-91003888D01*
X170239913Y-91003522D01*
X170251945Y-91003173D01*
X170264152Y-91002841D01*
X170276536Y-91002525D01*
X170289100Y-91002228D01*
X170301843Y-91001948D01*
X170314768Y-91001685D01*
X170327876Y-91001441D01*
X170341169Y-91001215D01*
X170354648Y-91001008D01*
X170368315Y-91000819D01*
X170382170Y-91000650D01*
X170396216Y-91000499D01*
X170410455Y-91000368D01*
X170424886Y-91000257D01*
X170439513Y-91000165D01*
X170454337Y-91000093D01*
X170469358Y-91000041D01*
X170484578Y-91000010D01*
X170500000Y-91000000D01*
X169500000Y-96870000D02*
X169503910Y-96870010D01*
X169507741Y-96870040D01*
X169511459Y-96870089D01*
X169515102Y-96870156D01*
X169518639Y-96870242D01*
X169522106Y-96870346D01*
X169525475Y-96870467D01*
X169528777Y-96870606D01*
X169531988Y-96870760D01*
X169535136Y-96870932D01*
X169538200Y-96871119D01*
X169541204Y-96871322D01*
X169544131Y-96871540D01*
X169547002Y-96871773D01*
X169549801Y-96872021D01*
X169552547Y-96872284D01*
X169555228Y-96872561D01*
X169557858Y-96872853D01*
X169560429Y-96873158D01*
X169562952Y-96873477D01*
X169565421Y-96873810D01*
X169567846Y-96874156D01*
X169570222Y-96874516D01*
X169572555Y-96874889D01*
X169574846Y-96875276D01*
X169577096Y-96875676D01*
X169579310Y-96876089D01*
X169581484Y-96876515D01*
X169583628Y-96876956D01*
X169585735Y-96877409D01*
X169587816Y-96877877D01*
X169589863Y-96878357D01*
X169593884Y-96879361D01*
X169597813Y-96880423D01*
X169601668Y-96881546D01*
X169605465Y-96882735D01*
X169609225Y-96883993D01*
X169612968Y-96885329D01*
X169616720Y-96886751D01*
X169620512Y-96888271D01*
X169624382Y-96889907D01*
X169628381Y-96891682D01*
X169632586Y-96893631D01*
X169637112Y-96895815D01*
X169642173Y-96898339D01*
X169648250Y-96901451D01*
X169654054Y-96904464D01*
X169661115Y-96908127D01*
X169664753Y-96909994D01*
X169668479Y-96911884D01*
X169672304Y-96913793D01*
X169676241Y-96915722D01*
X169680301Y-96917667D01*
X169684495Y-96919627D01*
X169688837Y-96921600D01*
X169693337Y-96923585D01*
X169698008Y-96925579D01*
X169702860Y-96927582D01*
X169707907Y-96929591D01*
X169713161Y-96931605D01*
X169718631Y-96933622D01*
X169724332Y-96935639D01*
X169727272Y-96936648D01*
X169730274Y-96937657D01*
X169733339Y-96938665D01*
X169736469Y-96939672D01*
X169739665Y-96940678D01*
X169742930Y-96941683D01*
X169746263Y-96942686D01*
X169749667Y-96943688D01*
X169753143Y-96944688D01*
X169756693Y-96945686D01*
X169760318Y-96946681D01*
X169764020Y-96947674D01*
X169767800Y-96948665D01*
X169771660Y-96949652D01*
X169775600Y-96950636D01*
X169779623Y-96951617D01*
X169783731Y-96952594D01*
X169787923Y-96953568D01*
X169792203Y-96954537D01*
X169796571Y-96955502D01*
X169801030Y-96956463D01*
X169805579Y-96957419D01*
X169810222Y-96958370D01*
X169814959Y-96959316D01*
X169819791Y-96960257D01*
X169824722Y-96961192D01*
X169829751Y-96962121D01*
X169834880Y-96963045D01*
X169840111Y-96963962D01*
X169845445Y-96964873D01*
X169850885Y-96965777D01*
X169856430Y-96966675D01*
X169862083Y-96967565D01*
X169867845Y-96968448D01*
X169873718Y-96969324D01*
X169879703Y-96970191D01*
X169885802Y-96971051D01*
X169892016Y-96971903D01*
X169898346Y-96972747D01*
X169904795Y-96973582D01*
X169911363Y-96974408D01*
X169918052Y-96975225D01*
X169924864Y-96976033D01*
X169931799Y-96976831D01*
X169938860Y-96977620D01*
X169946048Y-96978399D01*
X169953365Y-96979168D01*
X169960811Y-96979927D01*
X169968389Y-96980675D01*
X169976099Y-96981412D01*
X169983944Y-96982139D01*
X169991925Y-96982854D01*
X170000043Y-96983558D01*
X170008300Y-96984250D01*
X170016697Y-96984931D01*
X170025236Y-96985599D01*
X170033918Y-96986255D01*
X170042745Y-96986899D01*
X170051718Y-96987530D01*
X170060838Y-96988149D01*
X170070108Y-96988754D01*
X170079528Y-96989346D01*
X170089101Y-96989924D01*
X170098827Y-96990488D01*
X170108708Y-96991039D01*
X170118745Y-96991575D01*
X170128941Y-96992097D01*
X170139296Y-96992605D01*
X170149812Y-96993097D01*
X170160491Y-96993575D01*
X170171333Y-96994037D01*
X170182341Y-96994484D01*
X170193516Y-96994915D01*
X170204859Y-96995330D01*
X170216372Y-96995729D01*
X170228056Y-96996112D01*
X170239913Y-96996478D01*
X170251945Y-96996827D01*
X170264152Y-96997159D01*
X170276536Y-96997475D01*
X170289100Y-96997772D01*
X170301843Y-96998052D01*
X170314768Y-96998315D01*
X170327876Y-96998559D01*
X170341169Y-96998785D01*
X170354648Y-96998992D01*
X170368315Y-96999181D01*
X170382170Y-96999350D01*
X170396216Y-96999501D01*
X170410455Y-96999632D01*
X170424886Y-96999743D01*
X170439513Y-96999835D01*
X170454337Y-96999907D01*
X170469358Y-96999959D01*
X170484578Y-96999990D01*
X170500000Y-97000000D01*
D10*
X170500000Y-86000000D02*
X131500000Y-86000000D01*
X170500000Y-86000000D02*
X170500000Y-91000000D01*
X170500000Y-102000000D02*
X170500000Y-97000000D01*
M02*
