%TF.GenerationSoftware,KiCad,Pcbnew,10.0.3*%
%TF.CreationDate,2026-07-16T14:50:02-04:00*%
%TF.ProjectId,ESP32-S3 Small Camera,45535033-322d-4533-9320-536d616c6c20,rev?*%
%TF.SameCoordinates,Original*%
%TF.FileFunction,Copper,L5,Inr*%
%TF.FilePolarity,Positive*%
%FSLAX46Y46*%
G04 Gerber Fmt 4.6, Leading zero omitted, Abs format (unit mm)*
G04 Created by KiCad (PCBNEW 10.0.3) date 2026-07-16 14:50:02*
%MOMM*%
%LPD*%
G01*
G04 APERTURE LIST*
%TA.AperFunction,ViaPad*%
%ADD10C,0.350000*%
%TD*%
%TA.AperFunction,ViaPad*%
%ADD11C,0.450000*%
%TD*%
%TA.AperFunction,ViaPad*%
%ADD12C,0.400000*%
%TD*%
%TA.AperFunction,ViaPad*%
%ADD13C,0.600000*%
%TD*%
%TA.AperFunction,ViaPad*%
%ADD14C,0.550000*%
%TD*%
%TA.AperFunction,ViaPad*%
%ADD15C,0.500000*%
%TD*%
%TA.AperFunction,Conductor*%
%ADD16C,0.400000*%
%TD*%
%TA.AperFunction,Conductor*%
%ADD17C,0.100000*%
%TD*%
G04 APERTURE END LIST*
D10*
%TO.N,Net-(U3-TS{slash}MR)*%
X152205039Y-89485786D03*
%TO.N,GND*%
X163145095Y-99404825D03*
D11*
X167250000Y-96000000D03*
D10*
X147421600Y-91998800D03*
X147000000Y-95000000D03*
X155413234Y-92100492D03*
D11*
X139922498Y-91677577D03*
D10*
X148500000Y-95500000D03*
X149368005Y-96108585D03*
X136906000Y-94361000D03*
X149500000Y-93500000D03*
D11*
X149250400Y-89611200D03*
D12*
X141523711Y-97717018D03*
D10*
X155244800Y-98450400D03*
D11*
X157000000Y-94500000D03*
D10*
X153877737Y-97084883D03*
D11*
X167250000Y-92500000D03*
D10*
X136042400Y-97536000D03*
X147500000Y-94500000D03*
D11*
X143052800Y-88493600D03*
D10*
X136357913Y-99510032D03*
D11*
X163500000Y-95500000D03*
D10*
X134000000Y-94000000D03*
X148082016Y-93214070D03*
D12*
X162373288Y-89834266D03*
D11*
X137304428Y-90924840D03*
D10*
X150785221Y-94217271D03*
D13*
X165354000Y-93853000D03*
D11*
X155158368Y-94574431D03*
D10*
X134787762Y-96400198D03*
X146500000Y-93500000D03*
D11*
X135993364Y-88493365D03*
D10*
X137859543Y-89716688D03*
X144217762Y-97790198D03*
X149000000Y-94500000D03*
D11*
X142787095Y-91936295D03*
D10*
X153217762Y-94550198D03*
X163000000Y-88500000D03*
D11*
X140970000Y-92456000D03*
D10*
X147523200Y-99625000D03*
X137250646Y-95888198D03*
X159097552Y-89884235D03*
X157696657Y-97077363D03*
X140747762Y-94488000D03*
D11*
X154620391Y-89977198D03*
X153000000Y-88500000D03*
D10*
X163750000Y-92250000D03*
X145491200Y-97028000D03*
X137856199Y-88720717D03*
X156750000Y-92250000D03*
D11*
X155956000Y-92760800D03*
X162814000Y-93984389D03*
D10*
X140868400Y-99585198D03*
D11*
X144272000Y-89662000D03*
D10*
X147500000Y-96000000D03*
X142433283Y-93729119D03*
X146500000Y-96500000D03*
%TO.N,DOVDD*%
X143535430Y-97799205D03*
X136245600Y-92557600D03*
X139000000Y-95500000D03*
%TO.N,VBUS*%
X166471600Y-94742000D03*
D14*
X159145839Y-96607436D03*
X152951761Y-91527684D03*
D10*
%TO.N,VBUS_SENSE*%
X148539200Y-90576400D03*
X165862000Y-94589600D03*
%TO.N,CS*%
X154889200Y-96164400D03*
X152490795Y-96150198D03*
D11*
%TO.N,VCC_3V3*%
X151252222Y-88432644D03*
X140117762Y-94520198D03*
X160318843Y-99402055D03*
D10*
X148147762Y-92000198D03*
X152317762Y-99250198D03*
X150817762Y-90170000D03*
D15*
X154533600Y-98501200D03*
D10*
X151978975Y-91561645D03*
D12*
X135145083Y-91473715D03*
X135382000Y-94615000D03*
D10*
X134213600Y-98907600D03*
X156757276Y-97576098D03*
X136477762Y-97750198D03*
D11*
X145037762Y-88900000D03*
D10*
X150368000Y-93280198D03*
X159620781Y-96097608D03*
X149362762Y-92105198D03*
D12*
X141173200Y-89154000D03*
D10*
%TO.N,BOOT*%
X156697762Y-98060198D03*
X145542000Y-93820198D03*
%TO.N,RESET*%
X160389363Y-98539107D03*
X145314965Y-93400198D03*
D13*
%TO.N,B-*%
X164991283Y-91508717D03*
D10*
%TO.N,CAM_EN*%
X151301551Y-90016720D03*
D12*
X134463218Y-94488000D03*
D11*
X149225000Y-90297000D03*
D10*
%TO.N,VDD3P3*%
X143777762Y-92395198D03*
%TO.N,Y4*%
X142955651Y-94243616D03*
%TO.N,Y3*%
X143420462Y-94525708D03*
%TO.N,Y5*%
X143919644Y-94917376D03*
%TO.N,Y2*%
X142881026Y-95320198D03*
%TO.N,Y6*%
X143847762Y-95640198D03*
%TO.N,PCLK*%
X143357762Y-95970997D03*
%TO.N,Y7*%
X143129000Y-96393000D03*
%TO.N,SDA*%
X152425603Y-93217801D03*
X143807750Y-96743000D03*
X151638000Y-89662000D03*
%TO.N,SCL*%
X152857762Y-92970198D03*
X151781681Y-90144087D03*
X143361727Y-97100198D03*
%TO.N,Y8*%
X141447762Y-99585198D03*
X145457762Y-97610198D03*
%TO.N,MCLK_3V3*%
X144749750Y-97828852D03*
X134467600Y-91440000D03*
%TO.N,Y9*%
X142477762Y-99585198D03*
X146205612Y-97559947D03*
%TO.N,HREF*%
X146667762Y-97450198D03*
X144003284Y-99602693D03*
%TO.N,PWDN_3V3*%
X143205200Y-90170000D03*
X147152005Y-97406255D03*
%TO.N,Net-(U8-XTAL_32K_P)*%
X153060400Y-98806000D03*
X147857762Y-97370198D03*
%TO.N,GPout*%
X153771600Y-98755200D03*
X148442187Y-99139107D03*
%TO.N,VSYNC*%
X148360342Y-97433387D03*
X144977762Y-99585198D03*
%TO.N,RST_CM_3V3*%
X143408400Y-89560400D03*
X151587200Y-99060000D03*
%TO.N,D-*%
X149479000Y-98933000D03*
X155750000Y-98250000D03*
%TO.N,D+*%
X157255063Y-97361305D03*
X150021594Y-99077085D03*
%TO.N,INT_BQ25180*%
X151372483Y-90817086D03*
X150465783Y-98893801D03*
%TO.N,WP*%
X156413200Y-96367600D03*
X152197762Y-96570198D03*
%TO.N,DO*%
X152437762Y-95310198D03*
X155697762Y-96090198D03*
%TO.N,BTTN*%
X153314400Y-98399600D03*
D11*
X162219459Y-98497576D03*
D10*
%TO.N,SCCB_SDA*%
X150041760Y-92110358D03*
X147015200Y-99585198D03*
X136646302Y-91674840D03*
%TO.N,SCCB_SCL*%
X138625233Y-93510807D03*
X148808846Y-92093428D03*
X145977762Y-99585198D03*
%TO.N,DVDD*%
X143487762Y-99585198D03*
D15*
%TO.N,D-X*%
X167000000Y-97155000D03*
%TO.N,D+X*%
X165500000Y-96000000D03*
D11*
%TO.N,Net-(R4-Pad1)*%
X158421657Y-97380781D03*
X164500000Y-97250000D03*
%TO.N,Net-(R3-Pad1)*%
X162323540Y-99229999D03*
X159395123Y-98075199D03*
D12*
%TO.N,LOAD_SYS*%
X153503244Y-90097451D03*
D14*
X136700418Y-96684198D03*
D13*
%TO.N,B+*%
X163807050Y-90213304D03*
X155266651Y-89902198D03*
X159258000Y-88646000D03*
D10*
%TO.N,PWDN_CAM*%
X144477762Y-99625000D03*
X136702800Y-90932000D03*
%TO.N,RST_CM_CAM*%
X141071600Y-89712800D03*
X143662400Y-88544400D03*
X145477762Y-99625000D03*
%TO.N,MCLK_CAM*%
X135737600Y-93573600D03*
X141977762Y-99585198D03*
%TD*%
%TO.N,VBUS*%
D16*
X152951761Y-91527684D02*
X158031513Y-96607436D01*
X158031513Y-96607436D02*
X159145839Y-96607436D01*
%TO.N,SDA*%
D17*
X152425603Y-93217801D02*
X152425603Y-90293034D01*
X152425603Y-90293034D02*
X151794569Y-89662000D01*
X151794569Y-89662000D02*
X151638000Y-89662000D01*
%TO.N,Y8*%
X145281964Y-97434400D02*
X145457762Y-97610198D01*
X141447762Y-99391898D02*
X143390455Y-97449205D01*
X141447762Y-99585198D02*
X141447762Y-99391898D01*
X143390455Y-97449205D02*
X143686990Y-97449205D01*
X143686990Y-97449205D02*
X143701795Y-97434400D01*
X143701795Y-97434400D02*
X145281964Y-97434400D01*
%TO.N,Y9*%
X142477762Y-99585198D02*
X143545027Y-98517933D01*
X143545027Y-98517933D02*
X145247626Y-98517933D01*
X145247626Y-98517933D02*
X146205612Y-97559947D01*
%TO.N,HREF*%
X146442867Y-98717933D02*
X146659600Y-98501200D01*
X146659600Y-97458360D02*
X146667762Y-97450198D01*
X144888044Y-98717933D02*
X146442867Y-98717933D01*
X146659600Y-98501200D02*
X146659600Y-97458360D01*
X144003284Y-99602693D02*
X144888044Y-98717933D01*
%TO.N,Net-(U8-XTAL_32K_P)*%
X148505317Y-97083387D02*
X149129000Y-97707070D01*
X149129000Y-97707070D02*
X149129000Y-99077975D01*
X147857762Y-97370198D02*
X148144573Y-97083387D01*
X151942800Y-99130185D02*
X152266985Y-98806000D01*
X149478110Y-99427085D02*
X151715090Y-99427085D01*
X151715090Y-99427085D02*
X151942800Y-99199375D01*
X152266985Y-98806000D02*
X153060400Y-98806000D01*
X151942800Y-99199375D02*
X151942800Y-99130185D01*
X148144573Y-97083387D02*
X148505317Y-97083387D01*
X149129000Y-99077975D02*
X149478110Y-99427085D01*
%TO.N,VSYNC*%
X146558531Y-99235198D02*
X148360342Y-97433387D01*
X145327762Y-99235198D02*
X146558531Y-99235198D01*
X144977762Y-99585198D02*
X145327762Y-99235198D01*
%TO.N,INT_BQ25180*%
X151372483Y-90817086D02*
X151372483Y-97987101D01*
X151372483Y-97987101D02*
X150465783Y-98893801D01*
%TO.N,Net-(R4-Pad1)*%
X158421657Y-97380781D02*
X158619219Y-97380781D01*
X158619219Y-97380781D02*
X158750000Y-97250000D01*
X158750000Y-97250000D02*
X164500000Y-97250000D01*
%TO.N,Net-(R3-Pad1)*%
X161003304Y-97909763D02*
X162323540Y-99229999D01*
X159560559Y-97909763D02*
X161003304Y-97909763D01*
X159395123Y-98075199D02*
X159560559Y-97909763D01*
%TO.N,LOAD_SYS*%
D16*
X153503244Y-90097451D02*
X153503244Y-90076884D01*
X142565655Y-92900198D02*
X141541802Y-92900198D01*
X153503244Y-90076884D02*
X152412146Y-88985786D01*
X138500000Y-95292893D02*
X140574893Y-93218000D01*
X146480067Y-88985786D02*
X142565655Y-92900198D01*
X136700418Y-96684198D02*
X137161753Y-96684198D01*
X140574893Y-93218000D02*
X141224000Y-93218000D01*
X150000000Y-88985786D02*
X146480067Y-88985786D01*
X137161753Y-96684198D02*
X138500000Y-95345951D01*
X152412146Y-88985786D02*
X150000000Y-88985786D01*
X138500000Y-95345951D02*
X138500000Y-95292893D01*
X141541802Y-92900198D02*
X141224000Y-93218000D01*
%TD*%
%TA.AperFunction,Conductor*%
%TO.N,VCC_3V3*%
G36*
X135742254Y-88214852D02*
G01*
X135756606Y-88249500D01*
X135742254Y-88284148D01*
X135732900Y-88293502D01*
X135732899Y-88293502D01*
X135690046Y-88367724D01*
X135690045Y-88367728D01*
X135667864Y-88450508D01*
X135667864Y-88536221D01*
X135690045Y-88619001D01*
X135690046Y-88619005D01*
X135725928Y-88681153D01*
X135732899Y-88693227D01*
X135793502Y-88753830D01*
X135820668Y-88769514D01*
X135867723Y-88796682D01*
X135867725Y-88796682D01*
X135867726Y-88796683D01*
X135933015Y-88814177D01*
X135950507Y-88818864D01*
X135950508Y-88818865D01*
X135950511Y-88818865D01*
X136036220Y-88818865D01*
X136036220Y-88818864D01*
X136119002Y-88796683D01*
X136193226Y-88753830D01*
X136253829Y-88693227D01*
X136260800Y-88681153D01*
X137555699Y-88681153D01*
X137555699Y-88760280D01*
X137576178Y-88836706D01*
X137576178Y-88836708D01*
X137608052Y-88891914D01*
X137615739Y-88905228D01*
X137671688Y-88961177D01*
X137740210Y-89000738D01*
X137775677Y-89010241D01*
X137816635Y-89021217D01*
X137816637Y-89021217D01*
X137895763Y-89021217D01*
X137922429Y-89014071D01*
X137972188Y-89000738D01*
X138040710Y-88961177D01*
X138096659Y-88905228D01*
X138136220Y-88836706D01*
X138156649Y-88760465D01*
X138156699Y-88760280D01*
X138156699Y-88681153D01*
X138141822Y-88625636D01*
X138136220Y-88604728D01*
X138136219Y-88604726D01*
X138136219Y-88604725D01*
X138100498Y-88542856D01*
X138096659Y-88536206D01*
X138040710Y-88480257D01*
X137972189Y-88440696D01*
X137895763Y-88420217D01*
X137895761Y-88420217D01*
X137816637Y-88420217D01*
X137816635Y-88420217D01*
X137740209Y-88440696D01*
X137740207Y-88440696D01*
X137671687Y-88480257D01*
X137671687Y-88480258D01*
X137615740Y-88536205D01*
X137615739Y-88536205D01*
X137576178Y-88604725D01*
X137576178Y-88604727D01*
X137555699Y-88681153D01*
X136260800Y-88681153D01*
X136296682Y-88619003D01*
X136318863Y-88536221D01*
X136318864Y-88536221D01*
X136318864Y-88450509D01*
X136318863Y-88450508D01*
X136312941Y-88428408D01*
X136296682Y-88367727D01*
X136296681Y-88367726D01*
X136296681Y-88367724D01*
X136269513Y-88320669D01*
X136253829Y-88293503D01*
X136244474Y-88284148D01*
X136230122Y-88249500D01*
X136244474Y-88214852D01*
X136279122Y-88200500D01*
X142767277Y-88200500D01*
X142801925Y-88214852D01*
X142816277Y-88249500D01*
X142801925Y-88284148D01*
X142792336Y-88293737D01*
X142792335Y-88293737D01*
X142749482Y-88367959D01*
X142749481Y-88367963D01*
X142727300Y-88450743D01*
X142727300Y-88536456D01*
X142749481Y-88619236D01*
X142749482Y-88619240D01*
X142790665Y-88690570D01*
X142792335Y-88693462D01*
X142852938Y-88754065D01*
X142880104Y-88769749D01*
X142927159Y-88796917D01*
X142927161Y-88796917D01*
X142927162Y-88796918D01*
X142992451Y-88814412D01*
X143009943Y-88819099D01*
X143009944Y-88819100D01*
X143009947Y-88819100D01*
X143095656Y-88819100D01*
X143095656Y-88819099D01*
X143178438Y-88796918D01*
X143252662Y-88754065D01*
X143313265Y-88693462D01*
X143314933Y-88690571D01*
X143344685Y-88667740D01*
X143381867Y-88672634D01*
X143399803Y-88690569D01*
X143421940Y-88728911D01*
X143477889Y-88784860D01*
X143546411Y-88824421D01*
X143581878Y-88833924D01*
X143622836Y-88844900D01*
X143622838Y-88844900D01*
X143701964Y-88844900D01*
X143732534Y-88836708D01*
X143778389Y-88824421D01*
X143846911Y-88784860D01*
X143902860Y-88728911D01*
X143942421Y-88660389D01*
X143962900Y-88583962D01*
X143962900Y-88504838D01*
X143962900Y-88504836D01*
X143947453Y-88447190D01*
X143942421Y-88428411D01*
X143942420Y-88428409D01*
X143942420Y-88428408D01*
X143916785Y-88384008D01*
X143902860Y-88359889D01*
X143846911Y-88303940D01*
X143826116Y-88291934D01*
X143803287Y-88262182D01*
X143808182Y-88225000D01*
X143837935Y-88202170D01*
X143850617Y-88200500D01*
X152720877Y-88200500D01*
X152755525Y-88214852D01*
X152769877Y-88249500D01*
X152755525Y-88284148D01*
X152739536Y-88300137D01*
X152739535Y-88300137D01*
X152696682Y-88374359D01*
X152696681Y-88374363D01*
X152674500Y-88457143D01*
X152674500Y-88542856D01*
X152696681Y-88625636D01*
X152696682Y-88625640D01*
X152738880Y-88698727D01*
X152739535Y-88699862D01*
X152800138Y-88760465D01*
X152827304Y-88776149D01*
X152874359Y-88803317D01*
X152874361Y-88803317D01*
X152874362Y-88803318D01*
X152932381Y-88818864D01*
X152957143Y-88825499D01*
X152957144Y-88825500D01*
X152957147Y-88825500D01*
X153042856Y-88825500D01*
X153042856Y-88825499D01*
X153125638Y-88803318D01*
X153199862Y-88760465D01*
X153260465Y-88699862D01*
X153303318Y-88625638D01*
X153325499Y-88542856D01*
X153325500Y-88542856D01*
X153325500Y-88457144D01*
X153325499Y-88457143D01*
X153305903Y-88384010D01*
X153303318Y-88374362D01*
X153303317Y-88374361D01*
X153303317Y-88374359D01*
X153260464Y-88300137D01*
X153244475Y-88284148D01*
X153230123Y-88249500D01*
X153244475Y-88214852D01*
X153279123Y-88200500D01*
X159045758Y-88200500D01*
X159080406Y-88214852D01*
X159094758Y-88249500D01*
X159080406Y-88284148D01*
X159070258Y-88291935D01*
X159012086Y-88325520D01*
X159012086Y-88325521D01*
X158937521Y-88400086D01*
X158937520Y-88400086D01*
X158884793Y-88491410D01*
X158884792Y-88491414D01*
X158857500Y-88593269D01*
X158857500Y-88698730D01*
X158884792Y-88800585D01*
X158884793Y-88800589D01*
X158937520Y-88891913D01*
X159012087Y-88966480D01*
X159045513Y-88985778D01*
X159103410Y-89019206D01*
X159103412Y-89019206D01*
X159103413Y-89019207D01*
X159110915Y-89021217D01*
X159205269Y-89046499D01*
X159205270Y-89046500D01*
X159205273Y-89046500D01*
X159310730Y-89046500D01*
X159310730Y-89046499D01*
X159412587Y-89019207D01*
X159503913Y-88966480D01*
X159578480Y-88891913D01*
X159631207Y-88800587D01*
X159658499Y-88698730D01*
X159658500Y-88698730D01*
X159658500Y-88593270D01*
X159658499Y-88593269D01*
X159634804Y-88504838D01*
X159631207Y-88491413D01*
X159631206Y-88491412D01*
X159631206Y-88491410D01*
X159578479Y-88400086D01*
X159503913Y-88325520D01*
X159445742Y-88291935D01*
X159422912Y-88262182D01*
X159427807Y-88225000D01*
X159457560Y-88202170D01*
X159470242Y-88200500D01*
X162756233Y-88200500D01*
X162790881Y-88214852D01*
X162805233Y-88249500D01*
X162790881Y-88284148D01*
X162759541Y-88315488D01*
X162759540Y-88315488D01*
X162719979Y-88384008D01*
X162719979Y-88384010D01*
X162699500Y-88460436D01*
X162699500Y-88539563D01*
X162719979Y-88615989D01*
X162719979Y-88615991D01*
X162745613Y-88660389D01*
X162759540Y-88684511D01*
X162815489Y-88740460D01*
X162884011Y-88780021D01*
X162919478Y-88789524D01*
X162960436Y-88800500D01*
X162960438Y-88800500D01*
X163039564Y-88800500D01*
X163066230Y-88793354D01*
X163115989Y-88780021D01*
X163184511Y-88740460D01*
X163240460Y-88684511D01*
X163280021Y-88615989D01*
X163296171Y-88555713D01*
X163300500Y-88539563D01*
X163300500Y-88460436D01*
X163291843Y-88428134D01*
X163280021Y-88384011D01*
X163280020Y-88384009D01*
X163280020Y-88384008D01*
X163240459Y-88315488D01*
X163209119Y-88284148D01*
X163194767Y-88249500D01*
X163209119Y-88214852D01*
X163243767Y-88200500D01*
X168250500Y-88200500D01*
X168285148Y-88214852D01*
X168299500Y-88249500D01*
X168299500Y-90998402D01*
X168298897Y-91036723D01*
X168299500Y-91038246D01*
X168299500Y-91042143D01*
X168300000Y-91047222D01*
X168300000Y-96952780D01*
X168299214Y-96961524D01*
X168298896Y-96963272D01*
X168299494Y-97001215D01*
X168299500Y-97001986D01*
X168299500Y-99750500D01*
X168285148Y-99785148D01*
X168250500Y-99799500D01*
X163205384Y-99799500D01*
X163170736Y-99785148D01*
X163156384Y-99750500D01*
X163170736Y-99715852D01*
X163192701Y-99703170D01*
X163213275Y-99697656D01*
X163261084Y-99684846D01*
X163329606Y-99645285D01*
X163385555Y-99589336D01*
X163425116Y-99520814D01*
X163445595Y-99444387D01*
X163445595Y-99365263D01*
X163445595Y-99365261D01*
X163434436Y-99323618D01*
X163425116Y-99288836D01*
X163425115Y-99288834D01*
X163425115Y-99288833D01*
X163393168Y-99233500D01*
X163385555Y-99220314D01*
X163329606Y-99164365D01*
X163308728Y-99152311D01*
X163261085Y-99124804D01*
X163184659Y-99104325D01*
X163184657Y-99104325D01*
X163105533Y-99104325D01*
X163105531Y-99104325D01*
X163029105Y-99124804D01*
X163029103Y-99124804D01*
X162960583Y-99164365D01*
X162960583Y-99164366D01*
X162904636Y-99220313D01*
X162904635Y-99220313D01*
X162865074Y-99288833D01*
X162865074Y-99288835D01*
X162844595Y-99365261D01*
X162844595Y-99444388D01*
X162865074Y-99520814D01*
X162865074Y-99520816D01*
X162902383Y-99585436D01*
X162904635Y-99589336D01*
X162960584Y-99645285D01*
X163029106Y-99684846D01*
X163064585Y-99694353D01*
X163097489Y-99703170D01*
X163127242Y-99726001D01*
X163132136Y-99763183D01*
X163109305Y-99792936D01*
X163084806Y-99799500D01*
X147851401Y-99799500D01*
X147816753Y-99785148D01*
X147802401Y-99750500D01*
X147804071Y-99737817D01*
X147823700Y-99664563D01*
X147823700Y-99585436D01*
X147809734Y-99533317D01*
X147803221Y-99509011D01*
X147803220Y-99509009D01*
X147803220Y-99509008D01*
X147765911Y-99444388D01*
X147763660Y-99440489D01*
X147707711Y-99384540D01*
X147704146Y-99382482D01*
X147639190Y-99344979D01*
X147562764Y-99324500D01*
X147562762Y-99324500D01*
X147483638Y-99324500D01*
X147483636Y-99324500D01*
X147407210Y-99344979D01*
X147407208Y-99344979D01*
X147338688Y-99384540D01*
X147338686Y-99384541D01*
X147323746Y-99399481D01*
X147289097Y-99413831D01*
X147254452Y-99399479D01*
X147199711Y-99344738D01*
X147131190Y-99305177D01*
X147054764Y-99284698D01*
X147054762Y-99284698D01*
X146975638Y-99284698D01*
X146975636Y-99284698D01*
X146899210Y-99305177D01*
X146899208Y-99305177D01*
X146830688Y-99344738D01*
X146830688Y-99344739D01*
X146774741Y-99400686D01*
X146774740Y-99400686D01*
X146735179Y-99469206D01*
X146735179Y-99469208D01*
X146714700Y-99545634D01*
X146714700Y-99624761D01*
X146735178Y-99701186D01*
X146735179Y-99701187D01*
X146749505Y-99726000D01*
X146754401Y-99763181D01*
X146731571Y-99792935D01*
X146707070Y-99799500D01*
X146285892Y-99799500D01*
X146251244Y-99785148D01*
X146236892Y-99750500D01*
X146243456Y-99726001D01*
X146257783Y-99701187D01*
X146272762Y-99645285D01*
X146278262Y-99624761D01*
X146278262Y-99545634D01*
X146262737Y-99487697D01*
X146257783Y-99469209D01*
X146257781Y-99469206D01*
X146257781Y-99469204D01*
X146252004Y-99459199D01*
X146247107Y-99422017D01*
X146269937Y-99392264D01*
X146294438Y-99385698D01*
X146588465Y-99385698D01*
X146588467Y-99385698D01*
X146611379Y-99376207D01*
X146643783Y-99362786D01*
X146907026Y-99099543D01*
X148141687Y-99099543D01*
X148141687Y-99178670D01*
X148152846Y-99220313D01*
X148162166Y-99255096D01*
X148201727Y-99323618D01*
X148257676Y-99379567D01*
X148326198Y-99419128D01*
X148361665Y-99428631D01*
X148402623Y-99439607D01*
X148402625Y-99439607D01*
X148481751Y-99439607D01*
X148508417Y-99432461D01*
X148558176Y-99419128D01*
X148626698Y-99379567D01*
X148682647Y-99323618D01*
X148722208Y-99255096D01*
X148731528Y-99220313D01*
X148742687Y-99178670D01*
X148742687Y-99099543D01*
X148732542Y-99061685D01*
X148722208Y-99023118D01*
X148722207Y-99023116D01*
X148722207Y-99023115D01*
X148682646Y-98954595D01*
X148626698Y-98898647D01*
X148558177Y-98859086D01*
X148481751Y-98838607D01*
X148481749Y-98838607D01*
X148402625Y-98838607D01*
X148402623Y-98838607D01*
X148326197Y-98859086D01*
X148326195Y-98859086D01*
X148257675Y-98898647D01*
X148257675Y-98898648D01*
X148201728Y-98954595D01*
X148201727Y-98954595D01*
X148162166Y-99023115D01*
X148162166Y-99023117D01*
X148141687Y-99099543D01*
X146907026Y-99099543D01*
X148262841Y-97743725D01*
X148297488Y-97729374D01*
X148310167Y-97731043D01*
X148320780Y-97733887D01*
X148320781Y-97733887D01*
X148399906Y-97733887D01*
X148437839Y-97723722D01*
X148476331Y-97713408D01*
X148544853Y-97673847D01*
X148600802Y-97617898D01*
X148640363Y-97549376D01*
X148643355Y-97538208D01*
X148666184Y-97508456D01*
X148703366Y-97503560D01*
X148725333Y-97516243D01*
X148964148Y-97755058D01*
X148978500Y-97789706D01*
X148978500Y-99107912D01*
X148982476Y-99117511D01*
X148987370Y-99129325D01*
X148994391Y-99146276D01*
X149001411Y-99163225D01*
X149001414Y-99163230D01*
X149392856Y-99554671D01*
X149392857Y-99554671D01*
X149392858Y-99554672D01*
X149394853Y-99555498D01*
X149394855Y-99555499D01*
X149448174Y-99577585D01*
X149448176Y-99577585D01*
X151745024Y-99577585D01*
X151745026Y-99577585D01*
X151767938Y-99568094D01*
X151800342Y-99554673D01*
X152070388Y-99284626D01*
X152082619Y-99255096D01*
X152093300Y-99229311D01*
X152093300Y-99207114D01*
X152094612Y-99201559D01*
X152102493Y-99190624D01*
X152107652Y-99178172D01*
X152314972Y-98970852D01*
X152349620Y-98956500D01*
X152772014Y-98956500D01*
X152806662Y-98970852D01*
X152814450Y-98981002D01*
X152819935Y-98990504D01*
X152819938Y-98990508D01*
X152819940Y-98990511D01*
X152875889Y-99046460D01*
X152902260Y-99061685D01*
X152931058Y-99078312D01*
X152944411Y-99086021D01*
X152979878Y-99095524D01*
X153020836Y-99106500D01*
X153020838Y-99106500D01*
X153099964Y-99106500D01*
X153126630Y-99099354D01*
X153176389Y-99086021D01*
X153244911Y-99046460D01*
X153300860Y-98990511D01*
X153340421Y-98921989D01*
X153357276Y-98859086D01*
X153360900Y-98845563D01*
X153360900Y-98766436D01*
X153356533Y-98750140D01*
X153361427Y-98712958D01*
X153391179Y-98690127D01*
X153409418Y-98685240D01*
X153446599Y-98690134D01*
X153469430Y-98719887D01*
X153471100Y-98732570D01*
X153471100Y-98794763D01*
X153491579Y-98871189D01*
X153491579Y-98871191D01*
X153531140Y-98939711D01*
X153587089Y-98995660D01*
X153655611Y-99035221D01*
X153691078Y-99044724D01*
X153732036Y-99055700D01*
X153732038Y-99055700D01*
X153811164Y-99055700D01*
X153845649Y-99046459D01*
X153887589Y-99035221D01*
X153956111Y-98995660D01*
X154012060Y-98939711D01*
X154051621Y-98871189D01*
X154068969Y-98806448D01*
X154072100Y-98794763D01*
X154072100Y-98715636D01*
X154056859Y-98658759D01*
X154051621Y-98639211D01*
X154051620Y-98639209D01*
X154051620Y-98639208D01*
X154012059Y-98570688D01*
X153956111Y-98514740D01*
X153887590Y-98475179D01*
X153812119Y-98454956D01*
X153812118Y-98454956D01*
X153811163Y-98454700D01*
X153811162Y-98454700D01*
X153732038Y-98454700D01*
X153732035Y-98454700D01*
X153676582Y-98469559D01*
X153639400Y-98464664D01*
X153616570Y-98434911D01*
X153614900Y-98422229D01*
X153614900Y-98410836D01*
X154944300Y-98410836D01*
X154944300Y-98489963D01*
X154964779Y-98566389D01*
X154964779Y-98566391D01*
X154997587Y-98623214D01*
X155004340Y-98634911D01*
X155060289Y-98690860D01*
X155089161Y-98707529D01*
X155117029Y-98723619D01*
X155128811Y-98730421D01*
X155164278Y-98739924D01*
X155205236Y-98750900D01*
X155205238Y-98750900D01*
X155284364Y-98750900D01*
X155311030Y-98743754D01*
X155360789Y-98730421D01*
X155429311Y-98690860D01*
X155485260Y-98634911D01*
X155524821Y-98566389D01*
X155531361Y-98541978D01*
X155554190Y-98512227D01*
X155591372Y-98507331D01*
X155603190Y-98512226D01*
X155634011Y-98530021D01*
X155669478Y-98539524D01*
X155710436Y-98550500D01*
X155710438Y-98550500D01*
X155789564Y-98550500D01*
X155816230Y-98543354D01*
X155865989Y-98530021D01*
X155918780Y-98499542D01*
X160088863Y-98499542D01*
X160088863Y-98578670D01*
X160109342Y-98655096D01*
X160109342Y-98655098D01*
X160144296Y-98715638D01*
X160148903Y-98723618D01*
X160204852Y-98779567D01*
X160273374Y-98819128D01*
X160308841Y-98828631D01*
X160349799Y-98839607D01*
X160349801Y-98839607D01*
X160428927Y-98839607D01*
X160455593Y-98832461D01*
X160505352Y-98819128D01*
X160573874Y-98779567D01*
X160629823Y-98723618D01*
X160669384Y-98655096D01*
X160689863Y-98578669D01*
X160689863Y-98499545D01*
X160689863Y-98499542D01*
X160677852Y-98454719D01*
X160669384Y-98423118D01*
X160669383Y-98423116D01*
X160669383Y-98423115D01*
X160639835Y-98371938D01*
X160629823Y-98354596D01*
X160573874Y-98298647D01*
X160547826Y-98283608D01*
X160505353Y-98259086D01*
X160428927Y-98238607D01*
X160428925Y-98238607D01*
X160349801Y-98238607D01*
X160349799Y-98238607D01*
X160273373Y-98259086D01*
X160273371Y-98259086D01*
X160204851Y-98298647D01*
X160204851Y-98298648D01*
X160148904Y-98354595D01*
X160148903Y-98354595D01*
X160109342Y-98423115D01*
X160109342Y-98423117D01*
X160088863Y-98499542D01*
X155918780Y-98499542D01*
X155934511Y-98490460D01*
X155990460Y-98434511D01*
X156030021Y-98365989D01*
X156050500Y-98289562D01*
X156050500Y-98210438D01*
X156050500Y-98210436D01*
X156039766Y-98170379D01*
X156030021Y-98134011D01*
X156030020Y-98134009D01*
X156030020Y-98134008D01*
X155992667Y-98069312D01*
X155990460Y-98065489D01*
X155945605Y-98020634D01*
X156397262Y-98020634D01*
X156397262Y-98099761D01*
X156417741Y-98176187D01*
X156417741Y-98176189D01*
X156448884Y-98230129D01*
X156457302Y-98244709D01*
X156513251Y-98300658D01*
X156581773Y-98340219D01*
X156617240Y-98349722D01*
X156658198Y-98360698D01*
X156658200Y-98360698D01*
X156737326Y-98360698D01*
X156765750Y-98353081D01*
X156813751Y-98340219D01*
X156882273Y-98300658D01*
X156938222Y-98244709D01*
X156977783Y-98176187D01*
X156995820Y-98108873D01*
X156998262Y-98099761D01*
X156998262Y-98032342D01*
X159069623Y-98032342D01*
X159069623Y-98118055D01*
X159091804Y-98200835D01*
X159091805Y-98200839D01*
X159134658Y-98275061D01*
X159195261Y-98335664D01*
X159203149Y-98340218D01*
X159269482Y-98378516D01*
X159269484Y-98378516D01*
X159269485Y-98378517D01*
X159313628Y-98390345D01*
X159352266Y-98400698D01*
X159352267Y-98400699D01*
X159352270Y-98400699D01*
X159437979Y-98400699D01*
X159437979Y-98400698D01*
X159520761Y-98378517D01*
X159594985Y-98335664D01*
X159655588Y-98275061D01*
X159698441Y-98200837D01*
X159720622Y-98118055D01*
X159720623Y-98118055D01*
X159720623Y-98109263D01*
X159734975Y-98074615D01*
X159769623Y-98060263D01*
X160920668Y-98060263D01*
X160955316Y-98074615D01*
X161476844Y-98596143D01*
X161992787Y-99112085D01*
X162007139Y-99146733D01*
X162005470Y-99159414D01*
X161998040Y-99187145D01*
X161998040Y-99272855D01*
X162020221Y-99355635D01*
X162020222Y-99355639D01*
X162053820Y-99413831D01*
X162063075Y-99429861D01*
X162123678Y-99490464D01*
X162149304Y-99505259D01*
X162197899Y-99533316D01*
X162197901Y-99533316D01*
X162197902Y-99533317D01*
X162258649Y-99549594D01*
X162280683Y-99555498D01*
X162280684Y-99555499D01*
X162280687Y-99555499D01*
X162366396Y-99555499D01*
X162366396Y-99555498D01*
X162449178Y-99533317D01*
X162523402Y-99490464D01*
X162584005Y-99429861D01*
X162626858Y-99355637D01*
X162649039Y-99272855D01*
X162649040Y-99272855D01*
X162649040Y-99187143D01*
X162649039Y-99187142D01*
X162638211Y-99146733D01*
X162626858Y-99104361D01*
X162626857Y-99104360D01*
X162626857Y-99104358D01*
X162586940Y-99035221D01*
X162584005Y-99030137D01*
X162523402Y-98969534D01*
X162449180Y-98926681D01*
X162449176Y-98926680D01*
X162366396Y-98904499D01*
X162366393Y-98904499D01*
X162330630Y-98904499D01*
X162295982Y-98890147D01*
X162281630Y-98855499D01*
X162295982Y-98820851D01*
X162317947Y-98808169D01*
X162326720Y-98805818D01*
X162345097Y-98800894D01*
X162353692Y-98795932D01*
X162355718Y-98794762D01*
X162419321Y-98758041D01*
X162479924Y-98697438D01*
X162522777Y-98623214D01*
X162544958Y-98540432D01*
X162544959Y-98540432D01*
X162544959Y-98454720D01*
X162544958Y-98454719D01*
X162539543Y-98434511D01*
X162522777Y-98371938D01*
X162522776Y-98371937D01*
X162522776Y-98371935D01*
X162495608Y-98324880D01*
X162479924Y-98297714D01*
X162419321Y-98237111D01*
X162407228Y-98230129D01*
X162345099Y-98194258D01*
X162345095Y-98194257D01*
X162262315Y-98172076D01*
X162262312Y-98172076D01*
X162176606Y-98172076D01*
X162176603Y-98172076D01*
X162093822Y-98194257D01*
X162093818Y-98194258D01*
X162019596Y-98237111D01*
X162019596Y-98237112D01*
X161958995Y-98297713D01*
X161958994Y-98297713D01*
X161916141Y-98371935D01*
X161916140Y-98371939D01*
X161893959Y-98454719D01*
X161893959Y-98469282D01*
X161879607Y-98503930D01*
X161844959Y-98518282D01*
X161810311Y-98503930D01*
X161088558Y-97782176D01*
X161088556Y-97782175D01*
X161056152Y-97768753D01*
X161033240Y-97759263D01*
X159530623Y-97759263D01*
X159523617Y-97762165D01*
X159492184Y-97764223D01*
X159463657Y-97756580D01*
X159437978Y-97749699D01*
X159437976Y-97749699D01*
X159352270Y-97749699D01*
X159352267Y-97749699D01*
X159269486Y-97771880D01*
X159269482Y-97771881D01*
X159195260Y-97814734D01*
X159195260Y-97814735D01*
X159134659Y-97875336D01*
X159134658Y-97875336D01*
X159091805Y-97949558D01*
X159091804Y-97949562D01*
X159069623Y-98032342D01*
X156998262Y-98032342D01*
X156998262Y-98020634D01*
X156986541Y-97976893D01*
X156977783Y-97944209D01*
X156977782Y-97944207D01*
X156977782Y-97944206D01*
X156938221Y-97875686D01*
X156882273Y-97819738D01*
X156813752Y-97780177D01*
X156737326Y-97759698D01*
X156737324Y-97759698D01*
X156658200Y-97759698D01*
X156658198Y-97759698D01*
X156581772Y-97780177D01*
X156581770Y-97780177D01*
X156513250Y-97819738D01*
X156513250Y-97819739D01*
X156457303Y-97875686D01*
X156457302Y-97875686D01*
X156417741Y-97944206D01*
X156417741Y-97944208D01*
X156397262Y-98020634D01*
X155945605Y-98020634D01*
X155934511Y-98009540D01*
X155920819Y-98001635D01*
X155865990Y-97969979D01*
X155789564Y-97949500D01*
X155789562Y-97949500D01*
X155710438Y-97949500D01*
X155710436Y-97949500D01*
X155634010Y-97969979D01*
X155634008Y-97969979D01*
X155565488Y-98009540D01*
X155565488Y-98009541D01*
X155509541Y-98065488D01*
X155509540Y-98065488D01*
X155469979Y-98134008D01*
X155469979Y-98134010D01*
X155463438Y-98158420D01*
X155440607Y-98188173D01*
X155403425Y-98193067D01*
X155391608Y-98188172D01*
X155360790Y-98170379D01*
X155284364Y-98149900D01*
X155284362Y-98149900D01*
X155205238Y-98149900D01*
X155205236Y-98149900D01*
X155128810Y-98170379D01*
X155128808Y-98170379D01*
X155060288Y-98209940D01*
X155060288Y-98209941D01*
X155004341Y-98265888D01*
X155004340Y-98265888D01*
X154964779Y-98334408D01*
X154964779Y-98334410D01*
X154944300Y-98410836D01*
X153614900Y-98410836D01*
X153614900Y-98360036D01*
X153606243Y-98327734D01*
X153594421Y-98283611D01*
X153594420Y-98283609D01*
X153594420Y-98283608D01*
X153554859Y-98215088D01*
X153498911Y-98159140D01*
X153430390Y-98119579D01*
X153353964Y-98099100D01*
X153353962Y-98099100D01*
X153274838Y-98099100D01*
X153274836Y-98099100D01*
X153198410Y-98119579D01*
X153198408Y-98119579D01*
X153129888Y-98159140D01*
X153129888Y-98159141D01*
X153073941Y-98215088D01*
X153073940Y-98215088D01*
X153034379Y-98283608D01*
X153034379Y-98283610D01*
X153013900Y-98360036D01*
X153013900Y-98439165D01*
X153018266Y-98455460D01*
X153013371Y-98492642D01*
X152983620Y-98515472D01*
X152944408Y-98525979D01*
X152875888Y-98565540D01*
X152875888Y-98565541D01*
X152819942Y-98621486D01*
X152819935Y-98621495D01*
X152814450Y-98630998D01*
X152784698Y-98653830D01*
X152772014Y-98655500D01*
X152237049Y-98655500D01*
X152209391Y-98666955D01*
X152209391Y-98666956D01*
X152181734Y-98678412D01*
X152181732Y-98678413D01*
X152181730Y-98678414D01*
X151930278Y-98929865D01*
X151895630Y-98944217D01*
X151860982Y-98929865D01*
X151853195Y-98919717D01*
X151827659Y-98875488D01*
X151771711Y-98819540D01*
X151703190Y-98779979D01*
X151626764Y-98759500D01*
X151626762Y-98759500D01*
X151547638Y-98759500D01*
X151547636Y-98759500D01*
X151471210Y-98779979D01*
X151471208Y-98779979D01*
X151402688Y-98819540D01*
X151402688Y-98819541D01*
X151346741Y-98875488D01*
X151346740Y-98875488D01*
X151307179Y-98944008D01*
X151307179Y-98944010D01*
X151286700Y-99020436D01*
X151286700Y-99099563D01*
X151307178Y-99175988D01*
X151307179Y-99175989D01*
X151322823Y-99203085D01*
X151327719Y-99240267D01*
X151304889Y-99270020D01*
X151280388Y-99276585D01*
X150570448Y-99276585D01*
X150535800Y-99262233D01*
X150521448Y-99227585D01*
X150535800Y-99192937D01*
X150557765Y-99180255D01*
X150563683Y-99178669D01*
X150581772Y-99173822D01*
X150650294Y-99134261D01*
X150706243Y-99078312D01*
X150745804Y-99009790D01*
X150766283Y-98933363D01*
X150766283Y-98854239D01*
X150763440Y-98843629D01*
X150768335Y-98806448D01*
X150776118Y-98796304D01*
X151500070Y-98072353D01*
X151511291Y-98045263D01*
X151522983Y-98017037D01*
X151522983Y-97045319D01*
X153577237Y-97045319D01*
X153577237Y-97124446D01*
X153597716Y-97200872D01*
X153597716Y-97200874D01*
X153636736Y-97268457D01*
X153637277Y-97269394D01*
X153693226Y-97325343D01*
X153761748Y-97364904D01*
X153786730Y-97371598D01*
X153838173Y-97385383D01*
X153838175Y-97385383D01*
X153917301Y-97385383D01*
X153945363Y-97377863D01*
X153993726Y-97364904D01*
X154062248Y-97325343D01*
X154118197Y-97269394D01*
X154154137Y-97207144D01*
X154157757Y-97200874D01*
X154157757Y-97200873D01*
X154157758Y-97200872D01*
X154175515Y-97134603D01*
X154178237Y-97124446D01*
X154178237Y-97045319D01*
X154166521Y-97001597D01*
X154157758Y-96968894D01*
X154157757Y-96968892D01*
X154157757Y-96968891D01*
X154122564Y-96907936D01*
X154118197Y-96900372D01*
X154062248Y-96844423D01*
X154037308Y-96830024D01*
X153993727Y-96804862D01*
X153917301Y-96784383D01*
X153917299Y-96784383D01*
X153838175Y-96784383D01*
X153838173Y-96784383D01*
X153761747Y-96804862D01*
X153761745Y-96804862D01*
X153693225Y-96844423D01*
X153693225Y-96844424D01*
X153637278Y-96900371D01*
X153637277Y-96900371D01*
X153597716Y-96968891D01*
X153597716Y-96968893D01*
X153577237Y-97045319D01*
X151522983Y-97045319D01*
X151522983Y-96530634D01*
X151897262Y-96530634D01*
X151897262Y-96609761D01*
X151917741Y-96686187D01*
X151917741Y-96686189D01*
X151948583Y-96739607D01*
X151957302Y-96754709D01*
X152013251Y-96810658D01*
X152046794Y-96830024D01*
X152070114Y-96843488D01*
X152081773Y-96850219D01*
X152114510Y-96858991D01*
X152158198Y-96870698D01*
X152158200Y-96870698D01*
X152237326Y-96870698D01*
X152263992Y-96863552D01*
X152313751Y-96850219D01*
X152382273Y-96810658D01*
X152438222Y-96754709D01*
X152477783Y-96686187D01*
X152493933Y-96625911D01*
X152498262Y-96609761D01*
X152498262Y-96530634D01*
X152493110Y-96511408D01*
X152498004Y-96474226D01*
X152527757Y-96451395D01*
X152546773Y-96446299D01*
X152606784Y-96430219D01*
X152675306Y-96390658D01*
X152731255Y-96334709D01*
X152770816Y-96266187D01*
X152791295Y-96189760D01*
X152791295Y-96124836D01*
X154588700Y-96124836D01*
X154588700Y-96203963D01*
X154609179Y-96280389D01*
X154609179Y-96280391D01*
X154648740Y-96348911D01*
X154704689Y-96404860D01*
X154748611Y-96430218D01*
X154769883Y-96442500D01*
X154773211Y-96444421D01*
X154796637Y-96450698D01*
X154849636Y-96464900D01*
X154849638Y-96464900D01*
X154928764Y-96464900D01*
X154955430Y-96457754D01*
X155005189Y-96444421D01*
X155073711Y-96404860D01*
X155129660Y-96348911D01*
X155169221Y-96280389D01*
X155186558Y-96215687D01*
X155189700Y-96203963D01*
X155189700Y-96124836D01*
X155172355Y-96060107D01*
X155170485Y-96053129D01*
X155169817Y-96050634D01*
X155397262Y-96050634D01*
X155397262Y-96129761D01*
X155417741Y-96206187D01*
X155417741Y-96206189D01*
X155449078Y-96260465D01*
X155457302Y-96274709D01*
X155513251Y-96330658D01*
X155581773Y-96370219D01*
X155607576Y-96377133D01*
X155658198Y-96390698D01*
X155658200Y-96390698D01*
X155737326Y-96390698D01*
X155763992Y-96383552D01*
X155813751Y-96370219D01*
X155882273Y-96330658D01*
X155884895Y-96328036D01*
X156112700Y-96328036D01*
X156112700Y-96407163D01*
X156133179Y-96483589D01*
X156133179Y-96483591D01*
X156165321Y-96539261D01*
X156172740Y-96552111D01*
X156228689Y-96608060D01*
X156297211Y-96647621D01*
X156331732Y-96656871D01*
X156373636Y-96668100D01*
X156373638Y-96668100D01*
X156452764Y-96668100D01*
X156479430Y-96660954D01*
X156529189Y-96647621D01*
X156597711Y-96608060D01*
X156653660Y-96552111D01*
X156693221Y-96483589D01*
X156713700Y-96407162D01*
X156713700Y-96328038D01*
X156713700Y-96328036D01*
X156701956Y-96284209D01*
X156693221Y-96251611D01*
X156693220Y-96251609D01*
X156693220Y-96251608D01*
X156665795Y-96204108D01*
X156653660Y-96183089D01*
X156597711Y-96127140D01*
X156585651Y-96120177D01*
X156529190Y-96087579D01*
X156452764Y-96067100D01*
X156452762Y-96067100D01*
X156373638Y-96067100D01*
X156373636Y-96067100D01*
X156297210Y-96087579D01*
X156297208Y-96087579D01*
X156228688Y-96127140D01*
X156228688Y-96127141D01*
X156172741Y-96183088D01*
X156172740Y-96183088D01*
X156133179Y-96251608D01*
X156133179Y-96251610D01*
X156112700Y-96328036D01*
X155884895Y-96328036D01*
X155938222Y-96274709D01*
X155977783Y-96206187D01*
X155993933Y-96145911D01*
X155998262Y-96129761D01*
X155998262Y-96050634D01*
X155985816Y-96004187D01*
X155977783Y-95974209D01*
X155977782Y-95974207D01*
X155977782Y-95974206D01*
X155946611Y-95920218D01*
X155938222Y-95905687D01*
X155882273Y-95849738D01*
X155880361Y-95848634D01*
X155813752Y-95810177D01*
X155737326Y-95789698D01*
X155737324Y-95789698D01*
X155658200Y-95789698D01*
X155658198Y-95789698D01*
X155581772Y-95810177D01*
X155581770Y-95810177D01*
X155513250Y-95849738D01*
X155513250Y-95849739D01*
X155457303Y-95905686D01*
X155457302Y-95905686D01*
X155417741Y-95974206D01*
X155417741Y-95974208D01*
X155397262Y-96050634D01*
X155169817Y-96050634D01*
X155169221Y-96048411D01*
X155169220Y-96048409D01*
X155169220Y-96048408D01*
X155136996Y-95992595D01*
X155129660Y-95979889D01*
X155073711Y-95923940D01*
X155067256Y-95920213D01*
X155005190Y-95884379D01*
X154928764Y-95863900D01*
X154928762Y-95863900D01*
X154849638Y-95863900D01*
X154849636Y-95863900D01*
X154773210Y-95884379D01*
X154773208Y-95884379D01*
X154704688Y-95923940D01*
X154704688Y-95923941D01*
X154648741Y-95979888D01*
X154648740Y-95979888D01*
X154609179Y-96048408D01*
X154609179Y-96048410D01*
X154588700Y-96124836D01*
X152791295Y-96124836D01*
X152791295Y-96110636D01*
X152791295Y-96110634D01*
X152781132Y-96072709D01*
X152770816Y-96034209D01*
X152770815Y-96034207D01*
X152770815Y-96034206D01*
X152736175Y-95974209D01*
X152731255Y-95965687D01*
X152675306Y-95909738D01*
X152606785Y-95870177D01*
X152530359Y-95849698D01*
X152530357Y-95849698D01*
X152451233Y-95849698D01*
X152451231Y-95849698D01*
X152374805Y-95870177D01*
X152374803Y-95870177D01*
X152306283Y-95909738D01*
X152306283Y-95909739D01*
X152250336Y-95965686D01*
X152250335Y-95965686D01*
X152210774Y-96034206D01*
X152210774Y-96034208D01*
X152190295Y-96110634D01*
X152190295Y-96110636D01*
X152190295Y-96189760D01*
X152191442Y-96194040D01*
X152195447Y-96208988D01*
X152190551Y-96246171D01*
X152160799Y-96269000D01*
X152081772Y-96290177D01*
X152081770Y-96290177D01*
X152013250Y-96329738D01*
X152013250Y-96329739D01*
X151957303Y-96385686D01*
X151957302Y-96385686D01*
X151917741Y-96454206D01*
X151917741Y-96454208D01*
X151897262Y-96530634D01*
X151522983Y-96530634D01*
X151522983Y-95270634D01*
X152137262Y-95270634D01*
X152137262Y-95349761D01*
X152157741Y-95426187D01*
X152157741Y-95426189D01*
X152189806Y-95481725D01*
X152197302Y-95494709D01*
X152253251Y-95550658D01*
X152321773Y-95590219D01*
X152357240Y-95599722D01*
X152398198Y-95610698D01*
X152398200Y-95610698D01*
X152477326Y-95610698D01*
X152503992Y-95603552D01*
X152553751Y-95590219D01*
X152622273Y-95550658D01*
X152678222Y-95494709D01*
X152717783Y-95426187D01*
X152735582Y-95359761D01*
X152738262Y-95349761D01*
X152738262Y-95270634D01*
X152724688Y-95219979D01*
X152717783Y-95194209D01*
X152717782Y-95194207D01*
X152717782Y-95194206D01*
X152678221Y-95125686D01*
X152622273Y-95069738D01*
X152553752Y-95030177D01*
X152477326Y-95009698D01*
X152477324Y-95009698D01*
X152398200Y-95009698D01*
X152398198Y-95009698D01*
X152321772Y-95030177D01*
X152321770Y-95030177D01*
X152253250Y-95069738D01*
X152253250Y-95069739D01*
X152197303Y-95125686D01*
X152197302Y-95125686D01*
X152157741Y-95194206D01*
X152157741Y-95194208D01*
X152137262Y-95270634D01*
X151522983Y-95270634D01*
X151522983Y-94510634D01*
X152917262Y-94510634D01*
X152917262Y-94589761D01*
X152937741Y-94666187D01*
X152937741Y-94666189D01*
X152973694Y-94728460D01*
X152977302Y-94734709D01*
X153033251Y-94790658D01*
X153059353Y-94805728D01*
X153101497Y-94830060D01*
X153101773Y-94830219D01*
X153137240Y-94839722D01*
X153178198Y-94850698D01*
X153178200Y-94850698D01*
X153257326Y-94850698D01*
X153283992Y-94843552D01*
X153333751Y-94830219D01*
X153334027Y-94830060D01*
X153359264Y-94815489D01*
X153402273Y-94790658D01*
X153458222Y-94734709D01*
X153497783Y-94666187D01*
X153518262Y-94589760D01*
X153518262Y-94510636D01*
X153518262Y-94510634D01*
X153504811Y-94460438D01*
X153497783Y-94434209D01*
X153497782Y-94434207D01*
X153497782Y-94434206D01*
X153468801Y-94384010D01*
X153458222Y-94365687D01*
X153402273Y-94309738D01*
X153401998Y-94309579D01*
X153333752Y-94270177D01*
X153257326Y-94249698D01*
X153257324Y-94249698D01*
X153178200Y-94249698D01*
X153178198Y-94249698D01*
X153101772Y-94270177D01*
X153101770Y-94270177D01*
X153033250Y-94309738D01*
X153033250Y-94309739D01*
X152977303Y-94365686D01*
X152977302Y-94365686D01*
X152937741Y-94434206D01*
X152937741Y-94434208D01*
X152917262Y-94510634D01*
X151522983Y-94510634D01*
X151522983Y-91105472D01*
X151537335Y-91070824D01*
X151547485Y-91063036D01*
X151556987Y-91057550D01*
X151556986Y-91057550D01*
X151556994Y-91057546D01*
X151612943Y-91001597D01*
X151652504Y-90933075D01*
X151672983Y-90856648D01*
X151672983Y-90777524D01*
X151672983Y-90777522D01*
X151658903Y-90724978D01*
X151652504Y-90701097D01*
X151652503Y-90701095D01*
X151652503Y-90701094D01*
X151612942Y-90632574D01*
X151556994Y-90576626D01*
X151488473Y-90537065D01*
X151412047Y-90516586D01*
X151412045Y-90516586D01*
X151332921Y-90516586D01*
X151332919Y-90516586D01*
X151256493Y-90537065D01*
X151256491Y-90537065D01*
X151187971Y-90576626D01*
X151187971Y-90576627D01*
X151132024Y-90632574D01*
X151132023Y-90632574D01*
X151092462Y-90701094D01*
X151092462Y-90701096D01*
X151071983Y-90777522D01*
X151071983Y-90856649D01*
X151092462Y-90933075D01*
X151092462Y-90933077D01*
X151115256Y-90972556D01*
X151132023Y-91001597D01*
X151187972Y-91057546D01*
X151187975Y-91057547D01*
X151187978Y-91057550D01*
X151197481Y-91063036D01*
X151220313Y-91092788D01*
X151221983Y-91105472D01*
X151221983Y-97904464D01*
X151207631Y-97939112D01*
X150563282Y-98583460D01*
X150528634Y-98597812D01*
X150515953Y-98596143D01*
X150505346Y-98593301D01*
X150505345Y-98593301D01*
X150426221Y-98593301D01*
X150426219Y-98593301D01*
X150349793Y-98613780D01*
X150349791Y-98613780D01*
X150281271Y-98653341D01*
X150281271Y-98653342D01*
X150225325Y-98709287D01*
X150225323Y-98709289D01*
X150225323Y-98709290D01*
X150221659Y-98715636D01*
X150188480Y-98773103D01*
X150158726Y-98795933D01*
X150133363Y-98795932D01*
X150061159Y-98776585D01*
X150061156Y-98776585D01*
X149982032Y-98776585D01*
X149982030Y-98776585D01*
X149905604Y-98797064D01*
X149905602Y-98797064D01*
X149837081Y-98836625D01*
X149834666Y-98838479D01*
X149798439Y-98848177D01*
X149765964Y-98829419D01*
X149759573Y-98818344D01*
X149759020Y-98817008D01*
X149724974Y-98758040D01*
X149719460Y-98748489D01*
X149663511Y-98692540D01*
X149639044Y-98678414D01*
X149594990Y-98652979D01*
X149518564Y-98632500D01*
X149518562Y-98632500D01*
X149439438Y-98632500D01*
X149439436Y-98632500D01*
X149363010Y-98652979D01*
X149352999Y-98658759D01*
X149315817Y-98663653D01*
X149286064Y-98640822D01*
X149279500Y-98616323D01*
X149279500Y-97677136D01*
X149279499Y-97677132D01*
X149273150Y-97661805D01*
X149266900Y-97646715D01*
X149256588Y-97621818D01*
X148590569Y-96955799D01*
X148590568Y-96955798D01*
X148568555Y-96946681D01*
X148553948Y-96940631D01*
X148551903Y-96939784D01*
X148535254Y-96932887D01*
X148535253Y-96932887D01*
X148114637Y-96932887D01*
X148114635Y-96932887D01*
X148095942Y-96940631D01*
X148095940Y-96940632D01*
X148059323Y-96955797D01*
X148059321Y-96955799D01*
X147955261Y-97059858D01*
X147920613Y-97074209D01*
X147907932Y-97072540D01*
X147897325Y-97069698D01*
X147897324Y-97069698D01*
X147818200Y-97069698D01*
X147818198Y-97069698D01*
X147741772Y-97090177D01*
X147741770Y-97090177D01*
X147673250Y-97129738D01*
X147673250Y-97129739D01*
X147617303Y-97185686D01*
X147617302Y-97185686D01*
X147577741Y-97254206D01*
X147577741Y-97254208D01*
X147557262Y-97330634D01*
X147557262Y-97409761D01*
X147577741Y-97486187D01*
X147577741Y-97486189D01*
X147612168Y-97545817D01*
X147617302Y-97554709D01*
X147673251Y-97610658D01*
X147714909Y-97634709D01*
X147740979Y-97649761D01*
X147741773Y-97650219D01*
X147783551Y-97661413D01*
X147808772Y-97668172D01*
X147838524Y-97691002D01*
X147843419Y-97728185D01*
X147830737Y-97750150D01*
X146510543Y-99070346D01*
X146475895Y-99084698D01*
X145297826Y-99084698D01*
X145270168Y-99096153D01*
X145270168Y-99096154D01*
X145245191Y-99106500D01*
X145242509Y-99107611D01*
X145242507Y-99107612D01*
X145075261Y-99274857D01*
X145040613Y-99289209D01*
X145027932Y-99287540D01*
X145017325Y-99284698D01*
X145017324Y-99284698D01*
X144938200Y-99284698D01*
X144938198Y-99284698D01*
X144861772Y-99305177D01*
X144861770Y-99305177D01*
X144793250Y-99344738D01*
X144793250Y-99344739D01*
X144742509Y-99395480D01*
X144707861Y-99409832D01*
X144673213Y-99395480D01*
X144662273Y-99384540D01*
X144593753Y-99344979D01*
X144593750Y-99344978D01*
X144581156Y-99341604D01*
X144551403Y-99318774D01*
X144546508Y-99281592D01*
X144559188Y-99259628D01*
X144936031Y-98882784D01*
X144970679Y-98868433D01*
X146472801Y-98868433D01*
X146472803Y-98868433D01*
X146490524Y-98861092D01*
X146495713Y-98858943D01*
X146495715Y-98858942D01*
X146528119Y-98845521D01*
X146657653Y-98715986D01*
X146787186Y-98586454D01*
X146787186Y-98586453D01*
X146787188Y-98586451D01*
X146802079Y-98550500D01*
X146810100Y-98531136D01*
X146810100Y-97743297D01*
X146824452Y-97708649D01*
X146827046Y-97706236D01*
X146830570Y-97703187D01*
X146852273Y-97690658D01*
X146898461Y-97644469D01*
X146899801Y-97643311D01*
X146916043Y-97637921D01*
X146931855Y-97631372D01*
X146933601Y-97632095D01*
X146935396Y-97631500D01*
X146950694Y-97639175D01*
X146964758Y-97645001D01*
X146964945Y-97644759D01*
X146965850Y-97645453D01*
X146966503Y-97645724D01*
X146967494Y-97646715D01*
X146993631Y-97661805D01*
X147032243Y-97684098D01*
X147036016Y-97686276D01*
X147071483Y-97695779D01*
X147112441Y-97706755D01*
X147112443Y-97706755D01*
X147191569Y-97706755D01*
X147218235Y-97699609D01*
X147267994Y-97686276D01*
X147271767Y-97684098D01*
X147283832Y-97677132D01*
X147336516Y-97646715D01*
X147392465Y-97590766D01*
X147432026Y-97522244D01*
X147452505Y-97445817D01*
X147452505Y-97366693D01*
X147452505Y-97366691D01*
X147439410Y-97317823D01*
X147432026Y-97290266D01*
X147432025Y-97290264D01*
X147432025Y-97290263D01*
X147406074Y-97245315D01*
X147392465Y-97221744D01*
X147336516Y-97165795D01*
X147333937Y-97164306D01*
X147267995Y-97126234D01*
X147191569Y-97105755D01*
X147191567Y-97105755D01*
X147112443Y-97105755D01*
X147112441Y-97105755D01*
X147036015Y-97126234D01*
X147036013Y-97126234D01*
X146967493Y-97165795D01*
X146967493Y-97165796D01*
X146922560Y-97210729D01*
X146887912Y-97225081D01*
X146855008Y-97211451D01*
X146854822Y-97211694D01*
X146853916Y-97210999D01*
X146853264Y-97210729D01*
X146852273Y-97209738D01*
X146783752Y-97170177D01*
X146707326Y-97149698D01*
X146707324Y-97149698D01*
X146628200Y-97149698D01*
X146628198Y-97149698D01*
X146551772Y-97170177D01*
X146551770Y-97170177D01*
X146483250Y-97209738D01*
X146483250Y-97209739D01*
X146427305Y-97265683D01*
X146427300Y-97265690D01*
X146419209Y-97279703D01*
X146389454Y-97302531D01*
X146352275Y-97297635D01*
X146321602Y-97279926D01*
X146245176Y-97259447D01*
X146245174Y-97259447D01*
X146166050Y-97259447D01*
X146166048Y-97259447D01*
X146089622Y-97279926D01*
X146089620Y-97279926D01*
X146021100Y-97319487D01*
X146021100Y-97319488D01*
X145965153Y-97375435D01*
X145965152Y-97375435D01*
X145925591Y-97443955D01*
X145925591Y-97443957D01*
X145905112Y-97520383D01*
X145905112Y-97599510D01*
X145907954Y-97610119D01*
X145907089Y-97616682D01*
X145909623Y-97622799D01*
X145904727Y-97634617D01*
X145903057Y-97647301D01*
X145895271Y-97657447D01*
X145834607Y-97718111D01*
X145799959Y-97732463D01*
X145765311Y-97718111D01*
X145750959Y-97683463D01*
X145752628Y-97670785D01*
X145758262Y-97649760D01*
X145758262Y-97570636D01*
X145758262Y-97570634D01*
X145748045Y-97532506D01*
X145737783Y-97494209D01*
X145737782Y-97494207D01*
X145737782Y-97494206D01*
X145712179Y-97449862D01*
X145698222Y-97425687D01*
X145642273Y-97369738D01*
X145642271Y-97369737D01*
X145639726Y-97367784D01*
X145640939Y-97366201D01*
X145621937Y-97341383D01*
X145626872Y-97304206D01*
X145644777Y-97286319D01*
X145675711Y-97268460D01*
X145731660Y-97212511D01*
X145771221Y-97143989D01*
X145789434Y-97076018D01*
X145791700Y-97067563D01*
X145791700Y-96988436D01*
X145778890Y-96940631D01*
X145771221Y-96912011D01*
X145771220Y-96912009D01*
X145771220Y-96912008D01*
X145740609Y-96858989D01*
X145731660Y-96843489D01*
X145675711Y-96787540D01*
X145646197Y-96770500D01*
X145607190Y-96747979D01*
X145530764Y-96727500D01*
X145530762Y-96727500D01*
X145451638Y-96727500D01*
X145451636Y-96727500D01*
X145375210Y-96747979D01*
X145375208Y-96747979D01*
X145306688Y-96787540D01*
X145306688Y-96787541D01*
X145250741Y-96843488D01*
X145250740Y-96843488D01*
X145211179Y-96912008D01*
X145211179Y-96912010D01*
X145190700Y-96988436D01*
X145190700Y-97067563D01*
X145211179Y-97143989D01*
X145211179Y-97143990D01*
X145221759Y-97162315D01*
X145249522Y-97210401D01*
X145254418Y-97247582D01*
X145231587Y-97277335D01*
X145207087Y-97283900D01*
X143687034Y-97283900D01*
X143652386Y-97269548D01*
X143638034Y-97234900D01*
X143641127Y-97219344D01*
X143640917Y-97219288D01*
X143662227Y-97139761D01*
X143662227Y-97078965D01*
X143676579Y-97044317D01*
X143711227Y-97029965D01*
X143723906Y-97031634D01*
X143744981Y-97037281D01*
X143768186Y-97043500D01*
X143768188Y-97043500D01*
X143847314Y-97043500D01*
X143873980Y-97036354D01*
X143923739Y-97023021D01*
X143992261Y-96983460D01*
X144048210Y-96927511D01*
X144082470Y-96868170D01*
X144087770Y-96858991D01*
X144087770Y-96858990D01*
X144087771Y-96858989D01*
X144108250Y-96782562D01*
X144108250Y-96703438D01*
X144108250Y-96703436D01*
X144098344Y-96666469D01*
X144087771Y-96627011D01*
X144087770Y-96627009D01*
X144087770Y-96627008D01*
X144059192Y-96577511D01*
X144048210Y-96558489D01*
X143992261Y-96502540D01*
X143987272Y-96499659D01*
X143923740Y-96462979D01*
X143914250Y-96460436D01*
X146199500Y-96460436D01*
X146199500Y-96539563D01*
X146219979Y-96615989D01*
X146219979Y-96615991D01*
X146250065Y-96668100D01*
X146259540Y-96684511D01*
X146315489Y-96740460D01*
X146384011Y-96780021D01*
X146419478Y-96789524D01*
X146460436Y-96800500D01*
X146460438Y-96800500D01*
X146539564Y-96800500D01*
X146573478Y-96791412D01*
X146615989Y-96780021D01*
X146684511Y-96740460D01*
X146740460Y-96684511D01*
X146780021Y-96615989D01*
X146800500Y-96539562D01*
X146800500Y-96460438D01*
X146800500Y-96460436D01*
X146791843Y-96428134D01*
X146780021Y-96384011D01*
X146780020Y-96384009D01*
X146780020Y-96384008D01*
X146751557Y-96334709D01*
X146740460Y-96315489D01*
X146684511Y-96259540D01*
X146670776Y-96251610D01*
X146615990Y-96219979D01*
X146539564Y-96199500D01*
X146539562Y-96199500D01*
X146460438Y-96199500D01*
X146460436Y-96199500D01*
X146384010Y-96219979D01*
X146384008Y-96219979D01*
X146315488Y-96259540D01*
X146315488Y-96259541D01*
X146259541Y-96315488D01*
X146259540Y-96315488D01*
X146219979Y-96384008D01*
X146219979Y-96384010D01*
X146199500Y-96460436D01*
X143914250Y-96460436D01*
X143847314Y-96442500D01*
X143847312Y-96442500D01*
X143768188Y-96442500D01*
X143768186Y-96442500D01*
X143691760Y-96462979D01*
X143691758Y-96462979D01*
X143623238Y-96502540D01*
X143623238Y-96502541D01*
X143567291Y-96558488D01*
X143567290Y-96558488D01*
X143527729Y-96627008D01*
X143527729Y-96627010D01*
X143507250Y-96703436D01*
X143507250Y-96764232D01*
X143492898Y-96798880D01*
X143458250Y-96813232D01*
X143445568Y-96811562D01*
X143401292Y-96799698D01*
X143401289Y-96799698D01*
X143322165Y-96799698D01*
X143322163Y-96799698D01*
X143245737Y-96820177D01*
X143245735Y-96820177D01*
X143177215Y-96859738D01*
X143177215Y-96859739D01*
X143121268Y-96915686D01*
X143121267Y-96915686D01*
X143081706Y-96984206D01*
X143081706Y-96984208D01*
X143061227Y-97060634D01*
X143061227Y-97139761D01*
X143081706Y-97216187D01*
X143081706Y-97216189D01*
X143120800Y-97283900D01*
X143121267Y-97284709D01*
X143177216Y-97340658D01*
X143190983Y-97348606D01*
X143213813Y-97378360D01*
X143208917Y-97415542D01*
X143201130Y-97425689D01*
X141316762Y-99310058D01*
X141316460Y-99309756D01*
X141304594Y-99320868D01*
X141263254Y-99344736D01*
X141263247Y-99344741D01*
X141207303Y-99400686D01*
X141207302Y-99400686D01*
X141200516Y-99412441D01*
X141170763Y-99435272D01*
X141133581Y-99430376D01*
X141115646Y-99412441D01*
X141108859Y-99400686D01*
X141052911Y-99344738D01*
X140984390Y-99305177D01*
X140907964Y-99284698D01*
X140907962Y-99284698D01*
X140828838Y-99284698D01*
X140828836Y-99284698D01*
X140752410Y-99305177D01*
X140752408Y-99305177D01*
X140683888Y-99344738D01*
X140683888Y-99344739D01*
X140627941Y-99400686D01*
X140627940Y-99400686D01*
X140588379Y-99469206D01*
X140588379Y-99469208D01*
X140567900Y-99545634D01*
X140567900Y-99624761D01*
X140588378Y-99701186D01*
X140588379Y-99701187D01*
X140602705Y-99726000D01*
X140607601Y-99763181D01*
X140584771Y-99792935D01*
X140560270Y-99799500D01*
X136611712Y-99799500D01*
X136577064Y-99785148D01*
X136562712Y-99750500D01*
X136577064Y-99715852D01*
X136598372Y-99694544D01*
X136598373Y-99694543D01*
X136637934Y-99626021D01*
X136654084Y-99565745D01*
X136658413Y-99549595D01*
X136658413Y-99470468D01*
X136649717Y-99438016D01*
X136637934Y-99394043D01*
X136637933Y-99394041D01*
X136637933Y-99394040D01*
X136598372Y-99325520D01*
X136542424Y-99269572D01*
X136473903Y-99230011D01*
X136397477Y-99209532D01*
X136397475Y-99209532D01*
X136318351Y-99209532D01*
X136318349Y-99209532D01*
X136241923Y-99230011D01*
X136241921Y-99230011D01*
X136173401Y-99269572D01*
X136173401Y-99269573D01*
X136117454Y-99325520D01*
X136117453Y-99325520D01*
X136077892Y-99394040D01*
X136077892Y-99394042D01*
X136057413Y-99470468D01*
X136057413Y-99549595D01*
X136077892Y-99626021D01*
X136077892Y-99626023D01*
X136117453Y-99694543D01*
X136138762Y-99715852D01*
X136153114Y-99750500D01*
X136138762Y-99785148D01*
X136104114Y-99799500D01*
X133749500Y-99799500D01*
X133714852Y-99785148D01*
X133700500Y-99750500D01*
X133700500Y-97496436D01*
X135741900Y-97496436D01*
X135741900Y-97575563D01*
X135762379Y-97651989D01*
X135762379Y-97651991D01*
X135797839Y-97713408D01*
X135801940Y-97720511D01*
X135857889Y-97776460D01*
X135898187Y-97799726D01*
X135924183Y-97814735D01*
X135926411Y-97816021D01*
X135958006Y-97824487D01*
X136002836Y-97836500D01*
X136002838Y-97836500D01*
X136081964Y-97836500D01*
X136108630Y-97829354D01*
X136158389Y-97816021D01*
X136160617Y-97814735D01*
X136185435Y-97800406D01*
X136226911Y-97776460D01*
X136282860Y-97720511D01*
X136307719Y-97677454D01*
X141223211Y-97677454D01*
X141223211Y-97756581D01*
X141243690Y-97833007D01*
X141243690Y-97833009D01*
X141276721Y-97890219D01*
X141283251Y-97901529D01*
X141339200Y-97957478D01*
X141407722Y-97997039D01*
X141443189Y-98006542D01*
X141484147Y-98017518D01*
X141484149Y-98017518D01*
X141563275Y-98017518D01*
X141593043Y-98009541D01*
X141639700Y-97997039D01*
X141708222Y-97957478D01*
X141764171Y-97901529D01*
X141799714Y-97839967D01*
X141803731Y-97833009D01*
X141803731Y-97833008D01*
X141803732Y-97833007D01*
X141822163Y-97764224D01*
X141824211Y-97756581D01*
X141824211Y-97677454D01*
X141814530Y-97641326D01*
X141803732Y-97601029D01*
X141803731Y-97601027D01*
X141803731Y-97601026D01*
X141771855Y-97545816D01*
X141764171Y-97532507D01*
X141708222Y-97476558D01*
X141661985Y-97449863D01*
X141639701Y-97436997D01*
X141563275Y-97416518D01*
X141563273Y-97416518D01*
X141484149Y-97416518D01*
X141484147Y-97416518D01*
X141407721Y-97436997D01*
X141407719Y-97436997D01*
X141339199Y-97476558D01*
X141339199Y-97476559D01*
X141283252Y-97532506D01*
X141283251Y-97532506D01*
X141243690Y-97601026D01*
X141243690Y-97601028D01*
X141223211Y-97677454D01*
X136307719Y-97677454D01*
X136322421Y-97651989D01*
X136342900Y-97575562D01*
X136342900Y-97496438D01*
X136342900Y-97496436D01*
X136330420Y-97449863D01*
X136322421Y-97420011D01*
X136322420Y-97420009D01*
X136322420Y-97420008D01*
X136293666Y-97370205D01*
X136282860Y-97351489D01*
X136226911Y-97295540D01*
X136217776Y-97290266D01*
X136158390Y-97255979D01*
X136081964Y-97235500D01*
X136081962Y-97235500D01*
X136002838Y-97235500D01*
X136002836Y-97235500D01*
X135926410Y-97255979D01*
X135926408Y-97255979D01*
X135857888Y-97295540D01*
X135857888Y-97295541D01*
X135801941Y-97351488D01*
X135801940Y-97351488D01*
X135762379Y-97420008D01*
X135762379Y-97420010D01*
X135741900Y-97496436D01*
X133700500Y-97496436D01*
X133700500Y-97002389D01*
X133701389Y-96964882D01*
X133700500Y-96962583D01*
X133700500Y-96960118D01*
X133700500Y-96958464D01*
X133700000Y-96952673D01*
X133700000Y-96360634D01*
X134487262Y-96360634D01*
X134487262Y-96439761D01*
X134507741Y-96516187D01*
X134507741Y-96516189D01*
X134543146Y-96577511D01*
X134547302Y-96584709D01*
X134603251Y-96640658D01*
X134671773Y-96680219D01*
X134703775Y-96688794D01*
X134748198Y-96700698D01*
X134748200Y-96700698D01*
X134827326Y-96700698D01*
X134856071Y-96692995D01*
X134903751Y-96680219D01*
X134972273Y-96640658D01*
X134978171Y-96634760D01*
X136324918Y-96634760D01*
X136324918Y-96733635D01*
X136350507Y-96829134D01*
X136350508Y-96829138D01*
X136391636Y-96900372D01*
X136399943Y-96914760D01*
X136469856Y-96984673D01*
X136489413Y-96995964D01*
X136555477Y-97034107D01*
X136555479Y-97034107D01*
X136555480Y-97034108D01*
X136579355Y-97040505D01*
X136650980Y-97059698D01*
X136650983Y-97059698D01*
X136749855Y-97059698D01*
X136797604Y-97046903D01*
X136845356Y-97034108D01*
X136849640Y-97031635D01*
X136919566Y-96991263D01*
X136944066Y-96984698D01*
X137201317Y-96984698D01*
X137227983Y-96977552D01*
X137277742Y-96964219D01*
X137282672Y-96961373D01*
X137308117Y-96946682D01*
X137346264Y-96924658D01*
X137402213Y-96868709D01*
X137917485Y-96353436D01*
X142828500Y-96353436D01*
X142828500Y-96432563D01*
X142848979Y-96508989D01*
X142848979Y-96508991D01*
X142888426Y-96577314D01*
X142888540Y-96577511D01*
X142944489Y-96633460D01*
X142969015Y-96647620D01*
X143004487Y-96668100D01*
X143013011Y-96673021D01*
X143037728Y-96679644D01*
X143089436Y-96693500D01*
X143089438Y-96693500D01*
X143168564Y-96693500D01*
X143195854Y-96686187D01*
X143244989Y-96673021D01*
X143313511Y-96633460D01*
X143369460Y-96577511D01*
X143404865Y-96516187D01*
X143409020Y-96508991D01*
X143409020Y-96508990D01*
X143409021Y-96508989D01*
X143429500Y-96432562D01*
X143429500Y-96353438D01*
X143429500Y-96353436D01*
X143419541Y-96316272D01*
X143424435Y-96279090D01*
X143454186Y-96256260D01*
X143473751Y-96251018D01*
X143542273Y-96211457D01*
X143598222Y-96155508D01*
X143637783Y-96086986D01*
X143658262Y-96010559D01*
X143658262Y-95962648D01*
X143659178Y-95960436D01*
X147199500Y-95960436D01*
X147199500Y-96039563D01*
X147219979Y-96115989D01*
X147219979Y-96115991D01*
X147258718Y-96183088D01*
X147259540Y-96184511D01*
X147315489Y-96240460D01*
X147350137Y-96260464D01*
X147378797Y-96277011D01*
X147384011Y-96280021D01*
X147419054Y-96289411D01*
X147460436Y-96300500D01*
X147460438Y-96300500D01*
X147539564Y-96300500D01*
X147567190Y-96293097D01*
X147615989Y-96280021D01*
X147621203Y-96277011D01*
X147633869Y-96269698D01*
X147684511Y-96240460D01*
X147740460Y-96184511D01*
X147780021Y-96115989D01*
X147792606Y-96069021D01*
X149067505Y-96069021D01*
X149067505Y-96148148D01*
X149087984Y-96224574D01*
X149087984Y-96224576D01*
X149122414Y-96284209D01*
X149127545Y-96293096D01*
X149183494Y-96349045D01*
X149252016Y-96388606D01*
X149287483Y-96398109D01*
X149328441Y-96409085D01*
X149328443Y-96409085D01*
X149407569Y-96409085D01*
X149434235Y-96401939D01*
X149483994Y-96388606D01*
X149552516Y-96349045D01*
X149608465Y-96293096D01*
X149648026Y-96224574D01*
X149668505Y-96148147D01*
X149668505Y-96069023D01*
X149668505Y-96069021D01*
X149659176Y-96034206D01*
X149648026Y-95992596D01*
X149648025Y-95992594D01*
X149648025Y-95992593D01*
X149612715Y-95931435D01*
X149608465Y-95924074D01*
X149552516Y-95868125D01*
X149546606Y-95864713D01*
X149483995Y-95828564D01*
X149407569Y-95808085D01*
X149407567Y-95808085D01*
X149328443Y-95808085D01*
X149328441Y-95808085D01*
X149252015Y-95828564D01*
X149252013Y-95828564D01*
X149183493Y-95868125D01*
X149183493Y-95868126D01*
X149127546Y-95924073D01*
X149127545Y-95924073D01*
X149087984Y-95992593D01*
X149087984Y-95992595D01*
X149067505Y-96069021D01*
X147792606Y-96069021D01*
X147800500Y-96039562D01*
X147800500Y-95960438D01*
X147800500Y-95960436D01*
X147789723Y-95920218D01*
X147780021Y-95884011D01*
X147780020Y-95884009D01*
X147780020Y-95884008D01*
X147746239Y-95825499D01*
X147740460Y-95815489D01*
X147684511Y-95759540D01*
X147678272Y-95755938D01*
X147615990Y-95719979D01*
X147539564Y-95699500D01*
X147539562Y-95699500D01*
X147460438Y-95699500D01*
X147460436Y-95699500D01*
X147384010Y-95719979D01*
X147384008Y-95719979D01*
X147315488Y-95759540D01*
X147315488Y-95759541D01*
X147259541Y-95815488D01*
X147259540Y-95815488D01*
X147219979Y-95884008D01*
X147219979Y-95884010D01*
X147199500Y-95960436D01*
X143659178Y-95960436D01*
X143672614Y-95928000D01*
X143707262Y-95913648D01*
X143728642Y-95919377D01*
X143728803Y-95918989D01*
X143731751Y-95920210D01*
X143731762Y-95920213D01*
X143731771Y-95920218D01*
X143731773Y-95920219D01*
X143767240Y-95929722D01*
X143808198Y-95940698D01*
X143808200Y-95940698D01*
X143887326Y-95940698D01*
X143921893Y-95931435D01*
X143963751Y-95920219D01*
X143975133Y-95913648D01*
X143988923Y-95905686D01*
X144032273Y-95880658D01*
X144088222Y-95824709D01*
X144127783Y-95756187D01*
X144144927Y-95692206D01*
X144148262Y-95679761D01*
X144148262Y-95600634D01*
X144127783Y-95524209D01*
X144116525Y-95504710D01*
X144090964Y-95460436D01*
X148199500Y-95460436D01*
X148199500Y-95539563D01*
X148219979Y-95615989D01*
X148219979Y-95615991D01*
X148239326Y-95649500D01*
X148259540Y-95684511D01*
X148315489Y-95740460D01*
X148384011Y-95780021D01*
X148419478Y-95789524D01*
X148460436Y-95800500D01*
X148460438Y-95800500D01*
X148539564Y-95800500D01*
X148566230Y-95793354D01*
X148615989Y-95780021D01*
X148684511Y-95740460D01*
X148740460Y-95684511D01*
X148780021Y-95615989D01*
X148797527Y-95550657D01*
X148800500Y-95539563D01*
X148800500Y-95460436D01*
X148784235Y-95399738D01*
X148780021Y-95384011D01*
X148780020Y-95384009D01*
X148780020Y-95384008D01*
X148740459Y-95315488D01*
X148684511Y-95259540D01*
X148615990Y-95219979D01*
X148539564Y-95199500D01*
X148539562Y-95199500D01*
X148460438Y-95199500D01*
X148460436Y-95199500D01*
X148384010Y-95219979D01*
X148384008Y-95219979D01*
X148315488Y-95259540D01*
X148315488Y-95259541D01*
X148259541Y-95315488D01*
X148259540Y-95315488D01*
X148219979Y-95384008D01*
X148219979Y-95384010D01*
X148199500Y-95460436D01*
X144090964Y-95460436D01*
X144088222Y-95455687D01*
X144032273Y-95399738D01*
X144005033Y-95384011D01*
X143963752Y-95360177D01*
X143887326Y-95339698D01*
X143887324Y-95339698D01*
X143808200Y-95339698D01*
X143808198Y-95339698D01*
X143731772Y-95360177D01*
X143731770Y-95360177D01*
X143663250Y-95399738D01*
X143663250Y-95399739D01*
X143607303Y-95455686D01*
X143607302Y-95455686D01*
X143567741Y-95524206D01*
X143567741Y-95524208D01*
X143547262Y-95600634D01*
X143547262Y-95648546D01*
X143532910Y-95683194D01*
X143498262Y-95697546D01*
X143476880Y-95691820D01*
X143476721Y-95692206D01*
X143473792Y-95690993D01*
X143473773Y-95690988D01*
X143473755Y-95690977D01*
X143473751Y-95690976D01*
X143397326Y-95670497D01*
X143397324Y-95670497D01*
X143318200Y-95670497D01*
X143318198Y-95670497D01*
X143241772Y-95690976D01*
X143241770Y-95690976D01*
X143173250Y-95730537D01*
X143173250Y-95730538D01*
X143117303Y-95786485D01*
X143117302Y-95786485D01*
X143077741Y-95855005D01*
X143077741Y-95855007D01*
X143057262Y-95931433D01*
X143057262Y-96010560D01*
X143067220Y-96047723D01*
X143062326Y-96084906D01*
X143032574Y-96107736D01*
X143013011Y-96112978D01*
X143013008Y-96112979D01*
X142944488Y-96152540D01*
X142944488Y-96152541D01*
X142888541Y-96208488D01*
X142888540Y-96208488D01*
X142848979Y-96277008D01*
X142848979Y-96277010D01*
X142828500Y-96353436D01*
X137917485Y-96353436D01*
X138651016Y-95619904D01*
X138685663Y-95605553D01*
X138720311Y-95619905D01*
X138728098Y-95630052D01*
X138759540Y-95684511D01*
X138815489Y-95740460D01*
X138884011Y-95780021D01*
X138919478Y-95789524D01*
X138960436Y-95800500D01*
X138960438Y-95800500D01*
X139039564Y-95800500D01*
X139066230Y-95793354D01*
X139115989Y-95780021D01*
X139184511Y-95740460D01*
X139240460Y-95684511D01*
X139280021Y-95615989D01*
X139297527Y-95550657D01*
X139300500Y-95539563D01*
X139300500Y-95460436D01*
X139284235Y-95399738D01*
X139280021Y-95384011D01*
X139280020Y-95384009D01*
X139280020Y-95384008D01*
X139240459Y-95315488D01*
X139205605Y-95280634D01*
X142580526Y-95280634D01*
X142580526Y-95359761D01*
X142601005Y-95436187D01*
X142601005Y-95436189D01*
X142634793Y-95494710D01*
X142640566Y-95504709D01*
X142696515Y-95560658D01*
X142765037Y-95600219D01*
X142794736Y-95608177D01*
X142841462Y-95620698D01*
X142841464Y-95620698D01*
X142920590Y-95620698D01*
X142947256Y-95613552D01*
X142997015Y-95600219D01*
X143065537Y-95560658D01*
X143121486Y-95504709D01*
X143161047Y-95436187D01*
X143177614Y-95374359D01*
X143181526Y-95359761D01*
X143181526Y-95280634D01*
X143170513Y-95239535D01*
X143161047Y-95204209D01*
X143161046Y-95204207D01*
X143161046Y-95204206D01*
X143121485Y-95135686D01*
X143065537Y-95079738D01*
X142997016Y-95040177D01*
X142920590Y-95019698D01*
X142920588Y-95019698D01*
X142841464Y-95019698D01*
X142841462Y-95019698D01*
X142765036Y-95040177D01*
X142765034Y-95040177D01*
X142696514Y-95079738D01*
X142696514Y-95079739D01*
X142640567Y-95135686D01*
X142640566Y-95135686D01*
X142601005Y-95204206D01*
X142601005Y-95204208D01*
X142580526Y-95280634D01*
X139205605Y-95280634D01*
X139184511Y-95259540D01*
X139115990Y-95219979D01*
X139104820Y-95216986D01*
X139075067Y-95194155D01*
X139070173Y-95156973D01*
X139082853Y-95135010D01*
X139769427Y-94448436D01*
X140447262Y-94448436D01*
X140447262Y-94527563D01*
X140467741Y-94603989D01*
X140467741Y-94603991D01*
X140493081Y-94647880D01*
X140507302Y-94672511D01*
X140563251Y-94728460D01*
X140584034Y-94740459D01*
X140618685Y-94760465D01*
X140631773Y-94768021D01*
X140655184Y-94774294D01*
X140708198Y-94788500D01*
X140708200Y-94788500D01*
X140787326Y-94788500D01*
X140818971Y-94780020D01*
X140863751Y-94768021D01*
X140932273Y-94728460D01*
X140988222Y-94672511D01*
X141027783Y-94603989D01*
X141048262Y-94527562D01*
X141048262Y-94448438D01*
X141048262Y-94448436D01*
X141036646Y-94405088D01*
X141027783Y-94372011D01*
X141027782Y-94372009D01*
X141027782Y-94372008D01*
X140995150Y-94315489D01*
X140988222Y-94303489D01*
X140932273Y-94247540D01*
X140924887Y-94243276D01*
X140924887Y-94243275D01*
X140863752Y-94207979D01*
X140849097Y-94204052D01*
X142655151Y-94204052D01*
X142655151Y-94283179D01*
X142675630Y-94359605D01*
X142675630Y-94359607D01*
X142704563Y-94409719D01*
X142715191Y-94428127D01*
X142771140Y-94484076D01*
X142839662Y-94523637D01*
X142856210Y-94528071D01*
X142916087Y-94544116D01*
X142916089Y-94544116D01*
X142995215Y-94544116D01*
X143020408Y-94537364D01*
X143059051Y-94527010D01*
X143096231Y-94531904D01*
X143119062Y-94561657D01*
X143119263Y-94562663D01*
X143140441Y-94641697D01*
X143140441Y-94641699D01*
X143175510Y-94702438D01*
X143180002Y-94710219D01*
X143235951Y-94766168D01*
X143278369Y-94790658D01*
X143304469Y-94805727D01*
X143304473Y-94805729D01*
X143339940Y-94815232D01*
X143380898Y-94826208D01*
X143380900Y-94826208D01*
X143460026Y-94826208D01*
X143486692Y-94819062D01*
X143536451Y-94805729D01*
X143536454Y-94805727D01*
X143536455Y-94805727D01*
X143554679Y-94795205D01*
X143591861Y-94790308D01*
X143621614Y-94813138D01*
X143626511Y-94850320D01*
X143626510Y-94850321D01*
X143619144Y-94877810D01*
X143619144Y-94956939D01*
X143639623Y-95033365D01*
X143639623Y-95033367D01*
X143660623Y-95069739D01*
X143679184Y-95101887D01*
X143735133Y-95157836D01*
X143763996Y-95174500D01*
X143802416Y-95196682D01*
X143803655Y-95197397D01*
X143839122Y-95206900D01*
X143880080Y-95217876D01*
X143880082Y-95217876D01*
X143959208Y-95217876D01*
X143989267Y-95209821D01*
X144035633Y-95197397D01*
X144036872Y-95196682D01*
X144044814Y-95192096D01*
X144104155Y-95157836D01*
X144160104Y-95101887D01*
X144199665Y-95033365D01*
X144219207Y-94960436D01*
X146699500Y-94960436D01*
X146699500Y-95039563D01*
X146719979Y-95115989D01*
X146719979Y-95115991D01*
X146744139Y-95157836D01*
X146759540Y-95184511D01*
X146815489Y-95240460D01*
X146884011Y-95280021D01*
X146919478Y-95289524D01*
X146960436Y-95300500D01*
X146960438Y-95300500D01*
X147039564Y-95300500D01*
X147066230Y-95293354D01*
X147115989Y-95280021D01*
X147184511Y-95240460D01*
X147240460Y-95184511D01*
X147280021Y-95115989D01*
X147300500Y-95039562D01*
X147300500Y-94960438D01*
X147300500Y-94960436D01*
X147289664Y-94920000D01*
X147280021Y-94884011D01*
X147280020Y-94884009D01*
X147280020Y-94884008D01*
X147254939Y-94840568D01*
X147240460Y-94815489D01*
X147184511Y-94759540D01*
X147115990Y-94719979D01*
X147039564Y-94699500D01*
X147039562Y-94699500D01*
X146960438Y-94699500D01*
X146960436Y-94699500D01*
X146884010Y-94719979D01*
X146884008Y-94719979D01*
X146815488Y-94759540D01*
X146815488Y-94759541D01*
X146759541Y-94815488D01*
X146759540Y-94815488D01*
X146719979Y-94884008D01*
X146719979Y-94884010D01*
X146699500Y-94960436D01*
X144219207Y-94960436D01*
X144220144Y-94956938D01*
X144220144Y-94877814D01*
X144220144Y-94877812D01*
X144208644Y-94834896D01*
X144199665Y-94801387D01*
X144199664Y-94801385D01*
X144199664Y-94801384D01*
X144161169Y-94734710D01*
X144160104Y-94732865D01*
X144104155Y-94676916D01*
X144062340Y-94652774D01*
X144035634Y-94637355D01*
X143959208Y-94616876D01*
X143959206Y-94616876D01*
X143880082Y-94616876D01*
X143880080Y-94616876D01*
X143803654Y-94637355D01*
X143785424Y-94647880D01*
X143748242Y-94652774D01*
X143718489Y-94629943D01*
X143713595Y-94592762D01*
X143720962Y-94565270D01*
X143720962Y-94486146D01*
X143720962Y-94486143D01*
X143720961Y-94486142D01*
X143716612Y-94469908D01*
X143714074Y-94460436D01*
X147199500Y-94460436D01*
X147199500Y-94539563D01*
X147219979Y-94615989D01*
X147219979Y-94615991D01*
X147248962Y-94666189D01*
X147259540Y-94684511D01*
X147315489Y-94740460D01*
X147350137Y-94760464D01*
X147373774Y-94774111D01*
X147384011Y-94780021D01*
X147419478Y-94789524D01*
X147460436Y-94800500D01*
X147460438Y-94800500D01*
X147539564Y-94800500D01*
X147566230Y-94793354D01*
X147615989Y-94780021D01*
X147684511Y-94740460D01*
X147740460Y-94684511D01*
X147780021Y-94615989D01*
X147797693Y-94550037D01*
X147800500Y-94539563D01*
X147800500Y-94460436D01*
X148699500Y-94460436D01*
X148699500Y-94539563D01*
X148719979Y-94615989D01*
X148719979Y-94615991D01*
X148748962Y-94666189D01*
X148759540Y-94684511D01*
X148815489Y-94740460D01*
X148850137Y-94760464D01*
X148873774Y-94774111D01*
X148884011Y-94780021D01*
X148919478Y-94789524D01*
X148960436Y-94800500D01*
X148960438Y-94800500D01*
X149039564Y-94800500D01*
X149066230Y-94793354D01*
X149115989Y-94780021D01*
X149184511Y-94740460D01*
X149240460Y-94684511D01*
X149280021Y-94615989D01*
X149297693Y-94550037D01*
X149300500Y-94539563D01*
X149300500Y-94460436D01*
X149288250Y-94414721D01*
X149280021Y-94384011D01*
X149280020Y-94384009D01*
X149280020Y-94384008D01*
X149244434Y-94322373D01*
X149240460Y-94315489D01*
X149184511Y-94259540D01*
X149179822Y-94256833D01*
X149115990Y-94219979D01*
X149039564Y-94199500D01*
X149039562Y-94199500D01*
X148960438Y-94199500D01*
X148960436Y-94199500D01*
X148884010Y-94219979D01*
X148884008Y-94219979D01*
X148815488Y-94259540D01*
X148815488Y-94259541D01*
X148759541Y-94315488D01*
X148759540Y-94315488D01*
X148719979Y-94384008D01*
X148719979Y-94384010D01*
X148699500Y-94460436D01*
X147800500Y-94460436D01*
X147788250Y-94414721D01*
X147780021Y-94384011D01*
X147780020Y-94384009D01*
X147780020Y-94384008D01*
X147744434Y-94322373D01*
X147740460Y-94315489D01*
X147684511Y-94259540D01*
X147679822Y-94256833D01*
X147615990Y-94219979D01*
X147539564Y-94199500D01*
X147539562Y-94199500D01*
X147460438Y-94199500D01*
X147460436Y-94199500D01*
X147384010Y-94219979D01*
X147384008Y-94219979D01*
X147315488Y-94259540D01*
X147315488Y-94259541D01*
X147259541Y-94315488D01*
X147259540Y-94315488D01*
X147219979Y-94384008D01*
X147219979Y-94384010D01*
X147199500Y-94460436D01*
X143714074Y-94460436D01*
X143707044Y-94434206D01*
X143700483Y-94409719D01*
X143700482Y-94409717D01*
X143700482Y-94409716D01*
X143660921Y-94341196D01*
X143604973Y-94285248D01*
X143536452Y-94245687D01*
X143460026Y-94225208D01*
X143460024Y-94225208D01*
X143380900Y-94225208D01*
X143380897Y-94225208D01*
X143317062Y-94242313D01*
X143279880Y-94237418D01*
X143257050Y-94207665D01*
X143256850Y-94206662D01*
X143249091Y-94177707D01*
X150484721Y-94177707D01*
X150484721Y-94256834D01*
X150505200Y-94333260D01*
X150505200Y-94333262D01*
X150534499Y-94384008D01*
X150544761Y-94401782D01*
X150600710Y-94457731D01*
X150669232Y-94497292D01*
X150704699Y-94506795D01*
X150745657Y-94517771D01*
X150745659Y-94517771D01*
X150824785Y-94517771D01*
X150851451Y-94510625D01*
X150901210Y-94497292D01*
X150969732Y-94457731D01*
X151025681Y-94401782D01*
X151065242Y-94333260D01*
X151084240Y-94262361D01*
X151085721Y-94256834D01*
X151085721Y-94177707D01*
X151072300Y-94127624D01*
X151065242Y-94101282D01*
X151065241Y-94101280D01*
X151065241Y-94101279D01*
X151040160Y-94057839D01*
X151025681Y-94032760D01*
X150969732Y-93976811D01*
X150941370Y-93960436D01*
X150901211Y-93937250D01*
X150824785Y-93916771D01*
X150824783Y-93916771D01*
X150745659Y-93916771D01*
X150745657Y-93916771D01*
X150669231Y-93937250D01*
X150669229Y-93937250D01*
X150600709Y-93976811D01*
X150600709Y-93976812D01*
X150544762Y-94032759D01*
X150544761Y-94032759D01*
X150505200Y-94101279D01*
X150505200Y-94101281D01*
X150484721Y-94177707D01*
X143249091Y-94177707D01*
X143248765Y-94176489D01*
X143235672Y-94127627D01*
X143235671Y-94127625D01*
X143235671Y-94127624D01*
X143208740Y-94080979D01*
X143196111Y-94059105D01*
X143140162Y-94003156D01*
X143094533Y-93976812D01*
X143071641Y-93963595D01*
X142995215Y-93943116D01*
X142995213Y-93943116D01*
X142916089Y-93943116D01*
X142916087Y-93943116D01*
X142839661Y-93963595D01*
X142839659Y-93963595D01*
X142771139Y-94003156D01*
X142771139Y-94003157D01*
X142715192Y-94059104D01*
X142715191Y-94059104D01*
X142675630Y-94127624D01*
X142675630Y-94127626D01*
X142655151Y-94204052D01*
X140849097Y-94204052D01*
X140787326Y-94187500D01*
X140787324Y-94187500D01*
X140708200Y-94187500D01*
X140708198Y-94187500D01*
X140631772Y-94207979D01*
X140631770Y-94207979D01*
X140563250Y-94247540D01*
X140563250Y-94247541D01*
X140507303Y-94303488D01*
X140507302Y-94303488D01*
X140467741Y-94372008D01*
X140467741Y-94372010D01*
X140447262Y-94448436D01*
X139769427Y-94448436D01*
X140528309Y-93689555D01*
X142132783Y-93689555D01*
X142132783Y-93768682D01*
X142153262Y-93845108D01*
X142153262Y-93845110D01*
X142188260Y-93905727D01*
X142192823Y-93913630D01*
X142248772Y-93969579D01*
X142298932Y-93998539D01*
X142314607Y-94007589D01*
X142317294Y-94009140D01*
X142352761Y-94018643D01*
X142393719Y-94029619D01*
X142393721Y-94029619D01*
X142472847Y-94029619D01*
X142499513Y-94022473D01*
X142549272Y-94009140D01*
X142551959Y-94007589D01*
X142559637Y-94003156D01*
X142617794Y-93969579D01*
X142673743Y-93913630D01*
X142713304Y-93845108D01*
X142733783Y-93768681D01*
X142733783Y-93689557D01*
X142733783Y-93689555D01*
X142716966Y-93626798D01*
X142713304Y-93613130D01*
X142713303Y-93613128D01*
X142713303Y-93613127D01*
X142677196Y-93550589D01*
X142673743Y-93544608D01*
X142617794Y-93488659D01*
X142594978Y-93475486D01*
X142549273Y-93449098D01*
X142472847Y-93428619D01*
X142472845Y-93428619D01*
X142393721Y-93428619D01*
X142393719Y-93428619D01*
X142317293Y-93449098D01*
X142317291Y-93449098D01*
X142248771Y-93488659D01*
X142248771Y-93488660D01*
X142192824Y-93544607D01*
X142192823Y-93544607D01*
X142153262Y-93613127D01*
X142153262Y-93613129D01*
X142132783Y-93689555D01*
X140528309Y-93689555D01*
X140685012Y-93532852D01*
X140719660Y-93518500D01*
X141263564Y-93518500D01*
X141290230Y-93511354D01*
X141339989Y-93498021D01*
X141340336Y-93497821D01*
X141356203Y-93488660D01*
X141408511Y-93458460D01*
X141464460Y-93402511D01*
X141506337Y-93360634D01*
X145014465Y-93360634D01*
X145014465Y-93439761D01*
X145034944Y-93516187D01*
X145034944Y-93516189D01*
X145071635Y-93579738D01*
X145074505Y-93584709D01*
X145130454Y-93640658D01*
X145151365Y-93652731D01*
X145198972Y-93680217D01*
X145198976Y-93680219D01*
X145216425Y-93684894D01*
X145246177Y-93707723D01*
X145251073Y-93744905D01*
X145241500Y-93780635D01*
X145241500Y-93859761D01*
X145261979Y-93936187D01*
X145261979Y-93936189D01*
X145300643Y-94003156D01*
X145301540Y-94004709D01*
X145357489Y-94060658D01*
X145372804Y-94069500D01*
X145423750Y-94098914D01*
X145426011Y-94100219D01*
X145461478Y-94109722D01*
X145502436Y-94120698D01*
X145502438Y-94120698D01*
X145581564Y-94120698D01*
X145608230Y-94113552D01*
X145657989Y-94100219D01*
X145660250Y-94098914D01*
X145667170Y-94094918D01*
X145726511Y-94060658D01*
X145782460Y-94004709D01*
X145822021Y-93936187D01*
X145842500Y-93859760D01*
X145842500Y-93780636D01*
X145842500Y-93780635D01*
X145842500Y-93780634D01*
X145827304Y-93723925D01*
X145822021Y-93704209D01*
X145822020Y-93704207D01*
X145822020Y-93704206D01*
X145782459Y-93635686D01*
X145726511Y-93579738D01*
X145657991Y-93540177D01*
X145657988Y-93540176D01*
X145640537Y-93535500D01*
X145610785Y-93512668D01*
X145605891Y-93475488D01*
X145609924Y-93460436D01*
X146199500Y-93460436D01*
X146199500Y-93539563D01*
X146219979Y-93615989D01*
X146219979Y-93615991D01*
X146257061Y-93680217D01*
X146259540Y-93684511D01*
X146315489Y-93740460D01*
X146384011Y-93780021D01*
X146419478Y-93789524D01*
X146460436Y-93800500D01*
X146460438Y-93800500D01*
X146539564Y-93800500D01*
X146566230Y-93793354D01*
X146615989Y-93780021D01*
X146684511Y-93740460D01*
X146740460Y-93684511D01*
X146780021Y-93615989D01*
X146800335Y-93540177D01*
X146800500Y-93539563D01*
X146800500Y-93460436D01*
X146784925Y-93402313D01*
X146780021Y-93384011D01*
X146780020Y-93384009D01*
X146780020Y-93384008D01*
X146740459Y-93315488D01*
X146684511Y-93259540D01*
X146615990Y-93219979D01*
X146610940Y-93218626D01*
X146539564Y-93199500D01*
X146539562Y-93199500D01*
X146460438Y-93199500D01*
X146460436Y-93199500D01*
X146384010Y-93219979D01*
X146384008Y-93219979D01*
X146315488Y-93259540D01*
X146315488Y-93259541D01*
X146259541Y-93315488D01*
X146259540Y-93315488D01*
X146219979Y-93384008D01*
X146219979Y-93384010D01*
X146199500Y-93460436D01*
X145609924Y-93460436D01*
X145615464Y-93439763D01*
X145615465Y-93439763D01*
X145615465Y-93360634D01*
X145606263Y-93326295D01*
X145594986Y-93284209D01*
X145594985Y-93284207D01*
X145594985Y-93284206D01*
X145557903Y-93219979D01*
X145555425Y-93215687D01*
X145514244Y-93174506D01*
X147781516Y-93174506D01*
X147781516Y-93253633D01*
X147801995Y-93330059D01*
X147801995Y-93330061D01*
X147828989Y-93376814D01*
X147841556Y-93398581D01*
X147897505Y-93454530D01*
X147966027Y-93494091D01*
X148001494Y-93503594D01*
X148042452Y-93514570D01*
X148042454Y-93514570D01*
X148121580Y-93514570D01*
X148148246Y-93507424D01*
X148198005Y-93494091D01*
X148256297Y-93460436D01*
X149199500Y-93460436D01*
X149199500Y-93539563D01*
X149219979Y-93615989D01*
X149219979Y-93615991D01*
X149257061Y-93680217D01*
X149259540Y-93684511D01*
X149315489Y-93740460D01*
X149384011Y-93780021D01*
X149419478Y-93789524D01*
X149460436Y-93800500D01*
X149460438Y-93800500D01*
X149539564Y-93800500D01*
X149566230Y-93793354D01*
X149615989Y-93780021D01*
X149684511Y-93740460D01*
X149740460Y-93684511D01*
X149780021Y-93615989D01*
X149800335Y-93540177D01*
X149800500Y-93539563D01*
X149800500Y-93460436D01*
X149784925Y-93402313D01*
X149780021Y-93384011D01*
X149780020Y-93384009D01*
X149780020Y-93384008D01*
X149740459Y-93315488D01*
X149684511Y-93259540D01*
X149615990Y-93219979D01*
X149539564Y-93199500D01*
X149539562Y-93199500D01*
X149460438Y-93199500D01*
X149460436Y-93199500D01*
X149384010Y-93219979D01*
X149384008Y-93219979D01*
X149315488Y-93259540D01*
X149315488Y-93259541D01*
X149259541Y-93315488D01*
X149259540Y-93315488D01*
X149219979Y-93384008D01*
X149219979Y-93384010D01*
X149199500Y-93460436D01*
X148256297Y-93460436D01*
X148266527Y-93454530D01*
X148322476Y-93398581D01*
X148359883Y-93333790D01*
X148362036Y-93330061D01*
X148362036Y-93330060D01*
X148362037Y-93330059D01*
X148382516Y-93253632D01*
X148382516Y-93174508D01*
X148382516Y-93174506D01*
X148373445Y-93140657D01*
X148362037Y-93098081D01*
X148362036Y-93098079D01*
X148362036Y-93098078D01*
X148324630Y-93033290D01*
X148322476Y-93029559D01*
X148266527Y-92973610D01*
X148263475Y-92971848D01*
X148198006Y-92934049D01*
X148121580Y-92913570D01*
X148121578Y-92913570D01*
X148042454Y-92913570D01*
X148042452Y-92913570D01*
X147966026Y-92934049D01*
X147966024Y-92934049D01*
X147897504Y-92973610D01*
X147897504Y-92973611D01*
X147841557Y-93029558D01*
X147841556Y-93029558D01*
X147801995Y-93098078D01*
X147801995Y-93098080D01*
X147781516Y-93174506D01*
X145514244Y-93174506D01*
X145499476Y-93159738D01*
X145490767Y-93154710D01*
X145430955Y-93120177D01*
X145354529Y-93099698D01*
X145354527Y-93099698D01*
X145275403Y-93099698D01*
X145275401Y-93099698D01*
X145198975Y-93120177D01*
X145198973Y-93120177D01*
X145130453Y-93159738D01*
X145130453Y-93159739D01*
X145074506Y-93215686D01*
X145074505Y-93215686D01*
X145034944Y-93284206D01*
X145034944Y-93284208D01*
X145014465Y-93360634D01*
X141506337Y-93360634D01*
X141651921Y-93215050D01*
X141686569Y-93200698D01*
X142605219Y-93200698D01*
X142631885Y-93193552D01*
X142681644Y-93180219D01*
X142685074Y-93178239D01*
X142700210Y-93169500D01*
X142750166Y-93140658D01*
X142806115Y-93084709D01*
X143412771Y-92478052D01*
X143447418Y-92463701D01*
X143482066Y-92478053D01*
X143494748Y-92500018D01*
X143497741Y-92511187D01*
X143497741Y-92511189D01*
X143533089Y-92572412D01*
X143537302Y-92579709D01*
X143593251Y-92635658D01*
X143661773Y-92675219D01*
X143697240Y-92684722D01*
X143738198Y-92695698D01*
X143738200Y-92695698D01*
X143817326Y-92695698D01*
X143843992Y-92688552D01*
X143893751Y-92675219D01*
X143962273Y-92635658D01*
X144018222Y-92579709D01*
X144057783Y-92511187D01*
X144076427Y-92441608D01*
X144078262Y-92434761D01*
X144078262Y-92355634D01*
X144063391Y-92300138D01*
X144057783Y-92279209D01*
X144057782Y-92279207D01*
X144057782Y-92279206D01*
X144021568Y-92216483D01*
X144018222Y-92210687D01*
X143962273Y-92154738D01*
X143936845Y-92140057D01*
X143893752Y-92115177D01*
X143882582Y-92112184D01*
X143852829Y-92089353D01*
X143847935Y-92052171D01*
X143860615Y-92030208D01*
X143931587Y-91959236D01*
X147121100Y-91959236D01*
X147121100Y-92038363D01*
X147141579Y-92114789D01*
X147141579Y-92114791D01*
X147176053Y-92174500D01*
X147181140Y-92183311D01*
X147237089Y-92239260D01*
X147305611Y-92278821D01*
X147328686Y-92285004D01*
X147382036Y-92299300D01*
X147382038Y-92299300D01*
X147461164Y-92299300D01*
X147487830Y-92292154D01*
X147537589Y-92278821D01*
X147606111Y-92239260D01*
X147662060Y-92183311D01*
X147701621Y-92114789D01*
X147717946Y-92053864D01*
X148508346Y-92053864D01*
X148508346Y-92132991D01*
X148528825Y-92209417D01*
X148528825Y-92209419D01*
X148559065Y-92261795D01*
X148568386Y-92277939D01*
X148624335Y-92333888D01*
X148662004Y-92355636D01*
X148692231Y-92373088D01*
X148692857Y-92373449D01*
X148719216Y-92380512D01*
X148769282Y-92393928D01*
X148769284Y-92393928D01*
X148848410Y-92393928D01*
X148875076Y-92386782D01*
X148924835Y-92373449D01*
X148925461Y-92373088D01*
X148955688Y-92355636D01*
X148993357Y-92333888D01*
X149049306Y-92277939D01*
X149088867Y-92209417D01*
X149105017Y-92149141D01*
X149109346Y-92132991D01*
X149109346Y-92070794D01*
X149741260Y-92070794D01*
X149741260Y-92149921D01*
X149761739Y-92226347D01*
X149761739Y-92226349D01*
X149795604Y-92285003D01*
X149801300Y-92294869D01*
X149857249Y-92350818D01*
X149898029Y-92374362D01*
X149908682Y-92380513D01*
X149925771Y-92390379D01*
X149961238Y-92399882D01*
X150002196Y-92410858D01*
X150002198Y-92410858D01*
X150081324Y-92410858D01*
X150107990Y-92403712D01*
X150157749Y-92390379D01*
X150226271Y-92350818D01*
X150282220Y-92294869D01*
X150321781Y-92226347D01*
X150342260Y-92149920D01*
X150342260Y-92070796D01*
X150342260Y-92070794D01*
X150324114Y-92003077D01*
X150321781Y-91994369D01*
X150321780Y-91994367D01*
X150321780Y-91994366D01*
X150289260Y-91938041D01*
X150282220Y-91925847D01*
X150226271Y-91869898D01*
X150196949Y-91852969D01*
X150157750Y-91830337D01*
X150081324Y-91809858D01*
X150081322Y-91809858D01*
X150002198Y-91809858D01*
X150002196Y-91809858D01*
X149925770Y-91830337D01*
X149925768Y-91830337D01*
X149857248Y-91869898D01*
X149857248Y-91869899D01*
X149801301Y-91925846D01*
X149801300Y-91925846D01*
X149761739Y-91994366D01*
X149761739Y-91994368D01*
X149741260Y-92070794D01*
X149109346Y-92070794D01*
X149109346Y-92053864D01*
X149097469Y-92009541D01*
X149088867Y-91977439D01*
X149088866Y-91977437D01*
X149088866Y-91977436D01*
X149052991Y-91915300D01*
X149049306Y-91908917D01*
X148993357Y-91852968D01*
X148992947Y-91852731D01*
X148924836Y-91813407D01*
X148848410Y-91792928D01*
X148848408Y-91792928D01*
X148769284Y-91792928D01*
X148769282Y-91792928D01*
X148692856Y-91813407D01*
X148692854Y-91813407D01*
X148624334Y-91852968D01*
X148624334Y-91852969D01*
X148568387Y-91908916D01*
X148568386Y-91908916D01*
X148528825Y-91977436D01*
X148528825Y-91977438D01*
X148508346Y-92053864D01*
X147717946Y-92053864D01*
X147722100Y-92038362D01*
X147722100Y-91959238D01*
X147722100Y-91959236D01*
X147710509Y-91915980D01*
X147701621Y-91882811D01*
X147701620Y-91882809D01*
X147701620Y-91882808D01*
X147670667Y-91829197D01*
X147662060Y-91814289D01*
X147606111Y-91758340D01*
X147592686Y-91750589D01*
X147537590Y-91718779D01*
X147461164Y-91698300D01*
X147461162Y-91698300D01*
X147382038Y-91698300D01*
X147382036Y-91698300D01*
X147305610Y-91718779D01*
X147305608Y-91718779D01*
X147237088Y-91758340D01*
X147237088Y-91758341D01*
X147181141Y-91814288D01*
X147181140Y-91814288D01*
X147141579Y-91882808D01*
X147141579Y-91882810D01*
X147121100Y-91959236D01*
X143931587Y-91959236D01*
X145353988Y-90536836D01*
X148238700Y-90536836D01*
X148238700Y-90615963D01*
X148259179Y-90692389D01*
X148259179Y-90692391D01*
X148298740Y-90760911D01*
X148354689Y-90816860D01*
X148423211Y-90856421D01*
X148453123Y-90864436D01*
X148499636Y-90876900D01*
X148499638Y-90876900D01*
X148578764Y-90876900D01*
X148605430Y-90869754D01*
X148655189Y-90856421D01*
X148723711Y-90816860D01*
X148779660Y-90760911D01*
X148819221Y-90692389D01*
X148837948Y-90622500D01*
X148839700Y-90615963D01*
X148839700Y-90536836D01*
X148821924Y-90470500D01*
X148819221Y-90460411D01*
X148819220Y-90460409D01*
X148819220Y-90460408D01*
X148779659Y-90391888D01*
X148723711Y-90335940D01*
X148655190Y-90296379D01*
X148578764Y-90275900D01*
X148578762Y-90275900D01*
X148499638Y-90275900D01*
X148499636Y-90275900D01*
X148423210Y-90296379D01*
X148423208Y-90296379D01*
X148354688Y-90335940D01*
X148354688Y-90335941D01*
X148298741Y-90391888D01*
X148298740Y-90391888D01*
X148259179Y-90460408D01*
X148259179Y-90460410D01*
X148238700Y-90536836D01*
X145353988Y-90536836D01*
X146590186Y-89300638D01*
X146624834Y-89286286D01*
X148996691Y-89286286D01*
X149031339Y-89300638D01*
X149045691Y-89335286D01*
X149031339Y-89369934D01*
X148989936Y-89411337D01*
X148989935Y-89411337D01*
X148947082Y-89485559D01*
X148947081Y-89485563D01*
X148924900Y-89568343D01*
X148924900Y-89654056D01*
X148947081Y-89736836D01*
X148947082Y-89736840D01*
X148980491Y-89794704D01*
X148989935Y-89811062D01*
X149050538Y-89871665D01*
X149107939Y-89904805D01*
X149130769Y-89934558D01*
X149125874Y-89971740D01*
X149102192Y-89992509D01*
X149099363Y-89993680D01*
X149025137Y-90036535D01*
X149025137Y-90036536D01*
X148964536Y-90097137D01*
X148964535Y-90097137D01*
X148921682Y-90171359D01*
X148921681Y-90171363D01*
X148899500Y-90254143D01*
X148899500Y-90339856D01*
X148921681Y-90422636D01*
X148921682Y-90422640D01*
X148943490Y-90460411D01*
X148964535Y-90496862D01*
X149025138Y-90557465D01*
X149052304Y-90573149D01*
X149099359Y-90600317D01*
X149099361Y-90600317D01*
X149099362Y-90600318D01*
X149149689Y-90613803D01*
X149182143Y-90622499D01*
X149182144Y-90622500D01*
X149182147Y-90622500D01*
X149267856Y-90622500D01*
X149267856Y-90622499D01*
X149350638Y-90600318D01*
X149424862Y-90557465D01*
X149485465Y-90496862D01*
X149528318Y-90422638D01*
X149550499Y-90339856D01*
X149550500Y-90339856D01*
X149550500Y-90254144D01*
X149550499Y-90254143D01*
X149538554Y-90209563D01*
X149528318Y-90171362D01*
X149528317Y-90171361D01*
X149528317Y-90171359D01*
X149488756Y-90102838D01*
X149485465Y-90097138D01*
X149424862Y-90036535D01*
X149367460Y-90003394D01*
X149344630Y-89973641D01*
X149349525Y-89936459D01*
X149373216Y-89915686D01*
X149376028Y-89914520D01*
X149376038Y-89914518D01*
X149450262Y-89871665D01*
X149510865Y-89811062D01*
X149553718Y-89736838D01*
X149575899Y-89654056D01*
X149575900Y-89654056D01*
X149575900Y-89568344D01*
X149575899Y-89568343D01*
X149565354Y-89528990D01*
X149553718Y-89485562D01*
X149553717Y-89485561D01*
X149553717Y-89485559D01*
X149519118Y-89425633D01*
X149510865Y-89411338D01*
X149469461Y-89369934D01*
X149455109Y-89335286D01*
X149469461Y-89300638D01*
X149504109Y-89286286D01*
X149960438Y-89286286D01*
X151506951Y-89286286D01*
X151541599Y-89300638D01*
X151555951Y-89335286D01*
X151541599Y-89369934D01*
X151524568Y-89379766D01*
X151524976Y-89380751D01*
X151522008Y-89381979D01*
X151453488Y-89421540D01*
X151453488Y-89421541D01*
X151397541Y-89477488D01*
X151397540Y-89477488D01*
X151357979Y-89546008D01*
X151357979Y-89546010D01*
X151337500Y-89622436D01*
X151337500Y-89667220D01*
X151323148Y-89701868D01*
X151288500Y-89716220D01*
X151261987Y-89716220D01*
X151185561Y-89736699D01*
X151185559Y-89736699D01*
X151117039Y-89776260D01*
X151117039Y-89776261D01*
X151061092Y-89832208D01*
X151061091Y-89832208D01*
X151021530Y-89900728D01*
X151021530Y-89900730D01*
X151001051Y-89977156D01*
X151001051Y-90056283D01*
X151021530Y-90132709D01*
X151021530Y-90132711D01*
X151047135Y-90177059D01*
X151061091Y-90201231D01*
X151117040Y-90257180D01*
X151185562Y-90296741D01*
X151221029Y-90306244D01*
X151261987Y-90317220D01*
X151261989Y-90317220D01*
X151341115Y-90317220D01*
X151367781Y-90310074D01*
X151417540Y-90296741D01*
X151443137Y-90281963D01*
X151454071Y-90275650D01*
X151491253Y-90270755D01*
X151521005Y-90293583D01*
X151541221Y-90328598D01*
X151597170Y-90384547D01*
X151665692Y-90424108D01*
X151701159Y-90433611D01*
X151742117Y-90444587D01*
X151742119Y-90444587D01*
X151821245Y-90444587D01*
X151847911Y-90437441D01*
X151897670Y-90424108D01*
X151966192Y-90384547D01*
X152022141Y-90328598D01*
X152061702Y-90260076D01*
X152064694Y-90248908D01*
X152087523Y-90219156D01*
X152124705Y-90214260D01*
X152146672Y-90226943D01*
X152260751Y-90341022D01*
X152275103Y-90375670D01*
X152275103Y-92929414D01*
X152260751Y-92964062D01*
X152250605Y-92971848D01*
X152241097Y-92977337D01*
X152241088Y-92977344D01*
X152185144Y-93033289D01*
X152185143Y-93033289D01*
X152145582Y-93101809D01*
X152145582Y-93101811D01*
X152125103Y-93178237D01*
X152125103Y-93257364D01*
X152145582Y-93333790D01*
X152145582Y-93333792D01*
X152174575Y-93384008D01*
X152185143Y-93402312D01*
X152241092Y-93458261D01*
X152309614Y-93497822D01*
X152345081Y-93507325D01*
X152386039Y-93518301D01*
X152386041Y-93518301D01*
X152465167Y-93518301D01*
X152491833Y-93511155D01*
X152541592Y-93497822D01*
X152610114Y-93458261D01*
X152666063Y-93402312D01*
X152705624Y-93333790D01*
X152716256Y-93294109D01*
X152739086Y-93264357D01*
X152776268Y-93259462D01*
X152793587Y-93264103D01*
X152818198Y-93270698D01*
X152818200Y-93270698D01*
X152897326Y-93270698D01*
X152923992Y-93263552D01*
X152973751Y-93250219D01*
X153042273Y-93210658D01*
X153098222Y-93154709D01*
X153137783Y-93086187D01*
X153155179Y-93021265D01*
X153158262Y-93009761D01*
X153158262Y-92930634D01*
X153140188Y-92863186D01*
X153137783Y-92854209D01*
X153137782Y-92854207D01*
X153137782Y-92854206D01*
X153108401Y-92803317D01*
X153098222Y-92785687D01*
X153042273Y-92729738D01*
X153023884Y-92719121D01*
X152973752Y-92690177D01*
X152897326Y-92669698D01*
X152897324Y-92669698D01*
X152818200Y-92669698D01*
X152818198Y-92669698D01*
X152741772Y-92690177D01*
X152741770Y-92690177D01*
X152673250Y-92729738D01*
X152673250Y-92729739D01*
X152659751Y-92743238D01*
X152625103Y-92757590D01*
X152590455Y-92743238D01*
X152576103Y-92708590D01*
X152576103Y-91801359D01*
X152590455Y-91766711D01*
X152625103Y-91752359D01*
X152659751Y-91766711D01*
X152721199Y-91828159D01*
X152764171Y-91852969D01*
X152806819Y-91877592D01*
X152806823Y-91877594D01*
X152889596Y-91899772D01*
X152911559Y-91912453D01*
X155164389Y-94165283D01*
X155178741Y-94199931D01*
X155164389Y-94234579D01*
X155129741Y-94248931D01*
X155115512Y-94248931D01*
X155032731Y-94271112D01*
X155032727Y-94271113D01*
X154958505Y-94313966D01*
X154958505Y-94313967D01*
X154897904Y-94374568D01*
X154897903Y-94374568D01*
X154855050Y-94448790D01*
X154855049Y-94448794D01*
X154832868Y-94531574D01*
X154832868Y-94617287D01*
X154855049Y-94700067D01*
X154855050Y-94700071D01*
X154889385Y-94759540D01*
X154897903Y-94774293D01*
X154958506Y-94834896D01*
X154985221Y-94850320D01*
X155032727Y-94877748D01*
X155032729Y-94877748D01*
X155032730Y-94877749D01*
X155078825Y-94890100D01*
X155115511Y-94899930D01*
X155115512Y-94899931D01*
X155115515Y-94899931D01*
X155201224Y-94899931D01*
X155201224Y-94899930D01*
X155284006Y-94877749D01*
X155358230Y-94834896D01*
X155418833Y-94774293D01*
X155460318Y-94702438D01*
X155461685Y-94700071D01*
X155461685Y-94700070D01*
X155461686Y-94700069D01*
X155483867Y-94617287D01*
X155483868Y-94617287D01*
X155483868Y-94603058D01*
X155498220Y-94568410D01*
X155532868Y-94554058D01*
X155567516Y-94568410D01*
X157692321Y-96693215D01*
X157706673Y-96727863D01*
X157692321Y-96762511D01*
X157660193Y-96775818D01*
X157660276Y-96776444D01*
X157657943Y-96776750D01*
X157657673Y-96776863D01*
X157657093Y-96776863D01*
X157580667Y-96797342D01*
X157580665Y-96797342D01*
X157512145Y-96836903D01*
X157512145Y-96836904D01*
X157456198Y-96892851D01*
X157456197Y-96892851D01*
X157416636Y-96961371D01*
X157416636Y-96961373D01*
X157396286Y-97037317D01*
X157373455Y-97067070D01*
X157336274Y-97071964D01*
X157294628Y-97060805D01*
X157294625Y-97060805D01*
X157215501Y-97060805D01*
X157215499Y-97060805D01*
X157139073Y-97081284D01*
X157139071Y-97081284D01*
X157070551Y-97120845D01*
X157070551Y-97120846D01*
X157014604Y-97176793D01*
X157014603Y-97176793D01*
X156975042Y-97245313D01*
X156975042Y-97245315D01*
X156954563Y-97321741D01*
X156954563Y-97400868D01*
X156975042Y-97477294D01*
X156975042Y-97477296D01*
X157006919Y-97532507D01*
X157014603Y-97545816D01*
X157070552Y-97601765D01*
X157106984Y-97622799D01*
X157138933Y-97641245D01*
X157139074Y-97641326D01*
X157174541Y-97650829D01*
X157215499Y-97661805D01*
X157215501Y-97661805D01*
X157294627Y-97661805D01*
X157321293Y-97654659D01*
X157371052Y-97641326D01*
X157371193Y-97641245D01*
X157383914Y-97633900D01*
X157439574Y-97601765D01*
X157495523Y-97545816D01*
X157532590Y-97481614D01*
X157535083Y-97477296D01*
X157535084Y-97477293D01*
X157536248Y-97472949D01*
X157555433Y-97401350D01*
X157578263Y-97371598D01*
X157615445Y-97366703D01*
X157615446Y-97366703D01*
X157657093Y-97377863D01*
X157657095Y-97377863D01*
X157736221Y-97377863D01*
X157764798Y-97370205D01*
X157812646Y-97357384D01*
X157846352Y-97337924D01*
X158096157Y-97337924D01*
X158096157Y-97423637D01*
X158118338Y-97506417D01*
X158118339Y-97506421D01*
X158158259Y-97575563D01*
X158161192Y-97580643D01*
X158221795Y-97641246D01*
X158248961Y-97656930D01*
X158296016Y-97684098D01*
X158296018Y-97684098D01*
X158296019Y-97684099D01*
X158320498Y-97690658D01*
X158378800Y-97706280D01*
X158378801Y-97706281D01*
X158378804Y-97706281D01*
X158464513Y-97706281D01*
X158464513Y-97706280D01*
X158547295Y-97684099D01*
X158548825Y-97683216D01*
X158570506Y-97670698D01*
X158621519Y-97641246D01*
X158682122Y-97580643D01*
X158724975Y-97506419D01*
X158728368Y-97493753D01*
X158741047Y-97471791D01*
X158797988Y-97414850D01*
X158832635Y-97400500D01*
X164182746Y-97400500D01*
X164217394Y-97414852D01*
X164225181Y-97425000D01*
X164239535Y-97449862D01*
X164300138Y-97510465D01*
X164327304Y-97526149D01*
X164374359Y-97553317D01*
X164374361Y-97553317D01*
X164374362Y-97553318D01*
X164438987Y-97570634D01*
X164457143Y-97575499D01*
X164457144Y-97575500D01*
X164457147Y-97575500D01*
X164542856Y-97575500D01*
X164542856Y-97575499D01*
X164625638Y-97553318D01*
X164699862Y-97510465D01*
X164760465Y-97449862D01*
X164800673Y-97380219D01*
X164803317Y-97375640D01*
X164803317Y-97375639D01*
X164803318Y-97375638D01*
X164825499Y-97292856D01*
X164825500Y-97292856D01*
X164825500Y-97207144D01*
X164825499Y-97207143D01*
X164822456Y-97195785D01*
X164803318Y-97124362D01*
X164803317Y-97124361D01*
X164803318Y-97124361D01*
X164794364Y-97108853D01*
X166649500Y-97108853D01*
X166649500Y-97201146D01*
X166673385Y-97290286D01*
X166673386Y-97290289D01*
X166708720Y-97351488D01*
X166719531Y-97370212D01*
X166784788Y-97435469D01*
X166844731Y-97470077D01*
X166855956Y-97476559D01*
X166864712Y-97481614D01*
X166881779Y-97486187D01*
X166953853Y-97505500D01*
X166953856Y-97505500D01*
X167046146Y-97505500D01*
X167090716Y-97493557D01*
X167135288Y-97481614D01*
X167215212Y-97435469D01*
X167280469Y-97370212D01*
X167326614Y-97290288D01*
X167344086Y-97225081D01*
X167350500Y-97201146D01*
X167350500Y-97108853D01*
X167328686Y-97027444D01*
X167326614Y-97019712D01*
X167280469Y-96939788D01*
X167215212Y-96874531D01*
X167189592Y-96859739D01*
X167135289Y-96828386D01*
X167135286Y-96828385D01*
X167046147Y-96804500D01*
X167046144Y-96804500D01*
X166953856Y-96804500D01*
X166953853Y-96804500D01*
X166864713Y-96828385D01*
X166864710Y-96828386D01*
X166784794Y-96874527D01*
X166784784Y-96874534D01*
X166719534Y-96939784D01*
X166719527Y-96939794D01*
X166673386Y-97019710D01*
X166673385Y-97019713D01*
X166649500Y-97108853D01*
X164794364Y-97108853D01*
X164770477Y-97067480D01*
X164760465Y-97050138D01*
X164699862Y-96989535D01*
X164697962Y-96988438D01*
X164625640Y-96946682D01*
X164625636Y-96946681D01*
X164542856Y-96924500D01*
X164542853Y-96924500D01*
X164457147Y-96924500D01*
X164457144Y-96924500D01*
X164374363Y-96946681D01*
X164374359Y-96946682D01*
X164300137Y-96989535D01*
X164300137Y-96989536D01*
X164239536Y-97050137D01*
X164239535Y-97050137D01*
X164225181Y-97075000D01*
X164195428Y-97097830D01*
X164182746Y-97099500D01*
X158720062Y-97099500D01*
X158682853Y-97114914D01*
X158682849Y-97114915D01*
X158664012Y-97122716D01*
X158626509Y-97122714D01*
X158620764Y-97119880D01*
X158547297Y-97077463D01*
X158547293Y-97077462D01*
X158464513Y-97055281D01*
X158464510Y-97055281D01*
X158378804Y-97055281D01*
X158378801Y-97055281D01*
X158296020Y-97077462D01*
X158296016Y-97077463D01*
X158221794Y-97120316D01*
X158221794Y-97120317D01*
X158161193Y-97180918D01*
X158161192Y-97180918D01*
X158118339Y-97255140D01*
X158118338Y-97255144D01*
X158096157Y-97337924D01*
X157846352Y-97337924D01*
X157881168Y-97317823D01*
X157937117Y-97261874D01*
X157974358Y-97197370D01*
X157976677Y-97193354D01*
X157976677Y-97193353D01*
X157976678Y-97193352D01*
X157995164Y-97124362D01*
X157997157Y-97116926D01*
X157997157Y-97037799D01*
X157982456Y-96982936D01*
X157978887Y-96969618D01*
X157983781Y-96932437D01*
X158013534Y-96909606D01*
X158026217Y-96907936D01*
X158902191Y-96907936D01*
X158926691Y-96914501D01*
X159000898Y-96957345D01*
X159000900Y-96957345D01*
X159000901Y-96957346D01*
X159017348Y-96961753D01*
X159096401Y-96982936D01*
X159096404Y-96982936D01*
X159195276Y-96982936D01*
X159247683Y-96968893D01*
X159290777Y-96957346D01*
X159293457Y-96955799D01*
X159302250Y-96950722D01*
X159376401Y-96907911D01*
X159446314Y-96837998D01*
X159494401Y-96754709D01*
X159495748Y-96752376D01*
X159495748Y-96752375D01*
X159495749Y-96752374D01*
X159515907Y-96677143D01*
X159521339Y-96656873D01*
X159521339Y-96557998D01*
X159501400Y-96483589D01*
X159495749Y-96462498D01*
X159495748Y-96462497D01*
X159495748Y-96462495D01*
X159454272Y-96390658D01*
X159446314Y-96376874D01*
X159376401Y-96306961D01*
X159370091Y-96303318D01*
X159290779Y-96257526D01*
X159290775Y-96257525D01*
X159195277Y-96231936D01*
X159195274Y-96231936D01*
X159096404Y-96231936D01*
X159096401Y-96231936D01*
X159000902Y-96257525D01*
X159000898Y-96257526D01*
X158926691Y-96300371D01*
X158902191Y-96306936D01*
X158176280Y-96306936D01*
X158141632Y-96292584D01*
X157802901Y-95953853D01*
X165149500Y-95953853D01*
X165149500Y-96046146D01*
X165173385Y-96135286D01*
X165173386Y-96135289D01*
X165216430Y-96209842D01*
X165219531Y-96215212D01*
X165284788Y-96280469D01*
X165330673Y-96306961D01*
X165362782Y-96325500D01*
X165364712Y-96326614D01*
X165386998Y-96332585D01*
X165453853Y-96350500D01*
X165453856Y-96350500D01*
X165546146Y-96350500D01*
X165590716Y-96338557D01*
X165635288Y-96326614D01*
X165715212Y-96280469D01*
X165780469Y-96215212D01*
X165826614Y-96135288D01*
X165846759Y-96060107D01*
X165850500Y-96046146D01*
X165850500Y-95957143D01*
X166924500Y-95957143D01*
X166924500Y-96042856D01*
X166946681Y-96125636D01*
X166946682Y-96125640D01*
X166983703Y-96189761D01*
X166989535Y-96199862D01*
X167050138Y-96260465D01*
X167074811Y-96274710D01*
X167124359Y-96303317D01*
X167124361Y-96303317D01*
X167124362Y-96303318D01*
X167189651Y-96320812D01*
X167207143Y-96325499D01*
X167207144Y-96325500D01*
X167207147Y-96325500D01*
X167292856Y-96325500D01*
X167292856Y-96325499D01*
X167375638Y-96303318D01*
X167380743Y-96300371D01*
X167398399Y-96290177D01*
X167449862Y-96260465D01*
X167510465Y-96199862D01*
X167550938Y-96129760D01*
X167553317Y-96125640D01*
X167553317Y-96125639D01*
X167553318Y-96125638D01*
X167575499Y-96042856D01*
X167575500Y-96042856D01*
X167575500Y-95957144D01*
X167575499Y-95957143D01*
X167566638Y-95924073D01*
X167553318Y-95874362D01*
X167553317Y-95874361D01*
X167553317Y-95874359D01*
X167521932Y-95820000D01*
X167510465Y-95800138D01*
X167449862Y-95739535D01*
X167434277Y-95730537D01*
X167375640Y-95696682D01*
X167375636Y-95696681D01*
X167292856Y-95674500D01*
X167292853Y-95674500D01*
X167207147Y-95674500D01*
X167207144Y-95674500D01*
X167124363Y-95696681D01*
X167124359Y-95696682D01*
X167050137Y-95739535D01*
X167050137Y-95739536D01*
X166989536Y-95800137D01*
X166989535Y-95800137D01*
X166946682Y-95874359D01*
X166946681Y-95874363D01*
X166924500Y-95957143D01*
X165850500Y-95957143D01*
X165850500Y-95953853D01*
X165827529Y-95868126D01*
X165826614Y-95864712D01*
X165821154Y-95855256D01*
X165815077Y-95844731D01*
X165780469Y-95784788D01*
X165715212Y-95719531D01*
X165677134Y-95697546D01*
X165635289Y-95673386D01*
X165635286Y-95673385D01*
X165546147Y-95649500D01*
X165546144Y-95649500D01*
X165453856Y-95649500D01*
X165453853Y-95649500D01*
X165364713Y-95673385D01*
X165364710Y-95673386D01*
X165284794Y-95719527D01*
X165284784Y-95719534D01*
X165219534Y-95784784D01*
X165219527Y-95784794D01*
X165173386Y-95864710D01*
X165173385Y-95864713D01*
X165149500Y-95953853D01*
X157802901Y-95953853D01*
X157306191Y-95457143D01*
X163174500Y-95457143D01*
X163174500Y-95542856D01*
X163196681Y-95625636D01*
X163196682Y-95625640D01*
X163234892Y-95691820D01*
X163239535Y-95699862D01*
X163300138Y-95760465D01*
X163327304Y-95776149D01*
X163374359Y-95803317D01*
X163374361Y-95803317D01*
X163374362Y-95803318D01*
X163419785Y-95815489D01*
X163457143Y-95825499D01*
X163457144Y-95825500D01*
X163457147Y-95825500D01*
X163542856Y-95825500D01*
X163542856Y-95825499D01*
X163625638Y-95803318D01*
X163699862Y-95760465D01*
X163760465Y-95699862D01*
X163803318Y-95625638D01*
X163825499Y-95542856D01*
X163825500Y-95542856D01*
X163825500Y-95457144D01*
X163825499Y-95457143D01*
X163805903Y-95384010D01*
X163803318Y-95374362D01*
X163803317Y-95374361D01*
X163803317Y-95374359D01*
X163760464Y-95300137D01*
X163699862Y-95239535D01*
X163625640Y-95196682D01*
X163625636Y-95196681D01*
X163542856Y-95174500D01*
X163542853Y-95174500D01*
X163457147Y-95174500D01*
X163457144Y-95174500D01*
X163374363Y-95196681D01*
X163374359Y-95196682D01*
X163300137Y-95239535D01*
X163300137Y-95239536D01*
X163239536Y-95300137D01*
X163239535Y-95300137D01*
X163196682Y-95374359D01*
X163196681Y-95374363D01*
X163174500Y-95457143D01*
X157306191Y-95457143D01*
X156306191Y-94457143D01*
X156674500Y-94457143D01*
X156674500Y-94542856D01*
X156696681Y-94625636D01*
X156696682Y-94625640D01*
X156739326Y-94699500D01*
X156739535Y-94699862D01*
X156800138Y-94760465D01*
X156823774Y-94774111D01*
X156874359Y-94803317D01*
X156874361Y-94803317D01*
X156874362Y-94803318D01*
X156919785Y-94815489D01*
X156957143Y-94825499D01*
X156957144Y-94825500D01*
X156957147Y-94825500D01*
X157042856Y-94825500D01*
X157042856Y-94825499D01*
X157125638Y-94803318D01*
X157128985Y-94801386D01*
X157147566Y-94790658D01*
X157199862Y-94760465D01*
X157260465Y-94699862D01*
X157301283Y-94629163D01*
X157303317Y-94625640D01*
X157303317Y-94625639D01*
X157303318Y-94625638D01*
X157323575Y-94550036D01*
X165561500Y-94550036D01*
X165561500Y-94629163D01*
X165581979Y-94705589D01*
X165581979Y-94705591D01*
X165616954Y-94766168D01*
X165621540Y-94774111D01*
X165677489Y-94830060D01*
X165746011Y-94869621D01*
X165776572Y-94877810D01*
X165822436Y-94890100D01*
X165822438Y-94890100D01*
X165901564Y-94890100D01*
X165928230Y-94882954D01*
X165977989Y-94869621D01*
X166046511Y-94830060D01*
X166095009Y-94781561D01*
X166129655Y-94767211D01*
X166164303Y-94781562D01*
X166176985Y-94803528D01*
X166191579Y-94857989D01*
X166191579Y-94857991D01*
X166215794Y-94899931D01*
X166231140Y-94926511D01*
X166287089Y-94982460D01*
X166355611Y-95022021D01*
X166386049Y-95030177D01*
X166432036Y-95042500D01*
X166432038Y-95042500D01*
X166511164Y-95042500D01*
X166545246Y-95033367D01*
X166587589Y-95022021D01*
X166656111Y-94982460D01*
X166712060Y-94926511D01*
X166751621Y-94857989D01*
X166772100Y-94781562D01*
X166772100Y-94702438D01*
X166772100Y-94702436D01*
X166757481Y-94647880D01*
X166751621Y-94626011D01*
X166751620Y-94626009D01*
X166751620Y-94626008D01*
X166718365Y-94568410D01*
X166712060Y-94557489D01*
X166656111Y-94501540D01*
X166648753Y-94497292D01*
X166587590Y-94461979D01*
X166511164Y-94441500D01*
X166511162Y-94441500D01*
X166432038Y-94441500D01*
X166432036Y-94441500D01*
X166355610Y-94461979D01*
X166355608Y-94461979D01*
X166287090Y-94501539D01*
X166238592Y-94550037D01*
X166203944Y-94564388D01*
X166169295Y-94550036D01*
X166156614Y-94528071D01*
X166151941Y-94510634D01*
X166142021Y-94473611D01*
X166142020Y-94473609D01*
X166142020Y-94473608D01*
X166105133Y-94409719D01*
X166102460Y-94405089D01*
X166046511Y-94349140D01*
X166032752Y-94341196D01*
X165977990Y-94309579D01*
X165901564Y-94289100D01*
X165901562Y-94289100D01*
X165822438Y-94289100D01*
X165822436Y-94289100D01*
X165746010Y-94309579D01*
X165746008Y-94309579D01*
X165677488Y-94349140D01*
X165677488Y-94349141D01*
X165621541Y-94405088D01*
X165621540Y-94405088D01*
X165581979Y-94473608D01*
X165581979Y-94473610D01*
X165561500Y-94550036D01*
X157323575Y-94550036D01*
X157325499Y-94542855D01*
X157325500Y-94542855D01*
X157325500Y-94457144D01*
X157325499Y-94457143D01*
X157312792Y-94409719D01*
X157303318Y-94374362D01*
X157303317Y-94374361D01*
X157303317Y-94374359D01*
X157268449Y-94313967D01*
X157260465Y-94300138D01*
X157199862Y-94239535D01*
X157191278Y-94234579D01*
X157125640Y-94196682D01*
X157125636Y-94196681D01*
X157042856Y-94174500D01*
X157042853Y-94174500D01*
X156957147Y-94174500D01*
X156957144Y-94174500D01*
X156874363Y-94196681D01*
X156874359Y-94196682D01*
X156800137Y-94239535D01*
X156800137Y-94239536D01*
X156739536Y-94300137D01*
X156739535Y-94300137D01*
X156696682Y-94374359D01*
X156696681Y-94374363D01*
X156674500Y-94457143D01*
X156306191Y-94457143D01*
X155790580Y-93941532D01*
X162488500Y-93941532D01*
X162488500Y-94027245D01*
X162510681Y-94110025D01*
X162510682Y-94110029D01*
X162547316Y-94173479D01*
X162553535Y-94184251D01*
X162614138Y-94244854D01*
X162634888Y-94256834D01*
X162688359Y-94287706D01*
X162688361Y-94287706D01*
X162688362Y-94287707D01*
X162736107Y-94300500D01*
X162771143Y-94309888D01*
X162771144Y-94309889D01*
X162771147Y-94309889D01*
X162856856Y-94309889D01*
X162856856Y-94309888D01*
X162939638Y-94287707D01*
X163013862Y-94244854D01*
X163074465Y-94184251D01*
X163117318Y-94110027D01*
X163139499Y-94027245D01*
X163139500Y-94027245D01*
X163139500Y-93941533D01*
X163139499Y-93941532D01*
X163124086Y-93884010D01*
X163117318Y-93858751D01*
X163083554Y-93800269D01*
X164953500Y-93800269D01*
X164953500Y-93905730D01*
X164980792Y-94007585D01*
X164980793Y-94007589D01*
X165016538Y-94069500D01*
X165033520Y-94098913D01*
X165108087Y-94173480D01*
X165141513Y-94192778D01*
X165199410Y-94226206D01*
X165199412Y-94226206D01*
X165199413Y-94226207D01*
X165263120Y-94243277D01*
X165301269Y-94253499D01*
X165301270Y-94253500D01*
X165301273Y-94253500D01*
X165406730Y-94253500D01*
X165406730Y-94253499D01*
X165508587Y-94226207D01*
X165509575Y-94225637D01*
X165539050Y-94208619D01*
X165599913Y-94173480D01*
X165674480Y-94098913D01*
X165720142Y-94019823D01*
X165727206Y-94007589D01*
X165727206Y-94007588D01*
X165727207Y-94007587D01*
X165754499Y-93905730D01*
X165754500Y-93905730D01*
X165754500Y-93800270D01*
X165754499Y-93800269D01*
X165734043Y-93723925D01*
X165727207Y-93698413D01*
X165727206Y-93698412D01*
X165727206Y-93698410D01*
X165693778Y-93640513D01*
X165674480Y-93607087D01*
X165599913Y-93532520D01*
X165508589Y-93479793D01*
X165508585Y-93479792D01*
X165406730Y-93452500D01*
X165406727Y-93452500D01*
X165301273Y-93452500D01*
X165301270Y-93452500D01*
X165199414Y-93479792D01*
X165199410Y-93479793D01*
X165108086Y-93532520D01*
X165108086Y-93532521D01*
X165033521Y-93607086D01*
X165033520Y-93607086D01*
X164980793Y-93698410D01*
X164980792Y-93698414D01*
X164953500Y-93800269D01*
X163083554Y-93800269D01*
X163074465Y-93784527D01*
X163013862Y-93723924D01*
X163007029Y-93719979D01*
X162939640Y-93681071D01*
X162939636Y-93681070D01*
X162856856Y-93658889D01*
X162856853Y-93658889D01*
X162771147Y-93658889D01*
X162771144Y-93658889D01*
X162688363Y-93681070D01*
X162688359Y-93681071D01*
X162614137Y-93723924D01*
X162614137Y-93723925D01*
X162553536Y-93784526D01*
X162553535Y-93784526D01*
X162510682Y-93858748D01*
X162510681Y-93858752D01*
X162488500Y-93941532D01*
X155790580Y-93941532D01*
X154566991Y-92717943D01*
X155630500Y-92717943D01*
X155630500Y-92803656D01*
X155652681Y-92886436D01*
X155652682Y-92886440D01*
X155680170Y-92934049D01*
X155695535Y-92960662D01*
X155756138Y-93021265D01*
X155770502Y-93029558D01*
X155830359Y-93064117D01*
X155830361Y-93064117D01*
X155830362Y-93064118D01*
X155895651Y-93081612D01*
X155913143Y-93086299D01*
X155913144Y-93086300D01*
X155913147Y-93086300D01*
X155998856Y-93086300D01*
X155998856Y-93086299D01*
X156081638Y-93064118D01*
X156155862Y-93021265D01*
X156216465Y-92960662D01*
X156259318Y-92886438D01*
X156281499Y-92803656D01*
X156281500Y-92803656D01*
X156281500Y-92717944D01*
X156281499Y-92717943D01*
X156265903Y-92659737D01*
X156259318Y-92635162D01*
X156259317Y-92635161D01*
X156259317Y-92635159D01*
X156216464Y-92560937D01*
X156155862Y-92500335D01*
X156081640Y-92457482D01*
X156081636Y-92457481D01*
X155998856Y-92435300D01*
X155998853Y-92435300D01*
X155913147Y-92435300D01*
X155913144Y-92435300D01*
X155830363Y-92457481D01*
X155830359Y-92457482D01*
X155756137Y-92500335D01*
X155756137Y-92500336D01*
X155695536Y-92560937D01*
X155695535Y-92560937D01*
X155652682Y-92635159D01*
X155652681Y-92635163D01*
X155630500Y-92717943D01*
X154566991Y-92717943D01*
X153909976Y-92060928D01*
X155112734Y-92060928D01*
X155112734Y-92140055D01*
X155133213Y-92216481D01*
X155133213Y-92216483D01*
X155168696Y-92277940D01*
X155172774Y-92285003D01*
X155228723Y-92340952D01*
X155297245Y-92380513D01*
X155332712Y-92390016D01*
X155373670Y-92400992D01*
X155373672Y-92400992D01*
X155452798Y-92400992D01*
X155479464Y-92393846D01*
X155529223Y-92380513D01*
X155597745Y-92340952D01*
X155653694Y-92285003D01*
X155693255Y-92216481D01*
X155694875Y-92210436D01*
X156449500Y-92210436D01*
X156449500Y-92289563D01*
X156469979Y-92365989D01*
X156469979Y-92365991D01*
X156497445Y-92413562D01*
X156509540Y-92434511D01*
X156565489Y-92490460D01*
X156634011Y-92530021D01*
X156669478Y-92539524D01*
X156710436Y-92550500D01*
X156710438Y-92550500D01*
X156789564Y-92550500D01*
X156818100Y-92542853D01*
X156865989Y-92530021D01*
X156934511Y-92490460D01*
X156990460Y-92434511D01*
X157030021Y-92365989D01*
X157050500Y-92289562D01*
X157050500Y-92210438D01*
X157050500Y-92210436D01*
X163449500Y-92210436D01*
X163449500Y-92289563D01*
X163469979Y-92365989D01*
X163469979Y-92365991D01*
X163497445Y-92413562D01*
X163509540Y-92434511D01*
X163565489Y-92490460D01*
X163634011Y-92530021D01*
X163669478Y-92539524D01*
X163710436Y-92550500D01*
X163710438Y-92550500D01*
X163789564Y-92550500D01*
X163818100Y-92542853D01*
X163865989Y-92530021D01*
X163934511Y-92490460D01*
X163967828Y-92457143D01*
X166924500Y-92457143D01*
X166924500Y-92542856D01*
X166946681Y-92625636D01*
X166946682Y-92625640D01*
X166975307Y-92675219D01*
X166989535Y-92699862D01*
X167050138Y-92760465D01*
X167077304Y-92776149D01*
X167124359Y-92803317D01*
X167124361Y-92803317D01*
X167124362Y-92803318D01*
X167189651Y-92820812D01*
X167207143Y-92825499D01*
X167207144Y-92825500D01*
X167207147Y-92825500D01*
X167292856Y-92825500D01*
X167292856Y-92825499D01*
X167375638Y-92803318D01*
X167449862Y-92760465D01*
X167510465Y-92699862D01*
X167553318Y-92625638D01*
X167575499Y-92542856D01*
X167575500Y-92542856D01*
X167575500Y-92457144D01*
X167575499Y-92457143D01*
X167568075Y-92429435D01*
X167553318Y-92374362D01*
X167553317Y-92374361D01*
X167553317Y-92374359D01*
X167526149Y-92327304D01*
X167510465Y-92300138D01*
X167449862Y-92239535D01*
X167449384Y-92239259D01*
X167375640Y-92196682D01*
X167375636Y-92196681D01*
X167292856Y-92174500D01*
X167292853Y-92174500D01*
X167207147Y-92174500D01*
X167207144Y-92174500D01*
X167124363Y-92196681D01*
X167124359Y-92196682D01*
X167050137Y-92239535D01*
X167050137Y-92239536D01*
X166989536Y-92300137D01*
X166989535Y-92300137D01*
X166946682Y-92374359D01*
X166946681Y-92374363D01*
X166924500Y-92457143D01*
X163967828Y-92457143D01*
X163990460Y-92434511D01*
X164030021Y-92365989D01*
X164050500Y-92289562D01*
X164050500Y-92210438D01*
X164050500Y-92210436D01*
X164035024Y-92152682D01*
X164030021Y-92134011D01*
X164030020Y-92134009D01*
X164030020Y-92134008D01*
X163993524Y-92070796D01*
X163990460Y-92065489D01*
X163934511Y-92009540D01*
X163908234Y-91994369D01*
X163865990Y-91969979D01*
X163789564Y-91949500D01*
X163789562Y-91949500D01*
X163710438Y-91949500D01*
X163710436Y-91949500D01*
X163634010Y-91969979D01*
X163634008Y-91969979D01*
X163565488Y-92009540D01*
X163565488Y-92009541D01*
X163509541Y-92065488D01*
X163509540Y-92065488D01*
X163469979Y-92134008D01*
X163469979Y-92134010D01*
X163449500Y-92210436D01*
X157050500Y-92210436D01*
X157035024Y-92152682D01*
X157030021Y-92134011D01*
X157030020Y-92134009D01*
X157030020Y-92134008D01*
X156993524Y-92070796D01*
X156990460Y-92065489D01*
X156934511Y-92009540D01*
X156908234Y-91994369D01*
X156865990Y-91969979D01*
X156789564Y-91949500D01*
X156789562Y-91949500D01*
X156710438Y-91949500D01*
X156710436Y-91949500D01*
X156634010Y-91969979D01*
X156634008Y-91969979D01*
X156565488Y-92009540D01*
X156565488Y-92009541D01*
X156509541Y-92065488D01*
X156509540Y-92065488D01*
X156469979Y-92134008D01*
X156469979Y-92134010D01*
X156449500Y-92210436D01*
X155694875Y-92210436D01*
X155697290Y-92201420D01*
X155699134Y-92194542D01*
X155699134Y-92194540D01*
X155710351Y-92152681D01*
X155713733Y-92140057D01*
X155713734Y-92140057D01*
X155713734Y-92060928D01*
X155699964Y-92009541D01*
X155693255Y-91984503D01*
X155693254Y-91984501D01*
X155693254Y-91984500D01*
X155659390Y-91925847D01*
X155653694Y-91915981D01*
X155597745Y-91860032D01*
X155596565Y-91859351D01*
X155529224Y-91820471D01*
X155452798Y-91799992D01*
X155452796Y-91799992D01*
X155373672Y-91799992D01*
X155373670Y-91799992D01*
X155297244Y-91820471D01*
X155297242Y-91820471D01*
X155228722Y-91860032D01*
X155228722Y-91860033D01*
X155172775Y-91915980D01*
X155172774Y-91915980D01*
X155133213Y-91984500D01*
X155133213Y-91984502D01*
X155112734Y-92060928D01*
X153909976Y-92060928D01*
X153336530Y-91487482D01*
X153323848Y-91465513D01*
X153321295Y-91455986D01*
X164590783Y-91455986D01*
X164590783Y-91561447D01*
X164618075Y-91663302D01*
X164618076Y-91663306D01*
X164651059Y-91720433D01*
X164670803Y-91754630D01*
X164745370Y-91829197D01*
X164762254Y-91838945D01*
X164836693Y-91881923D01*
X164836695Y-91881923D01*
X164836696Y-91881924D01*
X164903299Y-91899770D01*
X164938552Y-91909216D01*
X164938553Y-91909217D01*
X164938556Y-91909217D01*
X165044013Y-91909217D01*
X165044013Y-91909216D01*
X165145870Y-91881924D01*
X165237196Y-91829197D01*
X165311763Y-91754630D01*
X165364490Y-91663304D01*
X165391782Y-91561447D01*
X165391783Y-91561447D01*
X165391783Y-91455987D01*
X165391782Y-91455986D01*
X165376898Y-91400438D01*
X165364490Y-91354130D01*
X165364489Y-91354129D01*
X165364489Y-91354127D01*
X165326689Y-91288657D01*
X165311763Y-91262804D01*
X165237196Y-91188237D01*
X165232116Y-91185304D01*
X165145872Y-91135510D01*
X165145868Y-91135509D01*
X165044013Y-91108217D01*
X165044010Y-91108217D01*
X164938556Y-91108217D01*
X164938553Y-91108217D01*
X164836697Y-91135509D01*
X164836693Y-91135510D01*
X164745369Y-91188237D01*
X164745369Y-91188238D01*
X164670804Y-91262803D01*
X164670803Y-91262803D01*
X164618076Y-91354127D01*
X164618075Y-91354131D01*
X164590783Y-91455986D01*
X153321295Y-91455986D01*
X153301671Y-91382746D01*
X153296770Y-91374258D01*
X153267760Y-91324010D01*
X153252236Y-91297122D01*
X153182323Y-91227209D01*
X153156015Y-91212020D01*
X153096701Y-91177774D01*
X153096697Y-91177773D01*
X153001199Y-91152184D01*
X153001196Y-91152184D01*
X152902326Y-91152184D01*
X152902323Y-91152184D01*
X152806824Y-91177773D01*
X152806820Y-91177774D01*
X152721198Y-91227209D01*
X152721198Y-91227210D01*
X152659751Y-91288657D01*
X152625103Y-91303009D01*
X152590455Y-91288657D01*
X152576103Y-91254009D01*
X152576103Y-90263100D01*
X152576102Y-90263096D01*
X152573651Y-90257180D01*
X152561901Y-90228812D01*
X152553191Y-90207782D01*
X152215089Y-89869680D01*
X152200737Y-89835032D01*
X152215089Y-89800384D01*
X152241556Y-89787335D01*
X152241498Y-89787118D01*
X152242593Y-89786824D01*
X152243353Y-89786450D01*
X152244596Y-89786286D01*
X152244601Y-89786286D01*
X152321028Y-89765807D01*
X152389550Y-89726246D01*
X152445499Y-89670297D01*
X152485060Y-89601775D01*
X152488052Y-89590607D01*
X152510880Y-89560855D01*
X152548062Y-89555958D01*
X152570030Y-89568641D01*
X153230127Y-90228738D01*
X153237914Y-90238886D01*
X153248476Y-90257180D01*
X153262784Y-90281962D01*
X153318733Y-90337911D01*
X153387255Y-90377472D01*
X153413655Y-90384546D01*
X153463680Y-90397951D01*
X153463682Y-90397951D01*
X153542808Y-90397951D01*
X153569474Y-90390805D01*
X153619233Y-90377472D01*
X153687755Y-90337911D01*
X153743704Y-90281962D01*
X153783265Y-90213440D01*
X153803744Y-90137013D01*
X153803744Y-90037322D01*
X153803533Y-90036536D01*
X153802170Y-90031448D01*
X153798293Y-90016979D01*
X153783266Y-89960896D01*
X153767934Y-89934341D01*
X154294891Y-89934341D01*
X154294891Y-90020054D01*
X154317072Y-90102834D01*
X154317073Y-90102838D01*
X154356636Y-90171362D01*
X154359926Y-90177060D01*
X154420529Y-90237663D01*
X154447695Y-90253347D01*
X154494750Y-90280515D01*
X154494752Y-90280515D01*
X154494753Y-90280516D01*
X154543524Y-90293584D01*
X154577534Y-90302697D01*
X154577535Y-90302698D01*
X154577538Y-90302698D01*
X154663247Y-90302698D01*
X154663247Y-90302697D01*
X154746029Y-90280516D01*
X154820253Y-90237663D01*
X154880856Y-90177060D01*
X154883428Y-90172603D01*
X154913178Y-90149772D01*
X154950361Y-90154663D01*
X154960512Y-90162452D01*
X155020738Y-90222678D01*
X155039136Y-90233300D01*
X155112061Y-90275404D01*
X155112063Y-90275404D01*
X155112064Y-90275405D01*
X155151572Y-90285991D01*
X155213920Y-90302697D01*
X155213921Y-90302698D01*
X155213924Y-90302698D01*
X155319381Y-90302698D01*
X155319381Y-90302697D01*
X155421238Y-90275405D01*
X155512564Y-90222678D01*
X155587131Y-90148111D01*
X155639858Y-90056785D01*
X155667150Y-89954928D01*
X155667151Y-89954928D01*
X155667151Y-89849469D01*
X155667150Y-89849466D01*
X155665865Y-89844671D01*
X158797052Y-89844671D01*
X158797052Y-89923798D01*
X158817531Y-90000224D01*
X158817531Y-90000226D01*
X158851300Y-90058714D01*
X158857092Y-90068746D01*
X158913041Y-90124695D01*
X158953599Y-90148111D01*
X158975185Y-90160574D01*
X158981563Y-90164256D01*
X159012721Y-90172605D01*
X159057988Y-90184735D01*
X159057990Y-90184735D01*
X159137116Y-90184735D01*
X159165757Y-90177060D01*
X159213541Y-90164256D01*
X159219919Y-90160574D01*
X159219921Y-90160573D01*
X163406550Y-90160573D01*
X163406550Y-90266034D01*
X163433842Y-90367889D01*
X163433843Y-90367893D01*
X163478123Y-90444587D01*
X163486570Y-90459217D01*
X163561137Y-90533784D01*
X163566427Y-90536838D01*
X163652460Y-90586510D01*
X163652462Y-90586510D01*
X163652463Y-90586511D01*
X163703992Y-90600318D01*
X163754319Y-90613803D01*
X163754320Y-90613804D01*
X163754323Y-90613804D01*
X163859780Y-90613804D01*
X163859780Y-90613803D01*
X163961637Y-90586511D01*
X164052963Y-90533784D01*
X164127530Y-90459217D01*
X164180257Y-90367891D01*
X164207549Y-90266034D01*
X164207550Y-90266034D01*
X164207550Y-90160574D01*
X164207549Y-90160573D01*
X164195147Y-90114287D01*
X164180257Y-90058717D01*
X164180256Y-90058716D01*
X164180256Y-90058714D01*
X164127529Y-89967390D01*
X164052963Y-89892824D01*
X163961639Y-89840097D01*
X163961635Y-89840096D01*
X163859780Y-89812804D01*
X163859777Y-89812804D01*
X163754323Y-89812804D01*
X163754320Y-89812804D01*
X163652464Y-89840096D01*
X163652460Y-89840097D01*
X163561136Y-89892824D01*
X163561136Y-89892825D01*
X163486571Y-89967390D01*
X163486570Y-89967390D01*
X163433843Y-90058714D01*
X163433842Y-90058718D01*
X163406550Y-90160573D01*
X159219921Y-90160573D01*
X159222722Y-90158955D01*
X159282063Y-90124695D01*
X159338012Y-90068746D01*
X159377573Y-90000224D01*
X159398052Y-89923797D01*
X159398052Y-89844673D01*
X159398052Y-89844670D01*
X159398051Y-89844669D01*
X159387201Y-89804174D01*
X159384662Y-89794702D01*
X162072788Y-89794702D01*
X162072788Y-89873829D01*
X162093267Y-89950255D01*
X162093267Y-89950257D01*
X162129666Y-90013300D01*
X162132828Y-90018777D01*
X162188777Y-90074726D01*
X162257299Y-90114287D01*
X162292766Y-90123790D01*
X162333724Y-90134766D01*
X162333726Y-90134766D01*
X162412852Y-90134766D01*
X162439518Y-90127620D01*
X162489277Y-90114287D01*
X162557799Y-90074726D01*
X162613748Y-90018777D01*
X162653309Y-89950255D01*
X162669459Y-89889979D01*
X162673788Y-89873829D01*
X162673788Y-89794702D01*
X162663484Y-89756250D01*
X162653309Y-89718277D01*
X162653308Y-89718275D01*
X162653308Y-89718274D01*
X162628227Y-89674834D01*
X162613748Y-89649755D01*
X162557799Y-89593806D01*
X162552262Y-89590609D01*
X162489278Y-89554245D01*
X162412852Y-89533766D01*
X162412850Y-89533766D01*
X162333726Y-89533766D01*
X162333724Y-89533766D01*
X162257298Y-89554245D01*
X162257296Y-89554245D01*
X162188776Y-89593806D01*
X162188776Y-89593807D01*
X162132829Y-89649754D01*
X162132828Y-89649754D01*
X162093267Y-89718274D01*
X162093267Y-89718276D01*
X162072788Y-89794702D01*
X159384662Y-89794702D01*
X159381474Y-89782805D01*
X159377573Y-89768246D01*
X159377572Y-89768244D01*
X159377572Y-89768243D01*
X159349218Y-89719134D01*
X159338012Y-89699724D01*
X159282063Y-89643775D01*
X159213542Y-89604214D01*
X159137116Y-89583735D01*
X159137114Y-89583735D01*
X159057990Y-89583735D01*
X159057988Y-89583735D01*
X158981562Y-89604214D01*
X158981560Y-89604214D01*
X158913040Y-89643775D01*
X158913040Y-89643776D01*
X158857093Y-89699723D01*
X158857092Y-89699723D01*
X158817531Y-89768243D01*
X158817531Y-89768245D01*
X158797052Y-89844671D01*
X155665865Y-89844671D01*
X155650221Y-89786285D01*
X155639858Y-89747611D01*
X155639857Y-89747610D01*
X155639857Y-89747608D01*
X155599165Y-89677129D01*
X155587131Y-89656285D01*
X155512564Y-89581718D01*
X155489398Y-89568343D01*
X155421240Y-89528991D01*
X155421236Y-89528990D01*
X155319381Y-89501698D01*
X155319378Y-89501698D01*
X155213924Y-89501698D01*
X155213921Y-89501698D01*
X155112065Y-89528990D01*
X155112061Y-89528991D01*
X155020737Y-89581718D01*
X155020737Y-89581719D01*
X154946173Y-89656282D01*
X154946171Y-89656284D01*
X154946171Y-89656285D01*
X154934137Y-89677129D01*
X154909885Y-89719134D01*
X154880132Y-89741964D01*
X154842949Y-89737068D01*
X154832803Y-89729282D01*
X154820254Y-89716734D01*
X154820253Y-89716733D01*
X154746031Y-89673880D01*
X154746027Y-89673879D01*
X154663247Y-89651698D01*
X154663244Y-89651698D01*
X154577538Y-89651698D01*
X154577535Y-89651698D01*
X154494754Y-89673879D01*
X154494750Y-89673880D01*
X154420528Y-89716733D01*
X154420528Y-89716734D01*
X154359927Y-89777335D01*
X154359926Y-89777335D01*
X154317073Y-89851557D01*
X154317072Y-89851561D01*
X154294891Y-89934341D01*
X153767934Y-89934341D01*
X153743704Y-89892373D01*
X152596657Y-88745326D01*
X152596653Y-88745324D01*
X152596651Y-88745322D01*
X152588229Y-88740460D01*
X152528136Y-88705765D01*
X152451710Y-88685286D01*
X152451708Y-88685286D01*
X150039562Y-88685286D01*
X146519629Y-88685286D01*
X146440505Y-88685286D01*
X146440502Y-88685286D01*
X146364080Y-88705763D01*
X146364077Y-88705764D01*
X146295555Y-88745326D01*
X143179971Y-91860910D01*
X143145323Y-91875262D01*
X143110675Y-91860910D01*
X143097993Y-91838945D01*
X143094331Y-91825279D01*
X143090413Y-91810657D01*
X143090412Y-91810655D01*
X143090412Y-91810654D01*
X143063244Y-91763599D01*
X143047560Y-91736433D01*
X142986957Y-91675830D01*
X142965265Y-91663306D01*
X142912735Y-91632977D01*
X142912731Y-91632976D01*
X142829951Y-91610795D01*
X142829948Y-91610795D01*
X142744242Y-91610795D01*
X142744239Y-91610795D01*
X142661458Y-91632976D01*
X142661454Y-91632977D01*
X142587232Y-91675830D01*
X142587232Y-91675831D01*
X142526631Y-91736432D01*
X142526630Y-91736432D01*
X142483777Y-91810654D01*
X142483776Y-91810658D01*
X142461595Y-91893438D01*
X142461595Y-91979151D01*
X142483776Y-92061931D01*
X142483777Y-92061935D01*
X142524802Y-92132991D01*
X142526630Y-92136157D01*
X142587233Y-92196760D01*
X142638483Y-92226349D01*
X142661323Y-92239536D01*
X142661457Y-92239613D01*
X142678357Y-92244141D01*
X142689745Y-92247193D01*
X142719497Y-92270023D01*
X142724392Y-92307206D01*
X142711710Y-92329171D01*
X142455536Y-92585346D01*
X142420888Y-92599698D01*
X141502238Y-92599698D01*
X141425812Y-92620177D01*
X141425810Y-92620177D01*
X141357292Y-92659737D01*
X141315100Y-92701929D01*
X141280451Y-92716280D01*
X141245803Y-92701928D01*
X141231452Y-92667279D01*
X141238015Y-92642783D01*
X141273318Y-92581638D01*
X141295499Y-92498856D01*
X141295500Y-92498856D01*
X141295500Y-92413144D01*
X141295499Y-92413143D01*
X141286756Y-92380513D01*
X141273318Y-92330362D01*
X141273317Y-92330361D01*
X141273317Y-92330359D01*
X141238481Y-92270023D01*
X141230465Y-92256138D01*
X141169862Y-92195535D01*
X141168139Y-92194540D01*
X141095640Y-92152682D01*
X141095636Y-92152681D01*
X141012856Y-92130500D01*
X141012853Y-92130500D01*
X140927147Y-92130500D01*
X140927144Y-92130500D01*
X140844363Y-92152681D01*
X140844359Y-92152682D01*
X140770137Y-92195535D01*
X140770137Y-92195536D01*
X140709536Y-92256137D01*
X140709535Y-92256137D01*
X140666682Y-92330359D01*
X140666681Y-92330363D01*
X140644500Y-92413143D01*
X140644500Y-92498856D01*
X140666681Y-92581636D01*
X140666682Y-92581640D01*
X140706491Y-92650589D01*
X140709535Y-92655862D01*
X140770138Y-92716465D01*
X140793128Y-92729738D01*
X140844359Y-92759317D01*
X140844361Y-92759317D01*
X140844362Y-92759318D01*
X140909651Y-92776812D01*
X140927143Y-92781499D01*
X140927144Y-92781500D01*
X140927147Y-92781500D01*
X141012856Y-92781500D01*
X141012856Y-92781499D01*
X141095638Y-92759318D01*
X141156782Y-92724016D01*
X141193962Y-92719121D01*
X141223715Y-92741951D01*
X141228611Y-92779134D01*
X141215928Y-92801100D01*
X141113881Y-92903148D01*
X141079233Y-92917500D01*
X140535329Y-92917500D01*
X140458905Y-92937978D01*
X140458901Y-92937979D01*
X140446204Y-92945311D01*
X140390388Y-92977535D01*
X140390379Y-92977542D01*
X138259541Y-95108381D01*
X138259540Y-95108381D01*
X138219979Y-95176901D01*
X138219978Y-95176904D01*
X138214556Y-95197140D01*
X138201874Y-95219104D01*
X137615637Y-95805342D01*
X137580989Y-95819694D01*
X137546341Y-95805342D01*
X137533659Y-95783378D01*
X137530667Y-95772209D01*
X137529680Y-95770500D01*
X137491105Y-95703686D01*
X137435157Y-95647738D01*
X137366636Y-95608177D01*
X137290210Y-95587698D01*
X137290208Y-95587698D01*
X137211084Y-95587698D01*
X137211082Y-95587698D01*
X137134656Y-95608177D01*
X137134654Y-95608177D01*
X137066134Y-95647738D01*
X137066134Y-95647739D01*
X137010187Y-95703686D01*
X137010186Y-95703686D01*
X136970625Y-95772206D01*
X136970625Y-95772208D01*
X136950146Y-95848634D01*
X136950146Y-95927761D01*
X136970625Y-96004187D01*
X136970625Y-96004189D01*
X137002910Y-96060107D01*
X137010186Y-96072709D01*
X137066135Y-96128658D01*
X137099891Y-96148147D01*
X137134653Y-96168217D01*
X137134657Y-96168219D01*
X137145824Y-96171211D01*
X137175577Y-96194040D01*
X137180473Y-96231222D01*
X137167790Y-96253189D01*
X137051634Y-96369346D01*
X137016986Y-96383698D01*
X136944066Y-96383698D01*
X136919566Y-96377133D01*
X136845358Y-96334288D01*
X136845354Y-96334287D01*
X136749856Y-96308698D01*
X136749853Y-96308698D01*
X136650983Y-96308698D01*
X136650980Y-96308698D01*
X136555481Y-96334287D01*
X136555477Y-96334288D01*
X136469855Y-96383723D01*
X136469855Y-96383724D01*
X136399944Y-96453635D01*
X136399943Y-96453635D01*
X136350508Y-96539257D01*
X136350507Y-96539261D01*
X136324918Y-96634760D01*
X134978171Y-96634760D01*
X135028222Y-96584709D01*
X135067783Y-96516187D01*
X135087013Y-96444421D01*
X135088262Y-96439761D01*
X135088262Y-96360634D01*
X135076188Y-96315578D01*
X135067783Y-96284209D01*
X135067782Y-96284207D01*
X135067782Y-96284206D01*
X135028221Y-96215686D01*
X134972273Y-96159738D01*
X134903752Y-96120177D01*
X134827326Y-96099698D01*
X134827324Y-96099698D01*
X134748200Y-96099698D01*
X134748198Y-96099698D01*
X134671772Y-96120177D01*
X134671770Y-96120177D01*
X134603250Y-96159738D01*
X134603250Y-96159739D01*
X134547303Y-96215686D01*
X134547302Y-96215686D01*
X134507741Y-96284206D01*
X134507741Y-96284208D01*
X134487262Y-96360634D01*
X133700000Y-96360634D01*
X133700000Y-94243267D01*
X133714352Y-94208619D01*
X133749000Y-94194267D01*
X133783648Y-94208619D01*
X133815489Y-94240460D01*
X133884011Y-94280021D01*
X133912695Y-94287707D01*
X133960436Y-94300500D01*
X133960438Y-94300500D01*
X134039564Y-94300500D01*
X134096482Y-94285248D01*
X134115989Y-94280021D01*
X134138097Y-94267256D01*
X134175277Y-94262361D01*
X134205031Y-94285191D01*
X134209927Y-94322373D01*
X134205031Y-94334192D01*
X134183197Y-94372008D01*
X134183197Y-94372010D01*
X134162718Y-94448436D01*
X134162718Y-94527563D01*
X134183197Y-94603989D01*
X134183197Y-94603991D01*
X134208537Y-94647880D01*
X134222758Y-94672511D01*
X134278707Y-94728460D01*
X134299490Y-94740459D01*
X134334141Y-94760465D01*
X134347229Y-94768021D01*
X134370640Y-94774294D01*
X134423654Y-94788500D01*
X134423656Y-94788500D01*
X134502782Y-94788500D01*
X134534427Y-94780020D01*
X134579207Y-94768021D01*
X134647729Y-94728460D01*
X134703678Y-94672511D01*
X134743239Y-94603989D01*
X134763718Y-94527562D01*
X134763718Y-94448438D01*
X134763718Y-94448436D01*
X134743239Y-94372011D01*
X134739587Y-94365686D01*
X134714040Y-94321436D01*
X136605500Y-94321436D01*
X136605500Y-94400563D01*
X136625979Y-94476989D01*
X136625979Y-94476991D01*
X136657496Y-94531578D01*
X136665540Y-94545511D01*
X136721489Y-94601460D01*
X136790011Y-94641021D01*
X136815609Y-94647880D01*
X136866436Y-94661500D01*
X136866438Y-94661500D01*
X136945564Y-94661500D01*
X136978127Y-94652774D01*
X137021989Y-94641021D01*
X137090511Y-94601460D01*
X137146460Y-94545511D01*
X137186021Y-94476989D01*
X137206500Y-94400562D01*
X137206500Y-94321438D01*
X137206500Y-94321436D01*
X137194543Y-94276814D01*
X137186021Y-94245011D01*
X137186020Y-94245009D01*
X137186020Y-94245008D01*
X137146459Y-94176488D01*
X137090511Y-94120540D01*
X137021990Y-94080979D01*
X136945564Y-94060500D01*
X136945562Y-94060500D01*
X136866438Y-94060500D01*
X136866436Y-94060500D01*
X136790010Y-94080979D01*
X136790008Y-94080979D01*
X136721488Y-94120540D01*
X136721488Y-94120541D01*
X136665541Y-94176488D01*
X136665540Y-94176488D01*
X136625979Y-94245008D01*
X136625979Y-94245010D01*
X136605500Y-94321436D01*
X134714040Y-94321436D01*
X134703678Y-94303489D01*
X134647729Y-94247540D01*
X134579208Y-94207979D01*
X134502782Y-94187500D01*
X134502780Y-94187500D01*
X134423656Y-94187500D01*
X134423654Y-94187500D01*
X134347228Y-94207979D01*
X134325120Y-94220743D01*
X134287938Y-94225637D01*
X134258185Y-94202806D01*
X134253291Y-94165624D01*
X134258182Y-94153814D01*
X134280021Y-94115989D01*
X134294847Y-94060658D01*
X134300500Y-94039563D01*
X134300500Y-93960436D01*
X134287958Y-93913631D01*
X134280021Y-93884011D01*
X134280020Y-93884009D01*
X134280020Y-93884008D01*
X134240459Y-93815488D01*
X134184511Y-93759540D01*
X134115990Y-93719979D01*
X134039564Y-93699500D01*
X134039562Y-93699500D01*
X133960438Y-93699500D01*
X133960436Y-93699500D01*
X133884010Y-93719979D01*
X133884008Y-93719979D01*
X133815488Y-93759540D01*
X133815488Y-93759541D01*
X133783648Y-93791381D01*
X133749000Y-93805733D01*
X133714352Y-93791381D01*
X133700000Y-93756733D01*
X133700000Y-93534036D01*
X135437100Y-93534036D01*
X135437100Y-93613163D01*
X135457579Y-93689589D01*
X135457579Y-93689591D01*
X135493188Y-93751266D01*
X135497140Y-93758111D01*
X135553089Y-93814060D01*
X135621611Y-93853621D01*
X135657078Y-93863124D01*
X135698036Y-93874100D01*
X135698038Y-93874100D01*
X135777164Y-93874100D01*
X135803830Y-93866954D01*
X135853589Y-93853621D01*
X135922111Y-93814060D01*
X135978060Y-93758111D01*
X136017621Y-93689589D01*
X136037342Y-93615991D01*
X136038100Y-93613163D01*
X136038100Y-93534036D01*
X136023812Y-93480716D01*
X136023812Y-93480715D01*
X136021274Y-93471243D01*
X138324733Y-93471243D01*
X138324733Y-93550370D01*
X138345212Y-93626796D01*
X138345212Y-93626798D01*
X138384773Y-93695318D01*
X138440722Y-93751267D01*
X138470884Y-93768681D01*
X138498328Y-93784526D01*
X138509244Y-93790828D01*
X138544478Y-93800269D01*
X138585669Y-93811307D01*
X138585671Y-93811307D01*
X138664797Y-93811307D01*
X138691463Y-93804161D01*
X138741222Y-93790828D01*
X138809744Y-93751267D01*
X138865693Y-93695318D01*
X138905254Y-93626796D01*
X138925733Y-93550369D01*
X138925733Y-93471245D01*
X138925733Y-93471243D01*
X138907262Y-93402313D01*
X138905254Y-93394818D01*
X138905253Y-93394816D01*
X138905253Y-93394815D01*
X138880172Y-93351375D01*
X138865693Y-93326296D01*
X138809744Y-93270347D01*
X138796475Y-93262686D01*
X138741223Y-93230786D01*
X138664797Y-93210307D01*
X138664795Y-93210307D01*
X138585671Y-93210307D01*
X138585669Y-93210307D01*
X138509243Y-93230786D01*
X138509241Y-93230786D01*
X138440721Y-93270347D01*
X138440721Y-93270348D01*
X138384774Y-93326295D01*
X138384773Y-93326295D01*
X138345212Y-93394815D01*
X138345212Y-93394817D01*
X138324733Y-93471243D01*
X136021274Y-93471243D01*
X136017621Y-93457611D01*
X136017620Y-93457610D01*
X136017620Y-93457608D01*
X135985694Y-93402312D01*
X135978060Y-93389089D01*
X135922111Y-93333140D01*
X135910255Y-93326295D01*
X135853590Y-93293579D01*
X135777164Y-93273100D01*
X135777162Y-93273100D01*
X135698038Y-93273100D01*
X135698036Y-93273100D01*
X135621610Y-93293579D01*
X135621608Y-93293579D01*
X135553088Y-93333140D01*
X135553088Y-93333141D01*
X135497141Y-93389088D01*
X135497140Y-93389088D01*
X135457579Y-93457608D01*
X135457579Y-93457610D01*
X135437100Y-93534036D01*
X133700000Y-93534036D01*
X133700000Y-92518036D01*
X135945100Y-92518036D01*
X135945100Y-92597163D01*
X135965579Y-92673589D01*
X135965579Y-92673591D01*
X135994693Y-92724017D01*
X136005140Y-92742111D01*
X136061089Y-92798060D01*
X136129611Y-92837621D01*
X136165078Y-92847124D01*
X136206036Y-92858100D01*
X136206038Y-92858100D01*
X136285164Y-92858100D01*
X136311830Y-92850954D01*
X136361589Y-92837621D01*
X136430111Y-92798060D01*
X136486060Y-92742111D01*
X136525621Y-92673589D01*
X136544239Y-92604108D01*
X136546100Y-92597163D01*
X136546100Y-92518036D01*
X136531540Y-92463701D01*
X136525621Y-92441611D01*
X136525620Y-92441609D01*
X136525620Y-92441608D01*
X136490346Y-92380513D01*
X136486060Y-92373089D01*
X136430111Y-92317140D01*
X136400661Y-92300137D01*
X136361590Y-92277579D01*
X136285164Y-92257100D01*
X136285162Y-92257100D01*
X136206038Y-92257100D01*
X136206036Y-92257100D01*
X136129610Y-92277579D01*
X136129608Y-92277579D01*
X136061088Y-92317140D01*
X136061088Y-92317141D01*
X136005141Y-92373088D01*
X136005140Y-92373088D01*
X135965579Y-92441608D01*
X135965579Y-92441610D01*
X135945100Y-92518036D01*
X133700000Y-92518036D01*
X133700000Y-91400436D01*
X134167100Y-91400436D01*
X134167100Y-91479563D01*
X134187579Y-91555989D01*
X134187579Y-91555991D01*
X134199778Y-91577119D01*
X134227140Y-91624511D01*
X134283089Y-91680460D01*
X134294883Y-91687269D01*
X134341878Y-91714402D01*
X134351611Y-91720021D01*
X134387078Y-91729524D01*
X134428036Y-91740500D01*
X134428038Y-91740500D01*
X134507164Y-91740500D01*
X134533830Y-91733354D01*
X134583589Y-91720021D01*
X134652111Y-91680460D01*
X134697295Y-91635276D01*
X136345802Y-91635276D01*
X136345802Y-91714403D01*
X136366281Y-91790829D01*
X136366281Y-91790831D01*
X136402020Y-91852731D01*
X136405842Y-91859351D01*
X136461791Y-91915300D01*
X136530313Y-91954861D01*
X136561382Y-91963186D01*
X136606738Y-91975340D01*
X136606740Y-91975340D01*
X136685866Y-91975340D01*
X136712532Y-91968194D01*
X136762291Y-91954861D01*
X136830813Y-91915300D01*
X136886762Y-91859351D01*
X136926323Y-91790829D01*
X136945187Y-91720430D01*
X136946802Y-91714403D01*
X136946802Y-91635276D01*
X136946653Y-91634720D01*
X139596998Y-91634720D01*
X139596998Y-91720433D01*
X139619179Y-91803213D01*
X139619180Y-91803217D01*
X139657679Y-91869898D01*
X139662033Y-91877439D01*
X139722636Y-91938042D01*
X139742482Y-91949500D01*
X139796857Y-91980894D01*
X139796859Y-91980894D01*
X139796860Y-91980895D01*
X139847146Y-91994369D01*
X139879641Y-92003076D01*
X139879642Y-92003077D01*
X139879645Y-92003077D01*
X139965354Y-92003077D01*
X139965354Y-92003076D01*
X140048136Y-91980895D01*
X140122360Y-91938042D01*
X140182963Y-91877439D01*
X140225816Y-91803215D01*
X140247997Y-91720433D01*
X140247998Y-91720433D01*
X140247998Y-91634721D01*
X140247997Y-91634720D01*
X140232481Y-91576814D01*
X140225816Y-91551939D01*
X140225815Y-91551938D01*
X140225815Y-91551936D01*
X140198647Y-91504881D01*
X140182963Y-91477715D01*
X140122360Y-91417112D01*
X140093480Y-91400438D01*
X140048138Y-91374259D01*
X140048134Y-91374258D01*
X139965354Y-91352077D01*
X139965351Y-91352077D01*
X139879645Y-91352077D01*
X139879642Y-91352077D01*
X139796861Y-91374258D01*
X139796857Y-91374259D01*
X139722635Y-91417112D01*
X139722635Y-91417113D01*
X139662034Y-91477714D01*
X139662033Y-91477714D01*
X139619180Y-91551936D01*
X139619179Y-91551940D01*
X139596998Y-91634720D01*
X136946653Y-91634720D01*
X136931136Y-91576814D01*
X136926323Y-91558851D01*
X136926322Y-91558849D01*
X136926322Y-91558848D01*
X136886761Y-91490328D01*
X136830813Y-91434380D01*
X136762292Y-91394819D01*
X136685866Y-91374340D01*
X136685864Y-91374340D01*
X136606740Y-91374340D01*
X136606738Y-91374340D01*
X136530312Y-91394819D01*
X136530310Y-91394819D01*
X136461790Y-91434380D01*
X136461790Y-91434381D01*
X136405843Y-91490328D01*
X136405842Y-91490328D01*
X136366281Y-91558848D01*
X136366281Y-91558850D01*
X136345802Y-91635276D01*
X134697295Y-91635276D01*
X134708060Y-91624511D01*
X134745969Y-91558850D01*
X134747620Y-91555991D01*
X134747620Y-91555990D01*
X134747621Y-91555989D01*
X134768100Y-91479562D01*
X134768100Y-91400438D01*
X134768100Y-91400436D01*
X134755692Y-91354131D01*
X134747621Y-91324011D01*
X134747620Y-91324009D01*
X134747620Y-91324008D01*
X134712283Y-91262804D01*
X134708060Y-91255489D01*
X134652111Y-91199540D01*
X134635963Y-91190217D01*
X134583590Y-91159979D01*
X134507164Y-91139500D01*
X134507162Y-91139500D01*
X134428038Y-91139500D01*
X134428036Y-91139500D01*
X134351610Y-91159979D01*
X134351608Y-91159979D01*
X134283088Y-91199540D01*
X134283088Y-91199541D01*
X134227141Y-91255488D01*
X134227140Y-91255488D01*
X134187579Y-91324008D01*
X134187579Y-91324010D01*
X134167100Y-91400436D01*
X133700000Y-91400436D01*
X133700000Y-91047320D01*
X133700723Y-91038934D01*
X133700863Y-91038128D01*
X133701085Y-91036935D01*
X133701202Y-91036344D01*
X133701230Y-91036030D01*
X133701389Y-91035116D01*
X133700514Y-90998201D01*
X133700500Y-90997039D01*
X133700500Y-90892436D01*
X136402300Y-90892436D01*
X136402300Y-90971563D01*
X136422779Y-91047989D01*
X136422779Y-91047991D01*
X136456787Y-91106893D01*
X136462340Y-91116511D01*
X136518289Y-91172460D01*
X136586811Y-91212021D01*
X136604598Y-91216787D01*
X136663236Y-91232500D01*
X136663238Y-91232500D01*
X136742364Y-91232500D01*
X136769030Y-91225354D01*
X136818789Y-91212021D01*
X136887311Y-91172460D01*
X136943260Y-91116511D01*
X136948811Y-91106894D01*
X136978561Y-91084064D01*
X137015743Y-91088957D01*
X137033680Y-91106893D01*
X137043961Y-91124699D01*
X137043963Y-91124702D01*
X137104566Y-91185305D01*
X137113074Y-91190217D01*
X137178787Y-91228157D01*
X137178789Y-91228157D01*
X137178790Y-91228158D01*
X137194995Y-91232500D01*
X137261571Y-91250339D01*
X137261572Y-91250340D01*
X137261575Y-91250340D01*
X137347284Y-91250340D01*
X137347284Y-91250339D01*
X137430066Y-91228158D01*
X137504290Y-91185305D01*
X137564893Y-91124702D01*
X137607746Y-91050478D01*
X137629927Y-90967696D01*
X137629928Y-90967696D01*
X137629928Y-90881984D01*
X137629927Y-90881983D01*
X137619142Y-90841734D01*
X137607746Y-90799202D01*
X137607745Y-90799201D01*
X137607745Y-90799199D01*
X137564892Y-90724977D01*
X137504290Y-90664375D01*
X137430068Y-90621522D01*
X137430064Y-90621521D01*
X137347284Y-90599340D01*
X137347281Y-90599340D01*
X137261575Y-90599340D01*
X137261572Y-90599340D01*
X137178791Y-90621521D01*
X137178787Y-90621522D01*
X137104565Y-90664375D01*
X137104565Y-90664376D01*
X137043965Y-90724975D01*
X137043963Y-90724977D01*
X137043963Y-90724978D01*
X137029548Y-90749946D01*
X136999794Y-90772776D01*
X136962612Y-90767880D01*
X136944680Y-90749949D01*
X136943260Y-90747489D01*
X136887311Y-90691540D01*
X136818790Y-90651979D01*
X136742364Y-90631500D01*
X136742362Y-90631500D01*
X136663238Y-90631500D01*
X136663236Y-90631500D01*
X136586810Y-90651979D01*
X136586808Y-90651979D01*
X136518288Y-90691540D01*
X136518288Y-90691541D01*
X136462341Y-90747488D01*
X136462340Y-90747488D01*
X136422779Y-90816008D01*
X136422779Y-90816010D01*
X136402300Y-90892436D01*
X133700500Y-90892436D01*
X133700500Y-90130436D01*
X142904700Y-90130436D01*
X142904700Y-90209563D01*
X142925179Y-90285989D01*
X142925179Y-90285991D01*
X142955155Y-90337910D01*
X142964740Y-90354511D01*
X143020689Y-90410460D01*
X143089211Y-90450021D01*
X143123530Y-90459217D01*
X143165636Y-90470500D01*
X143165638Y-90470500D01*
X143244764Y-90470500D01*
X143271430Y-90463354D01*
X143321189Y-90450021D01*
X143389711Y-90410460D01*
X143445660Y-90354511D01*
X143485221Y-90285989D01*
X143504441Y-90214260D01*
X143505700Y-90209563D01*
X143505700Y-90130436D01*
X143496777Y-90097137D01*
X143485221Y-90054011D01*
X143485220Y-90054009D01*
X143485220Y-90054008D01*
X143449893Y-89992821D01*
X143445660Y-89985489D01*
X143404719Y-89944548D01*
X143390367Y-89909900D01*
X143404719Y-89875252D01*
X143439367Y-89860900D01*
X143447964Y-89860900D01*
X143474630Y-89853754D01*
X143524389Y-89840421D01*
X143592911Y-89800860D01*
X143648860Y-89744911D01*
X143687994Y-89677129D01*
X143688420Y-89676391D01*
X143688420Y-89676390D01*
X143688421Y-89676389D01*
X143700886Y-89629866D01*
X143703760Y-89619143D01*
X143946500Y-89619143D01*
X143946500Y-89704856D01*
X143968681Y-89787636D01*
X143968682Y-89787640D01*
X144001609Y-89844670D01*
X144011535Y-89861862D01*
X144072138Y-89922465D01*
X144096794Y-89936700D01*
X144146359Y-89965317D01*
X144146361Y-89965317D01*
X144146362Y-89965318D01*
X144190550Y-89977158D01*
X144229143Y-89987499D01*
X144229144Y-89987500D01*
X144229147Y-89987500D01*
X144314856Y-89987500D01*
X144314856Y-89987499D01*
X144397638Y-89965318D01*
X144471862Y-89922465D01*
X144532465Y-89861862D01*
X144569576Y-89797583D01*
X144575317Y-89787640D01*
X144575317Y-89787639D01*
X144575318Y-89787638D01*
X144597499Y-89704856D01*
X144597500Y-89704856D01*
X144597500Y-89619144D01*
X144597499Y-89619143D01*
X144577903Y-89546010D01*
X144575318Y-89536362D01*
X144575317Y-89536361D01*
X144575317Y-89536359D01*
X144540600Y-89476228D01*
X144532465Y-89462138D01*
X144471862Y-89401535D01*
X144397640Y-89358682D01*
X144397636Y-89358681D01*
X144314856Y-89336500D01*
X144314853Y-89336500D01*
X144229147Y-89336500D01*
X144229144Y-89336500D01*
X144146363Y-89358681D01*
X144146359Y-89358682D01*
X144072137Y-89401535D01*
X144072137Y-89401536D01*
X144011536Y-89462137D01*
X144011535Y-89462137D01*
X143968682Y-89536359D01*
X143968681Y-89536363D01*
X143946500Y-89619143D01*
X143703760Y-89619143D01*
X143708019Y-89603252D01*
X143708019Y-89603251D01*
X143708553Y-89601253D01*
X143708899Y-89599965D01*
X143708900Y-89599965D01*
X143708900Y-89520836D01*
X143696947Y-89476229D01*
X143688421Y-89444411D01*
X143688420Y-89444409D01*
X143688420Y-89444408D01*
X143648859Y-89375888D01*
X143592911Y-89319940D01*
X143524390Y-89280379D01*
X143447964Y-89259900D01*
X143447962Y-89259900D01*
X143368838Y-89259900D01*
X143368836Y-89259900D01*
X143292410Y-89280379D01*
X143292408Y-89280379D01*
X143223888Y-89319940D01*
X143223888Y-89319941D01*
X143167941Y-89375888D01*
X143167940Y-89375888D01*
X143128379Y-89444408D01*
X143128379Y-89444410D01*
X143107900Y-89520836D01*
X143107900Y-89599963D01*
X143128379Y-89676389D01*
X143128379Y-89676391D01*
X143167940Y-89744911D01*
X143208881Y-89785852D01*
X143223233Y-89820500D01*
X143208881Y-89855148D01*
X143174233Y-89869500D01*
X143165636Y-89869500D01*
X143089210Y-89889979D01*
X143089208Y-89889979D01*
X143020688Y-89929540D01*
X143020688Y-89929541D01*
X142964741Y-89985488D01*
X142964740Y-89985488D01*
X142925179Y-90054008D01*
X142925179Y-90054010D01*
X142904700Y-90130436D01*
X133700500Y-90130436D01*
X133700500Y-89677124D01*
X137559043Y-89677124D01*
X137559043Y-89756251D01*
X137579522Y-89832677D01*
X137579522Y-89832679D01*
X137613987Y-89892373D01*
X137619083Y-89901199D01*
X137675032Y-89957148D01*
X137703599Y-89973641D01*
X137738307Y-89993680D01*
X137743554Y-89996709D01*
X137779021Y-90006212D01*
X137819979Y-90017188D01*
X137819981Y-90017188D01*
X137899107Y-90017188D01*
X137925773Y-90010042D01*
X137975532Y-89996709D01*
X137980779Y-89993680D01*
X137984713Y-89991408D01*
X138044054Y-89957148D01*
X138100003Y-89901199D01*
X138139564Y-89832677D01*
X138157482Y-89765807D01*
X138160043Y-89756251D01*
X138160043Y-89677129D01*
X138160043Y-89677126D01*
X138159001Y-89673236D01*
X140771100Y-89673236D01*
X140771100Y-89752363D01*
X140791579Y-89828789D01*
X140791579Y-89828791D01*
X140818404Y-89875252D01*
X140831140Y-89897311D01*
X140887089Y-89953260D01*
X140922390Y-89973641D01*
X140955070Y-89992509D01*
X140955611Y-89992821D01*
X140991078Y-90002324D01*
X141032036Y-90013300D01*
X141032038Y-90013300D01*
X141111164Y-90013300D01*
X141137830Y-90006154D01*
X141187589Y-89992821D01*
X141188130Y-89992509D01*
X141214718Y-89977158D01*
X141256111Y-89953260D01*
X141312060Y-89897311D01*
X141349376Y-89832677D01*
X141351620Y-89828791D01*
X141351620Y-89828790D01*
X141351621Y-89828789D01*
X141372100Y-89752362D01*
X141372100Y-89673238D01*
X141372100Y-89673236D01*
X141357605Y-89619143D01*
X141351621Y-89596811D01*
X141351620Y-89596809D01*
X141351620Y-89596808D01*
X141322290Y-89546008D01*
X141312060Y-89528289D01*
X141256111Y-89472340D01*
X141210877Y-89446224D01*
X141187590Y-89432779D01*
X141111164Y-89412300D01*
X141111162Y-89412300D01*
X141032038Y-89412300D01*
X141032036Y-89412300D01*
X140955610Y-89432779D01*
X140955608Y-89432779D01*
X140887088Y-89472340D01*
X140887088Y-89472341D01*
X140831141Y-89528288D01*
X140831140Y-89528288D01*
X140791579Y-89596808D01*
X140791579Y-89596810D01*
X140771100Y-89673236D01*
X138159001Y-89673236D01*
X138139564Y-89600699D01*
X138139563Y-89600697D01*
X138139563Y-89600696D01*
X138107988Y-89546008D01*
X138100003Y-89532177D01*
X138044054Y-89476228D01*
X137975533Y-89436667D01*
X137899107Y-89416188D01*
X137899105Y-89416188D01*
X137819981Y-89416188D01*
X137819979Y-89416188D01*
X137743553Y-89436667D01*
X137743551Y-89436667D01*
X137675031Y-89476228D01*
X137675031Y-89476229D01*
X137619084Y-89532176D01*
X137619083Y-89532176D01*
X137579522Y-89600696D01*
X137579522Y-89600698D01*
X137559043Y-89677124D01*
X133700500Y-89677124D01*
X133700500Y-88249500D01*
X133714852Y-88214852D01*
X133749500Y-88200500D01*
X135707606Y-88200500D01*
X135742254Y-88214852D01*
G37*
%TD.AperFunction*%
%TD*%
M02*
