%TF.GenerationSoftware,KiCad,Pcbnew,10.0.3*%
%TF.CreationDate,2026-07-16T14:50:01-04:00*%
%TF.ProjectId,ESP32-S3 Small Camera,45535033-322d-4533-9320-536d616c6c20,rev?*%
%TF.SameCoordinates,Original*%
%TF.FileFunction,Copper,L3,Inr*%
%TF.FilePolarity,Positive*%
%FSLAX46Y46*%
G04 Gerber Fmt 4.6, Leading zero omitted, Abs format (unit mm)*
G04 Created by KiCad (PCBNEW 10.0.3) date 2026-07-16 14:50:01*
%MOMM*%
%LPD*%
G01*
G04 APERTURE LIST*
%TA.AperFunction,ViaPad*%
%ADD10C,0.350000*%
%TD*%
%TA.AperFunction,ViaPad*%
%ADD11C,0.450000*%
%TD*%
%TA.AperFunction,ViaPad*%
%ADD12C,0.400000*%
%TD*%
%TA.AperFunction,ViaPad*%
%ADD13C,0.600000*%
%TD*%
%TA.AperFunction,ViaPad*%
%ADD14C,0.550000*%
%TD*%
%TA.AperFunction,ViaPad*%
%ADD15C,0.500000*%
%TD*%
%TA.AperFunction,Conductor*%
%ADD16C,0.200000*%
%TD*%
%TA.AperFunction,Conductor*%
%ADD17C,0.100000*%
%TD*%
G04 APERTURE END LIST*
D10*
%TO.N,Net-(U3-TS{slash}MR)*%
X152205039Y-89485786D03*
%TO.N,GND*%
X163145095Y-99404825D03*
D11*
X167250000Y-96000000D03*
D10*
X147421600Y-91998800D03*
X147000000Y-95000000D03*
X155413234Y-92100492D03*
D11*
X139922498Y-91677577D03*
D10*
X148500000Y-95500000D03*
X149368005Y-96108585D03*
X136906000Y-94361000D03*
X149500000Y-93500000D03*
D11*
X149250400Y-89611200D03*
D12*
X141523711Y-97717018D03*
D10*
X155244800Y-98450400D03*
D11*
X157000000Y-94500000D03*
D10*
X153877737Y-97084883D03*
D11*
X167250000Y-92500000D03*
D10*
X136042400Y-97536000D03*
X147500000Y-94500000D03*
D11*
X143052800Y-88493600D03*
D10*
X136357913Y-99510032D03*
D11*
X163500000Y-95500000D03*
D10*
X134000000Y-94000000D03*
X148082016Y-93214070D03*
D12*
X162373288Y-89834266D03*
D11*
X137304428Y-90924840D03*
D10*
X150785221Y-94217271D03*
D13*
X165354000Y-93853000D03*
D11*
X155158368Y-94574431D03*
D10*
X134787762Y-96400198D03*
X146500000Y-93500000D03*
D11*
X135993364Y-88493365D03*
D10*
X137859543Y-89716688D03*
X144217762Y-97790198D03*
X149000000Y-94500000D03*
D11*
X142787095Y-91936295D03*
D10*
X153217762Y-94550198D03*
X163000000Y-88500000D03*
D11*
X140970000Y-92456000D03*
D10*
X147523200Y-99625000D03*
X137250646Y-95888198D03*
X159097552Y-89884235D03*
X157696657Y-97077363D03*
X140747762Y-94488000D03*
D11*
X154620391Y-89977198D03*
X153000000Y-88500000D03*
D10*
X163750000Y-92250000D03*
X145491200Y-97028000D03*
X137856199Y-88720717D03*
X156750000Y-92250000D03*
D11*
X155956000Y-92760800D03*
X162814000Y-93984389D03*
D10*
X140868400Y-99585198D03*
D11*
X144272000Y-89662000D03*
D10*
X147500000Y-96000000D03*
X142433283Y-93729119D03*
X146500000Y-96500000D03*
%TO.N,DOVDD*%
X143535430Y-97799205D03*
X136245600Y-92557600D03*
X139000000Y-95500000D03*
%TO.N,VBUS*%
X166471600Y-94742000D03*
D14*
X159145839Y-96607436D03*
X152951761Y-91527684D03*
D10*
%TO.N,VBUS_SENSE*%
X148539200Y-90576400D03*
X165862000Y-94589600D03*
%TO.N,CS*%
X154889200Y-96164400D03*
X152490795Y-96150198D03*
D11*
%TO.N,VCC_3V3*%
X151252222Y-88432644D03*
X140117762Y-94520198D03*
X160318843Y-99402055D03*
D10*
X148147762Y-92000198D03*
X152317762Y-99250198D03*
X150817762Y-90170000D03*
D15*
X154533600Y-98501200D03*
D10*
X151978975Y-91561645D03*
D12*
X135145083Y-91473715D03*
X135382000Y-94615000D03*
D10*
X134213600Y-98907600D03*
X156757276Y-97576098D03*
X136477762Y-97750198D03*
D11*
X145037762Y-88900000D03*
D10*
X150368000Y-93280198D03*
X159620781Y-96097608D03*
X149362762Y-92105198D03*
D12*
X141173200Y-89154000D03*
D10*
%TO.N,BOOT*%
X156697762Y-98060198D03*
X145542000Y-93820198D03*
%TO.N,RESET*%
X160389363Y-98539107D03*
X145314965Y-93400198D03*
D13*
%TO.N,B-*%
X164991283Y-91508717D03*
D10*
%TO.N,CAM_EN*%
X151301551Y-90016720D03*
D12*
X134463218Y-94488000D03*
D11*
X149225000Y-90297000D03*
D10*
%TO.N,VDD3P3*%
X143777762Y-92395198D03*
%TO.N,Y4*%
X142955651Y-94243616D03*
%TO.N,Y3*%
X143420462Y-94525708D03*
%TO.N,Y5*%
X143919644Y-94917376D03*
%TO.N,Y2*%
X142881026Y-95320198D03*
%TO.N,Y6*%
X143847762Y-95640198D03*
%TO.N,PCLK*%
X143357762Y-95970997D03*
%TO.N,Y7*%
X143129000Y-96393000D03*
%TO.N,SDA*%
X152425603Y-93217801D03*
X143807750Y-96743000D03*
X151638000Y-89662000D03*
%TO.N,SCL*%
X152857762Y-92970198D03*
X151781681Y-90144087D03*
X143361727Y-97100198D03*
%TO.N,Y8*%
X141447762Y-99585198D03*
X145457762Y-97610198D03*
%TO.N,MCLK_3V3*%
X144749750Y-97828852D03*
X134467600Y-91440000D03*
%TO.N,Y9*%
X142477762Y-99585198D03*
X146205612Y-97559947D03*
%TO.N,HREF*%
X146667762Y-97450198D03*
X144003284Y-99602693D03*
%TO.N,PWDN_3V3*%
X143205200Y-90170000D03*
X147152005Y-97406255D03*
%TO.N,Net-(U8-XTAL_32K_P)*%
X153060400Y-98806000D03*
X147857762Y-97370198D03*
%TO.N,GPout*%
X153771600Y-98755200D03*
X148442187Y-99139107D03*
%TO.N,VSYNC*%
X148360342Y-97433387D03*
X144977762Y-99585198D03*
%TO.N,RST_CM_3V3*%
X143408400Y-89560400D03*
X151587200Y-99060000D03*
%TO.N,D-*%
X149479000Y-98933000D03*
X155750000Y-98250000D03*
%TO.N,D+*%
X157255063Y-97361305D03*
X150021594Y-99077085D03*
%TO.N,INT_BQ25180*%
X151372483Y-90817086D03*
X150465783Y-98893801D03*
%TO.N,WP*%
X156413200Y-96367600D03*
X152197762Y-96570198D03*
%TO.N,DO*%
X152437762Y-95310198D03*
X155697762Y-96090198D03*
%TO.N,BTTN*%
X153314400Y-98399600D03*
D11*
X162219459Y-98497576D03*
D10*
%TO.N,SCCB_SDA*%
X150041760Y-92110358D03*
X147015200Y-99585198D03*
X136646302Y-91674840D03*
%TO.N,SCCB_SCL*%
X138625233Y-93510807D03*
X148808846Y-92093428D03*
X145977762Y-99585198D03*
%TO.N,DVDD*%
X143487762Y-99585198D03*
D15*
%TO.N,D-X*%
X167000000Y-97155000D03*
%TO.N,D+X*%
X165500000Y-96000000D03*
D11*
%TO.N,Net-(R4-Pad1)*%
X158421657Y-97380781D03*
X164500000Y-97250000D03*
%TO.N,Net-(R3-Pad1)*%
X162323540Y-99229999D03*
X159395123Y-98075199D03*
D12*
%TO.N,LOAD_SYS*%
X153503244Y-90097451D03*
D14*
X136700418Y-96684198D03*
D13*
%TO.N,B+*%
X163807050Y-90213304D03*
X155266651Y-89902198D03*
X159258000Y-88646000D03*
D10*
%TO.N,PWDN_CAM*%
X144477762Y-99625000D03*
X136702800Y-90932000D03*
%TO.N,RST_CM_CAM*%
X141071600Y-89712800D03*
X143662400Y-88544400D03*
X145477762Y-99625000D03*
%TO.N,MCLK_CAM*%
X135737600Y-93573600D03*
X141977762Y-99585198D03*
%TD*%
%TO.N,DOVDD*%
D16*
X142171584Y-97799205D02*
X139872379Y-95500000D01*
X143535430Y-97799205D02*
X142171584Y-97799205D01*
X139872379Y-95500000D02*
X139000000Y-95500000D01*
%TO.N,CS*%
D17*
X152490795Y-96150198D02*
X152504997Y-96164400D01*
X152504997Y-96164400D02*
X154889200Y-96164400D01*
%TO.N,BOOT*%
X156697762Y-98060198D02*
X157720133Y-98060198D01*
X157875000Y-97905331D02*
X157875000Y-97594669D01*
X153534467Y-92420198D02*
X150945899Y-92420198D01*
X157720133Y-98060198D02*
X157875000Y-97905331D01*
X150945899Y-92420198D02*
X150616507Y-92749590D01*
X157875000Y-97594669D02*
X158046657Y-97423012D01*
X150616507Y-92749590D02*
X146612608Y-92749590D01*
X158046657Y-97423012D02*
X158046657Y-96932388D01*
X146612608Y-92749590D02*
X145542000Y-93820198D01*
X158046657Y-96932388D02*
X153534467Y-92420198D01*
%TO.N,RESET*%
X150075177Y-91648800D02*
X150379061Y-91952684D01*
X153802940Y-91952684D02*
X160389363Y-98539107D01*
X145314965Y-93400198D02*
X147066363Y-91648800D01*
X147066363Y-91648800D02*
X150075177Y-91648800D01*
X150379061Y-91952684D02*
X153802940Y-91952684D01*
%TO.N,CAM_EN*%
X149225000Y-90297000D02*
X149154400Y-90226400D01*
X136501327Y-91324840D02*
X134463218Y-93362949D01*
X149702000Y-89820000D02*
X149225000Y-90297000D01*
X146441535Y-90226400D02*
X141875135Y-94792800D01*
X151301551Y-90016720D02*
X151104831Y-89820000D01*
X134463218Y-93362949D02*
X134463218Y-94488000D01*
X149154400Y-90226400D02*
X146441535Y-90226400D01*
X151104831Y-89820000D02*
X149702000Y-89820000D01*
X138407175Y-91324840D02*
X136501327Y-91324840D01*
X141875135Y-94792800D02*
X138407175Y-91324840D01*
%TO.N,SDA*%
X143807750Y-96743000D02*
X144794960Y-96743000D01*
X152425603Y-92907382D02*
X152425603Y-93217801D01*
X152712787Y-92620198D02*
X152425603Y-92907382D01*
X153002737Y-92620198D02*
X152712787Y-92620198D01*
X151638000Y-89662000D02*
X151646362Y-89670362D01*
X146183025Y-96678000D02*
X146505025Y-97000000D01*
X144794960Y-96743000D02*
X144859960Y-96678000D01*
X144859960Y-96678000D02*
X146183025Y-96678000D01*
X149421222Y-97000000D02*
X153207762Y-93213460D01*
X146505025Y-97000000D02*
X149421222Y-97000000D01*
X153207762Y-92825223D02*
X153002737Y-92620198D01*
X153207762Y-93213460D02*
X153207762Y-92825223D01*
%TO.N,SCL*%
X143543586Y-95290198D02*
X145659795Y-95290198D01*
X142779000Y-96054784D02*
X143543586Y-95290198D01*
X148155025Y-95350000D02*
X148355025Y-95150000D01*
X142779000Y-96537975D02*
X142779000Y-96054784D01*
X150848181Y-95290198D02*
X152857762Y-93280617D01*
X143361727Y-97100198D02*
X143341223Y-97100198D01*
X150707983Y-95150000D02*
X150848181Y-95290198D01*
X145719597Y-95350000D02*
X148155025Y-95350000D01*
X152857762Y-93280617D02*
X152857762Y-92970198D01*
X148355025Y-95150000D02*
X150707983Y-95150000D01*
X145659795Y-95290198D02*
X145719597Y-95350000D01*
X143341223Y-97100198D02*
X142779000Y-96537975D01*
%TO.N,Net-(U8-XTAL_32K_P)*%
X147857762Y-97290198D02*
X147857762Y-97370198D01*
%TO.N,GPout*%
X148903278Y-99600198D02*
X148442187Y-99139107D01*
X153771600Y-98755200D02*
X152926602Y-99600198D01*
X152926602Y-99600198D02*
X148903278Y-99600198D01*
%TO.N,D-*%
X155500000Y-98000000D02*
X155750000Y-98250000D01*
X150412000Y-98000000D02*
X155500000Y-98000000D01*
X149479000Y-98933000D02*
X150412000Y-98000000D01*
%TO.N,D+*%
X156612301Y-97226098D02*
X156338399Y-97500000D01*
X149815679Y-99283000D02*
X150021594Y-99077085D01*
X149129000Y-99077975D02*
X149334025Y-99283000D01*
X156338399Y-97500000D02*
X150417025Y-97500000D01*
X157255063Y-97361305D02*
X157231107Y-97361305D01*
X157095900Y-97226098D02*
X156612301Y-97226098D01*
X157231107Y-97361305D02*
X157095900Y-97226098D01*
X149129000Y-98788025D02*
X149129000Y-99077975D01*
X150417025Y-97500000D02*
X149129000Y-98788025D01*
X149334025Y-99283000D02*
X149815679Y-99283000D01*
%TO.N,INT_BQ25180*%
X151372483Y-90817086D02*
X151372483Y-90801313D01*
X150465783Y-98893801D02*
X150421563Y-98893801D01*
X151355543Y-90784373D02*
X151333587Y-90784373D01*
X151372483Y-90801313D02*
X151355543Y-90784373D01*
%TO.N,WP*%
X156210602Y-96570198D02*
X156413200Y-96367600D01*
X152197762Y-96570198D02*
X156210602Y-96570198D01*
%TO.N,DO*%
X154917762Y-95310198D02*
X155697762Y-96090198D01*
X152437762Y-95310198D02*
X154917762Y-95310198D01*
%TO.N,SCCB_SDA*%
X136646302Y-91674840D02*
X138429577Y-91674840D01*
X145107762Y-97607762D02*
X145107762Y-97755173D01*
X146937787Y-99585198D02*
X147015200Y-99585198D01*
X142579000Y-96812446D02*
X143216752Y-97450198D01*
X145107762Y-97755173D02*
X146937787Y-99585198D01*
X144940198Y-97440198D02*
X145107762Y-97607762D01*
X142579000Y-95824263D02*
X142579000Y-96812446D01*
X143390455Y-97449205D02*
X143550795Y-97449205D01*
X143559802Y-97440198D02*
X144940198Y-97440198D01*
X143550795Y-97449205D02*
X143559802Y-97440198D01*
X143216752Y-97450198D02*
X143389462Y-97450198D01*
X138429577Y-91674840D02*
X142579000Y-95824263D01*
X143389462Y-97450198D02*
X143390455Y-97449205D01*
%TO.N,SCCB_SCL*%
X138625233Y-93510807D02*
X138625233Y-95620208D01*
X138625233Y-95620208D02*
X142240223Y-99235198D01*
X145627762Y-99235198D02*
X145977762Y-99585198D01*
X142240223Y-99235198D02*
X145627762Y-99235198D01*
%TD*%
%TA.AperFunction,Conductor*%
%TO.N,GND*%
G36*
X143508831Y-88214852D02*
G01*
X143523183Y-88249500D01*
X143508831Y-88284148D01*
X143498684Y-88291933D01*
X143490665Y-88296563D01*
X143477888Y-88303940D01*
X143477888Y-88303941D01*
X143421941Y-88359888D01*
X143421940Y-88359888D01*
X143382379Y-88428408D01*
X143382379Y-88428410D01*
X143361900Y-88504836D01*
X143361900Y-88583963D01*
X143382379Y-88660389D01*
X143382379Y-88660391D01*
X143421940Y-88728911D01*
X143477889Y-88784860D01*
X143546411Y-88824421D01*
X143581878Y-88833924D01*
X143622836Y-88844900D01*
X143622838Y-88844900D01*
X143701964Y-88844900D01*
X143728630Y-88837754D01*
X143778389Y-88824421D01*
X143778391Y-88824420D01*
X143803049Y-88810184D01*
X143815296Y-88803112D01*
X143846911Y-88784860D01*
X143902860Y-88728911D01*
X143942421Y-88660389D01*
X143960759Y-88591954D01*
X143962900Y-88583963D01*
X143962900Y-88504836D01*
X143954243Y-88472534D01*
X143942421Y-88428411D01*
X143942420Y-88428409D01*
X143942420Y-88428408D01*
X143902859Y-88359888D01*
X143846911Y-88303940D01*
X143845536Y-88303146D01*
X143826116Y-88291934D01*
X143803287Y-88262182D01*
X143808182Y-88225000D01*
X143837935Y-88202170D01*
X143850617Y-88200500D01*
X150913978Y-88200500D01*
X150948626Y-88214852D01*
X150962978Y-88249500D01*
X150956414Y-88273999D01*
X150939586Y-88303146D01*
X150939585Y-88303148D01*
X150916722Y-88388473D01*
X150916722Y-88388475D01*
X150916722Y-88476813D01*
X150939586Y-88562142D01*
X150959695Y-88596973D01*
X150983752Y-88638642D01*
X150983754Y-88638644D01*
X150983755Y-88638646D01*
X151046220Y-88701111D01*
X151122724Y-88745280D01*
X151165388Y-88756712D01*
X151208051Y-88768144D01*
X151208053Y-88768144D01*
X151296393Y-88768144D01*
X151330522Y-88758998D01*
X151381720Y-88745280D01*
X151458224Y-88701111D01*
X151520689Y-88638646D01*
X151564858Y-88562142D01*
X151587722Y-88476813D01*
X151587722Y-88388475D01*
X151587722Y-88388473D01*
X151576290Y-88345810D01*
X151564858Y-88303146D01*
X151548029Y-88273998D01*
X151543136Y-88236817D01*
X151565967Y-88207064D01*
X151590466Y-88200500D01*
X159025758Y-88200500D01*
X159060406Y-88214852D01*
X159074758Y-88249500D01*
X159060406Y-88284148D01*
X159050258Y-88291935D01*
X159005953Y-88317513D01*
X159005944Y-88317520D01*
X158929520Y-88393944D01*
X158929513Y-88393953D01*
X158875475Y-88487550D01*
X158875474Y-88487554D01*
X158847500Y-88591954D01*
X158847500Y-88700045D01*
X158875474Y-88804445D01*
X158875475Y-88804449D01*
X158929513Y-88898046D01*
X158929516Y-88898050D01*
X158929518Y-88898053D01*
X159005947Y-88974482D01*
X159005950Y-88974483D01*
X159005953Y-88974486D01*
X159099550Y-89028524D01*
X159099552Y-89028524D01*
X159099553Y-89028525D01*
X159120542Y-89034149D01*
X159203954Y-89056500D01*
X159203957Y-89056500D01*
X159312045Y-89056500D01*
X159364245Y-89042512D01*
X159416447Y-89028525D01*
X159510053Y-88974482D01*
X159586482Y-88898053D01*
X159640525Y-88804447D01*
X159660765Y-88728911D01*
X159668500Y-88700045D01*
X159668500Y-88591954D01*
X159647518Y-88513654D01*
X159640525Y-88487553D01*
X159640524Y-88487552D01*
X159640524Y-88487550D01*
X159586486Y-88393953D01*
X159586483Y-88393950D01*
X159586482Y-88393947D01*
X159510053Y-88317518D01*
X159510050Y-88317516D01*
X159510046Y-88317513D01*
X159465742Y-88291935D01*
X159442912Y-88262183D01*
X159447807Y-88225000D01*
X159477559Y-88202170D01*
X159490242Y-88200500D01*
X168250500Y-88200500D01*
X168285148Y-88214852D01*
X168299500Y-88249500D01*
X168299500Y-90998402D01*
X168298897Y-91036723D01*
X168299500Y-91038246D01*
X168299500Y-91042143D01*
X168300000Y-91047222D01*
X168300000Y-96952780D01*
X168299214Y-96961524D01*
X168298896Y-96963272D01*
X168299494Y-97001215D01*
X168299500Y-97001986D01*
X168299500Y-99750500D01*
X168285148Y-99785148D01*
X168250500Y-99799500D01*
X160484318Y-99799500D01*
X160449670Y-99785148D01*
X160435318Y-99750500D01*
X160449670Y-99715852D01*
X160459813Y-99708067D01*
X160524845Y-99670522D01*
X160587310Y-99608057D01*
X160631479Y-99531553D01*
X160654343Y-99446224D01*
X160654343Y-99357886D01*
X160654343Y-99357884D01*
X160641638Y-99310471D01*
X160631479Y-99272557D01*
X160587310Y-99196053D01*
X160524845Y-99133588D01*
X160524843Y-99133587D01*
X160524841Y-99133585D01*
X160483172Y-99109528D01*
X160448341Y-99089419D01*
X160448338Y-99089418D01*
X160363014Y-99066555D01*
X160363012Y-99066555D01*
X160274674Y-99066555D01*
X160274672Y-99066555D01*
X160189347Y-99089418D01*
X160189345Y-99089419D01*
X160112844Y-99133585D01*
X160112838Y-99133590D01*
X160050378Y-99196050D01*
X160050373Y-99196056D01*
X160006207Y-99272557D01*
X160006206Y-99272559D01*
X159983343Y-99357884D01*
X159983343Y-99446225D01*
X159989502Y-99469209D01*
X160006207Y-99531553D01*
X160014337Y-99545634D01*
X160050373Y-99608053D01*
X160050375Y-99608055D01*
X160050376Y-99608057D01*
X160112841Y-99670522D01*
X160177869Y-99708065D01*
X160200698Y-99737817D01*
X160195804Y-99775000D01*
X160166051Y-99797830D01*
X160153368Y-99799500D01*
X153072578Y-99799500D01*
X153037930Y-99785148D01*
X153023578Y-99750500D01*
X153037930Y-99715852D01*
X153575111Y-99178669D01*
X153685253Y-99068526D01*
X153719900Y-99054175D01*
X153728847Y-99055354D01*
X153728857Y-99055281D01*
X153732038Y-99055700D01*
X153811164Y-99055700D01*
X153845649Y-99046459D01*
X153887589Y-99035221D01*
X153956111Y-98995660D01*
X154012060Y-98939711D01*
X154049139Y-98875488D01*
X154051620Y-98871191D01*
X154051620Y-98871190D01*
X154051621Y-98871189D01*
X154071786Y-98795933D01*
X154072100Y-98794763D01*
X154072100Y-98715636D01*
X154059105Y-98667141D01*
X154051621Y-98639211D01*
X154051620Y-98639209D01*
X154051620Y-98639208D01*
X154012059Y-98570688D01*
X153956111Y-98514740D01*
X153887590Y-98475179D01*
X153811164Y-98454700D01*
X153811162Y-98454700D01*
X153732038Y-98454700D01*
X153732035Y-98454700D01*
X153676582Y-98469559D01*
X153639400Y-98464664D01*
X153616570Y-98434911D01*
X153614900Y-98422229D01*
X153614900Y-98360036D01*
X153606243Y-98327734D01*
X153594421Y-98283611D01*
X153594420Y-98283609D01*
X153594420Y-98283608D01*
X153565778Y-98234000D01*
X153560883Y-98196818D01*
X153583713Y-98167065D01*
X153608213Y-98160500D01*
X154246180Y-98160500D01*
X154280828Y-98174852D01*
X154295180Y-98209500D01*
X154280828Y-98244148D01*
X154245129Y-98279847D01*
X154245128Y-98279847D01*
X154197667Y-98362050D01*
X154197666Y-98362053D01*
X154173100Y-98453735D01*
X154173100Y-98548664D01*
X154197666Y-98640346D01*
X154197667Y-98640349D01*
X154237471Y-98709290D01*
X154245128Y-98722552D01*
X154312248Y-98789672D01*
X154394452Y-98837133D01*
X154425914Y-98845563D01*
X154486135Y-98861699D01*
X154486136Y-98861700D01*
X154486139Y-98861700D01*
X154581064Y-98861700D01*
X154581064Y-98861699D01*
X154672748Y-98837133D01*
X154754952Y-98789672D01*
X154822072Y-98722552D01*
X154869533Y-98640348D01*
X154894099Y-98548664D01*
X154894100Y-98548664D01*
X154894100Y-98453736D01*
X154894099Y-98453735D01*
X154871148Y-98368080D01*
X154869533Y-98362052D01*
X154822072Y-98279848D01*
X154786372Y-98244148D01*
X154772020Y-98209500D01*
X154786372Y-98174852D01*
X154821020Y-98160500D01*
X155400500Y-98160500D01*
X155435148Y-98174852D01*
X155449500Y-98209500D01*
X155449500Y-98289563D01*
X155469979Y-98365989D01*
X155469979Y-98365991D01*
X155502962Y-98423117D01*
X155509540Y-98434511D01*
X155565489Y-98490460D01*
X155634011Y-98530021D01*
X155669478Y-98539524D01*
X155710436Y-98550500D01*
X155710438Y-98550500D01*
X155789564Y-98550500D01*
X155816230Y-98543354D01*
X155865989Y-98530021D01*
X155934511Y-98490460D01*
X155990460Y-98434511D01*
X156030021Y-98365989D01*
X156050500Y-98289562D01*
X156050500Y-98210438D01*
X156050500Y-98210436D01*
X156041322Y-98176187D01*
X156030021Y-98134011D01*
X156030020Y-98134009D01*
X156030020Y-98134008D01*
X155992667Y-98069312D01*
X155990460Y-98065489D01*
X155934511Y-98009540D01*
X155911492Y-97996250D01*
X155865990Y-97969979D01*
X155789564Y-97949500D01*
X155789562Y-97949500D01*
X155710438Y-97949500D01*
X155710435Y-97949500D01*
X155707251Y-97949919D01*
X155707109Y-97948845D01*
X155673794Y-97944455D01*
X155663652Y-97936671D01*
X155590918Y-97863936D01*
X155531926Y-97839500D01*
X155531925Y-97839500D01*
X150443925Y-97839500D01*
X150422803Y-97839500D01*
X150388155Y-97825148D01*
X150373803Y-97790500D01*
X150388155Y-97755852D01*
X150469155Y-97674852D01*
X150503803Y-97660500D01*
X156370322Y-97660500D01*
X156370324Y-97660500D01*
X156407336Y-97645168D01*
X156444835Y-97645168D01*
X156471355Y-97671686D01*
X156473415Y-97677757D01*
X156477254Y-97692085D01*
X156477255Y-97692089D01*
X156518354Y-97763273D01*
X156523249Y-97800455D01*
X156510568Y-97822421D01*
X156457301Y-97875688D01*
X156417741Y-97944206D01*
X156417741Y-97944208D01*
X156397262Y-98020634D01*
X156397262Y-98099761D01*
X156417741Y-98176187D01*
X156417741Y-98176189D01*
X156450866Y-98233562D01*
X156457302Y-98244709D01*
X156513251Y-98300658D01*
X156581773Y-98340219D01*
X156617240Y-98349722D01*
X156658198Y-98360698D01*
X156658200Y-98360698D01*
X156737326Y-98360698D01*
X156763992Y-98353552D01*
X156813751Y-98340219D01*
X156882273Y-98300658D01*
X156938222Y-98244709D01*
X156938227Y-98244700D01*
X156940178Y-98242159D01*
X156941038Y-98242819D01*
X156967695Y-98222367D01*
X156980375Y-98220698D01*
X157752056Y-98220698D01*
X157752058Y-98220698D01*
X157811049Y-98196263D01*
X157811051Y-98196261D01*
X157811052Y-98196261D01*
X158011063Y-97996250D01*
X158011063Y-97996249D01*
X158011065Y-97996247D01*
X158035500Y-97937256D01*
X158035500Y-97873406D01*
X158035500Y-97681445D01*
X158049851Y-97646798D01*
X158096880Y-97599768D01*
X158131528Y-97585417D01*
X158166176Y-97599769D01*
X158215655Y-97649248D01*
X158215656Y-97649249D01*
X158215658Y-97649250D01*
X158231825Y-97658584D01*
X158292159Y-97693417D01*
X158334823Y-97704849D01*
X158377486Y-97716281D01*
X158377488Y-97716281D01*
X158465828Y-97716281D01*
X158501377Y-97706755D01*
X158551155Y-97693417D01*
X158627659Y-97649248D01*
X158690124Y-97586783D01*
X158734293Y-97510279D01*
X158757157Y-97424950D01*
X158757157Y-97336612D01*
X158757157Y-97336610D01*
X158745662Y-97293711D01*
X158734293Y-97251283D01*
X158728781Y-97241737D01*
X158723887Y-97204556D01*
X158746717Y-97174803D01*
X158783899Y-97169908D01*
X158805865Y-97182590D01*
X159300421Y-97677146D01*
X159314773Y-97711794D01*
X159300421Y-97746442D01*
X159278458Y-97759124D01*
X159265625Y-97762563D01*
X159189124Y-97806729D01*
X159189118Y-97806734D01*
X159126658Y-97869194D01*
X159126653Y-97869200D01*
X159082487Y-97945701D01*
X159082486Y-97945703D01*
X159059623Y-98031028D01*
X159059623Y-98119369D01*
X159080227Y-98196263D01*
X159082487Y-98204697D01*
X159096581Y-98229109D01*
X159126653Y-98281197D01*
X159126655Y-98281199D01*
X159126656Y-98281201D01*
X159189121Y-98343666D01*
X159265625Y-98387835D01*
X159308289Y-98399267D01*
X159350952Y-98410699D01*
X159350954Y-98410699D01*
X159439294Y-98410699D01*
X159473423Y-98401553D01*
X159524621Y-98387835D01*
X159601125Y-98343666D01*
X159663590Y-98281201D01*
X159707759Y-98204697D01*
X159711197Y-98191865D01*
X159734026Y-98162113D01*
X159771208Y-98157217D01*
X159793175Y-98169900D01*
X160076034Y-98452759D01*
X160090386Y-98487407D01*
X160089209Y-98496348D01*
X160089282Y-98496358D01*
X160088863Y-98499542D01*
X160088863Y-98578670D01*
X160109342Y-98655096D01*
X160109342Y-98655098D01*
X160144296Y-98715638D01*
X160148903Y-98723618D01*
X160204852Y-98779567D01*
X160273374Y-98819128D01*
X160308841Y-98828631D01*
X160349799Y-98839607D01*
X160349801Y-98839607D01*
X160428927Y-98839607D01*
X160455593Y-98832461D01*
X160505352Y-98819128D01*
X160573874Y-98779567D01*
X160629823Y-98723618D01*
X160669384Y-98655096D01*
X160689863Y-98578669D01*
X160689863Y-98499545D01*
X160689863Y-98499543D01*
X160680038Y-98462878D01*
X160678050Y-98455460D01*
X160677499Y-98453405D01*
X161883959Y-98453405D01*
X161883959Y-98541746D01*
X161893853Y-98578669D01*
X161906823Y-98627074D01*
X161926932Y-98661905D01*
X161950989Y-98703574D01*
X161950991Y-98703576D01*
X161950992Y-98703578D01*
X162013457Y-98766043D01*
X162013458Y-98766044D01*
X162013460Y-98766045D01*
X162014141Y-98766438D01*
X162089961Y-98810212D01*
X162124777Y-98819541D01*
X162173545Y-98832609D01*
X162203297Y-98855439D01*
X162208192Y-98892622D01*
X162185362Y-98922374D01*
X162117544Y-98961527D01*
X162117535Y-98961534D01*
X162055075Y-99023994D01*
X162055070Y-99024000D01*
X162010904Y-99100501D01*
X162010903Y-99100503D01*
X161988040Y-99185828D01*
X161988040Y-99274169D01*
X162007894Y-99348263D01*
X162010904Y-99359497D01*
X162028849Y-99390579D01*
X162055070Y-99435997D01*
X162055072Y-99435999D01*
X162055073Y-99436001D01*
X162117538Y-99498466D01*
X162194042Y-99542635D01*
X162236706Y-99554067D01*
X162279369Y-99565499D01*
X162279371Y-99565499D01*
X162367711Y-99565499D01*
X162401840Y-99556353D01*
X162453038Y-99542635D01*
X162529542Y-99498466D01*
X162592007Y-99436001D01*
X162636176Y-99359497D01*
X162656106Y-99285117D01*
X162659040Y-99274169D01*
X162659040Y-99185828D01*
X162645041Y-99133585D01*
X162636176Y-99100501D01*
X162592007Y-99023997D01*
X162529542Y-98961532D01*
X162529540Y-98961531D01*
X162529538Y-98961529D01*
X162461717Y-98922374D01*
X162453038Y-98917363D01*
X162453035Y-98917362D01*
X162369453Y-98894965D01*
X162339700Y-98872134D01*
X162334806Y-98834952D01*
X162357634Y-98805201D01*
X162425461Y-98766043D01*
X162487926Y-98703578D01*
X162532095Y-98627074D01*
X162554959Y-98541745D01*
X162554959Y-98453407D01*
X162554959Y-98453405D01*
X162537389Y-98387835D01*
X162532095Y-98368078D01*
X162487926Y-98291574D01*
X162425461Y-98229109D01*
X162425459Y-98229108D01*
X162425457Y-98229106D01*
X162383172Y-98204694D01*
X162348957Y-98184940D01*
X162348954Y-98184939D01*
X162263630Y-98162076D01*
X162263628Y-98162076D01*
X162175290Y-98162076D01*
X162175288Y-98162076D01*
X162089963Y-98184939D01*
X162089961Y-98184940D01*
X162013460Y-98229106D01*
X162013454Y-98229111D01*
X161950994Y-98291571D01*
X161950989Y-98291577D01*
X161906823Y-98368078D01*
X161906822Y-98368080D01*
X161883959Y-98453405D01*
X160677499Y-98453405D01*
X160669384Y-98423118D01*
X160669383Y-98423116D01*
X160669383Y-98423115D01*
X160636402Y-98365991D01*
X160629823Y-98354596D01*
X160573874Y-98298647D01*
X160505353Y-98259086D01*
X160428927Y-98238607D01*
X160428925Y-98238607D01*
X160349801Y-98238607D01*
X160349798Y-98238607D01*
X160346614Y-98239026D01*
X160346472Y-98237952D01*
X160313157Y-98233562D01*
X160303015Y-98225778D01*
X159283066Y-97205829D01*
X164164500Y-97205829D01*
X164164500Y-97294170D01*
X164186521Y-97376352D01*
X164187364Y-97379498D01*
X164195636Y-97393825D01*
X164231530Y-97455998D01*
X164231532Y-97456000D01*
X164231533Y-97456002D01*
X164293998Y-97518467D01*
X164293999Y-97518468D01*
X164294001Y-97518469D01*
X164310168Y-97527803D01*
X164370502Y-97562636D01*
X164413166Y-97574068D01*
X164455829Y-97585500D01*
X164455831Y-97585500D01*
X164544171Y-97585500D01*
X164578300Y-97576354D01*
X164629498Y-97562636D01*
X164706002Y-97518467D01*
X164768467Y-97456002D01*
X164812636Y-97379498D01*
X164832848Y-97304066D01*
X164835500Y-97294170D01*
X164835500Y-97205829D01*
X164823383Y-97160609D01*
X164812636Y-97120502D01*
X164805150Y-97107535D01*
X166639500Y-97107535D01*
X166639500Y-97202464D01*
X166664066Y-97294146D01*
X166664067Y-97294149D01*
X166705950Y-97366691D01*
X166711528Y-97376352D01*
X166778648Y-97443472D01*
X166860852Y-97490933D01*
X166931035Y-97509738D01*
X166952535Y-97515499D01*
X166952536Y-97515500D01*
X166952539Y-97515500D01*
X167047464Y-97515500D01*
X167047464Y-97515499D01*
X167139148Y-97490933D01*
X167221352Y-97443472D01*
X167288472Y-97376352D01*
X167335933Y-97294148D01*
X167360499Y-97202464D01*
X167360500Y-97202464D01*
X167360500Y-97107536D01*
X167360499Y-97107535D01*
X167343475Y-97044001D01*
X167335933Y-97015852D01*
X167288472Y-96933648D01*
X167221352Y-96866528D01*
X167197665Y-96852852D01*
X167139149Y-96819067D01*
X167139146Y-96819066D01*
X167047464Y-96794500D01*
X167047461Y-96794500D01*
X166952539Y-96794500D01*
X166952536Y-96794500D01*
X166860853Y-96819066D01*
X166860850Y-96819067D01*
X166778647Y-96866528D01*
X166778647Y-96866529D01*
X166711529Y-96933647D01*
X166711528Y-96933647D01*
X166664067Y-97015850D01*
X166664066Y-97015853D01*
X166639500Y-97107535D01*
X164805150Y-97107535D01*
X164768467Y-97043998D01*
X164706002Y-96981533D01*
X164706000Y-96981532D01*
X164705998Y-96981530D01*
X164664329Y-96957473D01*
X164629498Y-96937364D01*
X164629495Y-96937363D01*
X164544171Y-96914500D01*
X164544169Y-96914500D01*
X164455831Y-96914500D01*
X164455829Y-96914500D01*
X164370504Y-96937363D01*
X164370502Y-96937364D01*
X164294001Y-96981530D01*
X164293995Y-96981535D01*
X164231535Y-97043995D01*
X164231530Y-97044001D01*
X164187364Y-97120502D01*
X164187363Y-97120504D01*
X164164500Y-97205829D01*
X159283066Y-97205829D01*
X159153821Y-97076584D01*
X159139469Y-97041936D01*
X159153821Y-97007288D01*
X159188469Y-96992936D01*
X159196593Y-96992936D01*
X159245613Y-96979800D01*
X159294636Y-96966664D01*
X159300503Y-96963277D01*
X159318869Y-96952673D01*
X159382541Y-96915912D01*
X159454315Y-96844138D01*
X159505067Y-96756233D01*
X159527364Y-96673023D01*
X159531339Y-96658189D01*
X159531339Y-96556682D01*
X159504236Y-96455537D01*
X159505383Y-96455229D01*
X159505378Y-96421902D01*
X159531892Y-96395379D01*
X159563334Y-96393316D01*
X159581217Y-96398108D01*
X159581219Y-96398108D01*
X159660345Y-96398108D01*
X159688146Y-96390658D01*
X159736770Y-96377629D01*
X159805292Y-96338068D01*
X159861241Y-96282119D01*
X159895501Y-96222778D01*
X159900801Y-96213599D01*
X159900801Y-96213598D01*
X159900802Y-96213597D01*
X159921281Y-96137170D01*
X159921281Y-96058046D01*
X159921281Y-96058044D01*
X159908557Y-96010560D01*
X159900802Y-95981619D01*
X159896524Y-95974209D01*
X159896303Y-95973826D01*
X159896302Y-95973825D01*
X159889849Y-95962648D01*
X159884010Y-95952535D01*
X165139500Y-95952535D01*
X165139500Y-96047464D01*
X165164066Y-96139146D01*
X165164067Y-96139149D01*
X165205814Y-96211456D01*
X165211528Y-96221352D01*
X165278648Y-96288472D01*
X165326799Y-96316272D01*
X165351715Y-96330658D01*
X165360852Y-96335933D01*
X165423544Y-96352731D01*
X165452535Y-96360499D01*
X165452536Y-96360500D01*
X165452539Y-96360500D01*
X165547464Y-96360500D01*
X165547464Y-96360499D01*
X165639148Y-96335933D01*
X165721352Y-96288472D01*
X165788472Y-96221352D01*
X165835933Y-96139148D01*
X165860499Y-96047464D01*
X165860500Y-96047464D01*
X165860500Y-95952536D01*
X165860499Y-95952535D01*
X165841240Y-95880658D01*
X165835933Y-95860852D01*
X165833794Y-95857148D01*
X165798995Y-95796874D01*
X165788472Y-95778648D01*
X165721352Y-95711528D01*
X165708913Y-95704346D01*
X165639149Y-95664067D01*
X165639146Y-95664066D01*
X165547464Y-95639500D01*
X165547461Y-95639500D01*
X165452539Y-95639500D01*
X165452536Y-95639500D01*
X165360853Y-95664066D01*
X165360850Y-95664067D01*
X165278647Y-95711528D01*
X165278647Y-95711529D01*
X165211529Y-95778647D01*
X165211528Y-95778647D01*
X165164067Y-95860850D01*
X165164066Y-95860853D01*
X165139500Y-95952535D01*
X159884010Y-95952535D01*
X159861241Y-95913097D01*
X159805292Y-95857148D01*
X159802015Y-95855256D01*
X159736771Y-95817587D01*
X159660345Y-95797108D01*
X159660343Y-95797108D01*
X159581219Y-95797108D01*
X159581217Y-95797108D01*
X159504791Y-95817587D01*
X159504789Y-95817587D01*
X159436269Y-95857148D01*
X159436269Y-95857149D01*
X159380322Y-95913096D01*
X159380321Y-95913096D01*
X159340760Y-95981616D01*
X159340760Y-95981618D01*
X159320281Y-96058044D01*
X159320281Y-96137171D01*
X159332352Y-96182220D01*
X159327457Y-96219403D01*
X159297705Y-96242233D01*
X159272339Y-96242233D01*
X159196593Y-96221936D01*
X159196591Y-96221936D01*
X159095087Y-96221936D01*
X159095085Y-96221936D01*
X158997043Y-96248207D01*
X158997039Y-96248208D01*
X158909136Y-96298960D01*
X158909136Y-96298961D01*
X158837364Y-96370733D01*
X158837363Y-96370733D01*
X158786611Y-96458636D01*
X158786610Y-96458640D01*
X158760339Y-96556682D01*
X158760339Y-96564805D01*
X158745987Y-96599453D01*
X158711339Y-96613805D01*
X158676691Y-96599453D01*
X156627274Y-94550036D01*
X165561500Y-94550036D01*
X165561500Y-94629163D01*
X165581979Y-94705589D01*
X165581979Y-94705591D01*
X165616954Y-94766168D01*
X165621540Y-94774111D01*
X165677489Y-94830060D01*
X165682294Y-94832834D01*
X165735341Y-94863461D01*
X165746011Y-94869621D01*
X165776572Y-94877810D01*
X165822436Y-94890100D01*
X165822438Y-94890100D01*
X165901564Y-94890100D01*
X165928230Y-94882954D01*
X165977989Y-94869621D01*
X166046511Y-94830060D01*
X166095009Y-94781561D01*
X166129655Y-94767211D01*
X166164303Y-94781562D01*
X166176985Y-94803528D01*
X166191579Y-94857989D01*
X166191579Y-94857991D01*
X166227381Y-94920000D01*
X166231140Y-94926511D01*
X166287089Y-94982460D01*
X166355611Y-95022021D01*
X166386049Y-95030177D01*
X166432036Y-95042500D01*
X166432038Y-95042500D01*
X166511164Y-95042500D01*
X166545246Y-95033367D01*
X166587589Y-95022021D01*
X166656111Y-94982460D01*
X166712060Y-94926511D01*
X166751621Y-94857989D01*
X166772100Y-94781562D01*
X166772100Y-94702438D01*
X166772100Y-94702436D01*
X166761582Y-94663186D01*
X166751621Y-94626011D01*
X166751620Y-94626009D01*
X166751620Y-94626008D01*
X166721661Y-94574119D01*
X166712060Y-94557489D01*
X166656111Y-94501540D01*
X166645047Y-94495152D01*
X166587590Y-94461979D01*
X166511164Y-94441500D01*
X166511162Y-94441500D01*
X166432038Y-94441500D01*
X166432036Y-94441500D01*
X166355610Y-94461979D01*
X166355608Y-94461979D01*
X166287090Y-94501539D01*
X166238592Y-94550037D01*
X166203944Y-94564388D01*
X166169295Y-94550036D01*
X166156614Y-94528071D01*
X166153884Y-94517885D01*
X166142021Y-94473611D01*
X166142020Y-94473609D01*
X166142020Y-94473608D01*
X166105133Y-94409719D01*
X166102460Y-94405089D01*
X166046511Y-94349140D01*
X166014946Y-94330916D01*
X165977990Y-94309579D01*
X165901564Y-94289100D01*
X165901562Y-94289100D01*
X165822438Y-94289100D01*
X165822436Y-94289100D01*
X165746010Y-94309579D01*
X165746008Y-94309579D01*
X165677488Y-94349140D01*
X165677488Y-94349141D01*
X165621541Y-94405088D01*
X165621540Y-94405088D01*
X165581979Y-94473608D01*
X165581979Y-94473610D01*
X165561500Y-94550036D01*
X156627274Y-94550036D01*
X153893859Y-91816621D01*
X153893857Y-91816620D01*
X153893856Y-91816619D01*
X153859301Y-91802305D01*
X153834866Y-91792184D01*
X153834865Y-91792184D01*
X153329058Y-91792184D01*
X153294410Y-91777832D01*
X153280058Y-91743184D01*
X153286623Y-91718684D01*
X153310988Y-91676483D01*
X153310988Y-91676482D01*
X153310989Y-91676481D01*
X153337261Y-91578436D01*
X153337261Y-91476932D01*
X153337261Y-91476930D01*
X153333835Y-91464145D01*
X153331296Y-91454671D01*
X164580783Y-91454671D01*
X164580783Y-91562762D01*
X164608757Y-91667162D01*
X164608758Y-91667166D01*
X164662796Y-91760763D01*
X164662799Y-91760767D01*
X164662801Y-91760770D01*
X164739230Y-91837199D01*
X164739233Y-91837200D01*
X164739236Y-91837203D01*
X164832833Y-91891241D01*
X164832835Y-91891241D01*
X164832836Y-91891242D01*
X164858937Y-91898235D01*
X164937237Y-91919217D01*
X164937240Y-91919217D01*
X165045328Y-91919217D01*
X165097528Y-91905229D01*
X165149730Y-91891242D01*
X165161914Y-91884208D01*
X165243329Y-91837203D01*
X165243328Y-91837203D01*
X165243336Y-91837199D01*
X165319765Y-91760770D01*
X165331468Y-91740500D01*
X165373807Y-91667166D01*
X165373807Y-91667165D01*
X165373808Y-91667164D01*
X165393529Y-91593565D01*
X165401783Y-91562762D01*
X165401783Y-91454671D01*
X165373808Y-91350271D01*
X165373807Y-91350267D01*
X165319769Y-91256670D01*
X165319766Y-91256667D01*
X165319765Y-91256664D01*
X165243336Y-91180235D01*
X165243333Y-91180233D01*
X165243329Y-91180230D01*
X165149732Y-91126192D01*
X165149728Y-91126191D01*
X165045329Y-91098217D01*
X165045326Y-91098217D01*
X164937240Y-91098217D01*
X164937237Y-91098217D01*
X164832837Y-91126191D01*
X164832833Y-91126192D01*
X164739236Y-91180230D01*
X164739227Y-91180237D01*
X164662803Y-91256661D01*
X164662796Y-91256670D01*
X164608758Y-91350267D01*
X164608757Y-91350271D01*
X164580783Y-91454671D01*
X153331296Y-91454671D01*
X153310989Y-91378888D01*
X153310988Y-91378884D01*
X153269488Y-91307005D01*
X153260237Y-91290982D01*
X153188463Y-91219208D01*
X153163908Y-91205031D01*
X153100560Y-91168456D01*
X153100556Y-91168455D01*
X153002515Y-91142184D01*
X153002513Y-91142184D01*
X152901009Y-91142184D01*
X152901007Y-91142184D01*
X152802965Y-91168455D01*
X152802961Y-91168456D01*
X152715058Y-91219208D01*
X152715058Y-91219209D01*
X152643286Y-91290981D01*
X152643285Y-91290981D01*
X152592533Y-91378884D01*
X152592532Y-91378888D01*
X152566261Y-91476930D01*
X152566261Y-91578437D01*
X152592532Y-91676479D01*
X152592533Y-91676483D01*
X152616899Y-91718684D01*
X152621794Y-91755866D01*
X152598964Y-91785619D01*
X152574464Y-91792184D01*
X152277731Y-91792184D01*
X152243083Y-91777832D01*
X152228731Y-91743184D01*
X152235296Y-91718684D01*
X152258995Y-91677636D01*
X152258995Y-91677635D01*
X152258996Y-91677634D01*
X152279475Y-91601207D01*
X152279475Y-91522083D01*
X152279475Y-91522081D01*
X152270423Y-91488300D01*
X152258996Y-91445656D01*
X152258995Y-91445654D01*
X152258995Y-91445653D01*
X152233914Y-91402213D01*
X152219435Y-91377134D01*
X152163486Y-91321185D01*
X152151060Y-91314011D01*
X152094965Y-91281624D01*
X152018539Y-91261145D01*
X152018537Y-91261145D01*
X151939413Y-91261145D01*
X151939411Y-91261145D01*
X151862985Y-91281624D01*
X151862983Y-91281624D01*
X151794463Y-91321185D01*
X151794463Y-91321186D01*
X151738516Y-91377133D01*
X151738515Y-91377133D01*
X151698954Y-91445653D01*
X151698954Y-91445655D01*
X151678475Y-91522081D01*
X151678475Y-91601208D01*
X151698954Y-91677634D01*
X151698954Y-91677636D01*
X151722654Y-91718684D01*
X151727549Y-91755866D01*
X151704719Y-91785619D01*
X151680219Y-91792184D01*
X150465838Y-91792184D01*
X150431190Y-91777832D01*
X150166095Y-91512736D01*
X150107103Y-91488300D01*
X150107102Y-91488300D01*
X147098288Y-91488300D01*
X147034438Y-91488300D01*
X147034436Y-91488300D01*
X146975445Y-91512736D01*
X146975443Y-91512737D01*
X145401311Y-93086869D01*
X145366663Y-93101221D01*
X145357723Y-93100044D01*
X145357714Y-93100117D01*
X145354530Y-93099698D01*
X145354527Y-93099698D01*
X145275403Y-93099698D01*
X145275401Y-93099698D01*
X145198975Y-93120177D01*
X145198973Y-93120177D01*
X145130453Y-93159738D01*
X145130453Y-93159739D01*
X145074506Y-93215686D01*
X145074505Y-93215686D01*
X145034944Y-93284206D01*
X145034944Y-93284208D01*
X145014465Y-93360634D01*
X145014465Y-93439761D01*
X145034944Y-93516187D01*
X145034944Y-93516189D01*
X145072189Y-93580698D01*
X145074505Y-93584709D01*
X145130454Y-93640658D01*
X145151365Y-93652731D01*
X145198972Y-93680217D01*
X145198976Y-93680219D01*
X145216425Y-93684894D01*
X145246177Y-93707723D01*
X145251073Y-93744905D01*
X145241500Y-93780635D01*
X145241500Y-93859761D01*
X145261979Y-93936187D01*
X145261979Y-93936189D01*
X145300643Y-94003156D01*
X145301540Y-94004709D01*
X145357489Y-94060658D01*
X145426011Y-94100219D01*
X145461478Y-94109722D01*
X145502436Y-94120698D01*
X145502438Y-94120698D01*
X145581564Y-94120698D01*
X145608230Y-94113552D01*
X145657989Y-94100219D01*
X145726511Y-94060658D01*
X145782460Y-94004709D01*
X145822021Y-93936187D01*
X145842500Y-93859760D01*
X145842500Y-93780636D01*
X145842500Y-93780635D01*
X145842081Y-93777455D01*
X145843158Y-93777313D01*
X145847532Y-93744011D01*
X145855323Y-93733854D01*
X146664738Y-92924442D01*
X146699386Y-92910090D01*
X150225176Y-92910090D01*
X150259824Y-92924442D01*
X150274176Y-92959090D01*
X150259824Y-92993738D01*
X150249676Y-93001525D01*
X150183488Y-93039738D01*
X150183488Y-93039739D01*
X150127541Y-93095686D01*
X150127540Y-93095686D01*
X150087979Y-93164206D01*
X150087979Y-93164208D01*
X150067500Y-93240634D01*
X150067500Y-93319761D01*
X150087979Y-93396187D01*
X150087979Y-93396189D01*
X150119142Y-93450163D01*
X150127540Y-93464709D01*
X150183489Y-93520658D01*
X150252011Y-93560219D01*
X150287478Y-93569722D01*
X150328436Y-93580698D01*
X150328438Y-93580698D01*
X150407564Y-93580698D01*
X150434230Y-93573552D01*
X150483989Y-93560219D01*
X150552511Y-93520658D01*
X150608460Y-93464709D01*
X150648021Y-93396187D01*
X150664741Y-93333790D01*
X150668500Y-93319761D01*
X150668500Y-93240634D01*
X150659843Y-93208332D01*
X150648021Y-93164209D01*
X150648020Y-93164207D01*
X150648020Y-93164206D01*
X150611996Y-93101812D01*
X150608460Y-93095687D01*
X150552511Y-93039738D01*
X150486324Y-93001525D01*
X150463494Y-92971772D01*
X150468389Y-92934590D01*
X150498142Y-92911760D01*
X150510824Y-92910090D01*
X150648430Y-92910090D01*
X150648432Y-92910090D01*
X150707423Y-92885655D01*
X150998028Y-92595050D01*
X151032676Y-92580698D01*
X152407010Y-92580698D01*
X152441658Y-92595050D01*
X152456010Y-92629698D01*
X152441658Y-92664346D01*
X152334687Y-92771317D01*
X152312708Y-92793296D01*
X152289538Y-92816465D01*
X152265103Y-92875455D01*
X152265103Y-92935188D01*
X152250751Y-92969836D01*
X152243596Y-92975326D01*
X152243642Y-92975385D01*
X152241088Y-92977344D01*
X152185144Y-93033289D01*
X152185143Y-93033289D01*
X152145582Y-93101809D01*
X152145582Y-93101811D01*
X152125103Y-93178237D01*
X152125103Y-93257364D01*
X152145582Y-93333790D01*
X152145582Y-93333792D01*
X152177508Y-93389088D01*
X152185143Y-93402312D01*
X152241092Y-93458261D01*
X152273748Y-93477115D01*
X152309608Y-93497819D01*
X152309609Y-93497819D01*
X152309614Y-93497822D01*
X152309617Y-93497822D01*
X152309619Y-93497824D01*
X152312579Y-93499050D01*
X152312250Y-93499842D01*
X152339374Y-93520643D01*
X152344280Y-93557824D01*
X152331594Y-93579803D01*
X150882829Y-95028568D01*
X150848181Y-95042920D01*
X150813533Y-95028568D01*
X150798902Y-95013937D01*
X150798900Y-95013936D01*
X150798899Y-95013935D01*
X150744126Y-94991247D01*
X150739909Y-94989500D01*
X150739908Y-94989500D01*
X148386950Y-94989500D01*
X148323100Y-94989500D01*
X148323098Y-94989500D01*
X148264107Y-95013936D01*
X148264106Y-95013936D01*
X148102896Y-95175148D01*
X148068248Y-95189500D01*
X145806374Y-95189500D01*
X145771726Y-95175148D01*
X145750711Y-95154133D01*
X145706179Y-95135687D01*
X145691721Y-95129698D01*
X145691720Y-95129698D01*
X144228918Y-95129698D01*
X144194270Y-95115346D01*
X144179918Y-95080698D01*
X144186483Y-95056198D01*
X144199664Y-95033367D01*
X144199664Y-95033366D01*
X144199665Y-95033365D01*
X144220144Y-94956938D01*
X144220144Y-94877814D01*
X144220144Y-94877812D01*
X144206316Y-94826208D01*
X144199665Y-94801387D01*
X144199664Y-94801385D01*
X144199664Y-94801384D01*
X144174583Y-94757944D01*
X144160104Y-94732865D01*
X144104155Y-94676916D01*
X144080374Y-94663186D01*
X144035634Y-94637355D01*
X143959208Y-94616876D01*
X143959206Y-94616876D01*
X143880082Y-94616876D01*
X143880080Y-94616876D01*
X143803654Y-94637355D01*
X143785424Y-94647880D01*
X143748242Y-94652774D01*
X143718489Y-94629943D01*
X143713595Y-94592762D01*
X143720962Y-94565270D01*
X143720962Y-94486146D01*
X143720962Y-94486144D01*
X143710505Y-94447122D01*
X143700483Y-94409719D01*
X143700482Y-94409717D01*
X143700482Y-94409716D01*
X143660921Y-94341196D01*
X143604973Y-94285248D01*
X143536452Y-94245687D01*
X143460026Y-94225208D01*
X143460024Y-94225208D01*
X143380900Y-94225208D01*
X143380897Y-94225208D01*
X143317062Y-94242313D01*
X143279880Y-94237418D01*
X143257050Y-94207665D01*
X143256850Y-94206662D01*
X143245066Y-94162686D01*
X143235672Y-94127627D01*
X143235671Y-94127625D01*
X143235671Y-94127624D01*
X143210590Y-94084184D01*
X143196111Y-94059105D01*
X143140162Y-94003156D01*
X143071641Y-93963595D01*
X143042951Y-93955907D01*
X143013198Y-93933076D01*
X143008304Y-93895894D01*
X143020984Y-93873931D01*
X146493664Y-90401252D01*
X146528312Y-90386900D01*
X148216750Y-90386900D01*
X148251398Y-90401252D01*
X148265750Y-90435900D01*
X148260020Y-90457280D01*
X148260409Y-90457441D01*
X148259187Y-90460389D01*
X148259185Y-90460400D01*
X148259179Y-90460409D01*
X148259179Y-90460410D01*
X148238700Y-90536836D01*
X148238700Y-90615963D01*
X148259179Y-90692389D01*
X148259179Y-90692391D01*
X148290990Y-90747488D01*
X148298740Y-90760911D01*
X148354689Y-90816860D01*
X148423211Y-90856421D01*
X148453123Y-90864436D01*
X148499636Y-90876900D01*
X148499638Y-90876900D01*
X148578764Y-90876900D01*
X148605430Y-90869754D01*
X148655189Y-90856421D01*
X148723711Y-90816860D01*
X148763049Y-90777522D01*
X151071983Y-90777522D01*
X151071983Y-90856649D01*
X151092462Y-90933075D01*
X151092462Y-90933077D01*
X151115256Y-90972556D01*
X151132023Y-91001597D01*
X151187972Y-91057546D01*
X151256494Y-91097107D01*
X151291961Y-91106610D01*
X151332919Y-91117586D01*
X151332921Y-91117586D01*
X151412047Y-91117586D01*
X151443785Y-91109081D01*
X151488472Y-91097107D01*
X151556994Y-91057546D01*
X151612943Y-91001597D01*
X151652504Y-90933075D01*
X151672983Y-90856648D01*
X151672983Y-90777524D01*
X151672983Y-90777522D01*
X151664326Y-90745220D01*
X151652504Y-90701097D01*
X151652503Y-90701095D01*
X151652503Y-90701094D01*
X151612942Y-90632574D01*
X151556994Y-90576626D01*
X151488473Y-90537065D01*
X151412047Y-90516586D01*
X151412045Y-90516586D01*
X151332921Y-90516586D01*
X151332919Y-90516586D01*
X151256493Y-90537065D01*
X151256491Y-90537065D01*
X151187971Y-90576626D01*
X151187971Y-90576627D01*
X151132024Y-90632574D01*
X151132023Y-90632574D01*
X151092462Y-90701094D01*
X151092462Y-90701096D01*
X151071983Y-90777522D01*
X148763049Y-90777522D01*
X148779660Y-90760911D01*
X148801439Y-90723188D01*
X148819220Y-90692391D01*
X148819220Y-90692390D01*
X148819221Y-90692389D01*
X148839700Y-90615962D01*
X148839700Y-90536838D01*
X148839700Y-90536836D01*
X148821924Y-90470500D01*
X148819221Y-90460411D01*
X148819215Y-90460400D01*
X148819214Y-90460394D01*
X148817991Y-90457441D01*
X148818782Y-90457113D01*
X148817545Y-90447718D01*
X148812650Y-90435900D01*
X148815184Y-90429782D01*
X148814320Y-90423218D01*
X148822106Y-90413070D01*
X148827002Y-90401252D01*
X148833119Y-90398718D01*
X148837150Y-90393465D01*
X148861650Y-90386900D01*
X148864155Y-90386900D01*
X148898803Y-90401252D01*
X148911485Y-90423218D01*
X148912362Y-90426494D01*
X148912363Y-90426495D01*
X148912364Y-90426498D01*
X148922808Y-90444587D01*
X148956530Y-90502998D01*
X148956532Y-90503000D01*
X148956533Y-90503002D01*
X149018998Y-90565467D01*
X149095502Y-90609636D01*
X149119115Y-90615963D01*
X149180829Y-90632500D01*
X149180831Y-90632500D01*
X149269171Y-90632500D01*
X149303300Y-90623354D01*
X149354498Y-90609636D01*
X149431002Y-90565467D01*
X149493467Y-90503002D01*
X149537636Y-90426498D01*
X149554784Y-90362501D01*
X149560500Y-90341170D01*
X149560500Y-90252829D01*
X149554223Y-90229405D01*
X149559117Y-90192223D01*
X149566901Y-90182078D01*
X149754129Y-89994852D01*
X149788777Y-89980500D01*
X150495312Y-89980500D01*
X150529960Y-89994852D01*
X150544312Y-90029500D01*
X150538582Y-90050880D01*
X150538971Y-90051041D01*
X150537749Y-90053989D01*
X150537747Y-90054000D01*
X150537741Y-90054009D01*
X150537741Y-90054010D01*
X150517262Y-90130436D01*
X150517262Y-90209563D01*
X150537741Y-90285989D01*
X150537741Y-90285991D01*
X150572337Y-90345912D01*
X150577302Y-90354511D01*
X150633251Y-90410460D01*
X150701773Y-90450021D01*
X150737240Y-90459524D01*
X150778198Y-90470500D01*
X150778200Y-90470500D01*
X150857326Y-90470500D01*
X150883992Y-90463354D01*
X150933751Y-90450021D01*
X151002273Y-90410460D01*
X151058222Y-90354511D01*
X151090573Y-90298476D01*
X151120323Y-90275648D01*
X151157504Y-90280541D01*
X151185562Y-90296741D01*
X151221029Y-90306244D01*
X151261987Y-90317220D01*
X151261989Y-90317220D01*
X151341115Y-90317220D01*
X151367781Y-90310074D01*
X151417540Y-90296741D01*
X151454071Y-90275650D01*
X151491253Y-90270755D01*
X151521005Y-90293583D01*
X151541221Y-90328598D01*
X151597170Y-90384547D01*
X151665692Y-90424108D01*
X151701159Y-90433611D01*
X151742117Y-90444587D01*
X151742119Y-90444587D01*
X151821245Y-90444587D01*
X151847911Y-90437441D01*
X151897670Y-90424108D01*
X151966192Y-90384547D01*
X152022141Y-90328598D01*
X152061702Y-90260076D01*
X152082181Y-90183649D01*
X152082181Y-90104525D01*
X152082181Y-90104523D01*
X152071870Y-90066044D01*
X152069331Y-90056570D01*
X153192744Y-90056570D01*
X153192744Y-90138331D01*
X153213903Y-90217297D01*
X153213904Y-90217301D01*
X153247593Y-90275650D01*
X153254782Y-90288102D01*
X153312593Y-90345913D01*
X153327487Y-90354512D01*
X153383393Y-90386790D01*
X153383395Y-90386790D01*
X153383396Y-90386791D01*
X153402422Y-90391889D01*
X153462363Y-90407951D01*
X153462366Y-90407951D01*
X153544124Y-90407951D01*
X153598184Y-90393465D01*
X153623092Y-90386791D01*
X153626981Y-90384546D01*
X153632579Y-90381313D01*
X153693895Y-90345913D01*
X153751706Y-90288102D01*
X153792584Y-90217299D01*
X153803164Y-90177814D01*
X153813744Y-90138331D01*
X153813744Y-90056570D01*
X153794697Y-89985488D01*
X153792584Y-89977603D01*
X153792583Y-89977602D01*
X153792583Y-89977600D01*
X153764835Y-89929540D01*
X153751706Y-89906800D01*
X153693895Y-89848989D01*
X153692445Y-89848152D01*
X154856151Y-89848152D01*
X154856151Y-89956243D01*
X154884125Y-90060643D01*
X154884126Y-90060647D01*
X154938164Y-90154244D01*
X154938167Y-90154248D01*
X154938169Y-90154251D01*
X155014598Y-90230680D01*
X155014601Y-90230681D01*
X155014604Y-90230684D01*
X155108201Y-90284722D01*
X155108203Y-90284722D01*
X155108204Y-90284723D01*
X155134305Y-90291716D01*
X155212605Y-90312698D01*
X155212608Y-90312698D01*
X155320696Y-90312698D01*
X155392028Y-90293584D01*
X155425098Y-90284723D01*
X155440817Y-90275648D01*
X155518697Y-90230684D01*
X155518696Y-90230684D01*
X155518704Y-90230680D01*
X155590126Y-90159258D01*
X163396550Y-90159258D01*
X163396550Y-90267349D01*
X163424524Y-90371749D01*
X163424525Y-90371753D01*
X163478563Y-90465350D01*
X163478566Y-90465354D01*
X163478568Y-90465357D01*
X163554997Y-90541786D01*
X163555000Y-90541787D01*
X163555003Y-90541790D01*
X163648600Y-90595828D01*
X163648602Y-90595828D01*
X163648603Y-90595829D01*
X163674704Y-90602822D01*
X163753004Y-90623804D01*
X163753007Y-90623804D01*
X163861095Y-90623804D01*
X163913972Y-90609635D01*
X163965497Y-90595829D01*
X164018083Y-90565469D01*
X164059096Y-90541790D01*
X164059095Y-90541790D01*
X164059103Y-90541786D01*
X164135532Y-90465357D01*
X164177039Y-90393465D01*
X164189574Y-90371753D01*
X164189574Y-90371752D01*
X164189575Y-90371751D01*
X164210520Y-90293584D01*
X164217550Y-90267349D01*
X164217550Y-90159258D01*
X164196568Y-90080958D01*
X164189575Y-90054857D01*
X164189574Y-90054856D01*
X164189574Y-90054854D01*
X164135536Y-89961257D01*
X164135533Y-89961254D01*
X164135532Y-89961251D01*
X164059103Y-89884822D01*
X164059100Y-89884820D01*
X164059096Y-89884817D01*
X163965499Y-89830779D01*
X163965495Y-89830778D01*
X163861096Y-89802804D01*
X163861093Y-89802804D01*
X163753007Y-89802804D01*
X163753004Y-89802804D01*
X163648604Y-89830778D01*
X163648600Y-89830779D01*
X163555003Y-89884817D01*
X163554994Y-89884824D01*
X163478570Y-89961248D01*
X163478563Y-89961257D01*
X163424525Y-90054854D01*
X163424524Y-90054858D01*
X163396550Y-90159258D01*
X155590126Y-90159258D01*
X155595133Y-90154251D01*
X155649176Y-90060645D01*
X155666805Y-89994852D01*
X155677151Y-89956243D01*
X155677151Y-89848152D01*
X155655086Y-89765806D01*
X155649176Y-89743751D01*
X155649175Y-89743750D01*
X155649175Y-89743748D01*
X155595137Y-89650151D01*
X155595134Y-89650148D01*
X155595133Y-89650145D01*
X155518704Y-89573716D01*
X155518701Y-89573714D01*
X155518697Y-89573711D01*
X155425100Y-89519673D01*
X155425096Y-89519672D01*
X155320697Y-89491698D01*
X155320694Y-89491698D01*
X155212608Y-89491698D01*
X155212605Y-89491698D01*
X155108205Y-89519672D01*
X155108201Y-89519673D01*
X155014604Y-89573711D01*
X155014595Y-89573718D01*
X154938171Y-89650142D01*
X154938164Y-89650151D01*
X154884126Y-89743748D01*
X154884125Y-89743752D01*
X154856151Y-89848152D01*
X153692445Y-89848152D01*
X153623094Y-89808111D01*
X153623090Y-89808110D01*
X153544125Y-89786951D01*
X153544122Y-89786951D01*
X153462366Y-89786951D01*
X153462363Y-89786951D01*
X153383397Y-89808110D01*
X153383393Y-89808111D01*
X153312592Y-89848989D01*
X153312592Y-89848990D01*
X153254783Y-89906799D01*
X153254782Y-89906799D01*
X153213904Y-89977600D01*
X153213903Y-89977604D01*
X153192744Y-90056570D01*
X152069331Y-90056570D01*
X152068871Y-90054854D01*
X152061702Y-90028098D01*
X152061701Y-90028096D01*
X152061701Y-90028095D01*
X152032547Y-89977600D01*
X152022141Y-89959576D01*
X151966192Y-89903627D01*
X151931335Y-89883502D01*
X151918095Y-89875858D01*
X151908594Y-89863475D01*
X151897475Y-89852530D01*
X151897677Y-89849247D01*
X151895265Y-89846104D01*
X151897180Y-89815028D01*
X151898457Y-89811874D01*
X151918021Y-89777989D01*
X151929434Y-89735395D01*
X151930566Y-89732601D01*
X151941765Y-89721224D01*
X151951482Y-89708561D01*
X151954640Y-89708145D01*
X151956875Y-89705875D01*
X151972838Y-89705749D01*
X151988664Y-89703666D01*
X151992011Y-89705598D01*
X151994377Y-89705580D01*
X151997778Y-89708927D01*
X152010630Y-89716348D01*
X152020528Y-89726246D01*
X152089050Y-89765807D01*
X152124517Y-89775310D01*
X152165475Y-89786286D01*
X152165477Y-89786286D01*
X152244603Y-89786286D01*
X152275565Y-89777989D01*
X152321028Y-89765807D01*
X152389550Y-89726246D01*
X152445499Y-89670297D01*
X152485060Y-89601775D01*
X152505539Y-89525348D01*
X152505539Y-89446224D01*
X152505539Y-89446222D01*
X152486692Y-89375889D01*
X152485060Y-89369797D01*
X152485059Y-89369795D01*
X152485059Y-89369794D01*
X152445498Y-89301274D01*
X152389550Y-89245326D01*
X152321029Y-89205765D01*
X152244603Y-89185286D01*
X152244601Y-89185286D01*
X152165477Y-89185286D01*
X152165475Y-89185286D01*
X152089049Y-89205765D01*
X152089047Y-89205765D01*
X152020527Y-89245326D01*
X152020527Y-89245327D01*
X151964580Y-89301274D01*
X151964579Y-89301274D01*
X151925018Y-89369794D01*
X151925018Y-89369796D01*
X151914386Y-89409472D01*
X151891555Y-89439225D01*
X151854373Y-89444119D01*
X151832408Y-89431437D01*
X151822511Y-89421540D01*
X151753990Y-89381979D01*
X151677564Y-89361500D01*
X151677562Y-89361500D01*
X151598438Y-89361500D01*
X151598436Y-89361500D01*
X151522010Y-89381979D01*
X151522008Y-89381979D01*
X151453488Y-89421540D01*
X151453488Y-89421541D01*
X151397541Y-89477488D01*
X151397540Y-89477488D01*
X151357979Y-89546008D01*
X151357979Y-89546010D01*
X151337500Y-89622436D01*
X151337500Y-89667220D01*
X151330668Y-89683711D01*
X151324486Y-89700477D01*
X151323555Y-89700884D01*
X151323148Y-89701868D01*
X151290429Y-89716182D01*
X151289465Y-89716220D01*
X151261989Y-89716220D01*
X151257251Y-89717489D01*
X151251780Y-89717705D01*
X151238926Y-89712964D01*
X151225345Y-89711175D01*
X151217272Y-89704979D01*
X151216594Y-89704729D01*
X151216400Y-89704310D01*
X151215202Y-89703390D01*
X151195749Y-89683936D01*
X151136757Y-89659500D01*
X151136756Y-89659500D01*
X149733925Y-89659500D01*
X149670075Y-89659500D01*
X149670073Y-89659500D01*
X149611082Y-89683936D01*
X149611080Y-89683937D01*
X149339924Y-89955093D01*
X149305276Y-89969445D01*
X149292596Y-89967776D01*
X149269170Y-89961500D01*
X149269169Y-89961500D01*
X149180831Y-89961500D01*
X149180829Y-89961500D01*
X149095504Y-89984363D01*
X149095502Y-89984364D01*
X149019001Y-90028530D01*
X149018995Y-90028535D01*
X148995983Y-90051548D01*
X148961335Y-90065900D01*
X146409608Y-90065900D01*
X146350617Y-90090336D01*
X144139764Y-92301189D01*
X144105116Y-92315541D01*
X144070468Y-92301189D01*
X144059399Y-92282012D01*
X144059011Y-92282174D01*
X144057787Y-92279218D01*
X144057784Y-92279213D01*
X144057783Y-92279209D01*
X144046518Y-92259698D01*
X144024284Y-92221187D01*
X144018222Y-92210687D01*
X143962273Y-92154738D01*
X143937562Y-92140471D01*
X143893752Y-92115177D01*
X143817326Y-92094698D01*
X143817324Y-92094698D01*
X143738200Y-92094698D01*
X143738198Y-92094698D01*
X143661772Y-92115177D01*
X143661770Y-92115177D01*
X143593250Y-92154738D01*
X143593250Y-92154739D01*
X143537303Y-92210686D01*
X143537302Y-92210686D01*
X143497741Y-92279206D01*
X143497741Y-92279208D01*
X143477262Y-92355634D01*
X143477262Y-92434761D01*
X143497741Y-92511187D01*
X143497741Y-92511189D01*
X143533089Y-92572412D01*
X143537302Y-92579709D01*
X143593251Y-92635658D01*
X143625907Y-92654512D01*
X143661767Y-92675216D01*
X143661768Y-92675216D01*
X143661773Y-92675219D01*
X143661776Y-92675219D01*
X143661778Y-92675221D01*
X143664738Y-92676447D01*
X143664409Y-92677239D01*
X143691533Y-92698040D01*
X143696439Y-92735221D01*
X143683753Y-92757200D01*
X141909783Y-94531170D01*
X141875135Y-94545522D01*
X141840487Y-94531170D01*
X138498094Y-91188777D01*
X138498092Y-91188776D01*
X138498091Y-91188775D01*
X138463536Y-91174461D01*
X138439101Y-91164340D01*
X138439100Y-91164340D01*
X137000516Y-91164340D01*
X136965868Y-91149988D01*
X136951516Y-91115340D01*
X136958081Y-91090840D01*
X136982820Y-91047991D01*
X136982820Y-91047990D01*
X136982821Y-91047989D01*
X137003300Y-90971562D01*
X137003300Y-90892438D01*
X137003300Y-90892436D01*
X136990272Y-90843819D01*
X136982821Y-90816011D01*
X136982820Y-90816009D01*
X136982820Y-90816008D01*
X136951009Y-90760911D01*
X136943260Y-90747489D01*
X136887311Y-90691540D01*
X136818790Y-90651979D01*
X136742364Y-90631500D01*
X136742362Y-90631500D01*
X136663238Y-90631500D01*
X136663236Y-90631500D01*
X136586810Y-90651979D01*
X136586808Y-90651979D01*
X136518288Y-90691540D01*
X136518288Y-90691541D01*
X136462341Y-90747488D01*
X136462340Y-90747488D01*
X136422779Y-90816008D01*
X136422779Y-90816010D01*
X136402300Y-90892436D01*
X136402300Y-90971563D01*
X136422779Y-91047989D01*
X136422779Y-91047991D01*
X136458050Y-91109081D01*
X136462945Y-91146263D01*
X136440115Y-91176016D01*
X136434368Y-91178850D01*
X136410411Y-91188774D01*
X136410407Y-91188776D01*
X134689097Y-92910089D01*
X134372302Y-93226884D01*
X134358552Y-93240634D01*
X134327153Y-93272032D01*
X134302718Y-93331022D01*
X134302718Y-94193840D01*
X134288366Y-94228488D01*
X134278219Y-94236275D01*
X134272570Y-94239536D01*
X134272563Y-94239541D01*
X134214757Y-94297348D01*
X134214756Y-94297348D01*
X134173878Y-94368149D01*
X134173877Y-94368153D01*
X134152718Y-94447119D01*
X134152718Y-94528880D01*
X134173877Y-94607846D01*
X134173878Y-94607850D01*
X134199816Y-94652774D01*
X134214756Y-94678651D01*
X134272567Y-94736462D01*
X134298481Y-94751423D01*
X134343367Y-94777339D01*
X134343369Y-94777339D01*
X134343370Y-94777340D01*
X134363112Y-94782630D01*
X134422337Y-94798500D01*
X134422340Y-94798500D01*
X134504098Y-94798500D01*
X134543581Y-94787920D01*
X134583066Y-94777340D01*
X134653869Y-94736462D01*
X134711680Y-94678651D01*
X134752558Y-94607848D01*
X134761596Y-94574119D01*
X135071500Y-94574119D01*
X135071500Y-94655880D01*
X135092659Y-94734846D01*
X135092660Y-94734850D01*
X135127507Y-94795205D01*
X135133538Y-94805651D01*
X135191349Y-94863462D01*
X135217263Y-94878423D01*
X135262149Y-94904339D01*
X135262151Y-94904339D01*
X135262152Y-94904340D01*
X135281894Y-94909630D01*
X135341119Y-94925500D01*
X135341122Y-94925500D01*
X135422880Y-94925500D01*
X135462363Y-94914920D01*
X135501848Y-94904340D01*
X135572651Y-94863462D01*
X135630462Y-94805651D01*
X135671340Y-94734848D01*
X135690542Y-94663186D01*
X135692500Y-94655880D01*
X135692500Y-94574119D01*
X135676630Y-94514894D01*
X135671340Y-94495152D01*
X135671339Y-94495151D01*
X135671339Y-94495149D01*
X135630461Y-94424348D01*
X135572651Y-94366538D01*
X135501850Y-94325660D01*
X135501846Y-94325659D01*
X135422881Y-94304500D01*
X135422878Y-94304500D01*
X135341122Y-94304500D01*
X135341119Y-94304500D01*
X135262153Y-94325659D01*
X135262149Y-94325660D01*
X135191348Y-94366538D01*
X135191348Y-94366539D01*
X135133539Y-94424348D01*
X135133538Y-94424348D01*
X135092660Y-94495149D01*
X135092659Y-94495153D01*
X135071500Y-94574119D01*
X134761596Y-94574119D01*
X134764203Y-94564388D01*
X134765854Y-94558228D01*
X134765854Y-94558227D01*
X134773718Y-94528879D01*
X134773718Y-94447119D01*
X134752558Y-94368153D01*
X134752557Y-94368149D01*
X134721408Y-94314199D01*
X134711680Y-94297349D01*
X134653869Y-94239538D01*
X134648216Y-94236274D01*
X134625387Y-94206521D01*
X134623718Y-94193840D01*
X134623718Y-93534036D01*
X135437100Y-93534036D01*
X135437100Y-93613163D01*
X135457579Y-93689589D01*
X135457579Y-93689591D01*
X135494683Y-93753855D01*
X135497140Y-93758111D01*
X135553089Y-93814060D01*
X135621611Y-93853621D01*
X135657078Y-93863124D01*
X135698036Y-93874100D01*
X135698038Y-93874100D01*
X135777164Y-93874100D01*
X135803830Y-93866954D01*
X135853589Y-93853621D01*
X135922111Y-93814060D01*
X135978060Y-93758111D01*
X136017621Y-93689589D01*
X136038100Y-93613162D01*
X136038100Y-93534038D01*
X136038100Y-93534036D01*
X136021274Y-93471245D01*
X136017621Y-93457611D01*
X136017620Y-93457609D01*
X136017620Y-93457608D01*
X135982158Y-93396187D01*
X135978060Y-93389089D01*
X135922111Y-93333140D01*
X135918446Y-93331024D01*
X135853590Y-93293579D01*
X135777164Y-93273100D01*
X135777162Y-93273100D01*
X135698038Y-93273100D01*
X135698036Y-93273100D01*
X135621610Y-93293579D01*
X135621608Y-93293579D01*
X135553088Y-93333140D01*
X135553088Y-93333141D01*
X135497141Y-93389088D01*
X135497140Y-93389088D01*
X135457579Y-93457608D01*
X135457579Y-93457610D01*
X135437100Y-93534036D01*
X134623718Y-93534036D01*
X134623718Y-93449726D01*
X134638070Y-93415078D01*
X135094058Y-92959090D01*
X135535112Y-92518036D01*
X135945100Y-92518036D01*
X135945100Y-92597163D01*
X135965579Y-92673589D01*
X135965579Y-92673591D01*
X135995422Y-92725279D01*
X136005140Y-92742111D01*
X136061089Y-92798060D01*
X136129611Y-92837621D01*
X136165078Y-92847124D01*
X136206036Y-92858100D01*
X136206038Y-92858100D01*
X136285164Y-92858100D01*
X136311830Y-92850954D01*
X136361589Y-92837621D01*
X136430111Y-92798060D01*
X136486060Y-92742111D01*
X136525621Y-92673589D01*
X136546100Y-92597162D01*
X136546100Y-92518038D01*
X136546100Y-92518036D01*
X136535054Y-92476814D01*
X136525621Y-92441611D01*
X136525620Y-92441609D01*
X136525620Y-92441608D01*
X136493063Y-92385219D01*
X136486060Y-92373089D01*
X136430111Y-92317140D01*
X136402483Y-92301189D01*
X136361590Y-92277579D01*
X136285164Y-92257100D01*
X136285162Y-92257100D01*
X136206038Y-92257100D01*
X136206036Y-92257100D01*
X136129610Y-92277579D01*
X136129608Y-92277579D01*
X136061088Y-92317140D01*
X136061088Y-92317141D01*
X136005141Y-92373088D01*
X136005140Y-92373088D01*
X135965579Y-92441608D01*
X135965579Y-92441610D01*
X135945100Y-92518036D01*
X135535112Y-92518036D01*
X136284300Y-91768847D01*
X136318947Y-91754496D01*
X136353595Y-91768848D01*
X136364665Y-91788024D01*
X136365053Y-91787864D01*
X136366270Y-91790804D01*
X136366278Y-91790817D01*
X136366281Y-91790830D01*
X136366281Y-91790831D01*
X136393055Y-91837203D01*
X136405842Y-91859351D01*
X136461791Y-91915300D01*
X136530313Y-91954861D01*
X136561382Y-91963186D01*
X136606738Y-91975340D01*
X136606740Y-91975340D01*
X136685866Y-91975340D01*
X136712532Y-91968194D01*
X136762291Y-91954861D01*
X136830813Y-91915300D01*
X136886762Y-91859351D01*
X136886767Y-91859342D01*
X136888718Y-91856801D01*
X136889578Y-91857461D01*
X136916235Y-91837009D01*
X136928915Y-91835340D01*
X138342800Y-91835340D01*
X138377448Y-91849692D01*
X142404148Y-95876392D01*
X142418500Y-95911040D01*
X142418500Y-96780521D01*
X142418500Y-96844371D01*
X142442935Y-96903362D01*
X142442936Y-96903363D01*
X142442936Y-96903364D01*
X143044630Y-97505057D01*
X143058982Y-97539705D01*
X143044630Y-97574353D01*
X143009982Y-97588705D01*
X142279072Y-97588705D01*
X142244424Y-97574353D01*
X139991620Y-95321548D01*
X139914251Y-95289500D01*
X139914250Y-95289500D01*
X139234767Y-95289500D01*
X139200119Y-95275148D01*
X139184511Y-95259540D01*
X139115990Y-95219979D01*
X139039564Y-95199500D01*
X139039562Y-95199500D01*
X138960438Y-95199500D01*
X138960436Y-95199500D01*
X138884010Y-95219979D01*
X138884008Y-95219979D01*
X138859233Y-95234284D01*
X138822051Y-95239179D01*
X138792298Y-95216349D01*
X138785733Y-95191849D01*
X138785733Y-94476027D01*
X139782262Y-94476027D01*
X139782262Y-94564368D01*
X139802983Y-94641699D01*
X139805126Y-94649696D01*
X139820841Y-94676916D01*
X139849292Y-94726196D01*
X139849294Y-94726198D01*
X139849295Y-94726200D01*
X139911760Y-94788665D01*
X139911761Y-94788666D01*
X139911763Y-94788667D01*
X139923088Y-94795205D01*
X139988264Y-94832834D01*
X140030928Y-94844266D01*
X140073591Y-94855698D01*
X140073593Y-94855698D01*
X140161933Y-94855698D01*
X140196062Y-94846552D01*
X140247260Y-94832834D01*
X140323764Y-94788665D01*
X140386229Y-94726200D01*
X140430398Y-94649696D01*
X140453020Y-94565270D01*
X140453262Y-94564368D01*
X140453262Y-94476027D01*
X140435493Y-94409716D01*
X140430398Y-94390700D01*
X140386229Y-94314196D01*
X140323764Y-94251731D01*
X140323762Y-94251730D01*
X140323760Y-94251728D01*
X140272493Y-94222130D01*
X140247260Y-94207562D01*
X140247257Y-94207561D01*
X140161933Y-94184698D01*
X140161931Y-94184698D01*
X140073593Y-94184698D01*
X140073591Y-94184698D01*
X139988266Y-94207561D01*
X139988264Y-94207562D01*
X139911763Y-94251728D01*
X139911757Y-94251733D01*
X139849297Y-94314193D01*
X139849292Y-94314199D01*
X139805126Y-94390700D01*
X139805125Y-94390702D01*
X139782262Y-94476027D01*
X138785733Y-94476027D01*
X138785733Y-93793420D01*
X138800085Y-93758772D01*
X138807237Y-93753283D01*
X138807192Y-93753225D01*
X138809736Y-93751271D01*
X138809744Y-93751267D01*
X138865693Y-93695318D01*
X138905254Y-93626796D01*
X138923094Y-93560218D01*
X138925733Y-93550370D01*
X138925733Y-93471243D01*
X138914528Y-93429430D01*
X138905254Y-93394818D01*
X138905253Y-93394816D01*
X138905253Y-93394815D01*
X138870057Y-93333855D01*
X138865693Y-93326296D01*
X138809744Y-93270347D01*
X138787255Y-93257363D01*
X138741223Y-93230786D01*
X138664797Y-93210307D01*
X138664795Y-93210307D01*
X138585671Y-93210307D01*
X138585669Y-93210307D01*
X138509243Y-93230786D01*
X138509241Y-93230786D01*
X138440721Y-93270347D01*
X138440721Y-93270348D01*
X138384774Y-93326295D01*
X138384773Y-93326295D01*
X138345212Y-93394815D01*
X138345212Y-93394817D01*
X138324733Y-93471243D01*
X138324733Y-93550370D01*
X138345212Y-93626796D01*
X138345212Y-93626798D01*
X138384773Y-93695318D01*
X138440722Y-93751267D01*
X138440725Y-93751269D01*
X138443274Y-93753225D01*
X138442612Y-93754087D01*
X138463062Y-93780733D01*
X138464733Y-93793420D01*
X138464733Y-95588283D01*
X138464733Y-95652133D01*
X138489168Y-95711124D01*
X138489169Y-95711125D01*
X138489169Y-95711126D01*
X141979094Y-99201050D01*
X141993446Y-99235698D01*
X141979094Y-99270346D01*
X141944446Y-99284698D01*
X141938198Y-99284698D01*
X141861772Y-99305177D01*
X141861770Y-99305177D01*
X141793250Y-99344738D01*
X141793250Y-99344739D01*
X141747410Y-99390579D01*
X141712762Y-99404931D01*
X141678114Y-99390579D01*
X141632273Y-99344738D01*
X141563752Y-99305177D01*
X141487326Y-99284698D01*
X141487324Y-99284698D01*
X141408200Y-99284698D01*
X141408198Y-99284698D01*
X141331772Y-99305177D01*
X141331770Y-99305177D01*
X141263250Y-99344738D01*
X141263250Y-99344739D01*
X141207303Y-99400686D01*
X141207302Y-99400686D01*
X141167741Y-99469206D01*
X141167741Y-99469208D01*
X141147262Y-99545634D01*
X141147262Y-99624761D01*
X141167740Y-99701186D01*
X141167741Y-99701187D01*
X141182067Y-99726000D01*
X141186963Y-99763181D01*
X141164133Y-99792935D01*
X141139632Y-99799500D01*
X133749500Y-99799500D01*
X133714852Y-99785148D01*
X133700500Y-99750500D01*
X133700500Y-98868036D01*
X133913100Y-98868036D01*
X133913100Y-98947163D01*
X133933579Y-99023589D01*
X133933579Y-99023591D01*
X133965173Y-99078312D01*
X133973140Y-99092111D01*
X134029089Y-99148060D01*
X134097611Y-99187621D01*
X134122541Y-99194301D01*
X134174036Y-99208100D01*
X134174038Y-99208100D01*
X134253164Y-99208100D01*
X134279830Y-99200954D01*
X134329589Y-99187621D01*
X134398111Y-99148060D01*
X134454060Y-99092111D01*
X134493384Y-99024000D01*
X134493620Y-99023591D01*
X134493620Y-99023590D01*
X134493621Y-99023589D01*
X134510249Y-98961534D01*
X134514100Y-98947163D01*
X134514100Y-98868036D01*
X134501105Y-98819541D01*
X134493621Y-98791611D01*
X134493620Y-98791609D01*
X134493620Y-98791608D01*
X134468539Y-98748168D01*
X134454060Y-98723089D01*
X134398111Y-98667140D01*
X134374212Y-98653342D01*
X134329590Y-98627579D01*
X134253164Y-98607100D01*
X134253162Y-98607100D01*
X134174038Y-98607100D01*
X134174036Y-98607100D01*
X134097610Y-98627579D01*
X134097608Y-98627579D01*
X134029088Y-98667140D01*
X134029088Y-98667141D01*
X133973141Y-98723088D01*
X133973140Y-98723088D01*
X133933579Y-98791608D01*
X133933579Y-98791610D01*
X133913100Y-98868036D01*
X133700500Y-98868036D01*
X133700500Y-97710634D01*
X136177262Y-97710634D01*
X136177262Y-97789761D01*
X136197741Y-97866187D01*
X136197741Y-97866189D01*
X136212549Y-97891836D01*
X136237302Y-97934709D01*
X136293251Y-97990658D01*
X136361773Y-98030219D01*
X136397021Y-98039664D01*
X136438198Y-98050698D01*
X136438200Y-98050698D01*
X136517326Y-98050698D01*
X136543992Y-98043552D01*
X136593751Y-98030219D01*
X136662273Y-97990658D01*
X136718222Y-97934709D01*
X136753831Y-97873032D01*
X136757782Y-97866189D01*
X136757782Y-97866188D01*
X136757783Y-97866187D01*
X136778262Y-97789760D01*
X136778262Y-97710636D01*
X136778262Y-97710634D01*
X136764828Y-97660500D01*
X136757783Y-97634209D01*
X136757782Y-97634207D01*
X136757782Y-97634206D01*
X136730399Y-97586779D01*
X136718222Y-97565687D01*
X136662273Y-97509738D01*
X136635376Y-97494209D01*
X136593752Y-97470177D01*
X136517326Y-97449698D01*
X136517324Y-97449698D01*
X136438200Y-97449698D01*
X136438198Y-97449698D01*
X136361772Y-97470177D01*
X136361770Y-97470177D01*
X136293250Y-97509738D01*
X136293250Y-97509739D01*
X136237303Y-97565686D01*
X136237302Y-97565686D01*
X136197741Y-97634206D01*
X136197741Y-97634208D01*
X136177262Y-97710634D01*
X133700500Y-97710634D01*
X133700500Y-97002389D01*
X133701389Y-96964882D01*
X133700500Y-96962583D01*
X133700500Y-96960118D01*
X133700500Y-96958464D01*
X133700000Y-96952673D01*
X133700000Y-96633444D01*
X136314918Y-96633444D01*
X136314918Y-96734951D01*
X136341189Y-96832993D01*
X136341190Y-96832997D01*
X136388247Y-96914500D01*
X136391942Y-96920900D01*
X136463716Y-96992674D01*
X136479171Y-97001597D01*
X136551618Y-97043425D01*
X136551620Y-97043425D01*
X136551621Y-97043426D01*
X136558544Y-97045281D01*
X136649664Y-97069698D01*
X136649666Y-97069698D01*
X136751172Y-97069698D01*
X136800192Y-97056562D01*
X136849215Y-97043426D01*
X136937120Y-96992674D01*
X137008894Y-96920900D01*
X137059646Y-96832995D01*
X137080623Y-96754712D01*
X137085918Y-96734951D01*
X137085918Y-96633444D01*
X137065832Y-96558488D01*
X137059646Y-96535401D01*
X137059645Y-96535400D01*
X137059645Y-96535398D01*
X137027469Y-96479669D01*
X137008894Y-96447496D01*
X136937120Y-96375722D01*
X136910755Y-96360500D01*
X136849217Y-96324970D01*
X136849213Y-96324969D01*
X136751172Y-96298698D01*
X136751170Y-96298698D01*
X136649666Y-96298698D01*
X136649664Y-96298698D01*
X136551622Y-96324969D01*
X136551618Y-96324970D01*
X136463715Y-96375722D01*
X136463715Y-96375723D01*
X136391943Y-96447495D01*
X136391942Y-96447495D01*
X136341190Y-96535398D01*
X136341189Y-96535402D01*
X136314918Y-96633444D01*
X133700000Y-96633444D01*
X133700000Y-91400436D01*
X134167100Y-91400436D01*
X134167100Y-91479563D01*
X134187579Y-91555989D01*
X134187579Y-91555991D01*
X134200539Y-91578437D01*
X134227140Y-91624511D01*
X134283089Y-91680460D01*
X134294883Y-91687269D01*
X134341878Y-91714402D01*
X134351611Y-91720021D01*
X134387078Y-91729524D01*
X134428036Y-91740500D01*
X134428038Y-91740500D01*
X134507164Y-91740500D01*
X134533830Y-91733354D01*
X134583589Y-91720021D01*
X134652111Y-91680460D01*
X134708060Y-91624511D01*
X134747621Y-91555989D01*
X134749316Y-91549659D01*
X134772144Y-91519906D01*
X134809325Y-91515008D01*
X134839080Y-91537836D01*
X134843977Y-91549656D01*
X134855743Y-91593563D01*
X134855743Y-91593565D01*
X134873611Y-91624512D01*
X134896621Y-91664366D01*
X134954432Y-91722177D01*
X134980346Y-91737138D01*
X135025232Y-91763054D01*
X135025234Y-91763054D01*
X135025235Y-91763055D01*
X135044977Y-91768345D01*
X135104202Y-91784215D01*
X135104205Y-91784215D01*
X135185963Y-91784215D01*
X135225446Y-91773635D01*
X135264931Y-91763055D01*
X135335734Y-91722177D01*
X135393545Y-91664366D01*
X135434423Y-91593563D01*
X135453577Y-91522081D01*
X135455583Y-91514595D01*
X135455583Y-91432834D01*
X135434423Y-91353868D01*
X135434422Y-91353864D01*
X135393544Y-91283063D01*
X135335734Y-91225253D01*
X135264933Y-91184375D01*
X135264929Y-91184374D01*
X135185964Y-91163215D01*
X135185961Y-91163215D01*
X135104205Y-91163215D01*
X135104202Y-91163215D01*
X135025236Y-91184374D01*
X135025232Y-91184375D01*
X134954431Y-91225253D01*
X134954431Y-91225254D01*
X134896622Y-91283063D01*
X134896621Y-91283063D01*
X134855743Y-91353864D01*
X134853012Y-91364059D01*
X134830181Y-91393811D01*
X134792998Y-91398705D01*
X134763246Y-91375874D01*
X134758352Y-91364058D01*
X134754656Y-91350267D01*
X134747621Y-91324011D01*
X134747620Y-91324009D01*
X134747620Y-91324008D01*
X134710891Y-91260393D01*
X134708060Y-91255489D01*
X134652111Y-91199540D01*
X134633467Y-91188776D01*
X134583590Y-91159979D01*
X134507164Y-91139500D01*
X134507162Y-91139500D01*
X134428038Y-91139500D01*
X134428036Y-91139500D01*
X134351610Y-91159979D01*
X134351608Y-91159979D01*
X134283088Y-91199540D01*
X134283088Y-91199541D01*
X134227141Y-91255488D01*
X134227140Y-91255488D01*
X134187579Y-91324008D01*
X134187579Y-91324010D01*
X134167100Y-91400436D01*
X133700000Y-91400436D01*
X133700000Y-91047320D01*
X133700723Y-91038934D01*
X133700863Y-91038128D01*
X133701085Y-91036935D01*
X133701202Y-91036344D01*
X133701230Y-91036030D01*
X133701389Y-91035116D01*
X133700514Y-90998201D01*
X133700500Y-90997039D01*
X133700500Y-90130436D01*
X142904700Y-90130436D01*
X142904700Y-90209563D01*
X142925179Y-90285989D01*
X142925179Y-90285991D01*
X142959775Y-90345912D01*
X142964740Y-90354511D01*
X143020689Y-90410460D01*
X143089211Y-90450021D01*
X143124678Y-90459524D01*
X143165636Y-90470500D01*
X143165638Y-90470500D01*
X143244764Y-90470500D01*
X143271430Y-90463354D01*
X143321189Y-90450021D01*
X143389711Y-90410460D01*
X143445660Y-90354511D01*
X143480836Y-90293584D01*
X143485220Y-90285991D01*
X143485220Y-90285990D01*
X143485221Y-90285989D01*
X143503627Y-90217299D01*
X143505700Y-90209563D01*
X143505700Y-90130436D01*
X143488445Y-90066044D01*
X143485221Y-90054011D01*
X143485220Y-90054009D01*
X143485220Y-90054008D01*
X143460139Y-90010568D01*
X143445660Y-89985489D01*
X143404719Y-89944548D01*
X143390367Y-89909900D01*
X143404719Y-89875252D01*
X143439367Y-89860900D01*
X143447964Y-89860900D01*
X143474630Y-89853754D01*
X143524389Y-89840421D01*
X143592911Y-89800860D01*
X143648860Y-89744911D01*
X143688421Y-89676389D01*
X143708900Y-89599962D01*
X143708900Y-89520838D01*
X143708900Y-89520836D01*
X143695905Y-89472342D01*
X143688421Y-89444411D01*
X143688420Y-89444409D01*
X143688420Y-89444408D01*
X143648859Y-89375888D01*
X143592911Y-89319940D01*
X143524390Y-89280379D01*
X143447964Y-89259900D01*
X143447962Y-89259900D01*
X143368838Y-89259900D01*
X143368836Y-89259900D01*
X143292410Y-89280379D01*
X143292408Y-89280379D01*
X143223888Y-89319940D01*
X143223888Y-89319941D01*
X143167941Y-89375888D01*
X143167940Y-89375888D01*
X143128379Y-89444408D01*
X143128379Y-89444410D01*
X143107900Y-89520836D01*
X143107900Y-89599963D01*
X143128379Y-89676389D01*
X143128379Y-89676391D01*
X143167940Y-89744911D01*
X143208881Y-89785852D01*
X143223233Y-89820500D01*
X143208881Y-89855148D01*
X143174233Y-89869500D01*
X143165636Y-89869500D01*
X143089210Y-89889979D01*
X143089208Y-89889979D01*
X143020688Y-89929540D01*
X143020688Y-89929541D01*
X142964741Y-89985488D01*
X142964740Y-89985488D01*
X142925179Y-90054008D01*
X142925179Y-90054010D01*
X142904700Y-90130436D01*
X133700500Y-90130436D01*
X133700500Y-89673236D01*
X140771100Y-89673236D01*
X140771100Y-89752363D01*
X140791579Y-89828789D01*
X140791579Y-89828791D01*
X140826907Y-89889979D01*
X140831140Y-89897311D01*
X140887089Y-89953260D01*
X140924914Y-89975098D01*
X140942911Y-89985489D01*
X140955611Y-89992821D01*
X140991078Y-90002324D01*
X141032036Y-90013300D01*
X141032038Y-90013300D01*
X141111164Y-90013300D01*
X141137830Y-90006154D01*
X141187589Y-89992821D01*
X141256111Y-89953260D01*
X141312060Y-89897311D01*
X141351621Y-89828789D01*
X141372100Y-89752362D01*
X141372100Y-89673238D01*
X141372100Y-89673236D01*
X141358487Y-89622436D01*
X141351621Y-89596811D01*
X141351620Y-89596809D01*
X141351620Y-89596808D01*
X141312059Y-89528288D01*
X141296399Y-89512628D01*
X141282047Y-89477980D01*
X141296399Y-89443332D01*
X141306538Y-89435551D01*
X141363851Y-89402462D01*
X141421662Y-89344651D01*
X141462540Y-89273848D01*
X141480783Y-89205765D01*
X141483700Y-89194880D01*
X141483700Y-89113119D01*
X141462540Y-89034153D01*
X141462539Y-89034149D01*
X141428092Y-88974486D01*
X141421662Y-88963349D01*
X141363851Y-88905538D01*
X141350887Y-88898053D01*
X141293050Y-88864660D01*
X141293046Y-88864659D01*
X141260093Y-88855829D01*
X144702262Y-88855829D01*
X144702262Y-88944170D01*
X144710384Y-88974482D01*
X144725126Y-89029498D01*
X144745235Y-89064329D01*
X144769292Y-89105998D01*
X144769294Y-89106000D01*
X144769295Y-89106002D01*
X144831760Y-89168467D01*
X144908264Y-89212636D01*
X144950928Y-89224068D01*
X144993591Y-89235500D01*
X144993593Y-89235500D01*
X145081933Y-89235500D01*
X145116062Y-89226354D01*
X145167260Y-89212636D01*
X145243764Y-89168467D01*
X145306229Y-89106002D01*
X145350398Y-89029498D01*
X145373262Y-88944169D01*
X145373262Y-88855831D01*
X145373262Y-88855829D01*
X145359494Y-88804449D01*
X145350398Y-88770502D01*
X145306229Y-88693998D01*
X145243764Y-88631533D01*
X145243762Y-88631532D01*
X145243760Y-88631530D01*
X145175215Y-88591957D01*
X145167260Y-88587364D01*
X145167257Y-88587363D01*
X145081933Y-88564500D01*
X145081931Y-88564500D01*
X144993593Y-88564500D01*
X144993591Y-88564500D01*
X144908266Y-88587363D01*
X144908264Y-88587364D01*
X144831763Y-88631530D01*
X144831757Y-88631535D01*
X144769297Y-88693995D01*
X144769292Y-88694001D01*
X144725126Y-88770502D01*
X144725125Y-88770504D01*
X144702262Y-88855829D01*
X141260093Y-88855829D01*
X141214081Y-88843500D01*
X141214078Y-88843500D01*
X141132322Y-88843500D01*
X141132319Y-88843500D01*
X141053353Y-88864659D01*
X141053349Y-88864660D01*
X140982548Y-88905538D01*
X140982548Y-88905539D01*
X140924739Y-88963348D01*
X140924738Y-88963348D01*
X140883860Y-89034149D01*
X140883859Y-89034153D01*
X140862700Y-89113119D01*
X140862700Y-89194880D01*
X140883859Y-89273846D01*
X140883860Y-89273850D01*
X140924738Y-89344651D01*
X140946754Y-89366667D01*
X140961106Y-89401315D01*
X140946754Y-89435963D01*
X140936607Y-89443750D01*
X140887086Y-89472342D01*
X140831141Y-89528288D01*
X140831140Y-89528288D01*
X140791579Y-89596808D01*
X140791579Y-89596810D01*
X140771100Y-89673236D01*
X133700500Y-89673236D01*
X133700500Y-88249500D01*
X133714852Y-88214852D01*
X133749500Y-88200500D01*
X143474183Y-88200500D01*
X143508831Y-88214852D01*
G37*
%TD.AperFunction*%
%TA.AperFunction,Conductor*%
G36*
X139799539Y-95724852D02*
G01*
X141993131Y-97918444D01*
X142052345Y-97977658D01*
X142129713Y-98009705D01*
X143300663Y-98009705D01*
X143335311Y-98024057D01*
X143350919Y-98039665D01*
X143419441Y-98079226D01*
X143454908Y-98088729D01*
X143495866Y-98099705D01*
X143495868Y-98099705D01*
X143574994Y-98099705D01*
X143601660Y-98092559D01*
X143651419Y-98079226D01*
X143719941Y-98039665D01*
X143775890Y-97983716D01*
X143815451Y-97915194D01*
X143835608Y-97839968D01*
X143835930Y-97838768D01*
X143835930Y-97759641D01*
X143823300Y-97712508D01*
X143815451Y-97683216D01*
X143815450Y-97683214D01*
X143815450Y-97683213D01*
X143810245Y-97674198D01*
X143805350Y-97637015D01*
X143828180Y-97607263D01*
X143852680Y-97600698D01*
X144449617Y-97600698D01*
X144484265Y-97615050D01*
X144498617Y-97649698D01*
X144492052Y-97674198D01*
X144469729Y-97712860D01*
X144469729Y-97712862D01*
X144449250Y-97789288D01*
X144449250Y-97868415D01*
X144469729Y-97944841D01*
X144469729Y-97944843D01*
X144499410Y-97996250D01*
X144509290Y-98013363D01*
X144565239Y-98069312D01*
X144582409Y-98079225D01*
X144631119Y-98107348D01*
X144633761Y-98108873D01*
X144669228Y-98118376D01*
X144710186Y-98129352D01*
X144710188Y-98129352D01*
X144789314Y-98129352D01*
X144815980Y-98122206D01*
X144865739Y-98108873D01*
X144868381Y-98107348D01*
X144874920Y-98103572D01*
X144934261Y-98069312D01*
X144990210Y-98013363D01*
X145012732Y-97974352D01*
X145042483Y-97951524D01*
X145079666Y-97956419D01*
X145089814Y-97964206D01*
X146700348Y-99574740D01*
X146714700Y-99609388D01*
X146714700Y-99624761D01*
X146735178Y-99701186D01*
X146735179Y-99701187D01*
X146749505Y-99726000D01*
X146754401Y-99763181D01*
X146731571Y-99792935D01*
X146707070Y-99799500D01*
X146285892Y-99799500D01*
X146251244Y-99785148D01*
X146236892Y-99750500D01*
X146243456Y-99726001D01*
X146257783Y-99701187D01*
X146278262Y-99624760D01*
X146278262Y-99545636D01*
X146278262Y-99545634D01*
X146265623Y-99498468D01*
X146257783Y-99469209D01*
X146257782Y-99469207D01*
X146257782Y-99469206D01*
X146228323Y-99418182D01*
X146218222Y-99400687D01*
X146162273Y-99344738D01*
X146125692Y-99323618D01*
X146093752Y-99305177D01*
X146017326Y-99284698D01*
X146017324Y-99284698D01*
X145938200Y-99284698D01*
X145938197Y-99284698D01*
X145935013Y-99285117D01*
X145934871Y-99284043D01*
X145901556Y-99279653D01*
X145891414Y-99271869D01*
X145718680Y-99099134D01*
X145659688Y-99074698D01*
X145659687Y-99074698D01*
X142327000Y-99074698D01*
X142292352Y-99060346D01*
X139094008Y-95862002D01*
X139079656Y-95827354D01*
X139094008Y-95792706D01*
X139113185Y-95781638D01*
X139113024Y-95781249D01*
X139115983Y-95780023D01*
X139115984Y-95780022D01*
X139115989Y-95780021D01*
X139184511Y-95740460D01*
X139200119Y-95724852D01*
X139234767Y-95710500D01*
X139764891Y-95710500D01*
X139799539Y-95724852D01*
G37*
%TD.AperFunction*%
%TA.AperFunction,Conductor*%
G36*
X153482338Y-92595050D02*
G01*
X157871805Y-96984517D01*
X157886157Y-97019165D01*
X157886157Y-97336235D01*
X157871805Y-97370883D01*
X157784084Y-97458604D01*
X157772511Y-97470177D01*
X157738935Y-97503752D01*
X157714500Y-97562742D01*
X157714500Y-97818554D01*
X157700148Y-97853202D01*
X157668004Y-97885346D01*
X157633356Y-97899698D01*
X156980375Y-97899698D01*
X156945727Y-97885346D01*
X156937946Y-97875208D01*
X156936689Y-97873032D01*
X156931785Y-97835851D01*
X156944467Y-97813877D01*
X156997736Y-97760609D01*
X157037297Y-97692087D01*
X157046184Y-97658919D01*
X157069014Y-97629167D01*
X157106196Y-97624272D01*
X157118011Y-97629165D01*
X157129962Y-97636065D01*
X157139074Y-97641326D01*
X157215499Y-97661805D01*
X157215501Y-97661805D01*
X157294627Y-97661805D01*
X157321293Y-97654659D01*
X157371052Y-97641326D01*
X157439574Y-97601765D01*
X157495523Y-97545816D01*
X157535084Y-97477294D01*
X157555563Y-97400867D01*
X157555563Y-97321743D01*
X157555563Y-97321741D01*
X157544297Y-97279698D01*
X157535084Y-97245316D01*
X157535083Y-97245314D01*
X157535083Y-97245313D01*
X157509592Y-97201162D01*
X157495523Y-97176794D01*
X157439574Y-97120845D01*
X157421682Y-97110515D01*
X157371053Y-97081284D01*
X157294627Y-97060805D01*
X157294625Y-97060805D01*
X157215501Y-97060805D01*
X157215500Y-97060805D01*
X157171301Y-97072647D01*
X157139870Y-97070587D01*
X157139399Y-97070391D01*
X157127825Y-97065598D01*
X156644226Y-97065598D01*
X156580376Y-97065598D01*
X156580374Y-97065598D01*
X156531504Y-97085841D01*
X156521487Y-97089991D01*
X156521383Y-97090034D01*
X156521382Y-97090034D01*
X156286270Y-97325148D01*
X156251622Y-97339500D01*
X150385098Y-97339500D01*
X150326106Y-97363936D01*
X150326105Y-97363936D01*
X149250882Y-98439162D01*
X149038084Y-98651960D01*
X149022904Y-98667140D01*
X148992935Y-98697108D01*
X148968500Y-98756098D01*
X148968500Y-99109901D01*
X148973036Y-99120852D01*
X148992935Y-99168891D01*
X148992936Y-99168892D01*
X148992936Y-99168893D01*
X149180094Y-99356050D01*
X149194446Y-99390698D01*
X149180094Y-99425346D01*
X149145446Y-99439698D01*
X148990055Y-99439698D01*
X148955407Y-99425346D01*
X148755515Y-99225454D01*
X148741163Y-99190806D01*
X148742340Y-99181861D01*
X148742268Y-99181852D01*
X148742687Y-99178670D01*
X148742687Y-99099543D01*
X148732183Y-99060346D01*
X148722208Y-99023118D01*
X148722207Y-99023116D01*
X148722207Y-99023115D01*
X148697126Y-98979675D01*
X148682647Y-98954596D01*
X148626698Y-98898647D01*
X148620321Y-98894965D01*
X148558177Y-98859086D01*
X148481751Y-98838607D01*
X148481749Y-98838607D01*
X148402625Y-98838607D01*
X148402623Y-98838607D01*
X148326197Y-98859086D01*
X148326195Y-98859086D01*
X148257675Y-98898647D01*
X148257675Y-98898648D01*
X148201728Y-98954595D01*
X148201727Y-98954595D01*
X148162166Y-99023115D01*
X148162166Y-99023117D01*
X148141687Y-99099543D01*
X148141687Y-99178670D01*
X148162166Y-99255096D01*
X148162166Y-99255098D01*
X148198220Y-99317544D01*
X148201727Y-99323618D01*
X148257676Y-99379567D01*
X148326198Y-99419128D01*
X148360204Y-99428240D01*
X148402623Y-99439607D01*
X148402625Y-99439607D01*
X148481751Y-99439607D01*
X148484932Y-99439188D01*
X148485073Y-99440263D01*
X148518380Y-99444644D01*
X148528534Y-99452435D01*
X148767213Y-99691114D01*
X148784163Y-99708064D01*
X148791951Y-99715852D01*
X148806302Y-99750501D01*
X148791950Y-99785149D01*
X148757302Y-99799500D01*
X147323330Y-99799500D01*
X147288682Y-99785148D01*
X147274330Y-99750500D01*
X147280894Y-99726001D01*
X147295221Y-99701187D01*
X147315700Y-99624760D01*
X147315700Y-99545636D01*
X147315700Y-99545634D01*
X147303061Y-99498468D01*
X147295221Y-99469209D01*
X147295220Y-99469207D01*
X147295220Y-99469206D01*
X147265761Y-99418182D01*
X147255660Y-99400687D01*
X147199711Y-99344738D01*
X147163130Y-99323618D01*
X147131190Y-99305177D01*
X147054764Y-99284698D01*
X147054762Y-99284698D01*
X146975638Y-99284698D01*
X146975635Y-99284698D01*
X146915129Y-99300911D01*
X146877947Y-99296016D01*
X146867799Y-99288229D01*
X145551770Y-97972200D01*
X145537418Y-97937552D01*
X145551770Y-97902904D01*
X145570947Y-97891836D01*
X145570786Y-97891447D01*
X145573745Y-97890221D01*
X145573746Y-97890220D01*
X145573751Y-97890219D01*
X145642273Y-97850658D01*
X145698222Y-97794709D01*
X145737783Y-97726187D01*
X145753933Y-97665911D01*
X145758262Y-97649761D01*
X145758262Y-97570634D01*
X145749605Y-97538332D01*
X145737783Y-97494209D01*
X145737782Y-97494207D01*
X145737782Y-97494206D01*
X145712085Y-97449698D01*
X145698222Y-97425687D01*
X145642273Y-97369738D01*
X145619398Y-97356531D01*
X145573752Y-97330177D01*
X145497326Y-97309698D01*
X145497324Y-97309698D01*
X145418200Y-97309698D01*
X145418198Y-97309698D01*
X145341772Y-97330177D01*
X145341770Y-97330177D01*
X145273252Y-97369737D01*
X145219633Y-97423356D01*
X145184985Y-97437707D01*
X145150337Y-97423355D01*
X145031117Y-97304135D01*
X145031115Y-97304134D01*
X145031114Y-97304133D01*
X144990225Y-97287196D01*
X144972124Y-97279698D01*
X144972123Y-97279698D01*
X143688588Y-97279698D01*
X143653940Y-97265346D01*
X143639588Y-97230698D01*
X143641258Y-97218015D01*
X143644865Y-97204556D01*
X143650070Y-97185129D01*
X143662227Y-97139761D01*
X143662227Y-97078965D01*
X143676579Y-97044317D01*
X143711227Y-97029965D01*
X143723906Y-97031634D01*
X143744981Y-97037281D01*
X143768186Y-97043500D01*
X143768188Y-97043500D01*
X143847314Y-97043500D01*
X143873980Y-97036354D01*
X143923739Y-97023021D01*
X143992261Y-96983460D01*
X144048210Y-96927511D01*
X144048215Y-96927502D01*
X144050166Y-96924961D01*
X144051026Y-96925621D01*
X144077683Y-96905169D01*
X144090363Y-96903500D01*
X144826883Y-96903500D01*
X144826885Y-96903500D01*
X144885876Y-96879065D01*
X144912089Y-96852851D01*
X144946736Y-96838500D01*
X146096248Y-96838500D01*
X146130896Y-96852852D01*
X146368960Y-97090916D01*
X146414109Y-97136065D01*
X146441332Y-97147341D01*
X146447343Y-97149831D01*
X146452996Y-97155484D01*
X146460587Y-97157990D01*
X146465747Y-97168236D01*
X146473861Y-97176350D01*
X146473861Y-97184344D01*
X146477457Y-97191484D01*
X146473861Y-97201162D01*
X146473861Y-97213853D01*
X146465702Y-97227097D01*
X146464513Y-97228475D01*
X146427302Y-97265687D01*
X146416905Y-97283693D01*
X146413886Y-97287196D01*
X146400949Y-97293711D01*
X146389454Y-97302531D01*
X146384686Y-97301903D01*
X146380392Y-97304066D01*
X146366639Y-97299526D01*
X146352275Y-97297635D01*
X146321602Y-97279926D01*
X146245176Y-97259447D01*
X146245174Y-97259447D01*
X146166050Y-97259447D01*
X146166048Y-97259447D01*
X146089622Y-97279926D01*
X146089620Y-97279926D01*
X146021100Y-97319487D01*
X146021100Y-97319488D01*
X145965153Y-97375435D01*
X145965152Y-97375435D01*
X145925591Y-97443955D01*
X145925591Y-97443957D01*
X145905112Y-97520383D01*
X145905112Y-97599510D01*
X145925591Y-97675936D01*
X145925591Y-97675938D01*
X145959049Y-97733887D01*
X145965152Y-97744458D01*
X146021101Y-97800407D01*
X146059231Y-97822421D01*
X146087686Y-97838850D01*
X146089623Y-97839968D01*
X146125090Y-97849471D01*
X146166048Y-97860447D01*
X146166050Y-97860447D01*
X146245176Y-97860447D01*
X146281706Y-97850658D01*
X146321601Y-97839968D01*
X146323538Y-97838850D01*
X146351993Y-97822421D01*
X146390123Y-97800407D01*
X146446072Y-97744458D01*
X146454162Y-97730444D01*
X146483915Y-97707614D01*
X146521096Y-97712507D01*
X146521097Y-97712508D01*
X146521098Y-97712509D01*
X146527631Y-97716281D01*
X146551773Y-97730219D01*
X146587152Y-97739699D01*
X146628198Y-97750698D01*
X146628200Y-97750698D01*
X146707326Y-97750698D01*
X146733992Y-97743552D01*
X146783751Y-97730219D01*
X146852273Y-97690658D01*
X146897207Y-97645724D01*
X146931855Y-97631372D01*
X146964758Y-97645001D01*
X146964945Y-97644759D01*
X146965850Y-97645453D01*
X146966503Y-97645724D01*
X146967494Y-97646715D01*
X146993631Y-97661805D01*
X147018106Y-97675936D01*
X147036016Y-97686276D01*
X147062666Y-97693417D01*
X147112441Y-97706755D01*
X147112443Y-97706755D01*
X147191569Y-97706755D01*
X147218235Y-97699609D01*
X147267994Y-97686276D01*
X147336516Y-97646715D01*
X147392465Y-97590766D01*
X147432026Y-97522244D01*
X147452505Y-97445817D01*
X147452505Y-97366693D01*
X147452505Y-97366691D01*
X147439295Y-97317395D01*
X147432026Y-97290266D01*
X147432025Y-97290264D01*
X147432025Y-97290263D01*
X147399541Y-97234000D01*
X147394646Y-97196818D01*
X147417476Y-97167065D01*
X147441976Y-97160500D01*
X147546973Y-97160500D01*
X147581621Y-97174852D01*
X147595973Y-97209500D01*
X147589408Y-97234000D01*
X147577741Y-97254206D01*
X147577741Y-97254208D01*
X147557262Y-97330634D01*
X147557262Y-97409761D01*
X147577741Y-97486187D01*
X147577741Y-97486189D01*
X147612168Y-97545817D01*
X147617302Y-97554709D01*
X147673251Y-97610658D01*
X147718903Y-97637015D01*
X147740979Y-97649761D01*
X147741773Y-97650219D01*
X147774245Y-97658920D01*
X147818198Y-97670698D01*
X147818200Y-97670698D01*
X147897326Y-97670698D01*
X147930512Y-97661805D01*
X147973751Y-97650219D01*
X147974545Y-97649761D01*
X147989156Y-97641325D01*
X148042273Y-97610658D01*
X148043666Y-97609264D01*
X148044587Y-97608882D01*
X148044827Y-97608699D01*
X148044876Y-97608763D01*
X148078311Y-97594909D01*
X148112962Y-97609256D01*
X148117743Y-97615484D01*
X148117924Y-97615346D01*
X148119880Y-97617895D01*
X148119882Y-97617898D01*
X148175831Y-97673847D01*
X148244353Y-97713408D01*
X148279820Y-97722911D01*
X148320778Y-97733887D01*
X148320780Y-97733887D01*
X148399906Y-97733887D01*
X148428640Y-97726187D01*
X148476331Y-97713408D01*
X148544853Y-97673847D01*
X148600802Y-97617898D01*
X148640363Y-97549376D01*
X148660842Y-97472949D01*
X148660842Y-97393825D01*
X148660842Y-97393823D01*
X148643910Y-97330636D01*
X148640363Y-97317398D01*
X148640362Y-97317396D01*
X148640362Y-97317395D01*
X148603879Y-97254206D01*
X148600802Y-97248876D01*
X148596074Y-97244148D01*
X148581722Y-97209500D01*
X148596074Y-97174852D01*
X148630722Y-97160500D01*
X149453145Y-97160500D01*
X149453147Y-97160500D01*
X149512138Y-97136065D01*
X149512140Y-97136063D01*
X149512141Y-97136063D01*
X150117570Y-96530634D01*
X151897262Y-96530634D01*
X151897262Y-96609761D01*
X151917741Y-96686187D01*
X151917741Y-96686189D01*
X151948583Y-96739607D01*
X151957302Y-96754709D01*
X152013251Y-96810658D01*
X152081773Y-96850219D01*
X152115820Y-96859342D01*
X152158198Y-96870698D01*
X152158200Y-96870698D01*
X152237326Y-96870698D01*
X152263992Y-96863552D01*
X152313751Y-96850219D01*
X152382273Y-96810658D01*
X152438222Y-96754709D01*
X152438227Y-96754700D01*
X152440178Y-96752159D01*
X152441038Y-96752819D01*
X152467695Y-96732367D01*
X152480375Y-96730698D01*
X156242525Y-96730698D01*
X156242527Y-96730698D01*
X156301518Y-96706263D01*
X156326852Y-96680927D01*
X156361500Y-96666576D01*
X156370447Y-96667753D01*
X156370457Y-96667681D01*
X156373638Y-96668100D01*
X156452764Y-96668100D01*
X156479546Y-96660923D01*
X156529189Y-96647621D01*
X156597711Y-96608060D01*
X156653660Y-96552111D01*
X156693221Y-96483589D01*
X156709750Y-96421902D01*
X156713700Y-96407163D01*
X156713700Y-96328036D01*
X156701396Y-96282119D01*
X156693221Y-96251611D01*
X156693220Y-96251609D01*
X156693220Y-96251608D01*
X156665795Y-96204108D01*
X156653660Y-96183089D01*
X156597711Y-96127140D01*
X156587535Y-96121265D01*
X156529190Y-96087579D01*
X156452764Y-96067100D01*
X156452762Y-96067100D01*
X156373638Y-96067100D01*
X156373636Y-96067100D01*
X156297210Y-96087579D01*
X156297208Y-96087579D01*
X156228688Y-96127140D01*
X156228688Y-96127141D01*
X156172741Y-96183088D01*
X156172740Y-96183088D01*
X156133179Y-96251608D01*
X156133179Y-96251610D01*
X156112700Y-96328036D01*
X156112700Y-96360698D01*
X156098348Y-96395346D01*
X156063700Y-96409698D01*
X155921529Y-96409698D01*
X155886881Y-96395346D01*
X155872529Y-96360698D01*
X155886881Y-96326050D01*
X155938221Y-96274710D01*
X155938222Y-96274709D01*
X155977783Y-96206187D01*
X155995746Y-96139149D01*
X155998262Y-96129761D01*
X155998262Y-96050634D01*
X155985632Y-96003503D01*
X155977783Y-95974209D01*
X155977782Y-95974207D01*
X155977782Y-95974206D01*
X155946611Y-95920218D01*
X155938222Y-95905687D01*
X155882273Y-95849738D01*
X155843503Y-95827354D01*
X155813752Y-95810177D01*
X155737326Y-95789698D01*
X155737324Y-95789698D01*
X155658200Y-95789698D01*
X155658197Y-95789698D01*
X155655013Y-95790117D01*
X155654871Y-95789043D01*
X155621556Y-95784653D01*
X155611414Y-95776869D01*
X155008680Y-95174134D01*
X154949688Y-95149698D01*
X154949687Y-95149698D01*
X152720375Y-95149698D01*
X152685727Y-95135346D01*
X152680236Y-95128191D01*
X152680178Y-95128237D01*
X152678224Y-95125691D01*
X152678222Y-95125687D01*
X152622273Y-95069738D01*
X152575823Y-95042920D01*
X152553752Y-95030177D01*
X152477326Y-95009698D01*
X152477324Y-95009698D01*
X152398200Y-95009698D01*
X152398198Y-95009698D01*
X152321772Y-95030177D01*
X152321770Y-95030177D01*
X152253250Y-95069738D01*
X152253250Y-95069739D01*
X152197303Y-95125686D01*
X152197302Y-95125686D01*
X152157741Y-95194206D01*
X152157741Y-95194208D01*
X152137262Y-95270634D01*
X152137262Y-95349761D01*
X152157741Y-95426187D01*
X152157741Y-95426189D01*
X152183439Y-95470698D01*
X152197302Y-95494709D01*
X152253251Y-95550658D01*
X152321773Y-95590219D01*
X152357240Y-95599722D01*
X152398198Y-95610698D01*
X152398200Y-95610698D01*
X152477326Y-95610698D01*
X152503992Y-95603552D01*
X152553751Y-95590219D01*
X152622273Y-95550658D01*
X152678222Y-95494709D01*
X152678227Y-95494700D01*
X152680178Y-95492159D01*
X152681038Y-95492819D01*
X152707695Y-95472367D01*
X152720375Y-95470698D01*
X154830985Y-95470698D01*
X154865633Y-95485050D01*
X155384433Y-96003850D01*
X155398785Y-96038498D01*
X155397608Y-96047439D01*
X155397681Y-96047449D01*
X155397262Y-96050633D01*
X155397262Y-96129761D01*
X155417741Y-96206187D01*
X155417741Y-96206189D01*
X155457302Y-96274709D01*
X155508643Y-96326050D01*
X155522995Y-96360698D01*
X155508643Y-96395346D01*
X155473995Y-96409698D01*
X155179435Y-96409698D01*
X155144787Y-96395346D01*
X155130435Y-96360698D01*
X155137000Y-96336198D01*
X155169220Y-96280391D01*
X155169220Y-96280390D01*
X155169221Y-96280389D01*
X155189700Y-96203962D01*
X155189700Y-96124838D01*
X155189700Y-96124836D01*
X155179557Y-96086986D01*
X155169221Y-96048411D01*
X155169220Y-96048409D01*
X155169220Y-96048408D01*
X155142559Y-96002231D01*
X155129660Y-95979889D01*
X155073711Y-95923940D01*
X155067256Y-95920213D01*
X155005190Y-95884379D01*
X154928764Y-95863900D01*
X154928762Y-95863900D01*
X154849638Y-95863900D01*
X154849636Y-95863900D01*
X154773210Y-95884379D01*
X154773208Y-95884379D01*
X154704688Y-95923940D01*
X154704688Y-95923941D01*
X154648743Y-95979885D01*
X154646784Y-95982439D01*
X154645923Y-95981778D01*
X154619267Y-96002231D01*
X154606587Y-96003900D01*
X152781607Y-96003900D01*
X152746959Y-95989548D01*
X152739171Y-95979398D01*
X152731259Y-95965693D01*
X152731256Y-95965690D01*
X152731255Y-95965687D01*
X152675306Y-95909738D01*
X152606785Y-95870177D01*
X152530359Y-95849698D01*
X152530357Y-95849698D01*
X152451233Y-95849698D01*
X152451231Y-95849698D01*
X152374805Y-95870177D01*
X152374803Y-95870177D01*
X152306283Y-95909738D01*
X152306283Y-95909739D01*
X152250336Y-95965686D01*
X152250335Y-95965686D01*
X152210774Y-96034206D01*
X152210774Y-96034208D01*
X152190295Y-96110634D01*
X152190295Y-96189759D01*
X152195447Y-96208988D01*
X152190551Y-96246171D01*
X152160799Y-96269000D01*
X152081772Y-96290177D01*
X152081770Y-96290177D01*
X152013250Y-96329738D01*
X152013250Y-96329739D01*
X151957303Y-96385686D01*
X151957302Y-96385686D01*
X151917741Y-96454206D01*
X151917741Y-96454208D01*
X151897262Y-96530634D01*
X150117570Y-96530634D01*
X153343825Y-93304379D01*
X153343825Y-93304378D01*
X153343827Y-93304376D01*
X153368262Y-93245385D01*
X153368262Y-93181535D01*
X153368262Y-92793298D01*
X153343827Y-92734307D01*
X153298678Y-92689158D01*
X153273866Y-92664346D01*
X153259514Y-92629698D01*
X153273866Y-92595050D01*
X153308514Y-92580698D01*
X153447690Y-92580698D01*
X153482338Y-92595050D01*
G37*
%TD.AperFunction*%
%TA.AperFunction,Conductor*%
G36*
X147860767Y-91823652D02*
G01*
X147875119Y-91858300D01*
X147868555Y-91882799D01*
X147867741Y-91884208D01*
X147847262Y-91960634D01*
X147847262Y-92039761D01*
X147867741Y-92116187D01*
X147867741Y-92116189D01*
X147907302Y-92184709D01*
X147963251Y-92240658D01*
X148008480Y-92266771D01*
X148030023Y-92279209D01*
X148031773Y-92280219D01*
X148058218Y-92287305D01*
X148108198Y-92300698D01*
X148108200Y-92300698D01*
X148187326Y-92300698D01*
X148213992Y-92293552D01*
X148263751Y-92280219D01*
X148265501Y-92279209D01*
X148282317Y-92269500D01*
X148332273Y-92240658D01*
X148388222Y-92184709D01*
X148420585Y-92128653D01*
X148450338Y-92105824D01*
X148487520Y-92110719D01*
X148510350Y-92140471D01*
X148528825Y-92209417D01*
X148528825Y-92209419D01*
X148561938Y-92266771D01*
X148568386Y-92277939D01*
X148624335Y-92333888D01*
X148662004Y-92355636D01*
X148692231Y-92373088D01*
X148692857Y-92373449D01*
X148728324Y-92382952D01*
X148769282Y-92393928D01*
X148769284Y-92393928D01*
X148848410Y-92393928D01*
X148875076Y-92386782D01*
X148924835Y-92373449D01*
X148925461Y-92373088D01*
X148932931Y-92368774D01*
X148993357Y-92333888D01*
X149046123Y-92281121D01*
X149080769Y-92266771D01*
X149115417Y-92281122D01*
X149120161Y-92287305D01*
X149120348Y-92287162D01*
X149122301Y-92289707D01*
X149122302Y-92289709D01*
X149178251Y-92345658D01*
X149246773Y-92385219D01*
X149279275Y-92393928D01*
X149323198Y-92405698D01*
X149323200Y-92405698D01*
X149402326Y-92405698D01*
X149428992Y-92398552D01*
X149478751Y-92385219D01*
X149547273Y-92345658D01*
X149603222Y-92289709D01*
X149642783Y-92221187D01*
X149654239Y-92178432D01*
X149677069Y-92148680D01*
X149714251Y-92143785D01*
X149744004Y-92166615D01*
X149748899Y-92178432D01*
X149761739Y-92226347D01*
X149761739Y-92226349D01*
X149795102Y-92284134D01*
X149801300Y-92294869D01*
X149857249Y-92350818D01*
X149895822Y-92373088D01*
X149916833Y-92385219D01*
X149925771Y-92390379D01*
X149961238Y-92399882D01*
X150002196Y-92410858D01*
X150002198Y-92410858D01*
X150081324Y-92410858D01*
X150107990Y-92403712D01*
X150157749Y-92390379D01*
X150226271Y-92350818D01*
X150282220Y-92294869D01*
X150321781Y-92226347D01*
X150334620Y-92178432D01*
X150342373Y-92149501D01*
X150365204Y-92119748D01*
X150389703Y-92113184D01*
X153716163Y-92113184D01*
X153750811Y-92127536D01*
X158619847Y-96996572D01*
X158634199Y-97031220D01*
X158619847Y-97065868D01*
X158585199Y-97080220D01*
X158560700Y-97073656D01*
X158551155Y-97068145D01*
X158551152Y-97068144D01*
X158465828Y-97045281D01*
X158465826Y-97045281D01*
X158377488Y-97045281D01*
X158377486Y-97045281D01*
X158292161Y-97068144D01*
X158292155Y-97068146D01*
X158280655Y-97074786D01*
X158243473Y-97079680D01*
X158213721Y-97056848D01*
X158207157Y-97032350D01*
X158207157Y-96900465D01*
X158207156Y-96900461D01*
X158202285Y-96888702D01*
X158182722Y-96841472D01*
X158137573Y-96796323D01*
X155885366Y-94544116D01*
X153625385Y-92284134D01*
X153620653Y-92282174D01*
X153583468Y-92266771D01*
X153566393Y-92259698D01*
X153566392Y-92259698D01*
X150977824Y-92259698D01*
X150913974Y-92259698D01*
X150913972Y-92259698D01*
X150866868Y-92279210D01*
X150859713Y-92282174D01*
X150854981Y-92284134D01*
X150854980Y-92284134D01*
X150564378Y-92574738D01*
X150529730Y-92589090D01*
X146580681Y-92589090D01*
X146521689Y-92613526D01*
X145699113Y-93436102D01*
X145682402Y-93443023D01*
X145665875Y-93450434D01*
X145665165Y-93450163D01*
X145664465Y-93450454D01*
X145647754Y-93443531D01*
X145630828Y-93437085D01*
X145630531Y-93436398D01*
X145629817Y-93436102D01*
X145615485Y-93402864D01*
X145615465Y-93402169D01*
X145615465Y-93360636D01*
X145614124Y-93355635D01*
X145613960Y-93349908D01*
X145618746Y-93337341D01*
X145620497Y-93324011D01*
X145627104Y-93315397D01*
X145627309Y-93314861D01*
X145627625Y-93314719D01*
X145628288Y-93313854D01*
X147118492Y-91823652D01*
X147153140Y-91809300D01*
X147826119Y-91809300D01*
X147860767Y-91823652D01*
G37*
%TD.AperFunction*%
%TA.AperFunction,Conductor*%
G36*
X150655854Y-95324852D02*
G01*
X150727973Y-95396971D01*
X150742325Y-95431619D01*
X150727973Y-95466267D01*
X149369093Y-96825148D01*
X149334445Y-96839500D01*
X146591802Y-96839500D01*
X146557154Y-96825148D01*
X146273943Y-96541936D01*
X146214951Y-96517500D01*
X146214950Y-96517500D01*
X144891885Y-96517500D01*
X144828035Y-96517500D01*
X144828033Y-96517500D01*
X144769043Y-96541935D01*
X144758868Y-96552111D01*
X144742830Y-96568148D01*
X144708184Y-96582500D01*
X144090363Y-96582500D01*
X144055715Y-96568148D01*
X144050224Y-96560993D01*
X144050166Y-96561039D01*
X144048212Y-96558493D01*
X144048210Y-96558489D01*
X143992261Y-96502540D01*
X143923740Y-96462979D01*
X143847314Y-96442500D01*
X143847312Y-96442500D01*
X143768188Y-96442500D01*
X143768186Y-96442500D01*
X143691760Y-96462979D01*
X143691758Y-96462979D01*
X143623238Y-96502540D01*
X143623238Y-96502541D01*
X143567291Y-96558488D01*
X143567290Y-96558488D01*
X143527729Y-96627008D01*
X143527729Y-96627010D01*
X143507250Y-96703436D01*
X143507250Y-96764232D01*
X143492898Y-96798880D01*
X143458250Y-96813232D01*
X143445568Y-96811562D01*
X143401292Y-96799698D01*
X143401289Y-96799698D01*
X143322165Y-96799698D01*
X143322164Y-96799698D01*
X143306537Y-96803885D01*
X143299972Y-96803020D01*
X143293856Y-96805554D01*
X143282039Y-96800659D01*
X143269355Y-96798989D01*
X143259208Y-96791202D01*
X143223008Y-96755002D01*
X143208656Y-96720354D01*
X143223008Y-96685706D01*
X143242185Y-96674638D01*
X143242024Y-96674249D01*
X143244983Y-96673023D01*
X143244984Y-96673022D01*
X143244989Y-96673021D01*
X143313511Y-96633460D01*
X143369460Y-96577511D01*
X143409021Y-96508989D01*
X143429500Y-96432562D01*
X143429500Y-96353438D01*
X143429500Y-96353436D01*
X143419541Y-96316272D01*
X143424435Y-96279090D01*
X143454186Y-96256260D01*
X143473751Y-96251018D01*
X143542273Y-96211457D01*
X143598222Y-96155508D01*
X143637783Y-96086986D01*
X143658262Y-96010559D01*
X143658262Y-95962648D01*
X143672614Y-95928000D01*
X143707262Y-95913648D01*
X143728642Y-95919377D01*
X143728803Y-95918989D01*
X143731751Y-95920210D01*
X143731762Y-95920213D01*
X143731771Y-95920218D01*
X143731773Y-95920219D01*
X143767240Y-95929722D01*
X143808198Y-95940698D01*
X143808200Y-95940698D01*
X143887326Y-95940698D01*
X143921893Y-95931435D01*
X143963751Y-95920219D01*
X143963762Y-95920213D01*
X143976088Y-95913096D01*
X144032273Y-95880658D01*
X144088222Y-95824709D01*
X144127783Y-95756187D01*
X144148262Y-95679760D01*
X144148262Y-95600636D01*
X144148262Y-95600634D01*
X144134870Y-95550657D01*
X144127783Y-95524209D01*
X144127777Y-95524198D01*
X144127776Y-95524192D01*
X144126553Y-95521239D01*
X144127344Y-95520911D01*
X144122882Y-95487016D01*
X144145712Y-95457263D01*
X144170212Y-95450698D01*
X145573018Y-95450698D01*
X145607666Y-95465050D01*
X145628681Y-95486065D01*
X145687672Y-95510500D01*
X145687674Y-95510500D01*
X148186948Y-95510500D01*
X148186950Y-95510500D01*
X148245941Y-95486065D01*
X148407154Y-95324852D01*
X148441802Y-95310500D01*
X150621206Y-95310500D01*
X150655854Y-95324852D01*
G37*
%TD.AperFunction*%
%TD*%
M02*
